<svg width="20" height="20" viewBox="0 0 20 20" fill="none" xmlns="http://www.w3.org/2000/svg">
<path d="M18.1807 4.74062C16.4504 2.05422 13.4331 0.275518 10.0002 0.275518C7.85212 0.275518 5.86598 0.971901 4.25731 2.15159C4.18888 2.20098 4.12185 2.25213 4.05553 2.30328L7.1448 2.61478C7.31342 2.54952 7.48417 2.4899 7.65773 2.43628C8.39821 2.20697 9.18456 2.08385 10.0002 2.08385C11.7454 2.08385 13.3586 2.649 14.6674 3.60574C14.9408 3.80541 15.2005 4.02237 15.4456 4.25485L18.7127 5.67583C18.5526 5.35339 18.3748 5.04119 18.1807 4.74062ZM19.6211 8.57813L17.9154 10.0626C17.8819 14.4057 14.3506 17.9154 10.0002 17.9154C5.64161 17.9154 2.10608 14.3933 2.08421 10.0404L0.365829 8.6695C0.305857 9.10448 0.275166 9.54862 0.275166 9.99982C0.275166 15.3705 4.6295 19.7245 10.0002 19.7245C15.3705 19.7245 19.7245 15.3705 19.7245 9.99982C19.7245 9.51687 19.6896 9.04168 19.6211 8.57813Z" fill="url(#paint0_linear_214_698)"/>
<path d="M14.0162 8.03274C14.1248 7.99393 14.2317 7.95936 14.3365 7.92832C15.2015 7.66832 15.9215 7.63269 16.2898 7.57378C16.2542 7.54414 16.2172 7.51592 16.1787 7.48946C15.415 6.95994 14.1016 7.02097 12.9021 7.32789C12.6079 7.11234 12.3726 6.91161 12.1793 6.72323C12.2643 6.67772 12.35 6.63468 12.435 6.59411C14.254 5.72028 15.9893 5.88997 16.5668 5.71993C16.4846 5.66419 16.3992 5.61198 16.311 5.56365C14.8731 4.76461 12.7028 4.87997 11.0772 5.43912C10.838 5.18441 10.5477 4.95723 10.0764 4.74627C10.202 4.69017 10.3268 4.63973 10.4503 4.59492C11.431 4.23403 12.3345 4.17688 12.9081 4.09433C12.7737 3.99379 12.634 3.91124 12.4908 3.84421C10.9132 3.1055 8.8466 4.24109 7.14233 3.90277C4.58081 3.39125 1.47778 3.66077 0.736599 5.81659C0.626886 6.16408 0.612774 6.42866 1.01635 6.707C3.1316 8.46454 5.9898 10.6578 7.02556 12.6947C6.95042 12.6368 6.8714 12.5832 6.7892 12.5338C6.5225 12.3723 6.22334 12.2523 5.91396 12.1627C5.94324 12.2156 5.97146 12.2699 5.99898 12.3264C6.73734 13.8296 6.96735 16.413 9.24453 15.9099C9.25441 15.9078 9.26428 15.906 9.27416 15.9036C8.88364 14.1379 8.35341 12.5793 8.49523 11.3471C8.49558 11.3428 8.49593 11.3383 8.49664 11.3333C8.54603 10.9195 8.67268 10.5431 8.90621 10.208C8.9616 10.1455 9.02016 10.0912 9.08084 10.0439C9.08296 10.0422 9.08472 10.0404 9.08684 10.039C9.51193 9.71055 10.0475 9.70455 10.3611 9.51899C10.3621 9.51828 10.3625 9.51793 10.3628 9.51793C10.6976 9.31826 10.7773 8.91151 10.1946 7.68314C10.3 7.78756 10.396 7.89374 10.4817 8.00064C11.2532 8.96583 11.1626 9.9963 9.65798 10.3082C8.62329 10.5371 9.25546 12.6739 10.2418 17.2434V17.2064C10.2122 13.8444 11.2607 12.7356 13.1872 12.9448C15.1207 13.1533 16.9026 11.6275 16.4306 9.26816C15.6721 8.93126 14.8798 8.53015 14.0162 8.03274ZM4.57094 5.3735C4.05447 5.23698 3.83928 4.77555 3.74014 4.50144C4.45664 4.26155 5.10645 4.37056 5.13326 4.38784C5.15584 4.40266 5.62644 4.69053 5.87304 4.83481C5.52061 5.26626 5.15796 5.53084 4.57094 5.3735Z" fill="url(#paint1_linear_214_698)"/>
<defs>
<linearGradient id="paint0_linear_214_698" x1="0.275222" y1="10" x2="19.7245" y2="10" gradientUnits="userSpaceOnUse">
<stop stop-color="#00AED3"/>
<stop offset="1" stop-color="#00F0D4"/>
</linearGradient>
<linearGradient id="paint1_linear_214_698" x1="0.670365" y1="10.4163" x2="16.5668" y2="10.4163" gradientUnits="userSpaceOnUse">
<stop stop-color="#00AED3"/>
<stop offset="1" stop-color="#00F0D4"/>
</linearGradient>
</defs>
</svg>
