<svg width="32" height="32" viewBox="0 0 32 32" fill="none" xmlns="http://www.w3.org/2000/svg">
<path d="M29.0892 7.58499C26.3206 3.28675 21.4929 0.44083 16.0003 0.44083C12.5634 0.44083 9.38557 1.55504 6.81171 3.44254C6.7022 3.52156 6.59496 3.60341 6.48884 3.68525L11.4317 4.18366C11.7015 4.07923 11.9747 3.98384 12.2524 3.89805C13.4371 3.53116 14.6953 3.33417 16.0003 3.33417C18.7926 3.33417 21.3738 4.23841 23.4679 5.76918C23.9053 6.08865 24.3207 6.43579 24.713 6.80775L29.9403 9.08133C29.6841 8.56543 29.3996 8.0659 29.0892 7.58499ZM31.3938 13.725L28.6647 16.1002C28.6111 23.0491 22.961 28.6647 16.0003 28.6647C9.02658 28.6647 3.36973 23.0293 3.33473 16.0646L0.585328 13.8712C0.489372 14.5672 0.440266 15.2778 0.440266 15.9997C0.440266 24.5928 7.40719 31.5592 16.0003 31.5592C24.5928 31.5592 31.5592 24.5928 31.5592 15.9997C31.5592 15.227 31.5033 14.4667 31.3938 13.725Z" fill="url(#paint0_linear_368_3701)"/>
<path d="M22.4259 12.8524C22.5998 12.7903 22.7708 12.735 22.9384 12.6853C24.3224 12.2693 25.4745 12.2123 26.0637 12.118C26.0067 12.0706 25.9475 12.0255 25.8859 11.9831C24.6639 11.1359 22.5625 11.2336 20.6434 11.7246C20.1727 11.3797 19.7962 11.0586 19.4868 10.7572C19.6229 10.6844 19.76 10.6155 19.8961 10.5506C22.8063 9.15245 25.5828 9.42395 26.5068 9.15189C26.3753 9.06271 26.2387 8.97917 26.0976 8.90184C23.7969 7.62338 20.3245 7.80795 17.7235 8.70259C17.3408 8.29506 16.8763 7.93156 16.1222 7.59402C16.3231 7.50428 16.523 7.42356 16.7205 7.35188C18.2897 6.77445 19.7352 6.68301 20.653 6.55093C20.4379 6.39007 20.2144 6.25799 19.9853 6.15074C17.4611 4.9688 14.1546 6.78574 11.4277 6.24444C7.3293 5.426 2.36445 5.85723 1.17856 9.30655C1.00302 9.86252 0.980438 10.2859 1.62616 10.7312C5.01057 13.5433 9.58369 17.0524 11.2409 20.3115C11.1207 20.2189 10.9942 20.1331 10.8627 20.0541C10.436 19.7956 9.95735 19.6037 9.46233 19.4603C9.50918 19.545 9.55434 19.6319 9.59836 19.7222C10.7797 22.1273 11.1478 26.2607 14.7912 25.4558C14.807 25.4525 14.8229 25.4496 14.8387 25.4457C14.2138 22.6206 13.3655 20.1269 13.5924 18.1553C13.5929 18.1486 13.5935 18.1412 13.5946 18.1333C13.6736 17.4712 13.8763 16.869 14.2499 16.3327C14.3386 16.2328 14.4323 16.1459 14.5293 16.0703C14.5327 16.0675 14.5356 16.0646 14.5389 16.0624C15.2191 15.5369 16.0759 15.5273 16.5777 15.2304C16.5794 15.2293 16.58 15.2287 16.5805 15.2287C17.1162 14.9092 17.2438 14.2584 16.3113 12.293C16.4801 12.4601 16.6336 12.63 16.7707 12.801C18.0052 14.3453 17.8601 15.9941 15.4528 16.493C13.7973 16.8594 14.8087 20.2782 16.3869 27.5894V27.5302C16.3395 22.151 18.017 20.377 21.0995 20.7117C24.1932 21.0453 27.0442 18.6041 26.289 14.8291C25.0754 14.29 23.8077 13.6482 22.4259 12.8524ZM7.3135 8.59761C6.48715 8.37917 6.14284 7.64087 5.98423 7.2023C7.13062 6.81848 8.17032 6.99289 8.21322 7.02055C8.24934 7.04426 9.00231 7.50484 9.39686 7.7357C8.83298 8.42601 8.25273 8.84935 7.3135 8.59761Z" fill="url(#paint1_linear_368_3701)"/>
<defs>
<linearGradient id="paint0_linear_368_3701" x1="0.440356" y1="16" x2="31.5593" y2="16" gradientUnits="userSpaceOnUse">
<stop stop-color="#00AED3"/>
<stop offset="1" stop-color="#00F0D4"/>
</linearGradient>
<linearGradient id="paint1_linear_368_3701" x1="1.07258" y1="16.6661" x2="26.5069" y2="16.6661" gradientUnits="userSpaceOnUse">
<stop stop-color="#00AED3"/>
<stop offset="1" stop-color="#00F0D4"/>
</linearGradient>
</defs>
</svg>
