<svg width="32" height="32" viewBox="0 0 32 32" fill="none" xmlns="http://www.w3.org/2000/svg">
<path d="M15.463 0C13.302 0 11.1543 0.397958 9.15433 1.17462L9.01339 1.23238C8.91943 1.2709 8.82547 1.30941 8.73151 1.34792L8.59058 1.40569C8.49662 1.4442 8.40266 1.48913 8.3087 1.52764L8.16776 1.59183C7.97984 1.67527 7.79863 1.76513 7.61743 1.86141L7.4832 1.93202C7.45635 1.94486 7.43622 1.95769 7.40937 1.97053C7.36239 1.99621 7.32212 2.01546 7.27514 2.04114L7.21474 2.07323L7.08051 2.14384C6.89931 2.24012 6.72481 2.34281 6.55703 2.45193C6.51005 2.47761 6.46978 2.50328 6.42951 2.52896C6.38924 2.55463 6.34226 2.58031 6.30199 2.60598C6.26173 2.63165 6.22146 2.65733 6.18119 2.683L6.11408 2.72794L6.00669 2.79854C5.95971 2.83063 5.91273 2.86273 5.86575 2.8884L5.75837 2.95901C5.4832 3.14515 5.21475 3.34413 4.95301 3.54311C4.92616 3.56236 4.89931 3.58804 4.87247 3.60729C4.78522 3.6779 4.69126 3.7485 4.60401 3.82553L4.48992 3.92181L4.39596 3.99883C4.27516 4.10153 4.15435 4.20423 4.03355 4.31335C3.99999 4.34544 3.95972 4.37753 3.92616 4.41605C3.48321 4.82042 3.06711 5.24405 2.67114 5.68694L2.57046 5.79606C2.49664 5.8795 2.42953 5.95653 2.36912 6.03355C2.33557 6.07206 2.30872 6.11057 2.27516 6.14909L2.1812 6.26462C2.1208 6.33523 2.06711 6.41225 2.00671 6.48286C2 6.48928 1.99329 6.4957 1.98657 6.50211C1.95973 6.54063 1.93288 6.57272 1.90604 6.61123C1.87919 6.64974 1.84564 6.68826 1.81879 6.72677C1.5302 7.11189 1.26174 7.50984 1.01342 7.92064C0.986578 7.95915 0.959732 8.00408 0.939598 8.04901L0.865773 8.17739L0.791948 8.30576C0.744968 8.3892 0.691277 8.47906 0.644297 8.56251L0.577184 8.69088L0.51007 8.81925C0.489936 8.86418 0.46309 8.90911 0.442956 8.94763C0.409399 9.01181 0.375842 9.076 0.342285 9.14661H3.85905C3.92616 9.03749 3.99999 8.92837 4.07381 8.81925C4.11408 8.76149 4.15435 8.6973 4.20133 8.63953C4.22818 8.60102 4.26173 8.55609 4.28858 8.51758C4.302 8.4919 4.32214 8.47265 4.34227 8.44697C4.38254 8.39562 4.42281 8.34427 4.46308 8.29292C4.50334 8.24157 4.53019 8.20948 4.56375 8.16455C4.58388 8.13887 4.60401 8.1132 4.62415 8.08753C4.64428 8.06185 4.65099 8.04901 4.66442 8.03618C4.69126 7.99766 4.72482 7.95915 4.75838 7.92064C4.82549 7.8372 4.89931 7.75375 4.96643 7.67673L5.04025 7.59329C5.07381 7.55478 5.10737 7.51626 5.14092 7.48417L5.18119 7.43924C5.21475 7.40073 5.24831 7.36863 5.28186 7.33012C5.302 7.31087 5.32213 7.29161 5.33556 7.26593C5.37582 7.22742 5.40938 7.18891 5.44965 7.14398C5.45636 7.13756 5.46307 7.13114 5.46978 7.12472C5.51005 7.08621 5.54361 7.0477 5.58388 7.00919C5.60401 6.98993 5.62414 6.96426 5.64428 6.945C5.66441 6.92575 5.69126 6.90007 5.71139 6.88082C5.75166 6.83588 5.79864 6.79737 5.83891 6.75886C5.8926 6.70751 5.94629 6.65616 5.99998 6.60481C5.99998 6.60481 5.99998 6.60481 6.00669 6.60481C6.04696 6.5663 6.09394 6.52779 6.13421 6.48928L6.20803 6.42509C6.24159 6.39941 6.27515 6.36732 6.30199 6.34165C6.34897 6.29672 6.39595 6.2582 6.44964 6.21327C6.4832 6.18118 6.52347 6.14909 6.55703 6.12341C6.60401 6.0849 6.65099 6.04639 6.69797 6.00788C6.74495 5.96936 6.78521 5.93727 6.83219 5.89876L6.87246 5.86667C6.91273 5.83457 6.953 5.80248 6.99998 5.77039C7.02011 5.75755 7.04025 5.73829 7.06038 5.72545C7.09394 5.69978 7.12749 5.6741 7.15434 5.65485C7.18119 5.63559 7.23488 5.59708 7.26843 5.57141C7.27514 5.56499 7.28857 5.55857 7.29528 5.55215C7.33555 5.52006 7.38253 5.48796 7.4228 5.46229C7.46306 5.43661 7.49662 5.41094 7.53689 5.38526C7.57716 5.35959 7.63085 5.32108 7.67783 5.28898C7.72481 5.25689 7.77179 5.2248 7.82548 5.1927C7.83219 5.18629 7.8389 5.18629 7.8389 5.17987L7.98655 5.07717L8.06038 5.03224C8.10736 5.00656 8.14762 4.97447 8.1946 4.94879L8.22145 4.93596C8.27514 4.90386 8.32212 4.87819 8.37581 4.8461C8.46977 4.78833 8.56373 4.73698 8.6644 4.68563C8.69796 4.66637 8.73823 4.64712 8.77178 4.62786L8.8389 4.58935L8.98655 4.51233C9.04024 4.48665 9.09393 4.45456 9.14762 4.42888C15.4899 1.27732 23.3019 3.33129 27.067 9.14019H30.5838C27.812 3.55594 21.9261 0 15.463 0ZM30.9798 22.0481C30.9663 22.0738 30.9529 22.1059 30.9462 22.1316L30.9798 22.0481Z" fill="url(#paint0_linear_368_3754)"/>
<path d="M31.8925 19.102C31.6844 20.1097 31.3824 21.0982 30.973 22.0481C30.9596 22.0738 30.9462 22.1059 30.9395 22.1316C30.9328 22.1572 30.9261 22.1701 30.9193 22.1829C30.8925 22.2471 30.8589 22.3177 30.8321 22.3819C30.7918 22.4653 30.7583 22.5488 30.718 22.6322C30.6777 22.7157 30.6442 22.7863 30.6106 22.8569V22.8633L30.6039 22.8826C30.5704 22.9532 30.5301 23.0238 30.4965 23.1008C30.4898 23.1072 30.4898 23.12 30.4831 23.1265C30.4495 23.1971 30.4093 23.2613 30.3757 23.3319C30.3422 23.4025 30.2952 23.4859 30.2482 23.5565C30.1341 23.7619 30.0133 23.9673 29.8858 24.1663C29.8657 24.2048 29.8388 24.2433 29.8187 24.2818C29.7985 24.3203 29.765 24.3653 29.7381 24.4102C29.7113 24.4551 29.6845 24.4936 29.6576 24.5322C29.6308 24.5707 29.6039 24.6156 29.5771 24.6541L29.5167 24.744C29.4764 24.8017 29.4428 24.8595 29.4026 24.9109C29.3623 24.9622 29.3287 25.02 29.2885 25.0713L29.2415 25.1355L29.1274 25.2896C28.9865 25.4757 28.8388 25.6618 28.6912 25.848C28.6643 25.8865 28.6308 25.9186 28.6039 25.9571C28.51 26.0726 28.4093 26.1882 28.3153 26.2973L28.2281 26.4C28.2214 26.4064 28.2147 26.4128 28.2079 26.4257C28.1543 26.4834 28.1006 26.5412 28.0469 26.599C27.9663 26.6888 27.8791 26.7787 27.7918 26.8686C27.765 26.9006 27.7381 26.9263 27.7113 26.952L27.6106 27.0547C27.5771 27.0868 27.5435 27.1189 27.51 27.151C27.4563 27.2023 27.4026 27.2537 27.3489 27.3114C27.2952 27.3692 27.2482 27.4141 27.1945 27.4591L27.1878 27.4655C27.1341 27.5168 27.0804 27.5618 27.0267 27.6131C26.9462 27.6837 26.8657 27.7607 26.7851 27.8314L26.6308 27.9661C26.4898 28.0881 26.3422 28.2036 26.2012 28.3192L26.0536 28.4347C26.0469 28.4411 26.0402 28.4475 26.0335 28.4475L25.9596 28.5053C25.8187 28.6144 25.671 28.7235 25.5234 28.8262C25.4831 28.8583 25.4429 28.884 25.3959 28.9161L25.3288 28.961L25.1878 29.0509L25.0872 29.1151L24.9462 29.2049C24.9059 29.2306 24.8724 29.2563 24.8321 29.2756C24.7717 29.3141 24.7113 29.3526 24.6509 29.3911C24.5905 29.4296 24.5502 29.4553 24.4965 29.4874L24.4361 29.5259C24.369 29.5708 24.2952 29.6093 24.2281 29.6478C24.161 29.6863 24.0737 29.7377 23.9932 29.7826L23.7583 29.911L23.5435 30.0265C23.4563 30.0715 23.369 30.1228 23.2751 30.1678C23.1945 30.2063 23.1207 30.2448 23.0402 30.2833C22.9596 30.3218 22.8791 30.3603 22.7986 30.3988L22.5905 30.4951C22.5704 30.5015 22.5435 30.5144 22.5234 30.5272L22.3086 30.6235L22.0603 30.7262C17.953 32.3886 13.3288 32.4271 9.19459 30.8225C9.12748 30.7968 9.05366 30.7711 8.98654 30.739L8.86574 30.6877L8.76507 30.6427L8.62413 30.585C8.59057 30.5721 8.55701 30.5593 8.53017 30.54L8.44963 30.5015C7.85903 30.2384 7.28856 29.9431 6.73152 29.6222C6.69125 29.6029 6.65769 29.5772 6.62414 29.558C6.47648 29.4681 6.32883 29.3783 6.18118 29.282L6.05367 29.1985C6.00669 29.1664 5.95971 29.1343 5.91273 29.1023L5.80535 29.0316L5.68454 28.9482C5.42951 28.7685 5.17448 28.5888 4.93287 28.3962L4.83891 28.3256C4.53689 28.0881 4.24159 27.8378 3.95972 27.581C3.91945 27.5489 3.88589 27.5168 3.85233 27.4783C3.73153 27.3692 3.61072 27.2537 3.49663 27.1381L3.38925 27.0354C3.12079 26.7659 2.85905 26.4834 2.61073 26.1946L2.5369 26.1047C2.33556 25.8737 2.14093 25.6298 1.95972 25.3858C1.93288 25.3473 1.89932 25.3088 1.87248 25.2639C1.84563 25.219 1.81878 25.1933 1.79865 25.1612C1.76509 25.1163 1.73154 25.0713 1.69798 25.0264C1.66442 24.9815 1.63758 24.943 1.61073 24.9044C1.51006 24.7632 1.4161 24.622 1.32214 24.4808C1.30201 24.4487 1.27516 24.4102 1.25503 24.3781C0.939593 23.8839 0.644292 23.3768 0.389259 22.8569H3.90602C3.94629 22.9147 3.98656 22.9788 4.02683 23.0366C4.0671 23.0944 4.10737 23.1521 4.14763 23.2099L4.16106 23.2292C4.20133 23.2869 4.24159 23.3447 4.28186 23.3961C4.32213 23.4474 4.36911 23.518 4.41609 23.5758C4.46307 23.6335 4.50334 23.6913 4.54361 23.7427L4.55703 23.7619C4.5973 23.8197 4.63757 23.871 4.68455 23.9224C4.73152 23.9737 4.7785 24.0379 4.82548 24.0957C4.87246 24.1535 4.91273 24.2048 4.95971 24.2562C4.96642 24.269 4.97985 24.2818 4.98656 24.2882C5.02011 24.3268 5.05367 24.3653 5.09394 24.4102L5.13421 24.4551C5.17448 24.5065 5.22146 24.5514 5.26844 24.5963C5.31542 24.6541 5.36911 24.7055 5.4228 24.7568C5.47649 24.8082 5.52347 24.8659 5.57716 24.9173C5.63085 24.9686 5.68454 25.02 5.73152 25.0777C5.7785 25.1355 5.8389 25.1804 5.89259 25.2318C5.94629 25.2831 5.99998 25.3345 6.05367 25.3858C6.10736 25.4372 6.16105 25.4885 6.22145 25.5335C6.28185 25.5784 6.32212 25.6233 6.3691 25.6618L6.43622 25.7196C6.46977 25.7517 6.51004 25.7838 6.5436 25.8095L6.59729 25.8544C6.64427 25.8929 6.69125 25.9314 6.73823 25.9699C6.74494 25.9764 6.74494 25.9764 6.75165 25.9828C6.79863 26.0213 6.84561 26.0598 6.89259 26.0983C6.91272 26.1176 6.93957 26.1368 6.9597 26.1497L7.06709 26.2331L7.1342 26.2845C7.17447 26.3165 7.21474 26.3486 7.26172 26.3743L7.30198 26.4L7.43621 26.4963L7.51004 26.5476C7.54359 26.5733 7.58386 26.599 7.61742 26.6246L7.68453 26.6696L7.81205 26.753L7.85232 26.7787C7.8993 26.8108 7.94628 26.8365 7.98655 26.8686C8.02681 26.9006 8.07379 26.9263 8.12077 26.952L8.15433 26.9713C8.20802 27.0033 8.26171 27.0354 8.32212 27.074L8.35567 27.0932C8.40265 27.1253 8.44963 27.151 8.50332 27.1767C8.55701 27.2023 8.59728 27.228 8.64426 27.2537L8.7852 27.3307C8.83889 27.3628 8.89258 27.3885 8.94627 27.4206C8.99997 27.4527 9.04694 27.4719 9.09392 27.4976L9.19459 27.5489L9.21473 27.5618C13.2684 29.5772 18.1006 29.5259 22.1006 27.4206C22.1543 27.3885 22.2147 27.3628 22.2684 27.3307L22.3556 27.2858C22.4026 27.2601 22.4563 27.228 22.5033 27.2023C22.5637 27.1702 22.6241 27.1317 22.6845 27.0996L22.7113 27.0868C22.7717 27.0483 22.8321 27.0162 22.8925 26.9777C22.9529 26.9392 23.0066 26.9071 23.0603 26.875C23.0872 26.8621 23.1073 26.8429 23.1341 26.83C23.1744 26.8044 23.2214 26.7723 23.2617 26.7466C23.3019 26.7209 23.3489 26.6888 23.3959 26.6567C23.4429 26.6246 23.4764 26.599 23.5167 26.5733C23.5368 26.5605 23.557 26.5412 23.5838 26.5284C23.6241 26.5027 23.6643 26.4706 23.6979 26.4449C23.8053 26.3679 23.9059 26.2909 24.0066 26.2138C24.067 26.1689 24.1274 26.124 24.1811 26.0791L24.3153 25.9699L24.4227 25.8801C24.463 25.848 24.5033 25.8159 24.5435 25.7838C24.5972 25.7389 24.6442 25.6939 24.6979 25.649C24.7516 25.6041 24.7919 25.5656 24.8388 25.5271C24.9462 25.4308 25.0469 25.3345 25.1543 25.2382C25.1878 25.2061 25.2281 25.1676 25.2616 25.1291L25.3086 25.0842C25.3422 25.0521 25.3825 25.0136 25.416 24.975L25.4361 24.9558C25.4697 24.9237 25.5033 24.8852 25.5435 24.8467C25.6375 24.7504 25.7314 24.6541 25.8187 24.5578L25.8858 24.4808C25.9127 24.4487 25.9395 24.423 25.9663 24.3909C26.0066 24.346 26.0469 24.3011 26.0871 24.2562L26.1811 24.147L26.208 24.1149C26.2415 24.07 26.2818 24.0315 26.3153 23.9866L26.322 23.9802C26.3623 23.9352 26.3959 23.8839 26.4361 23.8389C26.4764 23.794 26.5167 23.7427 26.5502 23.6913C26.5838 23.64 26.6241 23.5886 26.6643 23.5437C26.6912 23.5052 26.718 23.4667 26.7449 23.4281L26.7851 23.3768C26.8187 23.3319 26.8455 23.2869 26.8791 23.2484C26.8791 23.242 26.8858 23.242 26.8858 23.2356C26.9194 23.1907 26.9529 23.1393 26.9865 23.0944L26.9999 23.0751C27.0335 23.0302 27.067 22.9788 27.0939 22.9339C27.1073 22.9082 27.1274 22.8826 27.1408 22.8633C27.161 22.8312 27.1878 22.7927 27.208 22.7606C27.2415 22.7093 27.2751 22.6579 27.3086 22.6066C27.3422 22.5552 27.3757 22.4974 27.4093 22.4461L27.4965 22.2985C27.5234 22.2471 27.5569 22.1958 27.5838 22.1444C27.5905 22.138 27.5972 22.1252 27.5972 22.1187C28.1341 21.1559 28.5368 20.1354 28.8053 19.0827L31.8925 19.102Z" fill="url(#paint1_linear_368_3754)"/>
<path d="M0 11.5344V20.4948H2.05368V11.5344H0Z" fill="url(#paint2_linear_368_3754)"/>
<path d="M12.4026 11.5344V13.4535H7.38252C5.90602 13.4535 4.70468 14.5961 4.70468 16.0146C4.70468 17.4331 5.89931 18.5756 7.38252 18.5756H10.349V17.2213H7.04695V15.2572H12.4026V20.4948H7.38252C4.79864 20.4948 2.69798 18.4858 2.69798 16.0146C2.69798 13.5434 4.79193 11.5344 7.38252 11.5344H12.4026Z" fill="url(#paint3_linear_368_3754)"/>
<path d="M22.557 11.5344V16.0146C22.557 18.4858 20.4563 20.4948 17.8724 20.4948C15.2885 20.4948 13.1879 18.4922 13.1879 16.0146V11.5344H15.1946V16.0146C15.1946 17.4267 16.3959 18.5756 17.8724 18.5756C19.3489 18.5756 20.5503 17.4267 20.5503 16.0146V11.5344H22.557Z" fill="url(#paint4_linear_368_3754)"/>
<path d="M31.2348 12.3303L31.2214 12.3046L31.2012 12.2853C30.6979 11.8039 30.0133 11.5344 29.3019 11.5344H23.2348V20.4948H25.2415V16.695H29.7247V16.6757C29.9663 16.6436 30.2079 16.5794 30.4294 16.4767C31.3824 16.0531 31.9999 15.1352 31.9999 14.1275C32.0066 13.4535 31.7314 12.8117 31.2348 12.3303ZM29.5972 14.7244L29.4965 14.7629V14.7694C29.4361 14.7886 29.3757 14.795 29.3153 14.795H25.2415V13.4664H29.3153C29.4965 13.46 29.671 13.5306 29.7985 13.6525C29.9261 13.7809 29.9999 13.9478 29.9999 14.1275C30.0066 14.3842 29.8455 14.6153 29.5972 14.7244Z" fill="url(#paint5_linear_368_3754)"/>
<defs>
<linearGradient id="paint0_linear_368_3754" x1="0.338929" y1="11.0658" x2="30.9777" y2="11.0658" gradientUnits="userSpaceOnUse">
<stop stop-color="#00B0D3"/>
<stop offset="1" stop-color="#0858FB"/>
</linearGradient>
<linearGradient id="paint1_linear_368_3754" x1="0.332213" y1="25.5607" x2="31.8959" y2="25.5607" gradientUnits="userSpaceOnUse">
<stop stop-color="#00B0D3"/>
<stop offset="1" stop-color="#0858FB"/>
</linearGradient>
<linearGradient id="paint2_linear_368_3754" x1="0.381207" y1="16.0146" x2="31.9811" y2="16.0146" gradientUnits="userSpaceOnUse">
<stop stop-color="#00B0D3"/>
<stop offset="1" stop-color="#0858FB"/>
</linearGradient>
<linearGradient id="paint3_linear_368_3754" x1="0.639594" y1="16.0146" x2="31.6938" y2="16.0146" gradientUnits="userSpaceOnUse">
<stop stop-color="#00B0D3"/>
<stop offset="1" stop-color="#0858FB"/>
</linearGradient>
<linearGradient id="paint4_linear_368_3754" x1="0.698652" y1="16.0143" x2="31.4073" y2="16.0143" gradientUnits="userSpaceOnUse">
<stop stop-color="#00B0D3"/>
<stop offset="1" stop-color="#0858FB"/>
</linearGradient>
<linearGradient id="paint5_linear_368_3754" x1="0.556371" y1="16.0146" x2="31.6462" y2="16.0146" gradientUnits="userSpaceOnUse">
<stop stop-color="#00B0D3"/>
<stop offset="1" stop-color="#0858FB"/>
</linearGradient>
</defs>
</svg>
