<svg width="20" height="20" viewBox="0 0 20 20" fill="none" xmlns="http://www.w3.org/2000/svg">
<path d="M9.6644 0C8.31373 0 6.97145 0.248723 5.72146 0.734135L5.63337 0.77024C5.57465 0.794311 5.51592 0.81838 5.4572 0.84245L5.36911 0.878555C5.31039 0.902626 5.25166 0.930707 5.19294 0.954777L5.10485 0.994894C4.9874 1.04705 4.87415 1.10321 4.76089 1.16338L4.677 1.20751C4.66022 1.21554 4.64764 1.22356 4.63086 1.23158C4.6015 1.24763 4.57633 1.25966 4.54697 1.27571L4.50921 1.29577L4.42532 1.3399C4.31207 1.40007 4.20301 1.46426 4.09814 1.53246C4.06878 1.5485 4.04361 1.56455 4.01844 1.5806C3.99328 1.59664 3.96391 1.61269 3.93875 1.62874C3.91358 1.64478 3.88841 1.66083 3.86324 1.67688L3.8213 1.70496L3.75418 1.74909C3.72482 1.76915 3.69546 1.7892 3.6661 1.80525L3.59898 1.84938C3.427 1.96572 3.25922 2.09008 3.09563 2.21444C3.07885 2.22648 3.06207 2.24252 3.04529 2.25456C2.99076 2.29869 2.93204 2.34281 2.87751 2.39095L2.8062 2.45113L2.74748 2.49927C2.67197 2.56346 2.59647 2.62764 2.52097 2.69584C2.49999 2.7159 2.47483 2.73596 2.45385 2.76003C2.17701 3.01276 1.91694 3.27753 1.66946 3.55434L1.60654 3.62254C1.5604 3.67469 1.51845 3.72283 1.4807 3.77097C1.45973 3.79504 1.44295 3.81911 1.42198 3.84318L1.36325 3.91539C1.3255 3.95952 1.29194 4.00766 1.25419 4.05179C1.25 4.0558 1.2458 4.05981 1.24161 4.06382C1.22483 4.08789 1.20805 4.10795 1.19127 4.13202C1.1745 4.15609 1.15352 4.18016 1.13674 4.20423C0.956375 4.44493 0.78859 4.69365 0.63339 4.9504C0.616611 4.97447 0.599833 5.00255 0.587249 5.03063L0.541108 5.11087L0.494967 5.1911C0.465605 5.24325 0.432048 5.29941 0.402686 5.35157L0.36074 5.4318L0.318794 5.51203C0.30621 5.54011 0.289431 5.5682 0.276847 5.59227C0.255874 5.63238 0.234901 5.6725 0.213928 5.71663H2.41191C2.45385 5.64843 2.49999 5.58023 2.54613 5.51203C2.5713 5.47593 2.59647 5.43581 2.62583 5.39971C2.64261 5.37564 2.66358 5.34755 2.68036 5.32348C2.68875 5.30744 2.70133 5.2954 2.71392 5.27936C2.73909 5.24726 2.76425 5.21517 2.78942 5.18308C2.81459 5.15098 2.83137 5.13092 2.85234 5.10284C2.86492 5.0868 2.87751 5.07075 2.89009 5.0547C2.90268 5.03866 2.90687 5.03063 2.91526 5.02261C2.93204 4.99854 2.95301 4.97447 2.97398 4.9504C3.01593 4.89825 3.06207 4.8461 3.10402 4.79796L3.15016 4.7458C3.17113 4.72173 3.1921 4.69766 3.21308 4.67761L3.23825 4.64952C3.25922 4.62545 3.28019 4.6054 3.30116 4.58133C3.31375 4.56929 3.32633 4.55726 3.33472 4.54121C3.35989 4.51714 3.38086 4.49307 3.40603 4.46499C3.41022 4.46098 3.41442 4.45696 3.41861 4.45295C3.44378 4.42888 3.46475 4.40481 3.48992 4.38074C3.50251 4.36871 3.51509 4.35266 3.52767 4.34063C3.54026 4.32859 3.55704 4.31254 3.56962 4.30051C3.59479 4.27243 3.62415 4.24836 3.64932 4.22429C3.68287 4.19219 3.71643 4.1601 3.74999 4.12801C3.74999 4.12801 3.74999 4.12801 3.75418 4.12801C3.77935 4.10394 3.80871 4.07987 3.83388 4.0558L3.88002 4.01568C3.901 3.99963 3.92197 3.97958 3.93875 3.96353C3.96811 3.93545 3.99747 3.91138 4.03103 3.8833C4.052 3.86324 4.07717 3.84318 4.09814 3.82713C4.1275 3.80306 4.15687 3.77899 4.18623 3.75492C4.21559 3.73085 4.24076 3.71079 4.27012 3.68672L4.29529 3.66667C4.32046 3.64661 4.34562 3.62655 4.37499 3.60649C4.38757 3.59847 4.40015 3.58643 4.41274 3.57841C4.43371 3.56236 4.45468 3.54632 4.47146 3.53428C4.48824 3.52225 4.5218 3.49818 4.54277 3.48213C4.54697 3.47812 4.55535 3.47411 4.55955 3.47009C4.58472 3.45004 4.61408 3.42998 4.63925 3.41393C4.66441 3.39788 4.68539 3.38184 4.71056 3.36579C4.73572 3.34974 4.76928 3.32567 4.79864 3.30562C4.828 3.28556 4.85737 3.2655 4.89092 3.24544C4.89512 3.24143 4.89931 3.24143 4.89931 3.23742L4.99159 3.17323L5.03774 3.14515C5.0671 3.1291 5.09227 3.10904 5.12163 3.093L5.13841 3.08497C5.17196 3.06492 5.20133 3.04887 5.23488 3.02881C5.29361 2.99271 5.35233 2.96061 5.41525 2.92852C5.43622 2.91648 5.46139 2.90445 5.48236 2.89241L5.52431 2.86834L5.61659 2.8202C5.65015 2.80416 5.68371 2.7841 5.71726 2.76805C9.68118 0.798322 14.5637 2.08206 16.9169 5.71262H19.1149C17.3825 2.22246 13.7038 0 9.6644 0ZM19.3623 13.7801C19.354 13.7961 19.3456 13.8162 19.3414 13.8322L19.3623 13.7801Z" fill="url(#paint0_linear_247_1368)"/>
<path d="M19.9328 11.9387C19.8028 12.5686 19.614 13.1864 19.3581 13.7801C19.3498 13.7961 19.3414 13.8162 19.3372 13.8322C19.333 13.8483 19.3288 13.8563 19.3246 13.8643C19.3078 13.9044 19.2868 13.9486 19.2701 13.9887C19.2449 14.0408 19.2239 14.093 19.1988 14.1451C19.1736 14.1973 19.1526 14.2414 19.1316 14.2856V14.2896L19.1274 14.3016C19.1065 14.3457 19.0813 14.3899 19.0603 14.438C19.0561 14.442 19.0561 14.45 19.0519 14.454C19.031 14.4982 19.0058 14.5383 18.9848 14.5824C18.9639 14.6265 18.9345 14.6787 18.9051 14.7228C18.8338 14.8512 18.7583 14.9796 18.6786 15.1039C18.666 15.128 18.6493 15.1521 18.6367 15.1761C18.6241 15.2002 18.6031 15.2283 18.5863 15.2564C18.5696 15.2845 18.5528 15.3085 18.536 15.3326C18.5192 15.3567 18.5024 15.3848 18.4857 15.4088L18.4479 15.465C18.4227 15.5011 18.4018 15.5372 18.3766 15.5693C18.3514 15.6014 18.3305 15.6375 18.3053 15.6696L18.2759 15.7097L18.2046 15.806C18.1165 15.9223 18.0243 16.0387 17.932 16.155C17.9152 16.1791 17.8942 16.1991 17.8774 16.2232C17.8187 16.2954 17.7558 16.3676 17.6971 16.4358L17.6426 16.5C17.6384 16.504 17.6342 16.508 17.63 16.516C17.5964 16.5521 17.5629 16.5883 17.5293 16.6244C17.479 16.6805 17.4244 16.7367 17.3699 16.7928C17.3531 16.8129 17.3363 16.829 17.3196 16.845L17.2566 16.9092C17.2357 16.9292 17.2147 16.9493 17.1937 16.9694C17.1602 17.0015 17.1266 17.0335 17.0931 17.0697C17.0595 17.1058 17.0301 17.1338 16.9966 17.1619L16.9924 17.1659C16.9588 17.198 16.9253 17.2261 16.8917 17.2582C16.8414 17.3023 16.791 17.3505 16.7407 17.3946L16.6442 17.4788C16.5561 17.5551 16.4639 17.6273 16.3758 17.6995L16.2835 17.7717C16.2793 17.7757 16.2751 17.7797 16.2709 17.7797L16.2248 17.8158C16.1367 17.884 16.0444 17.9522 15.9521 18.0164C15.927 18.0365 15.9018 18.0525 15.8724 18.0726L15.8305 18.1006L15.7424 18.1568L15.6795 18.1969L15.5914 18.2531C15.5662 18.2691 15.5452 18.2852 15.5201 18.2972C15.4823 18.3213 15.4446 18.3454 15.4068 18.3694C15.3691 18.3935 15.3439 18.4095 15.3103 18.4296L15.2726 18.4537C15.2306 18.4818 15.1845 18.5058 15.1426 18.5299C15.1006 18.554 15.0461 18.5861 14.9957 18.6141L14.8489 18.6944L14.7147 18.7666C14.6602 18.7947 14.6056 18.8268 14.5469 18.8548C14.4966 18.8789 14.4504 18.903 14.4001 18.9271C14.3498 18.9511 14.2994 18.9752 14.2491 18.9993L14.1191 19.0594C14.1065 19.0635 14.0897 19.0715 14.0771 19.0795L13.9429 19.1397L13.7877 19.2039C11.2206 20.2429 8.33051 20.267 5.74662 19.264C5.70468 19.248 5.65854 19.2319 5.61659 19.2119L5.54109 19.1798L5.47817 19.1517L5.39008 19.1156C5.36911 19.1076 5.34813 19.0996 5.33136 19.0875L5.28102 19.0635C4.91189 18.899 4.55535 18.7144 4.2072 18.5139C4.18203 18.5018 4.16106 18.4858 4.14008 18.4737C4.0478 18.4176 3.95552 18.3614 3.86324 18.3012L3.78354 18.2491C3.75418 18.229 3.72482 18.209 3.69546 18.1889L3.62834 18.1448L3.55284 18.0926C3.39344 17.9803 3.23405 17.868 3.08304 17.7476L3.02432 17.7035C2.83556 17.5551 2.651 17.3986 2.47482 17.2381C2.44965 17.2181 2.42868 17.198 2.40771 17.174C2.33221 17.1058 2.2567 17.0335 2.18539 16.9613L2.11828 16.8971C1.9505 16.7287 1.78691 16.5521 1.6317 16.3716L1.58556 16.3155C1.45973 16.171 1.33808 16.0186 1.22483 15.8662C1.20805 15.8421 1.18708 15.818 1.1703 15.7899C1.15352 15.7618 1.13674 15.7458 1.12416 15.7257C1.10318 15.6977 1.08221 15.6696 1.06124 15.6415C1.04026 15.6134 1.02349 15.5893 1.00671 15.5653C0.943788 15.477 0.885063 15.3888 0.826339 15.3005C0.813755 15.2804 0.796976 15.2564 0.784392 15.2363C0.587246 14.9274 0.402682 14.6105 0.243287 14.2856H2.44127C2.46643 14.3217 2.4916 14.3618 2.51677 14.3979C2.54194 14.434 2.5671 14.4701 2.59227 14.5062L2.60066 14.5182C2.62583 14.5543 2.651 14.5904 2.67616 14.6225C2.70133 14.6546 2.73069 14.6988 2.76006 14.7349C2.78942 14.771 2.81459 14.8071 2.83975 14.8392L2.84814 14.8512C2.87331 14.8873 2.89848 14.9194 2.92784 14.9515C2.9572 14.9836 2.98657 15.0237 3.01593 15.0598C3.04529 15.0959 3.07046 15.128 3.09982 15.1601C3.10401 15.1681 3.1124 15.1761 3.1166 15.1802C3.13757 15.2042 3.15854 15.2283 3.18371 15.2564L3.20888 15.2845C3.23405 15.3166 3.26341 15.3446 3.29277 15.3727C3.32213 15.4088 3.35569 15.4409 3.38925 15.473C3.42281 15.5051 3.45217 15.5412 3.48572 15.5733C3.51928 15.6054 3.55284 15.6375 3.5822 15.6736C3.61156 15.7097 3.64931 15.7378 3.68287 15.7699C3.71643 15.802 3.74999 15.8341 3.78354 15.8662C3.8171 15.8982 3.85066 15.9303 3.88841 15.9584C3.92616 15.9865 3.95133 16.0146 3.98069 16.0387L4.02264 16.0748C4.04361 16.0948 4.06878 16.1149 4.08975 16.1309L4.12331 16.159C4.15267 16.1831 4.18203 16.2071 4.21139 16.2312C4.21559 16.2352 4.21559 16.2352 4.21978 16.2392C4.24915 16.2633 4.27851 16.2874 4.30787 16.3114C4.32045 16.3235 4.33723 16.3355 4.34982 16.3435L4.41693 16.3957L4.45888 16.4278C4.48404 16.4478 4.50921 16.4679 4.53857 16.4839L4.56374 16.5L4.64763 16.5602L4.69377 16.5923C4.71475 16.6083 4.73991 16.6244 4.76089 16.6404L4.80283 16.6685L4.88253 16.7206L4.9077 16.7367C4.93706 16.7567 4.96642 16.7728 4.99159 16.7928C5.01676 16.8129 5.04612 16.829 5.07548 16.845L5.09646 16.857C5.13001 16.8771 5.16357 16.8971 5.20132 16.9212L5.2223 16.9333C5.25166 16.9533 5.28102 16.9694 5.31458 16.9854C5.34813 17.0015 5.3733 17.0175 5.40266 17.0335L5.49075 17.0817C5.52431 17.1017 5.55787 17.1178 5.59142 17.1378C5.62498 17.1579 5.65434 17.1699 5.6837 17.186L5.74662 17.2181L5.75921 17.2261C8.29275 18.4858 11.3129 18.4537 13.8129 17.1378C13.8464 17.1178 13.8842 17.1017 13.9177 17.0817L13.9723 17.0536C14.0016 17.0376 14.0352 17.0175 14.0645 17.0015C14.1023 16.9814 14.14 16.9573 14.1778 16.9373L14.1946 16.9292C14.2323 16.9052 14.2701 16.8851 14.3078 16.861C14.3456 16.837 14.3791 16.8169 14.4127 16.7969C14.4295 16.7888 14.4421 16.7768 14.4588 16.7688C14.484 16.7527 14.5134 16.7327 14.5385 16.7166C14.5637 16.7006 14.5931 16.6805 14.6224 16.6605C14.6518 16.6404 14.6728 16.6244 14.6979 16.6083C14.7105 16.6003 14.7231 16.5883 14.7399 16.5802C14.765 16.5642 14.7902 16.5441 14.8112 16.5281C14.8783 16.4799 14.9412 16.4318 15.0041 16.3837C15.0419 16.3556 15.0796 16.3275 15.1132 16.2994L15.1971 16.2312L15.2642 16.175C15.2894 16.155 15.3145 16.1349 15.3397 16.1149C15.3733 16.0868 15.4026 16.0587 15.4362 16.0306C15.4697 16.0025 15.4949 15.9785 15.5243 15.9544C15.5914 15.8942 15.6543 15.8341 15.7214 15.7739C15.7424 15.7538 15.7676 15.7298 15.7885 15.7057L15.8179 15.6776C15.8389 15.6575 15.864 15.6335 15.885 15.6094L15.8976 15.5974C15.9186 15.5773 15.9395 15.5532 15.9647 15.5292C16.0234 15.469 16.0822 15.4088 16.1367 15.3486L16.1786 15.3005C16.1954 15.2804 16.2122 15.2644 16.229 15.2443C16.2541 15.2163 16.2793 15.1882 16.3045 15.1601L16.3632 15.0919L16.38 15.0718C16.4009 15.0438 16.4261 15.0197 16.4471 14.9916L16.4513 14.9876C16.4764 14.9595 16.4974 14.9274 16.5226 14.8993C16.5478 14.8713 16.5729 14.8392 16.5939 14.8071C16.6149 14.775 16.64 14.7429 16.6652 14.7148C16.682 14.6907 16.6988 14.6667 16.7155 14.6426L16.7407 14.6105C16.7617 14.5824 16.7785 14.5543 16.7994 14.5303C16.7994 14.5263 16.8036 14.5263 16.8036 14.5222C16.8246 14.4942 16.8456 14.4621 16.8665 14.434L16.8749 14.4219C16.8959 14.3939 16.9169 14.3618 16.9337 14.3337C16.942 14.3176 16.9546 14.3016 16.963 14.2896C16.9756 14.2695 16.9924 14.2454 17.005 14.2254C17.0259 14.1933 17.0469 14.1612 17.0679 14.1291C17.0889 14.097 17.1098 14.0609 17.1308 14.0288L17.1853 13.9365C17.2021 13.9044 17.2231 13.8724 17.2399 13.8403C17.2441 13.8362 17.2483 13.8282 17.2483 13.8242C17.5838 13.2225 17.8355 12.5846 18.0033 11.9267L19.9328 11.9387Z" fill="url(#paint1_linear_247_1368)"/>
<path d="M0 7.20897V12.8093H1.28355V7.20897H0Z" fill="url(#paint2_linear_247_1368)"/>
<path d="M7.75165 7.20897V8.40846H4.61408C3.69126 8.40846 2.94042 9.12254 2.94042 10.0091C2.94042 10.8957 3.68707 11.6098 4.61408 11.6098H6.4681V10.7633H4.40435V9.53574H7.75165V12.8093H4.61408C2.99915 12.8093 1.68623 11.5536 1.68623 10.0091C1.68623 8.46462 2.99495 7.20897 4.61408 7.20897H7.75165Z" fill="url(#paint3_linear_247_1368)"/>
<path d="M14.0981 7.20897V10.0091C14.0981 11.5536 12.7852 12.8093 11.1703 12.8093C9.55533 12.8093 8.24242 11.5576 8.24242 10.0091V7.20897H9.49661V10.0091C9.49661 10.8917 10.2474 11.6098 11.1703 11.6098C12.0931 11.6098 12.8439 10.8917 12.8439 10.0091V7.20897H14.0981Z" fill="url(#paint4_linear_247_1368)"/>
<path d="M19.5217 7.70642L19.5133 7.69037L19.5008 7.67833C19.1862 7.37746 18.7583 7.20897 18.3137 7.20897H14.5218V12.8093H15.7759V10.4344H18.578V10.4223C18.729 10.4023 18.88 10.3621 19.0184 10.298C19.614 10.0332 19.9999 9.45952 19.9999 8.82968C20.0041 8.40846 19.8321 8.00729 19.5217 7.70642ZM18.4983 9.20277L18.4353 9.22684V9.23085C18.3976 9.24289 18.3598 9.2469 18.3221 9.2469H15.7759V8.41648H18.3221C18.4353 8.41247 18.5444 8.4566 18.6241 8.53282C18.7038 8.61305 18.7499 8.71736 18.7499 8.82968C18.7541 8.99015 18.6535 9.13457 18.4983 9.20277Z" fill="url(#paint5_linear_247_1368)"/>
<defs>
<linearGradient id="paint0_linear_247_1368" x1="0.211831" y1="6.91611" x2="19.3611" y2="6.91611" gradientUnits="userSpaceOnUse">
<stop stop-color="#00B0D3"/>
<stop offset="1" stop-color="#0858FB"/>
</linearGradient>
<linearGradient id="paint1_linear_247_1368" x1="0.207633" y1="15.9755" x2="19.9349" y2="15.9755" gradientUnits="userSpaceOnUse">
<stop stop-color="#00B0D3"/>
<stop offset="1" stop-color="#0858FB"/>
</linearGradient>
<linearGradient id="paint2_linear_247_1368" x1="0.238254" y1="10.0091" x2="19.9882" y2="10.0091" gradientUnits="userSpaceOnUse">
<stop stop-color="#00B0D3"/>
<stop offset="1" stop-color="#0858FB"/>
</linearGradient>
<linearGradient id="paint3_linear_247_1368" x1="0.399746" y1="10.0091" x2="19.8087" y2="10.0091" gradientUnits="userSpaceOnUse">
<stop stop-color="#00B0D3"/>
<stop offset="1" stop-color="#0858FB"/>
</linearGradient>
<linearGradient id="paint4_linear_247_1368" x1="0.436657" y1="10.0089" x2="19.6295" y2="10.0089" gradientUnits="userSpaceOnUse">
<stop stop-color="#00B0D3"/>
<stop offset="1" stop-color="#0858FB"/>
</linearGradient>
<linearGradient id="paint5_linear_247_1368" x1="0.347732" y1="10.0091" x2="19.7789" y2="10.0091" gradientUnits="userSpaceOnUse">
<stop stop-color="#00B0D3"/>
<stop offset="1" stop-color="#0858FB"/>
</linearGradient>
</defs>
</svg>
