<svg width="20" height="20" viewBox="0 0 20 20" fill="none" xmlns="http://www.w3.org/2000/svg">
<g clip-path="url(#clip0_1410_17574)">
<path d="M18.9457 16.4023C18.9191 16.5558 18.881 16.7073 18.8317 16.8554C18.7244 17.1908 18.5095 17.4843 18.2182 17.6933C17.9268 17.9023 17.5742 18.0158 17.2117 18.0174C12.2197 18.0174 9.95168 16.3965 9.44768 15.984C9.41474 15.9481 9.3786 15.915 9.33968 15.8852L4.29368 11.8184L1.55168 9.62233C1.34833 9.46066 1.19208 9.2504 1.09836 9.01234C1.00464 8.77428 0.976701 8.51666 1.0173 8.26494C1.0579 8.01322 1.16564 7.77612 1.32986 7.57706C1.49408 7.37801 1.70911 7.2239 1.95368 7.12996L2.36768 5.93315C2.93038 4.33341 4.05601 2.97614 5.54768 2.09873C5.65746 2.0327 5.78445 1.99844 5.91368 1.99997C6.06221 1.99854 6.20726 2.04357 6.32725 2.12835C6.44724 2.21313 6.53577 2.33315 6.57968 2.47055C6.74312 2.96129 7.06401 3.38874 7.49565 3.69072C7.92729 3.99269 8.44718 4.15343 8.97968 4.14957C9.14492 4.15111 9.30986 4.13553 9.47168 4.10309L10.9237 3.81841L11.3917 3.74288C12.2831 3.56774 13.1399 3.2559 13.9297 2.81914L14.2897 2.6158C14.3707 2.57115 14.4625 2.54784 14.5557 2.54819C14.649 2.54853 14.7405 2.57252 14.8212 2.61777C14.9019 2.66301 14.969 2.72794 15.0158 2.80607C15.0625 2.88421 15.0873 2.97284 15.0877 3.06315V3.64412C15.0854 3.91581 14.9997 4.18071 14.8417 4.40519L13.5997 6.10744C13.3398 6.47176 13.2385 6.92047 13.3177 7.35654C13.3381 7.49052 13.3764 7.62137 13.4317 7.74579L13.6237 8.17571L13.9597 8.93678L14.3197 9.73272L14.6377 10.4415L14.9317 11.1096C14.9512 11.1553 14.9732 11.1999 14.9977 11.2432C15.2197 11.6609 15.5697 12.0018 15.9997 12.2193L17.1997 12.8816C17.833 13.2191 18.3414 13.74 18.6534 14.3714C18.9655 15.0029 19.0656 15.713 18.9397 16.4023H18.9457Z" fill="#8593E6"/>
<path d="M10.8997 3.81841C10.4773 4.38978 9.90054 4.83738 9.23264 5.11206C8.56474 5.38673 7.83157 5.47786 7.11368 5.37542C6.62152 5.3024 6.11812 5.35966 5.65683 5.54113C5.19554 5.72259 4.79353 6.02151 4.49341 6.4062C4.19329 6.79089 4.00624 7.24703 3.95206 7.72628C3.89788 8.20554 3.97861 8.69006 4.18568 9.12851C4.47175 10.0013 4.50907 10.9326 4.29368 11.8242L1.55168 9.62233C1.34833 9.46066 1.19208 9.2504 1.09836 9.01234C1.00464 8.77428 0.976701 8.51666 1.0173 8.26494C1.0579 8.01322 1.16564 7.77612 1.32986 7.57706C1.49408 7.37801 1.70911 7.2239 1.95368 7.12996L2.36768 5.93315C2.93038 4.33341 4.05601 2.97614 5.54768 2.09873C5.65746 2.0327 5.78445 1.99844 5.91368 1.99997C6.06221 1.99854 6.20726 2.04357 6.32725 2.12835C6.44724 2.21313 6.53577 2.33315 6.57968 2.47055C6.74312 2.9613 7.06401 3.38874 7.49565 3.69072C7.92729 3.99269 8.44718 4.15343 8.97968 4.14957C9.14492 4.15111 9.30986 4.13553 9.47168 4.10309L10.8997 3.81841Z" fill="#A6A6FF"/>
<path d="M13.6 8.17575L10.162 9.69209C10.1043 9.71989 10.0405 9.73384 9.97601 9.73275C9.89019 9.73105 9.80656 9.70623 9.7345 9.66108C9.66243 9.61593 9.60478 9.55223 9.56801 9.47713C9.51887 9.37145 9.5146 9.25131 9.55614 9.14262C9.59767 9.03393 9.68167 8.94541 9.79001 8.89615L13.294 7.35658C13.3144 7.49056 13.3528 7.62141 13.408 7.74583L13.6 8.17575Z" fill="white"/>
<path d="M14.32 9.73275L11.254 11.0864C11.1963 11.1142 11.1325 11.1282 11.068 11.1271C10.9634 11.1293 10.8613 11.0962 10.7792 11.0334C10.6971 10.9707 10.6402 10.8822 10.6182 10.7832C10.5962 10.6842 10.6105 10.5808 10.6586 10.4909C10.7068 10.401 10.7857 10.3301 10.882 10.2905L13.96 8.93682L14.32 9.73275Z" fill="white"/>
<path d="M14.998 11.2433L12.598 12.3007C12.538 12.3279 12.4723 12.3418 12.406 12.3413C12.3039 12.3405 12.2051 12.306 12.1258 12.2436C12.0466 12.1812 11.9917 12.0946 11.97 11.9979C11.9484 11.9013 11.9613 11.8004 12.0068 11.7118C12.0522 11.6232 12.1274 11.5522 12.22 11.5105L14.62 10.4415L14.914 11.1097C14.9394 11.1557 14.9675 11.2003 14.998 11.2433Z" fill="white"/>
<path d="M18.9459 16.4023C18.9193 16.5558 18.8812 16.7073 18.8319 16.8555C18.7247 17.1908 18.5098 17.4844 18.2184 17.6933C17.9271 17.9023 17.5745 18.0158 17.2119 18.0174C12.2199 18.0174 9.95191 16.3965 9.44791 15.984C9.41497 15.9481 9.37883 15.915 9.33991 15.8853L4.29391 11.8184L1.55191 9.62236C1.34856 9.46069 1.19231 9.25043 1.09859 9.01237C1.00487 8.77431 0.97693 8.51669 1.01753 8.26497C1.05813 8.01325 1.16587 7.77615 1.33009 7.5771C1.49431 7.37804 1.70933 7.22393 1.95391 7.12999L9.18391 13.2999C10.7542 14.6413 12.6924 15.5131 14.7639 15.8097L18.9459 16.4023Z" fill="#FFD966"/>
</g>
<defs>
<clipPath id="clip0_1410_17574">
<rect width="18" height="16" fill="white" transform="translate(1 2)"/>
</clipPath>
</defs>
</svg>
