<svg width="20" height="20" viewBox="0 0 20 20" fill="none" xmlns="http://www.w3.org/2000/svg">
<g clip-path="url(#clip0_1410_17573)">
<path d="M15.9444 10.18C15.1711 13.726 9.91509 19 5.1306 19C4.41625 18.9639 3.7121 18.8222 3.04328 18.58C2.82158 18.5102 2.61026 18.4134 2.41457 18.292C1.97743 18.0352 1.61741 17.6747 1.36951 17.2458C1.12162 16.8168 0.994312 16.3339 0.999967 15.844C0.999967 15.79 0.999967 15.73 0.999967 15.67V15.58C0.999967 15.478 1.0314 15.37 1.05655 15.25C1.08341 15.1304 1.11699 15.0122 1.15714 14.896C2.02477 11.896 4.18125 11.794 5.01114 8.032C5.26992 6.86903 5.93062 5.82275 6.8872 5.0611C7.84378 4.29945 9.04076 3.86659 10.286 3.832C10.7291 3.81477 11.1728 3.85105 11.6063 3.94L11.7572 3.976C11.9462 3.98574 12.1337 4.01389 12.3168 4.06C13.5986 4.48364 14.6744 5.3391 15.3423 6.46588C16.0102 7.59265 16.2243 8.91329 15.9444 10.18Z" fill="#FAB14B"/>
<path d="M13.0084 9.478C12.2413 13 7.15507 18.124 2.43974 18.292C1.99794 18.0381 1.63291 17.679 1.38049 17.2498C1.12808 16.8206 0.996951 16.3362 0.999991 15.844C0.999991 15.79 0.999991 15.73 0.999991 15.67V15.58C0.999991 15.478 1.03143 15.37 1.05657 15.25C1.08343 15.1304 1.11701 15.0122 1.15717 14.896C2.02479 11.896 4.18127 11.794 5.01117 8.032C5.26995 6.86903 5.93065 5.82275 6.88723 5.0611C7.8438 4.29945 9.04079 3.86659 10.2861 3.832C11.3038 4.38088 12.1145 5.22173 12.6032 6.2352C13.0918 7.24867 13.2336 8.38329 13.0084 9.478Z" fill="#FFD966"/>
<path d="M10.7953 3.92204C11.2103 1.76204 13.8131 -0.499956 18.7611 2.31404C18.7611 2.31404 16.3217 4.80404 13.1718 4.61204C12.3855 4.62417 11.6016 4.5251 10.8456 4.31804C10.7513 4.27004 10.7827 4.00004 10.7953 3.92204Z" fill="#70CC70"/>
<path d="M11.5812 3.67C8.50052 5.5 17.3465 8.566 17.6294 11.26C18.4562 9.97339 18.9278 8.50773 19 7C19 4.762 15.234 1.504 11.5812 3.67Z" fill="#7EE67E"/>
<path d="M8.65871 8.0048C9.24248 7.02171 9.21614 5.95457 8.59987 5.62129C7.9836 5.288 7.01078 5.81477 6.42701 6.79786C5.84324 7.78095 5.86958 8.84809 6.48585 9.18137C7.10211 9.51466 8.07494 8.98789 8.65871 8.0048Z" fill="white"/>
</g>
<defs>
<clipPath id="clip0_1410_17573">
<rect width="18" height="18" fill="white" transform="translate(1 1)"/>
</clipPath>
</defs>
</svg>
