<svg width="20" height="20" viewBox="0 0 20 20" fill="none" xmlns="http://www.w3.org/2000/svg">
<g clip-path="url(#clip0_1407_17361)">
<path d="M17.602 16.3795C17.6014 16.761 17.5179 17.1378 17.3572 17.4836C17.1965 17.8293 16.9626 18.1357 16.6717 18.3812C16.3809 18.6268 16.0402 18.8056 15.6733 18.9052C15.3065 19.0048 14.9225 19.0227 14.548 18.9578L11.386 18.4036C10.4706 18.247 9.5354 18.247 8.62 18.4036L5.452 18.9578C5.33669 18.9758 5.22054 18.9879 5.104 18.994H5.002C4.3129 18.9908 3.65302 18.7141 3.16632 18.2243C2.67961 17.7346 2.40558 17.0714 2.404 16.3795C2.40191 14.6706 2.8435 12.9907 3.68523 11.5055C4.52696 10.0202 5.73975 8.78083 7.204 7.90964C8.05059 7.40769 9.01682 7.14538 10 7.1506C10.3304 7.14952 10.66 7.18181 10.984 7.24699C11.6188 7.35742 12.2286 7.5819 12.784 7.90964C14.2491 8.77992 15.4625 10.0191 16.3043 11.5046C17.1462 12.99 17.5873 14.6704 17.584 16.3795H17.602Z" fill="#FF9999"/>
<path d="M17.602 16.3795C17.6014 16.761 17.5179 17.1378 17.3572 17.4836C17.1965 17.8293 16.9626 18.1357 16.6717 18.3812C16.3809 18.6267 16.0402 18.8056 15.6733 18.9052C15.3065 19.0048 14.9225 19.0227 14.548 18.9578L11.386 18.4036C10.4706 18.247 9.5354 18.247 8.62 18.4036L5.452 18.9578C5.33669 18.9758 5.22054 18.9879 5.104 18.994L10.984 7.24699C11.6188 7.35742 12.2286 7.5819 12.784 7.90964C14.2491 8.77992 15.4625 10.0191 16.3044 11.5045C17.1462 12.99 17.5873 14.6704 17.584 16.3795H17.602Z" fill="#F58787"/>
<path d="M7.108 6.3494C8.35727 6.3494 9.37 5.15189 9.37 3.6747C9.37 2.1975 8.35727 1 7.108 1C5.85873 1 4.846 2.1975 4.846 3.6747C4.846 5.15189 5.85873 6.3494 7.108 6.3494Z" fill="#FF9999"/>
<path d="M15.154 3.6747C15.154 5.1506 14.14 6.34337 12.892 6.34337C12.442 6.34296 12.0058 6.18776 11.656 5.90361C11.3273 5.63501 11.064 5.2946 10.8862 4.90833C10.7084 4.52206 10.6207 4.10013 10.63 3.6747C10.63 2.20482 11.644 1 12.892 1C13.2694 1.00033 13.6385 1.1113 13.954 1.31928C14.3345 1.57952 14.6439 1.93159 14.8535 2.34316C15.0632 2.75472 15.1665 3.21259 15.154 3.6747Z" fill="#FF9999"/>
<path d="M12.892 6.34337C12.442 6.34296 12.0058 6.18775 11.656 5.90361L13.954 1.31927C14.3345 1.57952 14.6439 1.93159 14.8535 2.34315C15.0632 2.75472 15.1665 3.21259 15.154 3.6747C15.154 5.1506 14.14 6.34337 12.892 6.34337Z" fill="#F58787"/>
<path d="M13.816 13.5602L10.906 16.4819C10.6659 16.7189 10.3427 16.8516 10.006 16.8516C9.66933 16.8516 9.34613 16.7189 9.106 16.4819L6.184 13.5663C5.81834 13.1962 5.61315 12.696 5.61315 12.1747C5.61315 11.6534 5.81834 11.1532 6.184 10.7831C6.36523 10.6001 6.58071 10.4548 6.81806 10.3557C7.05541 10.2566 7.30994 10.2055 7.567 10.2055C7.82407 10.2055 8.07859 10.2566 8.31594 10.3557C8.55329 10.4548 8.76878 10.6001 8.95 10.7831L9.55 11.3855C9.60624 11.4477 9.67478 11.4973 9.75125 11.5313C9.82771 11.5652 9.91039 11.5828 9.994 11.5828C10.0776 11.5828 10.1603 11.5652 10.2368 11.5313C10.3132 11.4973 10.3818 11.4477 10.438 11.3855L11.038 10.7831C11.4058 10.4145 11.9043 10.2075 12.424 10.2075C12.9437 10.2075 13.4422 10.4145 13.81 10.7831C14.1761 11.1514 14.3822 11.6501 14.3833 12.1704C14.3845 12.6908 14.1805 13.1904 13.816 13.5602Z" fill="white"/>
<path d="M5.05589 7.38554C5.05531 7.11062 4.99946 6.83865 4.89167 6.58592C4.78388 6.3332 4.62637 6.10493 4.42859 5.91479C4.23082 5.72466 3.99684 5.57658 3.74068 5.47942C3.48453 5.38227 3.21148 5.33804 2.93789 5.3494C2.40059 5.39526 1.90095 5.64516 1.54083 6.04813C1.18072 6.45111 0.987256 6.97682 0.999887 7.51807V8.44578C1.00039 9.58414 1.39011 10.6878 2.10389 11.5723C2.13691 11.616 2.17954 11.6514 2.22847 11.6758C2.27739 11.7002 2.33127 11.7129 2.38589 11.7129C2.44051 11.7129 2.49439 11.7002 2.54331 11.6758C2.59223 11.6514 2.63487 11.616 2.66789 11.5723L4.70789 8.56024C4.9431 8.21471 5.06478 7.80397 5.05589 7.38554Z" fill="#FF9999"/>
<path d="M14.938 7.38554C14.9385 7.11009 14.9946 6.8376 15.1027 6.58446C15.2109 6.33132 15.3689 6.10276 15.5674 5.91254C15.7658 5.72232 16.0005 5.57437 16.2574 5.47759C16.5142 5.38082 16.7879 5.33721 17.062 5.3494C17.5993 5.39526 18.0989 5.64516 18.4591 6.04813C18.8192 6.45111 19.0126 6.97682 19 7.51807V8.44578C19.0017 9.58349 18.614 10.6873 17.902 11.5723C17.8684 11.616 17.8252 11.6515 17.7758 11.6759C17.7264 11.7002 17.6721 11.7129 17.617 11.7129C17.5619 11.7129 17.5076 11.7002 17.4582 11.6759C17.4088 11.6515 17.3656 11.616 17.332 11.5723L15.298 8.56024C15.0585 8.21614 14.9326 7.80528 14.938 7.38554Z" fill="#F58787"/>
</g>
<defs>
<clipPath id="clip0_1407_17361">
<rect width="18" height="18" fill="white" transform="translate(1 1)"/>
</clipPath>
</defs>
</svg>
