<svg width="20" height="20" viewBox="0 0 20 20" fill="none" xmlns="http://www.w3.org/2000/svg">
<g clip-path="url(#clip0_1410_17575)">
<rect x="3.875" y="1.81818" width="12.25" height="14.7273" fill="white"/>
<path d="M16.6477 1.96011C16.5548 1.82689 16.4453 1.70406 16.3215 1.59411L16.2563 1.53411C16.1518 1.44865 16.0406 1.37043 15.9236 1.30011L15.7801 1.22811C15.6549 1.17848 15.5263 1.13639 15.3952 1.10211C15.3559 1.08474 15.3142 1.07261 15.2712 1.06611C15.1159 1.02751 14.9558 1.00734 14.795 1.00611H5.23113C4.64052 1.00611 4.07401 1.22148 3.65578 1.60501C3.23755 1.98853 3.00173 2.50893 3 3.05211V16.9541C3.00173 17.4973 3.23755 18.0177 3.65578 18.4012C4.07401 18.7847 4.64052 19.0001 5.23113 19.0001H14.7754C15.3654 19.0001 15.9312 18.7845 16.3484 18.4009C16.7656 18.0172 17 17.4967 17 16.9541V3.05211C17.001 2.66428 16.8786 2.28467 16.6477 1.96011ZM15.7148 15.2081C15.7157 15.3123 15.694 15.4157 15.651 15.5121C15.6081 15.6086 15.5447 15.6962 15.4645 15.7699C15.3844 15.8436 15.2891 15.9019 15.1842 15.9415C15.0794 15.981 14.967 16.0009 14.8537 16.0001H5.14632C4.9208 15.9969 4.70578 15.9119 4.54813 15.7636C4.39049 15.6152 4.30301 15.4155 4.30475 15.2081V3.05211C4.30975 2.82759 4.40896 2.61354 4.58162 2.45475C4.75427 2.29595 4.98701 2.20471 5.23113 2.20011H14.7428C14.9937 2.20011 15.2343 2.29177 15.4117 2.45493C15.5891 2.61808 15.6887 2.83937 15.6887 3.07011L15.7148 15.2081Z" fill="#99BDCC"/>
<path d="M11.2591 16.69H8.73439C8.2696 16.69 7.89282 17.0365 7.89282 17.464C7.89282 17.8915 8.2696 18.238 8.73439 18.238H11.2591C11.7239 18.238 12.1007 17.8915 12.1007 17.464C12.1007 17.0365 11.7239 16.69 11.2591 16.69Z" fill="#69808C"/>
<path d="M8.5452 5.266C8.73379 5.266 8.91466 5.3349 9.04802 5.45755C9.18137 5.5802 9.25629 5.74655 9.25629 5.92V7.456C9.25715 7.54239 9.2394 7.62808 9.20405 7.70812C9.1687 7.78816 9.11645 7.86097 9.05034 7.92233C8.98422 7.9837 8.90554 8.03241 8.81884 8.06565C8.73214 8.09889 8.63913 8.116 8.5452 8.116H6.87512C6.68479 8.116 6.50227 8.04646 6.36769 7.92269C6.23311 7.79892 6.1575 7.63104 6.1575 7.456V5.92C6.1575 5.83361 6.1761 5.74807 6.21225 5.66833C6.24839 5.58859 6.30135 5.51623 6.36808 5.45542C6.4348 5.39461 6.51396 5.34656 6.60099 5.31405C6.68802 5.28154 6.78119 5.26521 6.87512 5.266H8.5452ZM8.5452 4.36H6.87512C6.42526 4.36 5.99383 4.52436 5.67574 4.81691C5.35764 5.10947 5.17894 5.50626 5.17894 5.92V7.456C5.17807 7.66109 5.22136 7.8643 5.30629 8.05392C5.39123 8.24355 5.51614 8.41584 5.67381 8.56086C5.83149 8.70587 6.01882 8.82075 6.225 8.89887C6.43118 8.97698 6.65213 9.01679 6.87512 9.016H8.5452C8.76764 9.016 8.98789 8.97561 9.19331 8.89714C9.39874 8.81867 9.5853 8.70366 9.74228 8.55873C9.89926 8.41379 10.0236 8.24177 10.1081 8.05253C10.1926 7.8633 10.2357 7.66058 10.2349 7.456V5.92C10.2349 5.5073 10.0571 5.11141 9.74037 4.81903C9.42368 4.52665 8.99392 4.36159 8.5452 4.36Z" fill="#73D3E6"/>
<path d="M13.2097 9.586C13.4 9.586 13.5825 9.65553 13.7171 9.77931C13.8517 9.90308 13.9273 10.071 13.9273 10.246V11.8C13.9273 11.975 13.8517 12.1429 13.7171 12.2667C13.5825 12.3905 13.4 12.46 13.2097 12.46H11.5396C11.3504 12.4584 11.1696 12.3882 11.0364 12.2646C10.9032 12.141 10.8285 11.974 10.8285 11.8V10.246C10.8285 10.071 10.9041 9.90308 11.0387 9.77931C11.1733 9.65553 11.3558 9.586 11.5461 9.586H13.2162M13.2162 8.686H11.5396C11.0903 8.68758 10.6599 8.85244 10.3421 9.14466C10.0244 9.43687 9.84515 9.83275 9.84343 10.246V11.8C9.84343 12.0049 9.8873 12.2077 9.97254 12.397C10.0578 12.5863 10.1827 12.7582 10.3402 12.9031C10.4977 13.0479 10.6847 13.1629 10.8905 13.2412C11.0963 13.3196 11.3169 13.36 11.5396 13.36H13.2097C13.6595 13.36 14.091 13.1956 14.4091 12.9031C14.7272 12.6105 14.9059 12.2137 14.9059 11.8V10.246C14.9042 9.83275 14.7249 9.43687 14.4072 9.14466C14.0894 8.85244 13.659 8.68758 13.2097 8.686H13.2162Z" fill="#73D3E6"/>
<path d="M8.53216 13.414H6.86207C6.39544 13.414 5.94772 13.2444 5.61654 12.942C5.28536 12.6397 5.09758 12.2292 5.09413 11.8V10.27C5.09585 10.1374 5.15434 10.0107 5.25692 9.91749C5.35951 9.82427 5.49791 9.77199 5.64213 9.772C5.78574 9.772 5.92346 9.82447 6.02501 9.91786C6.12655 10.0113 6.1836 10.1379 6.1836 10.27V11.8C6.1836 11.9591 6.25233 12.1117 6.37468 12.2243C6.49702 12.3368 6.66296 12.4 6.83598 12.4H8.53216C8.67637 12.4 8.81478 12.4523 8.91736 12.5455C9.01994 12.6387 9.07843 12.7654 9.08015 12.898C9.08189 12.9652 9.069 13.032 9.04224 13.0946C9.01548 13.1571 8.97539 13.2141 8.92433 13.2622C8.87327 13.3102 8.81227 13.3484 8.74492 13.3745C8.67757 13.4006 8.60523 13.414 8.53216 13.414Z" fill="#73D3E6"/>
<path d="M12.7922 10.012H12.0093C11.6238 10.012 11.3113 10.2994 11.3113 10.654V11.374C11.3113 11.7286 11.6238 12.016 12.0093 12.016H12.7922C13.1777 12.016 13.4902 11.7286 13.4902 11.374V10.654C13.4902 10.2994 13.1777 10.012 12.7922 10.012Z" fill="#73D3E6"/>
<path d="M9.08015 10.774C9.08015 10.2206 8.59238 9.772 7.99068 9.772C7.38899 9.772 6.90121 10.2206 6.90121 10.774C6.90121 11.3274 7.38899 11.776 7.99068 11.776C8.59238 11.776 9.08015 11.3274 9.08015 10.774Z" fill="#73D3E6"/>
<path d="M13.0988 5.212H11.9571C11.4527 5.212 11.0438 5.58808 11.0438 6.052V7.102C11.0438 7.56592 11.4527 7.942 11.9571 7.942H13.0988C13.6032 7.942 14.0121 7.56592 14.0121 7.102V6.052C14.0121 5.58808 13.6032 5.212 13.0988 5.212Z" fill="#73D3E6"/>
<path d="M4.30475 3.052V15.208C4.303 15.4154 4.39049 15.6151 4.54813 15.7635C4.70578 15.9118 4.9208 15.9968 5.14632 16H7.24045L6.63374 19H5.23113C4.64052 19 4.07401 18.7846 3.65578 18.4011C3.23755 18.0176 3.00173 17.4972 3 16.954V3.052C3 2.50778 3.23506 1.98584 3.65348 1.60102C4.0719 1.21619 4.6394 1 5.23113 1H10.287L10.0457 2.2H5.23113C4.98701 2.2046 4.75427 2.29584 4.58162 2.45463C4.40896 2.61343 4.30975 2.82748 4.30475 3.052Z" fill="#B5DEF2"/>
</g>
<defs>
<clipPath id="clip0_1410_17575">
<rect width="14" height="18" fill="white" transform="translate(3 1)"/>
</clipPath>
</defs>
</svg>
