<svg width="20" height="20" viewBox="0 0 20 20" fill="none" xmlns="http://www.w3.org/2000/svg">
<g clip-path="url(#clip0_290_2043)">
<path d="M17.1608 3.01968C16.917 2.76336 16.653 2.52704 16.3714 2.313C15.6752 1.72897 14.8988 1.24793 14.0659 0.884606C13.9807 0.836993 13.8855 0.799404 13.8003 0.761814C12.5973 0.254587 11.3043 -0.00452697 9.99877 5.03217e-06C7.34897 0.00662129 4.80959 1.06218 2.93589 2.93588C1.06219 4.80958 0.00663402 7.34895 1.77611e-05 9.99875C-0.00350722 11.8547 0.517727 13.6738 1.50359 15.2462C1.75115 15.666 2.03813 16.0612 2.36062 16.4265L2.38819 16.4741C2.47339 16.5794 2.56862 16.6746 2.65382 16.7698L2.74153 16.8651C2.9395 17.0655 3.13998 17.266 3.37052 17.4665C3.4457 17.5316 3.52088 17.5993 3.59856 17.6569C5.38566 19.1738 7.65469 20.0045 9.99877 20C11.9656 19.9997 13.8886 19.4195 15.5274 18.3319C17.1662 17.2443 18.4479 15.6977 19.2122 13.8855C19.9766 12.0733 20.1897 10.076 19.8248 8.1433C19.4599 6.21063 18.5333 4.42845 17.1608 3.01968ZM9.99877 19.0452C7.82764 19.05 5.72902 18.2643 4.09474 16.835C4.05922 16.8141 4.02711 16.7879 3.99952 16.7573C3.79904 16.5769 3.60107 16.3964 3.42816 16.206L3.34296 16.1208C3.2753 16.0431 3.20012 15.9679 3.14248 15.8928L3.08484 15.8151C2.79226 15.4826 2.53135 15.1235 2.30549 14.7425C1.41789 13.3197 0.948921 11.6757 0.952279 9.99875C0.954933 7.60029 1.90889 5.30082 3.60486 3.60485C5.30083 1.90888 7.6003 0.95492 9.99877 0.952267C11.1764 0.944226 12.3432 1.17792 13.4269 1.6389L13.5522 1.69403C14.3624 2.03198 15.1162 2.49169 15.7875 3.05727C16.038 3.2448 16.2704 3.45538 16.4817 3.68626C18.1337 5.371 19.0549 7.63919 19.0453 9.99875C19.0426 12.3972 18.0886 14.6967 16.3927 16.3927C14.6967 18.0886 12.3972 19.0426 9.99877 19.0452Z" fill="#33CC4C"/>
<path d="M17.8975 9.99875C17.8964 11.5198 17.456 13.0082 16.6293 14.285C15.8025 15.5618 14.6246 16.5726 13.2371 17.1959C11.8496 17.8193 10.3116 18.0286 8.80803 17.7987C7.30442 17.5689 5.8992 16.9097 4.7613 15.9003C4.58839 15.7424 4.42299 15.5845 4.26011 15.4191C4.1724 15.3239 4.07717 15.2287 4.00951 15.1259C4.00101 15.1108 3.98999 15.0973 3.97693 15.0858C3.72337 14.7932 3.49612 14.4787 3.29782 14.1461C2.51662 12.9037 2.10146 11.4663 2.09998 9.99875C2.10064 7.90407 2.93304 5.89538 4.4142 4.41422C5.89536 2.93306 7.90406 2.10065 9.99874 2.09999C11.0316 2.09329 12.055 2.29796 13.0059 2.70142C13.7418 3.00134 14.4266 3.41391 15.0357 3.92432C15.2578 4.09516 15.4664 4.28283 15.6597 4.48566C17.0998 5.95873 17.9035 7.93868 17.8975 9.99875Z" fill="#33CC4C"/>
<path d="M12.9933 2.70142L4.7613 15.9003C4.58839 15.7424 4.42299 15.5845 4.26011 15.4191C4.1724 15.3239 4.07717 15.2287 4.00951 15.1259C4.00101 15.1108 3.98999 15.0972 3.97693 15.0858C3.72337 14.7932 3.49612 14.4787 3.29782 14.1461C2.51662 12.9037 2.10146 11.4663 2.09998 9.99875C2.10064 7.90407 2.93304 5.89538 4.4142 4.41422C5.89536 2.93305 7.90406 2.10065 9.99874 2.09999C11.0274 2.09499 12.0464 2.29963 12.9933 2.70142Z" fill="#3AE657"/>
<path d="M14.0659 0.884602L13.5522 1.69402L13.4269 1.63889C12.3432 1.17792 11.1764 0.944223 9.99877 0.952263C7.6003 0.954916 5.30083 1.90888 3.60486 3.60485C1.90889 5.30082 0.954933 7.60029 0.952279 9.99875C0.948921 11.6757 1.41789 13.3197 2.30549 14.7425C2.53122 15.1244 2.79214 15.4843 3.08484 15.8176L3.14248 15.8953C3.20012 15.9704 3.2753 16.0456 3.34296 16.1233L3.42816 16.2085C3.60107 16.3989 3.79904 16.5794 3.99952 16.7598C4.02711 16.7904 4.05922 16.8166 4.09474 16.8375L3.59355 17.6569C3.51587 17.5993 3.44069 17.5316 3.36551 17.4665C3.13496 17.266 2.93449 17.0655 2.73652 16.8651L2.64881 16.7698C2.56361 16.6746 2.46838 16.5794 2.38318 16.4741L2.35561 16.4265C2.03485 16.061 1.74956 15.6658 1.50359 15.2462C0.517727 13.6738 -0.00350722 11.8547 1.77611e-05 9.99875C0.00663402 7.34895 1.06219 4.80957 2.93589 2.93587C4.80959 1.06218 7.34897 0.00661749 9.99877 1.22879e-06C11.3036 -0.00770353 12.5966 0.247995 13.8003 0.751787C13.8855 0.7994 13.9807 0.836989 14.0659 0.884602Z" fill="#3AE657"/>
<path d="M8.65805 14.0534L5.20234 10.9234C4.97003 10.712 4.83091 10.4172 4.81541 10.1035C4.79992 9.78981 4.9093 9.48273 5.11964 9.24947C5.33069 9.01656 5.62559 8.87701 5.93951 8.86151C6.25343 8.846 6.56065 8.9558 6.79362 9.16677L9.07404 11.2342C9.13083 11.2856 9.19776 11.3246 9.27053 11.3486C9.34329 11.3726 9.42028 11.3811 9.49652 11.3735C9.57277 11.366 9.64659 11.3425 9.71323 11.3047C9.77988 11.2669 9.83786 11.2156 9.88346 11.154L13.0886 6.85378C13.1807 6.72837 13.2967 6.62237 13.4299 6.54188C13.5631 6.46138 13.7109 6.40796 13.8648 6.38468C14.0187 6.3614 14.1756 6.36872 14.3267 6.40621C14.4777 6.44371 14.6199 6.51064 14.745 6.60318C14.8705 6.69557 14.9765 6.81179 15.0571 6.94521C15.1376 7.07862 15.191 7.2266 15.2143 7.38069C15.2376 7.53477 15.2302 7.69193 15.1927 7.84318C15.1552 7.99443 15.0882 8.13679 14.9956 8.26212L10.8357 13.8429C10.7125 14.0079 10.5561 14.1454 10.3766 14.2464C10.1971 14.3475 9.99846 14.4099 9.79344 14.4297C9.58841 14.4495 9.38151 14.4263 9.18599 14.3615C8.99046 14.2967 8.81064 14.1917 8.65805 14.0534Z" fill="white"/>
</g>
<defs>
<clipPath id="clip0_290_2043">
<rect width="20" height="20" fill="white"/>
</clipPath>
</defs>
</svg>
