<svg width="16" height="16" viewBox="0 0 16 16" fill="none" xmlns="http://www.w3.org/2000/svg">
<path d="M2.60197 7.74664C2.1584 7.74664 1.71482 7.91997 1.39913 8.25908C1.1154 8.56052 0.975538 8.94862 1.00351 9.3518C1.03148 9.75497 1.2233 10.1205 1.54299 10.388L4.41622 12.7656C4.70794 13.0067 5.08358 13.1424 5.4712 13.1424C5.51516 13.1424 5.55912 13.1424 5.60307 13.1386C6.03466 13.1047 6.43827 12.905 6.71001 12.5885L13.7472 4.46473C14.3067 3.82041 14.2028 2.86711 13.5194 2.3396C13.1878 2.08714 12.7722 1.96657 12.3486 2.00802C11.925 2.04946 11.5413 2.24163 11.2696 2.55437L5.27939 9.46484L3.65296 8.11967C3.35324 7.87098 2.97361 7.74664 2.60197 7.74664Z" fill="url(#paint0_linear_1491_4962)"/>
<path d="M5.67506 14.0002C5.31809 14.0002 4.9745 13.8798 4.70677 13.6599L1.49846 11.0413C0.891605 10.5433 0.829134 9.68009 1.3646 9.1157C1.90006 8.55132 2.82819 8.49322 3.43505 8.99121L5.50104 10.6761L12.3951 2.82443C12.9083 2.2393 13.8319 2.1563 14.4611 2.62939C15.0903 3.10663 15.1795 3.96566 14.6708 4.5508L6.80846 13.498C6.55857 13.7844 6.18821 13.9628 5.79554 13.996C5.75538 13.996 5.71522 14.0002 5.67506 14.0002Z" fill="url(#paint1_linear_1491_4962)"/>
<path opacity="0.75" d="M5.67506 14.0002C5.31809 14.0002 4.9745 13.8798 4.70677 13.6599L1.49846 11.0413C0.891605 10.5433 0.829134 9.68009 1.3646 9.1157C1.90006 8.55132 2.82819 8.49322 3.43505 8.99121L5.50104 10.6761L12.3951 2.82443C12.9083 2.2393 13.8319 2.1563 14.4611 2.62939C15.0903 3.10663 15.1795 3.96566 14.6708 4.5508L6.80846 13.498C6.55857 13.7844 6.18821 13.9628 5.79554 13.996C5.75538 13.996 5.71522 14.0002 5.67506 14.0002Z" fill="url(#paint2_radial_1491_4962)"/>
<path opacity="0.5" d="M5.67506 14.0002C5.31809 14.0002 4.9745 13.8798 4.70677 13.6599L1.49846 11.0413C0.891605 10.5433 0.829134 9.68009 1.3646 9.1157C1.90006 8.55132 2.82819 8.49322 3.43505 8.99121L5.50104 10.6761L12.3951 2.82443C12.9083 2.2393 13.8319 2.1563 14.4611 2.62939C15.0903 3.10663 15.1795 3.96566 14.6708 4.5508L6.80846 13.498C6.55857 13.7844 6.18821 13.9628 5.79554 13.996C5.75538 13.996 5.71522 14.0002 5.67506 14.0002Z" fill="url(#paint3_radial_1491_4962)"/>
<defs>
<linearGradient id="paint0_linear_1491_4962" x1="10.2282" y1="-9.54516" x2="6.48778" y2="15.5032" gradientUnits="userSpaceOnUse">
<stop stop-color="#00CC00"/>
<stop offset="0.1878" stop-color="#06C102"/>
<stop offset="0.5185" stop-color="#17A306"/>
<stop offset="0.9507" stop-color="#33740C"/>
<stop offset="1" stop-color="#366E0D"/>
</linearGradient>
<linearGradient id="paint1_linear_1491_4962" x1="10.5379" y1="-0.0909673" x2="5.18418" y2="16.8465" gradientUnits="userSpaceOnUse">
<stop offset="0.2544" stop-color="#90D856"/>
<stop offset="0.736" stop-color="#00CC00"/>
<stop offset="0.7716" stop-color="#0BCD07"/>
<stop offset="0.8342" stop-color="#29CF18"/>
<stop offset="0.9166" stop-color="#59D335"/>
<stop offset="1" stop-color="#90D856"/>
</linearGradient>
<radialGradient id="paint2_radial_1491_4962" cx="0" cy="0" r="1" gradientUnits="userSpaceOnUse" gradientTransform="translate(10.6955 5.96046) rotate(117.809) scale(6.16093 3.29512)">
<stop stop-color="#FBE07A" stop-opacity="0.75"/>
<stop offset="0.0803394" stop-color="#FBE387" stop-opacity="0.6897"/>
<stop offset="0.5173" stop-color="#FDF2C7" stop-opacity="0.362"/>
<stop offset="0.8357" stop-color="#FFFBF0" stop-opacity="0.1233"/>
<stop offset="1" stop-color="white" stop-opacity="0"/>
</radialGradient>
<radialGradient id="paint3_radial_1491_4962" cx="0" cy="0" r="1" gradientUnits="userSpaceOnUse" gradientTransform="translate(7.72205 11.8186) rotate(156.856) scale(7.56323 3.04932)">
<stop stop-color="#440063" stop-opacity="0.25"/>
<stop offset="1" stop-color="#420061" stop-opacity="0"/>
</radialGradient>
</defs>
</svg>
