<svg width="20" height="20" viewBox="0 0 20 20" fill="none" xmlns="http://www.w3.org/2000/svg">
<g clip-path="url(#clip0_290_2044)">
<path d="M17.1608 3.01968C16.917 2.76336 16.653 2.52704 16.3714 2.313C15.6752 1.72897 14.8988 1.24793 14.0659 0.884606C13.9807 0.836993 13.8855 0.799404 13.8003 0.761814C12.5973 0.254587 11.3043 -0.00452697 9.99877 5.03217e-06C7.34897 0.00662129 4.80959 1.06218 2.93589 2.93588C1.06219 4.80958 0.00663402 7.34895 1.77611e-05 9.99875C-0.00350722 11.8547 0.517727 13.6738 1.50359 15.2462C1.75115 15.666 2.03813 16.0612 2.36062 16.4265L2.38819 16.4741C2.47339 16.5794 2.56862 16.6746 2.65382 16.7698L2.74153 16.8651C2.9395 17.0655 3.13998 17.266 3.37052 17.4665C3.4457 17.5316 3.52088 17.5993 3.59856 17.6569C5.38566 19.1738 7.65469 20.0045 9.99877 20C11.9656 19.9997 13.8886 19.4195 15.5274 18.3319C17.1662 17.2443 18.4479 15.6977 19.2122 13.8855C19.9766 12.0733 20.1897 10.076 19.8248 8.1433C19.4599 6.21063 18.5333 4.42845 17.1608 3.01968ZM9.99877 19.0452C7.82764 19.05 5.72902 18.2643 4.09474 16.835C4.05922 16.8141 4.02711 16.7879 3.99952 16.7573C3.79904 16.5769 3.60107 16.3964 3.42816 16.206L3.34296 16.1208C3.2753 16.0431 3.20012 15.9679 3.14248 15.8928L3.08484 15.8151C2.79226 15.4826 2.53135 15.1235 2.30549 14.7425C1.41789 13.3197 0.948921 11.6757 0.952279 9.99875C0.954933 7.60029 1.90889 5.30082 3.60486 3.60485C5.30083 1.90888 7.6003 0.95492 9.99877 0.952267C11.1764 0.944226 12.3432 1.17792 13.4269 1.6389L13.5522 1.69403C14.3624 2.03198 15.1162 2.49169 15.7875 3.05727C16.038 3.2448 16.2704 3.45538 16.4817 3.68626C18.1337 5.371 19.0549 7.63919 19.0453 9.99875C19.0426 12.3972 18.0886 14.6967 16.3927 16.3927C14.6967 18.0886 12.3972 19.0426 9.99877 19.0452Z" fill="#E65555"/>
<path d="M17.8975 9.99875C17.8964 11.5198 17.456 13.0082 16.6293 14.285C15.8025 15.5618 14.6246 16.5726 13.2371 17.1959C11.8496 17.8193 10.3116 18.0286 8.80803 17.7987C7.30442 17.5689 5.8992 16.9097 4.7613 15.9003C4.58839 15.7424 4.42299 15.5845 4.26011 15.4191C4.1724 15.3239 4.07717 15.2287 4.00951 15.1259C4.00101 15.1108 3.98999 15.0973 3.97693 15.0858C3.72337 14.7932 3.49612 14.4787 3.29782 14.1461C2.51662 12.9037 2.10146 11.4663 2.09998 9.99875C2.10064 7.90407 2.93304 5.89538 4.4142 4.41422C5.89536 2.93306 7.90406 2.10065 9.99874 2.09999C11.0316 2.09329 12.055 2.29796 13.0059 2.70142C13.7418 3.00134 14.4266 3.41391 15.0357 3.92432C15.2578 4.09516 15.4664 4.28283 15.6597 4.48566C17.0998 5.95873 17.9035 7.93868 17.8975 9.99875Z" fill="#E65555"/>
<path d="M12.9933 2.70142L4.7613 15.9003C4.58839 15.7424 4.42299 15.5845 4.26011 15.4191C4.1724 15.3239 4.07717 15.2287 4.00951 15.1259C4.00101 15.1108 3.98999 15.0972 3.97693 15.0858C3.72337 14.7932 3.49612 14.4787 3.29782 14.1461C2.51662 12.9037 2.10146 11.4663 2.09998 9.99875C2.10064 7.90407 2.93304 5.89538 4.4142 4.41422C5.89536 2.93305 7.90406 2.10065 9.99874 2.09999C11.0274 2.09499 12.0464 2.29963 12.9933 2.70142Z" fill="#F26868"/>
<path d="M14.0659 0.884602L13.5522 1.69402L13.4269 1.63889C12.3432 1.17792 11.1764 0.944223 9.99877 0.952263C7.6003 0.954916 5.30083 1.90888 3.60486 3.60485C1.90889 5.30082 0.954933 7.60029 0.952279 9.99875C0.948921 11.6757 1.41789 13.3197 2.30549 14.7425C2.53122 15.1244 2.79214 15.4843 3.08484 15.8176L3.14248 15.8953C3.20012 15.9704 3.2753 16.0456 3.34296 16.1233L3.42816 16.2085C3.60107 16.3989 3.79904 16.5794 3.99952 16.7598C4.02711 16.7904 4.05922 16.8166 4.09474 16.8375L3.59355 17.6569C3.51587 17.5993 3.44069 17.5316 3.36551 17.4665C3.13496 17.266 2.93449 17.0655 2.73652 16.8651L2.64881 16.7698C2.56361 16.6746 2.46838 16.5794 2.38318 16.4741L2.35561 16.4265C2.03485 16.061 1.74956 15.6658 1.50359 15.2462C0.517727 13.6738 -0.00350722 11.8547 1.77611e-05 9.99875C0.00663402 7.34895 1.06219 4.80957 2.93589 2.93587C4.80959 1.06218 7.34897 0.00661749 9.99877 1.22879e-06C11.3036 -0.00770353 12.5966 0.247995 13.8003 0.751787C13.8855 0.7994 13.9807 0.836989 14.0659 0.884602Z" fill="#F26868"/>
<path d="M12.0913 10.3972C12.0387 10.3452 11.9971 10.2834 11.9686 10.2152C11.9402 10.147 11.9255 10.0739 11.9255 10C11.9255 9.92613 11.9402 9.85299 11.9686 9.78481C11.9971 9.71663 12.0387 9.65477 12.0913 9.60281L14.2238 7.46774C14.4342 7.24033 14.5482 6.94029 14.5421 6.63059C14.5359 6.32089 14.41 6.02561 14.1908 5.80674C13.9716 5.58787 13.6762 5.46242 13.3665 5.45673C13.0568 5.45104 12.7569 5.56555 12.5298 5.77622L10.3972 7.90878C10.2916 8.01361 10.1488 8.07243 10 8.07243C9.85123 8.07243 9.70846 8.01361 9.60285 7.90878L7.47028 5.77622C7.24319 5.56555 6.94332 5.45104 6.63361 5.45673C6.3239 5.46242 6.02844 5.58787 5.80924 5.80674C5.59004 6.02561 5.46416 6.32089 5.45801 6.63059C5.45186 6.94029 5.56592 7.24033 5.77626 7.46774L7.90882 9.60281C8.01365 9.70842 8.07247 9.85119 8.07247 10C8.07247 10.1488 8.01365 10.2916 7.90882 10.3972L5.77626 12.5298C5.55162 12.7544 5.42542 13.0591 5.42542 13.3768C5.42542 13.6945 5.55162 13.9991 5.77626 14.2238C6.0009 14.4484 6.30558 14.5746 6.62327 14.5746C6.94096 14.5746 7.24564 14.4484 7.47028 14.2238L9.60285 12.0912C9.65481 12.0387 9.71667 11.997 9.78485 11.9686C9.85303 11.9401 9.92617 11.9255 10 11.9255C10.0739 11.9255 10.1471 11.9401 10.2152 11.9686C10.2834 11.997 10.3453 12.0387 10.3972 12.0912L12.5298 14.2238C12.7544 14.4484 13.0591 14.5746 13.3768 14.5746C13.6945 14.5746 13.9992 14.4484 14.2238 14.2238C14.4485 13.9991 14.5747 13.6945 14.5747 13.3768C14.5747 13.0591 14.4485 12.7544 14.2238 12.5298L12.0913 10.3972Z" fill="white"/>
</g>
<defs>
<clipPath id="clip0_290_2044">
<rect width="20" height="20" fill="white"/>
</clipPath>
</defs>
</svg>
