<svg width="20" height="20" viewBox="0 0 20 20" fill="none" xmlns="http://www.w3.org/2000/svg">
<g clip-path="url(#clip0_521_4211)">
<path d="M17.1608 3.0197C16.917 2.76339 16.653 2.52707 16.3714 2.31302C15.6752 1.729 14.8988 1.24796 14.0659 0.884629C13.9807 0.837016 13.8855 0.799427 13.8003 0.761837C12.5973 0.254609 11.3043 -0.00450408 9.99877 2.79203e-05C7.34897 0.00664418 4.80959 1.06221 2.93589 2.9359C1.06219 4.8096 0.00663402 7.34898 1.77611e-05 9.99878C-0.00350722 11.8547 0.517727 13.6738 1.50359 15.2462C1.75115 15.666 2.03813 16.0612 2.36062 16.4265L2.38819 16.4742C2.47339 16.5794 2.56862 16.6746 2.65382 16.7699L2.74153 16.8651C2.9395 17.0656 3.13998 17.266 3.37052 17.4665C3.4457 17.5317 3.52088 17.5993 3.59856 17.657C5.38566 19.1739 7.65469 20.0045 9.99877 20C11.9656 19.9997 13.8886 19.4195 15.5274 18.3319C17.1662 17.2444 18.4479 15.6978 19.2122 13.8855C19.9766 12.0733 20.1897 10.076 19.8248 8.14332C19.4599 6.21065 18.5333 4.42847 17.1608 3.0197ZM9.99877 19.0453C7.82764 19.05 5.72902 18.2643 4.09474 16.835C4.05922 16.8141 4.02711 16.7879 3.99952 16.7573C3.79904 16.5769 3.60107 16.3965 3.42816 16.206L3.34296 16.1208C3.2753 16.0431 3.20012 15.968 3.14248 15.8928L3.08484 15.8151C2.79226 15.4826 2.53135 15.1235 2.30549 14.7425C1.41789 13.3197 0.948921 11.6757 0.952279 9.99878C0.954933 7.60031 1.90889 5.30084 3.60486 3.60487C5.30083 1.9089 7.6003 0.954943 9.99877 0.95229C11.1764 0.944249 12.3432 1.17795 13.4269 1.63892L13.5522 1.69405C14.3624 2.032 15.1162 2.49172 15.7875 3.05729C16.038 3.24482 16.2704 3.45541 16.4817 3.68628C18.1337 5.37102 19.0549 7.63921 19.0453 9.99878C19.0426 12.3972 18.0886 14.6967 16.3927 16.3927C14.6967 18.0886 12.3972 19.0426 9.99877 19.0453Z" fill="#F79B31"/>
<path d="M17.8975 9.99875C17.8964 11.5198 17.456 13.0082 16.6293 14.285C15.8025 15.5618 14.6246 16.5726 13.2371 17.1959C11.8496 17.8193 10.3116 18.0286 8.80803 17.7987C7.30442 17.5689 5.8992 16.9097 4.7613 15.9003C4.58839 15.7424 4.42299 15.5845 4.26011 15.4191C4.1724 15.3239 4.07717 15.2287 4.00951 15.1259C4.00101 15.1108 3.98999 15.0973 3.97693 15.0858C3.72337 14.7932 3.49612 14.4787 3.29782 14.1461C2.51662 12.9037 2.10146 11.4663 2.09998 9.99875C2.10064 7.90407 2.93304 5.89538 4.4142 4.41422C5.89536 2.93306 7.90406 2.10065 9.99874 2.09999C11.0316 2.09329 12.055 2.29796 13.0059 2.70142C13.7418 3.00134 14.4266 3.41391 15.0357 3.92432C15.2578 4.09516 15.4664 4.28283 15.6597 4.48566C17.0998 5.95873 17.9035 7.93868 17.8975 9.99875Z" fill="#F79B31"/>
<path d="M12.9933 2.70142L4.7613 15.9003C4.58839 15.7424 4.42299 15.5845 4.26011 15.4191C4.1724 15.3239 4.07717 15.2287 4.00951 15.1259C4.00101 15.1108 3.98999 15.0972 3.97693 15.0858C3.72337 14.7932 3.49612 14.4787 3.29782 14.1461C2.51662 12.9037 2.10146 11.4663 2.09998 9.99875C2.10064 7.90407 2.93304 5.89538 4.4142 4.41422C5.89536 2.93305 7.90406 2.10065 9.99874 2.09999C11.0274 2.09499 12.0464 2.29963 12.9933 2.70142Z" fill="#FFBB33"/>
<path d="M14.0659 0.884686L13.5522 1.69411L13.4269 1.63898C12.3432 1.178 11.1764 0.944306 9.99877 0.952347C7.6003 0.955 5.30083 1.90896 3.60486 3.60493C1.90889 5.3009 0.954933 7.60037 0.952279 9.99883C0.948921 11.6758 1.41789 13.3198 2.30549 14.7426C2.53122 15.1244 2.79214 15.4844 3.08484 15.8177L3.14248 15.8953C3.20012 15.9705 3.2753 16.0457 3.34296 16.1234L3.42816 16.2086C3.60107 16.399 3.79904 16.5795 3.99952 16.7599C4.02711 16.7905 4.05922 16.8167 4.09474 16.8376L3.59355 17.657C3.51587 17.5994 3.44069 17.5317 3.36551 17.4666C3.13496 17.2661 2.93449 17.0656 2.73652 16.8651L2.64881 16.7699C2.56361 16.6747 2.46838 16.5795 2.38318 16.4742L2.35561 16.4266C2.03485 16.061 1.74956 15.6658 1.50359 15.2463C0.517727 13.6739 -0.00350722 11.8548 1.77611e-05 9.99883C0.00663402 7.34903 1.06219 4.80966 2.93589 2.93596C4.80959 1.06226 7.34897 0.00670141 9.99877 8.51521e-05C11.3036 -0.00761961 12.5966 0.248079 13.8003 0.751871C13.8855 0.799484 13.9807 0.837073 14.0659 0.884686Z" fill="#FFBB33"/>
<path d="M14.1261 14.4418C13.8594 14.4428 13.6001 14.3546 13.3893 14.1912L9.52264 11.1415C9.29902 10.9654 9.11832 10.7408 8.99417 10.4847C8.87001 10.2286 8.80565 9.94758 8.80594 9.66295V4.73876C8.79856 4.57801 8.82385 4.41744 8.88027 4.26675C8.9367 4.11605 9.0231 3.97836 9.13424 3.862C9.24538 3.74563 9.37896 3.65301 9.52691 3.58973C9.67486 3.52645 9.8341 3.49383 9.99501 3.49383C10.1559 3.49383 10.3152 3.52645 10.4631 3.58973C10.6111 3.65301 10.7446 3.74563 10.8558 3.862C10.9669 3.97836 11.0533 4.11605 11.1098 4.26675C11.1662 4.41744 11.1915 4.57801 11.1841 4.73876V8.89613C11.1836 9.05999 11.2204 9.22182 11.2916 9.36941C11.3628 9.517 11.4665 9.6465 11.5951 9.74815L14.8528 12.3168C15.047 12.4699 15.1887 12.6798 15.2582 12.9172C15.3277 13.1545 15.3215 13.4077 15.2404 13.6414C15.1594 13.8751 15.0076 14.0778 14.8061 14.2212C14.6046 14.3646 14.3634 14.4417 14.1161 14.4418H14.1261Z" fill="white"/>
</g>
<defs>
<clipPath id="clip0_521_4211">
<rect width="20" height="20" fill="white"/>
</clipPath>
</defs>
</svg>
