<svg width="20" height="20" viewBox="0 0 20 20" fill="none" xmlns="http://www.w3.org/2000/svg">
<rect width="20" height="20" rx="10" fill="white"/>
<path fill-rule="evenodd" clip-rule="evenodd" d="M18 10C18 14.4183 14.4183 18 10 18C5.58172 18 2 14.4183 2 10C2 5.58172 5.58172 2 10 2C14.4183 2 18 5.58172 18 10ZM5.9141 14.0859C5.6212 13.793 5.6212 13.3181 5.9141 13.0252L8.93934 9.99999L5.91413 6.97478C5.62124 6.68188 5.62124 6.20701 5.91413 5.91412C6.20702 5.62122 6.6819 5.62122 6.97479 5.91412L10 8.93933L13.0252 5.91412C13.3181 5.62122 13.793 5.62122 14.0859 5.91412C14.3788 6.20701 14.3788 6.68188 14.0859 6.97478L11.0607 9.99999L14.0859 13.0252C14.3788 13.3181 14.3788 13.793 14.0859 14.0859C13.793 14.3788 13.3181 14.3788 13.0252 14.0859L10 11.0606L6.97476 14.0859C6.68186 14.3788 6.20699 14.3788 5.9141 14.0859Z" fill="#E96363"/>
</svg>
