<svg width="241" height="200" viewBox="0 0 241 200" fill="none" xmlns="http://www.w3.org/2000/svg">
<g clip-path="url(#clip0_3618_49960)">
<path d="M124.817 154.38L25.3533 163.545C22.7754 163.783 20.8768 166.079 21.1128 168.675L21.7158 175.306C21.9517 177.901 24.2328 179.813 26.8108 179.575L126.275 170.409C128.852 170.172 130.751 167.875 130.515 165.28L129.912 158.649C129.676 156.054 127.395 154.142 124.817 154.38Z" fill="#BF6A6A"/>
<path d="M112.604 20.0165L13.1404 29.1822C10.5625 29.4197 8.66395 31.7162 8.89992 34.3114L9.50287 40.9428C9.73884 43.5381 12.0199 45.4494 14.5979 45.2118L114.062 36.0462C116.64 35.8086 118.538 33.5122 118.302 30.9169L117.699 24.2855C117.463 21.6903 115.182 19.779 112.604 20.0165Z" fill="#BF6A6A"/>
<path d="M108.032 41.713C108.73 40.3542 109.052 38.8316 108.966 37.3045C108.879 35.7773 108.387 34.3016 107.54 33.0316C106.693 31.7616 105.523 30.7439 104.151 30.0849C102.78 29.426 101.258 29.1499 99.7449 29.2856L63.5968 32.6152L27.4788 35.9448C25.9631 36.0819 24.512 36.6273 23.278 37.5239C22.044 38.4204 21.0726 39.6349 20.4657 41.0398C19.8588 42.4448 19.639 43.9883 19.8291 45.5083C20.0193 47.0283 20.6126 48.4687 21.5466 49.6782L57.4471 96.3072C58.4378 97.5954 59.0424 99.1416 59.1898 100.764C59.3373 102.386 59.0215 104.017 58.2796 105.465L31.3785 157.878C30.6793 159.238 30.3564 160.763 30.4439 162.292C30.5313 163.822 31.0258 165.299 31.8755 166.57C32.7253 167.841 33.8989 168.858 35.2734 169.515C36.648 170.172 38.1728 170.445 39.6881 170.305L75.8061 166.983L111.932 163.653C113.446 163.512 114.895 162.964 116.128 162.066C117.36 161.169 118.33 159.954 118.936 158.55C119.542 157.145 119.763 155.603 119.574 154.083C119.385 152.564 118.795 151.123 117.864 149.912L81.9558 103.283C80.9653 101.996 80.3614 100.451 80.2152 98.8294C80.069 97.208 80.3867 95.5783 81.1309 94.1327L108.032 41.713Z" fill="#B8D6E6"/>
<path d="M103.653 42.1214C104.352 40.7608 104.675 39.2359 104.587 37.7066C104.5 36.1772 104.005 34.6997 103.156 33.4289C102.306 32.1581 101.132 31.1409 99.7577 30.4837C98.3831 29.8266 96.8583 29.5539 95.343 29.694L59.2475 33.016L23.0994 36.3456C21.5836 36.4842 20.1328 37.0309 18.8992 37.9283C17.6655 38.8257 16.6944 40.0407 16.0877 41.446C15.481 42.8513 15.2611 44.395 15.4511 45.9153C15.641 47.4356 16.2338 48.8764 17.1672 50.0866L53.0678 96.7156C54.0603 98.0014 54.6662 99.5466 54.8137 101.168C54.9612 102.79 54.6442 104.42 53.9003 105.866L26.9992 158.286C26.2999 159.647 25.9771 161.171 26.0646 162.701C26.152 164.23 26.6465 165.708 27.4962 166.978C28.3459 168.249 29.5196 169.266 30.8941 169.924C32.2687 170.581 33.7935 170.853 35.3088 170.713L71.4343 167.384L107.552 164.054C109.068 163.917 110.519 163.372 111.753 162.475C112.987 161.579 113.959 160.364 114.565 158.959C115.172 157.554 115.392 156.011 115.202 154.491C115.012 152.971 114.419 151.53 113.485 150.321L77.584 103.684C76.5932 102.398 75.9884 100.853 75.8409 99.2312C75.6934 97.61 76.0094 95.9801 76.7515 94.5336L103.653 42.1214Z" fill="#D9F2FF"/>
<path d="M60.1395 43.0952L31.6411 45.7226C31.093 45.7728 30.5682 45.9698 30.1213 46.2932C29.6744 46.6165 29.3216 47.0545 29.0997 47.5615C28.8777 48.0685 28.7946 48.6261 28.8591 49.1763C28.9236 49.7266 29.1332 50.2494 29.4662 50.6905L62.1494 94.2013C62.4649 94.6288 62.8841 94.9676 63.3668 95.1852C63.8496 95.4029 64.3798 95.4921 64.9067 95.4444C65.4335 95.3966 65.9394 95.2135 66.3758 94.9126C66.8122 94.6116 67.1646 94.203 67.3991 93.7256L91.7353 44.9525C91.9804 44.4607 92.0912 43.9122 92.0563 43.3631C92.0215 42.8141 91.8422 42.2842 91.5369 41.8278C91.2317 41.3715 90.8114 41.005 90.3191 40.766C89.8268 40.527 89.2803 40.4241 88.7355 40.4678L60.1395 43.0952Z" fill="#F2FBFF"/>
<path d="M70.4965 157.229L41.998 159.856C41.4532 159.9 40.9067 159.797 40.4144 159.558C39.9221 159.319 39.5018 158.953 39.1965 158.496C38.8913 158.04 38.712 157.51 38.6772 156.961C38.6423 156.412 38.7531 155.863 38.9982 155.372L63.3343 106.606C63.5666 106.127 63.9178 105.715 64.3539 105.412C64.79 105.109 65.2964 104.925 65.8241 104.876C66.3517 104.828 66.883 104.917 67.3664 105.135C67.8499 105.354 68.2693 105.694 68.5841 106.123L101.245 149.634C101.578 150.075 101.787 150.597 101.852 151.148C101.916 151.698 101.833 152.256 101.611 152.763C101.389 153.27 101.037 153.708 100.59 154.031C100.143 154.354 99.618 154.551 99.0699 154.601L70.4965 157.229Z" fill="#F2FBFF"/>
<path d="M61.4968 58.1645L42.0654 59.9539C41.5418 60.0009 41.0404 60.1884 40.6132 60.4968C40.1861 60.8052 39.8489 61.2232 39.6368 61.7074C39.4246 62.1915 39.3453 62.7241 39.4071 63.2496C39.4689 63.7751 39.6695 64.2744 39.988 64.6953L62.2843 94.3442C62.5863 94.7455 62.9847 95.0629 63.4421 95.2664C63.8995 95.47 64.4009 95.553 64.8989 95.5077C65.397 95.4624 65.8754 95.2902 66.2892 95.0074C66.7029 94.7247 67.0384 94.3405 67.264 93.8912L83.8456 60.6711C84.0797 60.1991 84.1845 59.6727 84.1492 59.1463C84.1139 58.6199 83.9398 58.1124 83.6449 57.6763C83.3499 57.2402 82.9448 56.8911 82.4713 56.665C81.9977 56.439 81.4729 56.3441 80.9508 56.3903L61.4968 58.1645Z" fill="#FFBE66"/>
<path d="M70.4968 157.228L89.4633 155.484C89.8666 155.446 90.2478 155.281 90.5532 155.013C90.8585 154.746 91.0727 154.388 91.1655 153.991C91.2583 153.594 91.225 153.178 91.0703 152.801C90.9156 152.424 90.6473 152.106 90.3033 151.89L75.3041 142.521C73.4318 141.35 71.2311 140.825 69.0358 141.027C66.8406 141.228 64.7706 142.145 63.1397 143.638L50.0605 155.597C49.7575 155.873 49.5489 156.238 49.4646 156.64C49.3802 157.043 49.4245 157.461 49.5909 157.837C49.7574 158.212 50.0375 158.525 50.3913 158.73C50.7451 158.935 51.1543 159.023 51.5604 158.98L70.4968 157.228Z" fill="#FFBE66"/>
<path d="M108.226 20.4159L8.76246 29.5816C6.18454 29.8191 4.28602 32.1156 4.52199 34.7108L5.12494 41.3422C5.36091 43.9375 7.64202 45.8488 10.2199 45.6112L109.684 36.4456C112.262 36.208 114.16 33.9116 113.924 31.3163L113.321 24.6849C113.085 22.0897 110.804 20.1784 108.226 20.4159Z" fill="#F58888"/>
<path d="M120.447 154.779L20.9832 163.945C18.4052 164.182 16.5067 166.479 16.7427 169.074L17.3456 175.706C17.5816 178.301 19.8627 180.212 22.4406 179.974L121.904 170.809C124.482 170.571 126.381 168.275 126.145 165.68L125.542 159.048C125.306 156.453 123.025 154.542 120.447 154.779Z" fill="#F58888"/>
<path d="M66.7092 117.742C67.9725 117.742 68.9966 116.711 68.9966 115.439C68.9966 114.168 67.9725 113.137 66.7092 113.137C65.446 113.137 64.4219 114.168 64.4219 115.439C64.4219 116.711 65.446 117.742 66.7092 117.742Z" fill="#FFBE66"/>
<path d="M67.5423 126.908C68.8055 126.908 69.8296 125.877 69.8296 124.605C69.8296 123.334 68.8055 122.303 67.5423 122.303C66.279 122.303 65.2549 123.334 65.2549 124.605C65.2549 125.877 66.279 126.908 67.5423 126.908Z" fill="#FFBE66"/>
<path d="M68.3743 136.073C69.6376 136.073 70.6617 135.042 70.6617 133.771C70.6617 132.499 69.6376 131.468 68.3743 131.468C67.111 131.468 66.0869 132.499 66.0869 133.771C66.0869 135.042 67.111 136.073 68.3743 136.073Z" fill="#FFBE66"/>
<path d="M225.941 110.804L231.641 112.163C234.281 112.797 236.043 114.911 235.578 116.889L228.618 146.334C228.146 148.305 225.618 149.392 222.986 148.758L217.294 147.399L225.941 110.804Z" fill="#735B4A"/>
<path d="M223.022 81.4579L114.403 55.4275C109.016 54.1364 103.609 57.4864 102.326 62.9098L84.8444 136.842C83.5619 142.266 86.8895 147.709 92.2767 149L200.896 175.03C206.283 176.322 211.69 172.972 212.972 167.548L230.454 93.6156C231.736 88.1921 228.409 82.749 223.022 81.4579Z" fill="#735B4A"/>
<path d="M223.886 77.2288L115.495 51.2567C112.873 50.6307 110.112 51.0783 107.818 52.5012C105.524 53.9241 103.886 56.2057 103.263 58.8445L85.8637 132.495C85.2403 135.131 85.6795 137.908 87.085 140.218C88.4905 142.529 90.7479 144.185 93.3633 144.824L201.74 170.804C203.038 171.115 204.384 171.165 205.702 170.952C207.019 170.739 208.282 170.267 209.418 169.562C210.554 168.857 211.541 167.934 212.322 166.845C213.104 165.756 213.664 164.523 213.972 163.216L231.393 89.5504C232.016 86.9146 231.576 84.1376 230.169 81.828C228.762 79.5184 226.502 77.8645 223.886 77.2288ZM206.69 157.833C206.362 159.218 205.502 160.415 204.299 161.162C203.095 161.91 201.646 162.146 200.27 161.819L98.748 137.485C97.3708 137.156 96.1801 136.289 95.4376 135.076C94.6951 133.862 94.4615 132.402 94.7882 131.015L110.605 64.1295C110.931 62.7719 111.777 61.5993 112.959 60.8679C114.14 60.1365 115.562 59.9058 116.912 60.2261L218.637 84.6052C219.982 84.9348 221.144 85.7862 221.868 86.9741C222.593 88.1619 222.823 89.5899 222.506 90.9472L206.69 157.833Z" fill="#A67F64"/>
<path d="M210.941 139.833L206.689 157.832C206.361 159.217 205.502 160.414 204.298 161.162C203.095 161.909 201.646 162.145 200.269 161.819L162.584 152.759L210.941 139.833Z" fill="#A67F64"/>
<path d="M222.498 90.9695L210.942 139.856L162.584 152.804L98.7401 137.508C98.0535 137.344 97.406 137.045 96.8351 136.627C96.2642 136.21 95.7813 135.682 95.4144 135.076C95.0474 134.469 94.8038 133.795 94.6975 133.093C94.5913 132.39 94.6245 131.674 94.7954 130.985L110.604 64.0914C110.93 62.7355 111.775 61.5642 112.955 60.833C114.136 60.1018 115.555 59.87 116.904 60.1881L218.636 84.5973C219.987 84.9282 221.152 85.785 221.876 86.9795C222.6 88.1741 222.824 89.609 222.498 90.9695Z" fill="#FFFBF2"/>
<path d="M226.789 107.225L232.488 108.591C235.128 109.225 236.891 111.339 236.426 113.31L229.458 142.755C228.994 144.726 226.459 145.775 223.834 145.179L218.142 143.82L226.789 107.225Z" fill="#A67F64"/>
<path d="M168.952 115.493C168.757 115.173 168.628 114.818 168.57 114.448C168.513 114.078 168.528 113.7 168.616 113.336C168.704 112.972 168.862 112.629 169.082 112.326C169.301 112.024 169.578 111.768 169.896 111.574L182.893 103.586C183.634 103.204 184.289 102.672 184.816 102.024C185.343 101.375 185.732 100.624 185.957 99.8174C186.183 99.0107 186.24 98.1657 186.126 97.3356C186.012 96.5054 185.729 95.7079 185.295 94.9931C184.86 94.2782 184.283 93.6615 183.601 93.1814C182.919 92.7013 182.145 92.3684 181.329 92.2033C180.513 92.0383 179.672 92.0447 178.858 92.2223C178.044 92.3998 177.276 92.7446 176.601 93.2351L163.597 101.215C163.28 101.411 162.928 101.542 162.56 101.601C162.193 101.659 161.818 101.644 161.456 101.557C161.095 101.469 160.754 101.31 160.453 101.09C160.153 100.869 159.898 100.591 159.705 100.272L151.77 87.1423C151.366 86.4413 150.827 85.8286 150.185 85.3401C149.543 84.8517 148.81 84.4973 148.03 84.2977C147.25 84.0982 146.438 84.0575 145.642 84.1781C144.846 84.2987 144.082 84.5781 143.394 85C142.707 85.4219 142.111 85.9777 141.64 86.6348C141.169 87.292 140.833 88.0372 140.652 88.8268C140.47 89.6163 140.448 90.4344 140.585 91.2329C140.722 92.0314 141.016 92.7942 141.45 93.4767L149.378 106.568C149.572 106.889 149.702 107.244 149.759 107.615C149.817 107.986 149.802 108.364 149.714 108.729C149.626 109.093 149.468 109.437 149.248 109.74C149.028 110.043 148.751 110.299 148.433 110.494L135.436 118.475C134.066 119.317 133.085 120.672 132.708 122.242C132.522 123.02 132.489 123.827 132.612 124.617C132.735 125.407 133.012 126.165 133.426 126.848C133.84 127.53 134.384 128.124 135.026 128.595C135.668 129.067 136.396 129.406 137.168 129.594C138.728 129.973 140.374 129.713 141.743 128.871L154.747 120.883C155.065 120.688 155.417 120.557 155.785 120.499C156.153 120.441 156.528 120.457 156.89 120.545C157.251 120.634 157.592 120.793 157.892 121.014C158.193 121.236 158.446 121.514 158.64 121.835L166.574 134.926C166.988 135.608 167.531 136.202 168.172 136.673C168.814 137.144 169.541 137.483 170.313 137.671C171.084 137.858 171.885 137.892 172.669 137.768C173.454 137.644 174.206 137.366 174.884 136.95C175.561 136.533 176.151 135.987 176.618 135.341C177.086 134.695 177.423 133.963 177.61 133.186C177.796 132.409 177.829 131.603 177.706 130.814C177.583 130.024 177.307 129.266 176.894 128.584L168.952 115.493Z" fill="#CCBFAD"/>
<path d="M210.941 139.834L162.584 152.782L166.289 137.871C166.815 135.738 168.154 133.899 170.016 132.751C171.879 131.604 174.115 131.241 176.241 131.74L210.941 139.834Z" fill="#F2EEE6"/>
</g>
<defs>
<clipPath id="clip0_3618_49960">
<rect width="232" height="160" fill="white" transform="translate(4.5 20)"/>
</clipPath>
</defs>
</svg>
