<svg width="32" height="32" viewBox="0 0 32 32" fill="none" xmlns="http://www.w3.org/2000/svg">
<g clip-path="url(#clip0_4726_75003)">
<path d="M30.0005 7.49619L29.3005 14.0722L28.9005 8.57619C28.8189 7.49059 28.3308 6.4757 27.5337 5.7342C26.7366 4.99271 25.6891 4.57918 24.6005 4.57619C24.5005 4.57619 24.4045 4.57619 24.3045 4.57619L5.50445 5.86419C5.18538 5.88642 4.86995 5.94548 4.56445 6.04019L4.68445 4.88019C4.72743 4.45888 4.853 4.05016 5.05399 3.67738C5.25497 3.30461 5.52743 2.97508 5.8558 2.70763C6.18416 2.44018 6.56201 2.24005 6.96774 2.11866C7.37348 1.99728 7.79916 1.95702 8.22045 2.00019L27.1205 3.97219C27.5419 4.01215 27.9511 4.13532 28.3246 4.33456C28.6981 4.5338 29.0283 4.80516 29.2962 5.13292C29.564 5.46068 29.7642 5.83833 29.8851 6.24399C30.006 6.64965 30.0452 7.07527 30.0005 7.49619Z" fill="#CEE6F2"/>
<path d="M25.1356 28.564L6.18761 30C5.7665 30.0339 5.34285 29.984 4.94112 29.8532C4.53939 29.7225 4.16752 29.5135 3.84697 29.2383C3.52641 28.9631 3.26352 28.6272 3.07346 28.2499C2.8834 27.8726 2.76994 27.4614 2.73961 27.04L2.59961 25.144C2.96273 25.8473 3.51226 26.4373 4.18811 26.8493C4.86396 27.2613 5.64008 27.4795 6.43161 27.48C6.53161 27.48 6.62761 27.48 6.72761 27.48L25.5276 26.192C26.4731 26.1335 27.371 25.7572 28.0756 25.124C28.1419 25.9701 27.8693 26.8077 27.318 27.4529C26.7666 28.098 25.9816 28.4977 25.1356 28.564Z" fill="#AECCD9"/>
<path d="M27.8 8.65648L28.696 21.6685C28.7429 22.5223 28.4492 23.3598 27.8792 23.9973C27.3093 24.6347 26.5097 25.02 25.656 25.0685L6.39998 26.4005C5.54653 26.468 4.70104 26.195 4.04823 25.6411C3.39542 25.0873 2.98836 24.2975 2.91598 23.4445L1.99998 10.4245C1.95304 9.56962 2.24721 8.73106 2.81791 8.09287C3.38861 7.45467 4.18921 7.06899 5.04398 7.02048L24.316 5.70048C24.7389 5.66543 25.1646 5.71413 25.5687 5.84377C25.9728 5.97342 26.3473 6.18147 26.6709 6.45603C26.9945 6.73059 27.2608 7.06626 27.4546 7.44384C27.6483 7.82142 27.7657 8.23349 27.8 8.65648Z" fill="#66CCFF"/>
<path d="M6.4441 13.4046C7.68122 13.4046 8.6841 12.4035 8.6841 11.1686C8.6841 9.93371 7.68122 8.93262 6.4441 8.93262C5.20698 8.93262 4.2041 9.93371 4.2041 11.1686C4.2041 12.4035 5.20698 13.4046 6.4441 13.4046Z" fill="#FFD966"/>
<path d="M18.3718 23.9527L18.4838 25.5527L6.39982 26.4007C5.54637 26.4682 4.70088 26.1952 4.04806 25.6413C3.39525 25.0874 2.98819 24.2977 2.91582 23.4447L2.71582 20.5207L3.95982 19.1327L5.91982 16.9367C6.40623 16.3998 7.0818 16.0723 7.80459 16.0231C8.52737 15.9738 9.2411 16.2067 9.79582 16.6727L12.0438 18.5767L18.3718 23.9527Z" fill="#6DD96D"/>
<path d="M28.3598 16.8005L28.6958 21.6885C28.7427 22.5423 28.4489 23.3799 27.879 24.0173C27.309 24.6548 26.5095 25.04 25.6558 25.0885L7.34375 26.3245L12.4878 20.4285L16.8878 15.3845L19.5118 12.4005C19.9463 11.9016 20.5612 11.5957 21.2212 11.5499C21.8813 11.5042 22.5325 11.7224 23.0318 12.1565L26.0318 14.7725L28.3598 16.8005Z" fill="#82ED82"/>
<path d="M26.0316 14.7605L16.8916 15.3845L19.5116 12.4005C19.9462 11.9016 20.5611 11.5957 21.2211 11.5499C21.8811 11.5042 22.5324 11.7224 23.0316 12.1565L26.0316 14.7605Z" fill="#F2FBFF"/>
<path d="M12.0322 18.5679L3.94824 19.1239L5.90824 16.9279C6.39465 16.391 7.07022 16.0635 7.79301 16.0143C8.51579 15.9651 9.22953 16.1979 9.78424 16.6639L12.0322 18.5679Z" fill="#F2FBFF"/>
</g>
<defs>
<clipPath id="clip0_4726_75003">
<rect width="28" height="28" fill="white" transform="translate(2 2)"/>
</clipPath>
</defs>
</svg>
