<svg width="224" height="147" viewBox="0 0 224 147" fill="none" xmlns="http://www.w3.org/2000/svg">
<path d="M57.6853 122.019L61.4893 128.999C61.5846 129.174 61.6322 129.262 61.6964 129.319C61.8004 129.412 61.9386 129.458 62.0776 129.444C62.1633 129.436 62.2536 129.394 62.434 129.31L69.638 125.949C71.6649 125.004 72.6401 122.672 71.8896 120.565L71.7485 120.168C70.8507 117.648 67.6124 116.956 65.7634 118.89C65.5022 119.164 65.041 119.012 64.9929 118.637C64.6523 115.983 61.6355 114.618 59.4172 116.114L59.0685 116.349C57.2141 117.6 56.615 120.055 57.6853 122.019Z" fill="#E96363" stroke="#E96363" stroke-width="2" stroke-linejoin="round"/>
<path d="M99.647 132.114L104.906 140.073C105.087 140.347 105.178 140.484 105.309 140.543C105.368 140.57 105.431 140.585 105.496 140.588C105.64 140.593 105.782 140.512 106.067 140.348L114.339 135.596C116.666 134.259 117.594 131.372 116.483 128.929L116.274 128.47C114.944 125.547 111.001 125.05 108.987 127.551C108.703 127.904 108.136 127.769 108.04 127.326C107.363 124.188 103.617 122.862 101.117 124.877L100.724 125.193C98.6338 126.877 98.1674 129.875 99.647 132.114Z" fill="#E96363" stroke="#E96363" stroke-width="2" stroke-linejoin="round"/>
<path d="M129.398 112.059L136.864 114.788C137.051 114.856 137.145 114.89 137.231 114.891C137.37 114.892 137.504 114.835 137.6 114.733C137.659 114.671 137.699 114.579 137.779 114.397L140.968 107.116C141.866 105.067 141.058 102.672 139.103 101.586L138.735 101.381C136.396 100.082 133.508 101.701 133.397 104.374C133.381 104.752 132.935 104.943 132.651 104.693C130.643 102.925 127.476 103.893 126.798 106.481L126.692 106.888C126.125 109.052 127.297 111.291 129.398 112.059Z" fill="#E96363" stroke="#E96363" stroke-width="2" stroke-linejoin="round"/>
<path d="M167.837 114.155L169.279 118.702C169.348 118.921 169.576 119.049 169.799 118.993L174.427 117.839C175.729 117.514 176.571 116.252 176.37 114.925L176.332 114.676C176.092 113.088 174.264 112.31 172.954 113.237C172.768 113.368 172.514 113.226 172.529 113C172.632 111.398 171.012 110.249 169.534 110.876L169.301 110.974C168.066 111.498 167.432 112.876 167.837 114.155Z" fill="#E96363" stroke="#E96363" stroke-width="2" stroke-linejoin="round"/>
<path d="M194.091 88.5592L199.35 96.5179C199.531 96.7921 199.622 96.9291 199.753 96.9887C199.812 97.0155 199.875 97.0305 199.94 97.0331C200.084 97.0387 200.226 96.9568 200.511 96.7932L208.783 92.0416C211.11 90.7047 212.039 87.817 210.927 85.3742L210.718 84.9149C209.388 81.9926 205.446 81.4953 203.432 83.9959C203.147 84.3491 202.58 84.2147 202.485 83.7714C201.807 80.6329 198.061 79.3077 195.561 81.3222L195.168 81.6388C193.078 83.3227 192.612 86.3199 194.091 88.5592Z" fill="#E96363" stroke="#E96363" stroke-width="2" stroke-linejoin="round"/>
<path d="M117.029 65.6392L126.403 71.6658C126.778 71.9065 126.965 72.0268 127.16 71.9908C127.355 71.9548 127.486 71.7755 127.75 71.4168L134.35 62.4366C136.205 59.9135 135.836 56.3939 133.498 54.3102L133.059 53.9184C130.263 51.4256 125.821 52.7516 124.849 56.3692C124.712 56.8802 124.043 57.0038 123.732 56.5757C121.531 53.5448 116.909 53.8947 115.189 57.2224L114.918 57.7454C113.481 60.5271 114.395 63.9459 117.029 65.6392Z" fill="#E96363" stroke="#E96363" stroke-width="2" stroke-linejoin="round"/>
<path d="M82.8401 24.2679L91.8391 37.8871C92.0845 38.2585 92.2072 38.4442 92.3999 38.4899C92.5926 38.5356 92.7855 38.4247 93.1715 38.203L107.326 30.0719C111.205 27.8438 112.753 23.031 110.9 18.9596L110.551 18.1941C108.334 13.3235 101.764 12.4948 98.4073 16.6624C97.9332 17.2511 96.9883 17.0271 96.8288 16.2882C95.6999 11.0574 89.4566 8.84885 85.2896 12.2062L84.6346 12.7339C81.1513 15.5404 80.3741 20.5358 82.8401 24.2679Z" fill="#E96363" stroke="#E96363" stroke-width="2" stroke-linejoin="round"/>
<path d="M205.337 53.0065L212.821 55.6868C213.009 55.754 213.102 55.7875 213.188 55.7878C213.328 55.7881 213.461 55.7301 213.556 55.6277C213.615 55.5646 213.654 55.4731 213.733 55.2902L216.875 47.9883C217.76 45.9339 216.936 43.544 214.974 42.4704L214.605 42.2685C212.258 40.9841 209.38 42.6222 209.287 45.2962C209.273 45.6739 208.828 45.8675 208.543 45.6197C206.523 43.865 203.362 44.8529 202.701 47.4456L202.598 47.8531C202.045 50.0204 203.232 52.2524 205.337 53.0065Z" fill="#E96363" stroke="#E96363" stroke-width="2" stroke-linejoin="round"/>
<g opacity="0.5">
<path d="M53.0189 88.3667L58.5122 91.5708C58.5737 91.6067 58.6044 91.6246 58.6325 91.6367C58.8327 91.7227 59.0656 91.6691 59.2082 91.5042C59.2282 91.4811 59.248 91.4515 59.2876 91.3925L62.8284 86.1099C63.8247 84.6237 63.527 82.6235 62.1412 81.4917L61.8806 81.2789C60.2227 79.925 57.7196 80.7919 57.2542 82.8811C57.1884 83.1763 56.8099 83.2634 56.6218 83.0266C55.2902 81.3508 52.6599 81.6649 51.7603 83.6072L51.619 83.9124C50.867 85.5361 51.4733 87.4652 53.0189 88.3667Z" fill="#E96363" stroke="#E96363" stroke-width="2" stroke-linejoin="round"/>
</g>
<g opacity="0.5">
<path d="M13.0166 88.034L18.3228 93.9531C18.4557 94.1014 18.5222 94.1755 18.5979 94.2167C18.7205 94.2835 18.8654 94.2959 18.9976 94.2511C19.0792 94.2234 19.1574 94.1617 19.3137 94.0383L25.5525 89.112C27.3079 87.726 27.721 85.2322 26.5064 83.3541L26.2781 83.001C24.8251 80.7542 21.5146 80.8254 20.1595 83.1325C19.9681 83.4584 19.4843 83.4168 19.3514 83.063C18.41 80.5584 15.1603 79.9231 13.345 81.8888L13.0597 82.1978C11.5423 83.8409 11.5236 86.3686 13.0166 88.034Z" fill="#E96363" stroke="#E96363" stroke-width="2" stroke-linejoin="round"/>
</g>
<g opacity="0.5">
<path d="M10.887 54.627L18.6707 56.2411C18.8657 56.2815 18.9632 56.3017 19.0486 56.29C19.1869 56.2709 19.3109 56.1949 19.3907 56.0804C19.4399 56.0096 19.4662 55.9136 19.5187 55.7215L21.6157 48.0538C22.2057 45.8964 21.058 43.6442 18.9657 42.8537L18.5723 42.705C16.0694 41.7593 13.4474 43.7815 13.7262 46.4426C13.7656 46.8185 13.3516 47.0721 13.0346 46.8663C10.7904 45.4094 7.79795 46.8271 7.5038 49.4865L7.45757 49.9045C7.21169 52.1275 8.69698 54.1729 10.887 54.627Z" fill="#E96363" stroke="#E96363" stroke-width="2" stroke-linejoin="round"/>
</g>
<g opacity="0.4">
<path d="M158.065 83.6733L165.429 86.6665C165.613 86.7415 165.706 86.7789 165.792 86.7828C165.931 86.789 166.067 86.7367 166.166 86.6384C166.227 86.5778 166.27 86.488 166.357 86.3086L169.804 79.1456C170.774 77.1302 170.052 74.7078 168.137 73.5524L167.776 73.3352C165.485 71.953 162.541 73.4685 162.335 76.1362C162.306 76.513 161.853 76.6877 161.578 76.4281C159.634 74.5899 156.435 75.4438 155.665 78.0064L155.544 78.4091C154.901 80.5512 155.993 82.8312 158.065 83.6733Z" fill="#E96363" stroke="#E96363" stroke-width="2" stroke-linejoin="round"/>
</g>
<g opacity="0.4">
<path d="M50.8822 46.277L55.5218 52.7319C55.638 52.8936 55.6961 52.9744 55.7669 53.0235C55.8817 53.1031 56.0244 53.131 56.1607 53.1006C56.2448 53.0819 56.3291 53.0289 56.4978 52.923L63.2298 48.6955C65.1239 47.5061 65.8025 45.0711 64.7967 43.0734L64.6076 42.6978C63.4044 40.308 60.1054 40.0231 58.5103 42.1712C58.285 42.4746 57.8085 42.3813 57.7143 42.0153C57.0475 39.4241 53.8848 38.4434 51.8689 40.2026L51.5521 40.4791C49.8669 41.9498 49.5768 44.4608 50.8822 46.277Z" fill="#E96363" stroke="#E96363" stroke-width="2" stroke-linejoin="round"/>
</g>
<path d="M86.9491 84.1285L91.3612 90.741C91.4717 90.9067 91.527 90.9895 91.596 91.041C91.7079 91.1245 91.8496 91.1575 91.9868 91.1318C92.0715 91.116 92.1577 91.066 92.3299 90.966L99.205 86.9755C101.139 85.8527 101.902 83.4428 100.967 81.4113L100.791 81.0293C99.6715 78.5991 96.3845 78.1995 94.7155 80.2908C94.4798 80.5862 94.0068 80.4764 93.9254 80.1073C93.3492 77.4944 90.2226 76.4042 88.1467 78.0922L87.8204 78.3575C86.0851 79.7686 85.7077 82.268 86.9491 84.1285Z" fill="#E96363" stroke="#E96363" stroke-width="2" stroke-linejoin="round"/>
<g opacity="0.4">
<path d="M160.342 44.679L169.028 48.6226C169.327 48.7584 169.476 48.8264 169.619 48.8071C169.683 48.7984 169.745 48.7774 169.801 48.7451C169.926 48.6734 170.003 48.5283 170.157 48.2382L174.636 39.8155C175.896 37.4457 175.146 34.5064 172.906 33.0288L172.484 32.751C169.804 30.9834 166.201 32.6588 165.825 35.8474C165.772 36.2978 165.22 36.4855 164.904 36.1609C162.661 33.8632 158.784 34.733 157.738 37.7686L157.573 38.2457C156.699 40.7831 157.898 43.5694 160.342 44.679Z" fill="#E96363" stroke="#E96363" stroke-width="2" stroke-linejoin="round"/>
</g>
<g opacity="0.4">
<path d="M141.762 132.28L144.392 136.259C144.519 136.451 144.773 136.511 144.972 136.397L149.108 134.021C150.272 133.352 150.736 131.909 150.18 130.687L150.076 130.457C149.411 128.996 147.44 128.748 146.433 129.998C146.29 130.175 146.007 130.107 145.959 129.886C145.62 128.316 143.747 127.654 142.497 128.661L142.301 128.819C141.256 129.661 141.023 131.16 141.762 132.28Z" fill="#E96363" stroke="#E96363" stroke-width="2" stroke-linejoin="round"/>
</g>
</svg>
