<svg width="20" height="20" viewBox="0 0 20 20" fill="none" xmlns="http://www.w3.org/2000/svg">
<path fill-rule="evenodd" clip-rule="evenodd" d="M12.5781 7.35702C12.4161 7.34526 12.1635 7.22455 11.9317 6.80567C11.7046 6.39523 11.5611 5.78979 11.6101 5.09262C11.6592 4.39545 11.8861 3.81693 12.1683 3.44349C12.4564 3.06237 12.7234 2.97941 12.8853 2.99118C13.0473 3.00294 13.2999 3.12365 13.5317 3.54254C13.7588 3.95298 13.9023 4.55841 13.8532 5.25558C13.8042 5.95275 13.5773 6.53127 13.295 6.90471C13.007 7.28583 12.74 7.36879 12.5781 7.35702ZM9.91461 4.96945C9.84587 5.94615 10.0365 6.88816 10.445 7.62644C10.8488 8.35628 11.533 8.98558 12.4587 9.05283C13.3844 9.12008 14.1498 8.5961 14.6517 7.93205C15.1594 7.26033 15.48 6.35546 15.5488 5.37876C15.6175 4.40205 15.4269 3.46004 15.0184 2.72176C14.6146 1.99192 13.9304 1.36262 13.0047 1.29537C12.079 1.22812 11.3136 1.7521 10.8117 2.41615C10.304 3.08787 9.98335 3.99274 9.91461 4.96945ZM6.28401 3.54318C6.05148 3.95036 5.90001 4.55348 5.94007 5.2508C5.98012 5.94813 6.19961 6.52925 6.47719 6.90619C6.76041 7.29079 7.02675 7.3777 7.18979 7.36803C7.35283 7.35836 7.60742 7.24057 7.84468 6.82511C8.07722 6.41792 8.22868 5.81481 8.18862 5.11748C8.14857 4.42016 7.92908 3.83904 7.6515 3.4621C7.36829 3.0775 7.10194 2.99059 6.9389 3.00025C6.77586 3.00992 6.52127 3.12772 6.28401 3.54318ZM4.80839 2.70194C5.2221 1.97752 5.91491 1.35799 6.84141 1.30305C7.76791 1.24812 8.52695 1.78157 9.02079 2.45218C9.52026 3.13045 9.8295 4.03939 9.88564 5.01686C9.94179 5.99433 9.73873 6.93365 9.3203 7.66634C8.9066 8.39076 8.21379 9.0103 7.28729 9.06523C6.36078 9.12017 5.60174 8.58672 5.10791 7.91611C4.60843 7.23784 4.2992 6.3289 4.24305 5.35142C4.1869 4.37395 4.38997 3.43464 4.80839 2.70194ZM9.98723 10.8036C9.83308 10.8036 9.6796 10.8111 9.52727 10.8259L5.58565 10.826C6.78968 9.71876 8.35826 9.10361 9.98723 9.10361C11.616 9.10361 13.1844 9.71863 14.3884 10.8257L10.4468 10.8258C10.2946 10.8111 10.1413 10.8036 9.98723 10.8036ZM10.447 10.8259L10.4468 10.8258L9.52727 10.8259L9.527 10.8259L5.5856 10.8261C4.85403 11.4988 4.27126 12.3199 3.87458 13.2354C3.47823 14.1501 3.27636 15.1388 3.28172 16.1373C3.28312 17.7712 4.7041 19.1469 6.37683 18.7961L8.77599 18.2931L8.77611 18.2931C9.57787 18.1251 10.4048 18.1251 11.2066 18.2931L13.6009 18.7957L13.602 18.7959C15.276 19.1507 16.6968 17.7721 16.6981 16.1372C16.7029 15.1381 16.5001 14.1488 16.1026 13.2338C15.7049 12.3185 15.1211 11.4977 14.3884 10.8257L10.447 10.8259ZM10.447 10.8259C11.4799 10.926 12.46 11.3618 13.2381 12.0774L13.8135 11.4517L13.239 12.0782C13.7952 12.5883 14.24 13.2128 14.5434 13.9113C14.8469 14.6098 15.002 15.3661 14.9982 16.1306L15.8481 16.1349H14.9981C14.9981 16.8475 14.4233 17.2324 13.9541 17.1328L13.9521 17.1324L11.5555 16.6293L11.5552 16.6292C10.5235 16.4131 9.45908 16.4131 8.42737 16.6292L8.42725 16.6293L6.02797 17.1323C5.55522 17.2315 4.98172 16.8434 4.98173 16.1349L4.98171 16.13C4.97735 15.3659 5.13176 14.6098 5.43444 13.9113C5.73711 13.2128 6.18099 12.588 6.73631 12.0774L6.16098 11.4517L6.73636 12.0774C7.51434 11.3619 8.49427 10.9261 9.527 10.8259L10.447 10.8259ZM2.45717 9.32945C2.32331 8.90937 2.33165 8.5256 2.41163 8.259C2.4929 7.9881 2.61306 7.92032 2.65764 7.90566C2.70221 7.891 2.83867 7.87437 3.06079 8.04547C3.2794 8.21385 3.50754 8.51983 3.6414 8.93991C3.77527 9.35999 3.76693 9.74376 3.68695 10.0104C3.60567 10.2813 3.48552 10.349 3.44094 10.3637C3.39637 10.3784 3.25991 10.395 3.03779 10.2239C2.81918 10.0555 2.59104 9.74953 2.45717 9.32945ZM2.14147 6.28591C1.41309 6.5255 0.97892 7.14433 0.788812 7.77798C0.597417 8.41593 0.617322 9.15467 0.842294 9.86064C1.06727 10.5666 1.47729 11.177 2.00039 11.58C2.51996 11.9802 3.22873 12.223 3.95711 11.9834C4.68548 11.7439 5.11966 11.125 5.30977 10.4914C5.50116 9.85343 5.48126 9.11469 5.25628 8.40872C5.03131 7.70275 4.62128 7.09234 4.09819 6.68941C3.57862 6.28919 2.86985 6.04633 2.14147 6.28591ZM16.3099 10.045C16.3905 10.3158 16.5103 10.3836 16.5546 10.3983C16.5989 10.413 16.735 10.43 16.9573 10.2596C17.176 10.092 17.4046 9.78684 17.5393 9.36748C17.674 8.94812 17.6665 8.56474 17.5872 8.29827C17.5066 8.02751 17.3868 7.95967 17.3425 7.94498C17.2983 7.9303 17.1621 7.91328 16.9399 8.08366C16.7211 8.25133 16.4925 8.55644 16.3579 8.9758C16.2232 9.39516 16.2306 9.77855 16.3099 10.045ZM14.686 10.5223C14.4962 9.8842 14.5178 9.14589 14.7442 8.44084C14.9707 7.73578 15.3819 7.12664 15.9056 6.72514C16.4258 6.32633 17.1349 6.08522 17.8624 6.32642C18.5899 6.56762 19.0225 7.18721 19.2111 7.821C19.4009 8.45908 19.3794 9.19739 19.1529 9.90245C18.9265 10.6075 18.5153 11.2166 17.9915 11.6181C17.4713 12.0169 16.7623 12.2581 16.0347 12.0169C15.3072 11.7757 14.8746 11.1561 14.686 10.5223Z" fill="#B9BBC6"/>
</svg>
