<svg width="32" height="32" viewBox="0 0 32 32" fill="none" xmlns="http://www.w3.org/2000/svg">
<g clip-path="url(#clip0_4726_74987)">
<path d="M30 12.2367V24.9304C29.9984 25.3351 29.9169 25.7356 29.76 26.1089C29.6032 26.4821 29.3741 26.821 29.0859 27.1061C28.7977 27.3911 28.4559 27.6168 28.0802 27.7702C27.7044 27.9236 27.302 28.0018 26.896 28.0002H5.104C4.69795 28.0018 4.29557 27.9236 3.91983 27.7702C3.54408 27.6168 3.20234 27.3911 2.9141 27.1061C2.62587 26.821 2.39679 26.4821 2.23995 26.1089C2.08311 25.7356 2.00157 25.3351 2 24.9304V12.2367C2.00739 11.4222 2.33807 10.6437 2.91972 10.0714C3.50138 9.49918 4.2867 9.17973 5.104 9.18293H13.504V5.89389C13.505 5.64247 13.5561 5.39374 13.6542 5.16211C13.7523 4.93048 13.8955 4.72053 14.0755 4.54442C14.2556 4.36832 14.4689 4.22954 14.7031 4.13613C14.9373 4.04271 15.1878 3.99651 15.44 4.00021H23.464C23.7146 3.99916 23.9629 4.04731 24.1948 4.1419C24.4267 4.2365 24.6376 4.3757 24.8155 4.55155C24.9934 4.72739 25.1348 4.93644 25.2317 5.16676C25.3286 5.39708 25.379 5.64416 25.38 5.89389V9.18293H26.896C27.7133 9.17973 28.4986 9.49918 29.0803 10.0714C29.6619 10.6437 29.9926 11.4222 30 12.2367Z" fill="#CEE6F2"/>
<path d="M25.3804 5.8937V9.18274H13.5244V5.8937C13.5255 5.64397 13.5759 5.3969 13.6727 5.16657C13.7696 4.93625 13.911 4.7272 14.0889 4.55136C14.2668 4.37551 14.4778 4.23632 14.7096 4.14172C14.9415 4.04712 15.1899 3.99897 15.4404 4.00002H23.4644C23.715 3.99897 23.9633 4.04712 24.1952 4.14172C24.4271 4.23632 24.638 4.37551 24.8159 4.55136C24.9938 4.7272 25.1353 4.93625 25.2321 5.16657C25.329 5.3969 25.3794 5.64397 25.3804 5.8937Z" fill="#737C80"/>
<path d="M9.73977 6.8584H6.13977C5.82857 6.85945 5.53048 6.98341 5.3108 7.2031C5.09112 7.4228 4.96777 7.72032 4.96777 8.03049V9.18265H10.9118V8.03049C10.9118 7.72032 10.7884 7.4228 10.5687 7.2031C10.3491 6.98341 10.051 6.85945 9.73977 6.8584Z" fill="#737C80"/>
<path d="M30 13.1143H2V24.1455H30V13.1143Z" fill="#899499"/>
<path d="M16 26.2937C20.2791 26.2937 23.748 22.8631 23.748 18.6312C23.748 14.3993 20.2791 10.9688 16 10.9688C11.7209 10.9688 8.25195 14.3993 8.25195 18.6312C8.25195 22.8631 11.7209 26.2937 16 26.2937Z" fill="#737C80"/>
<path d="M22.3598 18.6279C22.3478 20.2446 21.7169 21.7958 20.5959 22.9644C19.4749 24.133 17.9485 24.8309 16.3285 24.9154C14.7086 24.9999 13.1174 24.4646 11.8802 23.419C10.6429 22.3734 9.85297 20.8964 9.67177 19.2897C9.64904 19.0698 9.63836 18.8489 9.63977 18.6279C9.64718 16.9538 10.3213 15.3511 11.5139 14.1721C12.7065 12.9932 14.32 12.3345 15.9998 12.3409C16.4474 12.3424 16.8936 12.3892 17.3318 12.4804C18.5003 12.7254 19.5757 13.2943 20.434 14.1216C21.2924 14.9489 21.899 16.001 22.1838 17.1568C22.3018 17.6383 22.3609 18.1323 22.3598 18.6279Z" fill="#E6FBFF"/>
<path d="M22.46 5.56738H16.62C16.2091 5.56738 15.876 5.89938 15.876 6.30891V7.27369C15.876 7.68323 16.2091 8.01522 16.62 8.01522H22.46C22.8709 8.01522 23.204 7.68323 23.204 7.27369V6.30891C23.204 5.89938 22.8709 5.56738 22.46 5.56738Z" fill="#E6FBFF"/>
</g>
<defs>
<clipPath id="clip0_4726_74987">
<rect width="28" height="24" fill="white" transform="translate(2 4)"/>
</clipPath>
</defs>
</svg>
