<svg width="241" height="200" viewBox="0 0 241 200" fill="none" xmlns="http://www.w3.org/2000/svg">
<g clip-path="url(#clip0_3511_48013)">
<path d="M124.722 74.5637H79.4072C75.1112 74.5637 72.4692 68.7786 74.7532 64.353L100.579 13.9865C102.813 9.6477 100.242 4 96.0253 4H50.2019C47.8678 4 45.8201 5.81507 45.0969 8.49068L44.9322 9.06196H43.8797C41.5599 9.06196 39.505 10.8698 38.7819 13.5526L13.7222 101.052C12.5838 105.275 15.4406 113.837 19.0921 113.837H55.8296C59.9465 113.837 62.5957 119.138 60.7055 123.585L66.7127 119.131L30.6411 192.341C30.011 193.823 31.5504 195.233 32.5527 194.113L128.367 85.8952C131.947 81.8601 129.605 74.5637 124.722 74.5637Z" fill="#E67716"/>
<path d="M38.7823 8.49068L14.0234 100.228C12.8849 104.451 15.4553 108.797 19.1212 108.797H55.83C59.947 108.797 62.5962 114.098 60.7059 118.538L29.3742 192.341C28.7513 193.823 30.2835 195.233 31.2859 194.113L122.052 85.8952C125.632 81.8601 123.291 74.5637 118.408 74.5637H73.0926C68.7966 74.5637 66.1546 68.7786 68.4386 64.353L94.2644 13.9865C96.4983 9.6477 93.9279 4 89.7107 4H43.8873C41.5604 4 39.5055 5.81507 38.7823 8.49068Z" fill="#FFCF40"/>
<path d="M34.5937 43.2369L43.7727 16.3579C45.2046 12.0697 48.7416 9.35075 52.5507 9.54599L62.6462 10.0739C64.4505 10.1679 64.8514 13.1978 63.1617 13.9788L59.1879 15.8084C53.9039 18.3465 49.4711 22.3912 46.4361 27.4436L36.0113 44.2204C35.4314 45.1605 34.2643 44.3216 34.5937 43.2369Z" fill="white"/>
<path d="M151.45 61.1925C166.192 61.1925 178.142 49.1227 178.142 34.2339C178.142 19.3451 166.192 7.27539 151.45 7.27539C136.708 7.27539 124.758 19.3451 124.758 34.2339C124.758 49.1227 136.708 61.1925 151.45 61.1925Z" fill="#B3671B"/>
<path d="M178.178 31.3421C178.176 38.4926 175.363 45.3496 170.356 50.405C165.349 55.4605 158.559 58.3006 151.479 58.3006H150.477C147.711 58.1907 144.979 57.6467 142.379 56.688C140.756 56.0946 139.195 55.3413 137.718 54.439C134.593 52.5366 131.887 50.0084 129.767 47.0099C127.647 44.0115 126.156 40.6063 125.388 37.0042C124.99 35.1438 124.79 33.2455 124.794 31.3421C124.794 26.2645 126.213 21.2901 128.889 16.9915C131.565 12.693 135.388 9.24502 139.919 7.04466C144.45 4.84431 149.504 3.981 154.499 4.55415C159.494 5.12729 164.228 7.11357 168.154 10.2843C169.503 11.3642 170.742 12.5752 171.856 13.9C175.951 18.7692 178.192 24.9535 178.178 31.3421Z" fill="#FFCF40"/>
<path d="M168.154 10.2843L137.682 54.439C134.557 52.5366 131.852 50.0084 129.731 47.0099C127.611 44.0115 126.121 40.6063 125.353 37.0042L147.656 4.65831C151.272 4.12821 154.957 4.35405 158.483 5.32183C162.01 6.2896 165.301 7.97867 168.154 10.2843Z" fill="#FFEC73"/>
<path d="M176.124 21.0303L150.448 58.2863C147.693 58.1781 144.971 57.639 142.379 56.6882L171.856 13.9219C173.636 16.0532 175.075 18.4514 176.124 21.0303Z" fill="#FFEC73"/>
<path d="M169.35 107.748C184.092 107.748 196.042 95.6784 196.042 80.7896C196.042 65.9008 184.092 53.8311 169.35 53.8311C154.609 53.8311 142.658 65.9008 142.658 80.7896C142.658 95.6784 154.609 107.748 169.35 107.748Z" fill="#6C7580"/>
<path d="M196.078 77.8897C196.078 85.0415 193.265 91.9003 188.258 96.9574C183.251 102.014 176.46 104.855 169.379 104.855H168.377C162.438 104.634 156.742 102.418 152.191 98.5575C147.64 94.6974 144.495 89.4142 143.253 83.5446C142.854 81.6817 142.655 79.781 142.658 77.8752C142.659 71.3882 144.977 65.1192 149.185 60.219C153.394 55.3187 159.212 52.116 165.57 51.1987C166.826 51.0124 168.095 50.9206 169.365 50.9239C175.434 50.9122 181.324 52.9997 186.054 56.8392C187.403 57.9191 188.642 59.1301 189.756 60.4549C193.853 65.3203 196.095 71.503 196.078 77.8897Z" fill="#DBE3E6"/>
<path d="M186.054 56.8392L155.617 100.994C152.484 99.0946 149.769 96.566 147.643 93.5646C145.516 90.5632 144.021 87.1528 143.252 83.5446L165.555 51.1987C166.811 51.0124 168.08 50.9206 169.35 50.9239C175.424 50.9089 181.319 52.9966 186.054 56.8392Z" fill="#F5F9FA"/>
<path d="M194.023 67.5778L168.348 104.841C165.578 104.736 162.841 104.197 160.235 103.243L189.72 60.4766C191.512 62.6028 192.964 64.9987 194.023 67.5778Z" fill="#F5F9FA"/>
<path d="M224.259 126.449L226.464 146.371C226.603 147.623 226.245 148.879 225.467 149.863C224.69 150.847 223.558 151.48 222.319 151.621L183.791 155.96C179.85 156.407 175.887 155.336 172.694 152.96C169.5 150.585 167.312 147.08 166.565 143.146C166.43 139.141 167.797 135.233 170.392 132.202C172.987 129.171 176.619 127.24 180.562 126.796L219.276 122.414C220.466 122.282 221.66 122.633 222.595 123.39C223.529 124.146 224.128 125.247 224.259 126.449Z" fill="#997055"/>
<path d="M207.612 183.895H207.484L154.443 189.89L113.517 194.518L102.061 195.812L101.345 195.892H101.216C97.9684 196.26 94.7079 195.317 92.146 193.268C89.5841 191.218 87.9287 188.228 87.5408 184.951C87.5408 184.914 87.5408 184.885 87.5408 184.857L87.4263 183.83L86.8964 179.006L85.3642 165.166L84.6482 158.462L84.3833 155.859L82.3785 137.925L81.7771 132.545L81.412 129.218L80.2664 118.979C80.2695 118.923 80.2695 118.868 80.2664 118.813C79.9559 115.647 80.8517 112.481 82.7712 109.96C84.6906 107.438 87.4896 105.75 90.5981 105.239C90.8058 105.196 91.0062 105.174 91.2067 105.152L144.369 99.1287L179.453 95.1659L197.51 93.0833C197.71 93.0833 197.918 93.0399 198.118 93.0327C201.289 92.8305 204.415 93.867 206.85 95.9277C209.285 97.9885 210.842 100.916 211.2 104.104L212.725 117.844L213.011 120.389L213.312 123.065L215.961 147L216.262 149.676L216.541 152.214L217.865 164.139V164.197L218.51 169.982C218.703 171.619 218.575 173.278 218.131 174.865C217.687 176.451 216.938 177.933 215.925 179.226C214.912 180.519 213.657 181.597 212.23 182.399C210.804 183.2 209.234 183.708 207.612 183.895Z" fill="#997055"/>
<path d="M206.96 178.023L112.049 188.762L107.337 189.297L101.051 190.02L100.622 190.071C99.63 190.194 98.6273 190.194 97.6358 190.071C95.9929 189.852 94.4101 189.303 92.981 188.456C91.5519 187.609 90.3057 186.481 89.316 185.139C89.137 184.9 88.9652 184.647 88.8005 184.416C87.7859 182.814 87.1513 180.998 86.9461 179.108L84.6692 158.563L84.3828 155.859L82.3781 137.925L81.7766 132.545L81.4115 129.219L80.2516 118.798L79.6215 113.122C79.2662 109.93 80.1402 106.724 82.0624 104.166C83.9845 101.608 86.8075 99.8949 89.9461 99.382C90.1466 99.3434 90.347 99.3145 90.5475 99.2952L196.879 87.2622L197.509 87.161C200.684 86.9611 203.813 88.0022 206.248 90.0687C208.683 92.1351 210.238 95.0685 210.59 98.2611L211.242 104.104L212.767 117.844L213.053 120.389L213.354 123.065L216.003 147.001L216.304 149.676L216.583 152.214L217.908 164.139V164.197C218.089 165.831 217.949 167.485 217.497 169.064C217.045 170.644 216.289 172.118 215.272 173.402C214.255 174.686 212.998 175.755 211.572 176.548C210.145 177.341 208.579 177.842 206.96 178.023Z" fill="#E6A97F"/>
<path d="M197.509 87.1611L179.445 95.1156L150.805 107.756L89.7528 134.671L88.7575 135.112L82.3781 137.925L81.7766 132.545L81.4115 129.219L80.2516 118.798L79.6215 113.122C79.2662 109.931 80.1402 106.724 82.0624 104.166C83.9845 101.608 86.8074 99.8951 89.9461 99.3821C90.1466 99.3436 90.347 99.3146 90.5475 99.2954L196.879 87.2624L197.509 87.1611Z" fill="#FFD2B3"/>
<path d="M215.624 122.848L218.574 149.459L184.206 153.35C180.729 153.786 177.204 153.091 174.144 151.365C171.085 149.64 168.65 146.973 167.194 143.754C166.671 142.541 166.522 141.198 166.765 139.899C167.264 137.234 168.435 134.743 170.166 132.668C172.968 129.319 176.94 127.19 181.256 126.724L215.624 122.848Z" fill="#997055"/>
<path d="M223.679 121.22L226.414 145.865L183.19 150.753C179.466 151.174 175.716 150.24 172.612 148.119C169.509 145.999 167.256 142.83 166.257 139.183C166.032 138.359 165.938 137.505 165.978 136.652C166.152 132.869 167.657 129.274 170.222 126.511C172.786 123.749 176.242 122.001 179.968 121.582L218.675 117.2C219.265 117.13 219.863 117.179 220.434 117.344C221.006 117.509 221.539 117.786 222.004 118.159C222.469 118.533 222.857 118.996 223.144 119.521C223.432 120.046 223.614 120.624 223.679 121.22Z" fill="#FFD2B3"/>
<path d="M223.958 123.773L226.414 145.865L183.19 150.753C181.095 150.992 178.973 150.803 176.952 150.197C174.931 149.59 173.052 148.58 171.426 147.224C168.98 145.167 167.424 142.228 167.087 139.032C166.751 135.835 167.659 132.631 169.622 130.1L169.679 130.021C170.97 128.387 172.567 127.026 174.379 126.016C176.191 125.006 178.183 124.367 180.24 124.134L218.989 119.752C220.175 119.622 221.365 119.972 222.296 120.726C223.227 121.479 223.825 122.575 223.958 123.773Z" fill="#E6A97F"/>
<path d="M92.7319 116.144C92.2572 116.171 91.7913 116.006 91.4368 115.686C91.0823 115.366 90.8683 114.917 90.8417 114.437C90.8151 113.958 90.9782 113.487 91.2951 113.129C91.612 112.771 92.0567 112.555 92.5314 112.528L106.765 110.916C107.24 110.863 107.716 111.003 108.089 111.304C108.461 111.606 108.7 112.045 108.752 112.525C108.804 113.004 108.666 113.485 108.367 113.861C108.068 114.237 107.634 114.479 107.159 114.531L92.9324 116.144H92.7319ZM121.193 112.926C120.718 112.953 120.252 112.788 119.897 112.468C119.543 112.148 119.329 111.699 119.302 111.219C119.276 110.74 119.439 110.269 119.756 109.911C120.073 109.553 120.517 109.337 120.992 109.31L135.219 107.712C135.454 107.686 135.692 107.707 135.919 107.774C136.146 107.84 136.358 107.952 136.542 108.101C136.727 108.25 136.88 108.435 136.994 108.644C137.108 108.854 137.18 109.084 137.206 109.321C137.231 109.558 137.211 109.799 137.145 110.028C137.079 110.257 136.969 110.471 136.821 110.658C136.673 110.844 136.49 110.999 136.283 111.114C136.075 111.229 135.848 111.302 135.613 111.328L121.386 112.933L121.193 112.926ZM149.653 109.708C149.178 109.735 148.713 109.57 148.358 109.25C148.004 108.93 147.79 108.481 147.763 108.001C147.736 107.522 147.899 107.051 148.216 106.693C148.533 106.335 148.978 106.119 149.453 106.092L163.687 104.516C163.922 104.489 164.16 104.51 164.387 104.576C164.614 104.642 164.826 104.753 165.011 104.902C165.196 105.051 165.35 105.236 165.464 105.445C165.578 105.654 165.651 105.884 165.677 106.121C165.703 106.359 165.683 106.599 165.617 106.828C165.552 107.058 165.442 107.272 165.294 107.459C165.147 107.645 164.964 107.801 164.757 107.916C164.55 108.032 164.323 108.105 164.088 108.131L149.854 109.744L149.653 109.708ZM178.114 106.483C177.639 106.509 177.174 106.343 176.82 106.022C176.466 105.702 176.253 105.252 176.227 104.773C176.201 104.293 176.365 103.823 176.683 103.466C177.001 103.108 177.446 102.893 177.92 102.867L192.147 101.254C192.622 101.201 193.098 101.34 193.472 101.641C193.845 101.942 194.084 102.38 194.138 102.86C194.191 103.339 194.053 103.82 193.755 104.197C193.457 104.574 193.023 104.816 192.548 104.87L178.314 106.483H178.114Z" fill="#997055"/>
<path d="M182.08 146.834C186.754 146.834 190.543 143.007 190.543 138.287C190.543 133.566 186.754 129.739 182.08 129.739C177.406 129.739 173.617 133.566 173.617 138.287C173.617 143.007 177.406 146.834 182.08 146.834Z" fill="#6C7580"/>
<path d="M190.292 135.611C190.555 137.787 189.979 139.982 188.683 141.741C187.388 143.501 185.472 144.689 183.332 145.061C181.193 145.433 178.994 144.959 177.191 143.738C175.387 142.518 174.118 140.643 173.646 138.503C173.569 138.184 173.514 137.861 173.481 137.534C173.237 135.366 173.823 133.185 175.12 131.439C176.417 129.694 178.326 128.515 180.455 128.145C182.585 127.775 184.774 128.242 186.574 129.45C188.374 130.658 189.648 132.515 190.135 134.642C190.205 134.961 190.258 135.285 190.292 135.611Z" fill="#DBE3E6"/>
<path d="M190.135 134.62L177.626 143.934C176.63 143.344 175.762 142.555 175.078 141.615C174.393 140.675 173.906 139.604 173.646 138.467L186.147 129.153C187.145 129.742 188.014 130.53 188.7 131.47C189.386 132.411 189.874 133.482 190.135 134.62Z" fill="#FAFDFF"/>
</g>
<defs>
<clipPath id="clip0_3511_48013">
<rect width="213" height="192" fill="white" transform="translate(13.5 4)"/>
</clipPath>
</defs>
</svg>
