<svg width="241" height="200" viewBox="0 0 241 200" fill="none" xmlns="http://www.w3.org/2000/svg">
<g clip-path="url(#clip0_4967_11477)">
<path d="M161.698 192.314H129.167C125.36 186.523 120.44 183.036 115.034 183.036C109.628 183.036 104.692 186.523 100.916 192.314H68.6016C68.609 187.123 69.8333 182.006 72.1774 177.368C73.0935 175.577 74.1524 173.861 75.344 172.238C76.5689 170.553 77.9246 168.966 79.3987 167.492C81.602 165.293 84.0329 163.331 86.6509 161.64C95.1699 156.242 105.079 153.414 115.181 153.499C140.861 153.499 161.698 170.879 161.698 192.314Z" fill="#FFCC66"/>
<path d="M161.698 192.306H154.23C153.915 186.21 151.527 180.402 147.456 175.832C146.63 174.926 145.563 174.27 144.379 173.938C143.195 173.607 141.941 173.614 140.76 173.959C116.864 180.917 92.7756 176.608 79.3525 167.492C87.9022 158.936 100.761 153.499 115.15 153.499C140.861 153.499 161.698 170.879 161.698 192.306Z" fill="#FAA957"/>
<path d="M153.349 183.474C150.16 186.646 138.814 189.91 134.435 180.709C130.056 171.508 151.635 176.708 151.635 176.708L153.349 183.474Z" fill="#FAA957"/>
<path d="M115.034 183.036C109.628 183.036 104.724 186.523 100.916 192.306H93.502C98.1436 182.023 115.034 183.036 115.034 183.036Z" fill="#FAA957"/>
<path d="M97.8033 175.264C97.8033 181.016 85.338 193.604 76.0469 180.141L85.9404 174.657L96.6757 170.956L97.8033 175.264Z" fill="#FAA957"/>
<path d="M94.9146 154.129C89.2457 158.514 82.6732 161.809 76.7958 164.72C82.8277 161.532 79.19 154.19 70.6172 158.338C77.3364 155.112 84.0248 151.925 89.4697 148.515C95.239 147.616 94.9146 154.129 94.9146 154.129Z" fill="#D0C5C2"/>
<path d="M76.796 164.72H76.7265C73.046 166.458 69.4878 168.441 66.0761 170.656C64.7168 171.601 63.651 172.4 62.8323 173.098C63.8054 170.08 59.9361 165.196 53.4717 167.192C58.6385 164.12 64.6627 161.187 70.6791 158.322C79.2056 154.19 82.8278 161.532 76.796 164.72Z" fill="#BFB0AC"/>
<path d="M61.9208 177.322C50.0115 173.728 39.1758 186.876 45.9414 194.671C42.3423 193.304 39.6855 190.793 39.0367 186.738C38.5315 183.495 39.3305 180.184 41.2611 177.522C41.7759 176.846 42.2625 176.209 42.7207 175.61C45.3312 172.591 49.077 169.819 53.4484 167.162C59.9128 165.165 63.7821 170.049 62.809 173.068C59.8973 175.594 60.1985 176.662 61.9208 177.322Z" fill="#D0C5C2"/>
<path d="M66.485 193.896C60.0824 196.108 51.8108 196.891 45.9565 194.664C39.1755 186.876 50.0113 173.728 61.9206 177.322C62.16 177.384 62.3839 177.461 62.6234 177.545C63.6815 177.837 65.0562 178.06 66.485 178.313C58.615 178.497 47.4858 196.906 66.485 193.896Z" fill="#D0C5C2"/>
<path d="M76.0007 186.485C75.7226 189.334 71.7374 192.099 66.4856 193.896C47.4863 196.907 58.6156 178.536 66.4856 178.329C71.0964 179.173 76.5876 180.556 76.0007 186.485Z" fill="#D0C5C2"/>
<path d="M71.0958 118.885C64.3302 118.885 58.6923 120.698 62.9555 132.586C67.2187 144.475 79.7768 154.359 75.2046 159.466C70.6324 164.574 83.5303 159.466 83.5303 159.466L84.8587 142.294L71.0958 118.885Z" fill="#D0C5C2"/>
<path d="M94.3662 173.989C94.3698 176.337 93.554 178.613 92.058 180.429C90.562 182.245 88.4785 183.489 86.1633 183.947C83.848 184.406 81.4444 184.051 79.3627 182.944C77.2811 181.837 75.6504 180.045 74.7491 177.876L71.9455 171.102C71.2884 169.517 71.0665 167.788 71.3026 166.09C71.5388 164.393 72.2244 162.788 73.2894 161.44L75.3438 158.875C75.855 158.231 76.4294 157.64 77.0583 157.109C78.4053 155.94 79.984 155.067 81.6923 154.544L84.5576 153.684L87.06 152.916V158.292C87.0604 159.782 87.3802 161.254 87.9982 162.612C88.6161 163.969 89.518 165.18 90.6436 166.164L90.7594 166.271L90.8984 166.394C91.6049 167.009 92.2234 167.717 92.7366 168.498C93.8007 170.134 94.3666 172.041 94.3662 173.989Z" fill="#D0C5C2"/>
<path d="M155.288 172.875L153.365 176.101L151.511 179.173C150.123 181.439 147.923 183.097 145.354 183.814C142.785 184.531 140.038 184.254 137.667 183.038C135.295 181.822 133.475 179.758 132.573 177.261C131.671 174.764 131.754 172.019 132.805 169.581C133.593 167.802 134.87 166.282 136.489 165.195C137.284 164.65 137.96 163.95 138.474 163.137C138.983 162.325 139.319 161.418 139.463 160.472L140.297 154.981L145.07 154.851C147.059 154.796 149.022 155.318 150.719 156.351C152.416 157.384 153.775 158.885 154.631 160.672L155.744 163.014C156.485 164.57 156.831 166.282 156.752 168.001C156.672 169.721 156.17 171.394 155.288 172.875Z" fill="#D0C5C2"/>
<path d="M90.7906 166.271C84.527 164.973 77.0663 161.248 77.0586 157.109C78.4055 155.941 79.9843 155.067 81.6926 154.544L84.5579 153.684C84.5579 153.684 85.5928 154.498 87.0602 155.719V158.299C87.0607 159.789 87.3805 161.262 87.9984 162.62C88.6164 163.977 89.5182 165.188 90.6438 166.171L90.7906 166.271Z" fill="#BFB0AC"/>
<path d="M150.299 156.11C149.859 161.924 133.308 169.358 132.806 169.581C133.593 167.803 134.87 166.283 136.49 165.196C137.285 164.65 137.96 163.95 138.475 163.138C138.983 162.326 139.32 161.419 139.463 160.473L140.297 154.981L145.07 154.851C146.895 154.802 148.699 155.236 150.299 156.11Z" fill="#BFB0AC"/>
<path d="M153.349 176.101L151.496 179.173C150.183 181.368 148.109 183.011 145.665 183.795C143.22 184.578 140.572 184.448 138.217 183.428C135.862 182.409 133.962 180.57 132.874 178.257C131.785 175.943 131.582 173.315 132.303 170.863C136.258 169.665 140.629 170.863 141.571 171.762C142.784 172.975 145.194 173.628 148.522 172.876C150.971 172.353 153.349 173.728 153.349 176.101Z" fill="white"/>
<path d="M73.0366 89.2406L65.3203 101.016L73.6481 106.412L81.3644 94.637L73.0366 89.2406Z" fill="#FAA957"/>
<path d="M70.2617 83.1503L72.9726 84.9091C73.2412 85.0818 73.4728 85.3056 73.6541 85.5677C73.8353 85.8298 73.9626 86.125 74.0287 86.4362C74.0947 86.7475 74.0982 87.0686 74.0389 87.3812C73.9796 87.6938 73.8587 87.9916 73.6831 88.2575L62.2759 105.66C61.9222 106.199 61.3682 106.576 60.7353 106.708C60.1025 106.841 59.4427 106.718 58.9008 106.367L56.1899 104.608C55.6485 104.257 55.2696 103.706 55.1363 103.076C55.0031 102.447 55.1265 101.791 55.4794 101.252L66.8867 83.8723C67.0605 83.6044 67.2858 83.3733 67.5495 83.1921C67.8133 83.0108 68.1104 82.883 68.4238 82.816C68.7372 82.7489 69.0609 82.744 69.3762 82.8013C69.6916 82.8587 69.9925 82.9773 70.2617 83.1503Z" fill="#FAA957"/>
<path d="M72.6563 79.4947L75.3594 81.2535C75.6371 81.4225 75.8778 81.6454 76.067 81.9089C76.2562 82.1724 76.3901 82.4711 76.4607 82.7872C76.5314 83.1032 76.5373 83.4302 76.4781 83.7486C76.4189 84.067 76.2959 84.3703 76.1163 84.6403L64.6704 102.013C64.3168 102.551 63.7627 102.928 63.1299 103.06C62.4971 103.193 61.8372 103.07 61.2953 102.719L58.5845 100.96C58.043 100.609 57.6641 100.058 57.5309 99.4285C57.3977 98.7992 57.521 98.1431 57.8739 97.6042L69.2812 80.2013C69.6348 79.6629 70.1889 79.2861 70.8217 79.1536C71.4545 79.0212 72.1143 79.1438 72.6563 79.4947Z" fill="#FFEC8C"/>
<path d="M70.2622 83.1504L72.9731 84.9091C73.495 85.1866 73.8862 85.6569 74.0625 86.2187C74.2388 86.7805 74.1859 87.3886 73.9153 87.912L64.4466 102.358C64.0726 102.815 63.5337 103.109 62.9449 103.176C62.3562 103.244 61.7642 103.08 61.2955 102.719L58.5846 100.96C58.0636 100.68 57.6738 100.208 57.4991 99.6448C57.3244 99.0819 57.3786 98.4733 57.6501 97.9497L67.1189 83.5036C67.4914 83.0464 68.0298 82.7531 68.6178 82.687C69.2058 82.621 69.7964 82.7874 70.2622 83.1504Z" fill="#FFCC66"/>
<path d="M159.473 125.567C159.481 134.33 156.937 142.909 152.149 150.267C147.362 157.624 140.534 163.447 132.492 167.031C124.45 170.615 115.536 171.808 106.827 170.465C98.1182 169.123 89.9862 165.302 83.4128 159.465C76.8394 153.627 72.1056 146.023 69.7829 137.569C67.4603 129.115 67.648 120.173 70.3234 111.823C72.9989 103.473 78.0477 96.0716 84.8604 90.5121C91.673 84.9526 99.9583 81.4728 108.716 80.4928C110.045 80.3315 111.396 80.247 112.755 80.2163H113.852C125.776 80.2154 137.227 84.8578 145.751 93.1492C154.275 101.44 159.196 112.721 159.458 124.576C159.473 124.876 159.473 125.221 159.473 125.567Z" fill="#94BF7C"/>
<path d="M159.473 121.435C159.481 130.199 156.937 138.777 152.149 146.135C147.362 153.492 140.534 159.315 132.492 162.899C124.45 166.483 115.536 167.676 106.827 166.333C98.1182 164.991 89.9862 161.17 83.4128 155.333C76.8394 149.495 72.1056 141.891 69.7829 133.437C67.4603 124.983 67.648 116.041 70.3234 107.691C72.9989 99.3412 78.0477 91.9397 84.8604 86.3802C91.673 80.8207 99.9583 77.341 108.716 76.361C110.045 76.2074 111.396 76.1152 112.755 76.0845H113.852C125.772 76.0835 137.219 80.7227 145.743 89.0091C154.267 97.2955 159.19 108.571 159.458 120.421C159.473 120.736 159.473 121.097 159.473 121.435Z" fill="#BAF29D"/>
<path d="M141.455 142.87L137.285 140.566L139.509 124.039L141.308 123.432L142.081 124.031L159.45 120.437C159.182 108.593 154.265 97.3235 145.749 89.0381C137.234 80.7528 125.797 76.1091 113.883 76.1001C113.512 76.1001 113.157 76.1001 112.794 76.1001H111.929H111.049C110.276 76.1462 109.504 76.2076 108.732 76.2998C103.597 76.8884 98.6005 78.3428 93.957 80.6006L95.2545 96.022L109.504 95.1388C109.566 96.6748 109.604 97.6425 109.604 97.8268C109.604 98.4182 119.645 106.459 128.596 113.479L125.939 112.88L128.635 141.357L138.814 146.848L136.003 151.103L147.209 152.355C149.711 149.692 151.879 146.736 153.666 143.554L141.841 142.256L141.455 142.87Z" fill="#9ECC85"/>
<path d="M152.577 121.435C152.577 122.295 152.577 123.163 152.492 124.008C151.827 133.755 147.465 142.887 140.287 149.557C133.108 156.228 123.65 159.938 113.826 159.938C104.001 159.938 94.5431 156.228 87.3649 149.557C80.1866 142.887 75.8239 133.755 75.1591 124.008C75.1051 123.163 75.0742 122.295 75.0742 121.435C75.0017 116.329 75.9505 111.259 77.8654 106.521C79.7803 101.782 82.6232 97.4695 86.2288 93.8332C89.8344 90.1968 94.1308 87.3092 98.8684 85.3384C103.606 83.3675 108.69 82.3525 113.826 82.3525C118.961 82.3525 124.045 83.3675 128.783 85.3384C133.521 87.3092 137.817 90.1968 141.423 93.8332C145.028 97.4695 147.871 101.782 149.786 106.521C151.701 111.259 152.65 116.329 152.577 121.435Z" fill="#DAEAF2"/>
<path d="M152.515 124.008C151.864 133.764 147.508 142.909 140.329 149.59C133.15 156.271 123.685 159.988 113.852 159.988C104.02 159.988 94.5547 156.271 87.3756 149.59C80.1965 142.909 75.8402 133.764 75.1895 124.008C75.8171 114.616 79.8812 105.777 86.6144 99.1606C93.3476 92.5444 102.284 88.6085 111.736 88.0963C112.431 88.0963 113.142 88.0425 113.852 88.0425C121.651 88.0316 129.27 90.3748 135.701 94.7625C136.994 95.6336 138.229 96.5852 139.401 97.6118C146.444 103.737 151.011 112.198 152.252 121.42C152.376 122.272 152.453 123.14 152.515 124.008Z" fill="#F2FBFF"/>
<path d="M152.253 121.435C131.809 121.643 118.726 102.665 115.413 88.3574L115.305 88.0963C115.946 88.0963 116.594 88.0425 117.236 88.0425C120.466 88.0387 123.679 88.5176 126.766 89.4633L137.162 94.7625L140.537 97.6118C147.078 103.979 151.215 112.392 152.253 121.435Z" fill="#DAEAF2"/>
<path d="M128.194 149.813C127.594 149.813 127.007 149.645 126.499 149.329C125.99 149.012 125.582 148.56 125.321 148.023L112.732 122.165L93.0222 126.496C92.2103 126.643 91.3726 126.471 90.6854 126.017C89.9981 125.562 89.5148 124.861 89.3368 124.059C89.1588 123.258 89.3001 122.419 89.731 121.719C90.1619 121.02 90.8488 120.513 91.6475 120.306L113.821 115.437C114.521 115.284 115.251 115.37 115.896 115.681C116.54 115.992 117.061 116.509 117.374 117.15L131.059 145.266C131.295 145.749 131.404 146.283 131.374 146.819C131.345 147.354 131.18 147.874 130.893 148.329C130.607 148.783 130.209 149.158 129.737 149.418C129.264 149.677 128.734 149.813 128.194 149.813Z" fill="#4D4D4D"/>
<path d="M101.194 75.3628C97.8034 77.4978 97.1546 82.1289 97.0002 86.8828C96.8148 93.2495 97.5099 99.8466 93.8027 101.06C89.7719 102.248 85.5788 102.8 81.376 102.696C80.7555 101.936 80.2506 101.09 79.8777 100.185C78.9672 97.9605 78.5003 95.5816 78.5029 93.1804C78.5029 92.7119 78.5029 92.2434 78.557 91.7749C78.805 88.4035 79.9806 85.1647 81.9552 82.413C84.0751 79.4481 87.0459 77.1887 90.4786 75.9307C93.9114 74.6727 97.6461 74.4748 101.194 75.3628Z" fill="#D0C5C2"/>
<path d="M96.9689 86.8981C96.7836 93.2649 97.4787 101.959 93.7715 103.164C88.9753 104.7 83.7312 102.75 81.3447 102.711C80.7242 101.952 80.2194 101.106 79.8464 100.2C78.936 97.9758 78.4691 95.597 78.4717 93.1957C78.4717 92.7273 78.4717 92.2588 78.5258 91.7903C80.493 88.904 83.4412 86.8202 86.8292 85.9215C90.2171 85.0228 93.8174 85.3696 96.9689 86.8981Z" fill="white"/>
<path d="M165.915 133.231C165.521 136.127 163.791 142.271 156.353 143.868C155.581 144.045 154.755 144.175 153.975 144.283C145.317 145.412 138.876 142.186 138.08 136.726C139.274 133.757 141.381 131.24 144.099 129.532C146.818 127.825 150.009 127.015 153.218 127.218H153.596C155.144 127.216 156.629 126.605 157.725 125.519C158.822 124.432 159.442 122.959 159.45 121.419L163.312 126.795C164.706 128.691 165.601 130.904 165.915 133.231Z" fill="#D0C5C2"/>
<path d="M155.419 136.603C155.423 139.23 154.933 141.835 153.975 144.283C145.317 145.412 138.876 142.186 138.08 136.726C139.274 133.758 141.381 131.24 144.099 129.533C146.818 127.825 150.009 127.015 153.218 127.218C154.672 130.135 155.425 133.348 155.419 136.603Z" fill="white"/>
<path d="M106.422 76.6605L104.013 77.2979C102.384 77.7217 100.967 78.7233 100.03 80.1139C99.0922 81.5045 98.6986 83.1881 98.9231 84.8474L99.4019 88.3571C98.6523 87.7921 97.8477 87.3033 97 86.8979C97.1545 82.1286 97.7723 77.4976 101.194 75.3779L106.422 76.6605Z" fill="#BFB0AC"/>
<path d="M92.0106 106.013L91.439 106.144C90.6788 106.316 89.9017 106.404 89.1221 106.405C87.6312 106.402 86.1597 106.069 84.8145 105.43C83.4692 104.791 82.284 103.862 81.3447 102.711C83.7544 102.749 90.0566 104.477 93.7715 101.075C97.0075 98.1107 96.7835 93.2647 96.9689 86.8979C97.8166 87.3033 98.6213 87.7921 99.3708 88.3571L100.143 94.2247C100.499 96.8427 99.8638 99.4987 98.361 101.677C96.8582 103.856 94.5949 105.401 92.0106 106.013Z" fill="#E6E6E6"/>
<path d="M166.038 135.059C166.038 138.501 164.775 141.825 162.485 144.406C161.53 145.482 160.356 146.343 159.04 146.934C157.725 147.525 156.298 147.83 154.855 147.831H152.167C152.882 146.709 153.487 145.52 153.974 144.283C154.747 144.175 155.519 144.045 156.353 143.868C163.791 142.271 165.521 136.127 165.914 133.231C165.998 133.837 166.039 134.448 166.038 135.059Z" fill="#BFB0AC"/>
<path d="M153.974 144.283C153.487 145.52 152.882 146.708 152.167 147.831H144.93C143.743 147.83 142.572 147.554 141.51 147.024C140.448 146.495 139.525 145.727 138.814 144.781C138.103 143.835 137.623 142.738 137.412 141.576C137.202 140.413 137.266 139.218 137.601 138.085V138.047C137.74 137.601 137.894 137.163 138.057 136.733C138.875 142.186 145.316 145.412 153.974 144.283Z" fill="#E6E6E6"/>
<path d="M177.523 105.783C177.1 106.527 176.634 107.245 176.125 107.934C172.99 112.077 168.545 115.052 163.505 116.382C163.653 115.238 163.736 114.086 163.752 112.933C164.694 112.764 165.621 112.549 166.525 112.296C170.723 111.173 174.529 108.919 177.523 105.783Z" fill="#BFB0AC"/>
<path d="M116.771 75.8852C116.771 76.8221 116.872 77.7668 116.988 78.7114C115.883 79.0711 114.8 79.4942 113.744 79.9786C113.532 74.7932 115.077 69.6871 118.131 65.4788C118.633 64.7865 119.182 64.1295 119.776 63.5127C117.649 67.2837 116.61 71.5648 116.771 75.8852Z" fill="#BFB0AC"/>
<path d="M158.084 51.1708C157.159 52.4122 155.843 53.3098 154.346 53.7205L144.027 56.5314L135.47 58.8354C134.469 59.1113 133.417 59.1579 132.395 58.9716C131.373 58.7854 130.407 58.3712 129.569 57.7602L128.635 57.0613C128.96 51.6059 130.568 46.3025 133.328 41.5769C136.089 36.8512 139.925 32.8351 144.529 29.8511C158.346 38.0149 159.041 49.4351 159.041 49.4351C158.81 50.0575 158.487 50.6424 158.084 51.1708Z" fill="#FCA39A"/>
<path d="M158.084 51.1708C157.159 52.4122 155.843 53.3098 154.346 53.7205L144.027 56.5314L135.47 58.8354C134.469 59.1113 133.417 59.1579 132.395 58.9716C131.373 58.7854 130.407 58.3712 129.569 57.7602L128.635 57.0613C138.451 48.1372 142.668 38.7445 144.529 29.8511C158.346 38.0149 159.041 49.4351 159.041 49.4351C158.81 50.0575 158.487 50.6424 158.084 51.1708Z" fill="#E6928A"/>
<path d="M158.084 51.1708C157.159 52.4122 155.843 53.3098 154.346 53.7205L136.003 58.7202L139.718 53.8588C143.42 49.1093 145.513 43.3149 145.696 37.3084C145.797 34.7683 145.39 32.2335 144.499 29.8511C158.315 38.0149 159.011 49.4351 159.011 49.4351C158.789 50.0557 158.477 50.6405 158.084 51.1708Z" fill="#D0C5C2"/>
<path d="M177.994 65.7472C177.074 66.9902 176.603 68.5057 176.658 70.048L177.021 80.6771L177.322 89.4938C177.359 90.5276 177.63 91.5399 178.115 92.4548C178.601 93.3698 179.288 94.1638 180.125 94.7776L181.091 95.4842C186.229 93.5605 190.842 90.4659 194.56 86.4486C198.278 82.4313 200.997 77.6033 202.5 72.352C190.559 61.6 179.384 64.3495 179.384 64.3495C178.857 64.7481 178.389 65.2186 177.994 65.7472Z" fill="#FCA39A"/>
<path d="M177.994 65.7476C177.074 66.9906 176.603 68.506 176.658 70.0484L177.021 80.6775L177.322 89.4941C177.359 90.528 177.63 91.5402 178.115 92.4552C178.601 93.3701 179.288 94.1642 180.125 94.778L181.091 95.4845C186.744 83.5037 194.514 76.7223 202.5 72.3063C190.559 61.6004 179.384 64.3498 179.384 64.3498C178.857 64.7484 178.389 65.219 177.994 65.7476Z" fill="#E6928A"/>
<path d="M177.994 65.7476C177.074 66.9906 176.603 68.506 176.658 70.0484L177.021 80.6775L184.389 79.0493C184.389 79.0493 193.873 71.6151 202.5 72.3063C190.559 61.6004 179.384 64.3498 179.384 64.3498C178.857 64.7484 178.389 65.219 177.994 65.7476Z" fill="#D0C5C2"/>
<path d="M182.311 92.3199C181.296 94.6769 180.492 97.1184 179.909 99.6159C179.429 101.786 178.624 103.873 177.523 105.806C174.531 108.947 170.725 111.207 166.525 112.334C165.621 112.587 164.694 112.802 163.752 112.971C154.376 114.646 143.216 112.004 133.631 104.977C124.047 97.9493 118.185 88.1266 117.011 78.734C116.895 77.7893 116.818 76.8447 116.795 75.9077C116.633 71.5873 117.673 67.3062 119.799 63.5353C121.326 61.9112 123.092 60.526 125.035 59.4265C127.259 58.1312 129.362 56.6431 131.322 54.9797C134.493 52.3496 138.201 50.4366 142.189 49.3734C147.05 48.1349 152.13 48.0014 157.05 48.9826C161.97 49.9638 166.605 52.0346 170.61 55.0412C172.045 56.1012 173.398 57.2667 174.657 58.5279C183.995 67.79 186.976 81.2453 182.311 92.3199Z" fill="#D0C5C2"/>
<path d="M174.657 58.5283C168.548 63.0058 153.557 63.5357 144.027 56.5623C141.439 54.6653 141.177 52.1079 142.158 49.3815C147.02 48.1424 152.101 48.0085 157.023 48.9897C161.944 49.9709 166.581 52.0421 170.587 55.0493C172.03 56.1059 173.39 57.2689 174.657 58.5283Z" fill="white"/>
<path d="M163.752 112.949C154.376 114.623 143.216 111.981 133.631 104.954C124.047 97.9266 118.185 88.1039 117.011 78.7112C124.17 76.477 131.871 76.6497 138.922 79.2027C140.013 79.5791 141.191 79.6284 142.31 79.3444C143.429 79.0604 144.44 78.4556 145.216 77.6053C150.893 71.3768 156.801 68.0975 159.481 70.0559C162.161 72.0143 160.755 78.596 156.453 85.8383C155.868 86.8288 155.589 87.9687 155.651 89.1159C155.713 90.2631 156.113 91.3668 156.801 92.2895C161.336 98.2305 163.778 105.49 163.752 112.949Z" fill="white"/>
<path d="M150.198 99.1706C150.171 99.0575 150.122 98.9509 150.053 98.8569C149.984 98.7628 149.898 98.6832 149.798 98.6225C149.698 98.5619 149.587 98.5214 149.472 98.5034C149.356 98.4855 149.238 98.4903 149.125 98.5178C148.249 98.733 147.327 98.6742 146.486 98.3495C145.644 98.0249 144.924 97.45 144.424 96.7035C143.923 95.9569 143.666 95.0749 143.687 94.1778C143.709 93.2807 144.009 92.412 144.545 91.6903C144.895 91.2056 145.343 90.7993 145.86 90.4977C146.378 90.1961 146.953 90.0058 147.549 89.9392C147.784 89.9117 147.998 89.7927 148.144 89.6084C148.29 89.424 148.357 89.1894 148.329 88.9562C148.302 88.723 148.182 88.5102 147.997 88.3648C147.811 88.2193 147.575 88.153 147.341 88.1805C146.784 88.2494 146.238 88.3914 145.719 88.6029C145.764 88.0483 145.732 87.4903 145.626 86.944C145.608 86.8269 145.567 86.7145 145.505 86.6135C145.442 86.5126 145.36 86.4252 145.263 86.3565C145.166 86.2878 145.056 86.2392 144.94 86.2137C144.823 86.1881 144.703 86.1861 144.586 86.2077C144.469 86.2294 144.357 86.2743 144.258 86.3397C144.158 86.4051 144.073 86.4897 144.007 86.5885C143.942 86.6873 143.897 86.7982 143.875 86.9147C143.853 87.0312 143.855 87.1509 143.881 87.2666C143.992 87.8524 143.981 88.4548 143.849 89.0362C143.716 89.6176 143.464 90.1655 143.108 90.6458C142.574 91.3674 141.83 91.9082 140.976 92.1951C140.123 92.4819 139.201 92.5009 138.336 92.2494C137.471 91.9979 136.705 91.4882 136.141 90.7892C135.578 90.0903 135.243 89.2359 135.184 88.3418C135.178 88.2254 135.149 88.1113 135.099 88.0063C135.048 87.9012 134.976 87.8073 134.889 87.7301C134.801 87.6528 134.698 87.5938 134.587 87.5564C134.476 87.519 134.359 87.504 134.242 87.5124C134.125 87.5192 134.011 87.5489 133.906 87.5997C133.801 87.6506 133.707 87.7216 133.629 87.8086C133.552 87.8957 133.492 87.9971 133.454 88.107C133.416 88.217 133.401 88.3333 133.408 88.4493C133.474 89.4194 133.77 90.3602 134.273 91.1942C134.776 92.0282 135.47 92.7316 136.3 93.2467C137.129 93.7617 138.069 94.0737 139.044 94.1569C140.018 94.2402 140.998 94.0923 141.904 93.7255C141.813 94.699 141.958 95.6799 142.325 96.5867C142.693 97.4935 143.273 98.2999 144.017 98.9391C144.761 99.5783 145.647 100.032 146.603 100.262C147.559 100.492 148.555 100.491 149.511 100.261C149.629 100.237 149.742 100.189 149.841 100.12C149.94 100.052 150.025 99.9637 150.089 99.8618C150.153 99.7599 150.196 99.6461 150.215 99.5273C150.234 99.4085 150.228 99.2872 150.198 99.1706Z" fill="#4D403D"/>
<path d="M148.777 84.4712L145.765 82.2594C145.397 81.9967 144.959 81.8472 144.506 81.8294C144.053 81.8116 143.605 81.9263 143.217 82.1593C142.829 82.3923 142.518 82.7333 142.323 83.1401C142.128 83.547 142.057 84.0018 142.12 84.4482L142.892 89.6552C142.985 90.2561 143.314 90.7958 143.806 91.1569C144.298 91.518 144.913 91.6711 145.518 91.5829L150.754 90.8149C151.203 90.7424 151.62 90.5404 151.954 90.234C152.288 89.9276 152.524 89.5304 152.632 89.0917C152.741 88.6531 152.717 88.1923 152.565 87.7668C152.412 87.3412 152.137 86.9697 151.774 86.6984L148.777 84.4712Z" fill="#4D403D"/>
<path d="M119.83 68.8039L119.737 68.7195L112.415 61.6615C112.327 61.5821 112.255 61.4857 112.204 61.378C112.154 61.2704 112.126 61.1537 112.122 61.035C112.118 60.9163 112.138 60.798 112.181 60.6871C112.223 60.5763 112.288 60.4752 112.372 60.3899C112.455 60.3047 112.554 60.237 112.664 60.1908C112.775 60.1447 112.893 60.1212 113.012 60.1216C113.132 60.122 113.25 60.1464 113.36 60.1932C113.469 60.2401 113.569 60.3085 113.651 60.3943L120.957 67.4523C121.109 67.6115 121.196 67.8208 121.203 68.0401C121.209 68.2594 121.133 68.4732 120.991 68.6406C120.848 68.808 120.649 68.9173 120.43 68.9474C120.212 68.9776 119.99 68.9265 119.807 68.8039H119.83Z" fill="#4D403D"/>
<path d="M108.879 66.669C108.699 66.5351 108.577 66.3386 108.538 66.1189C108.498 65.8992 108.543 65.6727 108.664 65.4849C108.786 65.2971 108.974 65.162 109.192 65.1066C109.409 65.0513 109.639 65.08 109.837 65.1868L118.718 70.1096C118.83 70.1604 118.93 70.2335 119.012 70.3246C119.094 70.4156 119.155 70.5226 119.194 70.6386C119.232 70.7546 119.245 70.8773 119.233 70.9988C119.221 71.1203 119.184 71.2381 119.124 71.3446C119.064 71.4511 118.983 71.5441 118.885 71.6177C118.787 71.6913 118.675 71.7439 118.555 71.7722C118.436 71.8005 118.312 71.8039 118.191 71.7821C118.07 71.7603 117.955 71.7138 117.853 71.6456L108.972 66.7228L108.879 66.669Z" fill="#4D403D"/>
<path d="M106.16 72.0835C106.014 71.9759 105.904 71.826 105.846 71.6543C105.788 71.4826 105.785 71.2973 105.836 71.1235C105.902 70.8979 106.056 70.7076 106.263 70.594C106.469 70.4804 106.713 70.4526 106.94 70.5168L117.259 73.4966C117.371 73.5289 117.475 73.5828 117.566 73.6552C117.658 73.7277 117.733 73.8173 117.79 73.9189C117.846 74.0206 117.882 74.1322 117.895 74.2475C117.908 74.3628 117.897 74.4796 117.865 74.591C117.833 74.7024 117.778 74.8064 117.705 74.8971C117.633 74.9877 117.542 75.0631 117.44 75.1191C117.338 75.1751 117.226 75.2105 117.11 75.2233C116.994 75.2362 116.876 75.2262 116.764 75.1939L106.438 72.2217C106.339 72.1913 106.245 72.1446 106.16 72.0835Z" fill="#4D403D"/>
<path d="M172.426 107.304C172.24 107.173 172.112 106.976 172.068 106.754C172.023 106.532 172.067 106.301 172.189 106.11C172.311 105.919 172.502 105.781 172.723 105.726C172.944 105.671 173.178 105.703 173.376 105.814L182.327 110.652C182.444 110.699 182.55 110.769 182.637 110.859C182.725 110.949 182.792 111.057 182.834 111.175C182.877 111.293 182.894 111.418 182.884 111.543C182.874 111.668 182.837 111.789 182.776 111.898C182.716 112.008 182.632 112.104 182.532 112.179C182.431 112.254 182.316 112.307 182.193 112.335C182.07 112.362 181.943 112.363 181.82 112.338C181.696 112.313 181.58 112.262 181.478 112.188L172.526 107.358L172.426 107.304Z" fill="#4D403D"/>
<path d="M177.724 117.073L177.631 117.004L170.271 110.03C170.1 109.868 170 109.645 169.994 109.411C169.989 109.176 170.077 108.948 170.24 108.778C170.403 108.608 170.627 108.509 170.863 108.504C171.099 108.498 171.328 108.586 171.499 108.748L178.859 115.721C179.019 115.876 179.114 116.086 179.126 116.308C179.137 116.53 179.064 116.749 178.92 116.919C178.777 117.09 178.574 117.201 178.352 117.229C178.13 117.258 177.906 117.202 177.724 117.073Z" fill="#4D403D"/>
<path d="M173.329 121.259C173.247 121.198 173.176 121.122 173.121 121.036L167.189 112.119C167.075 111.923 167.04 111.691 167.092 111.469C167.144 111.248 167.279 111.055 167.469 110.93C167.659 110.804 167.891 110.756 168.116 110.794C168.341 110.833 168.543 110.955 168.68 111.136L174.604 120.061C174.723 120.234 174.775 120.444 174.753 120.653C174.73 120.861 174.633 121.055 174.48 121.199C174.326 121.343 174.126 121.429 173.916 121.439C173.705 121.45 173.497 121.386 173.329 121.259Z" fill="#4D403D"/>
<path d="M163.752 112.949C163.736 114.102 163.653 115.253 163.505 116.397C153.612 119.185 141.154 116.774 130.581 109.04C120.008 101.306 113.999 90.193 113.744 79.9786C114.8 79.4942 115.883 79.0711 116.988 78.7114C118.17 88.1041 124.016 97.9114 133.608 104.954C143.201 111.997 154.376 114.592 163.752 112.949Z" fill="#E6E6E6"/>
<path d="M159.636 86.9443C160.494 88.1117 161.181 89.1485 161.953 90.0163C162.681 90.8619 163.52 91.6059 164.448 92.2282C165.384 92.8423 166.393 93.3377 167.452 93.7027C168.677 94.1139 169.929 94.4423 171.198 94.6858C170.02 95.572 168.574 96.035 167.097 95.9991C165.564 95.9856 164.069 95.5264 162.795 94.6781C161.517 93.826 160.527 92.611 159.953 91.1914C159.401 89.8441 159.29 88.3579 159.636 86.9443Z" fill="#4D403D"/>
<path d="M132.38 66.9761C133.238 68.1511 133.925 69.1802 134.697 70.0481C135.425 70.8916 136.264 71.6331 137.192 72.2522C138.133 72.884 139.15 73.3949 140.219 73.7729C141.444 74.185 142.696 74.5134 143.965 74.7559C142.786 75.64 141.34 76.1002 139.864 76.0615C138.329 76.0528 136.83 75.5924 135.558 74.7382C134.285 73.884 133.295 72.6743 132.712 71.2615C132.15 69.9037 132.033 68.4036 132.38 66.9761Z" fill="#4D403D"/>
<path d="M166.795 77.2135C164.556 79.4484 166.942 83.1502 170.055 84.7553C173.167 86.3604 170.927 78.7879 170.055 77.9201C169.182 77.0522 167.853 76.1921 166.795 77.2135Z" fill="#F2E5E2"/>
<path d="M148.283 64.5879C147.009 67.4756 142.668 66.6077 140.042 64.296C137.416 61.9844 145.317 61.3239 146.445 61.8231C147.572 62.3223 148.885 63.2285 148.283 64.5879Z" fill="#F2E5E2"/>
<path d="M126.666 23.2233C129.673 23.2233 132.111 20.7992 132.111 17.8089C132.111 14.8186 129.673 12.3945 126.666 12.3945C123.658 12.3945 121.221 14.8186 121.221 17.8089C121.221 20.7992 123.658 23.2233 126.666 23.2233Z" fill="#CFDEE6"/>
<path d="M142.351 26.9019C144.143 26.9019 145.595 25.4577 145.595 23.6763C145.595 21.8948 144.143 20.4507 142.351 20.4507C140.56 20.4507 139.107 21.8948 139.107 23.6763C139.107 25.4577 140.56 26.9019 142.351 26.9019Z" fill="#CFDEE6"/>
<path d="M126.666 21.4108C129.673 21.4108 132.111 18.9867 132.111 15.9964C132.111 13.0061 129.673 10.582 126.666 10.582C123.658 10.582 121.221 13.0061 121.221 15.9964C121.221 18.9867 123.658 21.4108 126.666 21.4108Z" fill="#F2FBFF"/>
<path d="M142.351 25.7652C144.143 25.7652 145.595 24.321 145.595 22.5396C145.595 20.7581 144.143 19.314 142.351 19.314C140.56 19.314 139.107 20.7581 139.107 22.5396C139.107 24.321 140.56 25.7652 142.351 25.7652Z" fill="#F2FBFF"/>
<path d="M118.532 41.0638C118.048 44.5434 116.459 47.7781 113.996 50.2963C111.533 52.8144 108.326 54.4842 104.841 55.0621C101.357 55.64 97.778 55.0958 94.6266 53.5088C91.4752 51.9218 88.9161 49.3751 87.3226 46.2401C85.5957 49.0076 83.2344 51.3291 80.4319 53.0147C77.6294 54.7003 74.4653 55.7021 71.1987 55.9381C67.932 56.1741 64.6556 55.6375 61.6375 54.3724C58.6194 53.1073 55.9455 51.1495 53.8345 48.6593C53.2439 48.7725 52.6441 48.8316 52.0427 48.836C50.7138 48.836 49.398 48.5751 48.1708 48.0683C46.9436 47.5614 45.8291 46.8186 44.8912 45.8824C43.9534 44.9463 43.2106 43.8352 42.7056 42.6129C42.2006 41.3906 41.9433 40.0812 41.9483 38.7598C41.9483 38.4833 41.9483 38.2069 41.9947 37.9304C39.6076 35.1601 38.0952 31.7514 37.6465 28.1307C38.0183 25.1924 39.0865 22.3838 40.7633 19.9363C42.44 17.4887 44.6774 15.4722 47.2912 14.0527C49.905 12.6331 52.8204 11.8511 55.7975 11.7711C58.7746 11.6911 61.7283 12.3154 64.4153 13.5925C65.9501 10.8033 68.1818 8.45452 70.8951 6.77267C73.6085 5.09081 76.7119 4.13266 79.906 3.99064C83.1001 3.84862 86.2771 4.52751 89.1306 5.96185C91.9841 7.39618 94.4176 9.53753 96.1966 12.1793C98.3338 11.4996 100.594 11.2884 102.821 11.5603C105.048 11.8322 107.189 12.5807 109.098 13.7544C111.006 14.928 112.636 16.4988 113.875 18.3588C115.115 20.2188 115.934 22.3238 116.277 24.5288C116.554 26.3352 116.507 28.1761 116.138 29.9662C115.917 31.0734 115.572 32.1527 115.111 33.1841C116.935 35.462 118.116 38.1818 118.532 41.0638Z" fill="#F7FDFF"/>
<path d="M118.703 43.3907C118.706 47.1002 117.452 50.7027 115.143 53.6159C112.833 56.5291 109.603 58.5827 105.975 59.445C102.347 60.3072 98.532 59.9277 95.1474 58.3677C91.7628 56.8077 89.0062 54.1584 87.3229 50.8479C85.5955 53.6145 83.2343 55.9353 80.4322 57.6206C77.6301 59.3059 74.4666 60.3079 71.2005 60.5446C67.9344 60.7813 64.6583 60.246 61.6401 58.9825C58.6219 57.719 55.9472 55.7631 53.8348 53.2748C53.2432 53.379 52.6437 53.433 52.043 53.4361C50.7167 53.4361 49.4034 53.1762 48.1782 52.6713C46.953 52.1664 45.8399 51.4263 44.9025 50.4934C43.965 49.5605 43.2216 48.453 42.7148 47.2343C42.208 46.0156 41.9476 44.7095 41.9486 43.3907C41.9486 43.1065 41.9486 42.83 41.995 42.5612C39.0907 39.1841 37.4965 34.8857 37.5 30.4422C37.4985 29.6718 37.5475 28.9022 37.6468 28.1382C38.0969 31.7562 39.6093 35.1621 41.995 37.9302C41.995 38.2067 41.9486 38.4831 41.9486 38.7596C41.9476 40.0784 42.208 41.3845 42.7148 42.6033C43.2216 43.822 43.965 44.9295 44.9025 45.8624C45.8399 46.7953 46.953 47.5353 48.1782 48.0403C49.4034 48.5452 50.7167 48.8051 52.043 48.8051C52.6444 48.8007 53.2442 48.7416 53.8348 48.6284C55.9435 51.1201 58.6155 53.0799 61.6321 54.3475C64.6488 55.6152 67.9244 56.1545 71.191 55.9216C74.4576 55.6886 77.6222 54.6899 80.4261 53.0071C83.23 51.3243 85.5933 49.0054 87.3229 46.2399C88.9143 49.3743 91.4708 51.9214 94.6198 53.51C97.7688 55.0985 101.346 55.6454 104.829 55.0711C108.313 54.4968 111.521 52.8312 113.986 50.3171C116.451 47.803 118.044 44.5718 118.533 41.0943C118.646 41.8545 118.703 42.6221 118.703 43.3907Z" fill="#D4E0E6"/>
<path d="M83.4072 36.7935C82.948 39.2218 81.7752 41.4601 80.0369 43.2256C78.2987 44.9911 76.0731 46.2045 73.6415 46.7125C71.2099 47.2205 68.6814 47.0003 66.3757 46.0796C64.0699 45.159 62.0904 43.5792 60.6873 41.5401C59.2843 39.5009 58.5206 37.0939 58.493 34.6233C58.4653 32.1527 59.1748 29.7294 60.5319 27.6596C61.8889 25.5899 63.8326 23.9667 66.1171 22.9952C68.4017 22.0237 70.9246 21.7475 73.367 22.2015C74.8908 22.4843 76.3475 23.0497 77.6611 23.8681C79.8156 25.196 81.5149 27.1418 82.5352 29.4492C83.5554 31.7565 83.8487 34.3171 83.3763 36.7935H83.4072Z" fill="#CFDEE6"/>
<path d="M83.4075 34.9047C82.8414 37.8722 81.2116 40.5346 78.8208 42.3975C76.43 44.2605 73.4406 45.1974 70.4076 45.0344C67.3746 44.8714 64.5042 43.6194 62.3292 41.511C60.1543 39.4027 58.8227 36.5811 58.5816 33.5702C58.3405 30.5594 59.2063 27.5638 61.0183 25.1397C62.8303 22.7157 65.4654 21.0278 68.4342 20.3896C71.403 19.7513 74.5039 20.2061 77.161 21.6693C79.8182 23.1326 81.8511 25.505 82.8823 28.346C83.6438 30.4462 83.8251 32.7111 83.4075 34.9047Z" fill="#E6EEF2"/>
<path d="M82.8817 28.3457L63.8824 42.8456C61.5671 41.2534 59.8585 38.9321 59.0322 36.2561L77.6608 21.979C80.0766 23.4513 81.9176 25.6963 82.8817 28.3457Z" fill="#FAFDFF"/>
<path d="M99.0158 31.556C98.4946 34.3045 97.0612 36.7996 94.945 38.6419C92.8288 40.4842 90.1522 41.5673 87.3436 41.7177C84.535 41.8682 81.7569 41.0773 79.4539 39.4717C77.151 37.866 75.4563 35.5385 74.6412 32.8616C74.0507 30.938 73.942 28.9 74.3245 26.925C74.6261 25.31 75.2453 23.77 76.1466 22.3935C77.0479 21.0169 78.2137 19.8309 79.577 18.9033C80.9403 17.9757 82.4744 17.3249 84.0912 16.9882C85.708 16.6515 87.3757 16.6354 88.9987 16.941C90.5259 17.2207 91.9857 17.7862 93.3006 18.6076C95.4573 19.9336 97.1588 21.8789 98.1806 24.1865C99.2023 26.4942 99.4963 29.0558 99.0236 31.533L99.0158 31.556Z" fill="#FAA957"/>
<path d="M99.0156 29.682C98.4954 32.4308 97.0628 34.9265 94.9472 36.7697C92.8315 38.6129 90.1551 39.6969 87.3464 39.8482C84.5378 39.9995 81.7593 39.2094 79.4557 37.6044C77.1521 35.9993 75.4568 33.6721 74.641 30.9953C74.0508 29.0716 73.9421 27.0336 74.3243 25.0586C74.6249 23.4431 75.2435 21.9026 76.1446 20.5256C77.0456 19.1485 78.2114 17.962 79.575 17.0343C80.9385 16.1066 82.4729 15.4559 84.0901 15.1196C85.7073 14.7833 87.3754 14.768 88.9985 15.0746C90.5252 15.3518 91.985 15.9147 93.3004 16.7335C95.4571 18.0596 97.1586 20.0048 98.1803 22.3125C99.2021 24.6202 99.496 27.1817 99.0233 29.6589L99.0156 29.682Z" fill="#FFCC66"/>
<path d="M98.5142 23.1236L79.4918 37.6311C77.1706 36.0246 75.4619 33.6869 74.6416 30.9956L93.2933 16.7568C95.7051 18.2337 97.5448 20.4771 98.5142 23.1236Z" fill="#FFEC8C"/>
<path d="M94.3661 173.989C94.3697 176.337 93.5539 178.613 92.0579 180.429C90.5619 182.245 88.4785 183.488 86.1632 183.947C83.8479 184.405 81.4443 184.051 79.3627 182.944C77.281 181.836 75.6504 180.045 74.749 177.875C74.749 171.939 75.5754 170.641 78.6107 171.793C81.6459 172.945 84.6503 171.7 86.7278 169.635C88.1643 168.214 90.7053 167.331 92.7365 168.498C93.8006 170.134 94.3665 172.041 94.3661 173.989Z" fill="white"/>
</g>
<defs>
<clipPath id="clip0_4967_11477">
<rect width="165" height="192" fill="white" transform="translate(37.5 4)"/>
</clipPath>
</defs>
</svg>
