<svg width="88" height="96" viewBox="0 0 88 96" fill="none" xmlns="http://www.w3.org/2000/svg">
<path d="M63.8225 33.9121L63.6153 36.1612L62.895 44.0533L55.4749 46.657L52.2796 42.901L52.176 36.2288L52.1436 34.175L63.8225 33.9121Z" fill="#FFD2A6"/>
<path d="M68.0092 22.7684C69.2954 21.4418 72.7658 20.1647 71.9403 25.5734C71.1148 30.982 65.4385 31.0015 65.4385 31.0015L66.0692 25.372L68.0092 22.7684Z" fill="#E6A48A"/>
<path d="M48.4521 22.7684C47.1659 21.4418 43.6955 20.1647 44.521 25.5734C45.3464 30.982 51.0228 31.0015 51.0228 31.0015L50.3921 25.372L48.4521 22.7684Z" fill="#E6A48A"/>
<path d="M63.8225 33.9121L63.6169 36.1657C63.2721 36.5744 62.9321 36.95 62.609 37.2895C61.9033 38.0327 61.0471 38.626 60.0942 39.0321C59.1413 39.4383 58.1123 39.6486 57.0717 39.6498C55.11 39.5491 53.4915 38.2015 52.176 36.2333L52.1436 34.1795L63.8225 33.9121Z" fill="#E6A48A"/>
<path d="M47.3327 17.7113C47.5939 21.9616 50.2698 37.2936 57.0716 37.6436C58.1121 37.6428 59.1413 37.4327 60.0943 37.0265C61.0472 36.6203 61.9034 36.0268 62.6088 35.2834C64.9755 32.7924 68.1661 28.4429 68.6129 22.7699C69.3348 13.6052 63.5641 10.6004 60.678 10.3C57.7919 9.99949 47.0235 12.7038 47.3327 17.7113Z" fill="#FFD2A6"/>
<path d="M70.887 7.44484C70.887 7.44484 66.5587 6.297 64.4718 5.36702C61.7232 4.14406 49.0395 1.23542 46.0761 11.0506C45.7499 12.1338 45.9308 13.3042 46.3157 14.3709C42.7603 18.5416 48.2187 23.5566 48.2187 23.5566L48.6221 18.6828C48.65 18.3043 48.7737 17.9384 48.9823 17.6176C50.0366 16.019 53.2164 14.3784 63.4206 15.0635C63.6135 15.0769 63.7977 15.1466 63.9491 15.2635C64.1006 15.3804 64.2121 15.539 64.2692 15.7186L64.733 17.221C64.7969 17.4296 64.9147 17.619 65.0752 17.771C65.2356 17.923 65.4334 18.0326 65.6497 18.0893C69.4525 19.0899 68.6765 23.2591 68.6765 23.2591C71.83 18.9021 70.3676 14.446 68.6765 12.0392C70.1945 9.92079 70.887 7.44484 70.887 7.44484Z" fill="#D9B582"/>
<path d="M73.9043 54.8111C73.77 56.3648 73.4843 57.9027 73.051 59.4039L67.7163 77.8144C67.4626 78.6875 67.0045 79.4918 66.3777 80.1643C65.751 80.8367 64.9726 81.3591 64.1036 81.6905C61.893 82.5364 58.5803 83.5235 54.8146 83.7143C50.1987 83.9502 44.9026 82.9916 40.1182 79.1094L40.7149 65.2873L41.024 58.3237L41.4553 48.3703L41.4661 48.1074L52.2686 41.6982L54.0911 43.0984C56.8211 44.751 60.2529 44.8367 63.2781 39.9434L69.9253 44.8863L71.2686 45.8854C72.0687 46.4812 72.7239 47.2411 73.1875 48.111C73.651 48.9809 73.9116 49.9395 73.9507 50.9184L73.9847 51.8018C74.0204 52.8056 73.9935 53.8105 73.9043 54.8111Z" fill="#93D982"/>
<path d="M54.8102 83.7151C50.1943 83.951 44.8982 82.9924 40.1138 79.1102L40.7105 65.2882L42.7912 64.3867L52.139 69.0937L50.9456 71.0694C50.9456 74.603 51.0352 80.0387 54.8102 83.7151Z" fill="#81BF72"/>
<path d="M58.9641 65.2982L68.7695 59.849C69.1786 59.6224 69.4943 59.2651 69.663 58.8379L71.4314 54.3923L63.0235 54.0918L50.9458 61.8427L56.1198 66.1546L58.9641 65.2982Z" fill="#81BF72"/>
<path d="M55.3204 91.5895C52.7234 92.4338 50.7756 91.899 49.3225 90.5859C47.9467 89.3419 47.0146 87.4008 46.3993 85.2719C45.9946 83.8285 45.7093 82.356 45.546 80.8684C45.3866 79.4967 45.3096 78.1171 45.3157 76.7368C45.3157 75.4732 45.4084 74.5012 45.5182 74.0324L45.209 71.863L45.022 70.5844L48.5774 69.2713L49.0891 69.082L49.3735 70.6385C49.103 71.8662 48.9759 73.1196 48.9948 74.375C49.0261 76.2707 49.4416 78.1418 50.2176 79.8813C50.7681 81.1083 51.471 82.2652 52.3107 83.3263C53.0347 84.2324 53.823 85.0884 54.6696 85.8879L55.0623 86.2665C57.0456 88.1986 57.7845 90.7917 55.3204 91.5895Z" fill="#A69084"/>
<path d="M48.9901 74.3864C47.882 75.3309 46.6456 76.1231 45.3156 76.7407C45.3156 75.4771 45.4084 74.5051 45.5182 74.0363L45.209 71.8669L48.5805 69.2752L49.0922 69.0859L49.3766 70.6424C49.1029 71.8723 48.9732 73.1282 48.9901 74.3864Z" fill="#665C57"/>
<path d="M52.3105 83.3257C50.8791 84.2091 48.7041 85.2533 46.3992 85.2698C45.9945 83.8264 45.7092 82.3539 45.5459 80.8663C47.1567 80.7626 48.9128 80.4501 50.2128 79.8867C50.7652 81.1119 51.4697 82.2668 52.3105 83.3257Z" fill="#806F66"/>
<path d="M55.3202 91.5888C52.7231 92.4331 50.7754 91.8983 49.3223 90.5852C51.4865 89.5816 53.6507 87.4587 54.6694 85.8887L55.062 86.2673C57.0453 88.1979 57.7843 90.791 55.3202 91.5888Z" fill="#806F66"/>
<path d="M33.9954 57.5687C33.9954 57.5687 30.6378 57.1735 29.194 61.1744C27.7502 65.1753 26.9572 70.2865 22.8112 70.6455C21.8374 70.7276 20.8566 70.677 19.8973 70.4953C19.542 70.4244 19.173 70.4588 18.8381 70.594C18.5032 70.7293 18.2179 70.9592 18.019 71.254L17.8861 71.4568C17.6598 71.7938 17.5597 72.1961 17.6024 72.5964C17.6452 72.9966 17.8283 73.3703 18.1211 73.6549L19.4103 74.9124C19.7285 75.2206 20.1247 75.4419 20.5589 75.554C20.9931 75.6661 21.45 75.665 21.8837 75.5509L23.2749 75.1798C23.6555 75.0782 24.0068 74.8926 24.3014 74.6374C25.1006 73.9493 27.2957 72.5491 31.7787 72.7294C32.5516 72.7609 32.9288 72.1029 33.1097 71.3772C33.4652 69.9379 34.7436 69.3445 36.5801 68.2778C39.5172 66.571 38.5665 61.1894 38.5665 61.1894L36.0421 57.2832L33.9954 57.5687Z" fill="#665C57"/>
<path d="M47.9224 70.1426C47.9224 70.8382 47.3566 71.8508 46.5141 72.9085C45.2372 74.5085 43.3219 76.2138 41.7683 77.0551C39.8901 78.0782 37.44 81.1672 36.245 82.7642C35.7663 83.4058 35.0763 83.8691 34.2895 84.0773L30.3089 85.129C29.7273 85.2823 29.107 85.2084 28.5807 84.9232L27.9345 84.5731C27.5069 84.342 27.166 83.9847 26.9611 83.5529C26.7561 83.1211 26.6978 82.6371 26.7945 82.171C26.8913 81.7048 27.138 81.2806 27.4991 80.9597C27.8602 80.6389 28.3169 80.4379 28.8033 80.3859L31.3648 80.1095C32.0833 80.0342 32.7608 79.7469 33.3063 79.2862C34.7455 78.0677 36.9793 75.3018 34.9156 70.8953C32.0295 64.7354 34.761 63.6297 36.0255 62.3977L37.2498 61.8418L39.7077 60.7285L46.0674 63.4328C46.0674 63.4328 46.7336 65.2147 47.2685 67.0206C47.6256 68.227 47.9224 69.4424 47.9224 70.1426Z" fill="#806F66"/>
<path d="M47.9218 70.1426C47.9218 70.8382 47.356 71.8508 46.5135 72.9085H46.4625C41.4941 72.9085 36.0249 62.3917 36.0249 62.3917L37.2492 61.8418H39.1398L47.2679 67.0206C47.625 68.227 47.9218 69.4424 47.9218 70.1426Z" fill="#665C57"/>
<path d="M59.6999 67.0899L58.1974 70.1052C57.9464 70.6109 57.546 71.0324 57.0473 71.3158C56.5487 71.5993 55.9744 71.7317 55.3978 71.6963C53.5328 71.5854 51.685 71.2832 49.8853 70.7948C48.411 70.4001 46.9994 69.8107 45.6899 69.0431C43.7881 67.8968 41.9941 66.5897 40.3289 65.1368C34.0233 59.629 31.652 53.651 30.8327 50.831C30.69 50.342 30.6576 49.8289 30.7376 49.3267C30.8177 48.8244 31.0083 48.3449 31.2965 47.9208L32.7588 45.7694L34.096 43.8027L34.9215 49.1858L52.15 64.961H57.0627L58.7307 65.2435C58.934 65.2789 59.1261 65.3596 59.292 65.4792C59.4579 65.5988 59.5931 65.7541 59.6869 65.9329C59.7808 66.1117 59.8308 66.3092 59.8331 66.5099C59.8353 66.7106 59.7898 66.9092 59.6999 67.0899Z" fill="#81BF72"/>
<path d="M40.3211 65.1467C34.0155 59.6389 31.6442 53.6609 30.8249 50.8409C30.6822 50.3519 30.6498 49.8388 30.7298 49.3366C30.8099 48.8344 31.0005 48.3548 31.2886 47.9307L32.751 45.7793C31.7215 48.6203 35.4439 58.4115 40.3211 65.1467Z" fill="#93D982"/>
<path d="M59.7001 67.0901L58.1975 70.1055C57.9465 70.6112 57.5461 71.0326 57.0475 71.3161C56.5488 71.5995 55.9745 71.7319 55.398 71.6965C53.5329 71.5856 51.6851 71.2834 49.8854 70.7951C49.7243 69.8469 49.7861 68.8756 50.0663 67.954C50.441 66.7762 51.1635 65.7314 52.1439 64.9492H57.0567L58.7246 65.2317C58.9289 65.2662 59.1221 65.3463 59.2891 65.4658C59.4561 65.5852 59.5922 65.7407 59.6868 65.92C59.7813 66.0994 59.8318 66.2976 59.8341 66.4991C59.8364 66.7006 59.7905 66.8998 59.7001 67.0811V67.0901Z" fill="#FFD2A6"/>
<path d="M58.9638 65.2982L54.9802 67.6705C53.9814 68.2638 52.7904 68.4728 51.6411 68.2565L50.0659 67.956C50.4406 66.7782 51.1631 65.7333 52.1435 64.9512H57.0563L58.7242 65.2336C58.806 65.2479 58.8862 65.2695 58.9638 65.2982Z" fill="#E6A48A"/>
<path d="M54.8447 50.8197C54.7269 51.722 54.5309 52.6131 54.2588 53.4834C54.2511 53.5059 54.2433 53.5285 54.2371 53.5495C54.1085 53.9396 53.8814 54.2922 53.5765 54.5751C53.2717 54.858 52.8988 55.0622 52.4919 55.1691L50.3076 55.74C49.7941 55.8743 49.2554 55.8891 48.7349 55.7834C48.2144 55.6777 47.7269 55.4544 47.3117 55.1315L35.6421 46.0571C36.1596 45.2541 36.6079 44.4109 36.9823 43.536C37.6811 41.9104 38.2608 39.7981 37.5883 38.1544L41.5612 36.3936L50.2921 32.5234C50.4962 34.6869 51.4283 36.5799 52.6959 38.9237C52.9309 39.3594 53.1782 39.8116 53.4348 40.2848C53.6683 40.7255 53.8662 41.1831 54.0269 41.6535C54.3478 42.5912 54.5862 43.5537 54.7395 44.5306C54.9016 45.5366 54.994 46.552 55.0163 47.57C55.0443 48.6559 54.9869 49.7423 54.8447 50.8197Z" fill="#806F66"/>
<path d="M42.7956 49.4453L38.0575 47.6334L36.9754 43.5348C35.5022 38.5439 36.2025 38.341 36.8981 37.2668L41.5542 36.3924L49.8632 35.3633C49.8632 43.1247 40.5556 41.8987 42.7956 49.4453Z" fill="#665C57"/>
<path d="M69.57 57.4207L69.5577 57.4298L54.6788 66.3901C53.9461 66.8314 53.0864 67.0311 52.2275 66.9597C51.3686 66.8882 50.5563 66.5494 49.9114 65.9934L41.0166 58.3312L36.1781 54.159C35.7544 53.7953 35.4628 53.3084 35.3464 52.7708C34.6199 49.3724 36.5692 47.7197 37.7579 47.0437C37.9914 46.9131 38.2571 46.8468 38.5264 46.8518C38.7958 46.8569 39.0586 46.933 39.2868 47.0722L41.451 48.3733L51.2548 54.2762C51.9085 54.6698 52.6651 54.8722 53.434 54.8591C54.2029 54.8461 54.9517 54.6181 55.5909 54.2026L64.2662 48.5611C65.8414 47.5365 69.3428 47.0587 71.0432 50.2137C72.7437 53.3688 70.5903 56.7897 69.57 57.4207Z" fill="#A4F291"/>
<path d="M50.2187 53.1184L49.5293 52.9396C48.9608 52.7922 48.3565 52.8504 47.8289 53.1034L41.9793 55.9008C41.591 56.0872 41.2769 56.393 41.0858 56.7707C41.0082 56.9219 40.9521 57.0826 40.9189 57.2485L40.6839 58.4143C40.5096 59.2836 40.1219 60.099 39.5537 60.7914C38.9856 61.4838 38.2538 62.0326 37.4206 62.3912C37.191 62.4896 36.9397 62.5307 36.6896 62.511C36.4394 62.4913 36.1983 62.4114 35.9879 62.2784C35.7776 62.1453 35.6046 61.9635 35.4847 61.7492C35.3648 61.5349 35.3018 61.295 35.3013 61.0511C35.3018 60.918 35.3205 60.7857 35.3569 60.6574L36.8487 55.4531L37.3418 53.7148C37.5237 53.0794 37.8368 52.4867 38.262 51.9727C38.6872 51.4586 39.2157 51.0342 39.8152 50.7251L42.3349 49.4315L44.0353 48.5586L50.2187 53.1184Z" fill="#806F66"/>
<path d="M41.0849 56.7707C41.0073 56.9219 40.9511 57.0826 40.9179 57.2484L40.683 58.4143C40.5086 59.2835 40.1209 60.099 39.5527 60.7914C38.9846 61.4838 38.2528 62.0326 37.4197 62.3912C37.19 62.4895 36.9387 62.5307 36.6886 62.511C36.4385 62.4913 36.1973 62.4113 35.9869 62.2783C35.7766 62.1453 35.6036 61.9634 35.4838 61.7491C35.3639 61.5349 35.3008 61.2949 35.3003 61.051C35.3008 60.918 35.3195 60.7856 35.3559 60.6574L36.8477 55.4531C37.4552 54.8611 39.4354 53.7388 41.0849 56.7707Z" fill="#99857A"/>
<path d="M41.1415 54.3565C40.9734 54.4153 40.7961 54.4453 40.6175 54.4451H40.5185C39.9013 54.4104 39.3179 54.1597 38.876 53.7394C38.4341 53.319 38.1637 52.7575 38.1147 52.1585C38.5614 51.5607 39.1431 51.0704 39.8152 50.7252L42.3349 49.4316L42.777 51.562C42.8961 52.1412 42.7963 52.7426 42.4959 53.2559C42.1954 53.7692 41.7145 54.16 41.1415 54.3565Z" fill="#665C57"/>
<path d="M35.5321 51.8661L34.5675 50.6642C34.2581 50.2776 34.0901 49.8018 34.0898 49.312V40.3758C34.0903 39.7432 34.319 39.1307 34.736 38.645L35.4564 37.8037C35.5124 37.7395 35.5873 37.6935 35.6709 37.6719C35.7546 37.6504 35.8431 37.6543 35.9245 37.6831C36.0058 37.7119 36.0761 37.7642 36.1259 37.8331C36.1757 37.9019 36.2026 37.9839 36.203 38.0681V39.6501C36.2028 39.7511 36.2331 39.85 36.29 39.9345C36.347 40.019 36.4282 40.0854 36.5236 40.1255C36.619 40.1656 36.7244 40.1777 36.8268 40.1602C36.9291 40.1428 37.024 40.0965 37.0996 40.0272L37.1197 40.0092C37.3073 39.8392 37.5525 39.7419 37.8089 39.7358C38.0653 39.7298 38.3151 39.8152 38.511 39.9761C38.6274 40.0715 38.7209 40.1904 38.785 40.3246C38.8491 40.4588 38.8822 40.6049 38.882 40.7529V45.5005L35.5321 51.8661Z" fill="#FFD2A6"/>
<path d="M38.0536 45.1543L38.3473 50.8875C38.3829 51.4968 38.6476 52.0721 39.0911 52.5042C39.5345 52.9363 40.1258 53.195 40.7526 53.2312C40.9626 53.2439 41.173 53.2147 41.371 53.1456C41.9434 52.9492 42.4238 52.5588 42.7241 52.0462C43.0245 51.5335 43.1247 50.9328 43.0065 50.3541L41.8409 44.7141C41.7491 44.284 41.5033 43.8994 41.1472 43.6287C40.7912 43.358 40.3479 43.2188 39.8962 43.2358C39.6449 43.2419 39.3973 43.2967 39.168 43.3969C38.9387 43.4971 38.7323 43.6407 38.5607 43.8193C38.3892 43.9979 38.2559 44.208 38.1689 44.4372C38.0818 44.6664 38.0426 44.9102 38.0536 45.1543Z" fill="#99857A"/>
<path d="M56.8196 26.6191L56.1549 29.4316C56.1103 29.6194 56.1098 29.8144 56.1535 30.0024C56.1971 30.1903 56.2839 30.3663 56.4072 30.5172C56.5305 30.668 56.6872 30.7899 56.8656 30.8738C57.0441 30.9577 57.2397 31.0014 57.438 31.0016H58.6963C58.8921 31.0018 59.0855 30.9595 59.2623 30.8779C59.4392 30.7964 59.5952 30.6775 59.719 30.5301C59.8427 30.3826 59.9311 30.2102 59.9778 30.0254C60.0244 29.8406 60.0281 29.6481 59.9886 29.4617L59.3966 26.6492C59.3359 26.3593 59.1739 26.0987 58.9381 25.9117C58.7023 25.7246 58.4071 25.6227 58.1027 25.623C57.8045 25.6239 57.5154 25.7227 57.2824 25.9036C57.0494 26.0845 56.8863 26.3367 56.8196 26.6191Z" fill="#E6A48A"/>
<path d="M58.4497 34.6824C57.1975 34.6824 55.9083 34.2437 55.2034 33.5541C55.1165 33.4694 55.0677 33.3546 55.0679 33.235C55.068 33.1154 55.117 33.0008 55.2042 32.9163C55.2913 32.8318 55.4094 32.7845 55.5324 32.7846C55.6555 32.7847 55.7735 32.8324 55.8604 32.9171C56.4648 33.5045 57.7154 33.8621 58.8207 33.7644C59.5936 33.6983 60.1949 33.4189 60.5103 32.9787C60.5435 32.9267 60.5872 32.8818 60.6388 32.8468C60.6904 32.8118 60.7488 32.7874 60.8104 32.775C60.872 32.7626 60.9356 32.7625 60.9973 32.7748C61.0589 32.787 61.1174 32.8113 61.169 32.8463C61.2207 32.8812 61.2645 32.9259 61.2978 32.9778C61.3311 33.0297 61.3532 33.0877 61.3627 33.1481C61.3723 33.2086 61.369 33.2703 61.3532 33.3295C61.3374 33.3887 61.3094 33.4441 61.2709 33.4925C60.7978 34.1565 59.9553 34.5712 58.9026 34.6629C58.7496 34.6764 58.5996 34.6824 58.4497 34.6824Z" fill="#E6A48A"/>
<path d="M53.7438 25.7539H53.6309C52.5488 25.7209 51.5703 25.2056 51.1313 24.4408C51.0712 24.3365 51.0563 24.2131 51.0898 24.098C51.1233 23.9829 51.2024 23.8855 51.3098 23.8271C51.4172 23.7687 51.5441 23.7542 51.6625 23.7868C51.781 23.8193 51.8812 23.8962 51.9413 24.0006C52.2211 24.4874 52.9121 24.83 53.6603 24.8525C54.0181 24.8773 54.3763 24.81 54.6987 24.6572C55.0212 24.5045 55.2964 24.2718 55.4968 23.9826C55.5261 23.926 55.5673 23.876 55.6178 23.8359C55.6684 23.7958 55.727 23.7666 55.79 23.75C55.8529 23.7335 55.9188 23.73 55.9832 23.7399C56.0476 23.7497 56.1092 23.7726 56.1638 23.8072C56.2185 23.8417 56.2651 23.8871 56.3005 23.9403C56.3359 23.9935 56.3594 24.0534 56.3694 24.1161C56.3794 24.1787 56.3757 24.2427 56.3585 24.3038C56.3413 24.3649 56.311 24.4219 56.2697 24.4709C55.9953 24.8756 55.6195 25.2057 55.1776 25.4301C54.7357 25.6546 54.2422 25.766 53.7438 25.7539Z" fill="#665347"/>
<path d="M62.7047 25.7539H62.5919C61.5098 25.7209 60.5312 25.2056 60.0922 24.4408C60.0322 24.3365 60.0172 24.2131 60.0507 24.098C60.0842 23.9829 60.1634 23.8855 60.2708 23.8271C60.3782 23.7687 60.5051 23.7542 60.6235 23.7868C60.7419 23.8193 60.8422 23.8962 60.9022 24.0006C61.182 24.4874 61.873 24.83 62.6212 24.8525C62.979 24.8773 63.3372 24.81 63.6597 24.6572C63.9821 24.5045 64.2574 24.2718 64.4577 23.9826C64.487 23.926 64.5283 23.876 64.5788 23.8359C64.6293 23.7958 64.688 23.7666 64.7509 23.75C64.8139 23.7335 64.8797 23.73 64.9441 23.7399C65.0085 23.7497 65.0701 23.7726 65.1248 23.8072C65.1795 23.8417 65.226 23.8871 65.2614 23.9403C65.2969 23.9935 65.3203 24.0534 65.3303 24.1161C65.3403 24.1787 65.3366 24.2427 65.3194 24.3038C65.3022 24.3649 65.272 24.4219 65.2306 24.4709C64.9563 24.8756 64.5804 25.2057 64.1385 25.4301C63.6966 25.6546 63.2032 25.766 62.7047 25.7539Z" fill="#665347"/>
<path d="M65.8835 21.9061C65.8534 21.9058 65.8235 21.9033 65.7938 21.8986C65.2775 21.8009 60.7234 20.9355 59.8176 20.5089C59.7627 20.483 59.7137 20.4469 59.6732 20.4027C59.6328 20.3584 59.6017 20.3068 59.5817 20.2509C59.5618 20.1949 59.5534 20.1357 59.557 20.0766C59.5606 20.0175 59.5761 19.9597 59.6027 19.9064C59.6293 19.8531 59.6664 19.8055 59.712 19.7661C59.7575 19.7268 59.8106 19.6966 59.8681 19.6772C59.9257 19.6578 59.9866 19.6496 60.0474 19.6531C60.1082 19.6566 60.1678 19.6717 60.2226 19.6976C60.8255 19.9815 63.9914 20.6396 65.9716 21.0137C66.0839 21.0358 66.1838 21.0976 66.2521 21.1871C66.3203 21.2767 66.352 21.3876 66.341 21.4984C66.3301 21.6093 66.2773 21.7124 66.1928 21.7876C66.1083 21.8629 65.9981 21.9051 65.8835 21.9061Z" fill="#665347"/>
<path d="M50.992 22.0634C50.8809 22.0633 50.7735 22.0244 50.6894 21.9538C50.6053 21.8832 50.5501 21.7856 50.5338 21.6788C50.5175 21.572 50.5412 21.463 50.6007 21.3717C50.6601 21.2805 50.7512 21.213 50.8575 21.1815L55.9867 19.6791C56.0457 19.6592 56.1083 19.6512 56.1706 19.6554C56.233 19.6596 56.2938 19.676 56.3494 19.7036C56.4051 19.7313 56.4544 19.7696 56.4944 19.8162C56.5345 19.8628 56.5644 19.9168 56.5825 19.975C56.6005 20.0331 56.6062 20.0942 56.5994 20.1546C56.5925 20.2149 56.5732 20.2733 56.5425 20.3262C56.5118 20.3791 56.4705 20.4255 56.4209 20.4625C56.3714 20.4995 56.3146 20.5263 56.2541 20.5415L51.1265 22.0439C51.083 22.057 51.0376 22.0636 50.992 22.0634Z" fill="#665347"/>
<path d="M49.2741 30.7814C51.3224 27.7977 50.2016 24.3046 49.5833 22.8758C49.5014 22.6823 49.3454 22.5271 49.1482 22.4431C48.951 22.359 48.7279 22.3526 48.5259 22.4251C46.507 23.1763 44.4186 25.3052 43.978 25.7724L46.7606 28.5263L49.2741 30.7814Z" fill="#665C57"/>
<path d="M42.794 40.2053C46.9373 40.2053 50.296 36.941 50.296 32.9142C50.296 28.8874 46.9373 25.623 42.794 25.623C38.6508 25.623 35.292 28.8874 35.292 32.9142C35.292 36.941 38.6508 40.2053 42.794 40.2053Z" fill="#806F66"/>
<path d="M39.7755 26.4581C39.7755 26.4581 37.9421 24.6868 34.8164 24.2045C34.7021 24.1876 34.5854 24.1941 34.4738 24.2234C34.3622 24.2528 34.2581 24.3045 34.1682 24.3752C34.0783 24.4459 34.0045 24.534 33.9517 24.634C33.8988 24.734 33.8679 24.8435 33.8611 24.9557C33.7699 26.4927 33.7791 29.7634 35.2276 31.9659C35.254 32.0053 35.2904 32.0373 35.3333 32.0591C35.3761 32.0808 35.424 32.0914 35.4723 32.0899C35.5206 32.0884 35.5677 32.0748 35.6091 32.0504C35.6504 32.0261 35.6846 31.9918 35.7084 31.9509L36.2989 30.9578C36.9497 29.8612 37.8146 28.8987 38.8449 28.1243L39.4725 27.6525C39.6566 27.5159 39.7874 27.3225 39.8436 27.1042C39.8998 26.8858 39.8779 26.6553 39.7817 26.4506L39.7755 26.4581Z" fill="#665C57"/>
<path d="M45.1039 32.4103C45.088 32.4118 45.0719 32.4118 45.056 32.4103C45.0261 32.4043 44.9978 32.3925 44.9726 32.3758C44.9474 32.359 44.9259 32.3376 44.9092 32.3128C44.8925 32.2879 44.8811 32.2601 44.8755 32.231C44.8699 32.2018 44.8703 32.1719 44.8766 32.1429C45.008 31.5419 45.4115 30.7637 46.1133 30.5609C46.6915 30.3941 47.3191 30.636 47.9807 31.279C48.0024 31.2998 48.0196 31.3246 48.0314 31.352C48.0431 31.3793 48.0492 31.4086 48.0492 31.4383C48.0492 31.4679 48.0431 31.4972 48.0314 31.5246C48.0196 31.5519 48.0024 31.5767 47.9807 31.5975C47.937 31.6394 47.8782 31.6628 47.8169 31.6628C47.7555 31.6628 47.6967 31.6394 47.653 31.5975C47.2882 31.2415 46.7456 30.8463 46.2447 30.9966C45.7701 31.1333 45.4424 31.7192 45.3296 32.2391C45.3171 32.288 45.2881 32.3315 45.2472 32.3626C45.2063 32.3936 45.1558 32.4105 45.1039 32.4103Z" fill="#404040"/>
<path d="M39.139 33.461C39.1007 33.4606 39.0632 33.4512 39.0296 33.4334C38.996 33.4156 38.9674 33.3901 38.9463 33.3591C38.9253 33.3281 38.9124 33.2926 38.9088 33.2556C38.9051 33.2186 38.9109 33.1813 38.9256 33.147C39.3337 32.2155 39.8052 31.7107 40.3648 31.604C41.062 31.4733 41.7113 32.0097 42.1379 32.4243C42.1816 32.4666 42.2062 32.5239 42.2063 32.5838C42.2065 32.6437 42.1821 32.7011 42.1387 32.7436C42.0952 32.786 42.0362 32.8099 41.9746 32.8101C41.913 32.8102 41.8538 32.7866 41.8102 32.7443C41.2506 32.199 40.8193 31.9781 40.4529 32.0472C40.0618 32.1208 39.6908 32.5505 39.3538 33.3228C39.3359 33.3637 39.306 33.3987 39.2678 33.4233C39.2296 33.4479 39.1848 33.461 39.139 33.461Z" fill="#404040"/>
<path d="M42.8591 35.1807L43.7959 36.0416C43.8517 36.0925 43.9181 36.1311 43.9906 36.1549C44.0631 36.1786 44.14 36.1869 44.2161 36.1792C44.2922 36.1715 44.3657 36.148 44.4317 36.1103C44.4976 36.0725 44.5544 36.0214 44.5982 35.9605L45.3356 34.9298C45.3939 34.8486 45.427 34.7527 45.4309 34.6537C45.4348 34.5547 45.4093 34.4567 45.3575 34.3714C45.3057 34.2861 45.2297 34.217 45.1387 34.1724C45.0477 34.1279 44.9454 34.1097 44.844 34.12L43.1698 34.2898C43.0686 34.3003 42.9727 34.3388 42.8932 34.4006C42.8138 34.4625 42.7543 34.5451 42.7216 34.6388C42.6889 34.7324 42.6845 34.8332 42.7089 34.9293C42.7332 35.0253 42.7854 35.1125 42.8591 35.1807Z" fill="#404040"/>
<path d="M42.7524 38.2012C42.0506 38.2012 41.3132 37.8346 40.7876 37.1825C40.7677 37.1594 40.7529 37.1326 40.7439 37.1037C40.7349 37.0748 40.7319 37.0445 40.7352 37.0145C40.7385 36.9845 40.7479 36.9555 40.7629 36.9291C40.778 36.9027 40.7983 36.8796 40.8227 36.861C40.8471 36.8424 40.8751 36.8287 40.9051 36.8208C40.935 36.8129 40.9663 36.8109 40.9971 36.815C41.0278 36.8191 41.0574 36.8291 41.0841 36.8445C41.1108 36.8599 41.134 36.8803 41.1524 36.9046C41.7398 37.6333 42.6272 37.9352 43.3073 37.6378C43.9875 37.3403 44.2488 36.5861 44.0648 35.6065C44.054 35.5476 44.0675 35.4869 44.1026 35.4376C44.1376 35.3884 44.1913 35.3546 44.2518 35.3436C44.2818 35.3382 44.3126 35.3386 44.3424 35.3449C44.3722 35.3511 44.4004 35.363 44.4254 35.3799C44.4504 35.3968 44.4717 35.4184 44.4881 35.4434C44.5045 35.4683 44.5156 35.4962 44.5208 35.5254C44.7465 36.7273 44.3662 37.6708 43.4975 38.0494C43.2629 38.1505 43.009 38.2022 42.7524 38.2012Z" fill="#404040"/>
<path d="M46.1739 37.615H46.0735C45.5063 37.5585 44.9827 37.2939 44.6093 36.8751C44.2359 36.4564 44.0408 35.915 44.0638 35.3614C44.0673 35.3016 44.0951 35.2456 44.1411 35.2058C44.187 35.1659 44.2474 35.1454 44.3089 35.1488C44.3704 35.1522 44.428 35.1792 44.469 35.2238C44.51 35.2685 44.5311 35.3272 44.5276 35.3869C44.5118 35.8226 44.6655 36.248 44.958 36.5785C45.2505 36.909 45.6603 37.1203 46.1059 37.1703C46.8186 37.2123 47.2684 36.6715 47.3426 35.6844C47.3467 35.6246 47.3751 35.5689 47.4214 35.5295C47.4678 35.49 47.5284 35.4701 47.5899 35.4741C47.6514 35.4781 47.7088 35.5056 47.7494 35.5507C47.79 35.5958 47.8105 35.6547 47.8064 35.7145C47.6997 37.1177 46.9129 37.615 46.1739 37.615Z" fill="#404040"/>
<path d="M54.0205 41.6531L50.5269 43.4139C50.3164 43.5206 50.0722 43.5463 49.843 43.4859C49.6138 43.4255 49.4165 43.2834 49.2902 43.0879C49.1732 42.9086 49.1239 42.6954 49.1507 42.4846C49.1775 42.2739 49.2787 42.0788 49.4371 41.9325L52.6834 38.9277C52.9183 39.3634 53.1657 39.8157 53.4223 40.2889C53.6576 40.728 53.8576 41.1841 54.0205 41.6531Z" fill="#665C57"/>
<path d="M55.0163 47.5699L50.7251 46.9434C50.5402 46.9168 50.3715 46.8261 50.2501 46.688C50.1287 46.5499 50.063 46.3738 50.065 46.1922C50.0646 46.0224 50.1233 45.8575 50.2317 45.7244C50.3401 45.5912 50.4916 45.4977 50.6617 45.459L54.7335 44.5215C54.898 45.5303 54.9925 46.5487 55.0163 47.5699Z" fill="#665C57"/>
<path d="M54.8447 50.8192C54.727 51.7216 54.531 52.6126 54.2588 53.4829L50.5411 51.6064C50.3975 51.5333 50.2773 51.4234 50.1933 51.2886C50.1094 51.1538 50.065 50.9993 50.0649 50.8417C50.0649 50.7124 50.0948 50.5848 50.1524 50.4683C50.2101 50.3517 50.294 50.2493 50.398 50.1686C50.5019 50.088 50.6233 50.0311 50.7529 50.0022C50.8826 49.9733 51.0173 49.9732 51.147 50.0019L54.8447 50.8192Z" fill="#665C57"/>
<path d="M28.0332 35.7013L27.2603 29.4663C27.2316 29.2303 27.1551 29.002 27.0353 28.7948C26.9155 28.5876 26.7547 28.4054 26.5622 28.2588C26.3697 28.1122 26.1492 28.004 25.9135 27.9405C25.6778 27.877 25.4315 27.8594 25.1888 27.8888L15.6308 29.0156C15.1429 29.0735 14.6985 29.3172 14.3953 29.6933C14.0921 30.0694 13.9549 30.547 14.0139 31.0213L14.7868 37.2578C14.8463 37.7323 15.0973 38.1644 15.4846 38.4591C15.8719 38.7538 16.3638 38.887 16.8521 38.8293L20.998 38.341L25.161 41.1775C25.2365 41.2293 25.3257 41.2587 25.418 41.2621C25.5103 41.2656 25.6016 41.243 25.6809 41.1971C25.7603 41.1511 25.8242 41.0838 25.865 41.0033C25.9058 40.9228 25.9217 40.8325 25.9107 40.7434L25.5614 37.8047L26.4147 37.704C26.9023 37.6465 27.3466 37.4033 27.65 37.0279C27.9534 36.6524 28.0912 36.1754 28.0332 35.7013Z" fill="#CFCFCF"/>
<path d="M28.6515 35.1434L27.8785 28.9084C27.8492 28.6733 27.7726 28.4461 27.6529 28.2398C27.5333 28.0336 27.373 27.8522 27.1812 27.7061C26.9894 27.56 26.7699 27.4521 26.5352 27.3885C26.3005 27.3249 26.0552 27.3069 25.8133 27.3354L16.2553 28.4622C16.013 28.4901 15.7787 28.5643 15.5659 28.6803C15.3531 28.7964 15.166 28.9521 15.0152 29.1385C14.8644 29.325 14.753 29.5385 14.6872 29.7669C14.6215 29.9953 14.6028 30.234 14.6321 30.4694L15.405 36.7059C15.4646 37.1804 15.7156 37.6125 16.1029 37.9072C16.4902 38.2019 16.982 38.3351 17.4703 38.2774L21.6209 37.7891L25.7839 40.6256C25.8593 40.6774 25.9486 40.7068 26.0409 40.7102C26.1332 40.7137 26.2245 40.6911 26.3038 40.6452C26.3832 40.5992 26.4471 40.5319 26.4879 40.4514C26.5287 40.3709 26.5446 40.2806 26.5336 40.1915L26.1796 37.2513L27.0329 37.1506C27.2748 37.1221 27.5086 37.0476 27.7209 36.9313C27.9331 36.8151 28.1197 36.6593 28.27 36.4729C28.4203 36.2865 28.5314 36.0731 28.5968 35.845C28.6623 35.6169 28.6808 35.3785 28.6515 35.1434Z" fill="white"/>
<path d="M24.5363 30.2531C24.6989 30.3808 24.8341 30.5383 24.934 30.7168C25.0339 30.8953 25.0966 31.0911 25.1186 31.2932C25.1405 31.4952 25.1213 31.6995 25.062 31.8943C25.0027 32.0891 24.9044 32.2707 24.7729 32.4285L24.0231 33.33L22.2933 35.4108C22.2212 35.4973 22.1168 35.5525 22.003 35.5643C21.8891 35.5761 21.775 35.5436 21.6858 35.4739L18.6173 33.0626C18.2905 32.8051 18.0819 32.4322 18.0373 32.0256C17.9927 31.619 18.1156 31.2118 18.3792 30.8931C18.5106 30.7351 18.6727 30.6037 18.8563 30.5066C19.04 30.4096 19.2415 30.3486 19.4494 30.3272C19.6573 30.3059 19.8674 30.3246 20.0679 30.3822C20.2684 30.4399 20.4551 30.5354 20.6176 30.6632L21.0721 31.0193C21.1309 31.0658 21.1987 31.1006 21.2714 31.1215C21.3442 31.1425 21.4205 31.1492 21.4959 31.1414C21.5713 31.1336 21.6444 31.1113 21.711 31.0759C21.7775 31.0405 21.8362 30.9927 21.8837 30.9352L22.2717 30.4694C22.4026 30.3107 22.5645 30.1787 22.748 30.0809C22.9316 29.9831 23.1332 29.9215 23.3413 29.8996C23.5493 29.8777 23.7598 29.8959 23.9607 29.9532C24.1615 30.0105 24.3487 30.1058 24.5116 30.2335L24.5363 30.2531Z" fill="#CC3D3D"/>
<path d="M24.0116 33.3755L21.9644 35.7441L21.9655 35.7451L24.0128 33.3764L24.0116 33.3755Z" fill="#CC3D3D"/>
<path d="M21.9636 35.7426L21.9621 35.7441L19.4995 33.7324H19.5011L21.9636 35.7426Z" fill="#CC3D3D"/>
</svg>
