<svg width="88" height="96" viewBox="0 0 88 96" fill="none" xmlns="http://www.w3.org/2000/svg">
<path d="M73.1999 27.2348C73.1405 27.2432 73.0799 27.2339 73.0256 27.2081C72.9714 27.1823 72.9257 27.1411 72.8943 27.0895C68.7692 19.5585 64.8243 15.6267 60.4772 14.7258C55.5032 13.6796 50.2668 16.744 44.2132 20.2923C41.7874 21.7134 39.278 23.1824 36.5395 24.5511C33.6395 26.0041 31.2066 26.6987 29.1887 26.905C25.9125 27.2377 23.6972 26.2875 22.2587 25.1614C18.6626 22.3701 18.125 17.039 19.5015 14.8086C19.5472 14.7444 19.613 14.6976 19.6883 14.6757C19.7636 14.6538 19.844 14.6582 19.9166 14.688C19.95 14.6983 19.9806 14.7162 20.0061 14.7403C20.0316 14.7644 20.0513 14.7941 20.0637 14.8271C20.0761 14.86 20.0808 14.8954 20.0775 14.9305C20.0743 14.9655 20.0631 14.9994 20.0449 15.0295C19.3963 16.0771 19.2305 17.8556 19.6125 19.6791C20.0549 21.7802 21.1417 23.6023 22.6753 24.7923C24.8517 26.4894 28.971 27.7507 36.2311 24.121C38.9509 22.761 41.4501 21.2978 43.8701 19.8826C50.0564 16.2544 55.4008 13.1275 60.6444 14.2216C65.1774 15.169 69.2463 19.1866 73.4493 26.8629C73.4647 26.8952 73.4729 26.9306 73.4733 26.9665C73.4737 27.0024 73.4663 27.0379 73.4515 27.0706C73.4368 27.1033 73.4152 27.1324 73.3882 27.1557C73.3611 27.1791 73.3293 27.1962 73.295 27.2058C73.2649 27.22 73.2328 27.2298 73.1999 27.2348Z" fill="#806759"/>
<path d="M83.9946 29.1817C84.0148 29.4405 83.9783 29.7005 83.8877 29.9434C83.7971 30.1864 83.6546 30.4062 83.4703 30.5874C83.286 30.7687 83.0644 30.9068 82.8212 30.9921C82.5781 31.0773 82.3193 31.1076 82.0632 31.0808L76.7879 30.5389L76.5645 30.5171C76.2049 30.4795 75.8654 30.3312 75.5923 30.0923C75.3191 29.8534 75.1257 29.5354 75.0382 29.1817L74.734 27.9481C74.6561 27.6323 74.6661 27.3009 74.763 26.9904C74.8599 26.6799 75.0399 26.4025 75.2832 26.1885C75.3769 26.1042 75.4807 26.0171 75.5902 25.9241C76.7505 24.9433 78.6977 23.5004 80.8093 22.7855C81.0367 22.7111 81.2769 22.6844 81.515 22.7071C81.7531 22.7298 81.9841 22.8014 82.1937 22.9175C82.4033 23.0336 82.587 23.1918 82.7337 23.3823C82.8803 23.5727 82.9867 23.7915 83.0462 24.025C83.3965 25.3792 83.8505 27.3669 83.9946 29.1817Z" fill="#F57369"/>
<path d="M72.8041 31.5103L72.1973 31.997L68.212 35.1835C67.8766 35.4557 67.4531 35.593 67.0232 35.5688C66.5933 35.5447 66.1875 35.3608 65.8842 35.0527C64.5236 33.6404 64.1186 31.6004 64.0018 30.3319C63.967 29.9569 64.051 29.5804 64.2415 29.2565C64.4321 28.9325 64.7196 28.6777 65.0626 28.5287C66.6481 27.837 68.8101 27.5624 70.3581 27.4563C70.6464 27.4345 70.9246 27.42 71.1653 27.4098C71.5035 27.3952 71.8387 27.4792 72.1307 27.6519C72.4226 27.8246 72.659 28.0786 72.8113 28.3834L73.2811 29.3278C73.4627 29.6914 73.5144 30.107 73.4275 30.5046C73.3406 30.9021 73.1204 31.2573 72.8041 31.5103Z" fill="#F57369"/>
<path d="M73.6809 26.1443L72.418 26.496C71.4957 26.7528 70.9546 27.7147 71.2093 28.6444L71.6916 30.405C71.9464 31.3347 72.9005 31.8803 73.8228 31.6235L75.0857 31.2719C76.008 31.0151 76.5492 30.0531 76.2944 29.1234L75.8121 27.3628C75.5574 26.4331 74.6032 25.8875 73.6809 26.1443Z" fill="#FF857B"/>
<path d="M49.2656 26.1562C49.2656 26.1562 51.21 23.2603 53.9759 22.4059C54.0695 22.3779 54.1687 22.3753 54.2636 22.3984C54.3585 22.4215 54.4456 22.4695 54.5162 22.5375C54.5867 22.6056 54.6381 22.6912 54.6653 22.7857C54.6924 22.8802 54.6943 22.9803 54.6706 23.0758C54.3478 24.4198 53.813 27.089 53.999 29.379" fill="#FFC770"/>
<path d="M57.5417 32.6221C57.5417 32.7136 57.5503 32.8052 57.5517 32.8967C57.5517 33.042 57.5517 33.1873 57.5402 33.3326C57.3485 36.8271 54.4154 40.0775 50.2442 41.0641C49.329 41.2823 48.3893 41.3775 47.4494 41.3475L44.5466 45.0948C44.5466 45.0948 41.2416 44.0908 41.7879 42.4271C42.2203 41.1092 42.141 40.0252 41.3137 38.78C41.016 38.4666 40.7477 38.1261 40.5123 37.7629C40.1 37.1264 39.801 36.4222 39.6287 35.6822C38.6659 31.5483 41.8614 27.2546 46.7648 26.0922C47.6203 25.8882 48.4974 25.7907 49.3765 25.8016C50.3186 25.817 51.2438 26.0558 52.0774 26.4985C52.9109 26.9413 53.6294 27.5756 54.1747 28.3502C54.2842 28.5057 54.388 28.6684 54.4846 28.837L54.5004 28.8675C54.6123 29.0621 54.7618 29.2321 54.94 29.3673C55.0678 29.4629 55.2086 29.5392 55.358 29.594C55.4174 29.6156 55.4781 29.6336 55.5396 29.6478C56.09 29.7774 56.5806 30.0907 56.932 30.537C57.1481 30.8098 57.3016 31.1273 57.3817 31.4669C57.3817 31.4669 57.3817 31.4771 57.3817 31.4829C57.4688 31.857 57.5224 32.2383 57.5417 32.6221Z" fill="#E9AD64"/>
<path d="M24.7916 66.543C24.7916 66.543 23.65 72.9217 19.9242 74.9022C17.7953 76.0341 19.3837 77.9535 21.8714 76.749C23.2104 76.098 26.3396 74.0827 27.4206 71.4019C27.5596 71.0522 27.7827 70.7428 28.0698 70.5016C28.3568 70.2604 28.6989 70.0949 29.0651 70.02L35.2499 68.7879C35.6642 68.706 36.0529 68.5253 36.3837 68.2608C36.7144 67.9964 36.9776 67.656 37.151 67.268L37.8559 65.6871L37.6166 63.3027L27.7319 64.3097L24.7916 66.543Z" fill="#E9AD64"/>
<path d="M53.5541 50.0745C54.4766 48.9354 58.3495 47.9895 62.1719 48.2786C62.4919 48.3015 62.8131 48.2591 63.1165 48.154C63.4199 48.0489 63.6991 47.8832 63.9375 47.6669C65.3976 46.3592 68.5181 43.4822 70.3731 41.3201C70.6296 41.0256 70.9361 40.7796 71.2783 40.5936C71.9427 40.226 73.0381 39.5765 73.4244 39.0984C74.0009 38.3952 73.8568 35.9323 71.4065 35.9672C69.873 35.989 69.2114 37.0046 68.9303 37.7631C68.7152 38.3565 68.3422 38.8788 67.8522 39.2728L62.4126 43.5868C62.1578 43.7891 61.8651 43.9374 61.552 44.0228C61.2389 44.1082 60.912 44.1289 60.5907 44.0837L54.4925 43.2308L52.2858 43.4546L51.1558 50.8345L53.5541 50.0745Z" fill="#E9AD64"/>
<path d="M28.7337 53.4932L28.3128 56.5155C27.7294 56.4127 27.171 56.1976 26.6683 55.8819C26.2615 55.6314 25.8758 55.3476 25.5152 55.0334C24.8637 54.4623 24.2543 53.8441 23.6919 53.1837L23.4584 52.9003C22.9583 52.3075 22.4884 51.7045 22.0358 51.0942C21.5832 50.484 21.1508 49.8708 20.7256 49.2504C20.6925 49.2053 20.6622 49.1588 20.6305 49.1051C20.1895 48.4551 19.7571 47.8007 19.3333 47.142C18.9096 46.4833 18.4997 45.8246 18.1039 45.1659L18.0174 45.0206L17.4826 44.1299L16.8859 43.2043L16.7764 43.059C16.5986 42.8149 16.4184 42.5728 16.2359 42.3325L15.8828 41.9286C15.77 41.7911 15.6492 41.6606 15.521 41.5377L15.1996 41.2268L15.1405 41.1701C15.0789 41.1087 15.0134 41.0514 14.9444 40.9987L14.7412 40.8359C14.475 40.6192 14.1959 40.4193 13.9052 40.2373C13.7265 40.1341 13.5449 40.0382 13.3604 39.9467C12.9467 39.7448 12.5115 39.5912 12.0632 39.489C11.7322 39.4117 11.394 39.3693 11.0543 39.3626C10.7437 39.356 10.4332 39.3765 10.1261 39.4236C10.0458 39.4332 9.96627 39.4487 9.88823 39.4701L9.64753 39.5209C9.56768 39.5379 9.48916 39.5607 9.41259 39.5892L9.1791 39.6648C9.10043 39.6873 9.02377 39.7165 8.94992 39.752L8.86633 39.7883L8.72219 39.8493C8.57806 39.9118 8.41086 40.0019 8.25952 40.0833C8.20187 40.1138 8.14566 40.1457 8.08945 40.1806C7.56499 40.4752 7.09098 40.853 6.68558 41.2994C6.58459 41.4164 6.49165 41.5402 6.40741 41.67C6.20885 41.9698 6.08567 42.3139 6.04851 42.6725C6.04851 42.7161 6.04131 42.7583 6.03842 42.8019C6.01825 43.3366 6.23012 43.9309 6.5746 44.5121C6.63898 44.6167 6.70817 44.7213 6.78215 44.8259C6.95419 45.07 7.13894 45.3048 7.33563 45.5292C7.50765 45.7199 7.59745 45.9718 7.58529 46.2293C7.57313 46.4868 7.45999 46.7289 7.27077 46.9023C7.08155 47.0757 6.83174 47.1662 6.5763 47.154C6.32087 47.1417 6.08072 47.0276 5.9087 46.8369C5.56808 46.4739 5.25537 46.0853 4.97328 45.6745L4.91418 45.5844C4.65393 45.186 4.43971 44.759 4.27567 44.3115C4.18793 44.0656 4.11996 43.8129 4.07244 43.556C3.9248 42.7751 4.00387 41.9678 4.30017 41.2311C4.37524 41.0397 4.46337 40.8538 4.56394 40.6746C4.7104 40.413 4.87971 40.165 5.06985 39.9336C5.39248 39.5443 5.7548 39.1902 6.15085 38.8772C6.47832 38.6198 6.82262 38.3848 7.1814 38.174C7.37599 38.0621 7.55759 37.9546 7.76803 37.8558L8.08512 37.7105C8.18855 37.658 8.29546 37.6129 8.4051 37.5753L8.73228 37.4576L8.84327 37.4184C8.9157 37.3916 8.98986 37.3697 9.06523 37.353L9.40395 37.2658C9.51567 37.2339 9.62928 37.2092 9.7441 37.1917C10.2463 37.0969 10.7568 37.054 11.2676 37.0639C11.6882 37.0712 12.1073 37.1159 12.5201 37.1976C13.4231 37.3777 14.2929 37.6978 15.0987 38.1464L15.2183 38.219C15.569 38.421 15.9061 38.6463 16.2272 38.8932L16.4924 39.0967C16.5824 39.1618 16.6686 39.2321 16.7504 39.3073L17.2405 39.7549C17.4007 39.9009 17.5518 40.0566 17.6931 40.2213L18.1384 40.7022C18.3864 41.003 18.6299 41.3096 18.8591 41.6206C18.8865 41.6525 18.911 41.6859 18.9355 41.7194C19.1748 42.0695 19.4241 42.4299 19.6562 42.7742L20.1635 43.5632L20.2961 43.7696C20.6824 44.3624 21.073 44.9552 21.4694 45.5393C21.9018 46.1816 22.3486 46.818 22.8012 47.4428C22.8516 47.5111 22.8992 47.5881 22.9453 47.6477C23.3777 48.2289 23.8101 48.8101 24.2555 49.3797C24.7628 50.0234 25.2831 50.6438 25.8208 51.2294H25.828C26.312 51.7663 26.8342 52.267 27.3904 52.7274C27.6326 52.9289 27.891 53.1097 28.1629 53.268C28.3385 53.3765 28.5317 53.4527 28.7337 53.4932Z" fill="#E9AD64"/>
<path d="M69.7252 30.723C69.8218 31.682 68.4828 32.7064 67.1741 33.244C66.1493 33.6639 59.117 39.0154 56.1262 41.3083L55.5872 41.7224C55.1095 42.0918 54.7783 42.621 54.6532 43.2146C54.6445 43.2553 54.6373 43.2945 54.6316 43.3338L53.748 48.9323C53.7486 48.9347 53.7486 48.9371 53.748 48.9395L53.6644 49.4757C52.5373 56.6158 45.0957 62.2986 41.2271 64.4694C38.6486 65.9152 36.7388 65.86 35.7501 65.6609C35.481 65.607 35.2053 65.5958 34.9328 65.6275C34.6385 65.6601 34.3508 65.7376 34.0795 65.8571C32.7676 66.4194 31.4244 66.9046 30.0568 67.3101C29.2159 67.5616 28.3213 67.5656 27.4782 67.3217L19.4226 65.0012C19.1256 64.9141 18.807 64.9416 18.529 65.0782C15.3984 66.6213 15.6593 70.8322 12.1871 72.1109C8.55636 73.4491 8.18305 72.1109 8.43961 70.636C8.69617 69.1612 12.7492 66.4818 13.1686 64.2602C13.7754 61.0287 14.8896 59.4027 15.6348 58.6384C15.8215 58.4496 16.0581 58.3189 16.3165 58.2619C16.5749 58.205 16.8441 58.2242 17.092 58.3173C19.4759 59.1891 21.2416 58.7532 22.1366 58.3711C22.5095 58.2143 22.8401 57.9702 23.1009 57.6591C25.1476 55.2645 27.3009 54.044 30.6765 52.7014C30.9245 52.6011 31.1709 52.5023 31.4131 52.4021C32.1409 52.0999 32.84 51.786 33.5117 51.4387C34.068 51.1535 34.6071 50.8352 35.126 50.4855C35.7651 50.0593 36.3625 49.5728 36.9103 49.0325C37.3155 48.6315 37.6917 48.2018 38.036 47.7466C38.5027 47.1257 38.9164 46.4661 39.2727 45.7749C39.7172 44.9007 40.2629 44.0827 40.8985 43.3381C42.7881 41.1499 45.1663 40.1415 48.0403 38.9878C51.8137 37.4723 60.9288 32.5073 63.5751 30.9453C63.5751 30.9453 65.5266 29.8832 66.5471 29.4327C69.1631 28.2776 69.6316 29.764 69.7252 30.723Z" fill="#FFC770"/>
<path d="M44.6071 30.1082C44.4486 30.3988 44.0681 30.6312 43.5982 30.8347C42.5893 31.2706 41.1811 31.5496 40.7155 31.9695C39.8276 32.7774 40.9649 33.7683 40.3177 34.1054C40.0765 34.2309 39.7973 34.26 39.5357 34.187C39.2741 34.114 39.0495 33.9443 38.9066 33.7117C37.2332 31.0148 36.9234 27.7891 36.8801 26.1995C36.8772 26.0937 36.9012 25.9888 36.9498 25.8949C36.9984 25.801 37.0699 25.7211 37.1577 25.6629C37.2455 25.6047 37.3466 25.57 37.4513 25.5622C37.5561 25.5544 37.6611 25.5737 37.7564 25.6183L44.1099 28.6086C44.2436 28.6704 44.3632 28.7591 44.4615 28.8694C44.5598 28.9796 44.6346 29.1091 44.6812 29.2496C44.7278 29.3902 44.7453 29.539 44.7325 29.6867C44.7198 29.8343 44.6771 29.9778 44.6071 30.1082Z" fill="#FFF0D3"/>
<path d="M53.4367 34.8916C54.3561 34.8916 55.1015 34.1403 55.1015 33.2134C55.1015 32.2865 54.3561 31.5352 53.4367 31.5352C52.5173 31.5352 51.772 32.2865 51.772 33.2134C51.772 34.1403 52.5173 34.8916 53.4367 34.8916Z" fill="#FFF0D3"/>
<path d="M57.5515 32.8958C57.4653 33.1088 57.3249 33.2951 57.1445 33.4359C56.9641 33.5767 56.75 33.6671 56.5238 33.6979C55.7772 33.7749 55.0969 33.0876 55.0047 32.1678C54.9124 31.2481 55.4371 30.4344 56.1894 30.3588C56.4483 30.334 56.708 30.3969 56.9274 30.5375C57.1435 30.8103 57.297 31.1279 57.3771 31.4675C57.3771 31.4675 57.3771 31.4776 57.3771 31.4835C57.4861 31.9464 57.5446 32.42 57.5515 32.8958Z" fill="#FFF0D3"/>
<path d="M53.6083 35.1066C53.1024 35.1589 52.5503 35.0441 52.3111 34.4818C52.2988 34.4526 52.2923 34.4213 52.292 34.3895C52.2917 34.3578 52.2976 34.3264 52.3094 34.2969C52.3332 34.2375 52.3794 34.1901 52.4379 34.165C52.4964 34.14 52.5624 34.1394 52.6213 34.1634C52.6802 34.1874 52.7273 34.234 52.7521 34.2929C53.0216 34.9337 54.1185 34.4905 54.1286 34.4862C55.1145 34.0154 54.77 32.3502 54.7671 32.3342C54.7588 32.3028 54.757 32.2699 54.7616 32.2377C54.7663 32.2055 54.7773 32.1746 54.7942 32.1468C54.811 32.119 54.8332 32.0949 54.8595 32.076C54.8858 32.0571 54.9156 32.0438 54.9472 32.0368C54.9787 32.0299 55.0113 32.0294 55.0431 32.0355C55.0748 32.0416 55.105 32.0541 55.1318 32.0722C55.1586 32.0904 55.1815 32.1138 55.199 32.1411C55.2166 32.1684 55.2286 32.199 55.2341 32.2311C55.2514 32.3139 55.6665 34.2871 54.3217 34.9264C54.0934 35.0197 53.8533 35.0804 53.6083 35.1066Z" fill="#434A4D"/>
<path d="M57.5414 32.6221C57.5414 32.7136 57.55 32.8052 57.5515 32.8967C57.5515 33.042 57.5515 33.1873 57.5399 33.3326C57.3784 33.6243 57.1171 33.8469 56.8049 33.9589C56.7181 33.9919 56.6275 34.0139 56.5353 34.0243C56.3575 34.0411 56.1784 34.0137 56.0136 33.9443C55.2338 33.6247 54.7437 32.4913 54.6529 32.2588C54.6415 32.2289 54.6362 32.197 54.6374 32.165C54.6385 32.133 54.646 32.1015 54.6594 32.0725C54.6729 32.0434 54.692 32.0174 54.7157 31.996C54.7393 31.9746 54.767 31.9583 54.7971 31.9479C54.8588 31.9233 54.9275 31.9236 54.989 31.9488C55.0504 31.974 55.0999 32.022 55.1271 32.083C55.3592 32.6642 55.7858 33.3239 56.2182 33.5012C56.2817 33.5293 56.35 33.5444 56.4193 33.5456C56.4886 33.5469 56.5574 33.5342 56.6218 33.5084C56.6492 33.4997 57.1724 33.305 57.1263 32.8328C57.1239 32.8 57.128 32.7671 57.1384 32.736C57.1487 32.7048 57.1651 32.676 57.1865 32.6513C57.208 32.6266 57.2341 32.6064 57.2633 32.5919C57.2926 32.5774 57.3244 32.5689 57.3569 32.5669C57.4231 32.5608 57.4892 32.5805 57.5414 32.6221Z" fill="#434A4D"/>
<path d="M54.6188 32.464L53.3922 31.7825C53.2971 31.7299 53.2199 31.6496 53.1707 31.5521C53.1216 31.4545 53.1028 31.3443 53.1168 31.2358C53.1308 31.1274 53.177 31.0257 53.2493 30.9441C53.3216 30.8625 53.4166 30.8048 53.5219 30.7785L55.0829 30.3891C55.1758 30.3658 55.2732 30.3679 55.365 30.3951C55.4568 30.4224 55.5398 30.4738 55.6054 30.5441C55.671 30.6143 55.7169 30.701 55.7383 30.795C55.7597 30.8891 55.7558 30.9872 55.7272 31.0793L55.3942 32.1501C55.3702 32.227 55.3295 32.2975 55.2752 32.3566C55.2209 32.4157 55.1543 32.4619 55.0801 32.4919C55.006 32.5219 54.9261 32.535 54.8463 32.5302C54.7666 32.5253 54.6888 32.5027 54.6188 32.464Z" fill="#434A4D"/>
<path d="M33.513 51.4414C32.0717 53.7764 31.6667 58.166 31.5614 59.7876C31.5578 59.8395 31.5382 59.8891 31.5054 59.9293C31.4726 59.9696 31.4282 59.9986 31.3784 60.0123C31.3285 60.0261 31.2757 60.0238 31.2271 60.0059C31.1786 59.9881 31.1368 59.9554 31.1074 59.9125C29.6964 57.9103 30.3003 54.5683 31.4144 52.4048C32.1423 52.1025 32.8413 51.7887 33.513 51.4414Z" fill="#E9AD64"/>
<path d="M37.2074 58.2323C37.2194 58.2831 37.2152 58.3364 37.1956 58.3848C37.1759 58.4331 37.1417 58.474 37.0978 58.5017C37.054 58.5294 37.0026 58.5426 36.9509 58.5394C36.8992 58.5361 36.8498 58.5167 36.8096 58.4837C34.6836 56.8185 34.4487 52.8765 35.1276 50.4921C35.7667 50.0658 36.3642 49.5793 36.9119 49.0391C35.8324 51.5673 36.8139 56.5163 37.2074 58.2323Z" fill="#E9AD64"/>
<path d="M40.3916 44.1269C38.7585 46.4386 40.1264 52.7927 40.6323 54.8618C40.6496 54.9134 40.6494 54.9693 40.6318 55.0207C40.6141 55.0722 40.58 55.1163 40.5348 55.1461C40.4896 55.1759 40.4358 55.1896 40.382 55.1853C40.3281 55.1809 40.2773 55.1586 40.2374 55.1219C38.3795 53.5425 37.8145 50.2732 38.0393 47.7449C38.506 47.124 38.9197 46.4644 39.276 45.7732C39.7197 44.8996 40.2644 44.0822 40.8989 43.3379C40.7465 43.6114 40.577 43.8749 40.3916 44.1269Z" fill="#E9AD64"/>
<path d="M44.6067 30.1082C44.4482 30.3988 44.0677 30.6312 43.5978 30.8347C43.5978 30.8347 39.3905 26.6616 36.8855 26.1995C36.8826 26.0937 36.9066 25.9888 36.9552 25.8949C37.0037 25.801 37.0753 25.7211 37.1631 25.6629C37.2509 25.6047 37.3519 25.57 37.4567 25.5622C37.5615 25.5544 37.6665 25.5737 37.7618 25.6183L44.1152 28.6086C44.2484 28.6709 44.3675 28.76 44.4652 28.8705C44.5629 28.981 44.6371 29.1106 44.6831 29.2511C44.7292 29.3916 44.7462 29.5402 44.733 29.6876C44.7199 29.835 44.6769 29.9782 44.6067 30.1082Z" fill="#FFC770"/>
<path d="M53.7498 48.9329C53.7503 48.9353 53.7503 48.9378 53.7498 48.9402L53.6662 49.4763C52.5391 56.6165 45.0974 62.2993 41.2289 64.4701C38.6503 65.9158 36.7406 65.8606 35.7518 65.6615C35.4828 65.6077 35.2071 65.5964 34.9346 65.6281C37.6126 63.3033 42.9066 61.2313 45.7446 56.8228C48.5826 52.4144 53.966 43.2894 53.7498 48.9329Z" fill="#FFF0D3"/>
<path d="M25.832 51.2306C24.7539 51.4471 23.977 52.1707 23.4509 52.9015C22.9508 52.3087 22.4809 51.7057 22.0283 51.0954C22.6378 50.3623 23.4027 49.7764 24.2667 49.3809C24.7741 50.0245 25.2944 50.645 25.832 51.2306Z" fill="#FFC770"/>
<path d="M22.8084 47.4425C21.8254 47.72 21.112 48.4189 20.6234 49.112C20.1823 48.4621 19.7499 47.8077 19.3262 47.149C19.918 46.4632 20.6495 45.914 21.4709 45.5391C21.9134 46.1813 22.3559 46.8177 22.8084 47.4425Z" fill="#FFC770"/>
<path d="M20.1707 43.5633C19.2266 43.7798 18.5189 44.3872 18.0087 45.0309L17.474 44.1402L16.8859 43.2044L16.7764 43.0591C17.3677 42.4392 18.0811 41.9507 18.8706 41.625C18.898 41.657 18.9225 41.6904 18.947 41.7238C19.1863 42.074 19.4356 42.4343 19.6677 42.7787L20.1707 43.5633Z" fill="#FFC770"/>
<path d="M17.2404 39.7589C16.3511 40.0074 15.6751 40.5988 15.1995 41.225L15.1404 41.1683C15.0789 41.1069 15.0134 41.0496 14.9444 40.9969L14.7412 40.8341C14.475 40.6174 14.1958 40.4175 13.9052 40.2355C13.7265 40.1323 13.5448 40.0364 13.3604 39.9449C13.8665 39.2558 14.4962 38.6683 15.2168 38.2129C15.5675 38.4149 15.9046 38.6401 16.2257 38.8871L16.4909 39.0905C16.5809 39.1556 16.6671 39.226 16.7489 39.3012L17.239 39.7487L17.2404 39.7589Z" fill="#FFC770"/>
<path d="M11.0543 39.3669C10.7437 39.3604 10.4332 39.3808 10.1261 39.4279C10.0458 39.4375 9.9663 39.4531 9.88827 39.4744L9.64757 39.5253C9.56771 39.5423 9.48919 39.5651 9.41263 39.5936L9.17913 39.6691C9.10046 39.6917 9.0238 39.7209 8.94996 39.7563L8.86636 39.7927C8.71743 39.009 8.70962 38.2048 8.8433 37.4184C8.91573 37.3916 8.98989 37.3697 9.06527 37.353L9.40398 37.2658C9.5157 37.2339 9.62931 37.2092 9.74413 37.1917C10.2463 37.0969 10.7568 37.054 11.2676 37.0639C10.9685 37.7925 10.8942 38.5951 11.0543 39.3669Z" fill="#FFC770"/>
<path d="M8.09091 40.1857C7.56646 40.4803 7.09245 40.8581 6.68705 41.3045C6.58606 41.4215 6.49312 41.5453 6.40888 41.675C5.87331 41.2112 5.24364 40.871 4.56396 40.6782C4.71043 40.4166 4.87973 40.1686 5.06987 39.9372C5.3925 39.5479 5.75483 39.1938 6.15088 38.8809C6.86987 39.1951 7.52699 39.6371 8.09091 40.1857Z" fill="#FFC770"/>
<path d="M6.78247 44.8229C6.12026 44.9498 5.4991 45.2387 4.97359 45.6642L4.91449 45.5742C4.65424 45.1758 4.44002 44.7487 4.27598 44.3013C4.18883 44.0591 4.12087 43.8104 4.07275 43.5574C4.67799 43.1556 5.34674 42.8608 6.05027 42.6855C6.05027 42.7291 6.04306 42.7713 6.04018 42.8149C6.01856 43.338 6.23043 43.9322 6.57491 44.5134C6.63929 44.6152 6.70848 44.7183 6.78247 44.8229Z" fill="#FFC770"/>
<path d="M70.8554 39.6459C71.3362 39.6459 71.726 39.2529 71.726 38.7683C71.726 38.2836 71.3362 37.8906 70.8554 37.8906C70.3746 37.8906 69.9849 38.2836 69.9849 38.7683C69.9849 39.2529 70.3746 39.6459 70.8554 39.6459Z" fill="#FFF0D3"/>
<path d="M72.0069 37.9639C72.3015 37.9639 72.5402 37.7232 72.5402 37.4263C72.5402 37.1294 72.3015 36.8887 72.0069 36.8887C71.7124 36.8887 71.4736 37.1294 71.4736 37.4263C71.4736 37.7232 71.7124 37.9639 72.0069 37.9639Z" fill="#FFF0D3"/>
<path d="M72.5186 39.1358C72.8132 39.1358 73.0519 38.8951 73.0519 38.5982C73.0519 38.3012 72.8132 38.0605 72.5186 38.0605C72.2241 38.0605 71.9854 38.3012 71.9854 38.5982C71.9854 38.8951 72.2241 39.1358 72.5186 39.1358Z" fill="#FFF0D3"/>
<path d="M70.5211 37.7549C70.8156 37.7549 71.0544 37.5142 71.0544 37.2173C71.0544 36.9204 70.8156 36.6797 70.5211 36.6797C70.2266 36.6797 69.9878 36.9204 69.9878 37.2173C69.9878 37.5142 70.2266 37.7549 70.5211 37.7549Z" fill="#FFF0D3"/>
<path d="M49.5019 31.9051C50.067 31.9051 50.5252 31.4432 50.5252 30.8734C50.5252 30.3037 50.067 29.8418 49.5019 29.8418C48.9367 29.8418 48.4785 30.3037 48.4785 30.8734C48.4785 31.4432 48.9367 31.9051 49.5019 31.9051Z" fill="#42484D"/>
<path d="M47.6558 30.5999L47.8258 30.4923C48.7539 29.9119 49.8553 29.6798 50.9362 29.837L51.2245 29.8777" stroke="#42484D" stroke-width="5" stroke-miterlimit="10" stroke-linecap="round"/>
<path d="M73.144 74.5614C73.1152 74.3909 73.0993 74.2185 73.0964 74.0456C73.0964 74.0063 73.0964 73.9671 73.0964 73.9293C73.0958 72.4876 72.6388 71.0838 71.7918 69.9221C70.9449 68.7604 69.7523 67.9016 68.3876 67.4706C68.0764 67.3721 67.7584 67.2968 67.4363 67.2454C67.0881 67.1917 66.7364 67.1645 66.3841 67.1641C66.0069 67.1638 65.6304 67.1954 65.2584 67.2585C65.0279 67.2964 64.7998 67.3479 64.5752 67.4125C63.9611 67.5846 63.3747 67.845 62.8341 68.1855C62.6539 68.2989 62.4795 68.4224 62.3123 68.5517C61.4911 69.1823 60.8255 69.9956 60.3672 70.9281C59.909 71.8606 59.6705 72.8872 59.6704 73.9279C59.6704 73.9729 59.6704 74.0165 59.6704 74.0615C59.6832 74.8624 59.8389 75.6543 60.1301 76.3995C60.2112 76.6098 60.3036 76.8154 60.4069 77.0155C60.7764 77.7444 61.274 78.3997 61.8756 78.9495C62.0338 79.0949 62.2003 79.2307 62.3743 79.3564C62.7241 79.627 63.091 79.8746 63.4726 80.0974C58.0777 80.0974 46.6349 80.1148 42.3296 80.1148C41.1319 80.1148 40.4559 80.0378 40.0812 79.9695C41.0901 79.6208 43.9396 79.1442 49.1616 79.1442C51.5744 79.1442 53.5591 79.0236 54.8995 78.7955C56.3596 78.5485 56.9823 78.2143 56.9823 77.6636C56.9823 76.4619 53.3717 76.3326 51.8194 76.3326C51.7139 76.3326 51.6127 76.3749 51.5381 76.4501C51.4635 76.5253 51.4216 76.6273 51.4216 76.7337C51.4216 76.84 51.4635 76.942 51.5381 77.0172C51.6127 77.0924 51.7139 77.1347 51.8194 77.1347C54.2798 77.1347 55.613 77.4471 56.0584 77.6621C55.5337 77.9164 53.709 78.3407 49.1616 78.3407C45.4415 78.3407 43.0806 78.5833 41.7545 78.7853C39.2625 79.1675 38.9194 79.6034 38.9194 80.0189C38.9194 80.4883 39.3317 80.9242 42.3239 80.9242C47.4147 80.9242 62.4882 80.9067 65.7341 80.9038C65.9392 80.9441 66.1467 80.9708 66.3553 80.9837C66.8201 81.0222 67.288 80.9933 67.7447 80.898C68.4273 80.7157 69.0906 80.4666 69.7251 80.1541C69.9404 80.0465 70.146 79.9318 70.342 79.8097C70.6734 79.6081 70.9855 79.3761 71.2746 79.1166C71.5815 78.8429 71.8571 78.5354 72.0961 78.1998C72.3147 77.8921 72.5002 77.5618 72.6496 77.2146C72.9912 76.3965 73.1605 75.5158 73.1468 74.6282C73.1474 74.6059 73.1464 74.5836 73.144 74.5614Z" fill="#44B0E3"/>
<path d="M67.6239 80.9265L67.3659 80.9919C67.3366 80.9987 67.3062 80.9991 67.2767 80.9933C67.2473 80.9875 67.2193 80.9755 67.1948 80.9581C67.1702 80.9407 67.1495 80.9183 67.134 80.8923C67.1185 80.8664 67.1087 80.8374 67.105 80.8074C66.91 79.4355 66.5931 78.0841 66.158 76.7694C64.5365 77.4756 63.2018 78.5712 62.3745 79.3558C62.2007 79.2267 62.0337 79.0885 61.8744 78.9417C62.7392 78.1106 64.1805 76.922 65.9548 76.1563C65.6766 75.3382 65.3638 74.5187 65.028 73.721C63.5405 74.1831 61.7749 75.7073 60.4157 77.0165C60.3118 76.8166 60.2194 76.6109 60.139 76.4004C61.6726 74.9474 63.2955 73.6091 64.7787 73.1282C64.4702 72.4307 64.1473 71.7536 63.8187 71.1157C62.4062 71.7347 60.8683 72.9756 59.6792 74.0625C59.6792 74.0174 59.6792 73.9724 59.6792 73.9273C59.679 73.6705 59.6934 73.4139 59.7224 73.1587C60.8553 72.1663 62.2217 71.1245 63.5204 70.5433C63.1197 69.8037 62.7161 69.1266 62.3197 68.5439C62.4879 68.413 62.6625 68.2908 62.8429 68.1777C64.8968 71.2015 67.239 76.6343 67.7435 80.7464C67.7493 80.786 67.7403 80.8264 67.7182 80.8597C67.6961 80.893 67.6624 80.9169 67.6239 80.9265Z" fill="#358AB3"/>
<path d="M70.3454 79.81C70.1493 79.932 69.9418 80.0453 69.7285 80.1543C69.4719 75.865 66.9899 70.5731 64.5757 67.4099C64.8002 67.345 65.0283 67.2936 65.2589 67.2559C67.6731 70.5019 70.0009 75.525 70.3454 79.81Z" fill="#358AB3"/>
<path d="M72.6513 77.2143C72.5025 77.5618 72.3169 77.8921 72.0978 78.1994C71.8485 73.5643 69.1546 69.5772 67.4365 67.2422C67.7588 67.2932 68.0767 67.3685 68.3878 67.4674C70.0136 69.7356 72.1598 73.1894 72.6513 77.2143Z" fill="#358AB3"/>
</svg>
