<svg width="88" height="78" viewBox="0 0 88 78" fill="none" xmlns="http://www.w3.org/2000/svg">
<path d="M73.5829 37.3552L67.8642 43.8665C67.7088 44.0441 67.5058 44.1708 67.2806 44.2308C67.0554 44.2908 66.818 44.2814 66.5979 44.2037C66.3779 44.1261 66.1851 43.9837 66.0436 43.7944C65.902 43.605 65.8181 43.3771 65.8023 43.1391L65.2872 35.5383L58.8149 46.4937L51.6274 33.1729L52.1057 30.7581L52.5314 28.6473L64.4272 25.5458C64.5152 25.5226 64.6046 25.5051 64.6926 25.4906C65.1786 25.4139 65.6757 25.4692 66.1343 25.6509C66.593 25.8327 66.9971 26.1345 67.3065 26.5263L73.6553 34.5651C73.9693 34.9628 74.1345 35.4623 74.1212 35.9738C74.1079 36.4853 73.9171 36.9751 73.5829 37.3552Z" fill="#F2E2C2"/>
<path d="M73.6551 34.564L67.3063 26.5136C67.0103 26.1392 66.6272 25.847 66.1923 25.6641L66.1625 25.6524L66.0632 25.6146L65.9894 25.5884L65.8801 25.555L65.812 25.536L65.6928 25.5084L65.6318 25.4953C65.5892 25.4866 65.5467 25.4808 65.5041 25.4749L65.4473 25.4662L65.3125 25.4531H65.26C65.2118 25.4531 65.1649 25.4531 65.1181 25.4531H65.0727H64.9166H64.8826C64.8187 25.4531 64.7548 25.4662 64.6924 25.4764C64.6044 25.4909 64.515 25.5084 64.427 25.5317L52.5312 28.6462L52.1055 30.757L54.83 30.4922L64.8201 27.6832L65.2856 35.5386L65.8021 43.1468C65.8179 43.3848 65.9019 43.6127 66.0434 43.802C66.1849 43.9914 66.3777 44.1338 66.5977 44.2114C66.8178 44.289 67.0552 44.2984 67.2804 44.2384C67.5057 44.1784 67.7086 44.0517 67.864 43.8741L73.5827 37.3628C73.9191 36.9822 74.1114 36.4906 74.1247 35.9772C74.138 35.4637 73.9714 34.9624 73.6551 34.564Z" fill="#CC957A"/>
<path d="M27.4144 34.7963C21.5197 31.4505 17.4641 23.9951 17.2285 15.8749C17.2253 15.7769 17.193 15.6822 17.136 15.6034C17.079 15.5246 17 15.4655 16.9094 15.4339C16.8188 15.4023 16.721 15.3998 16.6289 15.4266C16.5369 15.4534 16.455 15.5083 16.3941 15.584C16.0039 16.0757 15.625 17.2918 15.625 20.175C15.625 26.1292 17.8288 33.0987 22.093 40.957" fill="#FFFBE6"/>
<path d="M30.7787 33.2775L26.2377 35.3257C25.3299 35.7342 24.5201 36.3409 23.8647 37.1035C23.2093 37.8661 22.7242 38.7661 22.4432 39.7408L21.247 43.8838C20.1633 47.6354 19.6118 51.5274 19.6094 55.44V75.2721H26.7046V65.9692C26.7046 64.6694 27.2083 63.4229 28.1049 62.5038C29.0014 61.5847 30.2174 61.0683 31.4854 61.0683L34.2738 58.2098L32.4702 32.8105L30.7787 33.2775Z" fill="#F2E2C2"/>
<path d="M42.138 26.5372V31.3552L36.5398 38.2913L35.7523 39.2659L30.4819 40.1388L31.1915 23.7005C31.264 21.9905 31.0724 20.2795 30.6238 18.6309C30.5713 18.4374 30.5146 18.2454 30.455 18.049L28.5393 11.8912C28.4971 11.7554 28.4973 11.6095 28.54 11.4739C28.5827 11.3382 28.6656 11.2197 28.7772 11.1347C28.8889 11.0498 29.0236 11.0027 29.1626 11.0001C29.3016 10.9975 29.4379 11.0395 29.5525 11.1202L34.2523 14.4369C35.5306 15.3387 36.5927 16.526 37.3586 17.9093L42.138 26.5372Z" fill="#CC957A"/>
<path d="M36.7558 60.0552C37.0963 60.0552 37.4365 60.0352 37.7747 59.9955C36.2833 61.3498 34.4641 62.1456 32.4987 62.1456C27.857 62.1456 24.0213 57.7014 23.4168 51.935C23.361 51.4035 23.3336 50.8693 23.3345 50.3348C23.3345 43.8162 27.437 38.5312 32.4973 38.5312C34.4627 38.5312 36.2819 39.327 37.7733 40.6828C37.435 40.643 37.0949 40.6231 36.7544 40.6231C31.6941 40.6231 27.5916 44.9698 27.5916 50.3348C27.5892 51.3506 27.739 52.3608 28.0358 53.33C29.2221 57.2316 32.6789 60.0552 36.7558 60.0552Z" fill="#5CE667"/>
<path d="M37.7729 59.9961C36.2815 61.3504 34.4623 62.1462 32.4969 62.1462C27.8552 62.1462 24.0196 57.702 23.415 51.9355L28.0355 53.3306C29.2218 57.2336 32.6786 60.0572 36.7555 60.0572C37.0955 60.0567 37.4352 60.0363 37.7729 59.9961Z" fill="#52CC5B"/>
<path d="M30.8962 53.7324L27.4082 74.9901H36.1424L34.2239 56.6244L30.8962 53.7324Z" fill="#F2E2C2"/>
<path d="M54.3518 57.1895L55.9738 76.3625H44.7988V67.2706L54.3518 57.1895Z" fill="#F2E2C2"/>
<path d="M36.5398 38.2917L35.7523 39.2664L30.4819 40.1392L30.5075 39.5471L31.1929 23.6908C31.2654 21.9808 31.0738 20.2698 30.6253 18.6211L32.8163 23.6326L35.8147 30.4915L36.5398 38.2917Z" fill="#F2E2C2"/>
<path d="M59.0871 42.4533C59.0863 47.2159 57.9611 51.9075 55.8077 56.1276L54.3517 58.9803L51.3717 64.8282C50.2149 67.0981 48.4403 68.9749 46.2632 70.231L45.5763 70.6267C43.8048 71.6483 41.7439 72.0124 39.741 71.6575C37.7381 71.3027 35.9159 70.2506 34.5816 68.6788C32.8662 66.6565 31.79 64.1481 31.4952 61.4853L29.9768 47.811C29.6424 44.8058 29.9378 41.762 30.8433 38.8832C31.7488 36.0045 33.2434 33.3571 35.2272 31.1182C36.5001 29.6823 38.0504 28.5336 39.7797 27.7449C41.5089 26.9563 43.3793 26.545 45.2719 26.5372C47.1645 26.5294 49.038 26.9253 50.7734 27.6996C52.5088 28.474 54.068 29.6099 55.3521 31.0353C55.3909 31.076 55.4278 31.1167 55.4628 31.1575C57.3348 33.2846 58.5237 35.9503 58.8685 38.7932C59.0155 40.0074 59.0885 41.2298 59.0871 42.4533Z" fill="#FFFBE6"/>
<path d="M59.0875 42.4536C59.0867 47.2162 57.9615 51.9079 55.8081 56.1279L54.3521 58.9806C46.5247 65.7828 44.294 53.9909 45.1553 51.1717C46.0167 48.3525 44.8006 46.7189 43.0267 40.1392C41.2529 33.5595 47.9934 32.1703 52.0036 31.2844L55.3483 31.0312C55.3871 31.072 55.424 31.1127 55.459 31.1534C57.3309 33.2806 58.5198 35.9463 58.8647 38.7892C59.0133 40.0048 59.0877 41.2286 59.0875 42.4536Z" fill="#CC957A"/>
<path d="M37.5179 64.4146L37.2738 63.0763C37.2265 62.8186 37.2315 62.5537 37.2885 62.2982C37.3455 62.0426 37.4533 61.8018 37.605 61.5908C37.7568 61.3797 37.9494 61.2031 38.1707 61.0717C38.3921 60.9404 38.6374 60.8572 38.8915 60.8273L39.7741 60.724C40.514 60.6362 41.2636 60.7163 41.9699 60.9586C42.6762 61.201 43.3218 61.5996 43.861 62.1264C44.1561 62.4139 44.351 62.7928 44.4158 63.2048C44.4807 63.6168 44.4119 64.0392 44.22 64.4073L43.8269 65.1638C43.4967 65.7984 43.0045 66.329 42.4029 66.699C41.8013 67.069 41.1129 67.2644 40.4113 67.2644C40.0337 67.2643 39.665 67.1466 39.3541 66.9269L38.9185 66.6185C38.1867 66.1016 37.6834 65.3096 37.5179 64.4146Z" fill="#454A4D"/>
<path d="M52.6023 53.1843C52.4327 53.1839 52.2697 53.1171 52.1466 52.9976C52.0234 52.8781 51.9494 52.7149 51.9396 52.5413C51.8573 51.0866 51.2471 50.1018 50.2197 49.7774C49.2165 49.4515 48.0216 49.8647 47.3164 50.7797C47.2621 50.85 47.1949 50.9086 47.1186 50.9523C47.0423 50.996 46.9583 51.0238 46.8714 51.0342C46.7846 51.0446 46.6966 51.0374 46.6125 51.0129C46.5284 50.9885 46.4498 50.9473 46.3812 50.8917C46.3127 50.8361 46.2554 50.7672 46.2128 50.6889C46.1702 50.6107 46.1431 50.5246 46.1329 50.4355C46.1228 50.3465 46.1298 50.2563 46.1537 50.1701C46.1775 50.0839 46.2177 50.0033 46.272 49.933C47.3306 48.5627 49.0774 47.9764 50.6213 48.4783C52.1823 48.986 53.1529 50.4422 53.2679 52.4729C53.2779 52.6535 53.2177 52.8307 53.1003 52.9658C52.983 53.1008 52.8182 53.1825 52.6421 53.193L52.6023 53.1843Z" fill="#454A4D"/>
<path d="M34.2896 50.1466C34.1814 50.1467 34.0748 50.1197 33.9791 50.0679C33.8834 50.0161 33.8015 49.9412 33.7405 49.8495C33.6795 49.7579 33.6413 49.6524 33.6292 49.5421C33.6171 49.4319 33.6314 49.3203 33.6709 49.2171C34.3251 47.5049 35.9414 46.3164 37.6045 46.3382C39.1655 46.3542 40.4313 47.403 41.0826 49.2142C41.1352 49.3816 41.1227 49.5634 41.0477 49.7217C40.9727 49.8799 40.8409 50.0023 40.68 50.0634C40.519 50.1244 40.3412 50.1193 40.1838 50.0491C40.0264 49.979 39.9015 49.8492 39.8353 49.6869C39.3783 48.417 38.5808 47.7114 37.5917 47.7013H37.5705C36.4721 47.7013 35.3553 48.545 34.9083 49.7146C34.8595 49.842 34.7744 49.9514 34.664 50.0285C34.5536 50.1056 34.4232 50.1467 34.2896 50.1466Z" fill="#454A4D"/>
<path d="M35.8135 30.4902H41.3321C41.5518 30.4912 41.7688 30.4398 41.9658 30.3403C42.1629 30.2407 42.3347 30.0955 42.4678 29.9163C42.6008 29.737 42.6914 29.5286 42.7325 29.3073C42.7735 29.086 42.7639 28.858 42.7044 28.6412L42.1367 26.5363L36.8153 20.0352L35.8135 30.4902Z" fill="#CC957A"/>
<path d="M32.818 23.6408L30.5958 39.7052L30.5078 39.551L31.1932 23.6947C31.2657 21.9847 31.0742 20.2737 30.6256 18.625L32.818 23.6408Z" fill="#FFFBE6"/>
<path d="M23.5118 71.7953L23.3444 70.3507C23.3214 70.1472 23.3406 69.941 23.4007 69.7457C23.4609 69.5503 23.5606 69.3702 23.6933 69.217C23.8261 69.0639 23.9889 68.9413 24.1711 68.8571C24.3533 68.773 24.5508 68.7292 24.7506 68.7287H25.8674C26.1254 68.7286 26.3786 68.8005 26.5997 68.9368L27.4511 69.4605C27.6174 69.562 27.8021 69.6275 27.994 69.6531C28.1859 69.6787 28.3809 69.6638 28.567 69.6093C28.7531 69.5548 28.9263 69.4619 29.0761 69.3362C29.2258 69.2105 29.3489 69.0548 29.4378 68.8786L29.6847 68.4014C29.787 68.196 29.8405 67.9687 29.8408 67.7381V66.9293C29.8416 66.591 29.9574 66.2637 30.1682 66.0035C30.379 65.7433 30.6717 65.5665 30.9959 65.5036L34.1618 64.8956C34.4267 64.8451 34.7002 64.873 34.9503 64.9761C35.2003 65.0791 35.4165 65.253 35.5737 65.4775L36.208 66.3866C36.3214 66.5496 36.4663 66.6867 36.6337 66.7896L38.5353 67.9534C38.8581 68.1502 39.2439 68.2077 39.6081 68.1134L40.2764 67.9403C40.5813 67.8608 40.9032 67.8874 41.1917 68.0159L41.9963 68.3781C42.1742 68.4573 42.366 68.4983 42.56 68.4985C42.7539 68.4987 42.9459 68.4582 43.1239 68.3794C43.302 68.3006 43.4624 68.1852 43.5953 68.0404C43.7281 67.8956 43.8306 67.7243 43.8964 67.5373L44.1305 66.8696C44.2294 66.5884 44.4103 66.3453 44.6487 66.1732C44.8871 66.0012 45.1715 65.9086 45.463 65.908H47.0793C47.3076 65.9083 47.5325 65.9651 47.7348 66.0735C47.9371 66.1819 48.1109 66.3387 48.2415 66.5307L48.9936 67.6392C49.1242 67.8311 49.298 67.9879 49.5004 68.0963C49.7027 68.2047 49.9275 68.2615 50.1558 68.2618H51.7494C51.9475 68.2622 52.1433 68.3051 52.3242 68.3877C52.5051 68.4704 52.6672 68.591 52.7999 68.7417C52.9327 68.8924 53.0331 69.07 53.0949 69.2629C53.1567 69.4559 53.1783 69.6599 53.1585 69.862L52.9868 71.5145C52.9685 71.701 52.9145 71.8819 52.8279 72.0469L52.0275 73.5933C51.9068 73.8258 51.7267 74.0203 51.5065 74.1561C51.2863 74.2919 51.0343 74.3638 50.7774 74.3643H25.0926C24.7517 74.3636 24.4223 74.2371 24.1648 74.0079C23.9074 73.7787 23.739 73.4622 23.6906 73.1161L23.5118 71.7953Z" fill="#665347"/>
<path d="M60.7264 86.0002H14.8586C14.5252 86.0006 14.1973 85.9124 13.9071 85.7442C13.6168 85.576 13.3741 85.3335 13.2026 85.0404C13.031 84.7473 12.9365 84.4136 12.9283 84.0719C12.9201 83.7302 12.9985 83.3922 13.1557 83.0908L18.5396 72.8409C18.705 72.5258 18.9508 72.2626 19.2507 72.0794C19.5506 71.8962 19.8933 71.7999 20.2424 71.8008H55.3425C55.6916 71.8002 56.0342 71.8967 56.334 72.0798C56.6339 72.263 56.8797 72.526 57.0454 72.8409L62.4292 83.0908C62.5861 83.3922 62.6641 83.7302 62.6557 84.0717C62.6473 84.4133 62.5527 84.7467 62.3813 85.0397C62.2098 85.3326 61.9673 85.5751 61.6772 85.7434C61.3872 85.9117 61.0597 86.0002 60.7264 86.0002Z" fill="#E65C5C"/>
<path d="M60.7266 86.0002H42.6707L37.792 71.7949H55.3427C55.6918 71.7944 56.0344 71.8908 56.3343 72.0739C56.6341 72.2571 56.8799 72.5201 57.0456 72.835L62.4295 83.0849C62.5876 83.3866 62.6668 83.7251 62.659 84.0675C62.6513 84.4099 62.557 84.7443 62.3854 85.0382C62.2138 85.332 61.9707 85.5751 61.6799 85.7437C61.3892 85.9124 61.0607 86.0007 60.7266 86.0002Z" fill="#CC5252"/>
<path d="M13.4903 33.355C13.4121 33.3545 13.3349 33.3364 13.2643 33.3019C13.1937 33.2675 13.1313 33.2176 13.0816 33.1557C9.57085 28.7523 8.40866 23.8528 9.88588 19.7112C9.90433 19.6372 9.93772 19.568 9.9839 19.5081C10.0301 19.4482 10.088 19.3989 10.154 19.3634C10.2199 19.3279 10.2924 19.3069 10.3667 19.3019C10.4411 19.297 10.5156 19.308 10.5855 19.3344C10.6554 19.3609 10.7191 19.402 10.7725 19.4553C10.8259 19.5085 10.8678 19.5726 10.8955 19.6435C10.9232 19.7144 10.936 19.7905 10.9332 19.8668C10.9304 19.9431 10.912 20.018 10.8792 20.0865C9.53396 23.8557 10.6394 28.3682 13.9018 32.4647C13.9659 32.5444 14.0066 32.6412 14.0191 32.7438C14.0315 32.8464 14.0152 32.9505 13.972 33.0439C13.9288 33.1373 13.8606 33.2161 13.7753 33.2712C13.6899 33.3263 13.5911 33.3554 13.4903 33.355Z" fill="#665347"/>
<path d="M8.43452 35.0012C8.33361 34.9999 8.23516 34.9691 8.15071 34.9125C4.50234 32.4773 4 29.45 4 26.5377C4 26.393 4.05606 26.2543 4.15586 26.152C4.25566 26.0497 4.39101 25.9922 4.53214 25.9922C4.67328 25.9922 4.80863 26.0497 4.90842 26.152C5.00822 26.2543 5.06428 26.393 5.06428 26.5377C5.06428 28.9642 5.34809 31.7398 8.724 33.9902C8.82015 34.0538 8.89372 34.1476 8.93378 34.2575C8.97385 34.3674 8.97827 34.4876 8.94641 34.6003C8.91455 34.713 8.84809 34.8122 8.7569 34.8831C8.66571 34.954 8.55465 34.9929 8.44019 34.9939L8.43452 35.0012Z" fill="#665347"/>
<path d="M27.9458 25.6284C27.8047 25.6284 27.6693 25.5709 27.5695 25.4686C27.4698 25.3663 27.4137 25.2275 27.4137 25.0828C27.4137 20.8176 25.7633 17.7875 24.2152 15.2824C24.1753 15.2219 24.1477 15.1537 24.134 15.082C24.1202 15.0103 24.1207 14.9365 24.1354 14.865C24.15 14.7935 24.1785 14.7258 24.2192 14.6658C24.2599 14.6058 24.3119 14.5548 24.3722 14.5158C24.4325 14.4768 24.4998 14.4506 24.5701 14.4388C24.6405 14.427 24.7124 14.4298 24.7817 14.447C24.8509 14.4643 24.9161 14.4956 24.9734 14.5391C25.0306 14.5827 25.0787 14.6376 25.1148 14.7006C26.8617 17.5271 28.478 20.7449 28.478 25.0828C28.4782 25.1545 28.4645 25.2255 28.4378 25.2918C28.4112 25.3581 28.372 25.4183 28.3225 25.469C28.2731 25.5197 28.2143 25.5599 28.1497 25.5872C28.085 25.6146 28.0158 25.6285 27.9458 25.6284Z" fill="#665347"/>
<path d="M76.1952 46.5972C76.1149 46.5973 76.0358 46.5784 75.9639 46.5419C75.8372 46.4788 75.74 46.3669 75.6935 46.2307C75.647 46.0944 75.6549 45.9449 75.7155 45.8146C78.6955 39.4895 77.9278 32.9724 77.6227 31.122C77.6087 31.0504 77.6088 30.9767 77.623 30.9051C77.6372 30.8336 77.6654 30.7657 77.7057 30.7055C77.746 30.6453 77.7977 30.5941 77.8577 30.5547C77.9176 30.5154 77.9847 30.4888 78.0549 30.4765C78.1252 30.4642 78.1971 30.4665 78.2664 30.4833C78.3357 30.5 78.401 30.5308 78.4585 30.5739C78.516 30.6171 78.5645 30.6715 78.601 30.7342C78.6376 30.7969 78.6615 30.8664 78.6714 30.9387C78.9893 32.8662 79.7868 39.667 76.6748 46.283C76.6318 46.3763 76.564 46.4553 76.4791 46.5109C76.3943 46.5665 76.2959 46.5964 76.1952 46.5972Z" fill="#665347"/>
<path d="M78.4728 51.7303C78.3529 51.7305 78.2366 51.6892 78.1425 51.6131C78.0484 51.537 77.9822 51.4306 77.9544 51.3111C77.9267 51.1916 77.9391 51.066 77.9896 50.9546C78.0402 50.8433 78.1259 50.7527 78.2329 50.6975C81.9537 48.7772 82.9357 43.8123 82.9357 41.4557C82.9357 41.311 82.9917 41.1722 83.0915 41.0699C83.1913 40.9676 83.3267 40.9102 83.4678 40.9102C83.6089 40.9102 83.7443 40.9676 83.8441 41.0699C83.9439 41.1722 83.9999 41.311 83.9999 41.4557C83.9999 44.0451 82.8959 49.5119 78.7126 51.6721C78.6381 51.7103 78.556 51.7302 78.4728 51.7303Z" fill="#665347"/>
<path d="M12.2164 65.1789L12.5654 66.3849C12.5952 66.4885 12.6542 66.5809 12.7349 66.6503C12.8157 66.7197 12.9146 66.7631 13.0194 66.7751C13.1241 66.787 13.23 66.767 13.3237 66.7175C13.4174 66.668 13.4947 66.5913 13.546 66.4969L13.9887 65.6866C14.0243 65.6214 14.0465 65.5494 14.054 65.475C14.0615 65.4006 14.0542 65.3255 14.0324 65.2542C14.0106 65.1828 13.9749 65.1168 13.9274 65.0601C13.8798 65.0034 13.8215 64.9572 13.756 64.9244L12.9656 64.5316C12.8723 64.4853 12.7679 64.4676 12.6651 64.4808C12.5622 64.494 12.4653 64.5375 12.386 64.606C12.3068 64.6745 12.2486 64.765 12.2184 64.8667C12.1883 64.9684 12.1876 65.0768 12.2164 65.1789Z" fill="#665347"/>
<path d="M10.6981 49.1835L10.1418 51.6362C10.125 51.7107 10.1234 51.7879 10.1373 51.8631C10.1513 51.9382 10.1803 52.0096 10.2227 52.0725C10.265 52.1355 10.3197 52.1887 10.3832 52.2288C10.4467 52.2689 10.5177 52.295 10.5917 52.3053L12.4847 52.5701C12.6087 52.5881 12.735 52.5608 12.8413 52.493C12.9477 52.4252 13.0274 52.3211 13.0665 52.1991L13.5404 50.7444C13.577 50.6307 13.5764 50.5078 13.5387 50.3944C13.5011 50.281 13.4285 50.1833 13.3318 50.116L11.5211 48.8533C11.4492 48.803 11.3664 48.7714 11.2798 48.7613C11.1933 48.7512 11.1056 48.763 11.0245 48.7955C10.9434 48.8281 10.8713 48.8804 10.8144 48.948C10.7575 49.0157 10.7176 49.0965 10.6981 49.1835Z" fill="#665347"/>
<path d="M62.1286 70.4613C62.1825 70.7872 62.2379 71.1014 62.2805 71.3443C62.3025 71.471 62.3673 71.5856 62.4636 71.6681C62.5599 71.7505 62.6815 71.7956 62.8069 71.7953H63.5519C63.6589 71.7952 63.7635 71.7622 63.8521 71.7007C63.9407 71.6392 64.0093 71.5519 64.0492 71.45C64.089 71.3482 64.0982 71.2365 64.0756 71.1293C64.053 71.022 63.9996 70.9242 63.9223 70.8483L63.0255 69.9755C62.9443 69.8962 62.8409 69.8451 62.7298 69.8294C62.6188 69.8136 62.5057 69.8341 62.4066 69.8878C62.3075 69.9415 62.2273 70.0257 62.1775 70.1286C62.1276 70.2315 62.1105 70.3479 62.1286 70.4613Z" fill="#665347"/>
<path d="M64.4168 60.4573L63.9315 62.0692C63.9094 62.1426 63.9026 62.2201 63.9115 62.2964C63.9204 62.3728 63.9449 62.4464 63.9832 62.5125C64.0216 62.5786 64.0731 62.6356 64.1343 62.6801C64.1956 62.7245 64.2652 62.7552 64.3388 62.7703L65.4811 63.0045C65.5744 63.0236 65.671 63.0168 65.761 62.985C65.8509 62.9531 65.931 62.8973 65.9929 62.8233C66.0549 62.7493 66.0965 62.6597 66.1136 62.5637C66.1306 62.4677 66.1224 62.3688 66.0899 62.2772L65.4329 60.4311C65.3943 60.3231 65.3236 60.2302 65.2309 60.1655C65.1381 60.1008 65.0279 60.0676 64.9157 60.0705C64.8035 60.0734 64.6951 60.1123 64.6056 60.1817C64.5161 60.251 64.4501 60.3475 64.4168 60.4573Z" fill="#665347"/>
<path d="M54.0339 66.2767L55.4387 67.0245C55.5635 67.091 55.7088 67.1044 55.8432 67.062C55.9775 67.0195 56.0902 66.9245 56.1568 66.7975L57.0082 65.1741C57.0522 65.0905 57.0742 64.9966 57.0722 64.9017C57.0702 64.8068 57.0442 64.714 56.9967 64.6325C56.9492 64.551 56.8819 64.4835 56.8013 64.4366C56.7208 64.3898 56.6297 64.3652 56.5371 64.3652H55.7793C55.6868 64.3654 55.5959 64.3899 55.5154 64.4365L54.0126 65.3093C53.9285 65.3584 53.859 65.4299 53.8113 65.5162C53.7637 65.6025 53.7397 65.7004 53.7418 65.7995C53.744 65.8987 53.7723 65.9954 53.8237 66.0794C53.8751 66.1634 53.9478 66.2316 54.0339 66.2767Z" fill="#665347"/>
<path d="M19.1832 57.4215L18.0054 59.1235C17.9612 59.1872 17.9308 59.2598 17.9162 59.3365C17.9016 59.4132 17.9031 59.4922 17.9207 59.5682C17.9383 59.6443 17.9716 59.7156 18.0182 59.7774C18.0649 59.8392 18.1239 59.89 18.1913 59.9265L19.3166 60.5404C19.4032 60.5874 19.5006 60.6092 19.5984 60.6036C19.6962 60.5979 19.7906 60.565 19.8715 60.5084L21.0408 59.6879C21.1008 59.6458 21.1519 59.5916 21.1908 59.5286C21.2297 59.4655 21.2557 59.3951 21.2671 59.3214C21.2785 59.2477 21.2751 59.1724 21.2572 59.1001C21.2393 59.0279 21.2072 58.9601 21.1628 58.9009L20.0517 57.4041C20.0006 57.3347 19.9342 57.2788 19.858 57.2408C19.7818 57.2029 19.6979 57.1839 19.6131 57.1857C19.5284 57.1874 19.4452 57.2096 19.3705 57.2506C19.2958 57.2916 19.2316 57.3502 19.1832 57.4215Z" fill="#665347"/>
<path d="M46.903 78.3129C47.1193 78.0438 47.2693 77.7253 47.3402 77.3843C47.4112 77.0432 47.4011 76.6897 47.3107 76.3535C47.2204 76.0174 47.0525 75.7084 46.8211 75.4528C46.5898 75.1971 46.3019 75.0023 45.9817 74.8847C45.6614 74.7672 45.3183 74.7303 44.9813 74.7773C44.6442 74.8243 44.3231 74.9537 44.0451 75.1546C43.7672 75.3556 43.5404 75.6221 43.3841 75.9318C43.2277 76.2414 43.1463 76.5851 43.1468 76.9338C43.1468 77.0573 43.0989 77.1757 43.0138 77.263C42.9286 77.3503 42.8131 77.3993 42.6927 77.3993H32.8417C32.7834 77.3993 32.7256 77.3875 32.6718 77.3645C32.618 77.3415 32.5691 77.3078 32.5281 77.2653C32.4871 77.2228 32.4546 77.1724 32.4327 77.117C32.4108 77.0616 32.3998 77.0023 32.4004 76.9426C32.4016 76.7785 32.3835 76.6149 32.3464 76.4552C32.2336 75.9658 31.9611 75.5305 31.574 75.2215C31.1869 74.9125 30.7084 74.7483 30.2179 74.7561C29.8188 74.7685 29.4312 74.8962 29.0998 75.1246C28.7685 75.3529 28.5068 75.6726 28.345 76.0468C28.1832 76.421 28.1278 76.8344 28.1853 77.2395C28.2427 77.6445 28.4106 78.0247 28.6697 78.3362C28.7978 78.4984 28.8658 78.7019 28.8617 78.9107C28.8575 79.1194 28.7815 79.3199 28.647 79.4767C28.4307 79.7458 28.2807 80.0643 28.2097 80.4053C28.1388 80.7463 28.1489 81.0998 28.2392 81.436C28.3296 81.7722 28.4975 82.0811 28.7288 82.3368C28.9602 82.5924 29.2481 82.7872 29.5683 82.9048C29.8885 83.0224 30.2317 83.0592 30.5687 83.0123C30.9058 82.9653 31.2268 82.8359 31.5048 82.6349C31.7828 82.434 32.0096 82.1675 32.1659 81.8578C32.3223 81.5481 32.4037 81.2044 32.4032 80.8557C32.4032 80.7961 32.4032 80.7364 32.4032 80.6783C32.3975 80.6156 32.4046 80.5524 32.424 80.4926C32.4434 80.4329 32.4747 80.3779 32.5159 80.3313C32.5572 80.2846 32.6074 80.2473 32.6635 80.2216C32.7196 80.196 32.7803 80.1825 32.8417 80.1822H42.7253C42.7867 80.1825 42.8474 80.196 42.9035 80.2216C42.9596 80.2473 43.0098 80.2846 43.0511 80.3313C43.0923 80.3779 43.1236 80.4329 43.143 80.4926C43.1624 80.5524 43.1695 80.6156 43.1638 80.6783C43.1514 80.8329 43.1552 80.9885 43.1752 81.1423C43.246 81.6895 43.5174 82.1886 43.9341 82.5382C44.3508 82.8878 44.8817 83.0617 45.419 83.0247C45.9562 82.9877 46.4596 82.7425 46.827 82.3388C47.1943 81.9352 47.398 81.4034 47.3968 80.8514C47.3972 80.3355 47.2175 79.8365 46.8902 79.4447C46.7635 79.284 46.6954 79.083 46.6977 78.8764C46.7001 78.6698 46.7727 78.4705 46.903 78.3129Z" fill="white"/>
</svg>
