<svg width="30" height="40" viewBox="0 0 30 40" fill="none" xmlns="http://www.w3.org/2000/svg">
<path d="M28.2162 24.594C28.3207 24.3526 28.3561 24.092 28.3191 23.8355C28.2822 23.5791 28.1742 23.3347 28.0047 23.1243L27.7539 22.8166C27.6212 22.6527 27.5312 22.4646 27.4905 22.266L26.7225 18.5498C26.5955 17.9338 26.3321 17.3462 25.9475 16.8208C25.5629 16.2955 25.0648 15.843 24.4819 15.4893C23.3394 14.7964 22.0503 14.3158 20.6926 14.0767L19.6855 13.8985C19.2094 13.8693 18.7318 13.8652 18.2552 13.8863L18.2425 13.9266C18.1206 14.3029 17.9148 14.6538 17.6374 14.9584C17.3402 15.2733 16.9677 15.5257 16.5469 15.6972C16.126 15.8686 15.6674 15.9549 15.2043 15.9498C14.8563 15.9498 14.1306 15.9498 13.4366 15.629C12.8611 15.3645 12.1523 14.7999 11.9788 13.6105L9.31297 14.0795C7.95556 14.3186 6.66687 14.7992 5.5247 15.4921C4.94145 15.8456 4.44302 16.298 4.05825 16.8234C3.67348 17.3487 3.41 17.9365 3.28305 18.5527L2.50974 22.2613C2.46868 22.46 2.37834 22.648 2.24527 22.8119L1.99667 23.1243C1.82627 23.3352 1.71772 23.5804 1.68078 23.8378C1.64385 24.0952 1.67969 24.3567 1.78509 24.5987L2.92231 27.2335C3.03214 27.4875 3.04953 27.7656 2.97203 28.0289L2.23786 30.5126C2.21655 30.5823 2.21741 30.656 2.24034 30.7254C2.26327 30.7947 2.30739 30.8571 2.36782 30.9056C2.42825 30.9542 2.50263 30.987 2.58275 31.0003C2.66287 31.0137 2.7456 31.0072 2.82181 30.9815L3.78978 30.6579C3.86289 30.6333 3.9414 30.6239 4.01928 30.6303C4.09716 30.6368 4.17233 30.659 4.23902 30.6952C4.30572 30.7314 4.36217 30.7807 4.40404 30.8393C4.44591 30.8979 4.47209 30.9642 4.48057 31.0331L4.79794 33.7935C4.80795 33.875 4.84251 33.9525 4.89799 34.0179C4.95347 34.0834 5.02782 34.1344 5.11322 34.1656C5.19862 34.1968 5.29193 34.207 5.38332 34.1952C5.47471 34.1834 5.56083 34.1499 5.6326 34.0984L7.60132 32.6774C7.68277 32.6192 7.77634 32.5759 7.8767 32.5499C7.97705 32.5238 8.08221 32.5156 8.18616 32.5256C8.29011 32.5356 8.39081 32.5637 8.48251 32.6082C8.57421 32.6528 8.6551 32.7129 8.72056 32.7852L12.1597 36.5633C12.1985 36.6029 12.2489 36.632 12.3053 36.6475C12.3617 36.663 12.4219 36.6643 12.479 36.6511C12.5362 36.638 12.5881 36.6109 12.6288 36.573C12.6696 36.5352 12.6977 36.488 12.7098 36.4367L13.2917 33.4699C13.3212 33.321 13.409 33.1859 13.5395 33.0885C13.6701 32.9911 13.8351 32.9375 14.0057 32.9372C14.0925 32.9371 14.1785 32.9511 14.2596 32.9785C14.7373 33.1361 15.263 33.1361 15.7407 32.9785C15.8404 32.9452 15.9472 32.9318 16.0534 32.9394C16.1596 32.947 16.2627 32.9752 16.3551 33.0222C16.4476 33.0691 16.5272 33.1336 16.5883 33.211C16.6494 33.2884 16.6905 33.3768 16.7086 33.4699L17.2894 36.4367C17.3016 36.488 17.3296 36.5352 17.3704 36.573C17.4112 36.6109 17.463 36.638 17.5202 36.6511C17.5774 36.6643 17.6375 36.663 17.6939 36.6475C17.7503 36.632 17.8008 36.6029 17.8395 36.5633L21.2787 32.7852C21.4115 32.6399 21.6039 32.5472 21.8138 32.5275C22.0236 32.5078 22.2337 32.5627 22.3979 32.6802L24.3677 34.0984C24.4398 34.1505 24.5265 34.1842 24.6186 34.1961C24.7107 34.208 24.8046 34.1976 24.8905 34.166C24.9765 34.1343 25.0511 34.0826 25.1066 34.0164C25.162 33.9502 25.1962 33.8719 25.2055 33.7898L25.5229 31.0294C25.5312 30.9605 25.5572 30.8942 25.599 30.8356C25.6408 30.777 25.6971 30.7277 25.7637 30.6915C25.8304 30.6552 25.9055 30.633 25.9833 30.6266C26.0611 30.6201 26.1396 30.6296 26.2126 30.6542L27.1806 30.9778C27.2568 31.0035 27.3395 31.01 27.4196 30.9966C27.4998 30.9832 27.5741 30.9504 27.6346 30.9019C27.695 30.8534 27.7391 30.791 27.7621 30.7216C27.785 30.6522 27.7858 30.5786 27.7645 30.5088L27.0367 28.0204C26.9587 27.7572 26.9761 27.479 27.0864 27.225L28.2162 24.594ZM7.77693 23.4919C4.90901 23.4919 3.42269 21.1048 4.02357 19.4418C4.62444 17.7788 8.83904 15.9254 11.0341 21.2934C11.0341 21.2934 10.6448 23.4919 7.77693 23.4919ZM11.8953 28.3947C11.7038 28.8824 11.3335 29.7078 11.0341 29.7078C10.7348 29.7078 10.0937 28.8711 9.7467 28.3843C9.72301 28.3507 9.70986 28.312 9.70862 28.2723C9.70737 28.2327 9.71808 28.1934 9.73963 28.1586C9.76119 28.1239 9.79281 28.0948 9.83124 28.0745C9.86967 28.0541 9.91352 28.0432 9.95828 28.0429L10.0006 28.0551C10.2533 28.133 10.519 28.1726 10.7866 28.1724C11.0684 28.1723 11.348 28.1285 11.6128 28.0429C11.6606 28.0426 11.7078 28.0525 11.7503 28.0717C11.7929 28.091 11.8296 28.1191 11.8573 28.1536C11.885 28.1881 11.9029 28.2281 11.9095 28.27C11.9161 28.312 11.9112 28.3547 11.8953 28.3947ZM22.2233 23.4919C19.3554 23.4919 18.9672 21.2934 18.9672 21.2934C21.1612 15.9254 25.3748 17.7779 25.9778 19.4418C26.5808 21.1058 25.0913 23.4919 22.2233 23.4919ZM18.378 13.3095C18.672 13.3001 19.0888 13.2954 19.5416 13.3188V12.0329C19.5416 8.61122 21.8277 5.67541 20.8798 5.48688C20.3615 5.38465 19.0275 6.24663 17.9675 7.32341C17.9209 8.5859 17.9548 10.0285 18.2722 11.4326C18.4227 12.0489 18.4584 12.6829 18.378 13.3095Z" fill="#A1BF69"/>
<path d="M8.16515 22.4686C9.55274 22.4686 10.6776 21.4713 10.6776 20.241C10.6776 19.0107 9.55274 18.0133 8.16515 18.0133C6.77755 18.0133 5.65268 19.0107 5.65268 20.241C5.65268 21.4713 6.77755 22.4686 8.16515 22.4686Z" fill="#A1BF69"/>
<path d="M21.8363 22.4686C23.2239 22.4686 24.3488 21.4713 24.3488 20.241C24.3488 19.0107 23.2239 18.0133 21.8363 18.0133C20.4487 18.0133 19.3238 19.0107 19.3238 20.241C19.3238 21.4713 20.4487 22.4686 21.8363 22.4686Z" fill="#A1BF69"/>
<path d="M17.5906 13.5252C17.5674 13.619 17.5388 13.7128 17.5081 13.7925C17.1093 14.8702 16.099 15.282 15.2051 15.282C14.5619 15.282 12.9444 15.2595 12.7096 13.4736C12.7096 13.4455 12.7022 13.4173 12.699 13.3883C12.3816 10.3286 14.6963 4.48421 17.1061 3.36804C17.1452 3.34796 17.189 3.33609 17.2341 3.33333C17.7631 3.33333 17.2183 5.49064 17.2109 8.21072C17.1968 9.33391 17.3084 10.4556 17.5441 11.5592C17.725 12.3612 17.7208 13.0093 17.5906 13.5252Z" fill="#A1BF69"/>
<path d="M20.8895 9.83526C21.7083 9.58952 22.6773 9.44976 22.6033 9.89905C22.5292 10.3483 21.1222 11.9701 20.7456 13.5393L20.2463 13.4745C20.2463 13.4745 20.2622 12.2552 20.3987 11.2929C20.532 10.3577 20.8895 9.83526 20.8895 9.83526Z" fill="#A1BF69"/>
</svg>
