<svg width="30" height="40" viewBox="0 0 30 40" fill="none" xmlns="http://www.w3.org/2000/svg">
<path d="M28.2163 24.594C28.3207 24.3526 28.3561 24.092 28.3192 23.8355C28.2822 23.5791 28.1742 23.3347 28.0047 23.1243L27.754 22.8166C27.6212 22.6527 27.5312 22.4646 27.4906 22.266L26.7225 18.5498C26.5955 17.9338 26.3321 17.3462 25.9475 16.8208C25.5629 16.2955 25.0648 15.843 24.4819 15.4893C23.3394 14.7964 22.0504 14.3158 20.6926 14.0767L19.6855 13.8985C19.2094 13.8693 18.7319 13.8652 18.2553 13.8863L18.2426 13.9266C18.1206 14.3029 17.9148 14.6538 17.6375 14.9584C17.3402 15.2733 16.9677 15.5257 16.5469 15.6972C16.126 15.8686 15.6674 15.9549 15.2043 15.9498C14.8563 15.9498 14.1306 15.9498 13.4366 15.629C12.8611 15.3645 12.1523 14.7999 11.9788 13.6105L9.31299 14.0795C7.95557 14.3186 6.66688 14.7992 5.52472 15.4921C4.94146 15.8456 4.44304 16.298 4.05827 16.8234C3.6735 17.3487 3.41002 17.9365 3.28307 18.5527L2.50975 22.2613C2.46869 22.46 2.37836 22.648 2.24528 22.8119L1.99668 23.1243C1.82628 23.3352 1.71773 23.5804 1.6808 23.8378C1.64386 24.0952 1.67971 24.3567 1.78511 24.5987L2.92233 27.2335C3.03216 27.4875 3.04954 27.7656 2.97205 28.0289L2.23788 30.5126C2.21656 30.5823 2.21742 30.656 2.24035 30.7254C2.26329 30.7947 2.30741 30.8571 2.36783 30.9056C2.42826 30.9542 2.50264 30.987 2.58276 31.0003C2.66288 31.0137 2.74562 31.0072 2.82183 30.9815L3.78979 30.6579C3.86291 30.6333 3.94142 30.6239 4.0193 30.6303C4.09717 30.6368 4.17234 30.659 4.23904 30.6952C4.30574 30.7314 4.36219 30.7807 4.40406 30.8393C4.44593 30.8979 4.47211 30.9642 4.48059 31.0331L4.79795 33.7935C4.80796 33.875 4.84253 33.9525 4.89801 34.0179C4.95349 34.0834 5.02783 34.1344 5.11324 34.1656C5.19864 34.1968 5.29194 34.207 5.38333 34.1952C5.47473 34.1834 5.56084 34.1499 5.63262 34.0984L7.60134 32.6774C7.68278 32.6192 7.77636 32.5759 7.87671 32.5499C7.97706 32.5238 8.08222 32.5156 8.18617 32.5256C8.29013 32.5356 8.39083 32.5637 8.48253 32.6082C8.57422 32.6528 8.65511 32.7129 8.72057 32.7852L12.1597 36.5633C12.1985 36.6029 12.2489 36.632 12.3053 36.6475C12.3617 36.663 12.4219 36.6643 12.479 36.6511C12.5362 36.638 12.5881 36.6109 12.6289 36.573C12.6696 36.5352 12.6977 36.488 12.7098 36.4367L13.2917 33.4699C13.3212 33.321 13.409 33.1859 13.5395 33.0885C13.6701 32.9911 13.8351 32.9375 14.0057 32.9372C14.0925 32.9371 14.1785 32.9511 14.2596 32.9785C14.7373 33.1361 15.263 33.1361 15.7407 32.9785C15.8404 32.9452 15.9472 32.9318 16.0534 32.9394C16.1596 32.947 16.2627 32.9752 16.3551 33.0222C16.4476 33.0691 16.5273 33.1336 16.5884 33.211C16.6495 33.2884 16.6905 33.3768 16.7086 33.4699L17.2894 36.4367C17.3016 36.488 17.3296 36.5352 17.3704 36.573C17.4112 36.6109 17.4631 36.638 17.5202 36.6511C17.5774 36.6643 17.6375 36.663 17.694 36.6475C17.7504 36.632 17.8008 36.6029 17.8395 36.5633L21.2787 32.7852C21.4115 32.6399 21.604 32.5472 21.8138 32.5275C22.0236 32.5078 22.2337 32.5627 22.3979 32.6802L24.3677 34.0984C24.4398 34.1505 24.5265 34.1842 24.6186 34.1961C24.7107 34.208 24.8046 34.1976 24.8906 34.166C24.9765 34.1343 25.0511 34.0826 25.1066 34.0164C25.162 33.9502 25.1962 33.8719 25.2055 33.7898L25.5229 31.0294C25.5312 30.9605 25.5573 30.8942 25.599 30.8356C25.6408 30.777 25.6971 30.7277 25.7638 30.6915C25.8304 30.6552 25.9055 30.633 25.9833 30.6266C26.0611 30.6201 26.1396 30.6296 26.2126 30.6542L27.1806 30.9778C27.2568 31.0035 27.3395 31.01 27.4197 30.9966C27.4998 30.9832 27.5742 30.9504 27.6346 30.9019C27.695 30.8534 27.7391 30.791 27.7621 30.7216C27.785 30.6522 27.7859 30.5786 27.7645 30.5088L27.0367 28.0204C26.9587 27.7572 26.9761 27.479 27.0864 27.225L28.2163 24.594ZM7.77694 23.4919C4.90903 23.4919 3.42271 21.1048 4.02358 19.4418C4.62446 17.7788 8.83906 15.9254 11.0342 21.2934C11.0342 21.2934 10.6449 23.4919 7.77694 23.4919ZM11.8953 28.3947C11.7038 28.8824 11.3335 29.7078 11.0342 29.7078C10.7348 29.7078 10.0937 28.8711 9.74672 28.3843C9.72302 28.3507 9.70987 28.312 9.70863 28.2723C9.70739 28.2327 9.7181 28.1934 9.73965 28.1586C9.7612 28.1239 9.79282 28.0948 9.83125 28.0745C9.86968 28.0541 9.91354 28.0432 9.95829 28.0429L10.0006 28.0551C10.2533 28.133 10.5191 28.1726 10.7866 28.1724C11.0684 28.1723 11.3481 28.1285 11.6128 28.0429C11.6606 28.0426 11.7078 28.0525 11.7503 28.0717C11.7929 28.091 11.8296 28.1191 11.8573 28.1536C11.885 28.1881 11.9029 28.2281 11.9095 28.27C11.9162 28.312 11.9113 28.3547 11.8953 28.3947ZM22.2234 23.4919C19.3554 23.4919 18.9672 21.2934 18.9672 21.2934C21.1613 15.9254 25.3748 17.7779 25.9778 19.4418C26.5808 21.1058 25.0913 23.4919 22.2234 23.4919ZM18.378 13.3095C18.6721 13.3001 19.0889 13.2954 19.5416 13.3188V12.0329C19.5416 8.61122 21.8277 5.67541 20.8799 5.48688C20.3615 5.38465 19.0275 6.24663 17.9675 7.32341C17.921 8.5859 17.9548 10.0285 18.2722 11.4326C18.4227 12.0489 18.4585 12.6829 18.378 13.3095Z" fill="#D8BA6F"/>
<path d="M8.16518 22.4686C9.55277 22.4686 10.6776 21.4713 10.6776 20.241C10.6776 19.0107 9.55277 18.0133 8.16518 18.0133C6.77758 18.0133 5.65271 19.0107 5.65271 20.241C5.65271 21.4713 6.77758 22.4686 8.16518 22.4686Z" fill="#D8BA6F"/>
<path d="M21.8363 22.4686C23.2239 22.4686 24.3488 21.4713 24.3488 20.241C24.3488 19.0107 23.2239 18.0133 21.8363 18.0133C20.4487 18.0133 19.3239 19.0107 19.3239 20.241C19.3239 21.4713 20.4487 22.4686 21.8363 22.4686Z" fill="#D8BA6F"/>
<path d="M17.5907 13.5252C17.5674 13.619 17.5388 13.7128 17.5081 13.7925C17.1093 14.8702 16.099 15.282 15.2051 15.282C14.5619 15.282 12.9444 15.2595 12.7096 13.4736C12.7096 13.4455 12.7022 13.4173 12.699 13.3883C12.3817 10.3286 14.6963 4.48421 17.1062 3.36804C17.1453 3.34796 17.1891 3.33609 17.2342 3.33333C17.7631 3.33333 17.2183 5.49064 17.2109 8.21072C17.1968 9.33391 17.3084 10.4556 17.5441 11.5592C17.725 12.3612 17.7208 13.0093 17.5907 13.5252Z" fill="#D8BA6F"/>
<path d="M20.8895 9.83526C21.7083 9.58952 22.6773 9.44976 22.6033 9.89905C22.5292 10.3483 21.1223 11.9701 20.7457 13.5393L20.2463 13.4745C20.2463 13.4745 20.2622 12.2552 20.3987 11.2929C20.532 10.3577 20.8895 9.83526 20.8895 9.83526Z" fill="#D8BA6F"/>
</svg>
