<svg width="32" height="32" viewBox="0 0 32 32" fill="none" xmlns="http://www.w3.org/2000/svg">
<path d="M22.9016 11.5514C24.9594 13.0276 27.4803 13.8962 30.203 13.8962V8.63823C29.6878 8.63834 29.1738 8.58442 28.6697 8.47723V12.616C25.9472 12.616 23.4266 11.7474 21.3683 10.2713V21.0012C21.3683 26.3689 17.0324 30.72 11.6841 30.72C9.68855 30.72 7.83375 30.1145 6.29297 29.0761C8.05152 30.8806 10.5039 32.0001 13.2171 32.0001C18.5657 32.0001 22.9018 27.649 22.9018 22.2811V11.5514H22.9016ZM24.7932 6.24674C23.7415 5.09372 23.051 3.60365 22.9016 1.95631V1.28003H21.4486C21.8143 3.37379 23.0619 5.16257 24.7932 6.24674ZM9.67575 24.9572C9.08818 24.184 8.77067 23.2382 8.77209 22.2657C8.77209 19.8108 10.7553 17.8202 13.202 17.8202C13.658 17.8201 14.1113 17.8902 14.5458 18.0286V12.6531C14.038 12.5833 13.5255 12.5536 13.0131 12.5645V16.7485C12.5783 16.6101 12.1248 16.5398 11.6687 16.5403C9.22195 16.5403 7.23885 18.5306 7.23885 20.9859C7.23885 22.7219 8.23013 24.225 9.67575 24.9572Z" fill="#FF004F"/>
<path d="M21.7383 10.8568C23.7855 12.3108 26.2923 13.1664 29 13.1664V9.08951C27.4886 8.76952 26.1506 7.98445 25.1446 6.89247C23.4226 5.8244 22.1819 4.06236 21.8182 2H18.0222V22.687C18.0136 25.0986 16.0445 27.0514 13.6163 27.0514C12.1854 27.0514 10.9142 26.3734 10.1091 25.3232C8.67148 24.602 7.6856 23.1213 7.6856 21.4114C7.6856 18.993 9.65791 17.0322 12.0913 17.0322C12.5576 17.0322 13.0069 17.1044 13.4285 17.2374V13.1159C8.20275 13.2232 4 17.4674 4 22.6871C4 25.2927 5.04658 27.6548 6.74519 29.3807C8.27759 30.4035 10.1223 31 12.107 31C17.4263 31 21.7384 26.7138 21.7384 21.4264V10.8568H21.7383Z" fill="black"/>
<path d="M28.6701 8.47707V7.35798C27.2997 7.36007 25.9562 6.97492 24.7935 6.24658C25.8228 7.37742 27.1781 8.15716 28.6701 8.47707ZM21.4489 1.27998C21.414 1.07988 21.3872 0.878468 21.3686 0.676285V0H16.0987V21.0011C16.0903 23.449 14.1106 25.4314 11.6688 25.4314C10.952 25.4314 10.2752 25.2606 9.6758 24.9572C10.4853 26.0233 11.7635 26.7114 13.2022 26.7114C15.6435 26.7114 17.6236 24.7292 17.6321 22.281V1.27998H21.4489ZM13.0135 12.5645V11.3732C12.5732 11.3128 12.1292 11.2825 11.6847 11.2827C6.33589 11.2826 2 15.6339 2 21.0011C2 24.366 3.70408 27.3316 6.29356 29.076C4.58565 27.324 3.53334 24.9259 3.53334 22.2808C3.53334 16.982 7.75898 12.6735 13.0135 12.5645Z" fill="#00F2EA"/>
</svg>
