<svg width="24" height="25" viewBox="0 0 24 25" fill="none" xmlns="http://www.w3.org/2000/svg">
<path d="M1 12.3047C1 6.22956 5.92487 1.30469 12 1.30469C18.0751 1.30469 23 6.22956 23 12.3047C23 18.3798 18.0751 23.3047 12 23.3047C5.92487 23.3047 1 18.3798 1 12.3047Z" fill="#55ACEE"/>
<path d="M12.417 10.3402L12.4461 10.816L11.9604 10.7578C10.1924 10.5344 8.64779 9.77707 7.33635 8.50508L6.69521 7.87394L6.53006 8.34001C6.18035 9.37896 6.40378 10.4762 7.13235 11.2141C7.52093 11.6219 7.4335 11.6802 6.76321 11.4374C6.53006 11.3598 6.32606 11.3015 6.30663 11.3306C6.23863 11.3986 6.47178 12.2822 6.65635 12.6318C6.90892 13.1172 7.42378 13.593 7.98722 13.8746L8.46322 14.0979L7.89979 14.1076C7.35578 14.1076 7.33635 14.1174 7.39464 14.3213C7.58893 14.9524 8.35636 15.6224 9.21122 15.9137L9.81351 16.1176L9.28894 16.4283C8.51179 16.8749 7.59864 17.1274 6.68549 17.1468C6.24835 17.1565 5.88892 17.1954 5.88892 17.2245C5.88892 17.3216 7.07407 17.8653 7.76379 18.079C9.83294 18.7101 12.2907 18.4382 14.1364 17.3604C15.4478 16.5934 16.7593 15.0689 17.3713 13.593C17.7016 12.8065 18.0319 11.3695 18.0319 10.6801C18.0319 10.2334 18.061 10.1752 18.605 9.64113C18.9256 9.33041 19.2267 8.99057 19.285 8.89347C19.3822 8.70899 19.3724 8.70899 18.877 8.87405C18.0513 9.16535 17.9347 9.12651 18.3427 8.68957C18.6439 8.37885 19.0033 7.81568 19.0033 7.65062C19.0033 7.62149 18.8576 7.67004 18.6924 7.75742C18.5176 7.85452 18.129 8.00017 17.8376 8.08756L17.313 8.25262L16.837 7.9322C16.5747 7.75742 16.2056 7.56323 16.0113 7.50497C15.5158 7.36903 14.7581 7.38845 14.3113 7.54381C13.097 7.98075 12.3295 9.10709 12.417 10.3402Z" fill="white"/>
</svg>
