<svg width="335" height="208" viewBox="0 0 335 208" fill="none" xmlns="http://www.w3.org/2000/svg">
<g opacity="0.3">
<rect x="8" y="18" width="319" height="190" rx="20" fill="url(#paint0_radial_264_527)"/>
</g>
<g clip-path="url(#clip0_264_527)">
<rect width="335" height="200" rx="20" fill="url(#paint1_radial_264_527)"/>
<g clip-path="url(#clip1_264_527)">
<g clip-path="url(#clip2_264_527)">
<path d="M286.487 119.169C281.331 137.806 261.337 148.409 241.828 142.852C237.187 141.533 232.834 139.353 229.016 136.437C225.198 133.521 221.99 129.926 219.577 125.858C217.163 121.789 215.59 117.327 214.949 112.727C214.307 108.126 214.609 103.477 215.838 99.0457C220.994 80.4085 240.988 69.8053 260.497 75.3623C264.174 76.4054 267.677 77.9899 270.88 80.0587C283.883 88.4797 290.645 104.136 286.487 119.169Z" fill="#994D17"/>
<path d="M287.648 114.969C282.493 133.605 262.498 144.21 242.989 138.653C238.349 137.333 233.996 135.153 230.178 132.237C226.36 129.321 223.153 125.726 220.74 121.657C218.326 117.589 216.753 113.127 216.111 108.527C215.47 103.927 215.771 99.2779 216.999 94.8465C222.155 76.2092 242.149 65.6061 261.658 71.163C266.3 72.4801 270.655 74.6588 274.474 77.5743C278.293 80.4899 281.502 84.085 283.916 88.154C286.33 92.223 287.902 96.6859 288.543 101.287C289.183 105.889 288.879 110.538 287.648 114.969V114.969Z" fill="#FFEA80"/>
<path d="M287.109 116.919C281.953 135.556 261.959 146.159 242.45 140.602C237.81 139.282 233.457 137.102 229.639 134.186C225.821 131.27 222.614 127.675 220.201 123.607C217.787 119.538 216.214 115.077 215.572 110.476C214.931 105.876 215.232 101.227 216.46 96.7957C221.616 78.1585 241.61 67.5553 261.119 73.1122C264.796 74.1565 268.298 75.7421 271.501 77.812C284.505 86.2297 291.266 101.891 287.109 116.919Z" fill="#FFCF40"/>
<path d="M287.108 116.918C281.953 135.556 261.959 146.159 242.449 140.602C236.499 138.917 231.043 135.818 226.592 131.593L271.501 77.8118C284.504 86.2295 291.265 101.89 287.108 116.918Z" fill="#F7A831"/>
<path d="M265.18 104.405L243.734 98.2968C243.356 98.1829 243.035 97.9302 242.842 97.5942C242.649 97.2583 242.6 96.8665 242.706 96.5048L244.516 89.962C244.739 89.1267 245.299 88.4208 246.073 87.9985C246.847 87.5761 247.773 87.4716 248.649 87.7078L264.985 92.3608C266.151 92.6957 267.367 92.8029 268.562 92.6761C269.757 92.5493 270.905 92.191 271.939 91.6227L272.613 91.2578L274.419 91.2761L274.944 89.3802C274.986 89.2694 275.017 89.1549 275.038 89.0382L275.124 88.7277L275.074 88.7134C275.079 88.5814 275.072 88.4489 275.054 88.3173C274.997 87.8792 274.805 87.4637 274.503 87.1247C274.201 86.7858 273.803 86.539 273.36 86.4164L262.585 83.3473L262.877 82.2931C263.015 81.7934 263.049 81.2693 262.977 80.7506C262.904 80.2319 262.727 79.7289 262.455 79.2702C262.182 78.8115 261.821 78.4061 261.39 78.0772C260.96 77.7484 260.469 77.5024 259.946 77.3534C259.423 77.2044 258.878 77.1553 258.342 77.2089C257.806 77.2625 257.289 77.4177 256.821 77.6657C256.354 77.9137 255.944 78.2496 255.616 78.6542C255.289 79.0589 255.049 79.5243 254.91 80.024L254.62 81.0732L250.786 79.9813C244.599 78.2191 238.215 81.6786 236.551 87.6934L234.167 96.3098C233.094 100.191 235.47 104.276 239.465 105.414L260.912 111.523C261.101 111.579 261.277 111.669 261.431 111.79C261.585 111.91 261.714 112.058 261.81 112.224C261.907 112.391 261.968 112.573 261.992 112.761C262.015 112.948 262 113.137 261.948 113.317L260.128 119.896C259.909 120.722 259.356 121.42 258.592 121.838C257.827 122.255 256.912 122.358 256.047 122.124L239.66 117.457C238.494 117.122 237.278 117.015 236.083 117.142C234.889 117.269 233.74 117.627 232.707 118.195L230.722 119.27C230.286 119.507 229.947 119.875 229.753 120.32V120.32C229.673 120.506 229.619 120.702 229.592 120.902L229.068 122.797L230.262 122.811C230.55 123.094 230.909 123.302 231.301 123.411L242.076 126.48L241.786 127.53C241.507 128.539 241.659 129.626 242.208 130.553C242.758 131.479 243.66 132.168 244.716 132.469C245.773 132.77 246.897 132.658 247.841 132.157C248.786 131.656 249.473 130.808 249.752 129.799L250.043 128.749L253.915 129.852C260.079 131.608 266.443 128.161 268.101 122.168L270.496 113.511C271.554 109.624 269.177 105.544 265.18 104.405Z" fill="#592D0D"/>
<path d="M264.268 107.702L242.823 101.594C242.444 101.48 242.124 101.227 241.931 100.891C241.738 100.555 241.689 100.164 241.794 99.802L243.604 93.2609C243.827 92.426 244.387 91.7206 245.161 91.2985C245.935 90.8765 246.861 90.7722 247.736 91.0082L264.073 95.6613C265.238 95.9962 266.455 96.1034 267.65 95.9766C268.844 95.8498 269.993 95.4915 271.026 94.9231L273.011 93.8463C273.411 93.6294 273.731 93.3016 273.931 92.9041C274.132 92.5065 274.205 92.0569 274.139 91.6118C274.082 91.1736 273.89 90.7579 273.588 90.4186C273.286 90.0794 272.888 89.8322 272.446 89.7092L261.675 86.6412L261.965 85.5919C262.103 85.0922 262.137 84.5681 262.064 84.0494C261.992 83.5307 261.815 83.0277 261.542 82.569C261.27 82.1103 260.909 81.7049 260.478 81.3761C260.048 81.0472 259.557 80.8012 259.034 80.6522C258.511 80.5033 257.966 80.4541 257.43 80.5077C256.894 80.5613 256.377 80.7165 255.909 80.9645C255.442 81.2125 255.032 81.5484 254.704 81.953C254.376 82.3577 254.137 82.8231 253.998 83.3228L253.708 84.3721L249.874 83.2801C243.687 81.5179 237.303 84.9774 235.639 90.9922L233.255 99.6103C232.181 103.493 234.557 107.577 238.552 108.715L260 114.824C260.378 114.938 260.698 115.191 260.891 115.526C261.083 115.862 261.132 116.254 261.027 116.615L259.207 123.193C258.989 124.019 258.436 124.717 257.671 125.135C256.906 125.552 255.991 125.655 255.126 125.421L238.748 120.756C237.582 120.421 236.366 120.314 235.171 120.441C233.976 120.567 232.828 120.926 231.795 121.494L229.809 122.571C229.409 122.789 229.088 123.118 228.888 123.518C228.688 123.918 228.618 124.369 228.686 124.816C228.743 125.254 228.935 125.67 229.237 126.009C229.539 126.348 229.937 126.595 230.379 126.718L241.154 129.787L240.864 130.835C240.585 131.844 240.737 132.931 241.287 133.858C241.836 134.784 242.739 135.474 243.795 135.774C244.852 136.075 245.976 135.963 246.92 135.462C247.864 134.961 248.552 134.113 248.831 133.104L249.121 132.056L252.993 133.159C259.157 134.915 265.522 131.466 267.18 125.473L269.576 116.81C270.642 112.924 268.265 108.841 264.268 107.702Z" fill="#FFCF40"/>
<path d="M264.656 106.296L243.21 100.188C242.832 100.073 242.511 99.8207 242.319 99.4848C242.126 99.149 242.077 98.7574 242.182 98.3957L243.991 91.8546C244.215 91.0197 244.775 90.3143 245.549 89.8923C246.323 89.4703 247.249 89.3659 248.124 89.602L264.46 94.255C265.626 94.5899 266.843 94.6971 268.037 94.5703C269.232 94.4435 270.38 94.0852 271.414 93.5169L273.399 92.44C273.798 92.2232 274.118 91.8954 274.319 91.4978C274.52 91.1003 274.592 90.6507 274.527 90.2056C274.47 89.7673 274.278 89.3516 273.976 89.0124C273.674 88.6731 273.276 88.426 272.834 88.303L262.062 85.2349L262.353 84.1857C262.491 83.686 262.525 83.1618 262.452 82.6432C262.38 82.1245 262.202 81.6214 261.93 81.1627C261.658 80.7041 261.296 80.2987 260.866 79.9698C260.436 79.6409 259.945 79.395 259.422 79.246C258.899 79.097 258.354 79.0479 257.817 79.1015C257.281 79.1551 256.765 79.3103 256.297 79.5583C255.829 79.8062 255.42 80.1421 255.092 80.5468C254.764 80.9514 254.524 81.4169 254.386 81.9166L254.096 82.9658L250.262 81.8738C244.075 80.1116 237.69 83.5712 236.027 89.586L233.643 98.2023C232.569 102.086 234.945 106.169 238.941 107.307L260.388 113.416C260.766 113.53 261.086 113.783 261.279 114.119C261.471 114.454 261.52 114.846 261.415 115.207L259.595 121.787C259.376 122.612 258.824 123.311 258.059 123.729C257.294 124.146 256.379 124.249 255.514 124.014L239.136 119.35C237.97 119.015 236.753 118.907 235.559 119.034C234.364 119.161 233.216 119.519 232.182 120.088L230.197 121.165C229.798 121.382 229.478 121.709 229.277 122.107C229.077 122.505 229.005 122.954 229.071 123.4C229.128 123.838 229.32 124.253 229.622 124.593C229.924 124.932 230.322 125.179 230.764 125.302L241.539 128.371L241.249 129.419C240.97 130.428 241.122 131.515 241.672 132.442C242.221 133.368 243.123 134.058 244.18 134.358C245.236 134.659 246.36 134.547 247.305 134.046C248.249 133.545 248.937 132.697 249.216 131.688L249.506 130.64L253.378 131.743C259.542 133.499 265.907 130.05 267.565 124.057L269.959 115.402C271.029 111.518 268.653 107.435 264.656 106.296Z" fill="#994D17"/>
</g>
</g>
<g opacity="0.3" clip-path="url(#clip3_264_527)" filter="url(#filter0_f_264_527)">
<g clip-path="url(#clip4_264_527)">
<path d="M253.107 183.496C258.35 193.82 253.84 206.77 243.033 212.422C240.463 213.768 237.673 214.616 234.822 214.919C231.97 215.222 229.113 214.973 226.414 214.188C223.715 213.402 221.227 212.095 219.092 210.34C216.956 208.586 215.216 206.418 213.971 203.962C208.727 193.638 213.237 180.688 224.044 175.036C226.079 173.969 228.256 173.212 230.497 172.792C239.6 171.097 248.877 175.168 253.107 183.496Z" fill="#994D17"/>
<path d="M251.925 181.17C257.168 191.493 252.659 204.444 241.851 210.096C239.282 211.441 236.492 212.289 233.64 212.592C230.789 212.894 227.932 212.646 225.233 211.86C222.534 211.075 220.046 209.767 217.91 208.013C215.775 206.259 214.035 204.092 212.789 201.636C207.546 191.312 212.056 178.362 222.863 172.71C225.432 171.363 228.222 170.514 231.074 170.21C233.926 169.906 236.784 170.155 239.483 170.94C242.183 171.726 244.671 173.034 246.806 174.789C248.941 176.545 250.68 178.713 251.925 181.17V181.17Z" fill="#FFEA80"/>
<path d="M252.474 182.25C257.717 192.574 253.207 205.524 242.4 211.176C239.831 212.521 237.04 213.369 234.189 213.672C231.337 213.975 228.481 213.726 225.782 212.94C223.083 212.155 220.594 210.847 218.459 209.093C216.324 207.339 214.584 205.172 213.338 202.716C208.094 192.392 212.604 179.442 223.412 173.79C225.447 172.724 227.624 171.967 229.865 171.548C238.967 169.851 248.246 173.925 252.474 182.25Z" fill="#FFCF40"/>
<path d="M252.473 182.249C257.717 192.573 253.207 205.523 242.399 211.175C239.108 212.903 235.463 213.805 231.806 213.796L229.864 171.547C238.966 169.85 248.245 173.924 252.473 182.249Z" fill="#F7A831"/>
<path d="M237.8 185.848L225.921 192.061C225.709 192.168 225.466 192.19 225.246 192.123C225.026 192.055 224.846 191.903 224.747 191.701L222.906 188.076C222.668 187.617 222.629 187.075 222.799 186.568C222.969 186.061 223.334 185.631 223.813 185.372L232.863 180.639C233.51 180.303 234.087 179.845 234.561 179.294C235.035 178.743 235.395 178.109 235.62 177.431L235.769 176.991L236.569 176.25L236.036 175.199C236.01 175.133 235.978 175.07 235.94 175.01L235.852 174.838L235.825 174.853C235.774 174.793 235.717 174.737 235.656 174.687C235.455 174.518 235.203 174.415 234.934 174.392C234.664 174.368 234.39 174.425 234.147 174.554L228.178 177.676L227.881 177.092C227.741 176.815 227.544 176.571 227.304 176.373C227.063 176.175 226.782 176.028 226.478 175.939C226.174 175.851 225.851 175.823 225.53 175.857C225.208 175.891 224.894 175.986 224.604 176.138C224.314 176.29 224.055 176.494 223.841 176.74C223.627 176.986 223.463 177.268 223.357 177.571C223.252 177.874 223.207 178.192 223.226 178.505C223.245 178.819 223.328 179.123 223.468 179.4L223.763 179.981L221.64 181.092C218.212 182.884 216.802 187.052 218.494 190.384L220.918 195.157C222.01 197.307 224.7 198.115 226.913 196.958L238.794 190.745C238.899 190.691 239.013 190.658 239.129 190.647C239.245 190.636 239.361 190.647 239.471 190.68C239.58 190.714 239.68 190.768 239.766 190.841C239.852 190.913 239.922 191.002 239.971 191.103L241.822 194.748C242.059 195.201 242.097 195.737 241.93 196.238C241.762 196.738 241.401 197.163 240.927 197.419L231.85 202.166C231.203 202.503 230.626 202.96 230.152 203.511C229.678 204.063 229.318 204.696 229.093 205.375L228.655 206.67C228.559 206.955 228.558 207.257 228.652 207.533V207.533C228.692 207.648 228.747 207.756 228.816 207.856L229.349 208.905L229.879 208.416C230.12 208.421 230.361 208.363 230.577 208.249L236.546 205.127L236.841 205.708C237.125 206.267 237.63 206.682 238.245 206.861C238.859 207.04 239.533 206.968 240.118 206.662C240.704 206.356 241.152 205.841 241.365 205.229C241.578 204.617 241.538 203.96 241.254 203.401L240.959 202.819L243.104 201.698C246.519 199.912 247.925 195.758 246.239 192.438L243.804 187.643C242.702 185.496 240.015 184.69 237.8 185.848Z" fill="#592D0D"/>
<path d="M238.729 187.676L226.849 193.888C226.637 193.995 226.394 194.017 226.174 193.949C225.954 193.882 225.775 193.73 225.675 193.528L223.835 189.904C223.597 189.445 223.559 188.903 223.729 188.396C223.899 187.89 224.263 187.46 224.743 187.201L233.792 182.468C234.439 182.132 235.016 181.674 235.49 181.123C235.964 180.572 236.324 179.938 236.549 179.26L236.987 177.963C237.075 177.703 237.083 177.426 237.011 177.168C236.939 176.91 236.79 176.683 236.582 176.514C236.38 176.345 236.129 176.242 235.859 176.219C235.59 176.195 235.316 176.251 235.072 176.381L229.105 179.501L228.81 178.92C228.669 178.643 228.473 178.399 228.232 178.201C227.991 178.003 227.711 177.856 227.407 177.768C227.102 177.679 226.78 177.651 226.459 177.685C226.137 177.719 225.823 177.815 225.533 177.966C225.243 178.118 224.984 178.322 224.77 178.568C224.556 178.814 224.392 179.097 224.286 179.399C224.181 179.702 224.136 180.02 224.155 180.333C224.174 180.647 224.256 180.951 224.397 181.228L224.692 181.809L222.568 182.92C219.141 184.712 217.731 188.88 219.423 192.212L221.848 196.986C222.94 199.137 225.629 199.944 227.842 198.787L239.723 192.574C239.935 192.467 240.177 192.445 240.397 192.513C240.617 192.581 240.796 192.732 240.895 192.935L242.746 196.578C242.983 197.032 243.022 197.568 242.854 198.068C242.686 198.569 242.326 198.994 241.851 199.25L232.779 203.994C232.132 204.331 231.554 204.788 231.081 205.34C230.607 205.891 230.247 206.524 230.022 207.203L229.584 208.499C229.496 208.761 229.488 209.039 229.561 209.297C229.634 209.556 229.785 209.783 229.995 209.951C230.196 210.12 230.448 210.223 230.718 210.247C230.987 210.27 231.261 210.214 231.505 210.084L237.474 206.963L237.769 207.543C238.053 208.102 238.557 208.517 239.172 208.696C239.786 208.875 240.46 208.803 241.046 208.497C241.631 208.191 242.079 207.675 242.292 207.064C242.505 206.452 242.466 205.794 242.182 205.235L241.887 204.655L244.032 203.533C247.446 201.748 248.853 197.593 247.166 194.273L244.729 189.474C243.632 187.325 240.943 186.518 238.729 187.676Z" fill="#FFCF40"/>
<path d="M238.333 186.898L226.453 193.111C226.241 193.218 225.999 193.24 225.779 193.172C225.559 193.104 225.379 192.953 225.28 192.75L223.439 189.127C223.201 188.668 223.163 188.126 223.333 187.619C223.503 187.113 223.868 186.683 224.347 186.423L233.397 181.691C234.044 181.354 234.621 180.897 235.095 180.346C235.568 179.794 235.928 179.161 236.153 178.482L236.591 177.186C236.679 176.925 236.688 176.648 236.616 176.391C236.544 176.133 236.395 175.905 236.187 175.737C235.985 175.568 235.733 175.465 235.464 175.441C235.195 175.418 234.92 175.474 234.676 175.604L228.71 178.724L228.414 178.143C228.274 177.866 228.077 177.622 227.837 177.424C227.596 177.226 227.315 177.079 227.011 176.99C226.707 176.902 226.385 176.874 226.063 176.908C225.742 176.942 225.427 177.037 225.137 177.189C224.848 177.34 224.588 177.545 224.374 177.791C224.16 178.037 223.996 178.319 223.891 178.622C223.785 178.925 223.741 179.242 223.76 179.556C223.779 179.87 223.861 180.174 224.001 180.451L224.297 181.032L222.173 182.142C218.746 183.935 217.335 188.102 219.027 191.434L221.452 196.207C222.544 198.358 225.233 199.166 227.446 198.009L239.327 191.796C239.539 191.689 239.781 191.667 240.001 191.735C240.221 191.802 240.4 191.954 240.499 192.157L242.351 195.801C242.587 196.254 242.626 196.79 242.458 197.291C242.291 197.792 241.93 198.217 241.456 198.472L232.383 203.217C231.736 203.553 231.159 204.011 230.685 204.562C230.212 205.113 229.852 205.747 229.627 206.425L229.188 207.722C229.1 207.983 229.092 208.259 229.164 208.517C229.236 208.775 229.386 209.002 229.594 209.171C229.796 209.339 230.048 209.442 230.317 209.466C230.586 209.49 230.861 209.433 231.104 209.304L237.073 206.182L237.368 206.763C237.652 207.322 238.157 207.736 238.771 207.915C239.386 208.094 240.06 208.023 240.645 207.717C241.23 207.411 241.679 206.895 241.892 206.283C242.105 205.672 242.065 205.014 241.781 204.455L241.486 203.875L243.631 202.753C247.046 200.967 248.452 196.812 246.766 193.492L244.331 188.698C243.236 186.548 240.547 185.74 238.333 186.898Z" fill="#994D17"/>
</g>
</g>
<g opacity="0.9" clip-path="url(#clip5_264_527)" filter="url(#filter1_f_264_527)">
<g clip-path="url(#clip6_264_527)">
<path d="M313.783 177.229C310.332 184.135 301.675 186.718 294.445 182.999C292.726 182.115 291.184 180.916 289.91 179.471C288.635 178.026 287.652 176.362 287.016 174.575C286.381 172.789 286.106 170.914 286.207 169.058C286.307 167.202 286.782 165.402 287.604 163.76C291.054 156.854 299.712 154.271 306.941 157.99C308.304 158.689 309.557 159.587 310.655 160.652C315.112 164.982 316.566 171.658 313.783 177.229Z" fill="#994D17"/>
<path d="M314.56 175.672C311.11 182.577 302.452 185.161 295.223 181.442C293.503 180.558 291.962 179.359 290.688 177.914C289.413 176.469 288.43 174.805 287.795 173.018C287.159 171.232 286.884 169.357 286.985 167.501C287.085 165.646 287.56 163.845 288.381 162.203C291.832 155.297 300.489 152.714 307.718 156.434C309.439 157.316 310.981 158.515 312.256 159.96C313.531 161.405 314.515 163.069 315.15 164.856C315.786 166.643 316.061 168.518 315.959 170.374C315.858 172.23 315.383 174.03 314.56 175.672V175.672Z" fill="#FFEA80"/>
<path d="M314.199 176.395C310.748 183.301 302.091 185.884 294.861 182.165C293.142 181.281 291.601 180.082 290.326 178.637C289.052 177.191 288.069 175.528 287.433 173.741C286.798 171.954 286.523 170.08 286.623 168.224C286.724 166.368 287.198 164.568 288.02 162.926C291.47 156.02 300.128 153.437 307.357 157.156C308.72 157.856 309.973 158.754 311.071 159.819C315.528 164.148 316.981 170.826 314.199 176.395Z" fill="#FFCF40"/>
<path d="M314.199 176.394C310.748 183.3 302.091 185.884 294.862 182.164C292.656 181.034 290.753 179.387 289.33 177.379L311.071 159.819C315.529 164.147 316.982 170.826 314.199 176.394Z" fill="#F7A831"/>
<path d="M306.553 169.754L298.606 165.665C298.467 165.591 298.36 165.466 298.31 165.319C298.26 165.172 298.271 165.015 298.34 164.881L299.552 162.457C299.703 162.146 299.977 161.914 300.313 161.809C300.649 161.704 301.021 161.736 301.346 161.898L307.399 165.013C307.831 165.236 308.3 165.374 308.779 165.418C309.257 165.463 309.735 165.413 310.184 165.271L310.477 165.181L311.184 165.331L311.535 164.629C311.56 164.588 311.581 164.546 311.599 164.502L311.656 164.387L311.637 164.377C311.649 164.326 311.657 164.273 311.66 164.22C311.671 164.044 311.628 163.866 311.535 163.709C311.442 163.552 311.305 163.424 311.141 163.341L307.148 161.287L307.344 160.896C307.436 160.711 307.49 160.508 307.501 160.299C307.512 160.089 307.481 159.878 307.409 159.676C307.338 159.475 307.227 159.287 307.083 159.124C306.94 158.961 306.766 158.826 306.572 158.727C306.378 158.627 306.168 158.565 305.954 158.543C305.739 158.522 305.525 158.542 305.322 158.603C305.12 158.663 304.933 158.762 304.774 158.895C304.614 159.028 304.484 159.192 304.392 159.377L304.197 159.766L302.777 159.035C300.484 157.856 297.714 158.709 296.6 160.938L295.005 164.131C294.286 165.569 294.906 167.36 296.386 168.121L304.333 172.21C304.403 172.247 304.465 172.296 304.517 172.355C304.568 172.415 304.607 172.483 304.632 172.556C304.657 172.629 304.667 172.705 304.662 172.781C304.657 172.856 304.637 172.929 304.602 172.996L303.384 175.434C303.235 175.74 302.965 175.971 302.633 176.074C302.3 176.178 301.933 176.146 301.612 175.986L295.54 172.862C295.108 172.639 294.639 172.501 294.161 172.456C293.682 172.412 293.204 172.462 292.755 172.603L291.894 172.868C291.705 172.927 291.543 173.044 291.433 173.204V173.204C291.388 173.27 291.352 173.343 291.325 173.42L290.975 174.122L291.442 174.221C291.533 174.355 291.658 174.465 291.804 174.539L295.797 176.593L295.602 176.982C295.416 177.356 295.392 177.794 295.537 178.201C295.681 178.608 295.982 178.95 296.374 179.151C296.765 179.353 297.215 179.397 297.624 179.275C298.033 179.153 298.368 178.875 298.554 178.501L298.749 178.112L300.183 178.85C302.468 180.025 305.229 179.174 306.339 176.954L307.941 173.746C308.655 172.304 308.034 170.516 306.553 169.754Z" fill="#592D0D"/>
<path d="M305.943 170.976L297.996 166.887C297.857 166.813 297.75 166.688 297.7 166.541C297.651 166.394 297.661 166.237 297.73 166.103L298.941 163.679C299.093 163.369 299.367 163.137 299.703 163.032C300.039 162.928 300.41 162.96 300.735 163.121L306.789 166.236C307.221 166.459 307.69 166.597 308.168 166.642C308.647 166.686 309.125 166.636 309.574 166.495L310.435 166.229C310.608 166.175 310.759 166.072 310.868 165.932C310.978 165.791 311.04 165.621 311.049 165.441C311.06 165.264 311.017 165.086 310.924 164.929C310.832 164.772 310.694 164.644 310.53 164.561L306.539 162.507L306.733 162.119C306.826 161.933 306.879 161.73 306.89 161.521C306.902 161.312 306.871 161.101 306.799 160.899C306.727 160.698 306.617 160.51 306.473 160.347C306.329 160.184 306.156 160.049 305.962 159.949C305.768 159.849 305.558 159.787 305.343 159.766C305.129 159.745 304.914 159.765 304.712 159.825C304.509 159.886 304.323 159.985 304.163 160.118C304.004 160.251 303.874 160.415 303.781 160.6L303.587 160.989L302.166 160.258C299.874 159.078 297.104 159.932 295.99 162.161L294.394 165.354C293.675 166.793 294.295 168.583 295.775 169.345L303.723 173.433C303.862 173.508 303.969 173.632 304.018 173.779C304.068 173.926 304.057 174.084 303.988 174.217L302.77 176.655C302.621 176.961 302.351 177.192 302.019 177.295C301.687 177.399 301.32 177.367 300.999 177.207L294.93 174.085C294.498 173.861 294.029 173.723 293.55 173.679C293.072 173.634 292.594 173.684 292.145 173.826L291.283 174.092C291.109 174.146 290.958 174.25 290.849 174.391C290.74 174.532 290.678 174.703 290.67 174.884C290.659 175.06 290.703 175.239 290.795 175.395C290.888 175.552 291.025 175.681 291.189 175.764L295.182 177.818L294.988 178.206C294.801 178.58 294.777 179.019 294.922 179.426C295.067 179.833 295.368 180.174 295.759 180.376C296.151 180.577 296.601 180.622 297.009 180.5C297.418 180.378 297.753 180.099 297.94 179.725L298.134 179.337L299.569 180.075C301.853 181.25 304.615 180.399 305.724 178.178L307.328 174.968C308.044 173.527 307.424 171.738 305.943 170.976Z" fill="#FFCF40"/>
<path d="M306.203 170.456L298.256 166.368C298.117 166.293 298.01 166.169 297.96 166.022C297.91 165.875 297.921 165.717 297.99 165.584L299.201 163.16C299.353 162.85 299.626 162.617 299.963 162.513C300.299 162.408 300.67 162.44 300.995 162.602L307.049 165.716C307.48 165.94 307.949 166.078 308.428 166.122C308.906 166.167 309.384 166.117 309.834 165.975L310.695 165.709C310.868 165.656 311.019 165.552 311.128 165.412C311.237 165.272 311.3 165.101 311.309 164.921C311.32 164.745 311.276 164.567 311.184 164.41C311.091 164.253 310.954 164.124 310.79 164.041L306.799 161.988L306.993 161.599C307.085 161.414 307.139 161.211 307.15 161.002C307.162 160.792 307.13 160.581 307.059 160.38C306.987 160.178 306.876 159.991 306.733 159.828C306.589 159.665 306.415 159.529 306.221 159.43C306.028 159.33 305.817 159.268 305.603 159.246C305.389 159.225 305.174 159.245 304.971 159.306C304.769 159.366 304.583 159.466 304.423 159.599C304.263 159.731 304.133 159.895 304.041 160.08L303.847 160.469L302.426 159.738C300.133 158.559 297.363 159.413 296.25 161.641L294.654 164.834C293.935 166.273 294.555 168.063 296.035 168.824L303.983 172.913C304.122 172.988 304.229 173.112 304.279 173.259C304.328 173.406 304.318 173.564 304.248 173.697L303.03 176.135C302.881 176.442 302.611 176.672 302.279 176.776C301.947 176.879 301.58 176.848 301.258 176.687L295.189 173.565C294.758 173.342 294.289 173.204 293.81 173.159C293.332 173.115 292.854 173.165 292.404 173.306L291.543 173.572C291.37 173.626 291.219 173.729 291.11 173.869C291.001 174.01 290.938 174.18 290.93 174.36C290.919 174.537 290.962 174.715 291.055 174.872C291.147 175.029 291.284 175.157 291.449 175.24L295.441 177.294L295.247 177.683C295.06 178.057 295.037 178.495 295.181 178.902C295.326 179.309 295.627 179.651 296.019 179.852C296.41 180.053 296.86 180.098 297.269 179.976C297.678 179.854 298.012 179.575 298.199 179.201L298.393 178.813L299.828 179.551C302.112 180.727 304.874 179.875 305.984 177.654L307.586 174.448C308.304 173.008 307.684 171.218 306.203 170.456Z" fill="#994D17"/>
</g>
</g>
</g>
<defs>
<filter id="filter0_f_264_527" x="197" y="156.135" width="71.8955" height="72.8652" filterUnits="userSpaceOnUse" color-interpolation-filters="sRGB">
<feFlood flood-opacity="0" result="BackgroundImageFix"/>
<feBlend mode="normal" in="SourceGraphic" in2="BackgroundImageFix" result="shape"/>
<feGaussianBlur stdDeviation="1.5" result="effect1_foregroundBlur_264_527"/>
</filter>
<filter id="filter1_f_264_527" x="276.164" y="144.475" width="49.8359" height="50.4805" filterUnits="userSpaceOnUse" color-interpolation-filters="sRGB">
<feFlood flood-opacity="0" result="BackgroundImageFix"/>
<feBlend mode="normal" in="SourceGraphic" in2="BackgroundImageFix" result="shape"/>
<feGaussianBlur stdDeviation="1.5" result="effect1_foregroundBlur_264_527"/>
</filter>
<radialGradient id="paint0_radial_264_527" cx="0" cy="0" r="1" gradientUnits="userSpaceOnUse" gradientTransform="translate(97.0775 34.0054) rotate(38.3236) scale(280.59 536.503)">
<stop stop-color="#40BF95"/>
<stop offset="1" stop-color="#F1F394"/>
</radialGradient>
<radialGradient id="paint1_radial_264_527" cx="0" cy="0" r="1" gradientUnits="userSpaceOnUse" gradientTransform="translate(93.5453 16.8478) rotate(38.3893) scale(294.931 564.228)">
<stop stop-color="#40BF95"/>
<stop offset="1" stop-color="#F1F394"/>
</radialGradient>
<clipPath id="clip0_264_527">
<rect width="335" height="200" rx="20" fill="white"/>
</clipPath>
<clipPath id="clip1_264_527">
<rect width="81.6208" height="82.6453" fill="white" transform="matrix(0.961748 0.273935 -0.266616 0.963803 223.511 56)"/>
</clipPath>
<clipPath id="clip2_264_527">
<rect width="73.4588" height="74.3808" fill="white" transform="matrix(0.961748 0.273935 -0.266616 0.963803 226.334 61.1016)"/>
</clipPath>
<clipPath id="clip3_264_527">
<rect width="49.0715" height="49.4892" fill="white" transform="matrix(0.886141 -0.463416 0.452842 0.891591 200 181.875)"/>
</clipPath>
<clipPath id="clip4_264_527">
<rect width="44.1644" height="44.5403" fill="white" transform="matrix(0.886141 -0.463416 0.452842 0.891591 203.295 182.943)"/>
</clipPath>
<clipPath id="clip5_264_527">
<rect width="32.7118" height="32.9954" fill="white" transform="matrix(0.889218 0.457483 -0.446974 0.894547 293.912 147.475)"/>
</clipPath>
<clipPath id="clip6_264_527">
<rect width="29.4406" height="29.6958" fill="white" transform="matrix(0.889218 0.457483 -0.446974 0.894547 294.629 149.699)"/>
</clipPath>
</defs>
</svg>
