<svg width="335" height="208" viewBox="0 0 335 208" fill="none" xmlns="http://www.w3.org/2000/svg">
<g opacity="0.3">
<rect x="8" y="17" width="319" height="191" rx="20" fill="url(#paint0_radial_264_527)"/>
<path fill-rule="evenodd" clip-rule="evenodd" d="M38.0025 40.6004C34.4667 40.6004 31.6004 43.4667 31.6004 47.0025C31.6004 50.5383 34.4667 53.4046 38.0025 53.4046C41.5383 53.4046 44.4046 50.5383 44.4046 47.0025C44.4046 43.4667 41.5383 40.6004 38.0025 40.6004ZM29.9004 47.0025C29.9004 42.5278 33.5278 38.9004 38.0025 38.9004C42.4772 38.9004 46.1046 42.5278 46.1046 47.0025C46.1046 51.4772 42.4772 55.1046 38.0025 55.1046C33.5278 55.1046 29.9004 51.4772 29.9004 47.0025ZM38.9695 50.9307C38.9695 51.4314 38.5637 51.8373 38.063 51.8373C37.5623 51.8373 37.1565 51.4314 37.1565 50.9307C37.1565 50.4301 37.5623 50.0242 38.063 50.0242C38.5637 50.0242 38.9695 50.4301 38.9695 50.9307ZM38.0025 42.124C36.5318 42.124 35.3395 43.3162 35.3395 44.787V44.9884H37.0395V44.787C37.0395 44.2551 37.4707 43.824 38.0025 43.824C38.5344 43.824 38.9656 44.2551 38.9656 44.787V45.2067C38.9656 45.6448 38.7579 46.0571 38.4059 46.3178L38.0715 46.5656C37.4934 46.9937 37.1525 47.6705 37.1525 48.3898V49.0174H38.8525V48.3898C38.8525 48.2091 38.9382 48.0391 39.0833 47.9316L39.4178 47.6839C40.2027 47.1025 40.6656 46.1835 40.6656 45.2067V44.787C40.6656 43.3162 39.4733 42.124 38.0025 42.124Z" fill="white"/>
<path d="M56.095 51.117C55.6877 51.117 55.289 51.0823 54.899 51.013C54.509 50.9437 54.145 50.844 53.807 50.714C53.4777 50.584 53.1787 50.4193 52.91 50.22C52.806 50.142 52.7323 50.0553 52.689 49.96C52.6543 49.856 52.6457 49.7563 52.663 49.661C52.689 49.557 52.7323 49.4703 52.793 49.401C52.8623 49.3317 52.9447 49.2927 53.04 49.284C53.1353 49.2753 53.2393 49.3057 53.352 49.375C53.742 49.6523 54.158 49.856 54.6 49.986C55.042 50.1073 55.5403 50.168 56.095 50.168C56.875 50.168 57.4513 50.025 57.824 49.739C58.2053 49.4443 58.396 49.0587 58.396 48.582C58.396 48.192 58.2573 47.8887 57.98 47.672C57.7113 47.4467 57.2563 47.269 56.615 47.139L55.263 46.866C54.4483 46.6927 53.8373 46.411 53.43 46.021C53.0313 45.6223 52.832 45.0937 52.832 44.435C52.832 44.0277 52.9143 43.6593 53.079 43.33C53.2437 42.992 53.4733 42.706 53.768 42.472C54.0627 42.2293 54.4137 42.043 54.821 41.913C55.2283 41.783 55.679 41.718 56.173 41.718C56.719 41.718 57.226 41.796 57.694 41.952C58.1707 42.0993 58.5997 42.3247 58.981 42.628C59.0763 42.706 59.1413 42.797 59.176 42.901C59.2107 42.9963 59.215 43.0917 59.189 43.187C59.163 43.2737 59.1153 43.3473 59.046 43.408C58.9853 43.4687 58.903 43.5033 58.799 43.512C58.7037 43.5207 58.5953 43.486 58.474 43.408C58.1273 43.148 57.7677 42.9617 57.395 42.849C57.0223 42.7277 56.6107 42.667 56.16 42.667C55.7007 42.667 55.302 42.7363 54.964 42.875C54.6347 43.0137 54.3747 43.2173 54.184 43.486C54.002 43.746 53.911 44.0493 53.911 44.396C53.911 44.812 54.0367 45.1413 54.288 45.384C54.548 45.6267 54.9683 45.8043 55.549 45.917L56.901 46.203C57.7763 46.385 58.422 46.6623 58.838 47.035C59.2627 47.399 59.475 47.8973 59.475 48.53C59.475 48.9113 59.397 49.2623 59.241 49.583C59.085 49.9037 58.8597 50.181 58.565 50.415C58.2703 50.6403 57.915 50.8137 57.499 50.935C57.083 51.0563 56.615 51.117 56.095 51.117ZM63.222 51.117C62.7107 51.117 62.286 51.026 61.948 50.844C61.6187 50.6533 61.3674 50.3717 61.194 49.999C61.0294 49.6263 60.947 49.1627 60.947 48.608V45.124C60.947 44.942 60.9904 44.8077 61.077 44.721C61.1724 44.6343 61.3024 44.591 61.467 44.591C61.6404 44.591 61.7704 44.6343 61.857 44.721C61.9524 44.8077 62 44.942 62 45.124V48.595C62 49.1497 62.1127 49.5657 62.338 49.843C62.572 50.1117 62.936 50.246 63.43 50.246C63.9674 50.246 64.405 50.064 64.743 49.7C65.081 49.336 65.25 48.8593 65.25 48.27V45.124C65.25 44.942 65.2934 44.8077 65.38 44.721C65.4754 44.6343 65.6097 44.591 65.783 44.591C65.9477 44.591 66.0734 44.6343 66.16 44.721C66.2554 44.8077 66.303 44.942 66.303 45.124V50.545C66.303 50.909 66.134 51.091 65.796 51.091C65.6314 51.091 65.5014 51.0433 65.406 50.948C65.3194 50.8527 65.276 50.7183 65.276 50.545V49.362L65.445 49.544C65.2717 50.0553 64.9857 50.4453 64.587 50.714C64.197 50.9827 63.742 51.117 63.222 51.117ZM71.4712 51.117C70.8992 51.117 70.4052 50.9697 69.9892 50.675C69.5818 50.3803 69.3088 49.986 69.1702 49.492L69.3132 49.349V50.545C69.3132 50.7183 69.2655 50.8527 69.1702 50.948C69.0835 51.0433 68.9578 51.091 68.7932 51.091C68.6198 51.091 68.4898 51.0433 68.4032 50.948C68.3165 50.8527 68.2732 50.7183 68.2732 50.545V42.277C68.2732 42.1037 68.3165 41.9737 68.4032 41.887C68.4898 41.7917 68.6198 41.744 68.7932 41.744C68.9578 41.744 69.0878 41.7917 69.1832 41.887C69.2785 41.9737 69.3262 42.1037 69.3262 42.277V46.151H69.1702C69.3175 45.6657 69.5948 45.28 70.0022 44.994C70.4095 44.708 70.8992 44.565 71.4712 44.565C72.0432 44.565 72.5372 44.6993 72.9532 44.968C73.3692 45.228 73.6898 45.605 73.9152 46.099C74.1492 46.5843 74.2662 47.165 74.2662 47.841C74.2662 48.5083 74.1492 49.089 73.9152 49.583C73.6898 50.0683 73.3648 50.4453 72.9402 50.714C72.5242 50.9827 72.0345 51.117 71.4712 51.117ZM71.2502 50.272C71.6488 50.272 71.9912 50.1767 72.2772 49.986C72.5718 49.7953 72.7972 49.518 72.9532 49.154C73.1178 48.79 73.2002 48.3523 73.2002 47.841C73.2002 47.0523 73.0225 46.45 72.6672 46.034C72.3205 45.618 71.8482 45.41 71.2502 45.41C70.8602 45.41 70.5178 45.5053 70.2232 45.696C69.9285 45.878 69.6988 46.151 69.5342 46.515C69.3782 46.8703 69.3002 47.3123 69.3002 47.841C69.3002 48.621 69.4778 49.2233 69.8332 49.648C70.1885 50.064 70.6608 50.272 71.2502 50.272ZM78.3238 51.117C77.8298 51.117 77.4138 51.0303 77.0758 50.857C76.7464 50.675 76.4994 50.415 76.3348 50.077C76.1701 49.7303 76.0878 49.31 76.0878 48.816V45.501H75.2168C75.0694 45.501 74.9568 45.4663 74.8788 45.397C74.8008 45.319 74.7618 45.215 74.7618 45.085C74.7618 44.955 74.8008 44.8553 74.8788 44.786C74.9568 44.7167 75.0694 44.682 75.2168 44.682H76.0878V43.187C76.0878 43.0137 76.1354 42.8837 76.2308 42.797C76.3261 42.7017 76.4561 42.654 76.6208 42.654C76.7854 42.654 76.9111 42.7017 76.9978 42.797C77.0931 42.8837 77.1408 43.0137 77.1408 43.187V44.682H78.7788C78.9261 44.682 79.0388 44.7167 79.1168 44.786C79.1948 44.8553 79.2338 44.955 79.2338 45.085C79.2338 45.215 79.1948 45.319 79.1168 45.397C79.0388 45.4663 78.9261 45.501 78.7788 45.501H77.1408V48.712C77.1408 49.206 77.2448 49.583 77.4528 49.843C77.6608 50.0943 77.9988 50.22 78.4668 50.22C78.6314 50.22 78.7701 50.2027 78.8828 50.168C79.0041 50.1333 79.1038 50.116 79.1818 50.116C79.2598 50.1073 79.3248 50.1333 79.3768 50.194C79.4288 50.2547 79.4548 50.3587 79.4548 50.506C79.4548 50.61 79.4331 50.7053 79.3898 50.792C79.3551 50.8787 79.2901 50.9393 79.1948 50.974C79.0908 51.0087 78.9521 51.039 78.7788 51.065C78.6141 51.0997 78.4624 51.117 78.3238 51.117ZM80.9299 51.065C80.7565 51.065 80.6265 51.0173 80.5399 50.922C80.4532 50.818 80.4099 50.675 80.4099 50.493V45.176C80.4099 44.994 80.4532 44.8553 80.5399 44.76C80.6265 44.6647 80.7565 44.617 80.9299 44.617C81.0945 44.617 81.2245 44.6647 81.3199 44.76C81.4152 44.8553 81.4629 44.994 81.4629 45.176V50.493C81.4629 50.675 81.4152 50.818 81.3199 50.922C81.2332 51.0173 81.1032 51.065 80.9299 51.065ZM80.9299 43.161C80.7132 43.161 80.5442 43.1047 80.4229 42.992C80.3015 42.8707 80.2409 42.7103 80.2409 42.511C80.2409 42.303 80.3015 42.147 80.4229 42.043C80.5442 41.9303 80.7132 41.874 80.9299 41.874C81.1552 41.874 81.3242 41.9303 81.4369 42.043C81.5582 42.147 81.6189 42.303 81.6189 42.511C81.6189 42.7103 81.5582 42.8707 81.4369 42.992C81.3242 43.1047 81.1552 43.161 80.9299 43.161ZM85.9664 51.117C85.4724 51.117 85.0564 51.0303 84.7184 50.857C84.389 50.675 84.142 50.415 83.9774 50.077C83.8127 49.7303 83.7304 49.31 83.7304 48.816V45.501H82.8594C82.712 45.501 82.5994 45.4663 82.5214 45.397C82.4434 45.319 82.4044 45.215 82.4044 45.085C82.4044 44.955 82.4434 44.8553 82.5214 44.786C82.5994 44.7167 82.712 44.682 82.8594 44.682H83.7304V43.187C83.7304 43.0137 83.778 42.8837 83.8734 42.797C83.9687 42.7017 84.0987 42.654 84.2634 42.654C84.428 42.654 84.5537 42.7017 84.6404 42.797C84.7357 42.8837 84.7834 43.0137 84.7834 43.187V44.682H86.4214C86.5687 44.682 86.6814 44.7167 86.7594 44.786C86.8374 44.8553 86.8764 44.955 86.8764 45.085C86.8764 45.215 86.8374 45.319 86.7594 45.397C86.6814 45.4663 86.5687 45.501 86.4214 45.501H84.7834V48.712C84.7834 49.206 84.8874 49.583 85.0954 49.843C85.3034 50.0943 85.6414 50.22 86.1094 50.22C86.274 50.22 86.4127 50.2027 86.5254 50.168C86.6467 50.1333 86.7464 50.116 86.8244 50.116C86.9024 50.1073 86.9674 50.1333 87.0194 50.194C87.0714 50.2547 87.0974 50.3587 87.0974 50.506C87.0974 50.61 87.0757 50.7053 87.0324 50.792C86.9977 50.8787 86.9327 50.9393 86.8374 50.974C86.7334 51.0087 86.5947 51.039 86.4214 51.065C86.2567 51.0997 86.105 51.117 85.9664 51.117ZM89.9765 51.117C89.3525 51.117 88.8758 50.9263 88.5465 50.545C88.2171 50.1637 88.0525 49.6177 88.0525 48.907V42.277C88.0525 42.1037 88.0958 41.9737 88.1825 41.887C88.2691 41.7917 88.3991 41.744 88.5725 41.744C88.7371 41.744 88.8671 41.7917 88.9625 41.887C89.0578 41.9737 89.1055 42.1037 89.1055 42.277V48.829C89.1055 49.297 89.1965 49.648 89.3785 49.882C89.5691 50.1073 89.8465 50.22 90.2105 50.22C90.2885 50.22 90.3578 50.2157 90.4185 50.207C90.4791 50.1983 90.5398 50.194 90.6005 50.194C90.6958 50.1853 90.7608 50.207 90.7955 50.259C90.8388 50.311 90.8605 50.415 90.8605 50.571C90.8605 50.727 90.8258 50.844 90.7565 50.922C90.6871 51 90.5745 51.052 90.4185 51.078C90.3491 51.0867 90.2755 51.0953 90.1975 51.104C90.1195 51.1127 90.0458 51.117 89.9765 51.117ZM94.6827 51.117C94.0153 51.117 93.439 50.987 92.9537 50.727C92.477 50.4583 92.1043 50.0813 91.8357 49.596C91.5757 49.1107 91.4457 48.53 91.4457 47.854C91.4457 47.1953 91.5757 46.6233 91.8357 46.138C92.0957 45.644 92.451 45.2583 92.9017 44.981C93.361 44.7037 93.8897 44.565 94.4877 44.565C94.9123 44.565 95.2937 44.6387 95.6317 44.786C95.9697 44.9247 96.2557 45.1283 96.4897 45.397C96.7323 45.6657 96.9143 45.9907 97.0357 46.372C97.1657 46.7533 97.2307 47.1823 97.2307 47.659C97.2307 47.7977 97.1917 47.9017 97.1137 47.971C97.0357 48.0317 96.923 48.062 96.7757 48.062H92.2517V47.373H96.5287L96.3207 47.542C96.3207 47.074 96.2513 46.6797 96.1127 46.359C95.974 46.0297 95.7703 45.7783 95.5017 45.605C95.2417 45.4317 94.9123 45.345 94.5137 45.345C94.0717 45.345 93.6947 45.449 93.3827 45.657C93.0793 45.8563 92.8497 46.138 92.6937 46.502C92.5377 46.8573 92.4597 47.2733 92.4597 47.75V47.828C92.4597 48.6253 92.6503 49.232 93.0317 49.648C93.4217 50.064 93.972 50.272 94.6827 50.272C94.9773 50.272 95.2677 50.233 95.5537 50.155C95.8483 50.077 96.1343 49.947 96.4117 49.765C96.533 49.687 96.6413 49.6523 96.7367 49.661C96.8407 49.661 96.923 49.6913 96.9837 49.752C97.0443 49.804 97.0833 49.8733 97.1007 49.96C97.1267 50.038 97.118 50.1247 97.0747 50.22C97.04 50.3153 96.9663 50.3977 96.8537 50.467C96.5677 50.675 96.2297 50.8353 95.8397 50.948C95.4497 51.0607 95.064 51.117 94.6827 51.117Z" fill="white"/>
<path d="M36.708 90.224C36.1293 90.224 35.6813 90.0653 35.364 89.748C35.0653 89.412 34.916 88.9547 34.916 88.376V73.256H29.456C28.9707 73.256 28.588 73.1253 28.308 72.864C28.0467 72.584 27.916 72.2107 27.916 71.744C27.916 71.2587 28.0467 70.8947 28.308 70.652C28.588 70.3907 28.9707 70.26 29.456 70.26H43.96C44.4453 70.26 44.8187 70.3907 45.08 70.652C45.36 70.8947 45.5 71.2587 45.5 71.744C45.5 72.2107 45.36 72.584 45.08 72.864C44.8187 73.1253 44.4453 73.256 43.96 73.256H38.5V88.376C38.5 88.9547 38.3507 89.412 38.052 89.748C37.7533 90.0653 37.3053 90.224 36.708 90.224ZM50.4779 90.196C49.9179 90.196 49.4885 90.028 49.1899 89.692C48.8912 89.356 48.7419 88.8893 48.7419 88.292V78.016C48.7419 77.4 48.8912 76.9333 49.1899 76.616C49.4885 76.28 49.9179 76.112 50.4779 76.112C51.0379 76.112 51.4672 76.28 51.7659 76.616C52.0832 76.9333 52.2419 77.4 52.2419 78.016V88.292C52.2419 88.8893 52.0925 89.356 51.7939 89.692C51.4952 90.028 51.0565 90.196 50.4779 90.196ZM50.4779 73.508C49.8245 73.508 49.3112 73.3493 48.9379 73.032C48.5832 72.696 48.4059 72.2387 48.4059 71.66C48.4059 71.0627 48.5832 70.6053 48.9379 70.288C49.3112 69.9707 49.8245 69.812 50.4779 69.812C51.1499 69.812 51.6632 69.9707 52.0179 70.288C52.3725 70.6053 52.5499 71.0627 52.5499 71.66C52.5499 72.2387 52.3725 72.696 52.0179 73.032C51.6632 73.3493 51.1499 73.508 50.4779 73.508ZM62.1506 90.28C60.9373 90.28 59.9199 90.0747 59.0986 89.664C58.2959 89.2533 57.6986 88.656 57.3066 87.872C56.9146 87.0693 56.7186 86.08 56.7186 84.904V78.94H55.2626C54.8146 78.94 54.4693 78.828 54.2266 78.604C53.9839 78.3613 53.8626 78.0347 53.8626 77.624C53.8626 77.1947 53.9839 76.868 54.2266 76.644C54.4693 76.42 54.8146 76.308 55.2626 76.308H56.7186V73.76C56.7186 73.1813 56.8679 72.7427 57.1666 72.444C57.4839 72.1453 57.9226 71.996 58.4826 71.996C59.0426 71.996 59.4719 72.1453 59.7706 72.444C60.0693 72.7427 60.2186 73.1813 60.2186 73.76V76.308H63.1866C63.6346 76.308 63.9799 76.42 64.2226 76.644C64.4653 76.868 64.5866 77.1947 64.5866 77.624C64.5866 78.0347 64.4653 78.3613 64.2226 78.604C63.9799 78.828 63.6346 78.94 63.1866 78.94H60.2186V84.708C60.2186 85.604 60.4146 86.276 60.8066 86.724C61.1986 87.172 61.8333 87.396 62.7106 87.396C63.0279 87.396 63.3079 87.368 63.5506 87.312C63.7933 87.256 64.0079 87.2187 64.1946 87.2C64.4186 87.1813 64.6053 87.256 64.7546 87.424C64.9039 87.5733 64.9786 87.8907 64.9786 88.376C64.9786 88.7493 64.9133 89.0853 64.7826 89.384C64.6706 89.664 64.4559 89.86 64.1386 89.972C63.8959 90.0467 63.5786 90.112 63.1866 90.168C62.7946 90.2427 62.4493 90.28 62.1506 90.28ZM71.6562 90.28C70.1068 90.28 68.9402 89.8413 68.1562 88.964C67.3722 88.068 66.9802 86.7613 66.9802 85.044V71.8C66.9802 71.2213 67.1295 70.7827 67.4282 70.484C67.7268 70.1853 68.1562 70.036 68.7162 70.036C69.2762 70.036 69.7055 70.1853 70.0042 70.484C70.3215 70.7827 70.4802 71.2213 70.4802 71.8V84.876C70.4802 85.7347 70.6575 86.3693 71.0122 86.78C71.3855 87.1907 71.9082 87.396 72.5802 87.396C72.7295 87.396 72.8695 87.396 73.0002 87.396C73.1308 87.3773 73.2615 87.3587 73.3922 87.34C73.6535 87.3027 73.8308 87.3773 73.9242 87.564C74.0175 87.732 74.0642 88.0867 74.0642 88.628C74.0642 89.0947 73.9708 89.4587 73.7842 89.72C73.5975 89.9813 73.2895 90.14 72.8602 90.196C72.6735 90.2147 72.4775 90.2333 72.2722 90.252C72.0668 90.2707 71.8615 90.28 71.6562 90.28ZM82.5328 90.28C80.9835 90.28 79.6488 89.9907 78.5288 89.412C77.4088 88.8333 76.5408 88.012 75.9248 86.948C75.3275 85.884 75.0288 84.624 75.0288 83.168C75.0288 81.7493 75.3182 80.508 75.8968 79.444C76.4942 78.38 77.3062 77.5493 78.3328 76.952C79.3782 76.336 80.5635 76.028 81.8888 76.028C82.8595 76.028 83.7275 76.1867 84.4928 76.504C85.2768 76.8213 85.9395 77.2787 86.4808 77.876C87.0408 78.4733 87.4608 79.2013 87.7408 80.06C88.0395 80.9 88.1888 81.852 88.1888 82.916C88.1888 83.252 88.0675 83.5133 87.8248 83.7C87.6008 83.868 87.2742 83.952 86.8448 83.952H77.8568V81.936H85.7248L85.2768 82.356C85.2768 81.4973 85.1462 80.7787 84.8848 80.2C84.6422 79.6213 84.2782 79.1827 83.7928 78.884C83.3262 78.5667 82.7382 78.408 82.0288 78.408C81.2448 78.408 80.5728 78.5947 80.0128 78.968C79.4715 79.3227 79.0515 79.836 78.7528 80.508C78.4728 81.1613 78.3328 81.9453 78.3328 82.86V83.056C78.3328 84.5867 78.6875 85.7347 79.3968 86.5C80.1248 87.2467 81.1888 87.62 82.5888 87.62C83.0742 87.62 83.6155 87.564 84.2128 87.452C84.8288 87.3213 85.4075 87.1067 85.9488 86.808C86.3408 86.584 86.6862 86.4907 86.9848 86.528C87.2835 86.5467 87.5168 86.6493 87.6848 86.836C87.8715 87.0227 87.9835 87.256 88.0208 87.536C88.0582 87.7973 88.0022 88.068 87.8528 88.348C87.7222 88.628 87.4888 88.8707 87.1528 89.076C86.4995 89.4867 85.7435 89.7947 84.8848 90C84.0448 90.1867 83.2608 90.28 82.5328 90.28Z" fill="white"/>
<path d="M32.725 115.135C32.255 115.135 31.795 115.095 31.345 115.015C30.895 114.935 30.475 114.82 30.085 114.67C29.705 114.52 29.36 114.33 29.05 114.1C28.93 114.01 28.845 113.91 28.795 113.8C28.755 113.68 28.745 113.565 28.765 113.455C28.795 113.335 28.845 113.235 28.915 113.155C28.995 113.075 29.09 113.03 29.2 113.02C29.31 113.01 29.43 113.045 29.56 113.125C30.01 113.445 30.49 113.68 31 113.83C31.51 113.97 32.085 114.04 32.725 114.04C33.625 114.04 34.29 113.875 34.72 113.545C35.16 113.205 35.38 112.76 35.38 112.21C35.38 111.76 35.22 111.41 34.9 111.16C34.59 110.9 34.065 110.695 33.325 110.545L31.765 110.23C30.825 110.03 30.12 109.705 29.65 109.255C29.19 108.795 28.96 108.185 28.96 107.425C28.96 106.955 29.055 106.53 29.245 106.15C29.435 105.76 29.7 105.43 30.04 105.16C30.38 104.88 30.785 104.665 31.255 104.515C31.725 104.365 32.245 104.29 32.815 104.29C33.445 104.29 34.03 104.38 34.57 104.56C35.12 104.73 35.615 104.99 36.055 105.34C36.165 105.43 36.24 105.535 36.28 105.655C36.32 105.765 36.325 105.875 36.295 105.985C36.265 106.085 36.21 106.17 36.13 106.24C36.06 106.31 35.965 106.35 35.845 106.36C35.735 106.37 35.61 106.33 35.47 106.24C35.07 105.94 34.655 105.725 34.225 105.595C33.795 105.455 33.32 105.385 32.8 105.385C32.27 105.385 31.81 105.465 31.42 105.625C31.04 105.785 30.74 106.02 30.52 106.33C30.31 106.63 30.205 106.98 30.205 107.38C30.205 107.86 30.35 108.24 30.64 108.52C30.94 108.8 31.425 109.005 32.095 109.135L33.655 109.465C34.665 109.675 35.41 109.995 35.89 110.425C36.38 110.845 36.625 111.42 36.625 112.15C36.625 112.59 36.535 112.995 36.355 113.365C36.175 113.735 35.915 114.055 35.575 114.325C35.235 114.585 34.825 114.785 34.345 114.925C33.865 115.065 33.325 115.135 32.725 115.135ZM41.1085 115.135C40.5185 115.135 40.0285 115.03 39.6385 114.82C39.2585 114.6 38.9685 114.275 38.7685 113.845C38.5785 113.415 38.4835 112.88 38.4835 112.24V108.22C38.4835 108.01 38.5335 107.855 38.6335 107.755C38.7435 107.655 38.8935 107.605 39.0835 107.605C39.2835 107.605 39.4335 107.655 39.5335 107.755C39.6435 107.855 39.6985 108.01 39.6985 108.22V112.225C39.6985 112.865 39.8285 113.345 40.0885 113.665C40.3585 113.975 40.7785 114.13 41.3485 114.13C41.9685 114.13 42.4735 113.92 42.8635 113.5C43.2535 113.08 43.4485 112.53 43.4485 111.85V108.22C43.4485 108.01 43.4985 107.855 43.5985 107.755C43.7085 107.655 43.8635 107.605 44.0635 107.605C44.2535 107.605 44.3985 107.655 44.4985 107.755C44.6085 107.855 44.6635 108.01 44.6635 108.22V114.475C44.6635 114.895 44.4685 115.105 44.0785 115.105C43.8885 115.105 43.7385 115.05 43.6285 114.94C43.5285 114.83 43.4785 114.675 43.4785 114.475V113.11L43.6735 113.32C43.4735 113.91 43.1435 114.36 42.6835 114.67C42.2335 114.98 41.7085 115.135 41.1085 115.135ZM47.6967 117.805C47.4967 117.805 47.3467 117.75 47.2467 117.64C47.1467 117.54 47.0967 117.39 47.0967 117.19V108.22C47.0967 108.02 47.1467 107.87 47.2467 107.77C47.3467 107.66 47.4917 107.605 47.6817 107.605C47.8817 107.605 48.0317 107.66 48.1317 107.77C48.2417 107.87 48.2967 108.02 48.2967 108.22V109.645L48.1317 109.435C48.2917 108.865 48.6067 108.415 49.0767 108.085C49.5567 107.745 50.1267 107.575 50.7867 107.575C51.4367 107.575 52.0017 107.73 52.4817 108.04C52.9717 108.34 53.3467 108.775 53.6067 109.345C53.8767 109.905 54.0117 110.575 54.0117 111.355C54.0117 112.125 53.8767 112.795 53.6067 113.365C53.3467 113.925 52.9767 114.36 52.4967 114.67C52.0167 114.98 51.4467 115.135 50.7867 115.135C50.1267 115.135 49.5617 114.97 49.0917 114.64C48.6217 114.3 48.3017 113.85 48.1317 113.29H48.3117V117.19C48.3117 117.39 48.2567 117.54 48.1467 117.64C48.0367 117.75 47.8867 117.805 47.6967 117.805ZM50.5317 114.16C50.9917 114.16 51.3867 114.05 51.7167 113.83C52.0567 113.61 52.3167 113.29 52.4967 112.87C52.6867 112.45 52.7817 111.945 52.7817 111.355C52.7817 110.445 52.5767 109.75 52.1667 109.27C51.7667 108.79 51.2217 108.55 50.5317 108.55C50.0817 108.55 49.6867 108.66 49.3467 108.88C49.0067 109.09 48.7417 109.405 48.5517 109.825C48.3717 110.235 48.2817 110.745 48.2817 111.355C48.2817 112.255 48.4867 112.95 48.8967 113.44C49.3067 113.92 49.8517 114.16 50.5317 114.16ZM56.6018 117.805C56.4018 117.805 56.2518 117.75 56.1518 117.64C56.0518 117.54 56.0018 117.39 56.0018 117.19V108.22C56.0018 108.02 56.0518 107.87 56.1518 107.77C56.2518 107.66 56.3968 107.605 56.5868 107.605C56.7868 107.605 56.9368 107.66 57.0368 107.77C57.1468 107.87 57.2018 108.02 57.2018 108.22V109.645L57.0368 109.435C57.1968 108.865 57.5118 108.415 57.9818 108.085C58.4618 107.745 59.0318 107.575 59.6918 107.575C60.3418 107.575 60.9068 107.73 61.3868 108.04C61.8768 108.34 62.2518 108.775 62.5118 109.345C62.7818 109.905 62.9168 110.575 62.9168 111.355C62.9168 112.125 62.7818 112.795 62.5118 113.365C62.2518 113.925 61.8818 114.36 61.4018 114.67C60.9218 114.98 60.3518 115.135 59.6918 115.135C59.0318 115.135 58.4668 114.97 57.9968 114.64C57.5268 114.3 57.2068 113.85 57.0368 113.29H57.2168V117.19C57.2168 117.39 57.1618 117.54 57.0518 117.64C56.9418 117.75 56.7918 117.805 56.6018 117.805ZM59.4368 114.16C59.8968 114.16 60.2918 114.05 60.6218 113.83C60.9618 113.61 61.2218 113.29 61.4018 112.87C61.5918 112.45 61.6868 111.945 61.6868 111.355C61.6868 110.445 61.4818 109.75 61.0718 109.27C60.6718 108.79 60.1268 108.55 59.4368 108.55C58.9868 108.55 58.5918 108.66 58.2518 108.88C57.9118 109.09 57.6468 109.405 57.4568 109.825C57.2768 110.235 57.1868 110.745 57.1868 111.355C57.1868 112.255 57.3918 112.95 57.8018 113.44C58.2118 113.92 58.7568 114.16 59.4368 114.16ZM67.937 115.135C67.227 115.135 66.612 114.98 66.092 114.67C65.572 114.36 65.167 113.925 64.877 113.365C64.597 112.795 64.457 112.125 64.457 111.355C64.457 110.775 64.537 110.255 64.697 109.795C64.857 109.325 65.092 108.925 65.402 108.595C65.712 108.265 66.077 108.015 66.497 107.845C66.927 107.665 67.407 107.575 67.937 107.575C68.647 107.575 69.262 107.73 69.782 108.04C70.302 108.35 70.702 108.79 70.982 109.36C71.272 109.92 71.417 110.585 71.417 111.355C71.417 111.935 71.337 112.455 71.177 112.915C71.017 113.375 70.782 113.775 70.472 114.115C70.162 114.445 69.792 114.7 69.362 114.88C68.942 115.05 68.467 115.135 67.937 115.135ZM67.937 114.16C68.387 114.16 68.782 114.05 69.122 113.83C69.462 113.61 69.722 113.29 69.902 112.87C70.092 112.45 70.187 111.945 70.187 111.355C70.187 110.445 69.982 109.75 69.572 109.27C69.172 108.79 68.627 108.55 67.937 108.55C67.477 108.55 67.077 108.66 66.737 108.88C66.407 109.09 66.147 109.405 65.957 109.825C65.777 110.235 65.687 110.745 65.687 111.355C65.687 112.255 65.892 112.95 66.302 113.44C66.712 113.92 67.257 114.16 67.937 114.16ZM74.0169 115.105C73.8169 115.105 73.6619 115.05 73.5519 114.94C73.4519 114.83 73.4019 114.675 73.4019 114.475V108.22C73.4019 108.02 73.4519 107.87 73.5519 107.77C73.6519 107.66 73.7969 107.605 73.9869 107.605C74.1769 107.605 74.3219 107.66 74.4219 107.77C74.5319 107.87 74.5869 108.02 74.5869 108.22V109.435H74.4369C74.5969 108.845 74.9019 108.39 75.3519 108.07C75.8019 107.75 76.3569 107.58 77.0169 107.56C77.1669 107.55 77.2869 107.585 77.3769 107.665C77.4669 107.735 77.5169 107.86 77.5269 108.04C77.5369 108.21 77.4969 108.345 77.4069 108.445C77.3169 108.545 77.1769 108.605 76.9869 108.625L76.7469 108.655C76.0669 108.715 75.5419 108.935 75.1719 109.315C74.8119 109.685 74.6319 110.195 74.6319 110.845V114.475C74.6319 114.675 74.5769 114.83 74.4669 114.94C74.3669 115.05 74.2169 115.105 74.0169 115.105ZM82.2584 115.135C81.6884 115.135 81.2084 115.035 80.8184 114.835C80.4384 114.625 80.1534 114.325 79.9634 113.935C79.7734 113.535 79.6784 113.05 79.6784 112.48V108.655H78.6734C78.5034 108.655 78.3734 108.615 78.2834 108.535C78.1934 108.445 78.1484 108.325 78.1484 108.175C78.1484 108.025 78.1934 107.91 78.2834 107.83C78.3734 107.75 78.5034 107.71 78.6734 107.71H79.6784V105.985C79.6784 105.785 79.7334 105.635 79.8434 105.535C79.9534 105.425 80.1034 105.37 80.2934 105.37C80.4834 105.37 80.6284 105.425 80.7284 105.535C80.8384 105.635 80.8934 105.785 80.8934 105.985V107.71H82.7834C82.9534 107.71 83.0834 107.75 83.1734 107.83C83.2634 107.91 83.3084 108.025 83.3084 108.175C83.3084 108.325 83.2634 108.445 83.1734 108.535C83.0834 108.615 82.9534 108.655 82.7834 108.655H80.8934V112.36C80.8934 112.93 81.0134 113.365 81.2534 113.665C81.4934 113.955 81.8834 114.1 82.4234 114.1C82.6134 114.1 82.7734 114.08 82.9034 114.04C83.0434 114 83.1584 113.98 83.2484 113.98C83.3384 113.97 83.4134 114 83.4734 114.07C83.5334 114.14 83.5634 114.26 83.5634 114.43C83.5634 114.55 83.5384 114.66 83.4884 114.76C83.4484 114.86 83.3734 114.93 83.2634 114.97C83.1434 115.01 82.9834 115.045 82.7834 115.075C82.5934 115.115 82.4184 115.135 82.2584 115.135ZM85.4254 115.075C85.2254 115.075 85.0754 115.02 84.9754 114.91C84.8754 114.79 84.8254 114.625 84.8254 114.415V108.28C84.8254 108.07 84.8754 107.91 84.9754 107.8C85.0754 107.69 85.2254 107.635 85.4254 107.635C85.6154 107.635 85.7654 107.69 85.8754 107.8C85.9854 107.91 86.0404 108.07 86.0404 108.28V114.415C86.0404 114.625 85.9854 114.79 85.8754 114.91C85.7754 115.02 85.6254 115.075 85.4254 115.075ZM85.4254 105.955C85.1754 105.955 84.9804 105.89 84.8404 105.76C84.7004 105.62 84.6304 105.435 84.6304 105.205C84.6304 104.965 84.7004 104.785 84.8404 104.665C84.9804 104.535 85.1754 104.47 85.4254 104.47C85.6854 104.47 85.8804 104.535 86.0104 104.665C86.1504 104.785 86.2204 104.965 86.2204 105.205C86.2204 105.435 86.1504 105.62 86.0104 105.76C85.8804 105.89 85.6854 105.955 85.4254 105.955ZM89.0718 115.105C88.8718 115.105 88.7218 115.05 88.6218 114.94C88.5218 114.83 88.4718 114.675 88.4718 114.475V108.22C88.4718 108.02 88.5218 107.87 88.6218 107.77C88.7218 107.66 88.8668 107.605 89.0568 107.605C89.2468 107.605 89.3918 107.66 89.4918 107.77C89.6018 107.87 89.6568 108.02 89.6568 108.22V109.51L89.4918 109.33C89.7018 108.75 90.0418 108.315 90.5118 108.025C90.9918 107.725 91.5418 107.575 92.1618 107.575C92.7418 107.575 93.2218 107.68 93.6018 107.89C93.9918 108.1 94.2818 108.42 94.4718 108.85C94.6618 109.27 94.7568 109.805 94.7568 110.455V114.475C94.7568 114.675 94.7018 114.83 94.5918 114.94C94.4918 115.05 94.3468 115.105 94.1568 115.105C93.9568 115.105 93.8018 115.05 93.6918 114.94C93.5918 114.83 93.5418 114.675 93.5418 114.475V110.53C93.5418 109.85 93.4068 109.355 93.1368 109.045C92.8768 108.725 92.4568 108.565 91.8768 108.565C91.2068 108.565 90.6718 108.775 90.2718 109.195C89.8818 109.605 89.6868 110.155 89.6868 110.845V114.475C89.6868 114.895 89.4818 115.105 89.0718 115.105ZM100.382 117.835C99.8522 117.835 99.3322 117.77 98.8222 117.64C98.3222 117.52 97.8672 117.325 97.4572 117.055C97.3372 116.985 97.2572 116.9 97.2172 116.8C97.1872 116.7 97.1822 116.6 97.2022 116.5C97.2222 116.41 97.2672 116.325 97.3372 116.245C97.4072 116.175 97.4872 116.13 97.5772 116.11C97.6772 116.09 97.7772 116.105 97.8772 116.155C98.3172 116.425 98.7372 116.61 99.1372 116.71C99.5372 116.81 99.9322 116.86 100.322 116.86C101.032 116.86 101.567 116.67 101.927 116.29C102.297 115.91 102.482 115.36 102.482 114.64V112.945H102.632C102.482 113.525 102.162 113.985 101.672 114.325C101.192 114.665 100.627 114.835 99.9772 114.835C99.3072 114.835 98.7272 114.685 98.2372 114.385C97.7472 114.075 97.3672 113.645 97.0972 113.095C96.8372 112.545 96.7072 111.91 96.7072 111.19C96.7072 110.65 96.7822 110.16 96.9322 109.72C97.0822 109.27 97.2972 108.89 97.5772 108.58C97.8672 108.26 98.2122 108.015 98.6122 107.845C99.0222 107.665 99.4772 107.575 99.9772 107.575C100.637 107.575 101.207 107.745 101.687 108.085C102.167 108.415 102.477 108.865 102.617 109.435L102.467 109.615V108.22C102.467 108.02 102.517 107.87 102.617 107.77C102.727 107.66 102.877 107.605 103.067 107.605C103.267 107.605 103.417 107.66 103.517 107.77C103.617 107.87 103.667 108.02 103.667 108.22V114.475C103.667 115.585 103.387 116.42 102.827 116.98C102.277 117.55 101.462 117.835 100.382 117.835ZM100.202 113.845C100.672 113.845 101.077 113.74 101.417 113.53C101.757 113.31 102.017 113 102.197 112.6C102.387 112.2 102.482 111.73 102.482 111.19C102.482 110.38 102.277 109.74 101.867 109.27C101.457 108.79 100.902 108.55 100.202 108.55C99.7422 108.55 99.3422 108.66 99.0022 108.88C98.6622 109.09 98.3972 109.395 98.2072 109.795C98.0272 110.185 97.9372 110.65 97.9372 111.19C97.9372 112 98.1422 112.645 98.5522 113.125C98.9622 113.605 99.5122 113.845 100.202 113.845ZM113.508 115.105C113.318 115.105 113.168 115.05 113.058 114.94C112.948 114.82 112.893 114.66 112.893 114.46V105.49H109.518C109.338 105.49 109.198 105.44 109.098 105.34C108.998 105.24 108.948 105.11 108.948 104.95C108.948 104.78 108.998 104.65 109.098 104.56C109.198 104.47 109.338 104.425 109.518 104.425H117.513C117.693 104.425 117.833 104.47 117.933 104.56C118.033 104.65 118.083 104.78 118.083 104.95C118.083 105.12 118.033 105.255 117.933 105.355C117.833 105.445 117.693 105.49 117.513 105.49H114.138V114.46C114.138 114.66 114.083 114.82 113.973 114.94C113.873 115.05 113.718 115.105 113.508 115.105ZM121.459 115.135C120.689 115.135 120.024 114.985 119.464 114.685C118.914 114.375 118.484 113.94 118.174 113.38C117.874 112.82 117.724 112.15 117.724 111.37C117.724 110.61 117.874 109.95 118.174 109.39C118.474 108.82 118.884 108.375 119.404 108.055C119.934 107.735 120.544 107.575 121.234 107.575C121.724 107.575 122.164 107.66 122.554 107.83C122.944 107.99 123.274 108.225 123.544 108.535C123.824 108.845 124.034 109.22 124.174 109.66C124.324 110.1 124.399 110.595 124.399 111.145C124.399 111.305 124.354 111.425 124.264 111.505C124.174 111.575 124.044 111.61 123.874 111.61H118.654V110.815H123.589L123.349 111.01C123.349 110.47 123.269 110.015 123.109 109.645C122.949 109.265 122.714 108.975 122.404 108.775C122.104 108.575 121.724 108.475 121.264 108.475C120.754 108.475 120.319 108.595 119.959 108.835C119.609 109.065 119.344 109.39 119.164 109.81C118.984 110.22 118.894 110.7 118.894 111.25V111.34C118.894 112.26 119.114 112.96 119.554 113.44C120.004 113.92 120.639 114.16 121.459 114.16C121.799 114.16 122.134 114.115 122.464 114.025C122.804 113.935 123.134 113.785 123.454 113.575C123.594 113.485 123.719 113.445 123.829 113.455C123.949 113.455 124.044 113.49 124.114 113.56C124.184 113.62 124.229 113.7 124.249 113.8C124.279 113.89 124.269 113.99 124.219 114.1C124.179 114.21 124.094 114.305 123.964 114.385C123.634 114.625 123.244 114.81 122.794 114.94C122.344 115.07 121.899 115.135 121.459 115.135ZM126.289 115.09C126.159 115.09 126.044 115.05 125.944 114.97C125.844 114.89 125.789 114.785 125.779 114.655C125.779 114.515 125.844 114.37 125.974 114.22L128.599 110.92V111.55L126.139 108.475C126.009 108.315 125.944 108.17 125.944 108.04C125.954 107.91 126.009 107.805 126.109 107.725C126.209 107.645 126.324 107.605 126.454 107.605C126.604 107.605 126.729 107.635 126.829 107.695C126.939 107.745 127.039 107.83 127.129 107.95L129.274 110.665H128.854L131.014 107.95C131.104 107.83 131.199 107.745 131.299 107.695C131.399 107.635 131.524 107.605 131.674 107.605C131.814 107.605 131.929 107.645 132.019 107.725C132.119 107.805 132.169 107.915 132.169 108.055C132.179 108.185 132.119 108.33 131.989 108.49L129.544 111.52V110.965L132.169 114.22C132.289 114.37 132.344 114.515 132.334 114.655C132.334 114.785 132.284 114.89 132.184 114.97C132.084 115.05 131.964 115.09 131.824 115.09C131.684 115.09 131.559 115.06 131.449 115C131.349 114.95 131.249 114.865 131.149 114.745L128.839 111.835H129.274L126.964 114.745C126.874 114.855 126.774 114.94 126.664 115C126.564 115.06 126.439 115.09 126.289 115.09ZM137.225 115.135C136.655 115.135 136.175 115.035 135.785 114.835C135.405 114.625 135.12 114.325 134.93 113.935C134.74 113.535 134.645 113.05 134.645 112.48V108.655H133.64C133.47 108.655 133.34 108.615 133.25 108.535C133.16 108.445 133.115 108.325 133.115 108.175C133.115 108.025 133.16 107.91 133.25 107.83C133.34 107.75 133.47 107.71 133.64 107.71H134.645V105.985C134.645 105.785 134.7 105.635 134.81 105.535C134.92 105.425 135.07 105.37 135.26 105.37C135.45 105.37 135.595 105.425 135.695 105.535C135.805 105.635 135.86 105.785 135.86 105.985V107.71H137.75C137.92 107.71 138.05 107.75 138.14 107.83C138.23 107.91 138.275 108.025 138.275 108.175C138.275 108.325 138.23 108.445 138.14 108.535C138.05 108.615 137.92 108.655 137.75 108.655H135.86V112.36C135.86 112.93 135.98 113.365 136.22 113.665C136.46 113.955 136.85 114.1 137.39 114.1C137.58 114.1 137.74 114.08 137.87 114.04C138.01 114 138.125 113.98 138.215 113.98C138.305 113.97 138.38 114 138.44 114.07C138.5 114.14 138.53 114.26 138.53 114.43C138.53 114.55 138.505 114.66 138.455 114.76C138.415 114.86 138.34 114.93 138.23 114.97C138.11 115.01 137.95 115.045 137.75 115.075C137.56 115.115 137.385 115.135 137.225 115.135Z" fill="white"/>
<path d="M32.725 182.135C32.255 182.135 31.795 182.095 31.345 182.015C30.895 181.935 30.475 181.82 30.085 181.67C29.705 181.52 29.36 181.33 29.05 181.1C28.93 181.01 28.845 180.91 28.795 180.8C28.755 180.68 28.745 180.565 28.765 180.455C28.795 180.335 28.845 180.235 28.915 180.155C28.995 180.075 29.09 180.03 29.2 180.02C29.31 180.01 29.43 180.045 29.56 180.125C30.01 180.445 30.49 180.68 31 180.83C31.51 180.97 32.085 181.04 32.725 181.04C33.625 181.04 34.29 180.875 34.72 180.545C35.16 180.205 35.38 179.76 35.38 179.21C35.38 178.76 35.22 178.41 34.9 178.16C34.59 177.9 34.065 177.695 33.325 177.545L31.765 177.23C30.825 177.03 30.12 176.705 29.65 176.255C29.19 175.795 28.96 175.185 28.96 174.425C28.96 173.955 29.055 173.53 29.245 173.15C29.435 172.76 29.7 172.43 30.04 172.16C30.38 171.88 30.785 171.665 31.255 171.515C31.725 171.365 32.245 171.29 32.815 171.29C33.445 171.29 34.03 171.38 34.57 171.56C35.12 171.73 35.615 171.99 36.055 172.34C36.165 172.43 36.24 172.535 36.28 172.655C36.32 172.765 36.325 172.875 36.295 172.985C36.265 173.085 36.21 173.17 36.13 173.24C36.06 173.31 35.965 173.35 35.845 173.36C35.735 173.37 35.61 173.33 35.47 173.24C35.07 172.94 34.655 172.725 34.225 172.595C33.795 172.455 33.32 172.385 32.8 172.385C32.27 172.385 31.81 172.465 31.42 172.625C31.04 172.785 30.74 173.02 30.52 173.33C30.31 173.63 30.205 173.98 30.205 174.38C30.205 174.86 30.35 175.24 30.64 175.52C30.94 175.8 31.425 176.005 32.095 176.135L33.655 176.465C34.665 176.675 35.41 176.995 35.89 177.425C36.38 177.845 36.625 178.42 36.625 179.15C36.625 179.59 36.535 179.995 36.355 180.365C36.175 180.735 35.915 181.055 35.575 181.325C35.235 181.585 34.825 181.785 34.345 181.925C33.865 182.065 33.325 182.135 32.725 182.135ZM41.1085 182.135C40.5185 182.135 40.0285 182.03 39.6385 181.82C39.2585 181.6 38.9685 181.275 38.7685 180.845C38.5785 180.415 38.4835 179.88 38.4835 179.24V175.22C38.4835 175.01 38.5335 174.855 38.6335 174.755C38.7435 174.655 38.8935 174.605 39.0835 174.605C39.2835 174.605 39.4335 174.655 39.5335 174.755C39.6435 174.855 39.6985 175.01 39.6985 175.22V179.225C39.6985 179.865 39.8285 180.345 40.0885 180.665C40.3585 180.975 40.7785 181.13 41.3485 181.13C41.9685 181.13 42.4735 180.92 42.8635 180.5C43.2535 180.08 43.4485 179.53 43.4485 178.85V175.22C43.4485 175.01 43.4985 174.855 43.5985 174.755C43.7085 174.655 43.8635 174.605 44.0635 174.605C44.2535 174.605 44.3985 174.655 44.4985 174.755C44.6085 174.855 44.6635 175.01 44.6635 175.22V181.475C44.6635 181.895 44.4685 182.105 44.0785 182.105C43.8885 182.105 43.7385 182.05 43.6285 181.94C43.5285 181.83 43.4785 181.675 43.4785 181.475V180.11L43.6735 180.32C43.4735 180.91 43.1435 181.36 42.6835 181.67C42.2335 181.98 41.7085 182.135 41.1085 182.135ZM47.6967 184.805C47.4967 184.805 47.3467 184.75 47.2467 184.64C47.1467 184.54 47.0967 184.39 47.0967 184.19V175.22C47.0967 175.02 47.1467 174.87 47.2467 174.77C47.3467 174.66 47.4917 174.605 47.6817 174.605C47.8817 174.605 48.0317 174.66 48.1317 174.77C48.2417 174.87 48.2967 175.02 48.2967 175.22V176.645L48.1317 176.435C48.2917 175.865 48.6067 175.415 49.0767 175.085C49.5567 174.745 50.1267 174.575 50.7867 174.575C51.4367 174.575 52.0017 174.73 52.4817 175.04C52.9717 175.34 53.3467 175.775 53.6067 176.345C53.8767 176.905 54.0117 177.575 54.0117 178.355C54.0117 179.125 53.8767 179.795 53.6067 180.365C53.3467 180.925 52.9767 181.36 52.4967 181.67C52.0167 181.98 51.4467 182.135 50.7867 182.135C50.1267 182.135 49.5617 181.97 49.0917 181.64C48.6217 181.3 48.3017 180.85 48.1317 180.29H48.3117V184.19C48.3117 184.39 48.2567 184.54 48.1467 184.64C48.0367 184.75 47.8867 184.805 47.6967 184.805ZM50.5317 181.16C50.9917 181.16 51.3867 181.05 51.7167 180.83C52.0567 180.61 52.3167 180.29 52.4967 179.87C52.6867 179.45 52.7817 178.945 52.7817 178.355C52.7817 177.445 52.5767 176.75 52.1667 176.27C51.7667 175.79 51.2217 175.55 50.5317 175.55C50.0817 175.55 49.6867 175.66 49.3467 175.88C49.0067 176.09 48.7417 176.405 48.5517 176.825C48.3717 177.235 48.2817 177.745 48.2817 178.355C48.2817 179.255 48.4867 179.95 48.8967 180.44C49.3067 180.92 49.8517 181.16 50.5317 181.16ZM56.6018 184.805C56.4018 184.805 56.2518 184.75 56.1518 184.64C56.0518 184.54 56.0018 184.39 56.0018 184.19V175.22C56.0018 175.02 56.0518 174.87 56.1518 174.77C56.2518 174.66 56.3968 174.605 56.5868 174.605C56.7868 174.605 56.9368 174.66 57.0368 174.77C57.1468 174.87 57.2018 175.02 57.2018 175.22V176.645L57.0368 176.435C57.1968 175.865 57.5118 175.415 57.9818 175.085C58.4618 174.745 59.0318 174.575 59.6918 174.575C60.3418 174.575 60.9068 174.73 61.3868 175.04C61.8768 175.34 62.2518 175.775 62.5118 176.345C62.7818 176.905 62.9168 177.575 62.9168 178.355C62.9168 179.125 62.7818 179.795 62.5118 180.365C62.2518 180.925 61.8818 181.36 61.4018 181.67C60.9218 181.98 60.3518 182.135 59.6918 182.135C59.0318 182.135 58.4668 181.97 57.9968 181.64C57.5268 181.3 57.2068 180.85 57.0368 180.29H57.2168V184.19C57.2168 184.39 57.1618 184.54 57.0518 184.64C56.9418 184.75 56.7918 184.805 56.6018 184.805ZM59.4368 181.16C59.8968 181.16 60.2918 181.05 60.6218 180.83C60.9618 180.61 61.2218 180.29 61.4018 179.87C61.5918 179.45 61.6868 178.945 61.6868 178.355C61.6868 177.445 61.4818 176.75 61.0718 176.27C60.6718 175.79 60.1268 175.55 59.4368 175.55C58.9868 175.55 58.5918 175.66 58.2518 175.88C57.9118 176.09 57.6468 176.405 57.4568 176.825C57.2768 177.235 57.1868 177.745 57.1868 178.355C57.1868 179.255 57.3918 179.95 57.8018 180.44C58.2118 180.92 58.7568 181.16 59.4368 181.16ZM67.937 182.135C67.227 182.135 66.612 181.98 66.092 181.67C65.572 181.36 65.167 180.925 64.877 180.365C64.597 179.795 64.457 179.125 64.457 178.355C64.457 177.775 64.537 177.255 64.697 176.795C64.857 176.325 65.092 175.925 65.402 175.595C65.712 175.265 66.077 175.015 66.497 174.845C66.927 174.665 67.407 174.575 67.937 174.575C68.647 174.575 69.262 174.73 69.782 175.04C70.302 175.35 70.702 175.79 70.982 176.36C71.272 176.92 71.417 177.585 71.417 178.355C71.417 178.935 71.337 179.455 71.177 179.915C71.017 180.375 70.782 180.775 70.472 181.115C70.162 181.445 69.792 181.7 69.362 181.88C68.942 182.05 68.467 182.135 67.937 182.135ZM67.937 181.16C68.387 181.16 68.782 181.05 69.122 180.83C69.462 180.61 69.722 180.29 69.902 179.87C70.092 179.45 70.187 178.945 70.187 178.355C70.187 177.445 69.982 176.75 69.572 176.27C69.172 175.79 68.627 175.55 67.937 175.55C67.477 175.55 67.077 175.66 66.737 175.88C66.407 176.09 66.147 176.405 65.957 176.825C65.777 177.235 65.687 177.745 65.687 178.355C65.687 179.255 65.892 179.95 66.302 180.44C66.712 180.92 67.257 181.16 67.937 181.16ZM74.0169 182.105C73.8169 182.105 73.6619 182.05 73.5519 181.94C73.4519 181.83 73.4019 181.675 73.4019 181.475V175.22C73.4019 175.02 73.4519 174.87 73.5519 174.77C73.6519 174.66 73.7969 174.605 73.9869 174.605C74.1769 174.605 74.3219 174.66 74.4219 174.77C74.5319 174.87 74.5869 175.02 74.5869 175.22V176.435H74.4369C74.5969 175.845 74.9019 175.39 75.3519 175.07C75.8019 174.75 76.3569 174.58 77.0169 174.56C77.1669 174.55 77.2869 174.585 77.3769 174.665C77.4669 174.735 77.5169 174.86 77.5269 175.04C77.5369 175.21 77.4969 175.345 77.4069 175.445C77.3169 175.545 77.1769 175.605 76.9869 175.625L76.7469 175.655C76.0669 175.715 75.5419 175.935 75.1719 176.315C74.8119 176.685 74.6319 177.195 74.6319 177.845V181.475C74.6319 181.675 74.5769 181.83 74.4669 181.94C74.3669 182.05 74.2169 182.105 74.0169 182.105ZM82.2584 182.135C81.6884 182.135 81.2084 182.035 80.8184 181.835C80.4384 181.625 80.1534 181.325 79.9634 180.935C79.7734 180.535 79.6784 180.05 79.6784 179.48V175.655H78.6734C78.5034 175.655 78.3734 175.615 78.2834 175.535C78.1934 175.445 78.1484 175.325 78.1484 175.175C78.1484 175.025 78.1934 174.91 78.2834 174.83C78.3734 174.75 78.5034 174.71 78.6734 174.71H79.6784V172.985C79.6784 172.785 79.7334 172.635 79.8434 172.535C79.9534 172.425 80.1034 172.37 80.2934 172.37C80.4834 172.37 80.6284 172.425 80.7284 172.535C80.8384 172.635 80.8934 172.785 80.8934 172.985V174.71H82.7834C82.9534 174.71 83.0834 174.75 83.1734 174.83C83.2634 174.91 83.3084 175.025 83.3084 175.175C83.3084 175.325 83.2634 175.445 83.1734 175.535C83.0834 175.615 82.9534 175.655 82.7834 175.655H80.8934V179.36C80.8934 179.93 81.0134 180.365 81.2534 180.665C81.4934 180.955 81.8834 181.1 82.4234 181.1C82.6134 181.1 82.7734 181.08 82.9034 181.04C83.0434 181 83.1584 180.98 83.2484 180.98C83.3384 180.97 83.4134 181 83.4734 181.07C83.5334 181.14 83.5634 181.26 83.5634 181.43C83.5634 181.55 83.5384 181.66 83.4884 181.76C83.4484 181.86 83.3734 181.93 83.2634 181.97C83.1434 182.01 82.9834 182.045 82.7834 182.075C82.5934 182.115 82.4184 182.135 82.2584 182.135ZM85.4254 182.075C85.2254 182.075 85.0754 182.02 84.9754 181.91C84.8754 181.79 84.8254 181.625 84.8254 181.415V175.28C84.8254 175.07 84.8754 174.91 84.9754 174.8C85.0754 174.69 85.2254 174.635 85.4254 174.635C85.6154 174.635 85.7654 174.69 85.8754 174.8C85.9854 174.91 86.0404 175.07 86.0404 175.28V181.415C86.0404 181.625 85.9854 181.79 85.8754 181.91C85.7754 182.02 85.6254 182.075 85.4254 182.075ZM85.4254 172.955C85.1754 172.955 84.9804 172.89 84.8404 172.76C84.7004 172.62 84.6304 172.435 84.6304 172.205C84.6304 171.965 84.7004 171.785 84.8404 171.665C84.9804 171.535 85.1754 171.47 85.4254 171.47C85.6854 171.47 85.8804 171.535 86.0104 171.665C86.1504 171.785 86.2204 171.965 86.2204 172.205C86.2204 172.435 86.1504 172.62 86.0104 172.76C85.8804 172.89 85.6854 172.955 85.4254 172.955ZM89.0718 182.105C88.8718 182.105 88.7218 182.05 88.6218 181.94C88.5218 181.83 88.4718 181.675 88.4718 181.475V175.22C88.4718 175.02 88.5218 174.87 88.6218 174.77C88.7218 174.66 88.8668 174.605 89.0568 174.605C89.2468 174.605 89.3918 174.66 89.4918 174.77C89.6018 174.87 89.6568 175.02 89.6568 175.22V176.51L89.4918 176.33C89.7018 175.75 90.0418 175.315 90.5118 175.025C90.9918 174.725 91.5418 174.575 92.1618 174.575C92.7418 174.575 93.2218 174.68 93.6018 174.89C93.9918 175.1 94.2818 175.42 94.4718 175.85C94.6618 176.27 94.7568 176.805 94.7568 177.455V181.475C94.7568 181.675 94.7018 181.83 94.5918 181.94C94.4918 182.05 94.3468 182.105 94.1568 182.105C93.9568 182.105 93.8018 182.05 93.6918 181.94C93.5918 181.83 93.5418 181.675 93.5418 181.475V177.53C93.5418 176.85 93.4068 176.355 93.1368 176.045C92.8768 175.725 92.4568 175.565 91.8768 175.565C91.2068 175.565 90.6718 175.775 90.2718 176.195C89.8818 176.605 89.6868 177.155 89.6868 177.845V181.475C89.6868 181.895 89.4818 182.105 89.0718 182.105ZM100.382 184.835C99.8522 184.835 99.3322 184.77 98.8222 184.64C98.3222 184.52 97.8672 184.325 97.4572 184.055C97.3372 183.985 97.2572 183.9 97.2172 183.8C97.1872 183.7 97.1822 183.6 97.2022 183.5C97.2222 183.41 97.2672 183.325 97.3372 183.245C97.4072 183.175 97.4872 183.13 97.5772 183.11C97.6772 183.09 97.7772 183.105 97.8772 183.155C98.3172 183.425 98.7372 183.61 99.1372 183.71C99.5372 183.81 99.9322 183.86 100.322 183.86C101.032 183.86 101.567 183.67 101.927 183.29C102.297 182.91 102.482 182.36 102.482 181.64V179.945H102.632C102.482 180.525 102.162 180.985 101.672 181.325C101.192 181.665 100.627 181.835 99.9772 181.835C99.3072 181.835 98.7272 181.685 98.2372 181.385C97.7472 181.075 97.3672 180.645 97.0972 180.095C96.8372 179.545 96.7072 178.91 96.7072 178.19C96.7072 177.65 96.7822 177.16 96.9322 176.72C97.0822 176.27 97.2972 175.89 97.5772 175.58C97.8672 175.26 98.2122 175.015 98.6122 174.845C99.0222 174.665 99.4772 174.575 99.9772 174.575C100.637 174.575 101.207 174.745 101.687 175.085C102.167 175.415 102.477 175.865 102.617 176.435L102.467 176.615V175.22C102.467 175.02 102.517 174.87 102.617 174.77C102.727 174.66 102.877 174.605 103.067 174.605C103.267 174.605 103.417 174.66 103.517 174.77C103.617 174.87 103.667 175.02 103.667 175.22V181.475C103.667 182.585 103.387 183.42 102.827 183.98C102.277 184.55 101.462 184.835 100.382 184.835ZM100.202 180.845C100.672 180.845 101.077 180.74 101.417 180.53C101.757 180.31 102.017 180 102.197 179.6C102.387 179.2 102.482 178.73 102.482 178.19C102.482 177.38 102.277 176.74 101.867 176.27C101.457 175.79 100.902 175.55 100.202 175.55C99.7422 175.55 99.3422 175.66 99.0022 175.88C98.6622 176.09 98.3972 176.395 98.2072 176.795C98.0272 177.185 97.9372 177.65 97.9372 178.19C97.9372 179 98.1422 179.645 98.5522 180.125C98.9622 180.605 99.5122 180.845 100.202 180.845ZM113.508 182.105C113.318 182.105 113.168 182.05 113.058 181.94C112.948 181.82 112.893 181.66 112.893 181.46V172.49H109.518C109.338 172.49 109.198 172.44 109.098 172.34C108.998 172.24 108.948 172.11 108.948 171.95C108.948 171.78 108.998 171.65 109.098 171.56C109.198 171.47 109.338 171.425 109.518 171.425H117.513C117.693 171.425 117.833 171.47 117.933 171.56C118.033 171.65 118.083 171.78 118.083 171.95C118.083 172.12 118.033 172.255 117.933 172.355C117.833 172.445 117.693 172.49 117.513 172.49H114.138V181.46C114.138 181.66 114.083 181.82 113.973 181.94C113.873 182.05 113.718 182.105 113.508 182.105ZM121.459 182.135C120.689 182.135 120.024 181.985 119.464 181.685C118.914 181.375 118.484 180.94 118.174 180.38C117.874 179.82 117.724 179.15 117.724 178.37C117.724 177.61 117.874 176.95 118.174 176.39C118.474 175.82 118.884 175.375 119.404 175.055C119.934 174.735 120.544 174.575 121.234 174.575C121.724 174.575 122.164 174.66 122.554 174.83C122.944 174.99 123.274 175.225 123.544 175.535C123.824 175.845 124.034 176.22 124.174 176.66C124.324 177.1 124.399 177.595 124.399 178.145C124.399 178.305 124.354 178.425 124.264 178.505C124.174 178.575 124.044 178.61 123.874 178.61H118.654V177.815H123.589L123.349 178.01C123.349 177.47 123.269 177.015 123.109 176.645C122.949 176.265 122.714 175.975 122.404 175.775C122.104 175.575 121.724 175.475 121.264 175.475C120.754 175.475 120.319 175.595 119.959 175.835C119.609 176.065 119.344 176.39 119.164 176.81C118.984 177.22 118.894 177.7 118.894 178.25V178.34C118.894 179.26 119.114 179.96 119.554 180.44C120.004 180.92 120.639 181.16 121.459 181.16C121.799 181.16 122.134 181.115 122.464 181.025C122.804 180.935 123.134 180.785 123.454 180.575C123.594 180.485 123.719 180.445 123.829 180.455C123.949 180.455 124.044 180.49 124.114 180.56C124.184 180.62 124.229 180.7 124.249 180.8C124.279 180.89 124.269 180.99 124.219 181.1C124.179 181.21 124.094 181.305 123.964 181.385C123.634 181.625 123.244 181.81 122.794 181.94C122.344 182.07 121.899 182.135 121.459 182.135ZM126.289 182.09C126.159 182.09 126.044 182.05 125.944 181.97C125.844 181.89 125.789 181.785 125.779 181.655C125.779 181.515 125.844 181.37 125.974 181.22L128.599 177.92V178.55L126.139 175.475C126.009 175.315 125.944 175.17 125.944 175.04C125.954 174.91 126.009 174.805 126.109 174.725C126.209 174.645 126.324 174.605 126.454 174.605C126.604 174.605 126.729 174.635 126.829 174.695C126.939 174.745 127.039 174.83 127.129 174.95L129.274 177.665H128.854L131.014 174.95C131.104 174.83 131.199 174.745 131.299 174.695C131.399 174.635 131.524 174.605 131.674 174.605C131.814 174.605 131.929 174.645 132.019 174.725C132.119 174.805 132.169 174.915 132.169 175.055C132.179 175.185 132.119 175.33 131.989 175.49L129.544 178.52V177.965L132.169 181.22C132.289 181.37 132.344 181.515 132.334 181.655C132.334 181.785 132.284 181.89 132.184 181.97C132.084 182.05 131.964 182.09 131.824 182.09C131.684 182.09 131.559 182.06 131.449 182C131.349 181.95 131.249 181.865 131.149 181.745L128.839 178.835H129.274L126.964 181.745C126.874 181.855 126.774 181.94 126.664 182C126.564 182.06 126.439 182.09 126.289 182.09ZM137.225 182.135C136.655 182.135 136.175 182.035 135.785 181.835C135.405 181.625 135.12 181.325 134.93 180.935C134.74 180.535 134.645 180.05 134.645 179.48V175.655H133.64C133.47 175.655 133.34 175.615 133.25 175.535C133.16 175.445 133.115 175.325 133.115 175.175C133.115 175.025 133.16 174.91 133.25 174.83C133.34 174.75 133.47 174.71 133.64 174.71H134.645V172.985C134.645 172.785 134.7 172.635 134.81 172.535C134.92 172.425 135.07 172.37 135.26 172.37C135.45 172.37 135.595 172.425 135.695 172.535C135.805 172.635 135.86 172.785 135.86 172.985V174.71H137.75C137.92 174.71 138.05 174.75 138.14 174.83C138.23 174.91 138.275 175.025 138.275 175.175C138.275 175.325 138.23 175.445 138.14 175.535C138.05 175.615 137.92 175.655 137.75 175.655H135.86V179.36C135.86 179.93 135.98 180.365 136.22 180.665C136.46 180.955 136.85 181.1 137.39 181.1C137.58 181.1 137.74 181.08 137.87 181.04C138.01 181 138.125 180.98 138.215 180.98C138.305 180.97 138.38 181 138.44 181.07C138.5 181.14 138.53 181.26 138.53 181.43C138.53 181.55 138.505 181.66 138.455 181.76C138.415 181.86 138.34 181.93 138.23 181.97C138.11 182.01 137.95 182.045 137.75 182.075C137.56 182.115 137.385 182.135 137.225 182.135Z" fill="white"/>
</g>
<g clip-path="url(#clip0_264_527)">
<rect width="335" height="200" rx="20" fill="url(#paint1_radial_264_527)"/>
<g clip-path="url(#clip1_264_527)">
<g clip-path="url(#clip2_264_527)">
<path d="M286.486 119.169C281.33 137.806 261.336 148.409 241.827 142.852C237.186 141.533 232.833 139.353 229.015 136.437C225.197 133.521 221.989 129.926 219.576 125.858C217.162 121.789 215.589 117.327 214.948 112.727C214.306 108.126 214.608 103.477 215.837 99.0457C220.993 80.4085 240.987 69.8053 260.496 75.3623C264.173 76.4054 267.676 77.9899 270.879 80.0587C283.882 88.4797 290.644 104.136 286.486 119.169Z" fill="#994D17"/>
<path d="M287.648 114.969C282.493 133.605 262.498 144.21 242.989 138.653C238.349 137.333 233.996 135.153 230.178 132.237C226.36 129.321 223.153 125.726 220.74 121.657C218.326 117.589 216.753 113.127 216.111 108.527C215.47 103.927 215.771 99.2779 216.999 94.8465C222.155 76.2092 242.149 65.6061 261.658 71.163C266.3 72.4801 270.655 74.6588 274.474 77.5743C278.293 80.4899 281.502 84.085 283.916 88.154C286.33 92.223 287.902 96.6859 288.543 101.287C289.183 105.889 288.879 110.538 287.648 114.969Z" fill="#FFEA80"/>
<path d="M287.109 116.919C281.953 135.556 261.959 146.159 242.45 140.602C237.81 139.282 233.457 137.102 229.639 134.186C225.821 131.27 222.614 127.675 220.201 123.607C217.787 119.538 216.214 115.077 215.572 110.476C214.931 105.876 215.232 101.227 216.46 96.7957C221.616 78.1585 241.61 67.5553 261.119 73.1122C264.796 74.1565 268.298 75.7421 271.501 77.812C284.505 86.2297 291.266 101.891 287.109 116.919Z" fill="#FFCF40"/>
<path d="M287.109 116.918C281.954 135.556 261.96 146.159 242.45 140.602C236.5 138.917 231.044 135.818 226.593 131.593L271.502 77.8118C284.505 86.2295 291.266 101.89 287.109 116.918Z" fill="#F7A831"/>
<path d="M265.179 104.405L243.733 98.2968C243.355 98.1829 243.034 97.9302 242.841 97.5942C242.648 97.2583 242.599 96.8665 242.705 96.5048L244.515 89.962C244.738 89.1267 245.298 88.4208 246.072 87.9985C246.846 87.5761 247.773 87.4716 248.648 87.7078L264.984 92.3608C266.15 92.6957 267.367 92.8029 268.561 92.6761C269.756 92.5493 270.904 92.191 271.938 91.6227L272.612 91.2578L274.418 91.2761L274.943 89.3802C274.985 89.2694 275.016 89.1549 275.037 89.0382L275.123 88.7277L275.073 88.7134C275.078 88.5814 275.071 88.4489 275.053 88.3173C274.996 87.8792 274.804 87.4637 274.502 87.1247C274.2 86.7858 273.802 86.539 273.359 86.4164L262.584 83.3473L262.876 82.2931C263.014 81.7934 263.048 81.2693 262.976 80.7506C262.903 80.2319 262.726 79.7289 262.454 79.2702C262.181 78.8115 261.82 78.4061 261.389 78.0772C260.959 77.7484 260.468 77.5024 259.945 77.3534C259.422 77.2044 258.877 77.1553 258.341 77.2089C257.805 77.2625 257.288 77.4177 256.82 77.6657C256.353 77.9137 255.943 78.2496 255.615 78.6542C255.288 79.0589 255.048 79.5243 254.909 80.024L254.619 81.0732L250.785 79.9813C244.598 78.2191 238.214 81.6786 236.55 87.6934L234.166 96.3098C233.093 100.191 235.469 104.276 239.464 105.414L260.911 111.523C261.1 111.579 261.276 111.669 261.43 111.79C261.584 111.91 261.713 112.058 261.809 112.224C261.906 112.391 261.967 112.573 261.991 112.761C262.014 112.948 261.999 113.137 261.947 113.317L260.127 119.896C259.908 120.722 259.356 121.42 258.591 121.838C257.826 122.255 256.911 122.358 256.046 122.124L239.659 117.457C238.493 117.122 237.277 117.015 236.082 117.142C234.888 117.269 233.739 117.627 232.706 118.195L230.721 119.27C230.286 119.507 229.946 119.875 229.752 120.32C229.672 120.506 229.618 120.702 229.591 120.902L229.067 122.797L230.261 122.811C230.549 123.094 230.908 123.302 231.3 123.411L242.075 126.48L241.785 127.53C241.506 128.539 241.658 129.626 242.207 130.553C242.757 131.479 243.659 132.168 244.715 132.469C245.772 132.77 246.896 132.658 247.84 132.157C248.785 131.656 249.472 130.808 249.751 129.799L250.042 128.749L253.914 129.852C260.078 131.608 266.442 128.161 268.1 122.168L270.495 113.511C271.553 109.624 269.176 105.544 265.179 104.405Z" fill="#592D0D"/>
<path d="M264.267 107.702L242.822 101.594C242.443 101.48 242.123 101.227 241.93 100.891C241.737 100.555 241.688 100.164 241.793 99.802L243.603 93.2608C243.826 92.426 244.386 91.7206 245.16 91.2985C245.935 90.8765 246.86 90.7722 247.735 91.0082L264.072 95.6613C265.237 95.9962 266.454 96.1034 267.649 95.9766C268.843 95.8498 269.992 95.4915 271.025 94.9231L273.01 93.8463C273.41 93.6294 273.73 93.3016 273.931 92.9041C274.131 92.5065 274.204 92.0569 274.139 91.6118C274.081 91.1736 273.889 90.7579 273.587 90.4186C273.285 90.0794 272.887 89.8322 272.445 89.7092L261.674 86.6412L261.964 85.5919C262.102 85.0922 262.136 84.5681 262.063 84.0494C261.991 83.5307 261.814 83.0277 261.541 82.569C261.269 82.1103 260.908 81.7049 260.477 81.3761C260.047 81.0472 259.556 80.8012 259.033 80.6522C258.51 80.5033 257.965 80.4541 257.429 80.5077C256.893 80.5613 256.376 80.7165 255.908 80.9645C255.441 81.2125 255.031 81.5484 254.703 81.953C254.375 82.3577 254.136 82.8231 253.997 83.3228L253.707 84.3721L249.873 83.2801C243.686 81.5179 237.302 84.9774 235.638 90.9922L233.254 99.6103C232.18 103.493 234.556 107.577 238.551 108.715L259.999 114.824C260.377 114.938 260.697 115.191 260.89 115.526C261.082 115.862 261.131 116.254 261.026 116.615L259.206 123.193C258.988 124.019 258.435 124.717 257.67 125.135C256.905 125.552 255.99 125.655 255.125 125.421L238.747 120.756C237.581 120.421 236.365 120.314 235.17 120.441C233.975 120.567 232.827 120.926 231.794 121.494L229.808 122.571C229.408 122.789 229.087 123.118 228.887 123.518C228.687 123.918 228.617 124.369 228.685 124.816C228.742 125.254 228.934 125.67 229.236 126.009C229.538 126.348 229.936 126.595 230.378 126.718L241.153 129.787L240.864 130.835C240.584 131.844 240.736 132.931 241.286 133.858C241.835 134.784 242.738 135.474 243.794 135.774C244.851 136.075 245.975 135.963 246.919 135.462C247.863 134.961 248.551 134.113 248.83 133.104L249.12 132.056L252.992 133.159C259.156 134.915 265.521 131.466 267.179 125.473L269.575 116.81C270.641 112.924 268.264 108.841 264.267 107.702Z" fill="#FFCF40"/>
<path d="M264.656 106.296L243.21 100.188C242.832 100.073 242.511 99.8207 242.319 99.4848C242.126 99.149 242.077 98.7574 242.182 98.3957L243.991 91.8546C244.215 91.0197 244.775 90.3143 245.549 89.8923C246.323 89.4703 247.249 89.3659 248.124 89.602L264.46 94.255C265.626 94.5899 266.843 94.6971 268.037 94.5703C269.232 94.4435 270.38 94.0852 271.414 93.5169L273.399 92.44C273.798 92.2232 274.118 91.8954 274.319 91.4978C274.52 91.1003 274.592 90.6507 274.527 90.2056C274.47 89.7673 274.278 89.3516 273.976 89.0124C273.674 88.6731 273.276 88.426 272.834 88.303L262.062 85.2349L262.353 84.1857C262.491 83.686 262.525 83.1618 262.452 82.6432C262.38 82.1245 262.202 81.6214 261.93 81.1627C261.658 80.7041 261.296 80.2987 260.866 79.9698C260.436 79.6409 259.945 79.395 259.422 79.246C258.899 79.097 258.354 79.0479 257.817 79.1015C257.281 79.1551 256.765 79.3103 256.297 79.5583C255.829 79.8062 255.42 80.1421 255.092 80.5468C254.764 80.9514 254.524 81.4169 254.386 81.9166L254.096 82.9658L250.262 81.8738C244.075 80.1116 237.69 83.5712 236.027 89.586L233.643 98.2023C232.569 102.086 234.945 106.169 238.941 107.307L260.388 113.416C260.766 113.53 261.086 113.783 261.279 114.119C261.471 114.454 261.52 114.846 261.415 115.207L259.595 121.787C259.376 122.612 258.824 123.311 258.059 123.728C257.294 124.146 256.379 124.249 255.514 124.014L239.136 119.35C237.97 119.015 236.753 118.907 235.559 119.034C234.364 119.161 233.216 119.519 232.182 120.088L230.197 121.165C229.798 121.382 229.478 121.709 229.277 122.107C229.077 122.505 229.005 122.954 229.071 123.4C229.128 123.838 229.32 124.253 229.622 124.593C229.924 124.932 230.322 125.179 230.764 125.302L241.539 128.371L241.249 129.419C240.97 130.428 241.122 131.515 241.672 132.442C242.221 133.368 243.123 134.058 244.18 134.358C245.236 134.659 246.36 134.547 247.305 134.046C248.249 133.545 248.937 132.697 249.216 131.688L249.506 130.64L253.378 131.743C259.542 133.499 265.907 130.05 267.565 124.057L269.959 115.402C271.029 111.518 268.653 107.435 264.656 106.296Z" fill="#994D17"/>
</g>
</g>
<g opacity="0.3" clip-path="url(#clip3_264_527)" filter="url(#filter0_f_264_527)">
<g clip-path="url(#clip4_264_527)">
<path d="M253.107 183.496C258.35 193.82 253.84 206.77 243.033 212.422C240.463 213.768 237.673 214.616 234.822 214.919C231.97 215.222 229.113 214.973 226.414 214.188C223.715 213.402 221.227 212.095 219.092 210.34C216.956 208.586 215.216 206.418 213.971 203.962C208.727 193.638 213.237 180.688 224.044 175.036C226.079 173.969 228.256 173.212 230.497 172.792C239.6 171.097 248.877 175.168 253.107 183.496Z" fill="#994D17"/>
<path d="M251.925 181.17C257.168 191.493 252.659 204.444 241.851 210.096C239.282 211.441 236.492 212.289 233.64 212.592C230.789 212.894 227.932 212.646 225.233 211.86C222.534 211.075 220.046 209.767 217.91 208.013C215.775 206.259 214.035 204.092 212.789 201.636C207.546 191.312 212.056 178.362 222.863 172.71C225.432 171.363 228.222 170.514 231.074 170.21C233.926 169.906 236.784 170.155 239.483 170.94C242.183 171.726 244.671 173.034 246.806 174.789C248.941 176.545 250.68 178.713 251.925 181.17Z" fill="#FFEA80"/>
<path d="M252.474 182.25C257.717 192.574 253.207 205.524 242.4 211.176C239.831 212.521 237.04 213.369 234.189 213.672C231.337 213.975 228.481 213.726 225.782 212.94C223.083 212.155 220.594 210.847 218.459 209.093C216.324 207.339 214.584 205.172 213.338 202.716C208.094 192.392 212.604 179.442 223.412 173.79C225.447 172.724 227.624 171.967 229.865 171.548C238.967 169.851 248.246 173.925 252.474 182.25Z" fill="#FFCF40"/>
<path d="M252.473 182.249C257.717 192.573 253.207 205.523 242.399 211.175C239.108 212.903 235.463 213.805 231.806 213.796L229.864 171.547C238.966 169.85 248.245 173.924 252.473 182.249Z" fill="#F7A831"/>
<path d="M237.801 185.848L225.922 192.061C225.71 192.168 225.467 192.19 225.247 192.123C225.027 192.055 224.847 191.903 224.748 191.701L222.907 188.076C222.669 187.617 222.63 187.075 222.8 186.568C222.97 186.061 223.335 185.631 223.814 185.372L232.864 180.639C233.511 180.303 234.088 179.845 234.562 179.294C235.036 178.743 235.396 178.109 235.621 177.431L235.77 176.991L236.57 176.25L236.037 175.199C236.011 175.133 235.979 175.07 235.941 175.01L235.853 174.838L235.826 174.853C235.774 174.793 235.718 174.737 235.657 174.687C235.456 174.518 235.204 174.415 234.935 174.392C234.665 174.368 234.391 174.425 234.148 174.554L228.179 177.676L227.882 177.092C227.742 176.815 227.545 176.571 227.304 176.373C227.064 176.175 226.783 176.028 226.479 175.939C226.175 175.851 225.852 175.823 225.531 175.857C225.209 175.891 224.895 175.986 224.605 176.138C224.315 176.29 224.056 176.494 223.842 176.74C223.628 176.986 223.464 177.268 223.358 177.571C223.253 177.874 223.208 178.192 223.227 178.505C223.246 178.819 223.329 179.123 223.469 179.4L223.764 179.981L221.641 181.092C218.213 182.884 216.803 187.052 218.495 190.384L220.919 195.157C222.011 197.307 224.701 198.115 226.914 196.958L238.795 190.745C238.9 190.691 239.014 190.658 239.13 190.647C239.246 190.636 239.362 190.647 239.471 190.68C239.581 190.714 239.681 190.768 239.767 190.841C239.853 190.913 239.923 191.002 239.972 191.103L241.823 194.748C242.06 195.201 242.098 195.737 241.931 196.238C241.763 196.738 241.402 197.163 240.928 197.419L231.851 202.166C231.204 202.503 230.627 202.96 230.153 203.511C229.679 204.063 229.319 204.696 229.094 205.375L228.656 206.67C228.56 206.955 228.559 207.257 228.653 207.533C228.693 207.648 228.748 207.756 228.817 207.856L229.35 208.905L229.88 208.416C230.121 208.421 230.362 208.363 230.578 208.249L236.547 205.127L236.842 205.708C237.126 206.267 237.631 206.682 238.246 206.861C238.86 207.04 239.534 206.968 240.119 206.662C240.705 206.356 241.153 205.841 241.366 205.229C241.579 204.617 241.539 203.96 241.255 203.401L240.96 202.819L243.105 201.698C246.52 199.912 247.926 195.758 246.24 192.438L243.805 187.643C242.703 185.496 240.016 184.69 237.801 185.848Z" fill="#592D0D"/>
<path d="M238.729 187.676L226.849 193.888C226.637 193.995 226.394 194.017 226.174 193.949C225.954 193.882 225.775 193.73 225.675 193.528L223.835 189.904C223.597 189.445 223.559 188.903 223.729 188.396C223.899 187.89 224.263 187.46 224.743 187.201L233.792 182.468C234.439 182.132 235.016 181.674 235.49 181.123C235.964 180.572 236.324 179.938 236.549 179.26L236.987 177.963C237.075 177.703 237.083 177.426 237.011 177.168C236.939 176.91 236.79 176.683 236.582 176.514C236.38 176.345 236.129 176.242 235.859 176.219C235.59 176.195 235.316 176.251 235.072 176.381L229.105 179.501L228.81 178.92C228.669 178.643 228.473 178.399 228.232 178.201C227.991 178.003 227.711 177.856 227.407 177.768C227.102 177.679 226.78 177.651 226.459 177.685C226.137 177.719 225.823 177.815 225.533 177.966C225.243 178.118 224.984 178.322 224.77 178.568C224.556 178.814 224.392 179.097 224.286 179.399C224.181 179.702 224.136 180.02 224.155 180.333C224.174 180.647 224.256 180.951 224.397 181.228L224.692 181.809L222.568 182.92C219.141 184.712 217.731 188.88 219.423 192.212L221.848 196.986C222.94 199.137 225.629 199.944 227.842 198.787L239.723 192.574C239.935 192.467 240.177 192.445 240.397 192.513C240.617 192.581 240.796 192.732 240.895 192.935L242.746 196.578C242.983 197.032 243.022 197.568 242.854 198.068C242.686 198.569 242.326 198.994 241.851 199.25L232.779 203.994C232.132 204.331 231.554 204.788 231.081 205.34C230.607 205.891 230.247 206.524 230.022 207.203L229.584 208.499C229.496 208.761 229.488 209.039 229.561 209.297C229.634 209.556 229.785 209.783 229.995 209.951C230.196 210.12 230.448 210.223 230.718 210.247C230.987 210.27 231.261 210.214 231.505 210.084L237.474 206.963L237.769 207.543C238.053 208.102 238.557 208.517 239.172 208.696C239.786 208.875 240.46 208.803 241.046 208.497C241.631 208.191 242.079 207.675 242.292 207.064C242.505 206.452 242.466 205.794 242.182 205.235L241.887 204.655L244.032 203.533C247.446 201.748 248.853 197.593 247.166 194.273L244.729 189.474C243.632 187.325 240.943 186.518 238.729 187.676Z" fill="#FFCF40"/>
<path d="M238.332 186.898L226.452 193.111C226.24 193.218 225.998 193.24 225.778 193.172C225.558 193.104 225.378 192.953 225.279 192.75L223.438 189.127C223.2 188.668 223.162 188.126 223.332 187.619C223.502 187.113 223.867 186.683 224.346 186.423L233.396 181.691C234.043 181.354 234.62 180.897 235.094 180.346C235.567 179.794 235.927 179.161 236.152 178.482L236.59 177.186C236.678 176.925 236.687 176.648 236.615 176.391C236.543 176.133 236.394 175.905 236.186 175.737C235.984 175.568 235.732 175.465 235.463 175.441C235.194 175.418 234.919 175.474 234.675 175.604L228.709 178.724L228.413 178.143C228.273 177.866 228.077 177.622 227.836 177.424C227.595 177.226 227.314 177.079 227.01 176.99C226.706 176.902 226.384 176.874 226.062 176.908C225.741 176.942 225.426 177.037 225.136 177.189C224.847 177.34 224.587 177.545 224.373 177.791C224.159 178.037 223.995 178.319 223.89 178.622C223.784 178.925 223.74 179.242 223.759 179.556C223.778 179.87 223.86 180.174 224 180.451L224.296 181.032L222.172 182.142C218.745 183.935 217.334 188.102 219.026 191.434L221.451 196.207C222.543 198.358 225.232 199.166 227.445 198.009L239.326 191.796C239.538 191.689 239.78 191.667 240 191.735C240.22 191.802 240.399 191.954 240.499 192.157L242.35 195.801C242.586 196.254 242.625 196.79 242.457 197.291C242.29 197.792 241.929 198.217 241.455 198.472L232.382 203.217C231.735 203.553 231.158 204.011 230.684 204.562C230.211 205.113 229.851 205.747 229.626 206.425L229.187 207.722C229.1 207.983 229.091 208.259 229.163 208.517C229.235 208.775 229.385 209.002 229.593 209.171C229.795 209.339 230.047 209.442 230.316 209.466C230.585 209.49 230.86 209.433 231.103 209.304L237.072 206.182L237.367 206.763C237.651 207.322 238.156 207.736 238.77 207.915C239.385 208.094 240.059 208.023 240.644 207.717C241.229 207.411 241.678 206.895 241.891 206.283C242.104 205.672 242.064 205.014 241.78 204.455L241.485 203.875L243.63 202.753C247.045 200.967 248.451 196.812 246.765 193.492L244.33 188.698C243.235 186.548 240.546 185.74 238.332 186.898Z" fill="#994D17"/>
</g>
</g>
<g opacity="0.9" clip-path="url(#clip5_264_527)" filter="url(#filter1_f_264_527)">
<g clip-path="url(#clip6_264_527)">
<path d="M313.783 177.229C310.332 184.135 301.675 186.718 294.445 182.999C292.726 182.115 291.184 180.916 289.91 179.471C288.635 178.026 287.652 176.362 287.016 174.575C286.381 172.789 286.106 170.914 286.207 169.058C286.307 167.202 286.782 165.402 287.604 163.76C291.054 156.854 299.712 154.271 306.941 157.99C308.304 158.689 309.557 159.587 310.655 160.652C315.112 164.982 316.566 171.658 313.783 177.229Z" fill="#994D17"/>
<path d="M314.56 175.672C311.11 182.578 302.452 185.161 295.223 181.442C293.503 180.558 291.962 179.359 290.688 177.914C289.413 176.469 288.43 174.805 287.795 173.018C287.159 171.232 286.884 169.357 286.985 167.501C287.085 165.646 287.56 163.845 288.381 162.203C291.832 155.297 300.489 152.714 307.718 156.434C309.439 157.316 310.981 158.515 312.256 159.96C313.531 161.405 314.515 163.069 315.15 164.856C315.786 166.643 316.061 168.518 315.959 170.374C315.858 172.23 315.383 174.03 314.56 175.672Z" fill="#FFEA80"/>
<path d="M314.199 176.395C310.748 183.301 302.091 185.884 294.861 182.165C293.142 181.281 291.601 180.082 290.326 178.637C289.052 177.191 288.069 175.528 287.433 173.741C286.798 171.954 286.523 170.08 286.623 168.224C286.724 166.368 287.198 164.568 288.02 162.926C291.47 156.02 300.128 153.437 307.357 157.156C308.72 157.856 309.973 158.754 311.071 159.819C315.528 164.148 316.981 170.826 314.199 176.395Z" fill="#FFCF40"/>
<path d="M314.199 176.394C310.748 183.3 302.091 185.884 294.862 182.164C292.656 181.034 290.753 179.387 289.33 177.379L311.071 159.819C315.529 164.147 316.982 170.826 314.199 176.394Z" fill="#F7A831"/>
<path d="M306.554 169.754L298.607 165.665C298.468 165.591 298.361 165.466 298.311 165.319C298.261 165.172 298.272 165.015 298.341 164.881L299.553 162.457C299.704 162.146 299.978 161.914 300.314 161.809C300.65 161.704 301.022 161.736 301.347 161.898L307.4 165.013C307.832 165.236 308.301 165.374 308.78 165.418C309.258 165.463 309.736 165.413 310.185 165.271L310.478 165.181L311.185 165.331L311.536 164.629C311.561 164.588 311.582 164.546 311.6 164.502L311.657 164.387L311.638 164.377C311.65 164.326 311.658 164.273 311.661 164.22C311.672 164.044 311.629 163.866 311.536 163.709C311.443 163.552 311.306 163.424 311.142 163.341L307.149 161.287L307.345 160.896C307.437 160.711 307.49 160.508 307.502 160.299C307.513 160.089 307.482 159.878 307.41 159.676C307.339 159.475 307.228 159.287 307.084 159.124C306.941 158.961 306.767 158.826 306.573 158.727C306.379 158.627 306.169 158.565 305.955 158.543C305.74 158.522 305.525 158.542 305.323 158.603C305.121 158.663 304.934 158.762 304.774 158.895C304.615 159.028 304.485 159.192 304.393 159.377L304.198 159.766L302.778 159.035C300.485 157.856 297.715 158.709 296.601 160.938L295.006 164.131C294.287 165.569 294.906 167.36 296.387 168.121L304.334 172.21C304.404 172.247 304.466 172.296 304.518 172.355C304.569 172.415 304.608 172.483 304.633 172.556C304.658 172.629 304.668 172.705 304.663 172.781C304.658 172.856 304.638 172.929 304.603 172.996L303.385 175.434C303.236 175.74 302.966 175.971 302.634 176.074C302.301 176.178 301.934 176.146 301.613 175.986L295.541 172.862C295.109 172.639 294.64 172.501 294.162 172.456C293.683 172.412 293.205 172.462 292.756 172.603L291.895 172.868C291.706 172.927 291.544 173.044 291.434 173.204C291.389 173.27 291.353 173.343 291.326 173.42L290.976 174.122L291.443 174.221C291.534 174.355 291.659 174.465 291.805 174.539L295.798 176.593L295.603 176.982C295.417 177.356 295.393 177.794 295.537 178.201C295.682 178.608 295.983 178.95 296.375 179.151C296.766 179.353 297.216 179.397 297.625 179.275C298.034 179.153 298.369 178.875 298.555 178.501L298.75 178.112L300.184 178.85C302.469 180.025 305.23 179.174 306.34 176.954L307.942 173.746C308.656 172.304 308.035 170.516 306.554 169.754Z" fill="#592D0D"/>
<path d="M305.943 170.976L297.996 166.887C297.857 166.813 297.75 166.688 297.7 166.541C297.651 166.394 297.661 166.237 297.73 166.103L298.941 163.679C299.093 163.369 299.367 163.137 299.703 163.032C300.039 162.928 300.41 162.96 300.735 163.121L306.789 166.236C307.221 166.459 307.69 166.597 308.168 166.642C308.647 166.686 309.125 166.636 309.574 166.495L310.435 166.229C310.608 166.175 310.759 166.072 310.868 165.932C310.978 165.791 311.04 165.621 311.049 165.441C311.06 165.264 311.017 165.086 310.924 164.929C310.832 164.772 310.694 164.644 310.53 164.561L306.539 162.507L306.733 162.119C306.826 161.933 306.879 161.73 306.89 161.521C306.902 161.312 306.871 161.101 306.799 160.899C306.727 160.698 306.617 160.51 306.473 160.347C306.329 160.184 306.156 160.049 305.962 159.949C305.768 159.849 305.558 159.787 305.343 159.766C305.129 159.745 304.914 159.765 304.712 159.825C304.509 159.886 304.323 159.985 304.163 160.118C304.004 160.251 303.874 160.415 303.781 160.6L303.587 160.989L302.166 160.258C299.874 159.078 297.104 159.932 295.99 162.161L294.394 165.354C293.675 166.793 294.295 168.583 295.775 169.345L303.723 173.433C303.862 173.508 303.969 173.632 304.018 173.779C304.068 173.926 304.057 174.084 303.988 174.217L302.77 176.655C302.621 176.961 302.351 177.192 302.019 177.295C301.687 177.399 301.32 177.367 300.999 177.207L294.93 174.085C294.498 173.861 294.029 173.723 293.55 173.679C293.072 173.634 292.594 173.684 292.145 173.826L291.283 174.092C291.109 174.146 290.958 174.25 290.849 174.391C290.74 174.532 290.678 174.703 290.67 174.884C290.659 175.06 290.703 175.239 290.795 175.395C290.888 175.552 291.025 175.681 291.189 175.764L295.182 177.818L294.988 178.206C294.801 178.58 294.777 179.019 294.922 179.426C295.067 179.833 295.368 180.174 295.759 180.376C296.151 180.577 296.601 180.622 297.009 180.5C297.418 180.378 297.753 180.099 297.94 179.725L298.134 179.337L299.569 180.075C301.853 181.25 304.615 180.399 305.724 178.178L307.328 174.968C308.044 173.527 307.424 171.738 305.943 170.976Z" fill="#FFCF40"/>
<path d="M306.203 170.456L298.256 166.368C298.117 166.293 298.01 166.169 297.96 166.022C297.91 165.875 297.921 165.717 297.99 165.584L299.201 163.16C299.353 162.85 299.626 162.617 299.963 162.513C300.299 162.408 300.67 162.44 300.995 162.602L307.049 165.716C307.48 165.94 307.949 166.078 308.428 166.122C308.906 166.167 309.384 166.117 309.834 165.975L310.695 165.709C310.868 165.656 311.019 165.552 311.128 165.412C311.237 165.272 311.3 165.101 311.309 164.921C311.32 164.745 311.276 164.567 311.184 164.41C311.091 164.253 310.954 164.124 310.79 164.041L306.799 161.988L306.993 161.599C307.085 161.414 307.139 161.211 307.15 161.002C307.162 160.792 307.13 160.581 307.059 160.38C306.987 160.178 306.876 159.991 306.733 159.828C306.589 159.665 306.415 159.529 306.221 159.43C306.028 159.33 305.818 159.268 305.603 159.246C305.389 159.225 305.174 159.245 304.971 159.306C304.769 159.366 304.583 159.466 304.423 159.599C304.263 159.731 304.133 159.895 304.041 160.08L303.847 160.469L302.426 159.738C300.133 158.559 297.363 159.413 296.25 161.641L294.654 164.834C293.935 166.273 294.555 168.063 296.035 168.824L303.983 172.913C304.122 172.988 304.229 173.112 304.279 173.259C304.328 173.406 304.318 173.564 304.248 173.697L303.03 176.135C302.881 176.442 302.611 176.672 302.279 176.776C301.947 176.879 301.58 176.848 301.258 176.687L295.189 173.565C294.758 173.342 294.289 173.204 293.81 173.159C293.332 173.115 292.854 173.165 292.404 173.306L291.543 173.572C291.37 173.626 291.219 173.729 291.11 173.869C291.001 174.01 290.938 174.18 290.93 174.36C290.919 174.537 290.962 174.715 291.055 174.872C291.147 175.029 291.284 175.157 291.449 175.24L295.441 177.294L295.247 177.683C295.06 178.057 295.037 178.495 295.181 178.902C295.326 179.309 295.627 179.651 296.019 179.852C296.41 180.053 296.86 180.098 297.269 179.976C297.678 179.854 298.012 179.575 298.199 179.201L298.393 178.813L299.828 179.551C302.112 180.727 304.874 179.875 305.984 177.654L307.586 174.448C308.304 173.008 307.684 171.218 306.203 170.456Z" fill="#994D17"/>
</g>
</g>
</g>
<defs>
<filter id="filter0_f_264_527" x="197" y="156.135" width="71.8945" height="72.8652" filterUnits="userSpaceOnUse" color-interpolation-filters="sRGB">
<feFlood flood-opacity="0" result="BackgroundImageFix"/>
<feBlend mode="normal" in="SourceGraphic" in2="BackgroundImageFix" result="shape"/>
<feGaussianBlur stdDeviation="1.5" result="effect1_foregroundBlur_264_527"/>
</filter>
<filter id="filter1_f_264_527" x="276.164" y="144.475" width="49.8359" height="50.4805" filterUnits="userSpaceOnUse" color-interpolation-filters="sRGB">
<feFlood flood-opacity="0" result="BackgroundImageFix"/>
<feBlend mode="normal" in="SourceGraphic" in2="BackgroundImageFix" result="shape"/>
<feGaussianBlur stdDeviation="1.5" result="effect1_foregroundBlur_264_527"/>
</filter>
<radialGradient id="paint0_radial_264_527" cx="0" cy="0" r="1" gradientUnits="userSpaceOnUse" gradientTransform="translate(135.231 -28.84) rotate(52.7441) scale(384.548 717.66)">
<stop stop-color="#D5A359"/>
<stop offset="1" stop-color="#F7F8B8"/>
</radialGradient>
<radialGradient id="paint1_radial_264_527" cx="0" cy="0" r="1" gradientUnits="userSpaceOnUse" gradientTransform="translate(133.613 -48) rotate(52.6642) scale(403.097 752.855)">
<stop stop-color="#D5A359"/>
<stop offset="1" stop-color="#F7F8B8"/>
</radialGradient>
<clipPath id="clip0_264_527">
<rect width="335" height="200" rx="20" fill="white"/>
</clipPath>
<clipPath id="clip1_264_527">
<rect width="81.6208" height="82.6453" fill="white" transform="matrix(0.961748 0.273935 -0.266616 0.963803 223.512 56)"/>
</clipPath>
<clipPath id="clip2_264_527">
<rect width="73.4588" height="74.3808" fill="white" transform="matrix(0.961748 0.273935 -0.266616 0.963803 226.334 61.1016)"/>
</clipPath>
<clipPath id="clip3_264_527">
<rect width="49.0715" height="49.4892" fill="white" transform="matrix(0.886141 -0.463416 0.452842 0.891591 200 181.875)"/>
</clipPath>
<clipPath id="clip4_264_527">
<rect width="44.1644" height="44.5403" fill="white" transform="matrix(0.886141 -0.463416 0.452842 0.891591 203.295 182.943)"/>
</clipPath>
<clipPath id="clip5_264_527">
<rect width="32.7118" height="32.9954" fill="white" transform="matrix(0.889218 0.457483 -0.446974 0.894547 293.912 147.475)"/>
</clipPath>
<clipPath id="clip6_264_527">
<rect width="29.4406" height="29.6958" fill="white" transform="matrix(0.889218 0.457483 -0.446974 0.894547 294.629 149.699)"/>
</clipPath>
</defs>
</svg>
