<svg xmlns="http://www.w3.org/2000/svg" xmlns:xlink="http://www.w3.org/1999/xlink" viewBox="0 0 274.12 300"><defs><style>.cls-1{isolation:isolate;}.cls-2{fill:#009995;}.cls-3{fill:#1818fc;}.cls-4{fill:url(#Безымянный_градиент_38);}.cls-5{fill:url(#Безымянный_градиент_22);}.cls-6{fill:url(#Безымянный_градиент_21);}.cls-7{fill:url(#Безымянный_градиент_98);}.cls-8{fill:url(#Безымянный_градиент_21-2);}.cls-9{fill:url(#Безымянный_градиент_22-2);}.cls-10{fill:url(#Безымянный_градиент_94);}.cls-11{fill:url(#Безымянный_градиент_28);}.cls-12{fill:#d9fffe;}.cls-13{fill:#f2fffe;}.cls-14{fill:#ffccf6;}.cls-15,.cls-16{fill:#fff;}.cls-16{opacity:0.4;}.cls-17,.cls-18,.cls-19{mix-blend-mode:screen;}.cls-17{fill:url(#Безымянный_градиент_47);}.cls-18{fill:url(#Безымянный_градиент_47-2);}.cls-19{fill:url(#Безымянный_градиент_47-3);}.cls-20{fill:#1591b8;}.cls-21{fill:#1bb8e3;opacity:0.6;mix-blend-mode:multiply;}</style><linearGradient id="Безымянный_градиент_38" x1="84.92" y1="56.76" x2="100.56" y2="85.1" gradientUnits="userSpaceOnUse"><stop offset="0" stop-color="#4de1ff"/><stop offset="1" stop-color="#00fffb"/></linearGradient><linearGradient id="Безымянный_градиент_22" x1="137.94" y1="68.52" x2="241.03" y2="68.52" gradientUnits="userSpaceOnUse"><stop offset="0" stop-color="#4de1ff"/><stop offset="1" stop-color="#178fe6"/></linearGradient><linearGradient id="Безымянный_градиент_21" x1="235.81" y1="199.31" x2="223.43" y2="104.85" gradientUnits="userSpaceOnUse"><stop offset="0" stop-color="#0e85cf"/><stop offset="1" stop-color="#ac51fc"/></linearGradient><linearGradient id="Безымянный_градиент_98" x1="174.9" y1="205.95" x2="199.65" y2="258.72" gradientUnits="userSpaceOnUse"><stop offset="0" stop-color="#02feb0"/><stop offset="1" stop-color="#495df5"/></linearGradient><linearGradient id="Безымянный_градиент_21-2" x1="26.22" y1="232.98" x2="137.94" y2="232.98" xlink:href="#Безымянный_градиент_21"/><linearGradient id="Безымянный_градиент_22-2" x1="45.25" y1="86.24" x2="45.25" y2="210.94" xlink:href="#Безымянный_градиент_22"/><linearGradient id="Безымянный_градиент_94" x1="94.26" y1="99.76" x2="182.86" y2="195.2" gradientUnits="userSpaceOnUse"><stop offset="0" stop-color="#4de1ff"/><stop offset="0.52" stop-color="#36eae6"/><stop offset="1" stop-color="#00ffae"/></linearGradient><linearGradient id="Безымянный_градиент_28" x1="204.28" y1="261.41" x2="68.12" y2="28.83" gradientUnits="userSpaceOnUse"><stop offset="0" stop-color="#02feb0"/><stop offset="1" stop-color="#38d7ff"/></linearGradient><radialGradient id="Безымянный_градиент_47" cx="431.81" cy="-238.54" r="33.38" gradientTransform="matrix(0, 0.69, -0.98, 0, -164.76, -190.35)" gradientUnits="userSpaceOnUse"><stop offset="0" stop-color="#fffffb"/><stop offset="1" stop-color="#4de1ff" stop-opacity="0"/></radialGradient><radialGradient id="Безымянный_градиент_47-2" cx="162.19" cy="874.98" r="33.38" gradientTransform="translate(26.19 -788.72) scale(0.69 0.98)" xlink:href="#Безымянный_градиент_47"/><radialGradient id="Безымянный_градиент_47-3" cx="590.35" cy="699.57" r="33.38" gradientTransform="translate(-198.37 -497.31) scale(0.69 0.98)" xlink:href="#Безымянный_градиент_47"/></defs><title>Diamond_icon</title><g class="cls-1"><g id="Слой_2" data-name="Слой 2"><g id="Complete"><g id="Diamond_icon"><path class="cls-2" d="M236.38,52.5,174.81,17a75.51,75.51,0,0,0-75.49,0L37.74,52.5A75.74,75.74,0,0,0,0,117.88V189a75.74,75.74,0,0,0,37.74,65.38L99.32,289.9a75.58,75.58,0,0,0,75.49,0l61.57-35.55A75.72,75.72,0,0,0,274.12,189V117.88A75.72,75.72,0,0,0,236.38,52.5ZM252,189a53.37,53.37,0,0,1-26.68,46.21l-61.58,35.55a53.29,53.29,0,0,1-53.36,0L48.81,235.18A53.35,53.35,0,0,1,22.13,189V117.88A53.35,53.35,0,0,1,48.81,71.67l61.57-35.55a53.29,53.29,0,0,1,53.36,0l61.58,35.55A53.37,53.37,0,0,1,252,117.88Z"/><path class="cls-2" d="M252,111v71.09a53.37,53.37,0,0,1-26.68,46.21l-61.58,35.55a53.29,53.29,0,0,1-53.36,0L48.81,228.34a53.35,53.35,0,0,1-26.68-46.21V111A53.35,53.35,0,0,1,48.81,64.83l61.57-35.55a53.29,53.29,0,0,1,53.36,0l61.58,35.55A53.37,53.37,0,0,1,252,111Z"/><path class="cls-3" d="M252,119.36v71.1a53.38,53.38,0,0,1-26.68,46.21l-61.58,35.55a53.35,53.35,0,0,1-53.36,0L48.81,236.67a53.36,53.36,0,0,1-26.68-46.21v-71.1A53.36,53.36,0,0,1,48.81,73.15L110.38,37.6a53.35,53.35,0,0,1,53.36,0l61.58,35.55A53.38,53.38,0,0,1,252,119.36Z"/><path class="cls-4" d="M137.94,30.45V66.51l-.34-.2-9,5.19-.05,0-60.2,34.75-34.72-20c.29-.38.6-.76.91-1.14a53.72,53.72,0,0,1,14.24-12L81.58,54.21l5.29-3.05.15-.08,16-9.24,7.37-4.26a54,54,0,0,1,8.24-3.86l1.27-.45a53.75,53.75,0,0,1,17.17-2.84C137.35,30.43,137.65,30.43,137.94,30.45Z"/><path class="cls-5" d="M207,106.58v-.2L137.94,66.51V30.45a53.27,53.27,0,0,1,25.8,7.13l1.46.84L177,45.21,189.4,52.4l1.51.87h0L197.35,57l28,16.15A53.57,53.57,0,0,1,241,86.93Z"/><path class="cls-6" d="M252,119.35v71.09a53.33,53.33,0,0,1-3.76,19.68L207,186.31V106.58l34-19.65A53.44,53.44,0,0,1,252,119.35Z"/><path class="cls-7" d="M248.23,210.12a53.36,53.36,0,0,1-22.92,26.53L220,239.71l-9.69,5.59-16.48,9.51-1.17.68-15,8.64-5.29,3.06-8.69,5a53.08,53.08,0,0,1-24.12,7.08h0l-1.67.05V226.38L207,186.51v-.2Z"/><path class="cls-8" d="M137.94,226.38v52.95c-.29,0-.59,0-.89,0a53.57,53.57,0,0,1-26.68-7.15L83.63,256.76,48.8,236.65a53.31,53.31,0,0,1-22.58-25.71l42.15-24.33,69.23,40Z"/><path class="cls-9" d="M68.21,186.51l.16.1L26.22,210.94a53.31,53.31,0,0,1-4.1-20.5V119.35a51.48,51.48,0,0,1,.35-6A53.18,53.18,0,0,1,33.65,86.24l34.72,20-.16.1Z"/><polygon class="cls-10" points="206.99 106.38 206.99 186.51 137.94 226.38 137.6 226.57 68.38 186.61 68.21 186.51 68.21 106.38 68.38 106.28 137.6 66.31 137.94 66.51 206.99 106.38"/><path class="cls-11" d="M236.37,45.66,211.68,31.41l-22.59-13h0L174.8,10.11a75.32,75.32,0,0,0-18.91-7.72A76.09,76.09,0,0,0,137.6,0h-.55a75.39,75.39,0,0,0-30.8,6.59,71.72,71.72,0,0,0-6.94,3.52L92.55,14l-.08.05L82,20.14l-1.18.68L74,24.72,68.34,28,46,40.91l-8.24,4.75-1.66,1c-.93.57-1.84,1.15-2.74,1.77A75.78,75.78,0,0,0,.56,102a.65.65,0,0,0,0,.11A73.41,73.41,0,0,0,0,111v71.09a75.71,75.71,0,0,0,37.31,65.12l.43.25,10.61,6.13,18.47,10.66,15.25,8.8L92.22,279l1.62.94,5.47,3.16a75.62,75.62,0,0,0,35.74,10.07h.4l1.6,0h1.15a75.58,75.58,0,0,0,32-7.66q2.33-1.12,4.58-2.43l5.27-3,11.73-6.79,19.27-11.12,6.75-3.9,7.48-4.31,4.22-2.44,6.84-4h0a75.58,75.58,0,0,0,37.74-65.37V111A75.72,75.72,0,0,0,236.37,45.66ZM252,182.13a53.42,53.42,0,0,1-26.68,46.21l-6.85,4-11.7,6.75L200,243l-36.26,20.94q-2.27,1.31-4.62,2.38a53.31,53.31,0,0,1-48.75-2.38L70.08,240.64,48.8,228.34q-2.25-1.31-4.35-2.8A53.35,53.35,0,0,1,22.38,187.3c-.17-1.7-.26-3.43-.26-5.17V111A53.36,53.36,0,0,1,44.44,67.65c.74-.54,1.49-1,2.25-1.53s1.4-.88,2.11-1.29L85.07,43.88,91.83,40l.71-.41,10.6-6.12.39-.23,6.84-3.94a53.16,53.16,0,0,1,41.16-5.14,52.1,52.1,0,0,1,12.21,5.14l11.51,6.64,34.16,19.73,15.9,9.18a53.36,53.36,0,0,1,26.3,39.78h0A54.64,54.64,0,0,1,252,111Z"/><path class="cls-12" d="M74,24.72,85.07,43.88,48.8,64.83c-.71.41-1.42.84-2.11,1.29s-1.51,1-2.25,1.53L33.34,48.42c.9-.62,1.81-1.2,2.74-1.77l1.66-1Z"/><path class="cls-12" d="M211.07,262.11,191.8,273.23,180.07,280l-5.27,3q-2.25,1.31-4.58,2.43l-11.1-19.22q2.35-1.08,4.62-2.38L200,243Z"/><polygon class="cls-13" points="92.47 14.07 103.53 33.23 103.14 33.45 92.54 39.57 91.83 39.98 80.77 20.82 81.95 20.14 92.47 14.07"/><polygon class="cls-13" points="229.52 251.46 225.3 253.9 217.82 258.21 206.76 239.05 218.46 232.3 229.52 251.46"/><path class="cls-14" d="M155.89,2.39l19.36,33.53-11.51-6.64a52.1,52.1,0,0,0-12.21-5.14L137.6,0A76.09,76.09,0,0,1,155.89,2.39Z"/><path class="cls-14" d="M271.34,202.35a75.67,75.67,0,0,1-7.09,17l-13.91-24.1A53.16,53.16,0,0,0,252,182.13V168.84Z"/><path class="cls-12" d="M22.12,182.13c0,1.74.09,3.47.26,5.17L0,148.54v-29.3l22.12,38.31Z"/><path class="cls-12" d="M92.22,279l-10.15-5.87-15.25-8.8L44.45,225.54q2.1,1.5,4.35,2.8l21.28,12.3Z"/><path class="cls-15" d="M180.92,91.33,139,65.45c0-2-.09-3.94-.13-5.92-.05-2.26-.17-4.52-.26-6.78s-.23-4.52-.41-6.78-.35-4.51-.6-6.77c-.25,2.26-.45,4.51-.6,6.77s-.28,4.52-.41,6.78-.21,4.52-.26,6.78c0,2-.11,4-.13,6-2.66,1.51-5.32,3-7.95,4.57-2.87,1.67-5.7,3.4-8.53,5.14-5.64,3.52-11.24,7.1-16.63,11,6.11-2.7,12-5.76,17.88-8.88,2.92-1.58,5.84-3.17,8.72-4.82,2.65-1.48,5.27-3,7.89-4.57Z"/><path class="cls-15" d="M95.17,91.12l-27.11,14c-1.73-1-3.48-1.9-5.21-2.86-2-1.09-4-2.11-6-3.17s-4-2.06-6.08-3-4.09-2-6.17-2.87q2.74,2,5.57,3.91c1.87,1.29,3.78,2.5,5.67,3.75s3.81,2.44,5.74,3.61c1.7,1,3.38,2.07,5.09,3.09,0,3-.07,6.11,0,9.16,0,3.32.09,6.64.18,10,.23,6.65.53,13.29,1.26,19.93.72-6.64,1-13.28,1.25-19.93.09-3.32.18-6.64.18-10,0-3,0-6.09,0-9.13Z"/><path class="cls-15" d="M86.2,195.61c-2.83-1.73-5.67-3.47-8.54-5.13-2.61-1.56-5.27-3.06-7.92-4.56l-1.42-30.46L66.89,186c-1.7,1-3.39,2.06-5.08,3.08-1.93,1.17-3.83,2.41-5.74,3.61s-3.8,2.46-5.67,3.75-3.74,2.56-5.57,3.91c2.08-.92,4.14-1.87,6.17-2.87s4.06-2,6.08-3,4-2.08,6-3.17c1.74-1,3.49-1.89,5.22-2.86,2.63,1.55,5.26,3.11,7.93,4.59,2.87,1.66,5.79,3.24,8.71,4.83,5.87,3.12,11.77,6.18,17.89,8.87C97.44,202.72,91.84,199.14,86.2,195.61Z"/><path class="cls-15" d="M234.93,202.44l-26.54-16.9c0-2-.09-3.95-.13-5.93,0-2.26-.17-4.52-.26-6.78s-.23-4.52-.41-6.78-.35-4.52-.6-6.78q-.37,3.39-.6,6.78c-.18,2.26-.28,4.52-.41,6.78s-.21,4.52-.26,6.78c0,2-.11,4-.13,5.95-2.66,1.5-5.32,3-8,4.57-2.87,1.66-5.7,3.4-8.53,5.13-5.64,3.53-11.24,7.11-16.63,11.05,6.11-2.69,12-5.75,17.88-8.87,2.92-1.59,5.84-3.17,8.72-4.83,2.66-1.48,5.28-3,7.9-4.58Z"/><path class="cls-16" d="M165.05,161.11l-26.54-16.89c0-2-.09-4-.13-5.94,0-2.26-.17-4.52-.26-6.78s-.23-4.52-.41-6.78-.35-4.52-.6-6.78q-.37,3.39-.6,6.78c-.18,2.26-.28,4.52-.41,6.78s-.21,4.52-.26,6.78c0,2-.11,4-.13,5.95-2.66,1.5-5.32,3-8,4.57-2.87,1.66-5.7,3.4-8.53,5.13C113.59,157.46,108,161,102.6,165c6.11-2.7,12-5.76,17.88-8.88,2.92-1.59,5.84-3.17,8.72-4.83,2.66-1.48,5.28-3,7.9-4.58Z"/><path class="cls-15" d="M218,47.18l8.19,4.14c1.37.69,2.72,1.35,4.08,2.14s2.76,1.47,4,2.37A67.19,67.19,0,0,1,248.57,68a67.83,67.83,0,0,1,17.17,42.83c0,1.56.1,3.16.05,4.67l-.11,4.58q-.15,6.09-.34,12.16a1.19,1.19,0,0,1-2.38,0q-.19-6.08-.34-12.16c-.07-3-.12-6.13-.3-9.07a66,66,0,0,0-1.19-8.85,70,70,0,0,0-15.34-31.74,70.31,70.31,0,0,0-13.18-12c-2.44-1.73-5-3.24-7.66-4.81l-7.88-4.69C211.84,45.68,212.5,44.48,218,47.18Z"/><path class="cls-15" d="M9.53,182.26a1.18,1.18,0,0,1,2.35.16v.1a63.52,63.52,0,0,0,4,19.8,66.91,66.91,0,0,0,4.3,9.05,68.1,68.1,0,0,0,5.72,8.21,70.41,70.41,0,0,0,7,7.22c2.66,2.35,5.3,4.72,7.89,7.15a1.19,1.19,0,0,1-1.46,1.86c-3-1.94-5.9-3.95-8.81-6a54.43,54.43,0,0,1-8.14-7.2,55.77,55.77,0,0,1-6.46-8.8,57.06,57.06,0,0,1-4.44-10,54.82,54.82,0,0,1-2.2-10.64,53.26,53.26,0,0,1,.18-10.79Z"/><ellipse class="cls-17" cx="68.34" cy="106.26" rx="32.62" ry="22.93" transform="translate(-53.97 137.92) rotate(-71.77)"/><ellipse class="cls-18" cx="137.6" cy="66.31" rx="22.93" ry="32.62" transform="translate(-4.48 122.38) rotate(-47.26)"/><ellipse class="cls-19" cx="207.13" cy="186.31" rx="22.93" ry="32.62" transform="translate(-65.41 128.53) rotate(-30)"/><polygon class="cls-20" points="151.72 97.58 151.72 197.45 148.43 197.45 148.43 101.53 125.44 101.53 125.44 97.58 151.72 97.58"/><rect class="cls-21" x="125.44" y="101.53" width="23" height="95.93"/></g></g></g></g></svg>