<svg xmlns="http://www.w3.org/2000/svg" viewBox="0 0 292.21 340"><defs><style>.cls-1{fill:#f24956;}.cls-2{fill:#991e28;}.cls-3{fill:#b3671b;}.cls-4{fill:#ff6672;}.cls-5{fill:#ffcf40;}.cls-6{fill:#ffec73;}.cls-7{fill:#bf2626;}.cls-8{fill:#fac64b;}.cls-9{fill:#995817;}.cls-10{fill:#30f2b5;}.cls-11{fill:#13bf89;}.cls-12{fill:#4dffa6;}.cls-13{fill:#e6fff3;}</style></defs><title>Epic_icon</title><g id="Слой_2" data-name="Слой 2"><g id="Complete"><g id="Epic_icon"><path class="cls-1" d="M80.5,198.44V336.92a3,3,0,0,1-5.1,2.16l-9.51-9.89a29.41,29.41,0,0,1-8.11-20.35V198.44Z"/><path class="cls-1" d="M49.83,166.07V304.55a3,3,0,0,1-5.1,2.16l-9.51-9.88a29.44,29.44,0,0,1-8.11-20.36V166.07Z"/><path class="cls-1" d="M267.05,166.07v110.4a29.44,29.44,0,0,1-8.11,20.36l-9.51,9.88a3,3,0,0,1-5.1-2.16V166.07Z"/><path class="cls-1" d="M236.38,198.44v110.4a29.38,29.38,0,0,1-8.12,20.35l-9.5,9.89a3,3,0,0,1-5.11-2.16V198.44Z"/><path class="cls-1" d="M202.24,155.84v177.8a6.35,6.35,0,0,1-8.37,6l-36.65-12.24a34.35,34.35,0,0,0-22.19.12l-34.65,12a6.36,6.36,0,0,1-8.43-6V155.84Z"/><path class="cls-2" d="M232.2,253.63a122.49,122.49,0,0,1-18.55,15.24v28.25a145.28,145.28,0,0,0,22.73-14.71V249.23Q234.34,251.48,232.2,253.63ZM60,253.63c-.76-.76-1.5-1.52-2.23-2.3v32.6A145.55,145.55,0,0,0,80.5,298.11v-28A122.4,122.4,0,0,1,60,253.63Zm-32.9-1.31a146.12,146.12,0,0,0,22.72,25.11V242.1a120.37,120.37,0,0,1-22.72-48.64Zm119,37A121.2,121.2,0,0,1,92,276.64v26.62a146.49,146.49,0,0,0,110.29-.8V275.63A121,121,0,0,1,146.11,289.29Zm98.22-49.78V275.7a147.09,147.09,0,0,0,22.72-26.18V181.66A120.27,120.27,0,0,1,244.33,239.51Z"/><path class="cls-3" d="M146.1,34.09A121.75,121.75,0,1,1,60,69.75,121,121,0,0,1,146.1,34.09m0-24.35a146.11,146.11,0,1,0,146.11,146.1A146.1,146.1,0,0,0,146.1,9.74Z"/><path class="cls-2" d="M267.86,146.1a121.74,121.74,0,1,1-29.45-79.4A121.76,121.76,0,0,1,267.86,146.1Z"/><circle class="cls-1" cx="146.1" cy="136.36" r="121.75"/><path class="cls-4" d="M238.41,66.7,26.52,123.11A121.78,121.78,0,0,1,238.41,66.7Z"/><path class="cls-5" d="M149.41,0c-1.1,0-2.2,0-3.31,0a146.88,146.88,0,0,0-27.69,2.62A144.9,144.9,0,0,0,95.53,9a146.2,146.2,0,1,0,53.88-9ZM245.6,216.33a122.4,122.4,0,0,1-13.4,15.87q-4,4-8.3,7.57a119.55,119.55,0,0,1-19.75,13.42A121.8,121.8,0,1,1,105.44,31.28a119.13,119.13,0,0,1,23.2-5.68,121.79,121.79,0,0,1,117,190.73Z"/><path class="cls-6" d="M95.53,9l9.91,22.29A122.42,122.42,0,0,0,34.2,98L21.59,69.64A146.55,146.55,0,0,1,95.53,9Z"/><path class="cls-6" d="M214.05,275.48a146.64,146.64,0,0,1-94.55,14.31l-12.61-28.36a122.42,122.42,0,0,0,97.26-8.24Z"/><path class="cls-6" d="M149.41,0,160.6,25.2a123.26,123.26,0,0,0-32,.4l-10.23-23A146.88,146.88,0,0,1,146.1,0C147.21,0,148.31,0,149.41,0Z"/><path class="cls-6" d="M256.79,241.47a146.38,146.38,0,0,1-22.68,21.26l-10.21-23q4.29-3.57,8.3-7.57a122.4,122.4,0,0,0,13.4-15.87Z"/><path class="cls-2" d="M234,132.87v8.28l-7,0-17.73,15a4.55,4.55,0,0,0-1.13,1.39,4.92,4.92,0,0,0-.61,2.82l.47,5.73h0l2,24.27a5,5,0,0,1-.47,2.56,5.32,5.32,0,0,1-1.27,1.66,4.93,4.93,0,0,1-3.63,1.16l-30-2.46a5,5,0,0,0-2.3.36,4.84,4.84,0,0,0-1.92,1.38l-19.47,23a5,5,0,0,1-7.62,0L123.8,195a5,5,0,0,0-4.22-1.74l-30,2.46a4.94,4.94,0,0,1-4-1.52,5.28,5.28,0,0,1-.91-1.29,4.91,4.91,0,0,1-.46-2.57l2-24.29.47-5.72a5.08,5.08,0,0,0-1.74-4.21L66.4,140.45l-6.16,0h-.05v-7.56A5,5,0,0,1,62,129.06l23-19.47a5,5,0,0,0,1.27-1.66,3.53,3.53,0,0,0,.27-.73,4.89,4.89,0,0,0,.2-1.83l-2-24.28-.46-5.73a4.92,4.92,0,0,1,1-3.46h0A5,5,0,0,1,89.57,70l30,2.47a5.11,5.11,0,0,0,2.3-.36,4.84,4.84,0,0,0,1.92-1.39l19.47-23a5,5,0,0,1,7.62,0l19.47,23a5,5,0,0,0,4.22,1.75l30-2.47A5,5,0,0,1,209,72.05a4.89,4.89,0,0,1,.92,3.31l-.47,5.74-2,24.27a5.07,5.07,0,0,0,.47,2.56,5.73,5.73,0,0,0,.51.86,6.37,6.37,0,0,0,.76.8l23,19.47A5,5,0,0,1,234,132.87Z"/><path class="cls-7" d="M60.19,141.15v2.45a7.48,7.48,0,0,0,2.21,5.31l17,16.87a5.69,5.69,0,0,1,1.69,4.34l-1.55,32a5.17,5.17,0,0,0,1.67,4.08h0a5.28,5.28,0,0,0,3.88,1.39l33.16-1.84a5.83,5.83,0,0,1,4.63,1.89l20,22a6.72,6.72,0,0,0,5,2.21h0a6.71,6.71,0,0,0,5-2.24l20.2-22.48a5.78,5.78,0,0,1,4.64-1.91l29.92,1.65a6.32,6.32,0,0,0,4.58-1.62h0a6.18,6.18,0,0,0,2.05-5l-1.84-29.29a5.74,5.74,0,0,1,1.91-4.64l18-17.27a4.84,4.84,0,0,0,1.62-3.61v-4.25Z"/><path class="cls-8" d="M234,141.15a5,5,0,0,1-1.76,3.81l-23,19.47a4.55,4.55,0,0,0-1.13,1.39,2.29,2.29,0,0,0-.14.27h0a5,5,0,0,0-.47,2.54l2,24.29.47,5.72a5,5,0,0,1-1.74,4.22,4.93,4.93,0,0,1-3.63,1.16l-30-2.46a5,5,0,0,0-2.3.36,4.84,4.84,0,0,0-1.92,1.38l-19.47,23a5,5,0,0,1-7.62,0l-19.47-23a5,5,0,0,0-4.22-1.74l-30,2.46a4.94,4.94,0,0,1-4-1.52,4.88,4.88,0,0,1-1.37-3.86l.46-5.71,2-24.3a4.87,4.87,0,0,0-.21-1.86,3.7,3.7,0,0,0-.26-.7,4.87,4.87,0,0,0-1.27-1.65L62,145a5,5,0,0,1-1.76-3.81,4.21,4.21,0,0,1,.05-.72A5,5,0,0,1,62,137.34l23-19.47a5.1,5.1,0,0,0,1.74-4.22l-.47-5.72a3.53,3.53,0,0,0,.27-.73,4.89,4.89,0,0,0,.2-1.83l-2-24.28a4.79,4.79,0,0,1,.57-.91h0a5,5,0,0,1,4.34-1.91l30,2.47a5.11,5.11,0,0,0,2.3-.36A4.84,4.84,0,0,0,123.8,79l19.47-23a5,5,0,0,1,7.62,0l19.47,23a5,5,0,0,0,4.22,1.75l30-2.47A5,5,0,0,1,209,80.33a4.56,4.56,0,0,1,.45.77l-2,24.27a5.07,5.07,0,0,0,.47,2.56l-.47,5.72a5.07,5.07,0,0,0,1,3.42,6.37,6.37,0,0,0,.76.8l23,19.47A5,5,0,0,1,234,141.15Z"/><path class="cls-6" d="M209,80.33l-62,60.82V54.25A5,5,0,0,1,150.89,56l19.47,23a5,5,0,0,0,4.22,1.75l30-2.47A5,5,0,0,1,209,80.33Z"/><path class="cls-6" d="M234,141.15H147.08l61.4-24.08a6.37,6.37,0,0,0,.76.8l23,19.47A5,5,0,0,1,234,141.15Z"/><path class="cls-6" d="M208.22,202.87h0l-61.12-61.72,61,24.67a4.92,4.92,0,0,0-.61,2.82l2.46,30A5,5,0,0,1,208.22,202.87Z"/><path class="cls-6" d="M172.28,201.93a4.84,4.84,0,0,0-1.92,1.38l-19.47,23a5,5,0,0,1-3.81,1.76V141.15Z"/><path class="cls-6" d="M147.08,141.15,85.57,202.51a4.88,4.88,0,0,1-1.37-3.86l2.46-30a4.87,4.87,0,0,0-.21-1.86Z"/><path class="cls-6" d="M147.08,141.15H60.19A5,5,0,0,1,62,137.34l23-19.47a4.89,4.89,0,0,0,1.54-2.39Z"/><path class="cls-6" d="M147.08,141.15l-61.85-61h0a5,5,0,0,1,4.34-1.91l30,2.47a5.11,5.11,0,0,0,2.3-.36Z"/><path class="cls-9" d="M147.08,107.75a7.08,7.08,0,0,1,5,2.08l25.32,25.32a7.09,7.09,0,0,1,0,10L152.1,170.51a7.07,7.07,0,0,1-10,0L116.74,145.2a7.06,7.06,0,0,1,0-10l25.32-25.32a7.06,7.06,0,0,1,5-2.08m0-5.57a12.59,12.59,0,0,0-9,3.71L112.8,131.21a12.65,12.65,0,0,0,0,17.94l25.3,25.3a12.67,12.67,0,0,0,17.92,0l25.32-25.32a12.64,12.64,0,0,0,0-17.93L156,105.89a12.62,12.62,0,0,0-9-3.71Z"/><path class="cls-10" d="M181,141.34a7.39,7.39,0,0,1-2.19,5.24L152.33,173a7.44,7.44,0,0,1-10.5,0l-26.44-26.45a7.38,7.38,0,0,1,0-10.49l26.44-26.44a7.41,7.41,0,0,1,10.5,0l26.44,26.44A7.4,7.4,0,0,1,181,141.34Z"/><path class="cls-11" d="M181,141.34a7.39,7.39,0,0,1-2.19,5.24L152.33,173a7.43,7.43,0,0,1-5.25,2.17V141.34Z"/><path class="cls-12" d="M147.08,107.47v33.87H113.2a7.36,7.36,0,0,1,2.19-5.25l26.44-26.44A7.38,7.38,0,0,1,147.08,107.47Z"/><path class="cls-13" d="M142.72,118.69v12.57a1.51,1.51,0,0,1-1.51,1.5H128.63a1.49,1.49,0,0,1-1.13-2.49l0,0,12.68-12.68,0,0A1.5,1.5,0,0,1,142.72,118.69Z"/></g></g></g></svg>