<svg xmlns="http://www.w3.org/2000/svg" viewBox="0 0 269.28 300"><defs><style>.cls-1{fill:#6c7580;}.cls-2{fill:#00ffae;}.cls-3{fill:#b3ffe6;}.cls-4{fill:#00e69c;}.cls-5{fill:#e6fff7;}.cls-6{fill:#00d994;}.cls-7{fill:#cfe0e6;}.cls-8{fill:#daebf2;}.cls-9{fill:#fafdff;}.cls-10{fill:#b8c7cc;}.cls-11{fill:#f7fcff;}</style></defs><title>Exotic_icon</title><g id="Слой_2" data-name="Слой 2"><g id="Complete"><g id="Exotic_icon"><path class="cls-1" d="M177,230.9l-1.33.41a24.15,24.15,0,0,0,1.65,2.07l.9,1c.3.3.6.56.9.84Zm0,0-1.33.41a24.15,24.15,0,0,0,1.65,2.07l.9,1c.3.3.6.56.9.84Zm0,0-1.33.41a24.15,24.15,0,0,0,1.65,2.07l.9,1c.3.3.6.56.9.84Zm0,0-1.33.41a24.15,24.15,0,0,0,1.65,2.07l.9,1c.3.3.6.56.9.84Zm0,0-1.33.41a24.15,24.15,0,0,0,1.65,2.07l.9,1c.3.3.6.56.9.84ZM239,58.7l-22.47-13h0L192.19,31.66,164.89,15.9a60.47,60.47,0,0,0-60.5,0l-9.78,5.65L77.48,31.43,64,39.2,30.25,58.7A60.75,60.75,0,0,0,0,111.1v85.59a60.68,60.68,0,0,0,30.25,52.4l74.14,42.81a60.52,60.52,0,0,0,60.49,0l19.56-11.29,13.45-7.78L215,263l24-13.87a60.68,60.68,0,0,0,30.25-52.4V111.1A60.68,60.68,0,0,0,239,58.7Zm9.41,52.4v45a38.2,38.2,0,0,0-4.92-6.36,37.15,37.15,0,0,0-3.68-3.41,35.59,35.59,0,0,0-4.16-2.85c-.76-.41-1.49-.82-2.24-1.2s-1.56-.69-2.37-1c-.41-.14-.79-.3-1.21-.43l-1.26-.35a21.89,21.89,0,0,0-2.61-.5c.64,3.6,1.53,6.51,2.21,9.44l2.17,8.17c1.43,5.18,2.86,10.06,4.43,15,1.09,3.37,2.22,6.78,3.5,10.25a42.79,42.79,0,0,0-3.6-2.95,40.44,40.44,0,0,0-8.63-4.93,35.78,35.78,0,0,0-4.74-1.62,36.15,36.15,0,0,0-5-.94c-.86-.07-1.68-.16-2.53-.18s-1.71,0-2.56.05c-.43,0-.85,0-1.28.09l-1.3.19a22.41,22.41,0,0,0-2.59.59c2,3,4,5.35,5.84,7.75l5.27,6.6c3.4,4.17,6.67,8.05,10.1,11.94,1.28,1.44,2.6,2.89,3.93,4.34a47.75,47.75,0,0,0-7.59-1.75,44.83,44.83,0,0,0-9.83-.4,40.31,40.31,0,0,0-9.77,1.83,37.5,37.5,0,0,0-4.68,1.83,33.84,33.84,0,0,0-4.37,2.51c-.7.49-1.39,1-2.06,1.49s-1.3,1.1-1.91,1.7c-.31.3-.63.58-.92.9l-.35.4-.51.58a20,20,0,0,0-1.59,2.13c1.38.39,2.68.71,3.94,1,1.93.42,3.74.75,5.52,1.15l8.29,1.62c5.29,1,10.3,1.81,15.42,2.55l2.53.35c-5.16.55-10,1.36-14.78,2.18-4,.71-7.87,1.49-11.9,2.34l-3.43.74L185,228.86c-2.54.66-5.13,1.18-8.05,2l-1.33.41a24.15,24.15,0,0,0,1.65,2.07l.9,1c.3.3.6.56.9.84h0l0,0c.64.58,1.31,1.09,2,1.63s1.39.95,2.09,1.43a36.75,36.75,0,0,0,4.48,2.35,35.74,35.74,0,0,0,4.72,1.67,40.64,40.64,0,0,0,9.83,1.51c1.07,0,2.14,0,3.21,0l1.24-.06-1,.57-17.11,9.88-13.46,7.77-20.66,11.92a39.62,39.62,0,0,1-39.66,0l-8.25-4.77-44-25.37a44,44,0,0,0,4.45.07,40.64,40.64,0,0,0,9.83-1.51,35,35,0,0,0,9.19-4c.71-.48,1.42-.93,2.1-1.43s1.1-.86,1.64-1.33l.34-.3c.31-.29.63-.56.94-.87l.9-1a24.15,24.15,0,0,0,1.65-2.07c-2.47-.81-4.7-1.32-6.83-1.83l-2.55-.62L76,227c-5.26-1.15-10.22-2.16-15.33-3.08-4.77-.82-9.62-1.63-14.78-2.18l2.53-.35c5.12-.74,10.13-1.58,15.42-2.55l8.29-1.62c2.43-.55,4.91-1,7.68-1.67.58-.13,1.17-.29,1.78-.46A20,20,0,0,0,80,212.93l-.86-1c-.29-.32-.61-.6-.92-.9s-.77-.72-1.17-1.06c-.24-.21-.49-.43-.75-.64-.66-.53-1.35-1-2-1.49a33.84,33.84,0,0,0-4.37-2.51,37.5,37.5,0,0,0-4.68-1.83,40.31,40.31,0,0,0-9.77-1.83,44.83,44.83,0,0,0-9.83.4A47.38,47.38,0,0,0,38,203.84c1.32-1.45,2.64-2.9,3.92-4.34,3.43-3.89,6.7-7.77,10.1-11.94l5.27-6.6c1-1.35,2.11-2.67,3.21-4.12.86-1.12,1.74-2.3,2.63-3.63a22.11,22.11,0,0,0-2.6-.59l-1.29-.19a8.05,8.05,0,0,0-1-.07l-.31,0c-.85-.06-1.7-.05-2.56-.05s-1.67.11-2.53.18a36.15,36.15,0,0,0-5,.94A35.78,35.78,0,0,0,43.21,175,40.44,40.44,0,0,0,34.58,180a42.79,42.79,0,0,0-3.6,2.95c1.28-3.47,2.41-6.88,3.5-10.25,1.57-4.94,3-9.82,4.43-15l2.16-8.17c.58-2.49,1.32-5,1.9-7.86.12-.51.22-1,.32-1.58-.35,0-.7.09-1,.15l-1.58.35-1.26.35c-.42.13-.8.29-1.21.43-.81.29-1.58.64-2.37,1s-1.48.79-2.24,1.2a35.59,35.59,0,0,0-4.16,2.85,37.15,37.15,0,0,0-3.68,3.41,38.8,38.8,0,0,0-4.93,6.36v-45A39.72,39.72,0,0,1,40.67,76.73L73.34,57.88,86.8,50.1l17.12-9.88,10.89-6.28a39.62,39.62,0,0,1,39.66,0L209,65.43l19.58,11.3a39.75,39.75,0,0,1,19.81,32.87C248.44,110.09,248.44,110.59,248.44,111.1ZM177,230.9l-1.33.41a24.15,24.15,0,0,0,1.65,2.07l.9,1c.3.3.6.56.9.84Zm0,0-1.33.41a24.15,24.15,0,0,0,1.65,2.07l.9,1c.3.3.6.56.9.84Zm0,0-1.33.41a24.15,24.15,0,0,0,1.65,2.07l.9,1c.3.3.6.56.9.84Zm0,0-1.33.41a24.15,24.15,0,0,0,1.65,2.07l.9,1c.3.3.6.56.9.84Zm0,0-1.33.41a24.15,24.15,0,0,0,1.65,2.07l.9,1c.3.3.6.56.9.84Z"/><path class="cls-1" d="M248.44,103.31V188.9a39.67,39.67,0,0,1-19.83,34.37l-74.14,42.79a39.62,39.62,0,0,1-39.66,0L40.67,223.27A39.68,39.68,0,0,1,20.83,188.9V103.31A39.67,39.67,0,0,1,40.67,68.94l74.14-42.8a39.62,39.62,0,0,1,39.66,0l74.14,42.8A39.66,39.66,0,0,1,248.44,103.31Z"/><path class="cls-2" d="M248.44,111.1v85.59a39.59,39.59,0,0,1-3.38,16l-.49,1.05a39.27,39.27,0,0,1-2.75,4.85l-9.47,5.5-12.64,7.37-4.44,2.58-11.59,6.75-5,2.93-50.56,29.43-10,5.83c-1.13.11-2.27.16-3.41.16-1,0-2,0-3-.12l-.45,0-23.08-13.43-80.7-47a38.31,38.31,0,0,1-3.23-5.89,39.6,39.6,0,0,1-3.39-16V111.1a39.28,39.28,0,0,1,1.38-10.36,39.76,39.76,0,0,1,9.38-16.82,40.16,40.16,0,0,1,9.08-7.19L41.89,76l2.61-1.51,49-28.29,1.63-.95,5-2.91,5-2.85,6.67-3.85,3-1.72c.49-.29,1-.56,1.48-.81a36.33,36.33,0,0,1,4.47-2,39.2,39.2,0,0,1,9.78-2.3,40.06,40.06,0,0,1,4.1-.21,39.57,39.57,0,0,1,19.83,5.32l14.19,8.19L174,45.2l54.62,31.53a40.16,40.16,0,0,1,9.08,7.19A39.71,39.71,0,0,1,248.44,111.1Z"/><polygon class="cls-3" points="198.64 243.76 148.08 273.19 44.5 74.51 93.53 46.22 95.16 45.27 198.64 243.76"/><path class="cls-4" d="M108.15,265.59l-80.7-47a38.31,38.31,0,0,1-3.23-5.89,39.6,39.6,0,0,1-3.39-16V111.1a39.28,39.28,0,0,1,1.38-10.36Z"/><path class="cls-5" d="M232.35,224.13l-12.64,7.37L116.29,33.13a36.33,36.33,0,0,1,4.47-2,39.2,39.2,0,0,1,9.78-2.3Z"/><path class="cls-6" d="M248.44,111.1V188L174,45.2l54.62,31.53a40.16,40.16,0,0,1,9.08,7.19A39.71,39.71,0,0,1,248.44,111.1Z"/><polygon class="cls-4" points="215.27 234.08 203.68 240.83 100.21 42.36 105.16 39.51 111.83 35.66 215.27 234.08"/><path class="cls-1" d="M242.93,174.59,226,132.26v8.3a42.09,42.09,0,0,0,1,9.22c1.58,7,4.91,19.71,9.46,26.17l-15.87-2.09-14.49-8.44v4.26a6.92,6.92,0,0,0,1.18,3.87c3.15,4.7,12.08,17.4,20.05,22.85l-3.51-.62-36.16,11.48V209a3,3,0,0,0,2.3,2.92c4.73,1.13,15.86,3.65,25.14,4.82l-.29,0-27.58,9.69L175.64,224v2.92a4.61,4.61,0,0,0,1.47,3.39c4.61,4.26,19.53,15.94,36.75,7.36,16.47-8.22,14.45-17.21,12.91-20.59l.65-.13,5.65-18.09.43.06,8-9-2.28-12.73Z"/><path class="cls-1" d="M26.35,174.59l16.94-42.33v8.3a41.5,41.5,0,0,1-1,9.22c-1.57,7-4.9,19.71-9.45,26.17l15.87-2.09,14.48-8.44v4.26A6.91,6.91,0,0,1,62,173.55c-3.15,4.7-12.08,17.4-20.05,22.85l3.51-.62,36.16,11.48V209a3,3,0,0,1-2.3,2.92c-4.73,1.13-15.86,3.65-25.14,4.82l.29,0L82,226.45,93.64,224v2.92a4.61,4.61,0,0,1-1.47,3.39c-4.61,4.26-19.54,15.94-36.75,7.36C39,229.46,41,220.47,42.51,217.09l-.65-.13-5.65-18.09-.43.06-8-9L30,177.18Z"/><path class="cls-7" d="M177,223.11c-.44.13-.89.26-1.33.41a22.54,22.54,0,0,0,1.65,2.06l.9,1c.3.3.6.55.9.84Zm0,0c-.44.13-.89.26-1.33.41a22.54,22.54,0,0,0,1.65,2.06l.9,1c.3.3.6.55.9.84Zm0,0c-.44.13-.89.26-1.33.41a22.54,22.54,0,0,0,1.65,2.06l.9,1c.3.3.6.55.9.84Zm0,0c-.44.13-.89.26-1.33.41a22.54,22.54,0,0,0,1.65,2.06l.9,1c.3.3.6.55.9.84Zm0,0c-.44.13-.89.26-1.33.41a22.54,22.54,0,0,0,1.65,2.06l.9,1c.3.3.6.55.9.84ZM65,236l-2.38,0A44,44,0,0,0,67,236h.27Zm0,0-2.38,0A44,44,0,0,0,67,236h.27ZM29.44,138.56A39.72,39.72,0,0,0,25.76,142a39.23,39.23,0,0,0-4.93,6.36l10.43-11.11C30.64,137.65,30,138.11,29.44,138.56Zm0,0A39.72,39.72,0,0,0,25.76,142a39.23,39.23,0,0,0-4.93,6.36l10.43-11.11C30.64,137.65,30,138.11,29.44,138.56ZM239,50.91l-22.47-13h0L192.19,23.86,164.89,8.1a60.54,60.54,0,0,0-60.5,0l-9.78,5.65L77.48,23.64,64,31.41,30.25,50.91A60.75,60.75,0,0,0,0,103.31V188.9a60.68,60.68,0,0,0,30.25,52.4l74.14,42.8a60.45,60.45,0,0,0,60.49,0l19.56-11.29L197.89,265,215,255.17l24-13.87a60.68,60.68,0,0,0,30.25-52.4V103.31A60.68,60.68,0,0,0,239,50.91Zm9.41,97.42a38.62,38.62,0,0,0-4.92-6.36,39.72,39.72,0,0,0-3.68-3.41,36.78,36.78,0,0,0-4.16-2.84c-.76-.41-1.49-.83-2.24-1.2s-1.56-.69-2.37-1c-.41-.15-.79-.3-1.21-.43l-1.26-.35a24.09,24.09,0,0,0-2.61-.51c.64,3.61,1.53,6.52,2.21,9.45l2.17,8.16c1.43,5.19,2.86,10.07,4.43,15,1.09,3.37,2.22,6.78,3.5,10.26a40.92,40.92,0,0,0-3.6-3,40.44,40.44,0,0,0-8.63-4.93,37.33,37.33,0,0,0-4.74-1.63,34.68,34.68,0,0,0-5-.93c-.86-.07-1.68-.16-2.53-.19s-1.71,0-2.56.06c-.43,0-.85,0-1.28.09l-1.3.18a24.77,24.77,0,0,0-2.59.6c2,3,4,5.35,5.84,7.75l5.27,6.6c3.4,4.17,6.67,8,10.1,11.94,1.28,1.44,2.6,2.89,3.93,4.34a46.68,46.68,0,0,0-7.59-1.75,44.83,44.83,0,0,0-9.83-.4,39.84,39.84,0,0,0-9.77,1.83,37.5,37.5,0,0,0-4.68,1.83,35,35,0,0,0-4.37,2.5c-.7.5-1.39,1-2.06,1.5s-1.3,1.1-1.91,1.7c-.31.3-.63.57-.92.9l-.35.4-.51.58a19.86,19.86,0,0,0-1.59,2.12c1.38.4,2.68.71,3.94,1,1.93.42,3.74.75,5.52,1.15l8.29,1.61c5.29,1,10.3,1.81,15.42,2.55l2.53.36c-5.16.55-10,1.36-14.78,2.18-4,.71-7.87,1.49-11.9,2.34l-3.43.74L185,221.06c-2.54.67-5.13,1.18-8.05,2.05-.44.13-.89.26-1.33.41a22.54,22.54,0,0,0,1.65,2.06l.9,1c.3.3.6.55.9.84h0l0,0c.64.58,1.31,1.09,2,1.63s1.39,1,2.09,1.42a35.47,35.47,0,0,0,4.48,2.36,37.24,37.24,0,0,0,4.72,1.67,40.64,40.64,0,0,0,9.83,1.51c1.07,0,2.14,0,3.21,0l1.24-.06-1,.56-17.11,9.89-13.46,7.76-20.66,11.92a39.62,39.62,0,0,1-39.66,0l-8.25-4.76-44-25.37A44,44,0,0,0,67,236h.28s0,0,0,0h0a0,0,0,0,1,0,0,0,0,0,0,1,0,0,40.13,40.13,0,0,0,9.46-1.5,37.24,37.24,0,0,0,4.72-1.67,34.68,34.68,0,0,0,4.47-2.36l.13-.07c.66-.46,1.33-.88,2-1.35s1.1-.86,1.64-1.33l.34-.3c.31-.3.63-.56.94-.87l.9-1c.43-.49.84-1,1.25-1.51h0c.14-.17.28-.36.4-.54-2.47-.81-4.7-1.33-6.83-1.83-.86-.21-1.71-.41-2.55-.63L76,219.18C70.76,218,65.8,217,60.69,216.1c-4.77-.82-9.62-1.63-14.78-2.18l2.53-.36c5.12-.74,10.13-1.57,15.42-2.55l.27-.06h0l8-1.55c2.43-.55,4.91-1,7.68-1.67.58-.14,1.17-.29,1.78-.47A19.86,19.86,0,0,0,80,205.14l-.86-1c-.29-.33-.61-.6-.92-.9s-.77-.72-1.17-1.06c-.24-.22-.49-.43-.75-.64-.66-.53-1.35-1-2-1.5a35,35,0,0,0-4.37-2.5,37.5,37.5,0,0,0-4.68-1.83,39.84,39.84,0,0,0-9.77-1.83,44.83,44.83,0,0,0-9.83.4A46.33,46.33,0,0,0,38,196.05c1.32-1.45,2.64-2.9,3.92-4.34,3.43-3.89,6.7-7.77,10.1-11.94l5.27-6.6c1-1.35,2.11-2.68,3.21-4.12l.33-.44c.76-1,1.53-2,2.3-3.19a24.37,24.37,0,0,0-2.6-.6l-1.29-.18a8.05,8.05,0,0,0-1-.07l-.31,0c-.85-.07-1.7-.06-2.56-.06s-1.67.12-2.53.19a34.68,34.68,0,0,0-5,.93,37.33,37.33,0,0,0-4.74,1.63,40.44,40.44,0,0,0-8.63,4.93,40.92,40.92,0,0,0-3.6,3c1.28-3.48,2.41-6.89,3.5-10.26,1.57-4.93,3-9.81,4.43-15l2.16-8.16c.58-2.49,1.32-5,1.9-7.86.12-.52.22-1,.32-1.59h-.06c-.33,0-.66.09-1,.15-.53.11-1,.22-1.58.35l-1.26.35c-.42.13-.8.28-1.21.43-.81.29-1.58.64-2.37,1s-1.48.79-2.24,1.2-1.58,1-2.34,1.5-1.22.89-1.82,1.34A39.72,39.72,0,0,0,25.76,142a39.23,39.23,0,0,0-4.93,6.36v-45A39.7,39.7,0,0,1,40.67,68.94L73.34,50.08,86.8,42.31l17.12-9.88,10.89-6.29a39.62,39.62,0,0,1,39.66,0L209,57.63l19.58,11.31a38.68,38.68,0,0,1,5.2,3.59,39.65,39.65,0,0,1,14.61,29.28c0,.49,0,1,0,1.5Zm-219-9.77A39.72,39.72,0,0,0,25.76,142a39.23,39.23,0,0,0-4.93,6.36l10.43-11.11C30.64,137.65,30,138.11,29.44,138.56Zm0,0A39.72,39.72,0,0,0,25.76,142a39.23,39.23,0,0,0-4.93,6.36l10.43-11.11C30.64,137.65,30,138.11,29.44,138.56ZM65,236l-2.38,0A44,44,0,0,0,67,236h.27Zm0,0-2.38,0A44,44,0,0,0,67,236h.27Zm112-12.84c-.44.13-.89.26-1.33.41a22.54,22.54,0,0,0,1.65,2.06l.9,1c.3.3.6.55.9.84Zm0,0c-.44.13-.89.26-1.33.41a22.54,22.54,0,0,0,1.65,2.06l.9,1c.3.3.6.55.9.84Zm0,0c-.44.13-.89.26-1.33.41a22.54,22.54,0,0,0,1.65,2.06l.9,1c.3.3.6.55.9.84Zm0,0c-.44.13-.89.26-1.33.41a22.54,22.54,0,0,0,1.65,2.06l.9,1c.3.3.6.55.9.84Zm0,0c-.44.13-.89.26-1.33.41a22.54,22.54,0,0,0,1.65,2.06l.9,1c.3.3.6.55.9.84Z"/><path class="cls-1" d="M150.6,149.38a19.16,19.16,0,0,0-2.48-6.82,21.2,21.2,0,0,0-4.91-5.51,27.7,27.7,0,0,0-6.19-3.66,40.36,40.36,0,0,0-6.57-2.16,47.19,47.19,0,0,0-6.67-1.17,41.43,41.43,0,0,0-14,.88,38.46,38.46,0,0,0-13,5.79A37.15,37.15,0,0,0,87,146.79l-2.56,1v4h0A1.71,1.71,0,0,0,85,153a27.15,27.15,0,0,0,10.58,5.7,1.66,1.66,0,0,0,2.07-1.13,21.71,21.71,0,0,1,1.65-4.1,23.4,23.4,0,0,1,5.7-7,24.92,24.92,0,0,1,8.2-4.55,29.38,29.38,0,0,1,9.8-1.44,33.43,33.43,0,0,1,10,1.69,18.86,18.86,0,0,1,4.12,2.05,12.11,12.11,0,0,1,3,2.9,11.57,11.57,0,0,1,1.94,8.1,17.85,17.85,0,0,1-3.51,8.66,15,15,0,0,1-7.47,5.53,10.38,10.38,0,0,1-8.75-1.36,19.21,19.21,0,0,1-3.87-3.26,15.12,15.12,0,0,1-2.81-4,4.74,4.74,0,0,1-.26-3.87,6.09,6.09,0,0,1,3.28-3,16.35,16.35,0,0,1,5.36-1.3,27.52,27.52,0,0,1,4.06,0,1.72,1.72,0,0,0,1.86-1.72v-2.3l-7.14-1-7.18,2-1.65,3.22a8.2,8.2,0,0,0-2.22,2.25.83.83,0,0,0-.09.16l-1.07-.8,0,4c0,.06,0,.12,0,.18a10.21,10.21,0,0,0,0,1.66v.06h0a10.33,10.33,0,0,0,.36,1.84,18.56,18.56,0,0,0,3.16,5.76,22.54,22.54,0,0,0,4.7,4.59,17.73,17.73,0,0,0,6.49,3,16.35,16.35,0,0,0,5.31.32,14.26,14.26,0,0,0,2.16-.33,22.22,22.22,0,0,0,11.75-7.32,26,26,0,0,0,4.11-6.44,24.78,24.78,0,0,0,1.73-5.5A20.89,20.89,0,0,0,150.6,149.38Z"/><path class="cls-1" d="M81.55,163.56v2.92a29.35,29.35,0,0,0,1.17,8.38c.65,2.19,1.59,5.33,2.85,6.11,2.6,1.61,21.49.84,27.36-.48a1.78,1.78,0,0,0,1.33-1.42l.42-2.31-21.56-3Z"/><path class="cls-1" d="M196.64,152.18a20.91,20.91,0,0,0-5.42-2.48h0c.1-.65.18-1.32.25-2,.26-2.15.41-4.29.47-6.53l.6-.13a25.21,25.21,0,0,1,3.83-.48,9.89,9.89,0,0,1,3.63.54c1.2.44,2.45,1.08,4.13,1.74a6.49,6.49,0,0,0-.05-.77h0l-.05-4.54-5.71-3.61-2.6,1.1a22.83,22.83,0,0,0-3.49-.52l-.44,0a54.71,54.71,0,0,0-.92-7.11c-.1-.54-.21-1.07-.34-1.61a21.71,21.71,0,0,1,3.49-1.37,9.58,9.58,0,0,1,3.64-.37c1.28.13,2.66.44,4.47.69v-4.22l-4.91-2.39-5-.49.23,1.58a20.92,20.92,0,0,0-3.76.29,49.22,49.22,0,0,0-2.59-6c-.41-.8-.85-1.6-1.32-2.38a20.5,20.5,0,0,1,2.5-1.77,9.75,9.75,0,0,1,3.44-1.26c1.27-.18,2.68-.21,4.5-.43v-4.22l-5.31-1.77-3.66,1.47.24,1.21a9.24,9.24,0,0,0-.92.11,19.41,19.41,0,0,0-4.4,1.29,49.47,49.47,0,0,0-4-4.65c-.78-.79-1.59-1.57-2.41-2.29a19.47,19.47,0,0,1,2-2.38,9.17,9.17,0,0,1,3-2c1.18-.5,2.53-.88,4.23-1.52V88.65l-6.16-.38-3,3,.31.31a12.91,12.91,0,0,0-1.32.51,19.38,19.38,0,0,0-4.14,2.52c-1.46-1-3-2-4.49-2.91-1.17-.7-2.35-1.35-3.56-2a21.56,21.56,0,0,1,1.41-3.23,9.22,9.22,0,0,1,2.31-2.69c1-.77,2.21-1.46,3.68-2.51l-.26-4h-3.32l-4.14,3.29.88.67a12.44,12.44,0,0,0-3.22,1.87,18.7,18.7,0,0,0-3.55,3.76l0,.06c-1.22-.48-2.44-.94-3.66-1.36-1.73-.58-3.45-1.1-5.18-1.57v0a19.65,19.65,0,0,1,.49-3.61,8.68,8.68,0,0,1,1.49-3.17c.76-1,1.74-2,2.86-3.32V69.68l-5.53,2.52-.48,2.87a12.13,12.13,0,0,0-3.21,3,17.17,17.17,0,0,0-2.36,4.41,4.34,4.34,0,0,1-.43-.1,4,4,0,0,1-2.83-3.06c-.46-2.13,1.86-8.88,1.86-8.88V66.23L133.54,69l-.08,1.42H118.87a42.12,42.12,0,0,0-41.45,34.63l-.57.3v2.22a2,2,0,0,0,2,2H89.16a128.64,128.64,0,0,1,31.17,4.19,61.9,61.9,0,0,1,12.18,4.64c9.34,4.94,14.8,2,15.35-1.79h0v0a3.87,3.87,0,0,0,0-1l.06-2.56a33.83,33.83,0,0,1,9.7,5.89,26.67,26.67,0,0,1,8,13.4,39.38,39.38,0,0,1,1.24,8.76c.06,1.52.05,3.13,0,4.73s-.22,3.16-.43,4.73a48.25,48.25,0,0,1-4.12,14.38l0,.09c-.49,1-1,2-1.58,3a36,36,0,0,1-2.81,4.15c-.08.11-.17.21-.25.31a32.52,32.52,0,0,1-5.14,5.15l-.09.08C144.7,184.23,134,189.33,123,192.47l-18-.92v1.82a3.77,3.77,0,0,0,2.25,3.44,71.49,71.49,0,0,0,22.29,6.06,57.65,57.65,0,0,0,14.64-.43A52.59,52.59,0,0,0,158.44,198a46.34,46.34,0,0,0,5.23-2.87,7.82,7.82,0,0,1,1.2,3c.21,1.2.24,2.53.46,4.26a6.34,6.34,0,0,0,3.16-3.91,11.09,11.09,0,0,0,.24-5.22,13.15,13.15,0,0,0-.35-1.47,55.35,55.35,0,0,0,7.94-7.65c.32.24.61.48.9.73a8.92,8.92,0,0,1,2.16,2.81c.53,1.11.92,2.39,1.61,4a6.11,6.11,0,0,0,2-4.54,11.21,11.21,0,0,0-1.2-5.1,17.1,17.1,0,0,0-1.72-2.76A61.13,61.13,0,0,0,185,170.8a20.73,20.73,0,0,1,2.71,1.11,9.19,9.19,0,0,1,2.86,2.18c.81.95,1.55,2.09,2.65,3.46a6,6,0,0,0,.66-4.86,11.42,11.42,0,0,0-2.55-4.64,19,19,0,0,0-3.82-3.24,70.48,70.48,0,0,0,2.51-8.5h.39a24,24,0,0,1,3.83.47,9.32,9.32,0,0,1,3.35,1.41c1,.72,2.08,1.63,3.52,2.69a5.73,5.73,0,0,0,.23-1.63h0V154.8l-2.38-.69A12.08,12.08,0,0,0,196.64,152.18ZM112.88,84.37c-2.14,3.16-5.17,4.95-8.36,4.95H98.23l2.77-4c2.14-3.16,5.17-5,8.35-5h6.3ZM128,108.81a6.58,6.58,0,1,1,5.16-5.17A6.59,6.59,0,0,1,128,108.81Z"/><path class="cls-8" d="M111.4,175.41c1.13.48,2.26.94,3.4,1.35a89,89,0,0,1-28.06.19,1.27,1.27,0,0,1-.91-.59,28,28,0,0,1-2.85-6,28.56,28.56,0,0,1-1.43-6.74,1.28,1.28,0,0,1,1.8-1.29,68.89,68.89,0,0,0,15.31,4.49,1.23,1.23,0,0,1,.85.55A16.57,16.57,0,0,0,103,171a20.27,20.27,0,0,0,3.55,2.15C108.17,174,109.78,174.72,111.4,175.41Z"/><path class="cls-9" d="M64,31.41l9.32,18.67L40.67,68.94A39.69,39.69,0,0,0,22.34,92.47L10.67,69.06A60.11,60.11,0,0,1,30.25,50.91Z"/><path class="cls-9" d="M184.44,272.81,164.88,284.1a60.31,60.31,0,0,1-43.66,6.59L106.56,261.3l8.25,4.76a39.62,39.62,0,0,0,39.66,0l20.66-11.92Z"/><polygon class="cls-9" points="94.61 13.75 103.92 32.42 86.8 42.31 77.48 23.64 94.61 13.75"/><polygon class="cls-9" points="215.02 255.17 197.89 265.04 188.59 246.38 205.71 236.49 215.02 255.17"/><path class="cls-9" d="M233.81,72.53a38.68,38.68,0,0,0-5.2-3.59L209,57.63,192.19,23.86l24.37,14.08h0Z"/><path class="cls-9" d="M269.28,143.63v34.8l-20.84-41.76V103.31c0-.51,0-1,0-1.5Z"/><path class="cls-10" d="M43.29,132.25c-.1.55-.2,1.07-.32,1.59-.58,2.89-1.32,5.37-1.9,7.86l-2.16,8.16c-1.43,5.19-2.86,10.07-4.43,15-1.09,3.37-2.22,6.78-3.5,10.26-7.37,11.3-10.93,11.38-11,11.38C20.92,144.59,43.29,132.25,43.29,132.25Z"/><path class="cls-10" d="M63.17,165.42c-.89,1.32-1.77,2.51-2.63,3.63-1.1,1.44-2.19,2.77-3.21,4.12l-5.27,6.6c-3.4,4.17-6.67,8-10.1,11.94-1.28,1.44-2.6,2.89-3.92,4.34A160.89,160.89,0,0,0,20,207C26,184.82,48.68,168.75,63.17,165.42Z"/><path class="cls-10" d="M81.61,207.26c-.61.18-1.2.33-1.78.47-2.77.7-5.25,1.12-7.68,1.67L63.86,211c-5.29,1-10.3,1.81-15.42,2.55l-2.53.36c-17.39-.62-24-1.58-24-1.58C57.94,190.42,81.61,207.26,81.61,207.26Z"/><path class="cls-10" d="M93.23,224.07c-.41.53-.82,1-1.25,1.51l-.9,1c-.31.31-.63.57-.94.87l-.34.3c-.54.47-1.09.88-1.64,1.33s-1.39,1-2.1,1.42a34.68,34.68,0,0,1-4.47,2.36,37.24,37.24,0,0,1-4.72,1.67,40.13,40.13,0,0,1-9.46,1.5,0,0,0,0,0,0,0,0,0,0,0,0,0,0h0s0,0,0,0h0L65,236l-2.38,0c-19.63-.07-29.06-13.19-29.36-13.6C53.73,229.65,89.1,224.68,93.23,224.07Z"/><path class="cls-10" d="M226,132.25c.1.55.2,1.07.32,1.59.58,2.89,1.32,5.37,1.89,7.86l2.17,8.16c1.43,5.19,2.86,10.07,4.43,15,1.09,3.37,2.22,6.78,3.5,10.26,7.37,11.3,10.93,11.38,11,11.38C248.36,144.59,226,132.25,226,132.25Z"/><path class="cls-10" d="M206.11,165.42c.89,1.32,1.77,2.51,2.63,3.63,1.1,1.44,2.19,2.77,3.21,4.12l5.27,6.6c3.4,4.17,6.67,8,10.1,11.94,1.28,1.44,2.6,2.89,3.92,4.34A160.89,160.89,0,0,1,249.33,207C243.24,184.82,220.6,168.75,206.11,165.42Z"/><path class="cls-10" d="M187.67,207.26c.61.18,1.2.33,1.78.47,2.77.7,5.25,1.12,7.68,1.67l8.29,1.61c5.29,1,10.3,1.81,15.42,2.55l2.53.36c17.39-.62,24-1.58,24-1.58C211.34,190.42,187.67,207.26,187.67,207.26Z"/><path class="cls-10" d="M176.05,224.07c.4.53.82,1,1.25,1.51l.9,1c.31.31.63.57.94.87l.34.3c.54.47,1.08.88,1.64,1.33s1.39,1,2.09,1.42a35.47,35.47,0,0,0,4.48,2.36,37.24,37.24,0,0,0,4.72,1.67,40.13,40.13,0,0,0,9.46,1.5,0,0,0,0,1,0,0,0,0,0,0,1,0,0h0s0,0,0,0h0l2.35,0,2.38,0c19.62-.07,29.06-13.19,29.36-13.6C215.55,229.65,180.18,224.68,176.05,224.07Z"/><path class="cls-9" d="M55.53,168c-3.2,2.28-6.52,4.36-9.71,6.58a74.19,74.19,0,0,0-9,7.23,70.8,70.8,0,0,0-7.67,8.63c-2.35,3.09-4.49,6.34-6.69,9.6a62.77,62.77,0,0,1,5.44-10.48,51.5,51.5,0,0,1,7.58-9.16,53,53,0,0,1,9.54-7.1A97.82,97.82,0,0,1,55.53,168Z"/><path class="cls-9" d="M36.27,138.24a58.32,58.32,0,0,0-5.19,8.53c-1.49,3-2.87,6-4.1,9.06s-2.35,6.2-3.38,9.36-1.9,6.38-2.77,9.64a49.42,49.42,0,0,1,1.31-10,63.29,63.29,0,0,1,3-9.69A59.46,59.46,0,0,1,29.77,146,31.18,31.18,0,0,1,36.27,138.24Z"/><path class="cls-9" d="M71.1,202.78a84.75,84.75,0,0,0-10.53-.56,93.67,93.67,0,0,0-10.46.64,83.58,83.58,0,0,0-10.29,1.8,59.43,59.43,0,0,0-10,3.35,33.25,33.25,0,0,1,9.55-4.81,53.17,53.17,0,0,1,10.5-2.28,59.18,59.18,0,0,1,10.73-.22A40.1,40.1,0,0,1,71.1,202.78Z"/><path class="cls-9" d="M83.42,225.24a48.82,48.82,0,0,1-10,1.85,90,90,0,0,1-10.12.32c-3.38-.1-6.75-.31-10.09-.73a74.44,74.44,0,0,1-10-1.83c3.38.06,6.72.19,10.07.31s6.68.24,10,.31,6.67.11,10,.11S80.05,225.46,83.42,225.24Z"/><path class="cls-9" d="M195.74,203.51a55.35,55.35,0,0,1,10.4-2.6,53.82,53.82,0,0,1,10.77-.56,42.77,42.77,0,0,1,10.64,1.9A34.66,34.66,0,0,1,237.2,207a65.28,65.28,0,0,0-10-3.26,59.38,59.38,0,0,0-10.36-1.43,85.44,85.44,0,0,0-10.49.12C202.79,202.65,199.29,203.11,195.74,203.51Z"/><path class="cls-9" d="M185.86,225.24c3.21.19,6.38.28,9.56.36s6.35.13,9.52.14,6.35,0,9.52-.05,6.34-.18,9.55-.45a43.06,43.06,0,0,1-9.45,2,83.8,83.8,0,0,1-9.63.47,93.49,93.49,0,0,1-9.61-.56A49.22,49.22,0,0,1,185.86,225.24Z"/><path class="cls-9" d="M215.27,168.74a61.27,61.27,0,0,1,9.4,5.07,71.9,71.9,0,0,1,8.55,6.44,55.12,55.12,0,0,1,7.37,7.82,28.92,28.92,0,0,1,5,9.46,46.68,46.68,0,0,0-6.18-8.5,89.11,89.11,0,0,0-7.48-7.32c-2.62-2.33-5.36-4.52-8.14-6.67S218.15,170.83,215.27,168.74Z"/><path class="cls-9" d="M232.35,137.55a34.75,34.75,0,0,1,6.76,7.89,64.4,64.4,0,0,1,5,9.17,58.05,58.05,0,0,1,3.38,9.87,31.21,31.21,0,0,1,1,10.35,55.7,55.7,0,0,0-2.43-9.94q-1.62-4.83-3.7-9.5c-1.36-3.11-2.87-6.17-4.48-9.17A66.68,66.68,0,0,0,232.35,137.55Z"/><path class="cls-8" d="M150.48,152.09a24.44,24.44,0,0,1-1.72,5.5,26.23,26.23,0,0,1-4.11,6.43,22.27,22.27,0,0,1-11.52,7.28l-.24.06a17.69,17.69,0,0,1-7.46,0,17.8,17.8,0,0,1-6.5-3,22.25,22.25,0,0,1-4.69-4.59,18.38,18.38,0,0,1-3.17-5.76,11.05,11.05,0,0,1-.39-2.24,8.31,8.31,0,0,1,0-1.32,7.77,7.77,0,0,1,1.16-3.59,9.68,9.68,0,0,1,5.9-3.88,5.59,5.59,0,0,1,.56-.12,15.73,15.73,0,0,1,2.79-.29,16.77,16.77,0,0,1,3.1.2,20.17,20.17,0,0,1,5.85,1.83,27.48,27.48,0,0,0-5.92-.2,18.36,18.36,0,0,0-2,.27,15.6,15.6,0,0,0-2.57.69l-.78.33a6.05,6.05,0,0,0-3.28,3,3.3,3.3,0,0,0-.25.85,5.36,5.36,0,0,0,.51,3,15.08,15.08,0,0,0,2.8,4,19.65,19.65,0,0,0,3.88,3.27,10.56,10.56,0,0,0,7.84,1.58,7.58,7.58,0,0,0,.91-.23,15.05,15.05,0,0,0,7.47-5.52,17.87,17.87,0,0,0,3.5-8.67,11.58,11.58,0,0,0-1.93-8.1,12.11,12.11,0,0,0-3-2.9,18.43,18.43,0,0,0-4.12-2.05,33.81,33.81,0,0,0-10-1.69,29.57,29.57,0,0,0-6.68.62,24.07,24.07,0,0,0-2.66.67l-.45.14a25.36,25.36,0,0,0-8.21,4.56,23.56,23.56,0,0,0-5.69,7,20,20,0,0,0-.94,2c-.28.69-.51,1.39-.72,2.1a1.65,1.65,0,0,1-2.06,1.13A27.32,27.32,0,0,1,85,148.75a1.67,1.67,0,0,1-.37-1.92,35.86,35.86,0,0,1,6.77-9.7,36.41,36.41,0,0,1,5.44-4.62,38.76,38.76,0,0,1,11.65-5.44c.44-.13.89-.25,1.33-.35l1.42-.32a41.94,41.94,0,0,1,12.52-.56,46.17,46.17,0,0,1,6.68,1.17,40.91,40.91,0,0,1,6.56,2.16,28.14,28.14,0,0,1,6.2,3.66,21,21,0,0,1,4.91,5.51,19.38,19.38,0,0,1,2.48,6.81A21,21,0,0,1,150.48,152.09Z"/><path class="cls-8" d="M196.63,148a15,15,0,0,0-1.94-1.12h0a23.72,23.72,0,0,0-3.46-1.34s0,0,0,0c.09-.65.17-1.32.25-2,.11-.89.19-1.78.25-2.68h0c.12-1.27.18-2.54.22-3.85l.6-.12a21.8,21.8,0,0,1,3.83-.48,9.43,9.43,0,0,1,3.62.53c1.21.44,2.46,1.08,4.13,1.74a6.12,6.12,0,0,0-2-4.52,12.44,12.44,0,0,0-4.67-2.8,20.43,20.43,0,0,0-5.22-1l-.44,0a56.73,56.73,0,0,0-.92-7.11c-.1-.53-.22-1.08-.35-1.62a22.62,22.62,0,0,1,3.49-1.36,9.83,9.83,0,0,1,3.64-.37c1.29.14,2.66.45,4.48.69A6.34,6.34,0,0,0,199,116.6a13,13,0,0,0-5.27-1.58,21.58,21.58,0,0,0-5,.23,49.55,49.55,0,0,0-2.59-6c-.41-.8-.84-1.6-1.31-2.38a20.83,20.83,0,0,1,2.5-1.77,9.59,9.59,0,0,1,3.44-1.25c1.27-.19,2.68-.23,4.5-.43a6.56,6.56,0,0,0-4.13-3,13,13,0,0,0-5.52-.24,19.16,19.16,0,0,0-4.41,1.31,47,47,0,0,0-4-4.66c-.78-.79-1.59-1.58-2.4-2.3a20.92,20.92,0,0,1,2-2.37,9.72,9.72,0,0,1,3-2c1.18-.5,2.54-.88,4.23-1.52a6.9,6.9,0,0,0-4.8-1.88,13.17,13.17,0,0,0-5.41,1.14,19.59,19.59,0,0,0-4.14,2.51q-2-1.41-4.06-2.66l-.43-.25c-1.16-.69-2.34-1.34-3.55-2a21.43,21.43,0,0,1,1.35-3.11l.06-.12a9.29,9.29,0,0,1,2.31-2.68c1-.78,2.21-1.46,3.67-2.5a7,7,0,0,0-5.15-.64,12.76,12.76,0,0,0-3.21,1.26,12.26,12.26,0,0,0-1.69,1.15,17.77,17.77,0,0,0-2.9,2.92c-.24.29-.45.57-.66.85,0,0,0,0,0,.07-1.22-.49-2.44-1-3.67-1.37-.47-.16-.94-.33-1.42-.46h0c-1.13-.37-2.26-.69-3.4-1l-.35-.09v0c0-.17,0-.33,0-.5h0a17.93,17.93,0,0,1,.46-3.1c.11-.4.23-.79.37-1.17h0a7.26,7.26,0,0,1,1.12-2c.56-.74,1.24-1.46,2-2.35.27-.3.55-.62.83-1a6.37,6.37,0,0,0-1.42-.23,7.32,7.32,0,0,0-3.73.87,9,9,0,0,0-.85.5,11.84,11.84,0,0,0-2.12,1.74A11,11,0,0,0,142,73.86a17.23,17.23,0,0,0-2.36,4.42l-.44-.11a4,4,0,0,1-2.82-3.06c-.46-2.12,1.86-8.87,1.86-8.87H118.78c-.28,0-.57,0-.85,0a42.09,42.09,0,0,0-41.08,39.12H89.16a114.18,114.18,0,0,1,12.18.73,120.28,120.28,0,0,1,19,3.46,61.56,61.56,0,0,1,12.17,4.64c4.32,2.28,7.8,2.87,10.37,2.47l.47-.08c4.7-1,5.92-5.45,3-8.42a40.2,40.2,0,0,1,5.52,2.48,30.48,30.48,0,0,1,5.81,4,26.46,26.46,0,0,1,8.05,13.39,38.9,38.9,0,0,1,1.23,8.77c.06,1.5.05,3.09,0,4.68v0c-.09,1.59-.23,3.16-.43,4.72a49.23,49.23,0,0,1-2.94,11.63c0,.09-.07.18-.11.27-.33.85-.68,1.68-1.07,2.49l0,.09c-.49,1-1,2-1.58,3a35.91,35.91,0,0,1-2.82,4.14,2.42,2.42,0,0,1-.25.31,32.45,32.45,0,0,1-5.13,5.15l-.09.07a66.69,66.69,0,0,1-13.9,8.89A95.55,95.55,0,0,1,105,191.55a72.78,72.78,0,0,0,24.53,7.11,57.65,57.65,0,0,0,14.64-.43c.64-.12,1.3-.23,1.94-.36a52.8,52.8,0,0,0,12.35-4.08,48.93,48.93,0,0,0,5.23-2.87,8,8,0,0,1,1.2,3c.2,1.2.23,2.54.46,4.26a6.32,6.32,0,0,0,3.15-3.91,11,11,0,0,0,.25-5.22c-.09-.5-.22-1-.35-1.47a54.92,54.92,0,0,0,6.55-6.09l0,0c.46-.5.91-1,1.33-1.52.32.24.62.48.91.73a8.7,8.7,0,0,1,2.15,2.8c.54,1.12.93,2.41,1.62,4a6.15,6.15,0,0,0,2-4.54,11.22,11.22,0,0,0-1.2-5.11A16.79,16.79,0,0,0,180,175.1c.65-.92,1.25-1.85,1.83-2.81a60.78,60.78,0,0,0,3.08-5.72,22.37,22.37,0,0,1,2.72,1.11,9.49,9.49,0,0,1,2.85,2.19c.65.75,1.25,1.63,2,2.65l.63.81a5.55,5.55,0,0,0,.86-2.44,6.47,6.47,0,0,0-.19-2.43,11.43,11.43,0,0,0-2.56-4.62,14.57,14.57,0,0,0-1.35-1.37h0a22.38,22.38,0,0,0-2.45-1.87c.22-.61.43-1.22.64-1.86q1.11-3.3,1.87-6.64h.39l.31,0a21.39,21.39,0,0,1,3.52.46,9.45,9.45,0,0,1,3.35,1.4c.35.24.7.51,1.06.79.72.56,1.5,1.2,2.45,1.9a6,6,0,0,0-.69-4.86A11.74,11.74,0,0,0,196.63,148ZM114.85,77.26l-2,2.9c-2.15,3.14-5.18,5-8.36,5h-4.9A.74.74,0,0,1,99,84L101,81c2.14-3.15,5.17-4.93,8.36-4.93h4.89A.74.74,0,0,1,114.85,77.26Zm18.26,22.16a6.6,6.6,0,1,1-1.6-5.7l0,0a6.38,6.38,0,0,1,1.6,3.23A7.15,7.15,0,0,1,133.11,99.42Z"/><path class="cls-11" d="M192.54,172.52c-.77-1-1.37-1.9-2-2.65a9.49,9.49,0,0,0-2.85-2.19,22.37,22.37,0,0,0-2.72-1.11,60.78,60.78,0,0,1-3.08,5.72c-.58,1-1.18,1.89-1.83,2.81a16.79,16.79,0,0,1,1.73,2.75A11.22,11.22,0,0,1,183,183a6.15,6.15,0,0,1-2,4.54c-.69-1.59-1.08-2.88-1.62-4a8.7,8.7,0,0,0-2.15-2.8c-.29-.25-.59-.49-.91-.73-.42.51-.87,1-1.33,1.52l0,0L163.4,158.21c0-.09.08-.18.11-.27a49.23,49.23,0,0,0,2.94-11.63c.2-1.56.34-3.13.43-4.72v0c.08-1.59.09-3.18,0-4.68a38.9,38.9,0,0,0-1.23-8.77,26.46,26.46,0,0,0-8.05-13.39,30.48,30.48,0,0,0-5.81-4,40.2,40.2,0,0,0-5.52-2.48c3,3,1.74,7.44-3,8.42l-.47.08L133.13,97l-1.6-3.23,0,0L117.93,66.26c.28,0,.57,0,.85,0h19.49S136,73,136.41,75.11a4,4,0,0,0,2.82,3.06l.44.11A17.23,17.23,0,0,1,142,73.86a11,11,0,0,1,1.09-1.29l3.32,6.7h0l.31.63Z"/><path class="cls-11" d="M113.67,137.52l-.45.14a25.36,25.36,0,0,0-8.21,4.56,23.56,23.56,0,0,0-5.69,7,20,20,0,0,0-.94,2l-7-14.09a36.41,36.41,0,0,1,5.44-4.62,38.76,38.76,0,0,1,11.65-5.44Z"/><path class="cls-11" d="M119.53,149.37l-.78.33a6.05,6.05,0,0,0-3.28,3,3.3,3.3,0,0,0-.25.85l-4.54,2.24a8.31,8.31,0,0,1,0-1.32,7.77,7.77,0,0,1,1.16-3.59,9.68,9.68,0,0,1,5.9-3.88,5.59,5.59,0,0,1,.56-.12Z"/><path class="cls-11" d="M149.82,69.46a6.37,6.37,0,0,1,1.42.23c-.28.35-.56.67-.83,1Z"/><path class="cls-11" d="M198.61,154.76c-.36-.28-.71-.55-1.06-.79a9.45,9.45,0,0,0-3.35-1.4,21.39,21.39,0,0,0-3.52-.46L155.94,81.83a17.77,17.77,0,0,1,2.9-2.92,12.26,12.26,0,0,1,1.69-1.15l2.32,4.68a21.43,21.43,0,0,0-1.35,3.11c1.21.62,2.39,1.27,3.55,2l.43.25,26.23,53.05h0c-.06.9-.14,1.79-.25,2.68-.08.65-.16,1.32-.25,2,0,0,0,0,0,0a23.72,23.72,0,0,1,3.46,1.34h0Z"/></g></g></g></svg>