<svg xmlns="http://www.w3.org/2000/svg" viewBox="0 0 292.21 340"><defs><style>.cls-1{fill:#2e51e6;}.cls-2{fill:#1b2d80;}.cls-3{fill:#6c7580;}.cls-4{fill:#4d6fff;}.cls-5{fill:#dbe3e6;}.cls-6{fill:#fafdff;}.cls-7{fill:#fff;}</style></defs><title>Legendary_icon</title><g id="Слой_2" data-name="Слой 2"><g id="Complete"><g id="Legendary_icon"><path class="cls-1" d="M81.48,198.44V336.92a3,3,0,0,1-5.1,2.16l-9.51-9.89a29.41,29.41,0,0,1-8.11-20.35V198.44Z"/><path class="cls-1" d="M237.35,198.44v110.4a29.41,29.41,0,0,1-8.11,20.35l-9.51,9.89a3,3,0,0,1-5.1-2.16V198.44Z"/><path class="cls-1" d="M203.22,155.84v177.8a6.35,6.35,0,0,1-8.37,6L158.2,327.42a34.35,34.35,0,0,0-22.19.12l-34.65,12a6.36,6.36,0,0,1-8.43-6V155.84Z"/><path class="cls-2" d="M147.08,287a121.15,121.15,0,0,1-54.15-12.64V301a146.62,146.62,0,0,0,110.29-.82V273.32A121.08,121.08,0,0,1,147.08,287ZM58.76,249v32.6A144.35,144.35,0,0,0,81.48,295.8v-28A122.9,122.9,0,0,1,61,251.32C60.23,250.56,59.49,249.8,58.76,249Zm174.42,2.3a122.38,122.38,0,0,1-18.55,15.24v28.25a145.86,145.86,0,0,0,22.72-14.7V246.93Q235.33,249.18,233.18,251.32Z"/><path class="cls-3" d="M146.1,34.09A121.75,121.75,0,1,1,60,69.75,121,121,0,0,1,146.1,34.09m0-24.35a146.11,146.11,0,1,0,146.11,146.1A146.1,146.1,0,0,0,146.1,9.74Z"/><path class="cls-2" d="M267.86,146.1a121.74,121.74,0,1,1-29.45-79.4A121.76,121.76,0,0,1,267.86,146.1Z"/><circle class="cls-1" cx="146.1" cy="136.36" r="121.75"/><path class="cls-4" d="M238.41,66.7,26.52,123.11A121.78,121.78,0,0,1,238.41,66.7Z"/><path class="cls-5" d="M149.41,0c-1.1,0-2.2,0-3.31,0a146.88,146.88,0,0,0-27.69,2.62A144.9,144.9,0,0,0,95.53,9a146.2,146.2,0,1,0,53.88-9ZM245.6,216.33a122.4,122.4,0,0,1-13.4,15.87q-4,4-8.3,7.57a119.55,119.55,0,0,1-19.75,13.42A121.8,121.8,0,1,1,105.44,31.28a119.13,119.13,0,0,1,23.2-5.68,121.79,121.79,0,0,1,117,190.73Z"/><path class="cls-6" d="M95.53,9l9.91,22.29A122.42,122.42,0,0,0,34.2,98L21.59,69.64A146.55,146.55,0,0,1,95.53,9Z"/><path class="cls-6" d="M214.05,275.48a146.64,146.64,0,0,1-94.55,14.31l-12.61-28.36a122.42,122.42,0,0,0,97.26-8.24Z"/><path class="cls-6" d="M149.41,0,160.6,25.2a123.26,123.26,0,0,0-32,.4l-10.23-23A146.88,146.88,0,0,1,146.1,0C147.21,0,148.31,0,149.41,0Z"/><path class="cls-6" d="M256.79,241.47a146.38,146.38,0,0,1-22.68,21.26l-10.21-23q4.29-3.57,8.3-7.57a122.4,122.4,0,0,0,13.4-15.87Z"/><path class="cls-2" d="M194.92,71.36v-.09h0a2.52,2.52,0,0,0-.09-.67,2.8,2.8,0,0,0-2.49-2.07L164.07,66.1a2.82,2.82,0,0,1-2.37-1.71l-11-26.12a2.83,2.83,0,0,0-5.22,0l-11,26.12A2.83,2.83,0,0,1,132,66.1l-28.24,2.43a2.79,2.79,0,0,0-2.5,2.08,2.92,2.92,0,0,0-.07,1.14l0,5,10.17,5.33.65,0,11.59,10a2.93,2.93,0,0,1,.82,1.19,2.9,2.9,0,0,1,.08,1.6l-6.42,27.62a2.93,2.93,0,0,0,0,.93h0v5l5.52-1.54-.27-1.91,23.32-14.07a2.88,2.88,0,0,1,2.93,0l14.54,8.78-1-.25,8.8,8.89,6.25.42,0-5.32a3,3,0,0,0-.06-.94L171.6,94.85a2.79,2.79,0,0,1,.22-1.89,2.82,2.82,0,0,1,.68-.9L189.9,77l5-.33v-5.3Z"/><path class="cls-4" d="M148.06,110.71l-30,17.05v1.62a4.52,4.52,0,0,0,4.5,4.55h0a4.46,4.46,0,0,0,2.11-.53l21.29-11.46a4.5,4.5,0,0,1,4.3,0l21.28,11.46a4.47,4.47,0,0,0,2.12.53h0a4.53,4.53,0,0,0,4.5-4.55v-1.62Z"/><path class="cls-5" d="M193.93,78.69,172.5,97.26a2.68,2.68,0,0,0-.68.89,2.8,2.8,0,0,0-.22,1.89L178,127.67a2.84,2.84,0,0,1-4.23,3.06l-24.28-14.65a2.95,2.95,0,0,0-2.93,0L122.3,130.73a2.79,2.79,0,0,1-3.52-.49,2.75,2.75,0,0,1-.7-2.57L124.5,100a2.86,2.86,0,0,0-.08-1.59,2.93,2.93,0,0,0-.82-1.19L102.17,78.69a2.84,2.84,0,0,1,1.62-5L132,71.3a3,3,0,0,0,.95-.25,2.8,2.8,0,0,0,1.42-1.47l11-26.12a2.83,2.83,0,0,1,5.22,0l11,26.12a2.83,2.83,0,0,0,2.37,1.72l28.26,2.42a2.83,2.83,0,0,1,1.6,5Z"/><path class="cls-6" d="M194.82,75.8,148.06,86.44V41.73a2.8,2.8,0,0,1,2.61,1.73l11,26.12a2.83,2.83,0,0,0,2.37,1.72l28.26,2.42A2.81,2.81,0,0,1,194.82,75.8Z"/><path class="cls-6" d="M177.13,130.44l-29.07-44,23.76,11.71a2.8,2.8,0,0,0-.22,1.89L178,127.67A2.77,2.77,0,0,1,177.13,130.44Z"/><path class="cls-6" d="M148.06,86.44,101.29,75.81a2.8,2.8,0,0,1,2.5-2.09L132,71.3a3,3,0,0,0,.95-.25Z"/><path class="cls-6" d="M148.06,86.44v29.25a2.84,2.84,0,0,0-1.47.39L122.3,130.73a2.79,2.79,0,0,1-3.52-.49Z"/><path class="cls-7" d="M163.74,83.7c5.13-1.33,10.25-2.7,15.32-4.32-5.27.74-10.48,1.72-15.68,2.74-2.6.54-5.2,1-7.78,1.63-2.2.49-4.41,1-6.6,1.49,0-3.9-.1-7.8-.23-11.71-.07-2.15-.17-4.3-.28-6.45s-.25-4.3-.43-6.45c-.19,2.15-.32,4.3-.44,6.45s-.21,4.3-.27,6.45c-.14,3.9-.21,7.8-.24,11.7L141.35,84c-2.32-.47-4.63-1-6.95-1.41s-4.65-.88-7-1.3-4.67-.78-7-1.09c2.26.74,4.54,1.39,6.81,2s4.56,1.26,6.85,1.85,4.59,1.15,6.88,1.72l5.55,1.29c-1,1.46-1.92,2.9-2.86,4.37-1.18,1.86-2.38,3.71-3.54,5.59-2.33,3.75-4.61,7.53-6.73,11.42,2.78-3.45,5.4-7,8-10.59,1.3-1.79,2.55-3.6,3.81-5.41,1-1.42,2-2.87,2.94-4.3l14.76,20.65L149.58,87.07c2.15-.48,4.29-1,6.44-1.48C158.6,85,161.17,84.34,163.74,83.7Z"/><path class="cls-2" d="M142.48,151.87v-.09h0a2.93,2.93,0,0,0-.1-.66,2.8,2.8,0,0,0-2.49-2.08l-28.26-2.42a2.82,2.82,0,0,1-2.36-1.72l-11-26.12a2.83,2.83,0,0,0-5.22,0L82,144.9a2.71,2.71,0,0,1-1.42,1.46,2.74,2.74,0,0,1-.94.26L51.35,149a2.8,2.8,0,0,0-2.49,2.09,2.87,2.87,0,0,0-.08,1.13l0,5,10.17,5.34.64-.05,11.59,10.05a2.87,2.87,0,0,1,.82,1.18,2.81,2.81,0,0,1,.09,1.6L65.65,203a3,3,0,0,0-.05.93h0v5l5.51-1.54-.27-1.91L94.15,191.4a2.88,2.88,0,0,1,1.47-.4,2.84,2.84,0,0,1,1.46.4l14.55,8.78-1-.25,8.79,8.89,6.25.43,0-5.33a2.76,2.76,0,0,0-.06-.94l-6.43-27.62a2.8,2.8,0,0,1,.23-1.89,2.55,2.55,0,0,1,.68-.89l17.4-15.08,5-.32v-5.31Z"/><path class="cls-4" d="M95.62,191.23l-30.05,17v1.63a4.52,4.52,0,0,0,4.5,4.54h0a4.5,4.5,0,0,0,2.12-.53l21.28-11.46a4.55,4.55,0,0,1,4.3,0l21.28,11.46a4.5,4.5,0,0,0,2.12.53h0a4.52,4.52,0,0,0,4.5-4.54v-1.63Z"/><path class="cls-5" d="M141.5,159.21l-21.43,18.56a2.59,2.59,0,0,0-.68.9,2.79,2.79,0,0,0-.23,1.89l6.43,27.62a2.83,2.83,0,0,1-4.23,3.07L97.08,196.6a2.84,2.84,0,0,0-1.46-.4,2.88,2.88,0,0,0-1.47.4L69.87,211.25a2.84,2.84,0,0,1-4.22-3.07l6.42-27.62A2.81,2.81,0,0,0,72,179a2.84,2.84,0,0,0-.82-1.19L49.73,159.21a2.84,2.84,0,0,1,1.62-5l28.25-2.43A2.84,2.84,0,0,0,82,150.1L93,124a2.83,2.83,0,0,1,5.22,0l11,26.13a2.82,2.82,0,0,0,2.36,1.71l28.26,2.43a2.83,2.83,0,0,1,1.61,5Z"/><path class="cls-6" d="M142.38,156.31,95.62,167V122.24A2.82,2.82,0,0,1,98.23,124l11,26.13a2.82,2.82,0,0,0,2.36,1.71l28.26,2.43A2.78,2.78,0,0,1,142.38,156.31Z"/><path class="cls-6" d="M124.7,211,95.62,167l23.77,11.72a2.79,2.79,0,0,0-.23,1.89l6.43,27.62A2.79,2.79,0,0,1,124.7,211Z"/><path class="cls-6" d="M95.62,167,48.86,156.32a2.78,2.78,0,0,1,2.49-2.08l28.25-2.43a2.73,2.73,0,0,0,.94-.25Z"/><path class="cls-6" d="M95.62,167V196.2a2.88,2.88,0,0,0-1.47.4L69.87,211.25a2.79,2.79,0,0,1-3.53-.5Z"/><path class="cls-7" d="M111.3,164.21c5.14-1.32,10.26-2.7,15.32-4.31-5.26.73-10.48,1.71-15.68,2.74-2.59.53-5.19,1.05-7.78,1.63q-3.3.72-6.6,1.48,0-5.85-.23-11.7c-.06-2.15-.17-4.3-.28-6.45s-.24-4.3-.43-6.45c-.19,2.15-.32,4.3-.43,6.45s-.21,4.3-.28,6.45q-.19,5.85-.23,11.7l-5.77-1.28c-2.32-.47-4.63-1-7-1.42s-4.65-.88-7-1.29-4.67-.79-7-1.1c2.25.74,4.53,1.39,6.81,2.05s4.56,1.26,6.85,1.85,4.58,1.15,6.88,1.73l5.55,1.29c-1,1.45-1.93,2.9-2.86,4.37-1.19,1.85-2.39,3.71-3.54,5.59-2.33,3.75-4.61,7.53-6.74,11.41,2.78-3.45,5.4-7,8-10.59,1.29-1.78,2.54-3.6,3.81-5.41,1-1.42,2-2.86,2.94-4.3l14.75,20.66L97.15,167.58c2.15-.47,4.29-1,6.43-1.47C106.16,165.51,108.73,164.85,111.3,164.21Z"/><path class="cls-2" d="M247.36,151.87v-.09h0a2.93,2.93,0,0,0-.1-.66,2.8,2.8,0,0,0-2.49-2.08l-28.26-2.42a2.82,2.82,0,0,1-2.36-1.72l-11-26.12a2.83,2.83,0,0,0-5.22,0l-11,26.12a2.92,2.92,0,0,1-2.37,1.72L156.22,149a2.8,2.8,0,0,0-2.49,2.09,2.87,2.87,0,0,0-.08,1.13l0,5,10.17,5.34.64-.05L176,172.58a2.87,2.87,0,0,1,.82,1.18,2.81,2.81,0,0,1,.09,1.6L170.52,203a3,3,0,0,0-.05.93h0v5l5.51-1.54-.27-1.91L199,191.4a2.88,2.88,0,0,1,1.47-.4,2.84,2.84,0,0,1,1.46.4l14.55,8.78-1-.25,8.79,8.89,6.25.43,0-5.33a2.76,2.76,0,0,0-.06-.94L224,175.36a2.86,2.86,0,0,1,.23-1.89,2.55,2.55,0,0,1,.68-.89l17.4-15.08,5-.32v-5.31Z"/><path class="cls-4" d="M200.49,191.23l-30.05,17v1.63a4.52,4.52,0,0,0,4.5,4.54h0a4.47,4.47,0,0,0,2.12-.53l21.28-11.46a4.55,4.55,0,0,1,4.3,0l21.29,11.46a4.43,4.43,0,0,0,2.11.53h0a4.52,4.52,0,0,0,4.5-4.54v-1.63Z"/><path class="cls-5" d="M246.37,159.21l-21.43,18.56a2.59,2.59,0,0,0-.68.9,2.85,2.85,0,0,0-.23,1.89l6.43,27.62a2.77,2.77,0,0,1-.89,2.78,2.82,2.82,0,0,1-3.34.29L202,196.6a2.84,2.84,0,0,0-1.46-.4,2.88,2.88,0,0,0-1.47.4l-24.28,14.65a2.84,2.84,0,0,1-4.22-3.07l6.42-27.62a2.81,2.81,0,0,0-.09-1.6,2.84,2.84,0,0,0-.82-1.19L154.6,159.21a2.81,2.81,0,0,1-.87-2.89,2.78,2.78,0,0,1,2.49-2.08l28.25-2.43a2.73,2.73,0,0,0,.94-.25,2.79,2.79,0,0,0,1.43-1.46l11-26.13a2.83,2.83,0,0,1,5.22,0l11,26.13a2.82,2.82,0,0,0,2.36,1.71l28.26,2.43a2.83,2.83,0,0,1,1.61,5Z"/><path class="cls-6" d="M247.25,156.31,200.49,167V122.24A2.82,2.82,0,0,1,203.1,124l11,26.13a2.82,2.82,0,0,0,2.36,1.71l28.26,2.43A2.78,2.78,0,0,1,247.25,156.31Z"/><path class="cls-6" d="M229.57,211l-29.08-44,23.77,11.72a2.85,2.85,0,0,0-.23,1.89l6.43,27.62A2.77,2.77,0,0,1,229.57,211Z"/><path class="cls-6" d="M200.49,167l-46.76-10.63a2.78,2.78,0,0,1,2.49-2.08l28.25-2.43a2.73,2.73,0,0,0,.94-.25Z"/><path class="cls-6" d="M200.49,167V196.2a2.88,2.88,0,0,0-1.47.4l-24.28,14.65a2.79,2.79,0,0,1-3.53-.5Z"/><path class="cls-7" d="M216.17,164.21c5.14-1.32,10.26-2.7,15.33-4.31-5.27.73-10.48,1.71-15.69,2.74-2.59.53-5.19,1.05-7.78,1.63q-3.3.72-6.6,1.48,0-5.85-.23-11.7c-.06-2.15-.17-4.3-.27-6.45s-.25-4.3-.44-6.45c-.19,2.15-.32,4.3-.43,6.45s-.21,4.3-.28,6.45c-.13,3.9-.2,7.8-.23,11.7l-5.77-1.28c-2.31-.47-4.62-1-6.95-1.42s-4.65-.88-7-1.29-4.67-.79-7-1.1c2.25.74,4.53,1.39,6.81,2.05s4.56,1.26,6.85,1.85,4.59,1.15,6.88,1.73l5.55,1.29c-1,1.45-1.92,2.9-2.86,4.37-1.19,1.85-2.39,3.71-3.54,5.59-2.33,3.75-4.61,7.53-6.74,11.41,2.78-3.45,5.4-7,8-10.59,1.29-1.78,2.55-3.6,3.81-5.41,1-1.42,2-2.86,2.94-4.3l14.75,20.66L202,167.58c2.15-.47,4.29-1,6.43-1.47C211,165.51,213.6,164.85,216.17,164.21Z"/></g></g></g></svg>