<svg xmlns="http://www.w3.org/2000/svg" viewBox="0 0 292.21 340"><defs><style>.cls-1{fill:#7045e6;}.cls-2{fill:#351699;}.cls-3{fill:#915c39;}.cls-4{fill:#8559ff;}.cls-5{fill:#eea764;}.cls-6{fill:#ffe2a6;}.cls-7{fill:#f5ae69;}.cls-8{fill:#ffd599;}.cls-9{fill:#fff;}</style></defs><title>Mystical_icon</title><g id="Слой_2" data-name="Слой 2"><g id="Complete"><g id="Mystical_icon"><path class="cls-1" d="M201.26,155.85v177.8a6.35,6.35,0,0,1-8.37,6l-36.65-12.24a34.42,34.42,0,0,0-22.19.12l-34.64,12a6.37,6.37,0,0,1-8.44-6V155.85Z"/><path class="cls-2" d="M145.13,287A121.23,121.23,0,0,1,91,274.34V301a146.62,146.62,0,0,0,110.29-.82V273.32A120.89,120.89,0,0,1,145.13,287Z"/><path class="cls-3" d="M146.11,34.09A121.75,121.75,0,1,1,60,69.75a121,121,0,0,1,86.1-35.66m0-24.35a146.11,146.11,0,1,0,146.1,146.11A146.11,146.11,0,0,0,146.11,9.74Z"/><path class="cls-2" d="M267.86,146.1a121.73,121.73,0,1,1-29.44-79.4A121.75,121.75,0,0,1,267.86,146.1Z"/><circle class="cls-1" cx="146.11" cy="136.36" r="121.75"/><path class="cls-4" d="M238.42,66.7,26.53,123.11A121.78,121.78,0,0,1,238.42,66.7Z"/><path class="cls-5" d="M288.33,112.54A146,146,0,0,0,149.41,0c-1.1,0-2.2,0-3.31,0a146.88,146.88,0,0,0-27.69,2.62A144.9,144.9,0,0,0,95.53,9a146,146,0,1,0,192.8,103.55ZM245.6,216.33a122.4,122.4,0,0,1-13.4,15.87q-4,4-8.3,7.57a119.55,119.55,0,0,1-19.75,13.42A121.8,121.8,0,1,1,105.44,31.28a119.13,119.13,0,0,1,23.2-5.68,121.79,121.79,0,0,1,117,190.73Z"/><path class="cls-6" d="M95.54,9l9.9,22.29A122.42,122.42,0,0,0,34.2,98L21.6,69.64A146.47,146.47,0,0,1,95.54,9Z"/><path class="cls-6" d="M214.06,275.48a146.64,146.64,0,0,1-94.55,14.31l-12.62-28.36a122.42,122.42,0,0,0,97.26-8.24Z"/><path class="cls-6" d="M149.41,0,160.6,25.2a123.26,123.26,0,0,0-32,.4l-10.22-23A146.8,146.8,0,0,1,146.11,0C147.21,0,148.31,0,149.41,0Z"/><path class="cls-6" d="M256.8,241.47a146.45,146.45,0,0,1-22.69,21.26l-10.21-23q4.31-3.57,8.3-7.57a122.4,122.4,0,0,0,13.4-15.87Z"/><path class="cls-2" d="M233.25,138.86a4.15,4.15,0,0,0-3.21-4.55l-61.91-14.79A4.22,4.22,0,0,1,165,116.4l-14.8-61.91a4.22,4.22,0,0,0-8.21,0L127.21,116.4a4.23,4.23,0,0,1-3.13,3.12L62.17,134.31a4.13,4.13,0,0,0-3.24,4.11v7.2H75.11l49,11.7a4.23,4.23,0,0,1,3.13,3.12L142,222.35a4.22,4.22,0,0,0,8.21,0L165,160.44a4.22,4.22,0,0,1,3.12-3.12l49-11.7h16.15Z"/><path class="cls-4" d="M178.05,160.17l5.38-9.36-37-1.12h-.32l-37,1.12,5.38,9.36-53-11.31,56.73,21.25a5.32,5.32,0,0,1,3.27,3.58l15.4,56.11a9.61,9.61,0,0,0,9.26,7h.3a9.59,9.59,0,0,0,9.25-7l15.4-56.11a5.35,5.35,0,0,1,3.27-3.58l56.74-21.25Z"/><path class="cls-7" d="M233.25,145.62a4.09,4.09,0,0,1-3.21,3.62L168.13,164a4.21,4.21,0,0,0-2.24,1.37,4.34,4.34,0,0,0-.89,1.75l-14.78,61.91a4.22,4.22,0,0,1-8.22,0l-14.79-61.91a4.21,4.21,0,0,0-3.13-3.12L62.17,149.24A4.11,4.11,0,0,1,59,145.62a4.17,4.17,0,0,1,3.21-4.6l61.91-14.79a4.18,4.18,0,0,0,1.76-.88,4.29,4.29,0,0,0,1.37-2.24L142,61.2a4.22,4.22,0,0,1,8.22,0L165,123.11a4.21,4.21,0,0,0,3.13,3.12L230,141A4.15,4.15,0,0,1,233.25,145.62Z"/><path class="cls-8" d="M233.25,145.62H146.11V58a4.15,4.15,0,0,1,4.11,3.25L165,123.11a4.21,4.21,0,0,0,3.13,3.12L230,141A4.15,4.15,0,0,1,233.25,145.62Z"/><path class="cls-8" d="M165.89,165.4a4.34,4.34,0,0,0-.89,1.75l-14.78,61.91a4.14,4.14,0,0,1-4.11,3.25V145.62Z"/><path class="cls-8" d="M146.11,145.62H59a4.17,4.17,0,0,1,3.21-4.6l61.91-14.79a4.18,4.18,0,0,0,1.76-.88Z"/><path class="cls-9" d="M197.83,145.25q-8.61-.33-17.24-.55c-5.74-.17-11.49-.24-17.23-.36l-15.81-.16v-.49h0c0-4.76,0-9.51-.08-14.27-.07-5.39-.12-10.79-.25-16.19S147,102.44,146.8,97s-.39-10.8-.7-16.2c-.31,5.4-.5,10.8-.69,16.2s-.33,10.79-.42,16.19-.18,10.8-.24,16.19c-.07,4.75-.07,9.5-.09,14.25l-15.79-.06c-5.75,0-11.5,0-17.25.12s-11.49.17-17.24.3-11.49.32-17.24.61c5.74.38,11.49.61,17.23.86s11.49.41,17.24.55,11.49.24,17.24.36l15.8.16v.49h0c0,4.76,0,9.51.09,14.26.07,5.4.12,10.8.24,16.2s.26,10.79.43,16.19.38,10.8.69,16.19c.31-5.39.5-10.79.69-16.19s.33-10.79.42-16.19.18-10.8.25-16.2c.06-4.75.06-9.5.08-14.24l15.8.06c5.74,0,11.49,0,17.24-.12s11.49-.17,17.24-.3,11.5-.32,17.25-.62C209.32,145.73,203.58,145.49,197.83,145.25Z"/></g></g></g></svg>