<svg xmlns="http://www.w3.org/2000/svg" viewBox="0 0 292.16 300"><defs><style>.cls-1{fill:#b3671b;}.cls-2{fill:#f5b331;}.cls-3{fill:#ffe566;}.cls-4{fill:#ffcf40;}.cls-5{fill:#ffec73;}.cls-6{fill:#fac64b;}.cls-7{fill:#ffea80;}.cls-8{fill:#00e2dc;}.cls-9{fill:#00b3af;}.cls-10{fill:#4dfffa;}</style></defs><title>Rare_icon</title><g id="Слой_2" data-name="Слой 2"><g id="Complete"><g id="Rare_icon"><path class="cls-1" d="M276.23,115.45,206.15,45.37l-21.6-21.6A54,54,0,0,0,146.08,7.84c-1.66,0-3.3.07-4.94.22a54,54,0,0,0-33.25,15.42l-.28.29-22,22-5,5L38,93.36,30.37,101,15.92,115.45a54.47,54.47,0,0,0,0,76.94l91.69,91.68c1.24,1.25,2.53,2.41,3.87,3.52a53.43,53.43,0,0,0,10.64,6.88,54.53,54.53,0,0,0,60.64-8.68c.6-.56,1.2-1.13,1.79-1.72l.49-.49,22.33-22.33L221,247.59l50.9-50.9,4.3-4.3A54.47,54.47,0,0,0,276.23,115.45Zm-14.91,56.86a27.06,27.06,0,0,1-2.42,2.75l-91.68,91.68a29.89,29.89,0,0,1-42.28,0L33.25,175.06a29.91,29.91,0,0,1,0-42.28l7.62-7.62,7.38-7.38L95.81,70.22,118.13,47.9l6.81-6.8a29.48,29.48,0,0,1,7.45-5.44,29.83,29.83,0,0,1,13.69-3.32,30.58,30.58,0,0,1,5.87.58,29.73,29.73,0,0,1,15.27,8.18l91.68,91.68A29.89,29.89,0,0,1,261.32,172.31Z"/><path class="cls-1" d="M258.9,167.22,167.22,258.9a29.88,29.88,0,0,1-42.28,0L33.25,167.22a29.91,29.91,0,0,1,0-42.28L71.86,86.33l47.56-47.56,5.52-5.52a29.91,29.91,0,0,1,42.28,0l91.68,91.69A29.89,29.89,0,0,1,258.9,167.22Z"/><path class="cls-2" d="M259,174,167.3,265.69a29.94,29.94,0,0,1-42.29,0L33.33,174a29.91,29.91,0,0,1,0-42.28L73.89,91.16l1.89-1.89L121.45,43.6l1.89-1.89.5-.5L125,40a29.64,29.64,0,0,1,15.25-8.16q1.26-.24,2.52-.39c.37,0,.72-.08,1.08-.11a30.19,30.19,0,0,1,8.16.48,28.38,28.38,0,0,1,5.84,1.81h0a28.93,28.93,0,0,1,7,4.17A28.07,28.07,0,0,1,167.3,40L259,131.72A29.91,29.91,0,0,1,259,174Z"/><path class="cls-3" d="M198.54,227.59,167.22,258.9a29.86,29.86,0,0,1-19.39,8.71L73.89,91.16l1.89-1.89L121.45,43.6Z"/><path class="cls-3" d="M228.93,197.19l-13.66,13.67-75-179q1.26-.24,2.52-.39c.37,0,.72-.08,1.08-.11a30.19,30.19,0,0,1,8.16.48,28.38,28.38,0,0,1,5.84,1.81h0a29.54,29.54,0,0,1,3.19,1.58Z"/><path class="cls-4" d="M5,169a1.78,1.78,0,0,0,.12.29c.13.28.27.56.41.83C5.38,169.73,5.2,169.36,5,169ZM146.08,292.16l-1.58,0c.95,0,1.91,0,2.86,0ZM147.08,0c1.33,0,2.64.09,4,.2C149.72.1,148.4,0,147.08,0ZM162.74,2.6a55.67,55.67,0,0,1,19.47,11.12A54,54,0,0,0,162.74,2.6ZM287.13,123.17c.56,1.21,1.07,2.43,1.54,3.67C288.21,125.59,287.7,124.37,287.13,123.17Z"/><path class="cls-1" d="M292.15,150.68s0,0,0,0c0-.85-.07-1.69-.12-2.53s-.13-1.54-.21-2.31c-.16-1.43-.38-2.85-.65-4.25-.08-.43-.17-.85-.27-1.28s-.18-.86-.29-1.28-.21-.85-.32-1.27q-.35-1.28-.75-2.52c-.14-.42-.27-.84-.42-1.26s-.29-.83-.45-1.24c-.47-1.24-1-2.46-1.54-3.67-.2-.4-.38-.8-.58-1.2s-.39-.8-.61-1.19-.42-.79-.63-1.17h0c-.44-.79-.9-1.55-1.37-2.32s-.95-1.47-1.45-2.19c-.31-.44-.62-.89-.95-1.32s-.48-.63-.72-1l-.85-1.08-.7-.84q-.64-.77-1.32-1.5c-.56-.61-1.13-1.2-1.72-1.79L184.55,21.81c-.33-.34-.67-.66-1-1s-.88-.83-1.33-1.23A55.49,55.49,0,0,0,162.74,8.49c-.47-.15-1-.31-1.43-.45-.64-.18-1.27-.35-1.91-.51l-1.86-.44A51.79,51.79,0,0,0,152,6.2l-1-.11c-1.33-.11-2.64-.18-4-.2h-2.31c-.51,0-1,0-1.55.07-.7,0-1.4.08-2.08.14l-1.2.12-1.18.15-1,.14c-.75.11-1.48.24-2.22.39l-.85.17q-.78.16-1.56.36c-.32.08-.65.15-1,.24-1.43.37-2.84.81-4.23,1.31-.37.12-.74.25-1.1.39-.62.23-1.24.48-1.84.73h0c-.61.27-1.22.53-1.82.81l-1.12.54-.18.08-2,1.06-.25.14c-.78.44-1.55.89-2.32,1.37-.38.24-.76.48-1.14.74q-1,.69-2.07,1.44a6.22,6.22,0,0,0-.58.43,53,53,0,0,0-5.88,5.1L16.13,113.28c-.4.4-.79.81-1.19,1.22s-.82.88-1.22,1.33a55.59,55.59,0,0,0-11.56,20.9c-.18.63-.35,1.27-.52,1.91s-.29,1.23-.43,1.86A53.14,53.14,0,0,0,.32,146c0,.32-.08.66-.11,1-.11,1.32-.18,2.64-.2,4,0,.73,0,1.47,0,2.2v.1c0,.52,0,1,.07,1.56,0,.7.07,1.39.14,2.08l.12,1.19c0,.41.1.8.15,1.19s.09.67.13,1c.12.75.25,1.48.4,2.22.05.28.1.56.17.85q.17.79.36,1.56.11.48.24,1c.37,1.43.8,2.85,1.3,4.23.13.36.26.74.4,1.1.23.62.48,1.23.73,1.84h0c.27.61.53,1.22.81,1.82.17.37.35.74.53,1.11a.66.66,0,0,0,.09.19c.35.67.7,1.35,1.06,2a1.88,1.88,0,0,0,.14.24c.44.79.89,1.56,1.37,2.33.24.38.48.76.74,1.13.46.71.94,1.4,1.44,2.08.13.2.28.39.43.58a55.16,55.16,0,0,0,4.81,5.6l92,92c.93.93,1.89,1.83,2.87,2.68l.83.7a8.75,8.75,0,0,0,.69.55c.27.24.55.45.82.66s.78.61,1.18.89.82.6,1.23.88.61.42.91.61l1,.63.29.17c.34.22.69.44,1,.63s.77.46,1.16.68l1.18.64c.44.23.88.45,1.33.66l.46.23c.6.29,1.2.57,1.82.83.81.35,1.62.69,2.45,1,.41.16.83.3,1.24.45s.84.29,1.26.42q1.24.4,2.52.75c.42.12.84.22,1.27.32l1,.24h0l1,.21c.35.08.69.15,1.05.21l.73.12c.86.15,1.73.27,2.59.38l.72.08.79.07.28,0c1.56.14,3.13.21,4.72.21h1.4l2.43-.12c.77-.06,1.54-.13,2.3-.21l1.07-.13,1.07-.16c.71-.1,1.42-.22,2.12-.36l1.28-.26,1.28-.3c.43-.1.85-.2,1.27-.32.84-.23,1.69-.48,2.52-.75.42-.13.84-.27,1.25-.42s.84-.29,1.25-.45c.62-.23,1.23-.48,1.84-.73s1.23-.52,1.82-.81l1.21-.58c.39-.18.79-.39,1.19-.6l.58-.32c.2-.1.41-.2.6-.32.79-.44,1.55-.9,2.31-1.37.38-.23.74-.46,1.1-.71s.86-.56,1.27-.85.77-.55,1.14-.84.64-.48,1-.72.73-.56,1.08-.85l.85-.7q.77-.64,1.5-1.32c.6-.56,1.2-1.13,1.79-1.72l.49-.49,9.26-9.26,81.93-81.93c.93-.93,1.82-1.89,2.68-2.87.23-.28.47-.55.7-.84l.14-.16c.15-.18.28-.34.41-.52s.45-.55.66-.82.61-.79.89-1.18.6-.82.88-1.24.41-.6.61-.91.42-.64.63-1a1.4,1.4,0,0,0,.17-.28c.22-.34.44-.69.63-1s.46-.78.68-1.17.43-.78.63-1.17.48-.9.69-1.35c.36-.74.72-1.5,1-2.26s.69-1.63,1-2.45c.16-.41.3-.83.45-1.25s.28-.83.42-1.25c.27-.83.52-1.68.75-2.52.11-.42.22-.84.32-1.27s.17-.71.25-1.06c.14-.62.27-1.24.38-1.86.06-.31.12-.62.16-.94.15-.85.27-1.72.38-2.58,0-.13,0-.25,0-.38,0-.37.07-.75.11-1.13q.15-1.71.21-3.42c0-.52,0-1,0-1.58S292.16,151.11,292.15,150.68ZM244.9,180.45l.52.52a4,4,0,0,1,0,5.61l-65.65,65.65a4,4,0,0,1-5.61,0l-.8-.81c-.43-.42-.86-.83-1.3-1.23a39.71,39.71,0,0,0-54.88,1.23,3.94,3.94,0,0,1-5.6,0l-11.5-11.49L62.38,202.23,45.81,185.66a4,4,0,0,1,0-5.61l.8-.8a39.71,39.71,0,0,0,0-56.18,4,4,0,0,1,0-5.6l65.26-65.26a4,4,0,0,1,5.61,0l.92.92a39.73,39.73,0,0,0,56.18,0l.52-.52a4,4,0,0,1,5.61,0l65.13,65.13a4,4,0,0,1,0,5.61l-.92.92A39.73,39.73,0,0,0,244.9,180.45Z"/><path class="cls-4" d="M292.15,144.79s0,0,0,0q0-1.26-.12-2.52c-.06-.78-.13-1.54-.21-2.31-.16-1.43-.38-2.85-.65-4.25-.08-.43-.17-.85-.27-1.29s-.18-.85-.29-1.27-.21-.85-.32-1.27q-.35-1.28-.75-2.52c-.14-.42-.27-.85-.42-1.26s-.29-.83-.45-1.24c-.47-1.24-1-2.46-1.54-3.67-.2-.4-.38-.8-.58-1.2s-.39-.8-.61-1.19-.42-.79-.63-1.18h0c-.44-.78-.9-1.54-1.37-2.31s-.95-1.47-1.45-2.19c-.31-.44-.62-.89-.95-1.32s-.48-.63-.72-1l-.85-1.08-.7-.84q-.64-.77-1.32-1.5c-.56-.61-1.13-1.2-1.72-1.79L184.55,15.92l-1-1c-.44-.41-.88-.82-1.33-1.22A55.67,55.67,0,0,0,162.74,2.6l-1.43-.44-1.91-.52-1.86-.43A51.79,51.79,0,0,0,152,.32l-1-.11c-1.33-.11-2.64-.18-4-.2h-2.31c-.51,0-1,0-1.55.07-.7,0-1.4.07-2.08.14l-1.2.12-1.18.15-1,.13c-.75.12-1.48.25-2.22.4-.28.05-.57.1-.85.17q-.78.17-1.56.36c-.32.07-.65.15-1,.24-1.43.37-2.84.8-4.23,1.3l-1.1.4c-.62.23-1.24.48-1.84.73h0c-.61.27-1.22.53-1.82.81l-.28.13-.84.4a.76.76,0,0,0-.18.09l-2,1.06a2,2,0,0,0-.25.14c-.78.44-1.55.89-2.32,1.37-.38.24-.76.48-1.14.74-.9.58-1.79,1.21-2.65,1.87-.42.31-.84.64-1.26,1l-.49.39c-.43.34-.85.7-1.26,1.06l0,0c-.48.42-1,.85-1.42,1.29s-.77.72-1.14,1.09l-.28.27L16.13,107.4c-.4.4-.79.81-1.19,1.22s-.82.88-1.22,1.33a55.59,55.59,0,0,0-11.56,20.9c-.18.63-.35,1.27-.52,1.91s-.29,1.23-.43,1.86a53.14,53.14,0,0,0-.89,5.51c0,.32-.08.66-.11,1-.11,1.32-.18,2.64-.2,4,0,.73,0,1.47,0,2.2v.1c0,.52,0,1,.07,1.56,0,.7.07,1.39.14,2.08l.12,1.19c0,.41.1.8.15,1.19s.09.67.13,1c.12.74.25,1.48.4,2.21.05.29.1.57.17.86q.17.79.36,1.56.11.48.24,1c.37,1.43.8,2.85,1.3,4.23.13.36.26.74.4,1.1.23.62.48,1.23.73,1.84h0c.27.61.53,1.22.81,1.81.17.38.35.75.53,1.12a.66.66,0,0,0,.09.19c.35.67.7,1.35,1.06,2a1.88,1.88,0,0,0,.14.24c.44.79.89,1.56,1.37,2.32.24.39.48.77.74,1.14.46.71.94,1.4,1.44,2.08.13.2.28.39.43.58a54,54,0,0,0,4.81,5.59l92,92c.93.93,1.89,1.82,2.87,2.68l.83.7a8.75,8.75,0,0,0,.69.55c.27.24.55.45.82.66s.78.61,1.18.89.82.6,1.23.88l.91.61,1,.63.29.17c.34.22.69.44,1,.63s.77.46,1.16.68l1.18.63c.44.24.88.46,1.33.67l.46.23c.6.29,1.2.57,1.82.83.81.35,1.62.69,2.45,1,.41.16.83.3,1.24.45s.84.28,1.26.42q1.24.4,2.52.75l1.27.32,1,.24h0l1,.21c.35.08.69.15,1.05.21l.73.12c.86.15,1.73.27,2.59.38l.72.08c.26,0,.52,0,.79.07l.28,0c1.56.14,3.13.21,4.72.21h1.4q1.22,0,2.43-.12c.77-.06,1.54-.13,2.3-.21l1.07-.13,1.07-.16c.71-.1,1.42-.22,2.12-.36.43-.08.85-.17,1.28-.27s.85-.18,1.28-.29l1.27-.32c.84-.23,1.69-.48,2.52-.75.42-.14.84-.27,1.25-.42s.84-.29,1.25-.45c.62-.24,1.23-.48,1.84-.74s1.23-.52,1.82-.8l1.21-.58c.39-.18.79-.39,1.19-.61.19-.09.39-.2.58-.31s.41-.2.6-.32c.79-.44,1.55-.9,2.31-1.37.38-.23.74-.47,1.1-.71s.86-.56,1.27-.85.77-.55,1.14-.84.64-.48,1-.72.73-.56,1.08-.85l.85-.7q.77-.64,1.5-1.32c.6-.56,1.2-1.13,1.79-1.72l.49-.49,9.26-9.26,81.93-81.93c.93-.93,1.82-1.89,2.68-2.87.23-.28.47-.55.7-.84l.14-.16c.15-.18.28-.35.41-.52s.45-.55.66-.83.61-.78.89-1.17.6-.82.88-1.24.41-.6.61-.91.42-.65.63-1a1.4,1.4,0,0,0,.17-.28c.22-.35.44-.69.63-1s.46-.78.68-1.17.43-.78.63-1.17.48-.9.69-1.35c.36-.74.72-1.5,1-2.26s.69-1.63,1-2.45c.16-.41.3-.83.45-1.25s.28-.83.42-1.25c.27-.83.52-1.68.75-2.52.11-.42.22-.84.32-1.27s.17-.71.25-1.06c.14-.62.27-1.24.38-1.86.06-.31.12-.62.16-.94.15-.85.27-1.72.38-2.58,0-.13,0-.25,0-.38,0-.37.07-.75.11-1.13q.15-1.71.21-3.42c0-.52,0-1,0-1.58S292.16,145.23,292.15,144.79ZM244.9,174.57l.52.52a4,4,0,0,1,0,5.61l-65.65,65.65a4,4,0,0,1-5.61,0l-.8-.81c-.43-.42-.86-.83-1.3-1.23a39.71,39.71,0,0,0-54.88,1.23,3.94,3.94,0,0,1-5.6,0l-11.5-11.49L62.38,196.35,45.81,179.78a4,4,0,0,1,0-5.61l.8-.8a39.71,39.71,0,0,0,0-56.18,4,4,0,0,1,0-5.6l65.26-65.26a4,4,0,0,1,5.61,0l.92.92a41.06,41.06,0,0,0,4.69,4,39.77,39.77,0,0,0,51.49-4l.52-.52a4,4,0,0,1,5.61,0l65.13,65.13a4,4,0,0,1,0,5.61l-.92.92A39.73,39.73,0,0,0,244.9,174.57Z"/><polygon class="cls-5" points="85.57 37.96 95.81 62.38 48.25 109.94 38.02 85.52 80.58 42.95 85.57 37.96"/><path class="cls-5" d="M185,275.74l-.49.49c-.59.59-1.19,1.16-1.79,1.72s-1,.89-1.5,1.32l-.85.7c-.35.29-.71.57-1.08.85s-.62.49-1,.72-.76.56-1.14.84-.85.58-1.27.85-.72.48-1.1.71c-.76.47-1.52.93-2.31,1.37-.19.12-.4.22-.6.32s-.39.22-.58.31c-.4.22-.8.43-1.19.61l-1.21.58c-.59.28-1.2.55-1.82.8s-1.22.5-1.84.74c-.41.16-.83.3-1.25.45s-.83.28-1.25.42c-.83.27-1.68.52-2.52.75l-1.27.32c-.43.11-.86.21-1.28.29s-.85.19-1.28.27c-.7.14-1.41.26-2.12.36l-1.07.16-1.07.13c-.76.08-1.53.15-2.3.21s-1.62.09-2.43.12h-1.4c-1.59,0-3.16-.07-4.72-.21l-1.07-.09-.72-.08c-.86-.11-1.73-.23-2.59-.38l-.73-.12c-.36-.06-.7-.13-1.05-.21l-1-.21h0c-.34-.07-.69-.15-1-.24l-1.27-.32c-.85-.23-1.69-.47-2.52-.75-.42-.14-.85-.27-1.26-.42s-.83-.29-1.24-.45c-.83-.31-1.64-.65-2.45-1-.62-.26-1.22-.54-1.82-.83l-.45-.21v0l-22-52.55,11.5,11.49a3.94,3.94,0,0,0,5.6,0,39.71,39.71,0,0,1,54.88-1.23l2.74,7Z"/><path class="cls-5" d="M144.59,58.84a39.65,39.65,0,0,1-21.51-7.56L107.89,15.65h0c.37-.37.76-.73,1.14-1.08s.94-.87,1.42-1.29l0,0c.41-.36.83-.72,1.26-1.06l.49-.39c.42-.33.84-.66,1.26-1,.86-.66,1.75-1.29,2.65-1.87.38-.26.76-.5,1.14-.74.77-.48,1.54-.93,2.32-1.37a2,2,0,0,1,.25-.14l2-1.06a.76.76,0,0,1,.18-.09c.28-.14.55-.28.84-.41h0L130,22.05Z"/><polygon class="cls-5" points="221.03 239.75 207.37 253.41 197.12 229 210.79 215.34 221.03 239.75"/><path class="cls-1" d="M200.77,136.93a5.2,5.2,0,0,0-2.89-8.87l-33.14-4.82a5.19,5.19,0,0,1-3.92-2.84L146,90.36a5.46,5.46,0,0,0-1.09-1.47l-.37-5-6.06,4.37h0a5.11,5.11,0,0,0-1.81,2l-14.83,30a5.19,5.19,0,0,1-3.91,2.84l-30.56,4.44-.27-2.37-3.84,3.21h0a5.2,5.2,0,0,0-1.36,8.41l24,23.38a5.2,5.2,0,0,1,1.5,4.61l-5.67,33a5.21,5.21,0,0,0,7.55,5.49l29.65-15.59a5.18,5.18,0,0,1,4.84,0l29.65,15.59a5.15,5.15,0,0,0,5-.12h0l.06,0a5.18,5.18,0,0,0,1-.79l4.37-3.42-3.52-4.56-5.08-29.57a5.23,5.23,0,0,1,1.5-4.61Z"/><path class="cls-6" d="M180.13,159a4.86,4.86,0,0,0-.1,2.18l5.67,33a5.22,5.22,0,0,1-7.55,5.49l-2.23-1.16L148.5,184.07a5.23,5.23,0,0,0-2.42-.61,5.17,5.17,0,0,0-2.42.61L114,199.65a5.19,5.19,0,0,1-7.55-5.49l5.67-33a5.24,5.24,0,0,0-1.5-4.6l-24-23.38a5.2,5.2,0,0,1,2.88-8.87l32.68-4.75.47-.07a5.26,5.26,0,0,0,2.67-1.23,5,5,0,0,0,1.24-1.62l14.83-30a5.21,5.21,0,0,1,9.33,0l14.82,30a5.22,5.22,0,0,0,3.92,2.85l33.15,4.82a5.1,5.1,0,0,1,4,3,5.16,5.16,0,0,1-1.12,5.84l-24,23.38A5,5,0,0,0,180.13,159Z"/><path class="cls-7" d="M206.63,127.33l-60.55,18.75V83.7a5.14,5.14,0,0,1,4.66,2.89l14.82,30a5.22,5.22,0,0,0,3.92,2.85l33.15,4.82A5.1,5.1,0,0,1,206.63,127.33Z"/><path class="cls-7" d="M183.84,199.07l-37.76-53,34,12.89a4.86,4.86,0,0,0-.1,2.18l5.67,33A5.1,5.1,0,0,1,183.84,199.07Z"/><path class="cls-7" d="M146.08,146.08v37.38a5.17,5.17,0,0,0-2.42.61L114,199.65a5.21,5.21,0,0,1-6.69-1.61Z"/><path class="cls-7" d="M146.08,146.08,85.21,128.26a5.15,5.15,0,0,1,4.31-4l32.68-4.75.47-.07a5.26,5.26,0,0,0,2.67-1.23Z"/><path class="cls-1" d="M286.22,146.81a8.58,8.58,0,0,1-2.52,6.09l-14,14a8.64,8.64,0,0,1-12.18,0l-14.06-14a8.61,8.61,0,0,1,0-12.17l14.06-14a8.62,8.62,0,0,1,12.18,0l14,14A8.57,8.57,0,0,1,286.22,146.81Z"/><path class="cls-8" d="M282.71,146.81a7.25,7.25,0,0,1-2.13,5.15l-11.87,11.87a7.28,7.28,0,0,1-10.29,0L246.54,152a7.28,7.28,0,0,1,0-10.29l11.88-11.87a7.28,7.28,0,0,1,10.29,0l11.87,11.87A7.25,7.25,0,0,1,282.71,146.81Z"/><path class="cls-9" d="M282.71,146.81a7.25,7.25,0,0,1-2.13,5.15l-11.87,11.87a7.25,7.25,0,0,1-5.14,2.13V146.81Z"/><path class="cls-10" d="M244.43,146.81a7.24,7.24,0,0,1,2.12-5.14l11.87-11.87a7.27,7.27,0,0,1,5.15-2.13v19.14Z"/><path class="cls-1" d="M146.81,51.25a8.6,8.6,0,0,1-6.09-2.51l-14-14.05a8.62,8.62,0,0,1,0-12.18l14-14a8.6,8.6,0,0,1,12.18,0l14,14.05a8.62,8.62,0,0,1,0,12.18l-14,14.05A8.57,8.57,0,0,1,146.81,51.25Z"/><path class="cls-8" d="M146.81,47.74a7.24,7.24,0,0,1-5.14-2.12L129.8,33.75a7.28,7.28,0,0,1,0-10.29l11.87-11.88a7.26,7.26,0,0,1,10.29,0l11.87,11.88a7.28,7.28,0,0,1,0,10.29L152,45.62A7.26,7.26,0,0,1,146.81,47.74Z"/><path class="cls-9" d="M146.81,47.74a7.24,7.24,0,0,1-5.14-2.12L129.8,33.75a7.27,7.27,0,0,1-2.13-5.15h19.14Z"/><path class="cls-10" d="M146.81,9.46A7.23,7.23,0,0,1,152,11.59l11.87,11.87A7.24,7.24,0,0,1,166,28.6H146.81Z"/><path class="cls-1" d="M124.15,263.57a8.61,8.61,0,0,0,2.52,6.09l14,14a8.62,8.62,0,0,0,12.18,0l14.06-14a8.62,8.62,0,0,0,0-12.18l-14.06-14.05a8.62,8.62,0,0,0-12.18,0l-14,14.05A8.58,8.58,0,0,0,124.15,263.57Z"/><path class="cls-8" d="M127.66,263.57a7.25,7.25,0,0,0,2.13,5.14l11.87,11.87a7.28,7.28,0,0,0,10.29,0l11.88-11.87a7.28,7.28,0,0,0,0-10.29L152,246.55a7.28,7.28,0,0,0-10.29,0l-11.87,11.87A7.25,7.25,0,0,0,127.66,263.57Z"/><path class="cls-9" d="M127.66,263.57a7.25,7.25,0,0,0,2.13,5.14l11.87,11.87a7.25,7.25,0,0,0,5.14,2.13V263.57Z"/><path class="cls-10" d="M166,263.57a7.25,7.25,0,0,0-2.13-5.15L152,246.55a7.25,7.25,0,0,0-5.15-2.13v19.15Z"/><path class="cls-1" d="M5.94,146.81a8.57,8.57,0,0,0,2.51,6.09L22.5,167a8.64,8.64,0,0,0,12.18,0l14-14a8.59,8.59,0,0,0,0-12.17l-14-14a8.62,8.62,0,0,0-12.18,0l-14,14A8.56,8.56,0,0,0,5.94,146.81Z"/><path class="cls-8" d="M9.45,146.81A7.24,7.24,0,0,0,11.57,152l11.87,11.87a7.28,7.28,0,0,0,10.29,0L45.61,152a7.26,7.26,0,0,0,0-10.29L33.73,129.8a7.28,7.28,0,0,0-10.29,0L11.57,141.67A7.24,7.24,0,0,0,9.45,146.81Z"/><path class="cls-9" d="M9.45,146.81A7.24,7.24,0,0,0,11.57,152l11.87,11.87A7.27,7.27,0,0,0,28.59,166V146.81Z"/><path class="cls-10" d="M47.73,146.81a7.25,7.25,0,0,0-2.13-5.14L33.73,129.8a7.25,7.25,0,0,0-5.14-2.13v19.14Z"/></g></g></g></svg>