<svg xmlns="http://www.w3.org/2000/svg" viewBox="0 0 274.11 300"><defs><style>.cls-1{fill:#b3671b;}.cls-2{fill:#be6af2;}.cls-3{fill:#d899ff;}.cls-4{fill:#a059cc;}.cls-5{fill:#e1b2ff;}.cls-6{fill:#ffcf40;}.cls-7{fill:#ffe566;}.cls-8{fill:#f5b331;}.cls-9{fill:#ffec73;}.cls-10{fill:#fff08c;}.cls-11{fill:#00e2dc;}.cls-12{fill:#4dfffa;}.cls-13{fill:#00b3af;}.cls-14{fill:#e6fffe;}</style></defs><title>Royal_icon</title><g id="Слой_2" data-name="Слой 2"><g id="Complete"><g id="Royal_icon"><path class="cls-1" d="M236.37,52.5,174.8,17a75.51,75.51,0,0,0-75.49,0L37.74,52.5A75.72,75.72,0,0,0,0,117.88V189a75.72,75.72,0,0,0,37.74,65.38L99.31,289.9a75.58,75.58,0,0,0,75.49,0l61.57-35.55A75.72,75.72,0,0,0,274.11,189V117.88A75.72,75.72,0,0,0,236.37,52.5ZM252,189a53.35,53.35,0,0,1-26.68,46.21l-61.57,35.55a53.31,53.31,0,0,1-53.37,0L48.8,235.18A53.37,53.37,0,0,1,22.12,189V117.88A53.37,53.37,0,0,1,48.8,71.67l61.57-35.55a53.31,53.31,0,0,1,53.37,0l61.57,35.55A53.35,53.35,0,0,1,252,117.88Z"/><path class="cls-1" d="M252,111v71.09a53.35,53.35,0,0,1-26.68,46.21l-61.57,35.55a53.31,53.31,0,0,1-53.37,0L48.8,228.34a53.37,53.37,0,0,1-26.68-46.21V111A53.37,53.37,0,0,1,48.8,64.83l61.57-35.55a53.31,53.31,0,0,1,53.37,0l61.57,35.55A53.35,53.35,0,0,1,252,111Z"/><path class="cls-2" d="M252,119.35v71.09a53.34,53.34,0,0,1-26.68,46.21L220,239.71l-9.69,5.59-16.48,9.51-16.13,9.32-5.29,3.06-8.69,5a53.45,53.45,0,0,1-53.37,0L83.63,256.76,48.8,236.65a53.38,53.38,0,0,1-26.68-46.21V119.35a51.48,51.48,0,0,1,.35-6A53.34,53.34,0,0,1,48.8,73.13L81.58,54.21l5.29-3.05L103,41.84l7.37-4.26a53.67,53.67,0,0,1,9.51-4.31,53.75,53.75,0,0,1,17.17-2.84,53.32,53.32,0,0,1,26.69,7.15l27.17,15.69h0l34.39,19.86A53.36,53.36,0,0,1,252,119.35Z"/><path class="cls-3" d="M172.43,267.19l-8.69,5a53.35,53.35,0,0,1-48.26,2.59L34.56,85.1a53.57,53.57,0,0,1,14.24-12L81.58,54.21Z"/><path class="cls-4" d="M83.63,256.76,48.8,236.65a53.38,53.38,0,0,1-26.68-46.21V119.35a51.48,51.48,0,0,1,.35-6Z"/><path class="cls-4" d="M252,119.35v71.09a53.19,53.19,0,0,1-.27,5.37L190.92,53.27l34.39,19.86A53.36,53.36,0,0,1,252,119.35Z"/><polygon class="cls-4" points="193.85 254.81 177.72 264.13 86.87 51.16 103 41.84 193.85 254.81"/><path class="cls-5" d="M220,239.71l-9.69,5.59-90.45-212a52.67,52.67,0,0,1,11-2.48Z"/><path class="cls-6" d="M236.37,45.66,211.68,31.41l-22.59-13h0L174.8,10.11a75.44,75.44,0,0,0-68.56-3.52,72.73,72.73,0,0,0-6.93,3.52L92.55,14,82,20.14,37.74,45.66l-1.66,1A75.73,75.73,0,0,0,0,111v71.09a75.71,75.71,0,0,0,37.31,65.12l.43.25,10.61,6.13,33.71,19.46,11.78,6.81,5.47,3.16a75.62,75.62,0,0,0,35.74,10.07h.4l1.6,0h1.15a75.58,75.58,0,0,0,36.6-10.09l5.27-3,11.73-6.79,33.5-19.33,11.06-6.39h0a75.69,75.69,0,0,0,37.74-65.37V111A75.72,75.72,0,0,0,236.37,45.66ZM252,111v71.09a53.35,53.35,0,0,1-26.68,46.21l-61.57,35.55a53.31,53.31,0,0,1-53.37,0L48.8,228.34a53.37,53.37,0,0,1-26.68-46.21V111A53.36,53.36,0,0,1,46.69,66.12c.69-.45,1.4-.88,2.11-1.29L92.54,39.57l10.6-6.12,7.23-4.17a53.31,53.31,0,0,1,53.37,0l45.67,26.37,15.9,9.18a53.33,53.33,0,0,1,26.29,39.78h0A52.57,52.57,0,0,1,252,111Z"/><path class="cls-1" d="M225.91,243.35c1.07-.72,2.12-1.48,3.15-2.29h0c.66-.52,1.3-1.07,2-1.64A43.06,43.06,0,0,0,241,226.68a39.63,39.63,0,0,0,3.71-25h-9.4a39.6,39.6,0,0,1-.18,5,31.91,31.91,0,0,1-3,11.14c-8.27,17.23-30.78,18.3-41,20.78-10.62,2.58-42.47,13.45-51.36,41.84l-6.68-.77c-.16-.49-.33-1-.51-1.46a50.73,50.73,0,0,0-9.56-16c-13.2-15.13-33.09-21.72-41-23.65-10.21-2.48-32.72-3.55-41-20.78a32.13,32.13,0,0,1-3-11.14,41.47,41.47,0,0,1-.17-5h-9.4a38.72,38.72,0,0,0-.54,9.6,39.36,39.36,0,0,0,4.25,15.43,43.06,43.06,0,0,0,9.94,12.74c.64.57,1.29,1.12,2,1.64h0c1,.82,2.1,1.58,3.17,2.31-13.08,2.36-23.56,13.46-18.66,28.86,2.53,7.94,6.59,12.43,11.72,14.66h0c13.3,5.77,33.78-3.59,53.48-7l0,0c15.52-2.71,30.56-1.72,41.21,13.23l0,0,.44.9a12.81,12.81,0,0,0,2.06,0h0l.15-.27.44-.64c10.8-15.19,26.12-16,41.87-13.13l.05,0c27.12,4.91,55.54,20.58,64.56-7.75C249.6,256.79,239,245.67,225.91,243.35ZM42.23,266.42c-1-6.28,2.32-10.75,7.38-13.59l.27-.14a30.6,30.6,0,0,1,9.41-3.13,72.77,72.77,0,0,0,8.55,2.61h0l.69.16,2.62.63c.85.2,1.7.38,2.53.62,1.67.42,3.34.83,5,1.32,3.32.87,6.54,1.91,9.73,3,.69.24,1.39.47,2.07.72,2.47.88,4.9,1.81,7.28,2.83q4.61,1.89,9,4.21c2.51,1.35,5,2.8,7.4,4.39a71.61,71.61,0,0,1,9.11,7c.6.54,1.19,1.12,1.78,1.69-14-11.66-33.68-8.27-46.94-4.67C60.64,278.79,44.52,280.25,42.23,266.42Zm188.8,0c-2.29,13.83-18.41,12.37-35.84,7.65-13.54-3.67-33.8-7.14-47.81,5.42.83-.84,1.66-1.66,2.51-2.44a80.05,80.05,0,0,1,16.52-11.43q4.38-2.31,9-4.21c3.05-1.3,6.15-2.47,9.35-3.55s6.41-2.09,9.72-3c1.63-.49,3.31-.9,5-1.32.83-.24,1.68-.42,2.53-.62l2.62-.63.69-.16h0a72.71,72.71,0,0,0,8.62-2.64C223.5,251.19,232.65,256.58,231,266.42Z"/><path class="cls-7" d="M138.88,282.26c-.1,1.11-.19,2.19-.37,3.27a22.55,22.55,0,0,1-1.86,6.16c-.26-.6-.54-1.2-.82-1.77a46.87,46.87,0,0,0-5.12-8.29,60.51,60.51,0,0,0-7.25-7.83,80.39,80.39,0,0,0-16.52-11.42q-4.38-2.33-9-4.21t-9.35-3.55c-3.18-1.06-6.41-2.09-9.72-3-1.63-.49-3.3-.9-5-1.32-.84-.25-1.69-.42-2.54-.63l-2.61-.62A68.29,68.29,0,0,1,55.2,244.5a53.32,53.32,0,0,1-12.87-8.32,43.48,43.48,0,0,1-9.94-12.74A39.57,39.57,0,0,1,28.14,208,40.13,40.13,0,0,1,30,193.07a41,41,0,0,1,5.84-11.54c.25-.35.51-.69.78-1,.45-.6.93-1.17,1.44-1.73a33.16,33.16,0,0,1,3.3-3.3c.86-.77,1.76-1.47,2.67-2.14a32.23,32.23,0,0,1,2.88-1.81A25.21,25.21,0,0,1,53.07,169a18.44,18.44,0,0,1,6.36-.57h0a27.28,27.28,0,0,0-7.22,8.65q-.63,1.17-1.14,2.37c-.35.79-.69,1.59-1,2.4a40,40,0,0,0-1.33,4.83c-.14.75-.27,1.49-.37,2.22s-.18,1.51-.23,2.25A29.09,29.09,0,0,0,50,204.25a22.1,22.1,0,0,0,9.25,10.68,47.45,47.45,0,0,0,15.69,5.6l3,.66c1,.23,2.08.44,3.12.71,2.07.57,4.15,1.1,6.2,1.77a93.71,93.71,0,0,1,12.17,4.75,80.67,80.67,0,0,1,22,15,59.67,59.67,0,0,1,14.86,22.45,46,46,0,0,1,1.83,6.49,42.27,42.27,0,0,1,.79,6.62C139,280.06,138.91,281.18,138.88,282.26Z"/><path class="cls-7" d="M136.48,291.69a22.92,22.92,0,0,1-1.87-6.16c-.18-1.08-.27-2.16-.37-3.27s-.06-2.2,0-3.3a42.8,42.8,0,0,1,.79-6.64,46.28,46.28,0,0,1,1.83-6.48,59.63,59.63,0,0,1,14.86-22.45,80.67,80.67,0,0,1,22-15,95.62,95.62,0,0,1,12.16-4.75c2.06-.67,4.13-1.2,6.2-1.76,1-.28,2.09-.49,3.13-.72l3-.66a47.59,47.59,0,0,0,15.7-5.6,22,22,0,0,0,9.24-10.68c2-4.8,2.49-11.11,1.19-17.55a37.91,37.91,0,0,0-1.33-4.84c-.27-.82-.6-1.61-.95-2.4s-.72-1.59-1.14-2.37a27.19,27.19,0,0,0-7.25-8.66,18.74,18.74,0,0,1,6.37.57,26,26,0,0,1,6.16,2.51c1,.56,1.94,1.16,2.87,1.82s1.81,1.38,2.67,2.14a35.42,35.42,0,0,1,4.75,5,40.55,40.55,0,0,1,6.61,12.56A40,40,0,0,1,245,208a39.51,39.51,0,0,1-4.24,15.44,43.48,43.48,0,0,1-9.94,12.74,53.32,53.32,0,0,1-12.87,8.32,68.93,68.93,0,0,1-13.57,4.59l-2.62.63c-.84.2-1.7.38-2.52.62-1.68.42-3.35.83-5,1.31-3.31.88-6.53,1.91-9.72,3s-6.3,2.25-9.35,3.54-6.06,2.68-9,4.22a80.39,80.39,0,0,0-16.52,11.42,58.57,58.57,0,0,0-7.25,7.83A47.26,47.26,0,0,0,136.48,291.69Z"/><path class="cls-8" d="M135.83,289.92a46.87,46.87,0,0,0-5.12-8.29,60.51,60.51,0,0,0-7.25-7.83,80.39,80.39,0,0,0-16.52-11.42q-4.38-2.33-9-4.21t-9.35-3.55c-3.18-1.06-6.41-2.09-9.72-3-1.63-.49-3.3-.9-5-1.32-.84-.25-1.69-.42-2.54-.63l-2.61-.62-.7-.17h0A66.41,66.41,0,0,1,55.2,244.5a53,53,0,0,1-10.9-6.69h0c-.67-.52-1.31-1.06-2-1.63a43.48,43.48,0,0,1-9.94-12.74A39.57,39.57,0,0,1,28.14,208,40.13,40.13,0,0,1,30,193.07a40.61,40.61,0,0,1,1.54-4,39.83,39.83,0,0,1,5.08-8.53,35.93,35.93,0,0,1,4.74-5c.86-.77,1.76-1.47,2.67-2.14a32.23,32.23,0,0,1,2.88-1.81A25.21,25.21,0,0,1,53.07,169a18.44,18.44,0,0,1,6.36-.57h0c-.67.2-23.71,7.41-21.15,35a31.85,31.85,0,0,0,3,11.14c8.28,17.23,30.78,18.31,41,20.79C94.29,238.3,133.85,252,135.83,289.92Z"/><path class="cls-8" d="M137.3,289.92a46.87,46.87,0,0,1,5.12-8.29,60.51,60.51,0,0,1,7.25-7.83,80.6,80.6,0,0,1,16.51-11.42q4.38-2.33,9-4.21t9.35-3.55c3.19-1.06,6.42-2.09,9.73-3,1.63-.49,3.3-.9,5-1.32.83-.25,1.68-.42,2.53-.63l2.62-.62a68.29,68.29,0,0,0,13.57-4.59,53.08,53.08,0,0,0,12.86-8.32,43.31,43.31,0,0,0,9.94-12.74A39.4,39.4,0,0,0,245,208a40.13,40.13,0,0,0-1.85-14.94,40.93,40.93,0,0,0-6.62-12.57,36,36,0,0,0-4.75-5c-.86-.77-1.76-1.47-2.67-2.14a30.71,30.71,0,0,0-2.87-1.81,25.21,25.21,0,0,0-6.16-2.52,18.5,18.5,0,0,0-6.37-.57h0c.68.2,23.72,7.41,21.16,35-2.61,28-31.88,29-44,31.93S139.28,252,137.3,289.92Z"/><path class="cls-1" d="M76.69,245.88,69,249.23h0a78,78,0,0,1-14.55-4.86A60.64,60.64,0,0,1,42.05,237C61.3,230.85,76.69,245.88,76.69,245.88Z"/><path class="cls-1" d="M197,245.88l7.46,3.35h0a73,73,0,0,0,14-4.86,58,58,0,0,0,11.9-7.35C211.88,230.85,197,245.88,197,245.88Z"/><path class="cls-1" d="M210.81,247.61l-19.42,7.63-12.5,2.62c-8.07-1.44-19.56-2.54-28.79,4.4a32.15,32.15,0,0,0-11.51,18.44l1.95-2.48L159,270c2.41-1.59,4.89-3,7.4-4.39q4.38-2.31,9-4.21c.9-.38,1.81-.74,2.72-1.11a84.89,84.89,0,0,0,27.13,4.21C224.29,264.51,214.82,250.84,210.81,247.61Z"/><path class="cls-1" d="M123,262.26c-9-6.79-20.23-5.88-28.26-4.5l-12.06-2.52-19.42-7.63c-4,3.23-13.48,16.9,5.58,16.9a85.48,85.48,0,0,0,26.59-4c.76.31,1.53.61,2.28.93q4.61,1.89,9,4.21c2.51,1.35,5,2.8,7.4,4.39l18.47,8.21,2.08,2.48A32.17,32.17,0,0,0,123,262.26Z"/><path class="cls-7" d="M136.07,290.72c-29-44.33-93,23-107.49-22.36-5.73-18,9.56-30.13,25.45-29.29a28.52,28.52,0,0,1,16.57,6.38l-.07,0c-1.16.43-16.52,6.22-7.92,13.7l0,0a14.83,14.83,0,0,0,1.6,1.22c11.51,7.78,49.84-14.65,67.92,15.16C137.43,284.27,136.07,290.72,136.07,290.72Z"/><path class="cls-7" d="M245.82,262.7a24.61,24.61,0,0,1-1.14,5.66c-14.44,45.32-78.52-22-107.49,22.36,0,0-1.36-6.45,3.91-15.14,18.08-29.81,56.4-7.38,67.91-15.16a11.81,11.81,0,0,0,3.28-3s0,0,.05-.07c4.6-6.85-9.68-11.87-9.68-11.87C219.74,231.41,247.59,241.83,245.82,262.7Z"/><path class="cls-8" d="M136.07,290.72c-23.89-36.55-71.64,2.78-95.76-7.69h0c-5.13-2.23-9.19-6.72-11.72-14.66-7.81-24.54,23.46-38.17,42-22.91-6.24-1-14.66,0-20.72,3.36l-.27.15c-5.06,2.83-8.41,7.31-7.38,13.58,2.29,13.84,18.41,12.38,35.84,7.66S124.05,261.08,136.07,290.72Z"/><path class="cls-8" d="M137.19,290.72c29-44.33,93.06,23,107.49-22.36,7.82-24.54-23.45-38.17-42-22.91,11.59-1.81,30.64,3.25,28.37,17.09s-18.41,12.38-35.84,7.66S149.22,261.08,137.19,290.72Z"/><path class="cls-9" d="M92.54,39.57,48.8,64.83c-.71.41-1.42.84-2.11,1.29L36.08,46.65l1.66-1L82,20.14Z"/><path class="cls-9" d="M116.88,26.09a52.93,52.93,0,0,0-6.51,3.19l-7.23,4.17L92.55,14l6.76-3.91a72.73,72.73,0,0,1,6.93-3.52Z"/><path class="cls-9" d="M211.68,31.41l21,38.57a53.37,53.37,0,0,0-7.4-5.15l-15.9-9.18L189.09,18.36Z"/><path class="cls-9" d="M274.11,145.91v28.4L252,133.74V111a52.57,52.57,0,0,0-.39-6.42Z"/><path class="cls-1" d="M215.66,92v-5.7l-4.43.17L211,88.5l-.13,0-19,6.39a3.6,3.6,0,0,0-2.37,4.25c4.05,16.1-7.84,44.65-24.21,33.61-25.67-17.29-12.63-41.85-7.17-50.07a3.5,3.5,0,0,0,.59-2.07h0V75.19l-3.32,1C148.92,70,143.48,61,140.24,55a3.62,3.62,0,0,0-6.38,0c-3,5.65-8,13.88-13.87,19.93h-4.51v5.85h0a3.58,3.58,0,0,0,.67,2c5.81,8.13,19.41,32.18-7.34,50-16.42,11-28.27-17.52-24.21-33.61a3.6,3.6,0,0,0-2.38-4.25l-19-6.39L63,88.46l-.1-.87L58.46,86V91.6a3.64,3.64,0,0,0,.21,1.61c6.6,18,15,44.92,17,67.81a3.61,3.61,0,0,0,3.61,3.3H194.86a3.61,3.61,0,0,0,3.6-3.3c1.95-22.89,10.38-49.85,17-67.81a3.69,3.69,0,0,0,.22-1.24Z"/><path class="cls-1" d="M192,171.48l-1.37-2.81-106.5-.36-2.65,3.82a5.53,5.53,0,0,0-2.71,4.75v5.4a5.54,5.54,0,0,0,5.54,5.53H190.78a5.54,5.54,0,0,0,5.53-5.53v-5.4A5.54,5.54,0,0,0,192,171.48Zm-6.79,4a4.1,4.1,0,0,1,4.11,4.11,4.05,4.05,0,0,1-.07.7l-8.08,0a4.9,4.9,0,0,1-.07-.67A4.11,4.11,0,0,1,185.2,175.47Zm-24.07,0a4.1,4.1,0,0,1,4.1,4.11,4.34,4.34,0,0,1-.06.62l-8.09,0a3.8,3.8,0,0,1-.06-.59A4.11,4.11,0,0,1,161.13,175.47Zm-24.08,0a4.11,4.11,0,0,1,4.12,4.11,3.07,3.07,0,0,1-.06.53l-8.11,0a4.4,4.4,0,0,1-.05-.51A4.11,4.11,0,0,1,137.05,175.47Zm-24.07,0a4.12,4.12,0,0,1,4.12,4.11,3.26,3.26,0,0,1,0,.45l-8.13,0c0-.14,0-.27,0-.42A4.11,4.11,0,0,1,113,175.47Zm-24.06,0a4.11,4.11,0,0,1,4.1,4.11c0,.13,0,.25,0,.37l-8.14,0c0-.11,0-.22,0-.34A4.11,4.11,0,0,1,88.92,175.47Z"/><path class="cls-1" d="M176.94,198.74c-.7,0-1.4.06-2.09.11a64.65,64.65,0,0,0-7.57,1c-1.24.27-2.49.53-3.74.85l-3.71,1a68.14,68.14,0,0,0-13.39,5.64l-12.83,3.84a4.73,4.73,0,0,1-.56-.35c-1.44-1.07-2.94-2.05-4.44-3a67.12,67.12,0,0,0-14.34-6.17l-3.71-1c-1.24-.32-2.49-.58-3.73-.85-2-.4-4.09-.71-6.15-.91L93,195.67l-8.9-.51V200c1.22.41,2.42.71,3.6,1.07l1.77.54c.6.17,1.18.33,1.76.53,2.33.75,4.61,1.49,6.88,2.27s4.5,1.59,6.7,2.43c1.1.44,2.2.84,3.3,1.29l3.21,1.41a84.8,84.8,0,0,1,12.06,6.64l.11.08A39,39,0,0,1,136.11,230l.19.35a.85.85,0,0,0,1.48,0h0a40.23,40.23,0,0,1,12.76-14l.16-.11a85.35,85.35,0,0,1,12.06-6.64l3.22-1.41c1.09-.45,2.2-.85,3.29-1.29,2.21-.84,4.45-1.65,6.7-2.43s4.56-1.52,6.88-2.27c.58-.2,1.17-.36,1.76-.53l1.77-.54c1.18-.36,2.39-.66,3.61-1.07v-4.88Z"/><path class="cls-6" d="M215.43,87.59c-6.59,18-15,44.93-17,67.81a3.62,3.62,0,0,1-3.61,3.31H79.25a3.62,3.62,0,0,1-3.61-3.31c-1.94-22.88-10.37-49.85-17-67.81a3.62,3.62,0,0,1,4.56-4.67l18.52,6.23.48.16a3.58,3.58,0,0,1,2.38,4.24c-.11.43-.21.86-.29,1.31-2.52,13,4.46,32.75,15.55,34.61a12.27,12.27,0,0,0,8.95-2.31c10.64-7.1,14.89-15.18,15.8-22.85,1.37-11.62-5-22.29-8.46-27.19a3.62,3.62,0,0,1,.65-4.91,46.18,46.18,0,0,0,5-5,74.74,74.74,0,0,0,5.82-7.61,118.71,118.71,0,0,0,6.19-10.31,3.62,3.62,0,0,1,6.37,0c3.56,6.66,9.8,16.93,17.15,23a3.62,3.62,0,0,1,.73,4.81c-5.46,8.22-18.5,32.79,7.16,50.07,16.38,11,28.26-17.52,24.22-33.61a3.57,3.57,0,0,1,2.37-4.24l19-6.39A3.62,3.62,0,0,1,215.43,87.59Z"/><path class="cls-6" d="M190.78,167.11H84.3a5.54,5.54,0,0,0-5.54,5.53v5.41a5.54,5.54,0,0,0,5.54,5.53H190.78a5.54,5.54,0,0,0,5.53-5.53v-5.41A5.54,5.54,0,0,0,190.78,167.11ZM88.92,179.45a4.11,4.11,0,1,1,4.1-4.1A4.1,4.1,0,0,1,88.92,179.45Zm24.06,0a4.11,4.11,0,1,1,4.12-4.1A4.1,4.1,0,0,1,113,179.45Zm24.07,0a4.11,4.11,0,1,1,4.12-4.1A4.1,4.1,0,0,1,137.05,179.45Zm24.08,0a4.11,4.11,0,1,1,4.1-4.1A4.1,4.1,0,0,1,161.13,179.45Zm24.07,0a4.11,4.11,0,1,1,4.11-4.1A4.1,4.1,0,0,1,185.2,179.45Z"/><path class="cls-6" d="M190,195.16c-1.22.41-2.43.7-3.61,1.06l-1.77.55c-.59.16-1.18.32-1.76.53-2.32.74-4.61,1.48-6.88,2.26s-4.49,1.6-6.7,2.44l-.64.25c-.88.34-1.77.68-2.65,1l-3.22,1.4a86.41,86.41,0,0,0-12.06,6.65l-.16.11a39.26,39.26,0,0,0-9.69,9.25,41.78,41.78,0,0,0-3.07,4.78.86.86,0,0,1-.75.43.84.84,0,0,1-.73-.44l-.2-.34a38.87,38.87,0,0,0-12.59-13.71l-.11-.08a85.85,85.85,0,0,0-12.06-6.65l-3.21-1.4c-1.1-.45-2.2-.85-3.3-1.29-2.2-.84-4.44-1.65-6.7-2.44s-4.55-1.52-6.88-2.26c-.58-.21-1.16-.37-1.76-.53l-1.77-.55c-1.18-.36-2.38-.65-3.6-1.06a36.68,36.68,0,0,1,7.51-1.23,53.83,53.83,0,0,1,7.62,0,64.82,64.82,0,0,1,7.58,1c1.24.27,2.49.54,3.73.85l3.71,1A67.08,67.08,0,0,1,128.61,203c1.5.91,3,1.89,4.45,3a5.7,5.7,0,0,0,1.58.87,6.67,6.67,0,0,0,6.41-.87c1.45-1.07,2.94-2,4.45-3a67.22,67.22,0,0,1,14.33-6.16l3.71-1c.67-.17,1.33-.32,2-.47l1.74-.38a64.65,64.65,0,0,1,7.57-1,53.83,53.83,0,0,1,7.62,0A36.89,36.89,0,0,1,190,195.16Z"/><path class="cls-10" d="M84.61,93.55c-.11.43-.21.86-.29,1.31l-2.57-5.71.48.16A3.58,3.58,0,0,1,84.61,93.55Z"/><path class="cls-10" d="M149.06,158.71H113L99.87,129.47a12.27,12.27,0,0,0,8.95-2.31c10.64-7.1,14.89-15.18,15.8-22.85Z"/><path class="cls-10" d="M165.54,195.38c-.67.15-1.33.3-2,.47l-3.71,1A67.22,67.22,0,0,0,145.5,203c-1.51.91-3,1.89-4.45,3a6.67,6.67,0,0,1-6.41.87l6.21,13.85a39.26,39.26,0,0,1,9.69-9.25l.16-.11a86.41,86.41,0,0,1,12.06-6.65l3.22-1.4c.88-.36,1.77-.7,2.65-1Zm-12.71-28.27h-36l7.39,16.47h36Zm-15.78,12.34a4.11,4.11,0,1,1,4.12-4.1A4.1,4.1,0,0,1,137.05,179.45Z"/><path class="cls-10" d="M172.19,158.71h-9.25L121.86,67.25a74.74,74.74,0,0,0,5.82-7.61Z"/><polygon class="cls-10" points="183.37 183.58 174.12 183.58 166.72 167.11 175.97 167.11 183.37 183.58"/><path class="cls-1" d="M137,247.07a6.92,6.92,0,0,1,4.89,2l14.77,14.67a6.83,6.83,0,0,1,0,9.69l-14.77,14.67a7,7,0,0,1-9.77,0l-14.78-14.67a6.85,6.85,0,0,1,0-9.69l14.78-14.67a6.89,6.89,0,0,1,4.84-2h0m0-2.91H137a9.86,9.86,0,0,0-6.91,2.86L115.3,261.69a9.71,9.71,0,0,0-2.77,8.28,9.55,9.55,0,0,0,2.77,5.52l14.77,14.67a9.9,9.9,0,0,0,13.92,0l14.78-14.67a9.73,9.73,0,0,0,0-13.8L144,247a9.84,9.84,0,0,0-7-2.86Z"/><path class="cls-6" d="M137,244.16a6.9,6.9,0,0,1,4.89,2L156.69,261a6.83,6.83,0,0,1,1.95,5.84,6.76,6.76,0,0,1-1.95,3.92l-14.77,14.79a6.92,6.92,0,0,1-9.77,0l-14.78-14.79a6.75,6.75,0,0,1-1.94-3.92,6.82,6.82,0,0,1,1.94-5.84l14.78-14.78a6.87,6.87,0,0,1,4.84-2h0m0-2.93H137a9.84,9.84,0,0,0-6.91,2.88L115.3,258.9a9.82,9.82,0,0,0-2.77,8.34,9.71,9.71,0,0,0,2.77,5.57l14.77,14.78a9.85,9.85,0,0,0,13.92,0l14.78-14.78a9.86,9.86,0,0,0,0-13.91L144,244.11a9.77,9.77,0,0,0-7-2.88Z"/><path class="cls-11" d="M158.5,268.22a6.16,6.16,0,0,1-1.93,3.66L141.9,285.66a7.21,7.21,0,0,1-9.71,0l-14.67-13.78a6.19,6.19,0,0,1,0-9.1L132.19,249a7.18,7.18,0,0,1,9.71,0l14.67,13.78A6.13,6.13,0,0,1,158.5,268.22Z"/><path class="cls-12" d="M158.63,268l-21.65.14V247.07a7.13,7.13,0,0,1,4.9,1.85l14.77,13.68A6.18,6.18,0,0,1,158.63,268Z"/><path class="cls-13" d="M137,268.22v19.32a7.11,7.11,0,0,1-4.85-1.88l-14.67-13.78a6.16,6.16,0,0,1-1.93-3.66Z"/><path class="cls-14" d="M138.92,253.8v7.09a1.15,1.15,0,0,0,1.16,1.14h7.29a1.14,1.14,0,0,0,.81-1.95L140.9,253A1.17,1.17,0,0,0,138.92,253.8Z"/></g></g></g></svg>