<svg xmlns="http://www.w3.org/2000/svg" viewBox="0 0 292.12 300"><defs><style>.cls-1{fill:#6c7580;}.cls-2{fill:#bcc7cc;}.cls-3{fill:#dbe3e6;}.cls-4{fill:#f0f5f7;}.cls-5{fill:#fafdff;}.cls-6{fill:#6c7680;}</style></defs><title>Uncommon_icon</title><g id="Слой_2" data-name="Слой 2"><g id="Complete"><g id="Uncommon_icon"><path class="cls-1" d="M276.21,115.45,206.13,45.37l-21.6-21.6A54,54,0,0,0,146.06,7.84c-1.66,0-3.3.07-4.94.23A53.69,53.69,0,0,0,122.87,13a54.34,54.34,0,0,0-15,10.48l-.28.29-22,22-5,5L38,93.36,30.35,101,15.91,115.45a54.47,54.47,0,0,0,0,76.94l91.68,91.68c1.24,1.25,2.53,2.41,3.87,3.52a53.22,53.22,0,0,0,10.65,6.88,54.51,54.51,0,0,0,60.63-8.68c.6-.56,1.2-1.13,1.79-1.72l.49-.49,22.33-22.32L221,247.59l50.9-50.9,4.3-4.3A54.47,54.47,0,0,0,276.21,115.45ZM261.3,172.31a25.89,25.89,0,0,1-2.42,2.75L167.2,266.74a29.89,29.89,0,0,1-42.28,0L33.24,175.06a29.89,29.89,0,0,1,0-42.28l7.61-7.62,7.38-7.38L95.79,70.23,118.12,47.9l6.8-6.8a29.48,29.48,0,0,1,7.45-5.44,29.86,29.86,0,0,1,13.69-3.32,30.58,30.58,0,0,1,5.87.58A29.73,29.73,0,0,1,167.2,41.1l91.68,91.68A29.89,29.89,0,0,1,261.3,172.31Z"/><path class="cls-1" d="M258.88,167.22,167.2,258.9a29.88,29.88,0,0,1-42.28,0L33.24,167.22a29.89,29.89,0,0,1,0-42.28l38.6-38.61L119.4,38.77l5.52-5.51a29.89,29.89,0,0,1,42.28,0l91.68,91.68A29.89,29.89,0,0,1,258.88,167.22Z"/><path class="cls-2" d="M259,174l-91.68,91.69a29.93,29.93,0,0,1-42.28,0L33.31,174a29.91,29.91,0,0,1,0-42.28L73.87,91.16l1.89-1.89,45.67-45.66,1.89-1.9.5-.5L125,40a29.65,29.65,0,0,1,15.24-8.16c.84-.16,1.68-.29,2.53-.39.36,0,.71-.08,1.07-.11a30.19,30.19,0,0,1,8.16.48,29,29,0,0,1,5.84,1.81h0a28.86,28.86,0,0,1,3.2,1.59,29.27,29.27,0,0,1,3.77,2.58,26.7,26.7,0,0,1,2.46,2.2L259,131.72A29.89,29.89,0,0,1,259,174Z"/><path class="cls-3" d="M276.21,107.61,206.13,37.53l-21.6-21.6A54,54,0,0,0,146.06,0c-1.66,0-3.3.07-4.94.23a53.69,53.69,0,0,0-18.25,4.93,54.34,54.34,0,0,0-15,10.48l-.28.29-22,22-5,5L38,85.52l-7.65,7.64L15.91,107.61a54.47,54.47,0,0,0,0,76.94l91.68,91.68c1.24,1.25,2.53,2.41,3.87,3.52a53.22,53.22,0,0,0,10.65,6.88A54.51,54.51,0,0,0,182.74,278c.6-.56,1.2-1.13,1.79-1.72l.49-.49,22.33-22.33L221,239.75l50.9-50.9,4.3-4.3A54.47,54.47,0,0,0,276.21,107.61ZM261.3,164.47a25.89,25.89,0,0,1-2.42,2.75L167.2,258.9a29.89,29.89,0,0,1-42.28,0L33.24,167.22a29.89,29.89,0,0,1,0-42.28l7.61-7.62,7.38-7.38L95.79,62.39l22.33-22.33,6.8-6.8a29.48,29.48,0,0,1,7.45-5.44,29.86,29.86,0,0,1,13.69-3.32,30.58,30.58,0,0,1,5.87.58,29.73,29.73,0,0,1,15.27,8.18l91.68,91.68A29.89,29.89,0,0,1,261.3,164.47Z"/><path class="cls-4" d="M198.52,227.59,167.2,258.9a29.86,29.86,0,0,1-19.39,8.71L73.87,91.16l1.89-1.89,45.67-45.66Z"/><path class="cls-4" d="M228.91,197.19l-13.66,13.67-75-179c.84-.16,1.68-.29,2.53-.39.36,0,.71-.08,1.07-.11a30.19,30.19,0,0,1,8.16.48,29,29,0,0,1,5.84,1.81h0a28.86,28.86,0,0,1,3.2,1.59Z"/><polygon class="cls-5" points="85.56 37.96 95.79 62.39 48.23 109.94 38 85.52 80.57 42.95 85.56 37.96"/><path class="cls-5" d="M185,275.74l-.49.49c-.59.59-1.19,1.16-1.79,1.72a54.51,54.51,0,0,1-60.63,8.68l-22-52.57,24.85,24.84a29.89,29.89,0,0,0,42.28,0l7.59-7.58Z"/><path class="cls-5" d="M122.87,5.16l9.5,22.66a29.48,29.48,0,0,0-7.45,5.44l-6.8,6.8L107.87,15.64A54.34,54.34,0,0,1,122.87,5.16Z"/><polygon class="cls-5" points="221.01 239.75 207.35 253.41 197.1 229 210.77 215.34 221.01 239.75"/><path class="cls-6" d="M194.22,134.44V129h-2.67l-.17-.18L153.12,90.59a10,10,0,0,0-14.12,0l-38.27,38.27c-.13.13-.25.27-.38.41H97.86l-.06,6.17c0,.19,0,.38,0,.57v.76h0a10,10,0,0,0,10,9.13h76.53A10,10,0,0,0,194.22,134.44Z"/><path class="cls-6" d="M194.22,167.79v-6.14l-3.51-.22a9.81,9.81,0,0,0-6.39-2.28H107.79a9.8,9.8,0,0,0-6.32,2.22l-3.68.15V170h0a9.82,9.82,0,0,0,2.91,6.23L139,214.46a10,10,0,0,0,14.12,0l38.26-38.26A9.75,9.75,0,0,0,194.22,167.79Z"/><path class="cls-3" d="M193.32,134.85a9.8,9.8,0,0,1-9,5.66H107.8a10,10,0,0,1-7.07-17L118.1,106.1l16.29-16.29L139,85.2c.22-.21.43-.41.66-.59a9.84,9.84,0,0,1,4.59-2.17,10.1,10.1,0,0,1,1.82-.17,10,10,0,0,1,7.06,2.93l38.26,38.27A9.84,9.84,0,0,1,193.32,134.85Z"/><path class="cls-3" d="M191.38,170.08l-24.85,24.85-5.25,5.25-8.16,8.17a10,10,0,0,1-10.62,2.27,9.86,9.86,0,0,1-3.51-2.27l-38.26-38.27A10,10,0,0,1,107.8,153h76.52a10,10,0,0,1,7.06,17.05Z"/><polygon class="cls-5" points="155.94 140.51 132.72 140.51 118.1 106.1 134.39 89.81 155.94 140.51"/><path class="cls-5" d="M168.93,140.51h-5.51l-23.77-55.9a9.84,9.84,0,0,1,4.59-2.17Z"/><path class="cls-5" d="M161.28,200.18l-8.16,8.17a10,10,0,0,1-10.62,2.27L118,153h23.22Z"/><polygon class="cls-5" points="170.4 191.07 166.53 194.93 148.73 153.03 154.23 153.03 170.4 191.07"/></g></g></g></svg>