<svg xmlns="http://www.w3.org/2000/svg" viewBox="0 0 292.12 300"><defs><style>.cls-1{fill:#b3671b;}.cls-2{fill:#f5b331;}.cls-3{fill:#ffcf40;}.cls-4{fill:#ffe566;}.cls-5{fill:#ffec73;}.cls-6{fill:#fac64b;}.cls-7{fill:#ffea80;}</style></defs><title>Unusual_icon</title><g id="Слой_2" data-name="Слой 2"><g id="Complete"><g id="Unusual_icon"><path class="cls-1" d="M276.21,115.45,206.13,45.37l-21.6-21.6A54,54,0,0,0,146.06,7.84c-1.66,0-3.3.07-4.94.23A53.69,53.69,0,0,0,122.87,13a54.34,54.34,0,0,0-15,10.48l-.28.29-22,22-5,5L38,93.36,30.35,101,15.91,115.45a54.47,54.47,0,0,0,0,76.94l91.68,91.68c1.24,1.25,2.53,2.41,3.87,3.52a53.22,53.22,0,0,0,10.65,6.88,54.51,54.51,0,0,0,60.63-8.68c.6-.56,1.2-1.13,1.79-1.72l.49-.49,22.33-22.32L221,247.59l50.9-50.9,4.3-4.3A54.47,54.47,0,0,0,276.21,115.45ZM261.3,172.31a25.89,25.89,0,0,1-2.42,2.75L167.2,266.74a29.89,29.89,0,0,1-42.28,0L33.24,175.06a29.89,29.89,0,0,1,0-42.28l7.61-7.62,7.38-7.38L95.79,70.23,118.12,47.9l6.8-6.8a29.48,29.48,0,0,1,7.45-5.44,29.86,29.86,0,0,1,13.69-3.32,30.58,30.58,0,0,1,5.87.58A29.73,29.73,0,0,1,167.2,41.1l91.68,91.68A29.89,29.89,0,0,1,261.3,172.31Z"/><path class="cls-1" d="M258.88,167.22,167.2,258.9a29.88,29.88,0,0,1-42.28,0L33.24,167.22a29.89,29.89,0,0,1,0-42.28l38.6-38.61L119.4,38.77l5.52-5.51a29.89,29.89,0,0,1,42.28,0l91.68,91.68A29.89,29.89,0,0,1,258.88,167.22Z"/><path class="cls-2" d="M259,174l-91.68,91.69a29.93,29.93,0,0,1-42.28,0L33.31,174a29.91,29.91,0,0,1,0-42.28L73.87,91.16l1.89-1.89,45.67-45.66,1.89-1.9.5-.5L125,40a29.65,29.65,0,0,1,15.24-8.16c.84-.16,1.68-.29,2.53-.39.36,0,.71-.08,1.07-.11a30.19,30.19,0,0,1,8.16.48,29,29,0,0,1,5.84,1.81h0a28.86,28.86,0,0,1,3.2,1.59,29.27,29.27,0,0,1,3.77,2.58,26.7,26.7,0,0,1,2.46,2.2L259,131.72A29.89,29.89,0,0,1,259,174Z"/><path class="cls-3" d="M276.21,107.61,206.13,37.53l-21.6-21.6A54,54,0,0,0,146.06,0c-1.66,0-3.3.07-4.94.23a53.69,53.69,0,0,0-18.25,4.93,54.34,54.34,0,0,0-15,10.48l-.28.29-22,22-5,5L38,85.52l-7.65,7.64L15.91,107.61a54.47,54.47,0,0,0,0,76.94l91.68,91.68c1.24,1.25,2.53,2.41,3.87,3.52a53.22,53.22,0,0,0,10.65,6.88A54.51,54.51,0,0,0,182.74,278c.6-.56,1.2-1.13,1.79-1.72l.49-.49,22.33-22.33L221,239.75l50.9-50.9,4.3-4.3A54.47,54.47,0,0,0,276.21,107.61ZM261.3,164.47a25.89,25.89,0,0,1-2.42,2.75L167.2,258.9a29.89,29.89,0,0,1-42.28,0L33.24,167.22a29.89,29.89,0,0,1,0-42.28l7.61-7.62,7.38-7.38L95.79,62.39l22.33-22.33,6.8-6.8a29.48,29.48,0,0,1,7.45-5.44,29.86,29.86,0,0,1,13.69-3.32,30.58,30.58,0,0,1,5.87.58,29.73,29.73,0,0,1,15.27,8.18l91.68,91.68A29.89,29.89,0,0,1,261.3,164.47Z"/><path class="cls-4" d="M198.52,227.59,167.2,258.9a29.86,29.86,0,0,1-19.39,8.71L73.87,91.16l1.89-1.89,45.67-45.66Z"/><path class="cls-4" d="M228.91,197.19l-13.66,13.67-75-179c.84-.16,1.68-.29,2.53-.39.36,0,.71-.08,1.07-.11a30.19,30.19,0,0,1,8.16.48,29,29,0,0,1,5.84,1.81h0a28.86,28.86,0,0,1,3.2,1.59Z"/><polygon class="cls-5" points="85.56 37.96 95.79 62.39 48.23 109.94 38 85.52 80.57 42.95 85.56 37.96"/><path class="cls-5" d="M185,275.74l-.49.49c-.59.59-1.19,1.16-1.79,1.72a54.51,54.51,0,0,1-60.63,8.68l-22-52.57,24.85,24.84a29.89,29.89,0,0,0,42.28,0l7.59-7.58Z"/><path class="cls-5" d="M122.87,5.16l9.5,22.66a29.48,29.48,0,0,0-7.45,5.44l-6.8,6.8L107.87,15.64A54.34,54.34,0,0,1,122.87,5.16Z"/><polygon class="cls-5" points="221.01 239.75 207.35 253.41 197.1 229 210.77 215.34 221.01 239.75"/><path class="cls-1" d="M200.75,136.94a5.21,5.21,0,0,0-2.89-8.88l-33.14-4.81a5.2,5.2,0,0,1-3.92-2.85L146,90.36a5.07,5.07,0,0,0-1.09-1.46l-.37-5-6.06,4.38h0a5.08,5.08,0,0,0-1.81,2l-14.83,30a5.19,5.19,0,0,1-3.91,2.85l-30.56,4.44-.27-2.38-3.84,3.21h0a5.22,5.22,0,0,0-1.36,8.42l24,23.38a5.18,5.18,0,0,1,1.5,4.6l-5.66,33a5.2,5.2,0,0,0,7.54,5.49l29.65-15.59a5.18,5.18,0,0,1,4.84,0l29.65,15.59a5.12,5.12,0,0,0,5-.12h0l.06-.05a5.18,5.18,0,0,0,1-.79l4.37-3.42-3.52-4.55-5.07-29.58a5.2,5.2,0,0,1,1.49-4.6Z"/><path class="cls-6" d="M180.11,159a4.86,4.86,0,0,0-.1,2.18l5.67,33a5.21,5.21,0,0,1-7.55,5.49l-2.23-1.16-27.42-14.42a5.11,5.11,0,0,0-4.84,0L114,199.65a5.2,5.2,0,0,1-6.68-1.61,5.12,5.12,0,0,1-.87-3.88l5.67-33a5.24,5.24,0,0,0-1.5-4.6l-24-23.38a5.2,5.2,0,0,1,2.89-8.87l32.67-4.75.47-.07a5.22,5.22,0,0,0,2.67-1.23,5,5,0,0,0,1.24-1.61l14.83-30a5.21,5.21,0,0,1,9.34,0l14.81,30a5.23,5.23,0,0,0,3.93,2.84l33.14,4.82a5.21,5.21,0,0,1,2.89,8.87l-24,23.38A5.17,5.17,0,0,0,180.11,159Z"/><path class="cls-7" d="M206.61,127.33l-60.55,18.75V83.7a5.16,5.16,0,0,1,4.67,2.9l14.81,30a5.23,5.23,0,0,0,3.93,2.84l33.14,4.82A5.12,5.12,0,0,1,206.61,127.33Z"/><path class="cls-7" d="M183.82,199.08l-37.76-53L180.11,159a4.86,4.86,0,0,0-.1,2.18l5.67,33A5.13,5.13,0,0,1,183.82,199.08Z"/><path class="cls-7" d="M146.06,146.08v37.38a5.17,5.17,0,0,0-2.42.61L114,199.65a5.2,5.2,0,0,1-6.68-1.61Z"/><path class="cls-7" d="M146.06,146.08,85.19,128.26a5.15,5.15,0,0,1,4.32-4l32.67-4.75.47-.07a5.22,5.22,0,0,0,2.67-1.23Z"/></g></g></g></svg>