<svg
        width="16"
        height="16"
        viewBox="0 0 16 16"
        fill="none"
        xmlns="http://www.w3.org/2000/svg"
>
    <g clip-path="url(#clip0_1151_11756)">
        <path
                d="M15 8.40986C15 12.0495 11.8661 14.9999 8 14.9999C7.08061 15.0004 6.17013 14.8302 5.32063 14.4992C4.47112 14.1682 3.69925 13.6828 3.04914 13.0708C2.39903 12.4587 1.88344 11.7321 1.53183 10.9323C1.18022 10.1326 0.999503 9.2754 1 8.40986C1 4.7702 4.13392 1.81983 8 1.81983C8.72833 1.8191 9.45232 1.92531 10.1459 2.13464C12.9623 2.98863 15 5.47407 15 8.40986Z"
                fill="#994D17"
        />
        <path
                d="M15 7.59003C15 11.2294 11.8661 14.1801 8 14.1801C7.08065 14.1804 6.17023 14.0102 5.32079 13.6791C4.47135 13.3481 3.69953 12.8627 3.04945 12.2506C2.39936 11.6386 1.88376 10.912 1.53211 10.1123C1.18045 9.31264 0.999638 8.45554 1 7.59003C1 3.95037 4.13392 1 8 1C8.91952 0.999108 9.8302 1.16895 10.6799 1.49982C11.5296 1.83068 12.3017 2.31606 12.9519 2.92818C13.6021 3.5403 14.1177 4.26713 14.4691 5.06708C14.8205 5.86702 15.001 6.72436 15 7.59003Z"
                fill="#FFEA80"
        />
        <path
                d="M15 7.97064C15 11.6103 11.8661 14.5607 8 14.5607C7.08065 14.561 6.17023 14.3908 5.32079 14.0597C4.47135 13.7287 3.69953 13.2433 3.04945 12.6313C2.39936 12.0193 1.88376 11.2926 1.53211 10.4929C1.18045 9.69325 0.999638 8.83616 1 7.97064C1 4.33099 4.13392 1.38062 8 1.38062C8.72836 1.3801 9.45236 1.48653 10.1459 1.69608C12.9623 2.54942 15 5.03584 15 7.97064Z"
                fill="#FFCF40"
        />
        <path
                d="M15 7.97061C15 11.6103 11.8661 14.5606 8.00003 14.5606C6.82154 14.5625 5.66184 14.2827 4.62952 13.7475L10.1459 1.69604C12.9623 2.54938 15 5.0358 15 7.97061Z"
                fill="#F7A831"
        />
        <path
                d="M10.3359 6.83596H6.08621C6.01089 6.83485 5.93911 6.80566 5.88662 6.75478C5.83413 6.70391 5.80522 6.63551 5.80623 6.56459V5.28685C5.80475 5.12414 5.87172 4.96749 5.99251 4.8511C6.1133 4.73471 6.2781 4.66805 6.45092 4.66565H9.68815C9.91932 4.66616 10.1482 4.62285 10.3612 4.53829C10.5742 4.45374 10.767 4.32967 10.9279 4.17349L11.0333 4.07266L11.366 3.98285V3.6126C11.3681 3.59038 11.3681 3.56803 11.366 3.54581V3.48518H11.356C11.3502 3.46104 11.3422 3.4374 11.3323 3.4145C11.2995 3.33815 11.243 3.27285 11.1703 3.22706C11.0976 3.18127 11.012 3.15711 10.9245 3.15772H8.7893V2.95184C8.7893 2.85426 8.76889 2.75763 8.72922 2.66747C8.68955 2.57731 8.63141 2.49539 8.55811 2.42639C8.48482 2.35739 8.3978 2.30265 8.30204 2.26531C8.20627 2.22796 8.10363 2.20874 7.99997 2.20874C7.89631 2.20874 7.79367 2.22796 7.69791 2.26531C7.60214 2.30265 7.51512 2.35739 7.44183 2.42639C7.36853 2.49539 7.31039 2.57731 7.27072 2.66747C7.23105 2.75763 7.21064 2.85426 7.21064 2.95184V3.15675H6.45092C5.2249 3.15675 4.22791 4.11222 4.22791 5.28685V6.96954C4.22791 7.72756 4.87191 8.34454 5.66365 8.34454H9.91373C9.95115 8.34488 9.98814 8.35218 10.0226 8.36601C10.057 8.37985 10.0882 8.39996 10.1143 8.42517C10.1405 8.45039 10.1611 8.48022 10.1749 8.51295C10.1888 8.54569 10.1956 8.58068 10.1951 8.61591V9.90078C10.1968 10.0615 10.1308 10.2164 10.0116 10.3314C9.89226 10.4465 9.72941 10.5123 9.55866 10.5145H6.31144C6.08028 10.514 5.85137 10.5573 5.63837 10.6419C5.42537 10.7264 5.23263 10.8505 5.07165 11.0067L4.7617 11.3037C4.69374 11.3689 4.65001 11.453 4.63704 11.5436C4.63187 11.5814 4.63187 11.6196 4.63704 11.6574V12.0273L4.8571 11.9683C4.92444 12.0048 5.00085 12.0238 5.07854 12.0234H7.21374V12.2283C7.21374 12.4254 7.2969 12.6144 7.44493 12.7538C7.59296 12.8931 7.79373 12.9714 8.00307 12.9714C8.21241 12.9714 8.41318 12.8931 8.56121 12.7538C8.70924 12.6144 8.7924 12.4254 8.7924 12.2283V12.0234H9.5597C10.7812 12.0234 11.7751 11.0712 11.7751 9.90078V8.21032C11.772 7.45197 11.128 6.83596 10.3359 6.83596Z"
                fill="#592D0D"
        />
        <path
                d="M10.3359 7.47968H6.08621C6.01092 7.47848 5.93919 7.44926 5.88672 7.39841C5.83425 7.34755 5.80531 7.2792 5.80623 7.20831V5.9309C5.80485 5.76824 5.87185 5.61167 5.99263 5.49535C6.11341 5.37904 6.27816 5.31241 6.45092 5.31002H9.68815C9.91932 5.31053 10.1482 5.26722 10.3612 5.18266C10.5742 5.09811 10.767 4.97404 10.9279 4.81786L11.2379 4.52055C11.3002 4.46072 11.3424 4.38487 11.359 4.30256C11.3757 4.22024 11.3661 4.13512 11.3316 4.0579C11.2988 3.98151 11.2424 3.91616 11.1697 3.87032C11.097 3.82447 11.0113 3.80025 10.9238 3.80079H8.7893V3.59589C8.7893 3.4983 8.76889 3.40167 8.72922 3.31151C8.68955 3.22136 8.63141 3.13944 8.55811 3.07043C8.48482 3.00143 8.3978 2.94669 8.30204 2.90935C8.20627 2.872 8.10363 2.85278 7.99997 2.85278C7.89631 2.85278 7.79367 2.872 7.69791 2.90935C7.60214 2.94669 7.51512 3.00143 7.44183 3.07043C7.36853 3.13944 7.31039 3.22136 7.27072 3.31151C7.23105 3.40167 7.21064 3.4983 7.21064 3.59589V3.80079H6.45092C5.2249 3.80079 4.22791 4.75626 4.22791 5.9309V7.61391C4.22791 8.37225 4.87191 8.98891 5.66365 8.98891H9.91373C9.98899 8.9901 10.0607 9.01933 10.1131 9.0702C10.1655 9.12107 10.1944 9.18942 10.1934 9.26028V10.5448C10.1952 10.7056 10.1292 10.8605 10.0099 10.9756C9.89062 11.0906 9.72772 11.1564 9.55694 11.1586H6.31144C6.08028 11.1581 5.85137 11.2014 5.63837 11.2859C5.42537 11.3705 5.23263 11.4945 5.07165 11.6507L4.7617 11.948C4.69923 12.0081 4.65711 12.0843 4.64068 12.167C4.62425 12.2496 4.63425 12.335 4.66941 12.4123C4.70219 12.4887 4.75859 12.554 4.83129 12.5999C4.904 12.6457 4.98966 12.67 5.07716 12.6694H7.21236V12.874C7.21236 13.0711 7.29552 13.2601 7.44355 13.3995C7.59158 13.5388 7.79235 13.6171 8.00169 13.6171C8.21104 13.6171 8.41181 13.5388 8.55984 13.3995C8.70786 13.2601 8.79103 13.0711 8.79103 12.874V12.6694H9.55832C10.7799 12.6694 11.7738 11.7169 11.7738 10.5464V8.85468C11.772 8.09634 11.128 7.47968 10.3359 7.47968Z"
                fill="#FFCF40"
        />
        <path
                d="M10.3359 7.20551H6.08622C6.01092 7.20431 5.93919 7.17509 5.88672 7.12424C5.83425 7.07338 5.80531 7.00503 5.80623 6.93414V5.65673C5.80485 5.49407 5.87186 5.3375 5.99263 5.22118C6.11341 5.10487 6.27816 5.03824 6.45092 5.03585H9.68815C9.91932 5.03636 10.1482 4.99305 10.3612 4.90849C10.5742 4.82394 10.767 4.69987 10.9279 4.54369L11.2379 4.24638C11.3002 4.18655 11.3424 4.1107 11.359 4.02839C11.3757 3.94607 11.3661 3.86095 11.3316 3.78373C11.2988 3.70734 11.2424 3.64199 11.1697 3.59615C11.097 3.5503 11.0113 3.52608 10.9238 3.52662H8.7893V3.32172C8.7893 3.22413 8.76889 3.1275 8.72922 3.03734C8.68955 2.94719 8.63141 2.86527 8.55811 2.79626C8.48482 2.72726 8.3978 2.67252 8.30204 2.63518C8.20627 2.59783 8.10363 2.57861 7.99997 2.57861C7.89631 2.57861 7.79367 2.59783 7.69791 2.63518C7.60214 2.67252 7.51512 2.72726 7.44183 2.79626C7.36853 2.86527 7.31039 2.94719 7.27072 3.03734C7.23105 3.1275 7.21064 3.22413 7.21064 3.32172V3.52662H6.45092C5.2249 3.52662 4.22791 4.48209 4.22791 5.65673V7.33941C4.22791 8.09775 4.87191 8.71441 5.66365 8.71441H9.91373C9.98899 8.71561 10.0607 8.74484 10.1131 8.79571C10.1655 8.84657 10.1944 8.91492 10.1934 8.98578V10.2707C10.1952 10.4314 10.1292 10.5863 10.0099 10.7014C9.89063 10.8164 9.72772 10.8823 9.55694 10.8844H6.31144C6.08028 10.8839 5.85137 10.9272 5.63837 11.0118C5.42537 11.0963 5.23263 11.2204 5.07165 11.3766L4.7617 11.6739C4.6994 11.7337 4.6573 11.8096 4.64069 11.8919C4.62408 11.9742 4.63372 12.0593 4.66838 12.1365C4.70115 12.2129 4.75755 12.2783 4.83026 12.3241C4.90297 12.3699 4.98862 12.3942 5.07613 12.3936H7.21133V12.5982C7.21133 12.7953 7.29449 12.9843 7.44252 13.1237C7.59055 13.263 7.79132 13.3413 8.00066 13.3413C8.21 13.3413 8.41077 13.263 8.5588 13.1237C8.70683 12.9843 8.78999 12.7953 8.78999 12.5982V12.3936H9.55729C10.7788 12.3936 11.7727 11.4411 11.7727 10.2707V8.58051C11.772 7.82217 11.128 7.20551 10.3359 7.20551Z"
                fill="#994D17"
        />
    </g>
    <defs>
        <clipPath id="clip0_1151_11756">
            <rect
                    width="14"
                    height="14"
                    fill="white"
                    transform="translate(1 1)"
            />
        </clipPath>
    </defs>
</svg>
