<?xml version="1.0"?>
<svg width="20" height="20" viewBox="0 0 20 20" fill="none" xmlns="http://www.w3.org/2000/svg">
    <g clip-path="url(#clip0_2564_36938)">
        <path d="M16.355 7.408H10.9143C10.7964 7.40817 10.6806 7.3747 10.579 7.31107C10.4774 7.24744 10.3937 7.15598 10.3366 7.04623C10.2795 6.93648 10.2512 6.81245 10.2545 6.68706C10.2578 6.56167 10.2926 6.43952 10.3554 6.33333L13.4564 1.04667C13.5167 0.942909 13.5498 0.823928 13.5525 0.701984C13.5552 0.58004 13.5273 0.459544 13.4716 0.35291C13.4159 0.246277 13.3345 0.157363 13.2358 0.0953309C13.1371 0.0332987 13.0246 0.000391463 12.91 0L7.40599 0C7.27031 4.50805e-05 7.13811 0.0456242 7.0282 0.130249C6.91828 0.214874 6.83626 0.334232 6.7938 0.471333L6.77501 0.533333H6.64969C6.51401 0.533378 6.38181 0.578958 6.2719 0.663583C6.16198 0.748208 6.07996 0.867566 6.03751 1.00467L3.0311 10.1913C2.89388 10.6347 3.23725 11.5333 3.67587 11.5333H8.08334C8.19641 11.5334 8.30757 11.5644 8.40613 11.6234C8.50469 11.6824 8.58733 11.7673 8.64611 11.8701C8.70488 11.9729 8.73782 12.09 8.74176 12.2103C8.74569 12.3305 8.72049 12.4498 8.66858 12.5567L9.39041 12.09L5.05814 19.7713C5.0423 19.804 5.03777 19.8415 5.04537 19.8773C5.05297 19.9131 5.07219 19.9449 5.09966 19.9671C5.12713 19.9894 5.16109 20.0006 5.19556 19.9988C5.23003 19.997 5.26279 19.9823 5.2881 19.9573L16.7924 8.6C16.8887 8.50667 16.9561 8.38447 16.9858 8.24952C17.0155 8.11457 17.006 7.97321 16.9587 7.8441C16.9113 7.71499 16.8282 7.6042 16.7205 7.52634C16.6127 7.44848 16.4853 7.40722 16.355 7.408Z" fill="#E67716"/>
        <path d="M6.03533 0.471334L3.06276 10.1013C3.03106 10.2043 3.02276 10.3138 3.03854 10.4208C3.05432 10.5279 3.09372 10.6294 3.15353 10.7171C3.21333 10.8048 3.29183 10.8762 3.38258 10.9254C3.47332 10.9745 3.57374 11.0001 3.67557 11H8.08304C8.19612 11.0001 8.30728 11.0311 8.40583 11.0901C8.50439 11.149 8.58703 11.234 8.64581 11.3368C8.70459 11.4396 8.73753 11.5567 8.74146 11.6769C8.7454 11.7972 8.7202 11.9165 8.66828 12.0233L4.90871 19.7707C4.89287 19.8033 4.88835 19.8408 4.89594 19.8766C4.90354 19.9124 4.92276 19.9443 4.95024 19.9665C4.97771 19.9887 5.01167 19.9999 5.04613 19.9981C5.0806 19.9963 5.11337 19.9816 5.13867 19.9567L16.0333 8.6C16.1285 8.50636 16.195 8.3843 16.224 8.24981C16.2529 8.11532 16.2431 7.97465 16.1957 7.84622C16.1483 7.71778 16.0656 7.60755 15.9583 7.52996C15.8511 7.45237 15.7243 7.41102 15.5947 7.41133H10.1558C10.0374 7.41201 9.92097 7.37872 9.81881 7.31497C9.71665 7.25122 9.63252 7.15936 9.57527 7.04906C9.51801 6.93876 9.48975 6.81408 9.49344 6.68813C9.49714 6.56219 9.53266 6.43963 9.59627 6.33333L12.6979 1.04667C12.7583 0.942669 12.7915 0.823382 12.7941 0.701153C12.7966 0.578923 12.7684 0.458193 12.7123 0.351457C12.6563 0.244721 12.5745 0.155859 12.4753 0.0940672C12.3762 0.0322754 12.2633 -0.000200482 12.1484 9.3119e-07H6.64751C6.51184 4.60117e-05 6.37963 0.0456251 6.26972 0.13025C6.15981 0.214875 6.07778 0.334233 6.03533 0.471334Z" fill="#FFCF40"/>
        <path d="M5.5329 4.11911L6.63446 1.29778C6.72019 1.07801 6.86733 0.891584 7.05596 0.763752C7.24458 0.635921 7.46558 0.572859 7.68901 0.583109L8.90147 0.637776C8.94734 0.639765 8.99116 0.658546 9.02552 0.690942C9.05988 0.723339 9.08266 0.767364 9.09003 0.815575C9.0974 0.863786 9.0889 0.913225 9.06596 0.955534C9.04302 0.997843 9.00705 1.03043 8.96413 1.04778L8.48667 1.23978C7.8773 1.48474 7.34566 1.90845 6.95339 2.46178L5.7002 4.22311C5.68495 4.24102 5.66437 4.25281 5.64192 4.25649C5.61947 4.26017 5.59651 4.25553 5.57689 4.24334C5.55727 4.23114 5.5422 4.21214 5.53419 4.18952C5.52618 4.1669 5.52573 4.14204 5.5329 4.11911Z" fill="white"/>
    </g>
    <defs>
        <clipPath id="clip0_2564_36938">
            <rect
                    width="14"
                    height="20"
                    fill="white"
                    transform="translate(3)"
            />
        </clipPath>
    </defs>
</svg>
