<svg width="20" height="20" viewBox="0 0 20 20" fill="none" xmlns="http://www.w3.org/2000/svg">
<g clip-path="url(#clip0_910_10140)">
<path d="M19.0016 7.56113C19.0016 7.65542 18.9834 7.75333 18.9834 7.85488C18.9834 11.3944 14.3926 15.3618 11.1166 17.6466C10.7884 17.8766 10.3971 18 9.99612 18C9.59512 18 9.20388 17.8766 8.87566 17.6466C8.16743 17.1497 7.39745 16.5586 6.62748 15.9421C6.08995 15.5033 5.53789 15.0354 5.02941 14.5459C2.85024 12.5005 1.03426 10.0961 1.03426 7.8585C1.03426 7.75696 1.03426 7.65904 1.03426 7.56475H1.00157C1.00157 6.33173 0.928933 4.92463 1.86598 3.99985C3.59116 2.28087 6.85992 2.32076 8.72675 3.88743L10.0052 4.9754L11.2836 3.88743C11.8113 3.44349 12.4307 3.12159 13.0975 2.94478C13.7644 2.76797 14.4621 2.74064 15.1408 2.86474C16.0524 3.02794 17.2255 3.15487 17.9301 3.85479C18.8672 4.79407 19.0197 6.33173 18.9979 7.56113H19.0016Z" fill="#BF5C5C"/>
<path d="M19.0016 6.79592C19.0016 6.89021 18.9834 6.98813 18.9834 7.08967C18.9834 10.6292 14.3926 14.5966 11.1166 16.8814C10.7884 17.1114 10.3971 17.2348 9.99612 17.2348C9.59513 17.2348 9.20388 17.1114 8.87566 16.8814C8.16743 16.3881 7.39745 15.7934 6.62748 15.1769C6.08995 14.7381 5.53789 14.2702 5.02942 13.7807C2.8575 11.7317 1.027 9.32725 1.027 7.10055C1.027 6.99901 1.027 6.90109 1.027 6.8068H1.00157C0.97813 5.90288 1.21713 5.01149 1.68974 4.24018C2.16235 3.46886 2.84839 2.85057 3.66507 2.4599C4.48176 2.06922 5.39422 1.92285 6.29236 2.03845C7.19051 2.15404 8.03597 2.52666 8.72675 3.11135L10.0052 4.19931L11.2836 3.11135C11.974 2.53079 12.8173 2.16134 13.7126 2.04728C14.608 1.93323 15.5172 2.0794 16.3314 2.46829C17.1456 2.85718 17.8302 3.47228 18.3032 4.23985C18.7761 5.00743 19.0173 5.89491 18.9979 6.79592H19.0016Z" fill="#F77777"/>
<path d="M15.1408 2.09954L5.02942 13.777C2.8575 11.7317 1.027 9.32725 1.027 7.10055C1.027 6.99901 1.027 6.90109 1.027 6.8068H1.00157C0.97813 5.90288 1.21713 5.01149 1.68974 4.24018C2.16235 3.46886 2.84839 2.85057 3.66507 2.4599C4.48176 2.06922 5.39422 1.92285 6.29236 2.03845C7.19051 2.15404 8.03597 2.52666 8.72675 3.11135L10.0052 4.19931L11.2836 3.11135C11.8122 2.66931 12.432 2.34938 13.0988 2.17447C13.7656 1.99955 14.4629 1.97396 15.1408 2.09954V2.09954Z" fill="#FF8787"/>
</g>
<defs>
<clipPath id="clip0_910_10140">
<rect width="18" height="16" fill="white" transform="translate(1 2)"/>
</clipPath>
</defs>
</svg>
