<svg width="22" height="21" viewBox="0 0 22 21" fill="none" xmlns="http://www.w3.org/2000/svg">
<path d="M15.7756 0.898438C13.7383 0.898438 11.9387 1.93731 10.8657 3.5197C9.79269 1.93731 7.99306 0.898438 5.95575 0.898438C2.66888 0.898438 0 3.60226 0 6.93215C0 14.2868 10.8657 20.8984 10.8657 20.8984C10.8657 20.8984 21.7313 14.2868 21.7313 6.93215C21.7313 3.60226 19.0625 0.898438 15.7756 0.898438Z" fill="url(#paint0_radial_4491_56814)"/>
<path opacity="0.5" d="M18.2401 1.42969C21.4998 6.69285 18.4981 13.6003 14.8921 15.5611C10.9125 17.7283 8.1893 16.71 2.55273 13.4696C5.7649 17.7833 10.865 20.8862 10.865 20.8862C10.865 20.8862 21.7307 14.2745 21.7307 6.91988C21.7307 4.48438 20.2977 2.37912 18.2401 1.42969Z" fill="url(#paint1_radial_4491_56814)"/>
<path opacity="0.5" d="M15.7756 0.898438C13.7383 0.898438 11.9387 1.93731 10.8657 3.5197C9.79269 1.93731 7.99306 0.898438 5.95575 0.898438C2.66888 0.898438 0 3.60226 0 6.93215C0 14.2868 10.8657 20.8984 10.8657 20.8984C10.8657 20.8984 21.7313 14.2868 21.7313 6.93215C21.7313 3.60226 19.0625 0.898438 15.7756 0.898438Z" fill="url(#paint2_radial_4491_56814)"/>
<path opacity="0.5" d="M15.7756 0.898438C13.7383 0.898438 11.9387 1.93731 10.8657 3.5197C9.79269 1.93731 7.99306 0.898438 5.95575 0.898438C2.66888 0.898438 0 3.60226 0 6.93215C0 14.2868 10.8657 20.8984 10.8657 20.8984C10.8657 20.8984 21.7313 14.2868 21.7313 6.93215C21.7313 3.60226 19.0625 0.898438 15.7756 0.898438Z" fill="url(#paint3_radial_4491_56814)"/>
<defs>
<radialGradient id="paint0_radial_4491_56814" cx="0" cy="0" r="1" gradientUnits="userSpaceOnUse" gradientTransform="translate(7.75763 6.47692) rotate(-29.7278) scale(17.0561 13.6204)">
<stop offset="0.2479" stop-color="#FF0000"/>
<stop offset="0.8639" stop-color="#C20000"/>
</radialGradient>
<radialGradient id="paint1_radial_4491_56814" cx="0" cy="0" r="1" gradientUnits="userSpaceOnUse" gradientTransform="translate(8.17746 5.41492) rotate(-29.7278) scale(14.6847 11.7267)">
<stop offset="0.2479" stop-color="#FF0000"/>
<stop offset="1" stop-color="#C20000"/>
</radialGradient>
<radialGradient id="paint2_radial_4491_56814" cx="0" cy="0" r="1" gradientUnits="userSpaceOnUse" gradientTransform="translate(7.75763 6.47692) rotate(-29.7278) scale(17.0561 13.6204)">
<stop stop-color="white" stop-opacity="0.25"/>
<stop offset="1" stop-color="white" stop-opacity="0"/>
</radialGradient>
<radialGradient id="paint3_radial_4491_56814" cx="0" cy="0" r="1" gradientUnits="userSpaceOnUse" gradientTransform="translate(13.8696 12.3243) rotate(-26.5931) scale(12.443 6.19704)">
<stop stop-color="#BD2719" stop-opacity="0.25"/>
<stop offset="1" stop-color="#BD2719" stop-opacity="0"/>
</radialGradient>
</defs>
</svg>
