<svg width="64" height="65" viewBox="0 0 64 65" fill="none" xmlns="http://www.w3.org/2000/svg">
<g clip-path="url(#clip0_5287_82087)">
<path d="M50.9656 19.368H54.6989C54.9196 19.3753 55.1367 19.4262 55.3377 19.5179C55.5388 19.6095 55.7199 19.7401 55.8708 19.9022C56.0216 20.0643 56.1392 20.2547 56.2167 20.4625C56.2943 20.6703 56.3304 20.8915 56.3229 21.1133V23.7969C56.4186 27.385 55.0981 30.8654 52.6498 33.4779C50.2016 36.0905 46.8246 37.6229 43.2563 37.7406H43.1629L51.0589 19.368M48.5763 15.4082L37.2456 41.6817H43.2003C47.7902 41.5394 52.1367 39.5726 55.2862 36.2128C58.4356 32.8529 60.131 28.3743 60.0003 23.7594V21.1133C60.0016 19.6614 59.4451 18.2652 58.4468 17.2161C57.4485 16.167 56.0857 15.5462 54.6429 15.4833L48.5763 15.4082Z" fill="#F08A30"/>
<path d="M13.0349 19.368L20.9309 37.7406H20.8002C17.2319 37.6229 13.8549 36.0905 11.4066 33.4779C8.95841 30.8654 7.63792 27.385 7.73353 23.7969V21.1133C7.72605 20.8915 7.76214 20.6703 7.83973 20.4625C7.91732 20.2547 8.03488 20.0643 8.18571 19.9022C8.33654 19.7401 8.51766 19.6095 8.71873 19.5179C8.9198 19.4262 9.13687 19.3753 9.35753 19.368H13.0909M15.4242 15.4082H9.35753C7.90178 15.4715 6.5279 16.1028 5.52761 17.168C4.52732 18.2333 3.97941 19.6485 4.0002 21.1133V23.7969C3.8695 28.4118 5.56483 32.8904 8.71431 36.2503C11.8638 39.6102 16.2102 41.5769 20.8002 41.7192H26.7175L15.4242 15.4082Z" fill="#FFAF40"/>
<path d="M37.2642 37.4023H26.7549V58.0458H37.2642V37.4023Z" fill="#F08A30"/>
<path d="M53.0003 8.91457V11.2979C52.9973 17.4701 51.6874 23.5708 49.1577 29.1946C46.628 34.8183 42.9363 39.8362 38.3283 43.9146C36.6839 45.3405 34.6115 46.1709 32.4423 46.2729C30.2732 46.375 28.1326 45.7428 26.363 44.4776L26.2136 44.3087L25.6723 43.8583L25.243 43.4454C24.5523 42.8073 23.8803 42.1693 23.227 41.5687C22.6261 40.9758 22.059 40.3492 21.5283 39.6921L21.2856 39.4105L20.5203 38.491C19.9416 37.7591 19.3816 36.9896 18.8403 36.2202L18.075 35.0754C17.963 34.9065 17.851 34.7564 17.7576 34.5875C17.6643 34.4186 17.2536 33.7805 17.011 33.3677C16.7683 32.9548 16.675 32.7859 16.5256 32.4856C16.115 31.7725 15.7416 31.0406 15.3683 30.2899C14.8456 29.2202 14.3603 28.113 13.931 26.987C13.7816 26.5929 13.6323 26.1988 13.5016 25.8046C13.3146 25.3065 13.1526 24.7991 13.0163 24.2845C12.8483 23.8341 12.7176 23.365 12.587 22.8958C12.4563 22.4266 12.251 21.6009 12.1016 21.0191C12.1016 20.7564 11.971 20.4937 11.9336 20.2309C11.8963 19.9682 11.7656 19.4052 11.691 18.9923C11.6163 18.5794 11.5603 18.2041 11.5043 17.81C11.4483 17.4159 11.3363 16.6465 11.2803 16.0647C11.2243 15.4829 11.1496 14.8449 11.1123 14.188C11.1215 14.1195 11.1215 14.0501 11.1123 13.9816C11.1123 13.7564 11.1123 13.5312 11.1123 13.306C11.1123 12.6554 11.1123 12.0299 11.1123 11.4293V8.91457C11.1184 8.25844 11.2851 7.61392 11.5976 7.03789C11.9327 6.35833 12.4499 5.78636 13.091 5.38642C13.6806 5.06313 14.342 4.89526 15.0136 4.89848H49.0056C50.0651 4.89848 51.0812 5.3216 51.8303 6.07477C52.5794 6.82793 53.0003 7.84944 53.0003 8.91457Z" fill="#FFAF40"/>
<path d="M44.7311 58.0085C44.7261 58.7767 44.4191 59.5117 43.8771 60.0532C43.335 60.5947 42.6019 60.8986 41.8377 60.8985H22.1631C21.4383 60.8399 20.762 60.509 20.2689 59.9717C19.7758 59.4344 19.502 58.7301 19.502 57.9991C19.502 57.268 19.7758 56.5638 20.2689 56.0265C20.762 55.4892 21.4383 55.1583 22.1631 55.0996H41.8377C42.2177 55.0996 42.5939 55.1748 42.945 55.321C43.296 55.4672 43.615 55.6815 43.8836 55.9516C44.1523 56.2217 44.3654 56.5424 44.5108 56.8953C44.6562 57.2482 44.7311 57.6265 44.7311 58.0085Z" fill="#FFD659"/>
<path d="M44.7307 58.0085C44.7258 58.7767 44.4188 59.5117 43.8767 60.0532C43.3346 60.5947 42.6015 60.8986 41.8374 60.8985H28.0054C27.2805 60.8399 26.6043 60.509 26.1112 59.9717C25.618 59.4344 25.3442 58.7301 25.3442 57.9991C25.3442 57.268 25.618 56.5638 26.1112 56.0265C26.6043 55.4892 27.2805 55.1583 28.0054 55.0996H41.8374C42.2173 55.0996 42.5936 55.1748 42.9446 55.321C43.2956 55.4672 43.6146 55.6815 43.8833 55.9516C44.1519 56.2217 44.365 56.5424 44.5105 56.8953C44.6559 57.2482 44.7307 57.6265 44.7307 58.0085Z" fill="#FFAF40"/>
<path d="M30.6003 46.1853C29.0848 45.9613 27.6446 45.3757 26.4003 44.4776L26.2136 44.3087L25.243 43.4454C24.5523 42.8073 23.8803 42.1693 23.227 41.5687C22.5736 40.9682 22.0883 40.3489 21.5283 39.6921L21.2856 39.4105L20.5203 38.491C19.9416 37.7591 19.3816 36.9896 18.8403 36.2202L18.075 35.0754C17.963 34.9065 17.851 34.7564 17.7576 34.5875C17.6643 34.4186 17.2536 33.7805 17.011 33.3677C16.7683 32.9548 16.675 32.7859 16.5256 32.4856C16.115 31.7725 15.7416 31.0406 15.3683 30.2899C14.8456 29.2202 14.3603 28.113 13.931 26.987C13.7816 26.5929 13.6323 26.1988 13.5016 25.8046C13.3146 25.3065 13.1526 24.7991 13.0163 24.2845C12.8483 23.8341 12.7176 23.365 12.587 22.8958C12.4563 22.4266 12.251 21.6009 12.1016 21.0191C12.1016 20.7564 11.971 20.4937 11.9336 20.2309C11.8963 19.9682 11.7656 19.4052 11.691 18.9923C11.6163 18.5794 11.5603 18.2041 11.5043 17.81C11.4483 17.4159 11.3363 16.6465 11.2803 16.0647C11.2243 15.4829 11.1496 14.8449 11.1123 14.188C11.1215 14.1195 11.1215 14.0501 11.1123 13.9816C11.1123 13.7564 11.1123 13.5312 11.1123 13.306C11.1123 12.6554 11.1123 12.0299 11.1123 11.4293V8.91457C11.1184 8.25844 11.2851 7.61392 11.5976 7.03789C11.9173 6.3479 12.4381 5.77194 13.091 5.38642C13.6806 5.06313 14.342 4.89526 15.0136 4.89848H22.4803C21.8083 17.3971 22.9656 32.617 30.6003 46.1853Z" fill="#FFD659"/>
<path d="M21.5095 18.0355L26.2882 17.3411C26.6062 17.2843 26.9041 17.1455 27.1527 16.9382C27.4014 16.731 27.5923 16.4624 27.7068 16.1588L30.3948 9.81566C30.5218 9.49433 30.7418 9.21873 31.0264 9.02455C31.3109 8.83037 31.6469 8.72656 31.9908 8.72656C32.3348 8.72656 32.6707 8.83037 32.9553 9.02455C33.2399 9.21873 33.4599 9.49433 33.5868 9.81566L36.3122 16.1588C36.4319 16.4414 36.6187 16.6901 36.8563 16.8832C37.0939 17.0762 37.3749 17.2077 37.6748 17.2661L42.6962 18.1481C43.1524 18.2324 43.5641 18.4767 43.8581 18.8375C44.152 19.1983 44.3092 19.6523 44.3015 20.1186L39.9335 22.8961L32.0002 26.4993L22.5175 22.4457L19.6802 20.1374C19.6986 19.6291 19.8906 19.1427 20.2237 18.7599C20.5568 18.3772 21.0109 18.1214 21.5095 18.0355Z" fill="#F08A30"/>
<path d="M38.9816 25.8044C38.8805 25.9021 38.8053 26.0237 38.7629 26.1581C38.7205 26.2925 38.7123 26.4354 38.7389 26.5739L39.9336 33.5926C39.9586 33.7536 39.9387 33.9183 39.8762 34.0686C39.8137 34.2189 39.7111 34.3488 39.5796 34.444C39.4482 34.5393 39.2931 34.596 39.1315 34.6081C38.97 34.6201 38.8082 34.5869 38.6643 34.5122L32.4109 31.1717C32.2835 31.1073 32.1429 31.0738 32.0003 31.0738C31.8577 31.0738 31.717 31.1073 31.5896 31.1717L25.3363 34.4934C25.1923 34.5682 25.0306 34.6013 24.869 34.5893C24.7075 34.5773 24.5524 34.5205 24.4209 34.4253C24.2895 34.3301 24.1868 34.2001 24.1243 34.0498C24.0619 33.8995 24.042 33.7348 24.0669 33.5739L24.2723 32.3353L25.2616 26.5551C25.2883 26.4167 25.28 26.2737 25.2376 26.1393C25.1952 26.0049 25.1201 25.8833 25.0189 25.7857L22.3309 23.1771L19.9416 20.8312C19.8306 20.7157 19.7531 20.5719 19.7174 20.4153C19.6818 20.2587 19.6893 20.0953 19.7393 19.9427C19.7892 19.7901 19.8797 19.6541 20.0009 19.5495C20.1221 19.4448 20.2694 19.3753 20.4269 19.3487L27.4456 18.3165C27.5832 18.3015 27.7143 18.2503 27.8258 18.1679C27.9373 18.0855 28.0251 17.9749 28.0803 17.8473L31.2163 11.4666C31.2893 11.3205 31.4013 11.1976 31.5397 11.1118C31.6782 11.0259 31.8376 10.9805 32.0003 10.9805C32.1629 10.9805 32.3224 11.0259 32.4608 11.1118C32.5993 11.1976 32.7113 11.3205 32.7843 11.4666L34.2776 14.5256L35.9016 17.8473C35.9629 17.9741 36.0548 18.0835 36.1689 18.1655C36.283 18.2474 36.4157 18.2993 36.5549 18.3165L42.4909 19.1985L43.5736 19.3487C43.7312 19.3753 43.8785 19.4448 43.9997 19.5495C44.1209 19.6541 44.2113 19.7901 44.2613 19.9427C44.3112 20.0953 44.3188 20.2587 44.2831 20.4153C44.2475 20.5719 44.1699 20.7157 44.0589 20.8312L38.9816 25.8044Z" fill="#FFFBCC"/>
</g>
<defs>
<clipPath id="clip0_5287_82087">
<rect width="56" height="56" fill="white" transform="translate(4 4.89844)"/>
</clipPath>
</defs>
</svg>
