<svg width="176" height="192" viewBox="0 0 176 192" fill="none" xmlns="http://www.w3.org/2000/svg">
<path d="M151.982 39.8514L98.5002 179.504C98.0875 180.583 97.4666 181.57 96.6729 182.408C95.8792 183.247 94.9283 183.921 93.8745 184.391C92.8208 184.861 91.6848 185.119 90.5316 185.149C89.3783 185.18 88.2305 184.982 87.1535 184.568L25.9674 161.044C24.8903 160.632 23.9051 160.01 23.0681 159.215C22.2311 158.421 21.5588 157.469 21.0896 156.413C20.6205 155.358 20.3637 154.221 20.334 153.066C20.3042 151.911 20.5022 150.762 20.9164 149.684L74.3933 10.0315C74.806 8.95245 75.4269 7.9654 76.2206 7.12681C77.0143 6.28821 77.9652 5.61451 79.019 5.1442C80.0727 4.67389 81.2087 4.4162 82.3619 4.38585C83.5151 4.3555 84.663 4.55309 85.74 4.96732L91.1962 7.08385C92.2063 7.47069 93.0805 8.14649 93.7101 9.02715C94.3397 9.90782 94.6969 10.9545 94.7372 12.0369C94.7793 13.1176 95.1367 14.1623 95.7652 15.0417C96.3937 15.9211 97.2657 16.5968 98.2734 16.9851L128.468 28.5826C129.477 28.9698 130.577 29.0522 131.631 28.8194C132.686 28.5866 133.65 28.0489 134.402 27.273C135.156 26.4972 136.12 25.9597 137.176 25.727C138.231 25.4942 139.332 25.5764 140.341 25.9635L146.902 28.5101C149.076 29.3404 150.832 31.0012 151.785 33.1277C152.737 35.2543 152.808 37.6726 151.982 39.8514Z" fill="#FFF3D9"/>
<path d="M141.296 26.3358L23.584 142.793L74.3931 10.0511C74.8057 8.97198 75.4267 7.98493 76.2204 7.14634C77.0141 6.30774 77.965 5.63404 79.0187 5.16373C80.0725 4.69342 81.2084 4.43573 82.3617 4.40538C83.5149 4.37503 84.6628 4.57262 85.7397 4.98685L91.196 7.08405C92.206 7.47089 93.0803 8.14669 93.7099 9.02736C94.3395 9.90802 94.6966 10.9547 94.737 12.0371C94.7791 13.1178 95.1365 14.1625 95.7649 15.0419C96.3934 15.9213 97.2654 16.597 98.2732 16.9853L128.468 28.5828C129.477 28.97 130.576 29.0524 131.631 28.8196C132.686 28.5868 133.649 28.0491 134.402 27.2732C135.156 26.4974 136.12 25.9599 137.175 25.7272C138.231 25.4944 139.331 25.5766 140.341 25.9637L141.296 26.3358Z" fill="#FFFAF2"/>
<path d="M147.529 26.8478L86.3722 3.34375C83.1101 2.08994 79.4845 2.18535 76.2927 3.609C73.1009 5.03265 70.6043 7.66794 69.3522 10.9352L15.8704 150.587C15.2501 152.206 14.9542 153.93 14.9997 155.663C15.0451 157.396 15.431 159.102 16.1353 160.686C16.8396 162.269 17.8485 163.698 19.1043 164.89C20.3601 166.083 21.8382 167.016 23.4542 167.636L84.6113 191.14C86.2267 191.761 87.9486 192.057 89.6784 192.012C91.4083 191.966 93.1122 191.58 94.6928 190.874C96.2735 190.169 97.6998 189.158 98.8904 187.9C100.081 186.643 101.012 185.162 101.631 183.543L155.113 43.8912C155.733 42.2734 156.028 40.5491 155.982 38.8169C155.936 37.0848 155.55 35.3786 154.846 33.7959C154.142 32.2132 153.133 30.785 151.878 29.5928C150.622 28.4006 149.145 27.4679 147.529 26.8478ZM97.5307 181.963C96.6924 184.138 95.0267 185.891 92.8993 186.837C90.7719 187.783 88.3567 187.844 86.184 187.008L25.0269 163.509C23.9496 163.095 22.9642 162.474 22.127 161.679C21.2898 160.884 20.6172 159.931 20.1476 158.876C19.6781 157.82 19.4208 156.682 19.3905 155.527C19.3602 154.372 19.5575 153.222 19.971 152.143L73.4528 12.4912C73.8654 11.4122 74.4864 10.4252 75.2801 9.58676C76.0739 8.74834 77.025 8.0749 78.0788 7.60499C79.1327 7.13508 80.2687 6.87791 81.4219 6.8482C82.5751 6.81849 83.7229 7.01681 84.7995 7.43183L90.2605 9.52903C91.2717 9.91844 92.1464 10.5969 92.776 11.48C93.4055 12.3632 93.7621 13.4121 93.8015 14.4966C93.8425 15.5789 94.1999 16.6252 94.8294 17.5058C95.4589 18.3863 96.3328 19.0623 97.3425 19.4497L127.533 31.0471C128.541 31.435 129.641 31.5176 130.696 31.2848C131.751 31.052 132.714 30.514 133.467 29.7375C134.219 28.9616 135.183 28.4239 136.237 28.1912C137.292 27.9584 138.392 28.0407 139.4 28.428L145.957 30.9456C147.035 31.359 148.021 31.9811 148.858 32.7763C149.696 33.5716 150.369 34.5244 150.839 35.5804C151.309 36.6363 151.567 37.7747 151.597 38.9304C151.628 40.0861 151.431 41.2365 151.017 42.3159L97.5307 181.963Z" fill="#677880"/>
<path d="M148.475 24.3828L87.3372 0.878694C85.7224 0.257956 84.0013 -0.038079 82.2722 0.00749468C80.5431 0.0530684 78.8399 0.439358 77.2599 1.1443C75.6798 1.84925 74.2539 2.85905 73.0635 4.11603C71.8731 5.37301 70.9416 6.85255 70.3221 8.47017L16.8403 148.122C15.5886 151.39 15.6839 155.021 17.1052 158.219C18.5265 161.416 21.1574 163.916 24.4193 165.171L85.5812 188.675C87.1967 189.295 88.9185 189.591 90.6481 189.545C92.3778 189.5 94.0815 189.113 95.6619 188.408C97.2424 187.702 98.6687 186.692 99.8593 185.434C101.05 184.177 101.982 182.697 102.601 181.078L156.083 41.4262C156.702 39.8068 156.996 38.0811 156.949 36.3478C156.901 34.6145 156.513 32.9076 155.806 31.3247C155.1 29.7417 154.089 28.3138 152.831 27.1227C151.573 25.9315 150.093 25.0005 148.475 24.3828ZM98.4765 179.498C98.0638 180.577 97.4429 181.564 96.6492 182.403C95.8555 183.242 94.9046 183.915 93.8508 184.386C92.7971 184.856 91.6611 185.114 90.5079 185.144C89.3547 185.174 88.2068 184.977 87.1298 184.562L25.9678 161.044C24.8908 160.631 23.9055 160.01 23.0685 159.215C22.2315 158.42 21.5592 157.468 21.0901 156.413C20.6209 155.358 20.3641 154.22 20.3344 153.065C20.3047 151.911 20.5026 150.761 20.9168 149.683L74.3938 10.031C74.8064 8.95191 75.4274 7.96486 76.221 7.12627C77.0147 6.28767 77.9656 5.61397 79.0194 5.14366C80.0732 4.67335 81.2091 4.41566 82.3623 4.38531C83.5156 4.35496 84.6635 4.55255 85.7404 4.96678L91.1967 7.08331C92.2067 7.47015 93.081 8.14595 93.7106 9.02662C94.3402 9.90728 94.6973 10.9539 94.7377 12.0364C94.7798 13.1171 95.1371 14.1617 95.7656 15.0412C96.3941 15.9206 97.2661 16.5963 98.2738 16.9846L128.469 28.582C129.477 28.9693 130.577 29.0516 131.632 28.8188C132.687 28.5861 133.65 28.0484 134.403 27.2725C135.156 26.4967 136.121 25.9592 137.176 25.7264C138.232 25.4937 139.332 25.5759 140.341 25.9629L146.902 28.5095C149.077 29.3398 150.833 31.0007 151.785 33.1272C152.738 35.2537 152.809 37.672 151.982 39.8508L98.4765 179.498Z" fill="#B7C6CC"/>
<path d="M130.312 17.3956L121.039 25.7361L98.2784 16.9897C97.2707 16.6014 96.3987 15.9257 95.7702 15.0463C95.1417 14.1669 94.7844 13.1222 94.7423 12.0415C94.7025 10.9577 94.345 9.90956 93.7145 9.02789C93.0839 8.14622 92.2081 7.47001 91.1964 7.0836L85.7354 4.9864C84.6587 4.57291 83.5112 4.3759 82.3586 4.40662C81.2059 4.43734 80.0705 4.6952 79.0173 5.16546C77.9641 5.63572 77.0137 6.30918 76.2203 7.14738C75.427 7.98558 74.8062 8.9721 74.3935 10.0506L40.7685 97.8479L33.5996 104.289L70.2977 8.47046C70.9171 6.84998 71.8496 5.36781 73.0417 4.10884C74.2338 2.84988 75.6622 1.83885 77.245 1.13367C78.8278 0.428487 80.5339 0.0430055 82.2657 -0.000697634C83.9974 -0.0444008 85.7208 0.254533 87.337 0.878983L130.312 17.3956Z" fill="#E6EEF2"/>
<path d="M127.84 20.2256L105.428 11.6125C104.522 11.2645 103.506 11.7177 103.159 12.6246C102.812 13.5316 103.264 14.549 104.17 14.8969L126.582 23.5101C127.488 23.858 128.503 23.4049 128.851 22.4979C129.198 21.5909 128.746 20.5736 127.84 20.2256Z" fill="#677880"/>
<path d="M61.6956 64.4713L55.5495 63.9349L44.1257 62.9685L40.7825 62.6785L32.0119 61.915L24.023 61.2192C23.0744 61.1383 22.1511 60.8707 21.3059 60.4318C20.4608 59.9929 19.7104 59.3913 19.0978 58.6614C18.4852 57.9315 18.0223 57.0877 17.7359 56.1783C17.4494 55.2689 17.3448 54.3119 17.4282 53.362L20.6942 15.6124C20.7732 14.6614 21.0389 13.7354 21.476 12.8876C21.9131 12.0397 22.513 11.2866 23.2414 10.6715C23.9697 10.0564 24.8122 9.59146 25.7203 9.30328C26.6285 9.0151 27.5846 8.90938 28.5337 8.99219L55.2697 11.3165L66.2159 12.283C67.1645 12.3638 68.0878 12.6314 68.933 13.0703C69.7781 13.5092 70.5285 14.1109 71.1411 14.8408C71.7538 15.5707 72.2166 16.4145 72.5031 17.3239C72.7896 18.2332 72.8941 19.1903 72.8107 20.1402L69.5399 57.8849C69.4567 58.8334 69.1879 59.7561 68.7486 60.6005C68.3094 61.4448 67.7084 62.1942 66.9799 62.8058C66.2515 63.4175 65.4099 63.8794 64.5032 64.1651C63.5965 64.4509 62.6425 64.5549 61.6956 64.4713Z" fill="#FFC473"/>
<path d="M55.2696 11.3122L32.0071 61.8962L24.0181 61.2004C23.0695 61.1195 22.1462 60.8519 21.3011 60.413C20.4559 59.9741 19.7055 59.3725 19.0929 58.6426C18.4803 57.9127 18.0175 57.0689 17.731 56.1595C17.4445 55.2501 17.3399 54.2931 17.4233 53.3432L20.6894 15.5984C20.7701 14.6483 21.0372 13.7234 21.4754 12.8769C21.9136 12.0303 22.5143 11.2787 23.243 10.6651C23.9716 10.0514 24.8141 9.58783 25.7219 9.30086C26.6298 9.01389 27.5853 8.90917 28.5336 8.99271L55.2696 11.3122Z" fill="#FFD98C"/>
<path d="M38.4622 16.2262C37.5195 15.7637 36.4982 15.4834 35.4518 15.3999C33.2172 15.1919 30.9859 15.8302 29.1981 17.1889C27.4102 18.5476 26.1955 20.5281 25.7935 22.7397C25.3916 24.9512 25.8316 27.2334 27.0268 29.136C28.222 31.0387 30.0856 32.4236 32.25 33.0177C34.4145 33.6119 36.7226 33.372 38.7191 32.3455C40.7157 31.319 42.2558 29.5803 43.0356 27.4725C43.8154 25.3646 43.7783 23.0406 42.9317 20.9587C42.0851 18.8769 40.4904 17.1884 38.4622 16.2262ZM34.2699 29.3844C32.9245 29.2641 31.6815 28.6149 30.8127 27.5789C29.9439 26.543 29.52 25.2045 29.6338 23.8563C29.7215 22.8511 30.1047 21.8945 30.7351 21.1074C31.3655 20.3203 32.2147 19.7381 33.1753 19.4344C34.136 19.1306 35.165 19.119 36.1323 19.4009C37.0995 19.6829 37.9616 20.2457 38.6096 21.0184C39.2575 21.791 39.6623 22.7387 39.7726 23.7417C39.8829 24.7447 39.6939 25.7579 39.2295 26.6533C38.765 27.5487 38.0459 28.2861 37.1631 28.7722C36.2804 29.2583 35.2735 29.4714 34.2699 29.3844Z" fill="#8C7669"/>
<path d="M37.8445 24.5714C37.8098 24.988 37.6934 25.3937 37.5019 25.7651C37.3103 26.1365 37.0474 26.4664 36.7283 26.7358C36.4091 27.0051 36.04 27.2088 35.6421 27.3349C35.2442 27.461 34.8254 27.5072 34.4096 27.4707C33.572 27.3945 32.7983 26.9905 32.2564 26.3463C31.7145 25.7022 31.4481 24.8699 31.515 24.0302C31.5503 23.6138 31.6671 23.2085 31.8588 22.8374C32.0506 22.4662 32.3135 22.1366 32.6325 21.8673C32.9515 21.5981 33.3204 21.3944 33.718 21.268C34.1157 21.1417 34.5343 21.095 34.9499 21.1308C35.1891 21.1461 35.4248 21.1966 35.6494 21.2806C36.3352 21.4961 36.9268 21.9399 37.326 22.5385C37.7253 23.137 37.9082 23.8543 37.8445 24.5714Z" fill="#8C7669"/>
<path d="M34.9599 21.1358C35.1991 21.1511 35.4348 21.2016 35.6594 21.2856L32.6443 26.7219C32.254 26.3965 31.9483 25.9813 31.7534 25.5116C31.5584 25.042 31.4801 24.5321 31.525 24.0255C31.5986 23.1863 32.0016 22.4107 32.6457 21.8689C33.2897 21.3271 34.122 21.0634 34.9599 21.1358Z" fill="#8C7669"/>
<path d="M38.4624 16.2263L36.6147 19.5751C35.8756 19.271 35.0754 19.1455 34.2789 19.2087C33.4824 19.2719 32.712 19.5221 32.0299 19.939C31.3479 20.3558 30.7734 20.9277 30.3529 21.6083C29.9325 22.2889 29.678 23.059 29.6099 23.8564C29.5322 24.7356 29.6845 25.6199 30.0516 26.4223C30.4187 27.2247 30.988 27.9175 31.7036 28.4326L29.8414 31.8152C28.1639 30.7346 26.8964 29.1221 26.2412 27.2353C25.586 25.3484 25.581 23.2961 26.227 21.4061C26.873 19.516 28.1327 17.8974 29.8049 16.8087C31.4772 15.7199 33.4654 15.224 35.4521 15.4C36.4984 15.4835 37.5197 15.7638 38.4624 16.2263Z" fill="#8C7669"/>
<path d="M59.2746 40.5472C59.0961 40.5182 58.9321 40.4941 58.7584 40.4796L53.8956 40.0543C52.1832 39.9096 50.4833 40.4501 49.1678 41.5577C47.8523 42.6652 47.0284 44.2496 46.8763 45.9642L46.4566 50.8351C46.3443 52.1371 46.6285 53.4427 47.2719 54.5796C47.9152 55.7166 48.8874 56.6316 50.0603 57.204C50.7758 57.5691 51.5561 57.7891 52.3566 57.8515L57.2147 58.2768C58.9248 58.4228 60.6229 57.8838 61.9369 56.7778C63.2509 55.6718 64.0735 54.0891 64.2243 52.3766L64.6633 47.5105C64.8034 45.8839 64.3266 44.2641 63.328 42.9737C62.3294 41.6833 60.8822 40.8169 59.2746 40.5472ZM60.4132 52.048C60.3834 52.3951 60.2857 52.733 60.1255 53.0422C59.9654 53.3515 59.746 53.6262 59.4799 53.8505C59.2138 54.0749 58.9062 54.2446 58.5747 54.3498C58.2431 54.4551 57.8941 54.4939 57.5475 54.4641L52.6847 54.0389C52.3352 54.0098 51.9951 53.9114 51.6839 53.7494C51.3728 53.5874 51.097 53.365 50.8725 53.0951C50.648 52.8253 50.4794 52.5134 50.3764 52.1777C50.2734 51.842 50.2381 51.4891 50.2726 51.1395L50.673 46.2976C50.7045 45.9485 50.8044 45.6091 50.9669 45.2987C51.1295 44.9883 51.3515 44.713 51.6203 44.4886C51.8892 44.2643 52.1995 44.0951 52.5336 43.991C52.8677 43.8868 53.2191 43.8496 53.5675 43.8815L58.4256 44.3019C58.7743 44.3328 59.1135 44.4325 59.4237 44.5951C59.7339 44.7577 60.0089 44.9801 60.2331 45.2495C60.4572 45.5189 60.626 45.83 60.7298 46.165C60.8335 46.4999 60.8702 46.8521 60.8377 47.2012L60.4132 52.048Z" fill="#8C7669"/>
<path d="M58.8254 47.9257L58.5648 50.9507C58.5479 51.1668 58.4882 51.3773 58.3892 51.5701C58.2901 51.7628 58.1538 51.9339 57.9881 52.0733C57.8224 52.2127 57.6307 52.3177 57.4241 52.3822C57.2175 52.4466 57.0001 52.4693 56.7847 52.4487L53.7647 52.1878C53.4831 52.1659 53.2129 52.0673 52.9832 51.9027C52.741 51.74 52.5469 51.5152 52.4213 51.2516C52.2957 50.9881 52.2432 50.6955 52.2692 50.4047L52.5345 47.3797C52.5726 46.9456 52.7807 46.5443 53.1134 46.2635C53.4461 45.9828 53.8763 45.8455 54.3098 45.8817L57.3298 46.1426C57.5453 46.1602 57.7552 46.2205 57.9473 46.3198C58.1394 46.4192 58.3099 46.5558 58.449 46.7216C58.5881 46.8874 58.693 47.0792 58.7576 47.2859C58.8222 47.4926 58.8452 47.7101 58.8254 47.9257Z" fill="#8C7669"/>
<path d="M58.2806 30.5928C58.4085 31.633 58.3031 32.6886 57.972 33.6829C57.641 34.6771 57.0927 35.5848 56.367 36.3399C55.6414 37.095 54.7567 37.6784 53.7775 38.0476C52.7983 38.4168 51.7491 38.5625 50.7065 38.4742L39.6107 37.5077C37.1986 37.2999 34.8202 38.9332 34.5018 41.3735C34.4269 41.971 34.4731 42.5776 34.6377 43.1567C34.8024 43.7359 35.082 44.2759 35.46 44.7442C35.8379 45.2126 36.3063 45.5997 36.8372 45.8824C37.368 46.1651 37.9504 46.3375 38.5494 46.3894L42.9684 46.7712C43.135 46.7857 43.2971 46.8331 43.4455 46.9104C43.5939 46.9878 43.7255 47.0936 43.8331 47.222C43.9406 47.3503 44.0218 47.4986 44.0721 47.6584C44.1224 47.8181 44.1408 47.9863 44.1262 48.1532C44.1122 48.3205 44.0654 48.4834 43.9885 48.6326C43.9115 48.7817 43.8059 48.9142 43.6777 49.0224C43.5496 49.1306 43.4013 49.2124 43.2415 49.2631C43.0817 49.3137 42.9135 49.3323 42.7465 49.3178L38.6989 48.965C35.0132 48.6461 31.945 45.6646 31.916 41.9582C31.9151 40.9828 32.1167 40.0178 32.508 39.1246C32.8992 38.2314 33.4717 37.4294 34.1889 36.7696C34.9061 36.1098 35.7525 35.6066 36.6742 35.292C37.596 34.9773 38.573 34.8581 39.5432 34.9418L50.7644 35.9082C51.8093 36.0126 52.8583 35.7549 53.7363 35.1779C54.6143 34.601 55.2681 33.7399 55.5887 32.7383C55.7769 32.1001 55.8214 31.428 55.7191 30.7704C55.6167 30.1129 55.37 29.4863 54.9966 28.9358C54.6233 28.3853 54.1327 27.9246 53.5602 27.5869C52.9877 27.2492 52.3475 27.043 51.6858 26.9831L47.2958 26.611C47.1291 26.5964 46.967 26.5491 46.8187 26.4717C46.6703 26.3944 46.5386 26.2885 46.4311 26.1602C46.3236 26.0318 46.2423 25.8835 46.192 25.7238C46.1417 25.564 46.1234 25.3959 46.1379 25.229C46.1519 25.0616 46.1987 24.8987 46.2757 24.7496C46.3526 24.6004 46.4582 24.4679 46.5864 24.3597C46.7146 24.2515 46.8628 24.1698 47.0226 24.1191C47.1825 24.0684 47.3507 24.0498 47.5177 24.0644L51.6135 24.422C54.9615 24.7167 57.9091 27.2247 58.2806 30.5928Z" fill="#8C7669"/>
<path d="M54.31 45.9063L56.2397 46.0706L52.9929 51.9273C52.7508 51.7647 52.5567 51.5398 52.4311 51.2762C52.3055 51.0127 52.2529 50.7202 52.279 50.4293L52.5443 47.4043C52.5824 46.972 52.7892 46.5723 53.1197 46.2918C53.4503 46.0113 53.878 45.8728 54.31 45.9063Z" fill="#8C7669"/>
<path d="M59.2745 40.5471L57.258 44.1906L53.5674 43.8717C53.2189 43.8398 52.8676 43.877 52.5335 43.9812C52.1994 44.0854 51.8891 44.2545 51.6202 44.4789C51.3514 44.7033 51.1294 44.9785 50.9668 45.2889C50.8043 45.5993 50.7044 45.9388 50.6729 46.2878L50.2532 51.1539C50.2073 51.7193 50.342 52.2846 50.6376 52.7683C50.9333 53.2521 51.3747 53.6293 51.8982 53.8455L50.0505 57.1942C48.8776 56.6218 47.9054 55.7068 47.2621 54.5699C46.6188 53.4329 46.3345 52.1274 46.4468 50.8253L46.8665 45.9544C47.0186 44.2399 47.8426 42.6554 49.1581 41.5479C50.4735 40.4403 52.1734 39.8998 53.8858 40.0446L58.7487 40.4698C58.932 40.494 59.096 40.5181 59.2745 40.5471Z" fill="#8C7669"/>
<path d="M59.6216 122.526C59.8621 123.425 59.9231 124.363 59.8013 125.286C59.6794 126.209 59.3771 127.098 58.9115 127.904C58.4459 128.71 57.8262 129.416 57.088 129.981C56.3497 130.547 55.5074 130.961 54.6091 131.2L49.8283 132.475L48.7814 132.756L37.951 135.655L36.0213 136.182L18.9338 140.739C18.0363 140.979 17.1005 141.039 16.1797 140.917C15.2589 140.795 14.3712 140.492 13.5673 140.025C12.7635 139.559 12.0594 138.938 11.4951 138.199C10.9309 137.46 10.5177 136.617 10.279 135.718L0.74147 99.9446C0.498107 99.0435 0.434956 98.103 0.555648 97.1774C0.676341 96.2517 0.978496 95.3591 1.44475 94.5508C1.91099 93.7425 2.53214 93.0344 3.27248 92.4674C4.01282 91.9003 4.85775 91.4854 5.7587 91.2465L41.4582 81.7173C42.3579 81.4742 43.2966 81.4115 44.2205 81.5327C45.1444 81.6539 46.0353 81.9566 46.8421 82.4235C47.6489 82.8905 48.3558 83.5124 48.922 84.2536C49.4883 84.9948 49.9028 85.8408 50.1419 86.7429L59.6216 122.526Z" fill="#F28484"/>
<path d="M31.0812 84.5107L26.4837 138.685L18.9145 140.705C18.0151 140.948 17.0767 141.011 16.1531 140.89C15.2294 140.769 14.3387 140.467 13.5319 140.001C12.7251 139.534 12.0183 138.913 11.4518 138.172C10.8853 137.431 10.4704 136.586 10.2308 135.684L0.74147 99.945C0.498107 99.0438 0.434956 98.1034 0.555648 97.1777C0.676341 96.2521 0.978496 95.3594 1.44475 94.5511C1.91099 93.7428 2.53214 93.0348 3.27248 92.4677C4.01282 91.9007 4.85775 91.4858 5.7587 91.2469L31.0812 84.5107Z" fill="#FA9898"/>
<path d="M39.9964 100.163C37.5983 97.5739 34.3008 96.0036 30.7821 95.7755C26.9982 95.5364 23.2672 96.7619 20.3594 99.1988C17.4515 101.636 15.589 105.098 15.1563 108.871C14.8107 111.914 15.4899 114.986 17.086 117.598C17.2995 117.946 17.5854 118.244 17.9242 118.472C18.2631 118.699 18.6468 118.851 19.0495 118.917C19.4649 118.984 19.8898 118.961 20.2957 118.85C20.7017 118.739 21.0794 118.543 21.4037 118.274C21.9347 117.824 22.286 117.197 22.3932 116.509C22.5004 115.82 22.3563 115.116 21.9874 114.525C21.0919 113.012 20.7173 111.246 20.9213 109.499C21.1916 107.218 22.3215 105.127 24.08 103.653C25.8385 102.179 28.0927 101.434 30.3817 101.569C31.4614 101.634 32.5168 101.918 33.4831 102.405C34.4495 102.892 35.3065 103.571 36.0019 104.401L36.7979 105.368L39.8131 102.84C40.0068 102.68 40.1655 102.481 40.2793 102.257C40.393 102.032 40.4593 101.787 40.474 101.536C40.4933 101.286 40.4608 101.036 40.3786 100.799C40.2964 100.563 40.1663 100.347 39.9964 100.163Z" fill="#F7FDFF"/>
<path d="M40.0594 100.511L29.0118 107.663C28.838 107.781 28.6919 107.936 28.5837 108.116C28.4755 108.296 28.4078 108.498 28.3853 108.707C28.3628 108.917 28.386 109.128 28.4534 109.328C28.5208 109.527 28.6307 109.709 28.7754 109.862L30.1552 111.248L31.5301 112.63C31.6817 112.777 31.8634 112.888 32.0625 112.957C32.2615 113.026 32.4732 113.05 32.6827 113.029C32.8921 113.007 33.0943 112.94 33.2752 112.832C33.4561 112.724 33.6113 112.578 33.7299 112.403L40.894 101.381C40.966 101.263 40.997 101.125 40.9822 100.988C40.9674 100.851 40.9076 100.723 40.8122 100.623C40.7167 100.524 40.5911 100.459 40.4548 100.438C40.3186 100.418 40.1795 100.444 40.0594 100.511Z" fill="#F7FDFF"/>
<path d="M30.155 116.187C32.878 116.187 35.0854 113.976 35.0854 111.248C35.0854 108.521 32.878 106.31 30.155 106.31C27.432 106.31 25.2246 108.521 25.2246 111.248C25.2246 113.976 27.432 116.187 30.155 116.187Z" fill="#F7FDFF"/>
<path d="M30.8401 91.3296C28.9187 91.2619 26.9977 91.4752 25.1378 91.9627C20.079 93.3252 15.7526 96.6151 13.0827 101.13C10.4127 105.644 9.61085 111.025 10.8483 116.124C11.7553 119.765 13.6759 123.073 16.3866 125.663C16.758 126.01 17.211 126.258 17.7036 126.383C18.1961 126.508 18.7122 126.506 19.2039 126.378L24.1681 125.054C24.488 124.969 24.7609 124.76 24.927 124.473C25.093 124.186 25.1384 123.845 25.0534 123.525C24.9683 123.204 24.7596 122.931 24.4733 122.764C24.1869 122.598 23.8463 122.553 23.5265 122.638L18.9 123.87C18.719 123.921 18.5279 123.923 18.3459 123.876C18.1638 123.83 17.9972 123.736 17.8628 123.604C15.6576 121.428 14.0851 118.692 13.3135 115.689C11.2101 107.759 15.8897 98.2301 23.4686 95.123C25.7625 94.1741 28.2321 93.7264 30.7125 93.8096C33.1929 93.8928 35.627 94.505 37.8525 95.6053C40.0779 96.7057 42.0433 98.2689 43.6177 100.191C45.192 102.112 46.339 104.348 46.982 106.749C47.7949 109.729 47.7949 112.873 46.982 115.853C46.929 116.033 46.8306 116.196 46.6962 116.326C46.5618 116.457 46.396 116.55 46.215 116.597L41.5885 117.835C41.4301 117.876 41.2815 117.949 41.1512 118.049C41.0209 118.148 40.9114 118.272 40.8289 118.414C40.7465 118.556 40.6928 118.712 40.6708 118.875C40.6488 119.038 40.659 119.203 40.7008 119.362C40.7427 119.52 40.8153 119.669 40.9145 119.8C41.0137 119.93 41.1377 120.04 41.2792 120.122C41.4208 120.205 41.5772 120.259 41.7395 120.281C41.9019 120.303 42.0669 120.293 42.2253 120.251L47.1943 118.927C47.6855 118.794 48.1348 118.538 48.4995 118.183C48.8642 117.828 49.1323 117.385 49.2784 116.897C50.1344 113.977 50.3121 110.899 49.798 107.899C49.2839 104.899 48.0915 102.056 46.3121 99.589C44.5327 97.1217 42.2135 95.0947 39.5318 93.6631C36.8501 92.2315 33.877 91.4334 30.8401 91.3296Z" fill="#F7FDFF"/>
<path d="M50.2624 124.011C50.3439 124.317 50.3644 124.637 50.3224 124.952C50.2805 125.267 50.1771 125.57 50.018 125.845C49.859 126.119 49.6474 126.36 49.3955 126.553C49.1435 126.745 48.8561 126.887 48.5497 126.968L22.0646 134.038C21.4447 134.203 20.7846 134.115 20.2295 133.793C19.6745 133.47 19.2699 132.941 19.1049 132.32C18.9398 131.699 19.0278 131.038 19.3494 130.482C19.671 129.926 20.2 129.52 20.8199 129.355L47.2954 122.285C47.9134 122.122 48.571 122.21 49.1238 122.532C49.4021 122.69 49.646 122.903 49.8415 123.157C50.0369 123.41 50.18 123.701 50.2624 124.011Z" fill="#F7FDFF"/>
<path d="M30.8401 91.3293L30.459 93.818C28.0634 93.775 25.6844 94.224 23.4686 95.1372C15.8897 98.2443 11.2102 107.774 13.3377 115.713C14.1062 118.709 15.6718 121.439 17.8677 123.614C18.0021 123.745 18.1687 123.839 18.3508 123.886C18.5328 123.932 18.7239 123.93 18.9049 123.879L23.5314 122.647C23.6897 122.605 23.8549 122.594 24.0173 122.616C24.1798 122.638 24.3364 122.691 24.4781 122.774C24.6199 122.856 24.7441 122.966 24.8437 123.096C24.9432 123.226 25.0161 123.375 25.0582 123.534C25.1004 123.693 25.1109 123.858 25.0892 124.021C25.0675 124.183 25.014 124.34 24.9318 124.482C24.8496 124.624 24.7403 124.749 24.6101 124.848C24.4799 124.948 24.3314 125.021 24.173 125.063L19.2088 126.387C18.7171 126.516 18.201 126.517 17.7084 126.392C17.2159 126.267 16.7629 126.02 16.3915 125.672C13.6808 123.082 11.7602 119.774 10.8532 116.133C9.61573 111.035 10.4176 105.653 13.0876 101.139C15.7575 96.6245 20.0839 93.3346 25.1427 91.972C27.0006 91.4818 28.9199 91.2653 30.8401 91.3293Z" fill="#F7FDFF"/>
<path d="M33.5366 125.958L32.8227 131.167L22.0646 134.038C21.4447 134.203 20.7846 134.115 20.2295 133.793C19.6745 133.47 19.2699 132.941 19.1049 132.32C18.9398 131.699 19.0278 131.038 19.3494 130.482C19.671 129.926 20.2 129.52 20.8199 129.355L33.5366 125.958Z" fill="#F7FDFF"/>
<path d="M175.211 69.7384L164.747 105.014C164.484 105.902 164.05 106.729 163.467 107.448C162.885 108.167 162.167 108.765 161.355 109.206C160.542 109.647 159.65 109.923 158.731 110.019C157.811 110.115 156.882 110.028 155.996 109.764L139.7 104.932L137.201 104.188L128.092 101.477L126.515 100.993L120.769 99.3021C119.883 99.0389 119.057 98.6034 118.339 98.0203C117.621 97.4372 117.024 96.718 116.584 95.9039C116.144 95.0898 115.868 94.1967 115.772 93.2757C115.676 92.3547 115.763 91.4238 116.027 90.5364L126.486 55.2609C126.749 54.3731 127.184 53.5459 127.766 52.8266C128.348 52.1073 129.066 51.51 129.878 51.0688C130.691 50.6276 131.583 50.3513 132.502 50.2555C133.422 50.1598 134.351 50.2465 135.237 50.5108L163.305 58.8609L170.464 60.9871C172.251 61.5189 173.754 62.7389 174.644 64.3795C175.534 66.0201 175.738 67.9474 175.211 69.7384Z" fill="#8AE69E"/>
<path d="M163.305 58.8465L128.088 101.477L126.51 100.993L120.769 99.3021C119.883 99.0389 119.057 98.6034 118.339 98.0203C117.621 97.4372 117.024 96.718 116.584 95.9039C116.144 95.0898 115.868 94.1967 115.772 93.2757C115.676 92.3547 115.763 91.4238 116.027 90.5364L126.486 55.2609C126.749 54.3731 127.184 53.5459 127.766 52.8266C128.348 52.1073 129.066 51.51 129.878 51.0688C130.691 50.6276 131.583 50.3513 132.502 50.2555C133.422 50.1598 134.351 50.2465 135.237 50.5108L163.305 58.8465Z" fill="#B3FFC3"/>
<path d="M138.551 88.4156C141.418 88.4156 143.742 86.0877 143.742 83.2161C143.742 80.3445 141.418 78.0166 138.551 78.0166C135.684 78.0166 133.36 80.3445 133.36 83.2161C133.36 86.0877 135.684 88.4156 138.551 88.4156Z" fill="#628C78"/>
<path d="M143.298 96.5869C140.535 97.5687 137.535 97.6683 134.713 96.8722C131.89 96.0761 129.383 94.4232 127.537 92.1412C127.262 91.8029 127.007 91.4454 126.761 91.0733C126.515 90.7012 126.278 90.3581 126.095 89.9764C125.691 89.2339 125.357 88.4559 125.096 87.652C124.177 84.8481 124.153 81.8271 125.026 79.0085C125.899 76.19 127.627 73.7135 129.969 71.923C130.184 71.7575 130.433 71.6409 130.698 71.5811C130.963 71.5213 131.238 71.5199 131.503 71.5768C131.769 71.6338 132.019 71.7478 132.236 71.9111C132.454 72.0743 132.633 72.2828 132.762 72.5222L133.621 74.1072L144.34 93.9195C144.467 94.1598 144.541 94.4247 144.557 94.6962C144.572 94.9677 144.529 95.2394 144.43 95.4926C144.331 95.7458 144.179 95.9747 143.983 96.1636C143.788 96.3524 143.554 96.4968 143.298 96.5869Z" fill="#628C78"/>
<path d="M141.605 80.149C141.744 79.6808 141.047 79.0604 140.048 78.7634C139.05 78.4663 138.127 78.605 137.989 79.0732C137.85 79.5414 138.547 80.1617 139.546 80.4588C140.544 80.7559 141.466 80.6171 141.605 80.149Z" fill="#628C78"/>
<path d="M135.531 77.6347L127.537 92.1314C127.262 91.7932 127.007 91.4356 126.761 91.0635C126.515 90.6914 126.278 90.3483 126.095 89.9666C125.691 89.2242 125.357 88.4461 125.096 87.6423C124.177 84.8383 124.153 81.8174 125.026 78.9988C125.899 76.1802 127.627 73.7038 129.969 71.9133C130.184 71.7478 130.433 71.6311 130.698 71.5713C130.963 71.5115 131.238 71.5101 131.503 71.5671C131.769 71.624 132.019 71.7381 132.236 71.9013C132.454 72.0645 132.633 72.2731 132.762 72.5125L133.621 74.0975L135.531 77.6347Z" fill="#628C78"/>
<path d="M148.899 87.241C148.532 87.1336 148.22 86.8899 148.026 86.5596C147.825 86.2125 147.769 85.8 147.871 85.4117C147.972 85.0235 148.222 84.691 148.567 84.4866C149.812 83.7543 150.731 82.574 151.138 81.1861C151.446 80.1156 151.438 78.9784 151.114 77.9125C150.79 76.8467 150.164 75.898 149.311 75.1816C148.459 74.4653 147.418 74.0121 146.314 73.8771C145.21 73.7421 144.09 73.931 143.091 74.421C142.732 74.5978 142.317 74.6244 141.937 74.4948C141.558 74.3652 141.246 74.0901 141.07 73.73C140.893 73.3698 140.867 72.9542 140.996 72.5745C141.125 72.1948 141.4 71.8821 141.76 71.7053C143.792 70.6893 146.139 70.5041 148.305 71.1889C150.471 71.8737 152.287 73.3748 153.369 75.3754C154.45 77.3759 154.714 79.7192 154.103 81.9106C153.493 84.102 152.056 85.97 150.096 87.1201C149.916 87.2218 149.716 87.2851 149.51 87.3059C149.304 87.3267 149.096 87.3046 148.899 87.241Z" fill="#628C78"/>
<path d="M151.663 92.3535C151.38 92.2687 151.127 92.1023 150.937 91.875C150.748 91.6477 150.629 91.3696 150.595 91.0752C150.562 90.7808 150.615 90.483 150.75 90.2189C150.884 89.9548 151.092 89.7359 151.349 89.5895C153.907 88.0615 155.775 85.6023 156.563 82.7262C157.351 79.8502 156.999 76.7802 155.579 74.1585C154.16 71.5368 151.783 69.5665 148.946 68.6599C146.11 67.7532 143.033 67.9805 140.36 69.294C140.183 69.3924 139.988 69.4543 139.787 69.4759C139.586 69.4975 139.383 69.4784 139.189 69.4198C138.996 69.3612 138.816 69.2643 138.661 69.1348C138.505 69.0052 138.377 68.8457 138.284 68.6658C138.192 68.4858 138.136 68.289 138.121 68.087C138.105 67.8851 138.13 67.6821 138.195 67.4901C138.259 67.2981 138.362 67.121 138.496 66.9694C138.63 66.8177 138.793 66.6946 138.975 66.6073C142.349 64.9477 146.233 64.6596 149.813 65.8034C153.394 66.9472 156.394 69.4341 158.186 72.7436C159.978 76.053 160.422 79.9284 159.425 83.5584C158.429 87.1884 156.069 90.2916 152.84 92.2182C152.663 92.3191 152.468 92.3831 152.265 92.4064C152.063 92.4296 151.858 92.4117 151.663 92.3535Z" fill="#628C78"/>
<path d="M154.215 97.0653C153.931 96.98 153.678 96.8128 153.488 96.5846C153.298 96.3563 153.18 96.0771 153.147 95.7817C153.115 95.4864 153.17 95.188 153.306 94.9239C153.442 94.6597 153.652 94.4415 153.911 94.2964C157.849 92.1574 160.777 88.5393 162.051 84.2379C163.325 79.9365 162.841 75.3042 160.706 71.3601C158.571 67.416 154.958 64.4832 150.664 63.2067C146.37 61.9303 141.745 62.4149 137.808 64.5539C137.632 64.6459 137.44 64.7023 137.242 64.72C137.045 64.7376 136.845 64.716 136.656 64.6566C136.467 64.5971 136.291 64.5009 136.139 64.3734C135.987 64.246 135.861 64.0897 135.769 63.9136C135.678 63.7375 135.621 63.545 135.604 63.3471C135.586 63.1492 135.608 62.9498 135.667 62.7602C135.726 62.5706 135.822 62.3946 135.95 62.2422C136.077 62.0898 136.233 61.964 136.409 61.872C141.04 59.4803 146.422 59.002 151.402 60.5397C156.381 62.0774 160.56 65.5086 163.043 70.0972C165.526 74.6858 166.114 80.0663 164.682 85.0845C163.25 90.1026 159.911 94.3587 155.382 96.9397C155.207 97.039 155.012 97.1013 154.812 97.1229C154.611 97.1445 154.408 97.1249 154.215 97.0653Z" fill="#628C78"/>
<path d="M149.517 131.258L154.823 167.911C154.956 168.833 154.907 169.773 154.677 170.676C154.447 171.579 154.042 172.428 153.485 173.174C152.928 173.921 152.229 174.55 151.429 175.025C150.629 175.501 149.743 175.814 148.822 175.947L132.333 178.334L129.308 178.793L120.248 180.102L118.212 180.397L116.413 180.658L112.24 181.257C111.318 181.391 110.38 181.341 109.477 181.111C108.575 180.881 107.727 180.474 106.982 179.915C106.237 179.355 105.61 178.654 105.136 177.851C104.663 177.048 104.352 176.16 104.222 175.236L98.9151 138.579C98.6476 136.717 99.1289 134.825 100.253 133.318C101.378 131.811 103.053 130.813 104.912 130.543L131.204 126.745L141.499 125.256C142.419 125.122 143.356 125.171 144.257 125.401C145.158 125.63 146.005 126.035 146.75 126.592C147.495 127.149 148.122 127.849 148.597 128.649C149.072 129.45 149.384 130.336 149.517 131.258Z" fill="#73BFE6"/>
<path d="M131.199 126.745L120.224 180.084L118.188 180.378L116.389 180.639L112.216 181.238C110.361 181.502 108.478 181.018 106.98 179.893C105.481 178.768 104.489 177.093 104.222 175.237L98.9151 138.579C98.6476 136.717 99.1289 134.825 100.253 133.318C101.378 131.812 103.053 130.813 104.912 130.543L131.199 126.745Z" fill="#B3E6FF"/>
<path d="M142.738 134.906C141.909 134.974 141.016 135.017 140.075 135.017C138.148 135.034 136.223 134.872 134.325 134.534C134.235 134.527 134.149 134.495 134.076 134.441C134.004 134.387 133.948 134.314 133.915 134.23C133.881 134.146 133.872 134.054 133.889 133.965C133.905 133.876 133.946 133.794 134.007 133.727C135.637 132.094 137.523 131.422 138.831 131.567C139.552 131.638 140.254 131.838 140.905 132.157C141.815 132.621 142.581 133.327 143.12 134.196C143.157 134.266 143.177 134.345 143.177 134.425C143.177 134.505 143.157 134.583 143.12 134.654C143.082 134.724 143.027 134.784 142.961 134.828C142.894 134.872 142.818 134.899 142.738 134.906Z" fill="#F7FDFF"/>
<path d="M143.887 139.236C142.191 139.397 140.487 139.455 138.783 139.41C136.558 139.357 134.343 139.101 132.164 138.647C132.058 138.63 131.957 138.59 131.868 138.53C131.779 138.47 131.704 138.391 131.649 138.299C131.593 138.207 131.558 138.104 131.546 137.997C131.535 137.89 131.546 137.782 131.581 137.68C131.708 137.31 131.856 136.947 132.025 136.593C132.103 136.437 132.233 136.313 132.392 136.241C132.55 136.169 132.729 136.154 132.898 136.197L133.144 136.25C135.238 136.679 137.369 136.907 139.507 136.931C140.842 136.949 142.177 136.894 143.506 136.767C143.699 136.747 143.893 136.798 144.052 136.91C144.21 137.022 144.323 137.187 144.37 137.376C144.442 137.719 144.505 138.072 144.553 138.419C144.569 138.518 144.564 138.618 144.538 138.715C144.512 138.811 144.466 138.9 144.403 138.977C144.34 139.055 144.262 139.118 144.173 139.162C144.084 139.207 143.987 139.232 143.887 139.236Z" fill="#F7FDFF"/>
<path d="M144.697 142.961C144.684 143.098 144.624 143.226 144.527 143.323C144.43 143.42 144.303 143.48 144.166 143.493C141.956 143.781 139.726 143.876 137.499 143.778C135.389 143.693 133.292 143.403 131.237 142.913C131.1 142.879 130.977 142.799 130.89 142.687C130.802 142.575 130.755 142.437 130.755 142.295C130.755 141.85 130.784 141.42 130.842 141.004C130.855 140.918 130.886 140.835 130.934 140.761C130.981 140.688 131.044 140.625 131.117 140.577C131.19 140.529 131.273 140.497 131.359 140.483C131.446 140.47 131.534 140.474 131.618 140.497L131.811 140.536C133.922 140.974 136.065 141.236 138.218 141.318C140.149 141.4 142.083 141.35 144.007 141.169C144.097 141.159 144.188 141.169 144.274 141.196C144.36 141.223 144.44 141.268 144.508 141.327C144.577 141.386 144.632 141.459 144.671 141.541C144.71 141.622 144.732 141.711 144.736 141.802C144.742 142.198 144.729 142.585 144.697 142.961Z" fill="#F7FDFF"/>
<path d="M144.066 146.702C143.859 147.027 143.58 147.298 143.251 147.495L137.862 150.766C137.49 150.985 137.073 151.118 136.644 151.154C136.214 151.191 135.781 151.131 135.377 150.979C135.057 150.864 134.759 150.692 134.499 150.472L131.991 148.341C131.523 147.949 131.207 147.405 131.098 146.804C131.035 146.437 130.973 146.074 130.929 145.721C130.922 145.613 130.94 145.504 130.983 145.403C131.026 145.303 131.093 145.215 131.177 145.145C131.261 145.076 131.36 145.028 131.466 145.004C131.572 144.981 131.683 144.983 131.788 145.011C133.485 145.363 135.205 145.589 136.936 145.688H137.047C138.615 145.782 140.187 145.782 141.755 145.688C142.237 145.659 142.72 145.615 143.202 145.577C143.854 145.494 144.394 146.161 144.066 146.702Z" fill="#F7FDFF"/>
<path d="M138.663 159.807C138.774 159.755 138.898 159.738 139.018 159.758C139.139 159.777 139.251 159.833 139.34 159.918C139.429 160.002 139.49 160.112 139.515 160.232C139.541 160.352 139.529 160.477 139.483 160.59C138.262 163.528 136.164 165.78 132.589 164.2C132.257 164.06 131.935 163.899 131.624 163.716C128.696 161.972 128.541 159.319 129.212 156.98C129.242 156.864 129.305 156.76 129.394 156.68C129.483 156.6 129.594 156.549 129.713 156.532C129.831 156.516 129.952 156.535 130.059 156.587C130.167 156.639 130.256 156.722 130.317 156.826L132.116 159.851C132.251 160.067 132.413 160.265 132.599 160.44C133.051 160.877 133.624 161.167 134.244 161.273C134.863 161.379 135.5 161.296 136.072 161.035L138.663 159.807Z" fill="#F7FDFF"/>
<path d="M140.741 156.081C140.705 156.272 140.623 156.451 140.503 156.603C140.383 156.755 140.228 156.876 140.052 156.956L135.068 159.28C134.871 159.371 134.648 159.386 134.44 159.324C134.232 159.262 134.054 159.126 133.939 158.942L133.327 157.913L130.977 153.955C130.905 153.84 130.867 153.707 130.867 153.571C130.867 153.435 130.905 153.302 130.977 153.187L131.238 152.791C131.318 152.685 131.418 152.597 131.534 152.532C131.649 152.467 131.776 152.426 131.908 152.412C132.04 152.399 132.173 152.412 132.299 152.453C132.425 152.493 132.542 152.558 132.642 152.646L134.407 154.226L134.62 154.409C134.816 154.578 135.055 154.689 135.31 154.731C135.565 154.773 135.827 154.744 136.067 154.646L139.072 153.37C139.28 153.276 139.508 153.237 139.735 153.257C139.962 153.277 140.179 153.355 140.368 153.484C140.556 153.612 140.707 153.787 140.808 153.992C140.909 154.196 140.956 154.423 140.944 154.651C140.886 155.115 140.828 155.598 140.741 156.081Z" fill="#F7FDFF"/>
<path d="M132.492 160.754L131.855 162.909C131.827 163.005 131.775 163.092 131.705 163.163C131.635 163.235 131.548 163.287 131.453 163.317C131.357 163.347 131.256 163.352 131.158 163.333C131.06 163.314 130.968 163.272 130.89 163.209C128.666 161.479 128.599 159.087 129.207 156.956C129.239 156.842 129.304 156.739 129.393 156.662C129.483 156.584 129.593 156.534 129.71 156.518C129.827 156.502 129.947 156.521 130.054 156.572C130.161 156.623 130.25 156.705 130.312 156.806L132.111 159.836C132.191 159.966 132.28 160.09 132.376 160.208C132.44 160.282 132.483 160.371 132.503 160.466C132.524 160.562 132.52 160.661 132.492 160.754Z" fill="#F7FDFF"/>
<path d="M132.646 152.655L134.412 154.235L133.327 157.922L130.977 153.964C130.905 153.849 130.867 153.716 130.867 153.58C130.867 153.444 130.905 153.311 130.977 153.196L131.238 152.8C131.318 152.693 131.419 152.605 131.534 152.539C131.65 152.474 131.778 152.433 131.91 152.419C132.043 152.406 132.176 152.419 132.303 152.46C132.43 152.501 132.547 152.567 132.646 152.655Z" fill="#F7FDFF"/>
<path d="M131.788 145.006C133.485 145.358 135.205 145.585 136.936 145.683L135.377 150.974C135.057 150.859 134.759 150.687 134.499 150.467L131.991 148.336C131.523 147.944 131.207 147.4 131.098 146.799C131.035 146.432 130.973 146.069 130.929 145.717C130.922 145.608 130.94 145.499 130.983 145.399C131.026 145.298 131.093 145.21 131.177 145.14C131.261 145.071 131.36 145.023 131.466 144.999C131.572 144.976 131.683 144.978 131.788 145.006Z" fill="#F7FDFF"/>
<path d="M131.811 140.536C133.922 140.974 136.065 141.236 138.218 141.318L137.509 143.778C135.395 143.693 133.295 143.404 131.237 142.913C131.1 142.879 130.977 142.799 130.89 142.687C130.802 142.575 130.755 142.437 130.755 142.295C130.755 141.85 130.784 141.42 130.842 141.004C130.855 140.918 130.886 140.835 130.934 140.761C130.981 140.688 131.044 140.625 131.117 140.577C131.19 140.529 131.273 140.497 131.359 140.483C131.446 140.47 131.534 140.474 131.618 140.497L131.811 140.536Z" fill="#F7FDFF"/>
<path d="M133.167 136.269C135.262 136.698 137.393 136.926 139.53 136.95L138.807 139.41C136.582 139.357 134.367 139.101 132.188 138.647C132.082 138.63 131.981 138.59 131.892 138.53C131.803 138.47 131.728 138.391 131.672 138.299C131.616 138.207 131.582 138.104 131.57 137.997C131.558 137.89 131.57 137.782 131.604 137.68C131.732 137.31 131.88 136.947 132.048 136.593C132.127 136.437 132.256 136.313 132.415 136.241C132.574 136.169 132.752 136.154 132.921 136.197L133.167 136.269Z" fill="#F7FDFF"/>
<path d="M140.92 132.161L140.075 135.017C138.148 135.034 136.223 134.872 134.325 134.534C134.235 134.527 134.149 134.495 134.076 134.441C134.004 134.387 133.948 134.314 133.915 134.23C133.881 134.146 133.872 134.054 133.889 133.965C133.905 133.876 133.946 133.794 134.007 133.727C135.637 132.094 137.523 131.422 138.831 131.567C139.557 131.638 140.265 131.839 140.92 132.161Z" fill="#F7FDFF"/>
<path d="M114.748 145.108C113.899 145.649 113.045 146.137 112.201 146.557C110.539 147.4 108.811 148.107 107.034 148.669C106.957 148.695 106.875 148.702 106.795 148.688C106.715 148.674 106.64 148.641 106.577 148.59C106.513 148.54 106.463 148.474 106.432 148.399C106.401 148.324 106.389 148.242 106.397 148.161C106.542 147.291 106.888 146.467 107.408 145.756C107.929 145.044 108.609 144.464 109.393 144.064C109.845 143.828 110.335 143.676 110.84 143.614C112.158 143.479 113.488 143.688 114.7 144.223C114.788 144.256 114.864 144.314 114.92 144.39C114.975 144.465 115.008 144.556 115.013 144.65C115.018 144.743 114.996 144.837 114.948 144.918C114.901 144.999 114.832 145.065 114.748 145.108Z" fill="#F7FDFF"/>
<path d="M118.333 148.113C116.963 149.044 115.53 149.879 114.044 150.611C111.98 151.647 109.832 152.507 107.623 153.182C107.531 153.216 107.432 153.23 107.334 153.223C107.236 153.217 107.14 153.19 107.052 153.144C106.965 153.099 106.888 153.036 106.826 152.959C106.764 152.883 106.718 152.794 106.692 152.699C106.605 152.351 106.528 152.003 106.465 151.65C106.436 151.456 106.477 151.258 106.583 151.092C106.689 150.927 106.851 150.806 107.04 150.751C109.094 150.123 111.089 149.314 113.002 148.335C114.213 147.722 115.385 147.033 116.51 146.272L116.722 146.132C116.863 146.027 117.035 145.973 117.21 145.979C117.386 145.985 117.554 146.051 117.687 146.166C117.971 146.422 118.246 146.707 118.521 147.006C118.587 147.089 118.635 147.185 118.661 147.288C118.687 147.39 118.692 147.497 118.674 147.602C118.656 147.706 118.617 147.806 118.558 147.894C118.499 147.982 118.423 148.057 118.333 148.113Z" fill="#F7FDFF"/>
<path d="M120.47 149.799C120.672 150.171 120.865 150.563 121.044 150.973C121.097 151.108 121.104 151.257 121.062 151.396C121.02 151.535 120.932 151.655 120.812 151.737C119.265 152.857 117.621 153.837 115.901 154.665C113.683 155.742 111.366 156.603 108.983 157.236C108.851 157.275 108.71 157.267 108.583 157.213C108.456 157.16 108.352 157.063 108.288 156.941C108.124 156.598 107.965 156.245 107.806 155.878C107.774 155.792 107.76 155.701 107.765 155.609C107.77 155.518 107.794 155.428 107.835 155.347C107.876 155.265 107.934 155.193 108.004 155.134C108.075 155.076 108.157 155.033 108.245 155.008C110.515 154.311 112.726 153.43 114.854 152.375C116.422 151.597 117.937 150.715 119.389 149.736L119.553 149.62C119.623 149.567 119.704 149.529 119.79 149.509C119.876 149.489 119.965 149.488 120.051 149.505C120.138 149.522 120.22 149.557 120.292 149.607C120.364 149.658 120.424 149.723 120.47 149.799Z" fill="#F7FDFF"/>
<path d="M122.192 154.236C122.279 154.584 122.366 154.941 122.448 155.308C122.578 155.912 122.491 156.542 122.202 157.087L120.677 160.034C120.326 160.715 119.727 161.235 119.003 161.484C118.57 161.639 118.106 161.682 117.652 161.61L111.381 160.643C110.996 160.588 110.629 160.444 110.31 160.223C109.794 159.846 110.044 159.015 110.696 158.821C111.139 158.686 111.603 158.541 112.075 158.377C113.576 157.868 115.045 157.271 116.475 156.589L116.712 156.478C118.238 155.734 119.71 154.883 121.116 153.931C121.202 153.864 121.302 153.819 121.409 153.798C121.516 153.777 121.626 153.782 121.731 153.811C121.835 153.841 121.932 153.895 122.012 153.968C122.092 154.042 122.154 154.134 122.192 154.236Z" fill="#F7FDFF"/>
<path d="M127.73 172.105C126.911 173.061 125.755 173.664 124.503 173.787C122.766 173.888 121.102 172.82 119.645 171.37C119.561 171.266 119.51 171.14 119.497 171.007C119.485 170.874 119.511 170.74 119.574 170.622C119.637 170.504 119.733 170.408 119.85 170.344C119.967 170.28 120.101 170.252 120.234 170.264L122.959 170.394H123.104C123.801 170.423 124.488 170.225 125.063 169.829C125.431 169.586 125.744 169.268 125.983 168.898C126.222 168.527 126.382 168.11 126.452 167.674L126.973 164.161C126.992 164.03 127.048 163.907 127.135 163.807C127.221 163.706 127.334 163.633 127.461 163.595C127.587 163.557 127.722 163.556 127.85 163.592C127.977 163.628 128.091 163.699 128.179 163.798C129.882 166.012 130.755 168.954 127.73 172.105Z" fill="#F7FDFF"/>
<path d="M125.304 161.948L124.445 167.747C124.407 167.962 124.292 168.157 124.122 168.295C123.952 168.432 123.738 168.504 123.519 168.496L122.178 168.438L118.295 168.259C118.005 168.247 117.722 168.166 117.47 168.022C117.218 167.879 117.005 167.676 116.847 167.432C116.63 167.08 116.432 166.746 116.254 166.437C116.15 166.229 116.103 165.997 116.116 165.764C116.13 165.532 116.204 165.307 116.33 165.112C116.457 164.917 116.632 164.758 116.839 164.651C117.045 164.545 117.276 164.494 117.508 164.504L120.403 164.538H120.793C121.057 164.539 121.317 164.466 121.542 164.328C121.767 164.19 121.949 163.991 122.067 163.755L123.032 161.774C123.114 161.603 123.231 161.451 123.375 161.328C123.52 161.204 123.688 161.113 123.87 161.059C124.052 161.006 124.243 160.991 124.431 161.016C124.619 161.04 124.8 161.105 124.962 161.204C125.088 161.278 125.189 161.389 125.25 161.522C125.311 161.655 125.33 161.804 125.304 161.948Z" fill="#F7FDFF"/>
<path d="M120.243 170.192L123.012 170.327L124.576 173.763C122.82 173.865 121.126 172.797 119.65 171.318C119.564 171.213 119.511 171.085 119.498 170.949C119.484 170.814 119.511 170.678 119.574 170.558C119.637 170.438 119.735 170.339 119.854 170.274C119.973 170.209 120.108 170.18 120.243 170.192Z" fill="#F7FDFF"/>
<path d="M117.503 164.518L120.398 164.552L122.168 168.418L118.285 168.239C117.995 168.228 117.713 168.147 117.461 168.003C117.209 167.859 116.995 167.657 116.838 167.413C116.621 167.06 116.423 166.727 116.244 166.417C116.149 166.21 116.108 165.981 116.125 165.753C116.143 165.526 116.218 165.306 116.344 165.116C116.47 164.925 116.643 164.77 116.846 164.666C117.049 164.561 117.275 164.511 117.503 164.518Z" fill="#F7FDFF"/>
<path d="M116.475 156.564L116.712 156.453L119.003 161.479C118.57 161.634 118.106 161.677 117.652 161.604L111.381 160.638C110.996 160.583 110.629 160.439 110.31 160.217C109.794 159.841 110.044 159.009 110.696 158.816C111.139 158.681 111.603 158.536 112.075 158.372C113.576 157.857 115.045 157.253 116.475 156.564Z" fill="#F7FDFF"/>
<path d="M108.245 155.013C110.515 154.316 112.726 153.436 114.854 152.38L115.901 154.67C113.683 155.747 111.366 156.608 108.983 157.241C108.851 157.28 108.71 157.272 108.583 157.219C108.456 157.165 108.352 157.069 108.288 156.946C108.124 156.603 107.965 156.251 107.806 155.883C107.774 155.798 107.76 155.706 107.765 155.615C107.77 155.523 107.794 155.434 107.835 155.352C107.876 155.27 107.934 155.198 108.004 155.14C108.075 155.081 108.157 155.038 108.245 155.013Z" fill="#F7FDFF"/>
<path d="M107.04 150.728C109.094 150.099 111.089 149.29 113.002 148.312L114.044 150.592C111.98 151.634 109.832 152.501 107.623 153.182C107.531 153.216 107.432 153.23 107.334 153.223C107.236 153.217 107.14 153.19 107.052 153.145C106.965 153.099 106.888 153.036 106.826 152.96C106.764 152.883 106.718 152.794 106.692 152.699C106.605 152.351 106.528 152.003 106.465 151.651C106.429 151.453 106.468 151.248 106.574 151.078C106.68 150.907 106.846 150.782 107.04 150.728Z" fill="#F7FDFF"/>
<path d="M110.855 143.624L112.201 146.567C110.539 147.41 108.811 148.116 107.034 148.679C106.957 148.705 106.875 148.712 106.795 148.698C106.715 148.684 106.64 148.65 106.577 148.6C106.513 148.549 106.463 148.483 106.432 148.409C106.401 148.334 106.389 148.252 106.397 148.171C106.542 147.301 106.888 146.477 107.408 145.765C107.929 145.054 108.609 144.474 109.393 144.073C109.849 143.836 110.344 143.684 110.855 143.624Z" fill="#F7FDFF"/>
<path d="M98.4328 102.768C99.2261 103.071 100.107 103.048 100.883 102.702C101.659 102.356 102.267 101.715 102.572 100.922L103.238 99.1772C103.541 98.3832 103.517 97.5011 103.172 96.7247C102.826 95.9482 102.187 95.3408 101.395 95.0359L99.6292 94.3594C99.651 93.8017 99.6365 93.2432 99.5858 92.6874L101.313 91.9143C101.697 91.7432 102.044 91.4979 102.333 91.1924C102.622 90.887 102.849 90.5275 102.999 90.1343C103.15 89.7412 103.222 89.3222 103.21 88.9012C103.199 88.4803 103.105 88.0657 102.934 87.6812L102.176 85.9754C101.83 85.1993 101.191 84.5924 100.399 84.288C99.6064 83.9836 98.7258 84.0065 97.9504 84.3518L96.2233 85.125C95.8447 84.716 95.4402 84.3318 95.0124 83.9749L95.6878 82.2063C95.9909 81.4123 95.9672 80.5302 95.6216 79.7538C95.2761 78.9773 94.6371 78.37 93.8449 78.065L92.1082 77.3933C91.3155 77.0897 90.4349 77.1135 89.6598 77.4596C88.8846 77.8057 88.2782 78.4458 87.9738 79.2393L87.2936 81.0079C86.7368 80.9885 86.1794 81.003 85.6244 81.0514L84.8573 79.3214C84.5103 78.5461 83.8709 77.9401 83.0789 77.6358C82.2869 77.3316 81.4069 77.3538 80.6313 77.6978L78.9283 78.4564C78.5442 78.6276 78.1975 78.8728 77.9082 79.1783C77.6188 79.4837 77.3923 79.8432 77.2418 80.2364C77.0912 80.6295 77.0195 81.0486 77.0308 81.4695C77.042 81.8904 77.136 82.305 77.3074 82.6895L78.0744 84.4194C77.6674 84.7999 77.2839 85.205 76.9262 85.6323L75.1606 84.9558C74.3679 84.6522 73.4873 84.676 72.7121 85.0221C71.937 85.3682 71.3306 86.0082 71.0262 86.8017L70.3604 88.5414C70.2096 88.9348 70.1376 89.3541 70.1486 89.7754C70.1595 90.1968 70.2533 90.6118 70.4244 90.9968C70.5955 91.3818 70.8407 91.7293 71.1459 92.0194C71.4512 92.3095 71.8105 92.5365 72.2033 92.6874L73.969 93.3639C73.9449 93.9216 73.9594 94.4803 74.0124 95.0359L72.2853 95.8042C71.5094 96.1473 70.901 96.7846 70.5936 97.5763C70.2861 98.368 70.3046 99.2496 70.6451 100.028L71.4073 101.733C71.5776 102.119 71.8222 102.466 72.127 102.756C72.4319 103.047 72.7909 103.274 73.1836 103.425C73.5762 103.575 73.9948 103.647 74.4152 103.636C74.8356 103.624 75.2496 103.529 75.6333 103.357L77.3604 102.589C77.7403 102.996 78.1447 103.381 78.5713 103.739L77.8911 105.507C77.5879 106.301 77.6117 107.183 77.9572 107.96C78.3028 108.736 78.9418 109.344 79.734 109.649L81.4755 110.315C81.8676 110.467 82.2857 110.54 82.706 110.53C83.1262 110.519 83.5402 110.426 83.9243 110.255C84.3085 110.084 84.6551 109.838 84.9443 109.533C85.2336 109.227 85.4597 108.868 85.6099 108.474L86.2853 106.701C86.842 106.725 87.3998 106.711 87.9545 106.657L88.7264 108.392C89.0724 109.168 89.7118 109.775 90.5041 110.08C91.2964 110.384 92.177 110.361 92.9524 110.016L94.6554 109.252C95.4303 108.906 96.0361 108.265 96.34 107.472C96.644 106.678 96.621 105.796 96.2763 105.019L95.5045 103.289C95.914 102.911 96.2976 102.506 96.6526 102.077L98.4328 102.768ZM94.6988 97.8676C93.7781 99.6898 92.2596 101.139 90.3981 101.973C88.5367 102.806 86.4457 102.972 84.4762 102.444C84.1771 102.362 83.8925 102.27 83.6127 102.163C81.4902 101.351 79.7608 99.7522 78.7819 97.6983C77.8031 95.6443 77.6497 93.2921 78.3535 91.1281C79.0574 88.9641 80.5646 87.1537 82.5635 86.0715C84.5623 84.9892 86.9 84.7178 89.093 85.3134C89.3873 85.3956 89.6768 85.4922 89.9566 85.5985C91.1103 86.0444 92.1581 86.7272 93.0326 87.603C93.9071 88.4788 94.5889 89.5283 95.0342 90.6839C95.4795 91.8395 95.6784 93.0756 95.6181 94.3128C95.5579 95.55 95.2398 96.7609 94.6843 97.8676H94.6988Z" fill="#CCB88F"/>
<path d="M79.4689 113.698L79.2229 113.601C79.0492 113.54 78.8804 113.472 78.7164 113.398L78.644 113.369L78.4076 113.273L78.2822 113.215C78.1519 113.162 78.0265 113.104 77.8818 113.036C77.737 112.968 77.4621 112.838 77.2401 112.722C77.1002 112.654 76.9652 112.582 76.8301 112.509H76.7915L76.4104 112.301L76.3621 112.272L75.9762 112.04C75.8411 111.963 75.7108 111.886 75.5613 111.789L75.1946 111.552C74.939 111.383 74.6784 111.205 74.4372 111.031L74.0513 110.745L74.0175 110.716C73.7956 110.552 73.5833 110.373 73.3711 110.199L72.9514 109.847C72.5606 109.508 72.1891 109.151 71.8225 108.788L71.6633 108.624C71.5089 108.469 71.3642 108.31 71.2146 108.141C71.0651 107.972 70.7949 107.658 70.5971 107.435L70.3463 107.131L70.2015 106.947L70.0665 106.773L69.7915 106.406C69.7288 106.329 69.6709 106.247 69.613 106.164L69.5358 106.053L69.4393 105.918L69.2319 105.614V105.589L69.0582 105.319L68.8845 105.048L68.7929 104.894V104.865C68.6771 104.681 68.5661 104.492 68.4503 104.285C68.4021 104.207 68.3587 104.13 68.3153 104.048L68.2525 103.937C68.2455 103.92 68.2374 103.904 68.2284 103.888V103.859L67.9969 103.41C67.9682 103.36 67.9425 103.308 67.9197 103.255L67.8714 103.159C67.8039 103.019 67.7315 102.879 67.6736 102.734L67.5578 102.487C67.4662 102.279 67.3793 102.067 67.2877 101.849C67.196 101.632 67.1044 101.366 67.0127 101.134L66.9548 100.965L66.8873 100.776C66.8197 100.588 66.7618 100.4 66.6991 100.197L66.5689 99.7762L66.5303 99.6361C66.4579 99.3703 66.3856 99.1094 66.3228 98.8581L66.2215 98.4135C66.1926 98.2734 66.1636 98.1333 66.1347 97.9738L66.0913 97.7612L66.0527 97.5437C65.99 97.1765 65.9321 96.814 65.8886 96.4565L65.8501 96.0747C65.8501 95.9587 65.8259 95.8379 65.8163 95.7171V95.6688C65.8163 95.519 65.7922 95.374 65.7825 95.2339C65.7729 95.0938 65.7825 94.9633 65.7825 94.8473V93.9968C65.7825 93.5958 65.7825 93.2237 65.7825 92.8613C65.7825 92.639 65.8066 92.4215 65.8259 92.1847C65.8259 92.0446 65.8501 91.9045 65.8645 91.7595C65.9224 91.2183 65.9948 90.6867 66.0864 90.1649C66.0864 90.0392 66.1347 89.9087 66.1588 89.7783C66.1829 89.6478 66.2071 89.527 66.2408 89.3917C66.3373 88.9375 66.429 88.5702 66.5303 88.2175C66.6316 87.8647 66.704 87.6134 66.8197 87.251C66.8728 87.0964 66.921 86.9466 66.9789 86.7678L67.1623 86.2846C67.225 86.1203 67.2829 85.9656 67.3456 85.8013C67.4083 85.637 67.4951 85.4437 67.5723 85.265C67.7315 84.9074 67.8811 84.5884 68.0547 84.2985L68.2574 83.9071L68.3153 83.8056C68.4552 83.5398 68.6047 83.2741 68.7639 83.0131L69.2463 82.2351C69.3332 82.1047 69.4152 81.9742 69.5068 81.8437L69.9555 81.2155L70.0134 81.143L70.0423 81.1044C70.1822 80.9208 70.327 80.7371 70.4717 80.5583L70.6164 80.4472L70.6647 80.3216L70.9445 79.9881C71.3256 79.5532 71.7115 79.1473 72.0782 78.7801L72.4931 78.3838C72.6667 78.2244 72.8404 78.0601 73.0334 77.9006L73.1299 77.8136L73.347 77.6348L73.6702 77.3691C73.7715 77.2821 73.8825 77.1951 73.9838 77.1178L74.0802 77.0405C74.307 76.8713 74.5337 76.7022 74.7653 76.5572L74.9052 76.4558L75.0499 76.3591L75.1946 76.2625C75.3249 76.1755 75.4648 76.0837 75.5999 76.0015L75.6626 75.958L76.0292 75.7357L76.1354 75.6874L76.1788 75.6488L76.4924 75.47L76.9266 75.2284C77.0713 75.151 77.2112 75.0737 77.3752 74.9964L77.7901 74.7886L78.2725 74.5615L78.7212 74.3682C78.9576 74.2667 79.2036 74.1749 79.44 74.0831L79.8356 73.943L80.2167 75.0737C80.256 75.1915 80.3258 75.2968 80.419 75.3786C80.5123 75.4605 80.6255 75.5161 80.7473 75.5397C80.869 75.5633 80.9948 75.5541 81.1118 75.5129C81.2288 75.4718 81.3328 75.4003 81.4131 75.3057L84.4331 71.7588C84.5118 71.6665 84.5653 71.5553 84.5882 71.4361C84.6111 71.3168 84.6027 71.1937 84.5638 71.0787C84.5248 70.9637 84.4568 70.8608 84.3662 70.7801C84.2757 70.6995 84.1657 70.6437 84.0472 70.6184L79.4207 69.5843C79.2995 69.5571 79.1734 69.5628 79.0551 69.6006C78.9368 69.6385 78.8308 69.7072 78.7478 69.7996C78.6648 69.8921 78.6078 70.0051 78.5828 70.1269C78.5578 70.2487 78.5656 70.375 78.6054 70.4928L79.1216 72.0342L78.6392 72.1985C78.3738 72.3 78.1133 72.4015 77.8625 72.5078L77.38 72.7156C77.1871 72.7977 76.9989 72.8847 76.8108 72.9765L76.3814 73.1892C76.2029 73.2761 76.0341 73.3631 75.8652 73.4549L75.4166 73.7062C75.2815 73.7787 75.1512 73.856 75.0258 73.9333L74.9245 73.9865L74.8859 74.0203L74.5482 74.2233C74.5057 74.2452 74.4653 74.271 74.4276 74.3006C74.278 74.3924 74.1237 74.4939 73.9982 74.5808C73.8728 74.6678 73.6847 74.7886 73.5158 74.8949L73.2649 75.0737C73.0961 75.1994 72.9272 75.3202 72.7825 75.441L72.6812 75.5231L72.3194 75.8034L72.0106 76.0595L71.9769 76.0885L71.7357 76.2915L71.6247 76.3881C71.4269 76.5621 71.2243 76.7409 71.041 76.9196C70.8576 77.0984 70.737 77.1999 70.5875 77.3497H70.5634C70.1099 77.7991 69.7095 78.2244 69.3573 78.6399C69.2415 78.7704 69.1306 78.9057 69.0196 79.0362L68.9135 79.1618L68.87 79.215L68.8363 79.2585L68.3249 79.9157L68.2622 80.0075C68.103 80.2249 67.9438 80.4424 67.8087 80.6357C67.8096 80.6469 67.8096 80.6582 67.8087 80.6695C67.7074 80.8048 67.6109 80.9497 67.5337 81.0754V81.0996C67.4469 81.23 67.3552 81.3653 67.2732 81.5055L67.0224 81.9162C66.8535 82.1965 66.6895 82.4816 66.5399 82.7667L66.4724 82.8923C66.3952 83.0373 66.318 83.1823 66.2505 83.3176C66.0864 83.6461 65.9224 83.9941 65.768 84.3806L65.5172 84.975C65.4496 85.1393 65.3869 85.3036 65.3242 85.4582L65.1312 85.985C65.0685 86.1541 65.0155 86.3184 64.9527 86.5117C64.8273 86.8789 64.726 87.222 64.6392 87.5409C64.5523 87.8599 64.4269 88.3286 64.3208 88.8167C64.287 88.9616 64.2581 89.1114 64.2339 89.2516C64.2098 89.3917 64.1712 89.5512 64.1519 89.6816C64.0458 90.2808 63.9686 90.8317 63.9155 91.3729C63.9155 91.5276 63.8866 91.687 63.8721 91.8561C63.8576 92.0253 63.8335 92.3394 63.8239 92.581C63.8239 92.8661 63.8239 93.1464 63.7949 93.417L63.819 94.683C63.819 94.8328 63.819 94.9875 63.8432 95.1662C63.8432 95.3499 63.8432 95.5335 63.8866 95.6881L63.9155 96.0071L63.9397 96.2583C63.9927 96.7416 64.0603 97.2248 64.1423 97.679C64.1423 97.679 64.1423 97.7032 64.1423 97.7128L64.1857 97.9255V97.9593C64.1857 98.0269 64.2098 98.0946 64.2243 98.1671C64.2532 98.3265 64.2918 98.4908 64.3256 98.6503C64.3594 98.8098 64.398 98.9692 64.4317 99.1335V99.1722C64.4703 99.3365 64.5137 99.5056 64.5572 99.6554L64.644 99.9743C64.7067 100.197 64.7694 100.414 64.837 100.607C64.9045 100.801 64.9672 101.037 65.0492 101.265L65.1071 101.429C65.1071 101.496 65.1554 101.569 65.1795 101.627C65.276 101.893 65.3773 102.149 65.4738 102.395C65.5702 102.637 65.6667 102.879 65.768 103.096L65.8308 103.231C65.8308 103.27 65.8645 103.309 65.8838 103.352C65.961 103.521 66.043 103.686 66.1154 103.835L66.1492 103.898C66.183 103.979 66.2216 104.058 66.2649 104.135C66.3373 104.285 66.4145 104.43 66.4917 104.575V104.608V104.637L66.5882 104.811L66.7377 105.077C66.8632 105.299 66.9934 105.522 67.1285 105.734L67.225 105.899C67.3456 106.097 67.4758 106.295 67.6061 106.493L67.635 106.537C67.7026 106.643 67.7798 106.754 67.8473 106.855L67.9727 107.029L68.0403 107.126C68.1126 107.228 68.185 107.329 68.2477 107.406C68.3104 107.484 68.4359 107.662 68.5468 107.807L68.6915 107.996L69.1113 108.513C69.3332 108.779 69.5599 109.035 69.7963 109.291C69.9459 109.455 70.1002 109.62 70.2787 109.774L70.5151 110.011C71.0361 110.533 71.5813 111.035 72.1554 111.509C72.3966 111.707 72.6378 111.91 72.9031 112.103L73.2939 112.393C73.5496 112.582 73.8197 112.77 74.114 112.959C74.2491 113.05 74.389 113.137 74.5434 113.234C74.6977 113.331 74.8425 113.427 74.9727 113.5C75.103 113.572 75.2525 113.669 75.4021 113.751L75.46 113.78C75.6095 113.867 75.7639 113.954 75.9424 114.031L76.3959 114.268C76.6275 114.389 76.8783 114.505 77.1099 114.616L77.5344 114.809H77.5585C77.7081 114.877 77.8625 114.945 78.0168 115.003C78.1712 115.061 78.3835 115.157 78.5668 115.225H78.6054L78.8128 115.307C78.9342 115.354 79.0635 115.376 79.1934 115.373C79.3233 115.369 79.4512 115.34 79.57 115.287C79.6887 115.234 79.7958 115.158 79.8853 115.064C79.9747 114.97 80.0447 114.858 80.0913 114.737C80.1378 114.615 80.1601 114.486 80.1566 114.356C80.1532 114.226 80.1243 114.097 80.0714 113.979C80.0185 113.86 79.9428 113.752 79.8486 113.663C79.7543 113.573 79.6433 113.503 79.522 113.456L79.4689 113.698Z" fill="#CCB88F"/>
<path d="M108.385 102.033C108.52 101.675 108.641 101.342 108.742 101.018V100.979L108.858 100.607C108.856 100.598 108.856 100.588 108.858 100.578C108.858 100.578 108.858 100.578 108.858 100.549C108.897 100.429 108.935 100.303 108.969 100.182C108.969 100.139 108.969 100.095 109.003 100.057C109.119 99.6361 109.225 99.2061 109.321 98.7808L109.408 98.3507C109.481 97.9932 109.543 97.6356 109.591 97.2877C109.62 97.1089 109.645 96.9301 109.669 96.7513C109.693 96.5725 109.717 96.3695 109.727 96.2004L109.755 95.9394C109.755 95.7655 109.784 95.5819 109.794 95.3837C109.794 95.2823 109.794 95.176 109.794 95.0648C109.794 94.9537 109.794 94.8522 109.794 94.7507C109.794 94.5671 109.794 94.3835 109.794 94.2095V94.0887C109.794 94.0404 109.794 93.9872 109.794 93.9341C109.794 93.8809 109.794 93.9341 109.794 93.9002V93.7456C109.794 93.62 109.794 93.4895 109.794 93.3687C109.794 93.2479 109.794 92.9821 109.794 92.8081C109.794 92.4409 109.755 92.0688 109.717 91.6726C109.693 91.4503 109.673 91.228 109.645 91.0444V91.0202C109.645 90.8608 109.601 90.7013 109.577 90.537V90.421C109.577 90.3002 109.543 90.1842 109.524 90.0779C109.505 89.9716 109.476 89.8218 109.452 89.6769C109.427 89.5319 109.384 89.3096 109.345 89.1405C109.307 88.9713 109.302 88.923 109.278 88.8119L109.186 88.4108C109.109 88.1209 109.037 87.8261 108.95 87.5265L108.911 87.396C108.911 87.309 108.863 87.2221 108.839 87.1544C108.742 86.821 108.631 86.4924 108.52 86.188C108.477 86.0575 108.429 85.9319 108.385 85.8014L108.337 85.6757C108.245 85.439 108.154 85.1925 108.048 84.9509V84.9219C108.009 84.8301 107.975 84.7383 107.942 84.6658C107.84 84.4242 107.724 84.1826 107.604 83.9265C107.532 83.7767 107.459 83.6269 107.392 83.4964C107.324 83.3659 107.218 83.1533 107.126 82.9793C107.035 82.8054 106.957 82.6701 106.875 82.5348C106.808 82.3995 106.731 82.2738 106.653 82.1482L106.596 82.0322L106.562 81.9936L106.359 81.6601C106.338 81.6172 106.312 81.5767 106.282 81.5393C106.19 81.3895 106.094 81.2397 106.007 81.1093C105.92 80.9788 105.8 80.7952 105.689 80.626L105.515 80.3748C105.394 80.2056 105.269 80.0365 105.144 79.8915L105.071 79.7949L104.791 79.4421C104.695 79.3165 104.598 79.2005 104.512 79.099C104.49 79.0679 104.466 79.0388 104.439 79.0121C104.396 78.9589 104.347 78.9058 104.304 78.8478L104.241 78.7801V78.7559C104.058 78.5433 103.875 78.3404 103.701 78.1568L103.45 77.8958C103.33 77.7653 103.209 77.6445 103.098 77.5334L102.881 77.3208C102.736 77.1758 102.582 77.0308 102.447 76.9149L101.988 76.509L101.897 76.4316L101.443 76.0499C101.226 75.8711 101.004 75.6923 100.778 75.5183L100.387 75.2284C100.131 75.0399 99.8609 74.8467 99.5618 74.6534L99.1325 74.3779C98.9829 74.2861 98.8334 74.1895 98.7031 74.117L98.2786 73.8657L98.2207 73.8319C98.0663 73.7449 97.9119 73.6579 97.7383 73.5806C97.5646 73.5033 97.4295 73.4115 97.2848 73.3438C97.0532 73.223 96.8024 73.107 96.5756 72.9959C96.4261 72.9283 96.2765 72.8558 96.1463 72.8026L95.7844 72.6528L95.7073 72.619H95.6831C95.5046 72.5417 95.3213 72.4644 95.138 72.3967C95.017 72.3466 94.8871 72.3216 94.7562 72.3233C94.6253 72.3251 94.4961 72.3535 94.3765 72.4068C94.2569 72.4602 94.1494 72.5373 94.0605 72.6336C93.9717 72.7299 93.9033 72.8433 93.8596 72.9669C93.8095 73.0881 93.7846 73.2182 93.7863 73.3493C93.788 73.4804 93.8164 73.6098 93.8697 73.7296C93.9229 73.8494 93.9999 73.9571 94.0961 74.0461C94.1922 74.1352 94.3054 74.2037 94.4288 74.2475L94.9112 74.4456H94.945L95.0077 74.4697L95.2538 74.5761L95.3647 74.6244C95.495 74.6775 95.6204 74.7355 95.7651 74.8032C95.9099 74.8708 96.1849 75.0013 96.4068 75.1173L96.8168 75.3299H96.8506C96.9809 75.3927 97.1063 75.4652 97.2317 75.5377L97.2848 75.5667C97.4199 75.6391 97.5453 75.7165 97.6948 75.8083L98.0663 76.0354C98.1917 76.1175 98.322 76.1949 98.4571 76.2867C98.7128 76.4606 98.9733 76.6346 99.2145 76.8086L99.6004 77.0985L99.639 77.1275C99.8272 77.2676 100.01 77.4174 100.194 77.5672C100.377 77.717 100.478 77.804 100.618 77.9296C100.758 78.0553 100.956 78.2196 101.101 78.3694L101.41 78.6593L101.506 78.7511C101.738 78.9734 101.988 79.2343 102.278 79.5388C102.447 79.7176 102.606 79.8964 102.76 80.0703L102.842 80.1718L102.968 80.3216L103.04 80.4086C103.122 80.5004 103.204 80.6019 103.291 80.713L103.537 81.0271L103.614 81.1286C103.788 81.3509 103.952 81.578 104.097 81.8099L104.208 81.9597L104.391 82.24C104.483 82.3705 104.569 82.5106 104.651 82.6459L104.695 82.7087C104.772 82.8295 104.844 82.9503 104.917 83.0808L104.97 83.192L105.008 83.2355C105.066 83.3321 105.124 83.4287 105.187 83.5447C105.25 83.6607 105.351 83.8347 105.433 83.9845C105.515 84.1343 105.583 84.2647 105.665 84.429L105.862 84.8398C105.964 85.0524 106.07 85.2698 106.166 85.5066C106.2 85.5839 106.229 85.6564 106.263 85.7289L106.292 85.7965C106.379 86.0043 106.461 86.217 106.543 86.4199L106.586 86.5456C106.625 86.6519 106.663 86.7582 106.707 86.8886C106.813 87.1786 106.914 87.4782 107.006 87.7923C107.03 87.8599 107.049 87.9276 107.068 88.0001L107.107 88.1354C107.165 88.3286 107.218 88.5268 107.266 88.7297L107.363 89.1163C107.396 89.2709 107.435 89.4256 107.464 89.5995C107.493 89.7735 107.532 89.9281 107.565 90.1118C107.599 90.2954 107.609 90.3437 107.628 90.479C107.647 90.6143 107.662 90.682 107.681 90.7834V90.8946C107.681 91.0395 107.724 91.1845 107.744 91.3391C107.763 91.4938 107.787 91.7257 107.806 91.9287C107.826 92.1316 107.84 92.2863 107.85 92.4602C107.86 92.6342 107.874 92.8033 107.879 92.9773C107.884 93.1512 107.879 93.3059 107.879 93.4605C107.879 93.6151 107.879 93.8036 107.879 93.9872C107.879 94.3351 107.879 94.6831 107.855 95.0262C107.855 95.2001 107.855 95.3692 107.821 95.548C107.787 95.7268 107.792 95.9008 107.773 96.0844C107.773 96.1859 107.773 96.2874 107.739 96.3889V96.5725C107.739 96.7319 107.7 96.8866 107.671 97.0557C107.623 97.3843 107.565 97.7081 107.503 98.0222C107.474 98.1526 107.449 98.2831 107.421 98.4136C107.334 98.805 107.237 99.2012 107.126 99.6023L107.088 99.7231C107.088 99.8149 107.039 99.9067 107.01 100.003V100.047V100.086C106.977 100.201 106.938 100.322 106.904 100.433V100.467C106.803 100.767 106.697 101.071 106.581 101.376L106.538 101.487L106.494 101.598C106.379 101.902 106.253 102.202 106.123 102.502C105.993 102.801 105.853 103.096 105.64 103.468C105.573 103.603 105.5 103.744 105.423 103.884L105.385 103.961C105.24 104.227 105.09 104.493 104.936 104.753L104.454 105.551L104.203 105.923C104.053 106.136 103.904 106.348 103.749 106.556L103.701 106.624L103.219 107.208L103.026 107.445L102.736 107.783L102.456 108.102L101.974 108.585C101.713 108.861 101.458 109.107 101.183 109.363C101.009 109.528 100.831 109.692 100.657 109.847L100.556 109.934L100.319 110.137L100.01 110.388L99.6921 110.639L99.5956 110.716C99.3737 110.886 99.1469 111.05 98.9154 111.2L98.7658 111.306L98.4812 111.494C98.3509 111.581 98.2159 111.673 98.0808 111.755L98.0132 111.799L97.6514 112.016L97.5405 112.07L97.4922 112.113L97.1835 112.292C97.0387 112.374 96.894 112.456 96.7445 112.533C96.5949 112.611 96.4647 112.683 96.2958 112.765L95.8857 112.968C95.7265 113.046 95.5625 113.123 95.3744 113.205L94.9402 113.394C94.7038 113.49 94.4578 113.587 94.2166 113.679L94.1201 113.712L93.5701 112.316C93.5247 112.201 93.4495 112.099 93.3522 112.023C93.2549 111.946 93.139 111.896 93.0163 111.879C92.8937 111.862 92.7686 111.878 92.654 111.925C92.5394 111.972 92.4394 112.048 92.364 112.147L89.5322 115.848C89.4592 115.945 89.4123 116.059 89.3961 116.179C89.3798 116.299 89.3947 116.421 89.4392 116.534C89.4838 116.647 89.5567 116.746 89.6507 116.822C89.7447 116.898 89.8568 116.949 89.976 116.969L94.5735 117.714C94.698 117.736 94.8262 117.724 94.9445 117.68C95.0629 117.635 95.1669 117.559 95.2456 117.46C95.3243 117.361 95.3747 117.242 95.3914 117.117C95.4082 116.991 95.3906 116.863 95.3406 116.747L94.8582 115.525H94.9257C95.1911 115.423 95.4516 115.322 95.7024 115.215L96.1849 115.008C96.373 114.925 96.5611 114.838 96.7445 114.747H96.7879L97.1835 114.548L97.4247 114.428L97.6948 114.288L98.1435 114.036C98.2786 113.964 98.404 113.886 98.5343 113.809L98.6404 113.756L98.6838 113.722L99.0167 113.519L99.1373 113.442C99.2869 113.35 99.4364 113.249 99.5667 113.162L100.049 112.848L100.295 112.669L100.778 112.297L100.874 112.219L101.236 111.934L101.578 111.654L101.824 111.441L101.931 111.35C102.133 111.176 102.326 111.002 102.5 110.832C102.794 110.562 103.074 110.286 103.368 109.977C103.537 109.803 103.706 109.624 103.884 109.426C103.995 109.305 104.106 109.185 104.188 109.083L104.526 108.687L104.627 108.561L104.676 108.508L104.709 108.465L105.221 107.807L105.279 107.725C105.443 107.503 105.602 107.281 105.761 107.078V107.054L106.036 106.653L106.562 105.817C106.736 105.527 106.9 105.232 107.044 104.947L107.093 104.85C107.175 104.7 107.257 104.546 107.329 104.401C107.401 104.256 107.425 104.203 107.474 104.111C107.614 103.826 107.729 103.574 107.831 103.338C107.932 103.101 108.106 102.7 108.245 102.342L108.385 102.033Z" fill="#CCB88F"/>
</svg>
