<svg width="199" height="192" viewBox="0 0 199 192" fill="none" xmlns="http://www.w3.org/2000/svg">
<path d="M129.044 180.767C125.317 183.131 121.393 185.165 117.318 186.847C105.096 191.94 91.6595 193.298 78.6785 190.753C63.4435 187.825 53.5722 180.777 53.5722 180.777C44.26 164.814 43.5475 147.155 45.5267 131.761C46.5694 124.264 48.1486 116.852 50.2521 109.583C50.8854 107.319 51.5039 105.229 52.068 103.333C52.6321 101.438 53.1467 99.7265 53.5524 98.25C53.5524 98.25 57.5108 98.7488 63.5326 99.8063C76.3974 102.076 98.8268 106.93 113.102 115.101C118.545 118.213 122.79 121.805 124.883 125.915C125.2 126.539 125.497 127.167 125.779 127.816C126.273 128.893 126.689 130.006 127.09 131.143C127.342 131.891 127.585 132.639 127.812 133.408C128.287 135.03 128.698 136.693 129.044 138.396L129.079 138.556C129.445 140.371 129.747 142.222 129.98 144.083C132.295 161.981 129.044 180.767 129.044 180.767Z" fill="#FFFBF2"/>
<path d="M78.5995 140.745C86.5164 154.333 93.3496 172.91 80.5441 183.45C67.7386 193.99 70.4798 177.913 70.4798 177.913L68.9707 145.125L78.5995 140.745Z" fill="#E6DFD0"/>
<path d="M129.99 144.082L126.209 145.125L123.29 131.761L127.095 131.143C127.347 131.891 127.59 132.639 127.817 133.407C128.292 135.03 128.703 136.693 129.05 138.396L129.084 138.555C129.455 140.371 129.757 142.222 129.99 144.082Z" fill="#E6DFD0"/>
<path d="M127.818 133.407C84.9533 153.56 56.8585 121.715 50.2578 109.588C51.5295 105.054 52.7318 101.198 53.5581 98.2549C53.5581 98.2549 114.691 105.932 124.889 125.92C126.092 128.319 127.073 130.826 127.818 133.407Z" fill="#67BBE6"/>
<path d="M144.764 90.9166C164.116 90.9166 180.429 58.9465 180.429 58.9465C180.429 58.9465 147.208 61.0915 135.086 53.7637L128.871 71.3973L144.764 90.9166Z" fill="#CC8952"/>
<path d="M96.1992 37.6268V41.8519L83.6857 47.1595L61.7462 55.1407C59.0222 46.8092 58.1572 37.974 59.2128 29.2664C59.2128 29.1018 59.2573 28.9421 59.2771 28.7676L59.381 28.134C60.3589 21.3885 62.423 14.8492 65.4918 8.77441C67.09 9.66233 68.8565 10.5203 70.712 11.4082C80.7169 16.207 93.3244 21.8338 96.1992 37.6268Z" fill="#F2CBAC"/>
<path d="M96.1998 41.8519V37.6268C92.7906 18.9057 75.71 14.4661 65.4775 8.77444C66.9896 5.66761 68.8169 2.7271 70.9303 0C70.9303 0 102.024 18.4567 105.215 38.0309L96.1998 41.8519Z" fill="#EDA953"/>
<path d="M144.77 90.9166C144.303 92.681 143.713 94.4096 143.003 96.0895C144.154 100.233 144.227 104.605 143.216 108.785C142.699 110.8 141.894 112.729 140.826 114.511C139.484 116.74 137.774 118.72 135.769 120.368C132.484 123.096 128.382 125.042 123.731 126.224C123.587 126.269 123.439 126.299 123.295 126.339C109.589 129.661 91.252 126.443 74.8542 116.901C65.8142 111.628 58.5753 105.113 53.558 98.2694C52.1205 96.3116 50.8288 94.2491 49.6936 92.0989C49.4857 91.7148 49.2928 91.3207 49.1047 90.9366C48.5039 89.6946 47.9704 88.4207 47.5065 87.1205C44.7307 79.4984 44.8396 72.0209 48.3625 65.8703C49.6169 63.7012 51.2321 61.7658 53.1374 60.1487C56.0323 57.7264 59.3639 55.8903 62.9493 54.7414C73.0878 40.9737 92.0931 34.2295 111.094 39.1978C135.393 45.5579 150.475 68.7137 144.77 90.9166Z" fill="#EDA953"/>
<path d="M78.6785 190.752C63.4435 187.824 53.5722 180.776 53.5722 180.776C44.26 164.813 43.5475 147.155 45.5267 131.761C53.3891 133.432 89.0693 148.013 78.6785 190.752Z" fill="#CC8952"/>
<path d="M129.045 180.766C125.317 183.13 121.394 185.165 117.318 186.847C105.596 163.806 118.768 146.292 129.05 138.396C133.033 157.745 129.045 180.766 129.045 180.766Z" fill="#CC8952"/>
<path d="M58.4608 127.605L56.2341 153.141C55.9377 156.217 56.4311 159.318 57.6667 162.147C58.9024 164.976 60.8388 167.436 63.29 169.293C66.136 171.383 69.5383 172.565 73.0574 172.685C86.7436 173.353 80.232 148.706 80.232 148.706L76.2439 129.282L58.4608 127.605Z" fill="#EDA953"/>
<path d="M104.547 143.753C117.308 156.613 113.854 176.037 127.273 174.83C140.692 173.623 139.643 160.364 136.308 155.406C134.012 151.974 118.495 134.235 118.495 134.235L104.547 143.753Z" fill="#EDA953"/>
<path d="M47.5065 87.1212C44.7307 79.4991 44.8396 72.0216 48.3625 65.871C49.6169 63.7019 51.2321 61.7665 53.1374 60.1494C61.0691 68.1706 58.6 82.8063 47.5065 87.1212Z" fill="#CC8952"/>
<path d="M143.23 108.785C142.713 110.8 141.908 112.729 140.84 114.512C137.228 120.542 130.999 124.488 123.305 126.339C123.305 126.199 123.305 126.059 123.305 125.915C123.29 116.462 130.821 105.298 143.23 108.785Z" fill="#CC8952"/>
<path d="M123.74 126.205C123.597 126.249 123.448 126.279 123.305 126.319C109.599 129.641 91.2615 126.424 74.8638 116.881C65.8139 111.629 58.5749 105.114 53.5576 98.27C54.5938 98.814 55.6749 99.2663 56.7887 99.6218C58.9631 100.393 61.3213 100.464 63.5378 99.8263C69.7624 97.8809 73.0528 89.8497 76.8677 84.2429C85.2794 71.827 93.785 79.4192 105.819 58.7676C111.39 49.2 122.147 52.7367 118.57 65.6614C118.197 66.9755 117.731 68.2609 117.174 69.5074C110.97 83.6193 118.768 87.1411 115.047 100.041C113.73 104.605 111.608 110.227 113.107 115.12C113.614 116.777 114.522 118.281 115.749 119.495C116.407 120.159 117.303 120.992 118.372 121.885C119.876 123.152 121.726 124.643 123.74 126.205Z" fill="#FFFBF2"/>
<path d="M123.74 126.204C123.597 126.249 123.448 126.279 123.305 126.319C109.599 129.641 91.2615 126.424 74.8638 116.881C65.8139 111.628 58.5749 105.113 53.5576 98.2695C54.5938 98.8136 55.6749 99.2659 56.7887 99.6214C68.0652 109.124 90.554 121.67 118.372 121.884C119.876 123.151 121.726 124.643 123.74 126.204Z" fill="#E6DFD0"/>
<path d="M83.553 120.413C83.5562 119.705 83.4211 119.004 83.1552 118.349C82.8894 117.693 82.498 117.097 82.0036 116.595C81.5091 116.092 80.9212 115.693 80.2736 115.419C79.6259 115.146 78.9311 115.004 78.2289 115.001C77.4746 115.008 76.7305 115.178 76.0468 115.5C76.0468 115.345 76.0468 115.185 76.0468 115.001C76.0604 113.774 75.6555 112.579 74.9001 111.617C74.1446 110.654 73.0843 109.983 71.8965 109.714C70.7087 109.445 69.4654 109.596 68.3745 110.141C67.2836 110.685 66.4113 111.591 65.9034 112.706C65.5146 111.889 64.9272 111.184 64.1957 110.657C63.4641 110.129 62.6123 109.797 61.7193 109.691C60.8263 109.585 59.9211 109.708 59.0879 110.049C58.2547 110.389 57.5205 110.937 56.9535 111.641C56.3866 112.344 56.0053 113.181 55.8451 114.073C55.6849 114.965 55.751 115.884 56.0372 116.743C56.3235 117.602 56.8206 118.375 57.4823 118.989C58.1441 119.602 58.949 120.038 59.8223 120.254C58.9625 121.674 58.4409 123.276 58.2986 124.933C58.1562 126.591 58.3969 128.259 59.0018 129.807C59.6066 131.355 60.5592 132.741 61.7847 133.855C63.0101 134.969 64.4751 135.782 66.0647 136.23C67.6542 136.677 69.325 136.747 70.9459 136.434C72.5668 136.121 74.0936 135.434 75.4065 134.425C76.7194 133.417 77.7827 132.116 78.5127 130.624C79.2428 129.132 79.6199 127.489 79.6144 125.826C79.6144 125.761 79.6144 125.696 79.6144 125.631C80.7476 125.317 81.747 124.636 82.4586 123.693C83.1703 122.751 83.5549 121.598 83.553 120.413Z" fill="#FFFBF2"/>
<path d="M96.9863 130.908C96.9928 130.247 97.1285 129.593 97.3856 128.984C97.6427 128.375 98.0163 127.824 98.485 127.36C98.9536 126.897 99.5082 126.532 100.117 126.285C100.726 126.037 101.377 125.914 102.033 125.92C102.744 125.92 103.447 126.07 104.097 126.359C104.089 126.213 104.089 126.066 104.097 125.92C104.111 124.584 104.65 123.309 105.597 122.374C106.543 121.438 107.819 120.92 109.144 120.932C110.096 120.93 111.03 121.199 111.838 121.708C112.646 122.217 113.295 122.946 113.711 123.81C114.207 122.78 115.032 121.948 116.055 121.448C117.077 120.948 118.236 120.809 119.346 121.054C120.455 121.299 121.451 121.913 122.173 122.797C122.895 123.682 123.3 124.785 123.325 125.93C123.315 127.058 122.93 128.15 122.229 129.03C121.529 129.909 120.555 130.525 119.465 130.779C120.414 132.322 120.917 134.101 120.92 135.917C120.92 138.616 119.856 141.204 117.963 143.112C116.07 145.021 113.503 146.093 110.826 146.093C108.149 146.093 105.581 145.021 103.688 143.112C101.795 141.204 100.732 138.616 100.732 135.917C100.732 135.857 100.732 135.802 100.732 135.742C99.6628 135.472 98.7137 134.85 98.0351 133.974C97.3566 133.099 96.9875 132.02 96.9863 130.908Z" fill="#FFFBF2"/>
<path d="M95.5024 83.1846L96.5316 89.6295C96.5872 89.9759 96.7194 90.3052 96.9186 90.593C97.1178 90.8808 97.3787 91.1196 97.6821 91.2917C97.9854 91.4638 98.3233 91.5647 98.6707 91.587C99.0181 91.6092 99.366 91.5523 99.6885 91.4203L105.69 88.9262C106.093 88.7598 106.441 88.4825 106.695 88.1259C106.948 87.7693 107.097 87.3478 107.124 86.9099C107.151 86.472 107.055 86.0353 106.847 85.6499C106.639 85.2645 106.327 84.946 105.948 84.731L98.9166 80.7403C98.5343 80.5215 98.0979 80.4171 97.6589 80.4395C97.2198 80.4619 96.7961 80.6101 96.4377 80.8667C96.0792 81.1234 95.8008 81.4778 95.6351 81.8883C95.4695 82.2989 95.4235 82.7486 95.5024 83.1846Z" fill="#4D3A32"/>
<path d="M99.0594 104.754C98.9555 105.098 94.6705 119.051 89.0397 117.225C78.9952 113.953 84.4133 95.6405 84.4133 95.6405C90.3509 99.3518 95.5018 94.5032 98.5349 90.1035C98.05 90.8767 92.6715 99.6611 99.0594 104.754Z" fill="#E75D63"/>
<path d="M108.654 106.75C104.735 106.251 101.786 105.254 99.8862 103.727C94.6512 99.5371 98.8273 92.1794 99.5893 90.9373L99.8664 90.638V90.1042C99.8655 89.8368 99.7852 89.5758 99.6357 89.3549C99.4862 89.1341 99.2744 88.9634 99.0277 88.8652C98.7811 88.7669 98.5108 88.7454 98.2519 88.8036C97.993 88.8617 97.7574 88.9968 97.5754 89.1914L97.2142 89.6353V89.6802C94.384 93.6709 90.0544 97.5917 85.1163 94.5089C83.4637 93.4763 81.8011 91.7304 80.1683 89.3111C80.0745 89.1567 79.9507 89.023 79.8044 88.9181C79.658 88.8132 79.4921 88.7393 79.3167 88.7007C79.1412 88.6622 78.9598 88.6598 78.7834 88.6938C78.607 88.7277 78.4393 88.7973 78.2903 88.8984C78.1413 88.9994 78.0141 89.1298 77.9164 89.2817C77.8187 89.4336 77.7525 89.6039 77.7218 89.7822C77.691 89.9606 77.6965 90.1434 77.7377 90.3196C77.7788 90.4958 77.855 90.6618 77.9615 90.8076C79.7923 93.5462 81.722 95.5564 83.7012 96.7935C85.1778 97.7523 86.893 98.2711 88.6492 98.29C90.8896 98.2295 93.0505 97.4403 94.8095 96.0403C94.2504 99.2478 94.6759 102.989 98.2187 105.822C100.51 107.658 103.904 108.865 108.318 109.409C108.372 109.414 108.427 109.414 108.481 109.409C108.829 109.425 109.17 109.303 109.429 109.068C109.689 108.833 109.846 108.504 109.867 108.153C109.888 107.802 109.77 107.457 109.541 107.193C109.311 106.928 108.987 106.766 108.639 106.74L108.654 106.75Z" fill="#4D3A32"/>
<path d="M92.1923 61.4509C89.4758 57.1659 82.6921 60.2736 81.0296 65.1522C80.8069 64.9876 80.5793 64.8329 80.3418 64.6883C78.7485 63.6906 76.8039 63.1419 75.0078 63.5011C76.5199 64.2097 77.898 65.1786 79.08 66.3644C80.2023 67.4867 81.1843 68.7431 82.0043 70.1056C82.8431 71.4749 83.5364 72.9295 84.0726 74.4454C84.6377 76.0582 85.0713 77.7149 85.369 79.3988C86.0967 77.6919 86.3498 75.8175 86.1013 73.9765C86.1013 73.7919 86.0468 73.6074 86.0172 73.4228C91.9845 71.8315 94.8939 65.7009 92.1923 61.4509Z" fill="#4D3A32"/>
<path d="M128.471 93.7798C128.157 93.7786 127.853 93.6659 127.613 93.4616C127.374 93.2573 127.213 92.9743 127.159 92.6624C126.521 88.8763 125.314 86.457 123.577 85.4743C121.459 84.2671 118.51 85.155 115.66 86.2974C115.498 86.3629 115.324 86.3955 115.149 86.3933C114.974 86.3912 114.801 86.3543 114.64 86.2848C114.48 86.2153 114.334 86.1146 114.212 85.9884C114.09 85.8621 113.993 85.7129 113.928 85.5491C113.863 85.3853 113.831 85.2103 113.833 85.0339C113.835 84.8575 113.872 84.6833 113.941 84.5212C114.01 84.3591 114.11 84.2122 114.235 84.089C114.36 83.9658 114.508 83.8687 114.671 83.8032C118.134 82.4165 121.791 81.3789 124.883 83.1348C127.387 84.5515 128.985 87.5195 129.782 92.2085C129.841 92.5591 129.759 92.9188 129.555 93.2087C129.351 93.4987 129.041 93.6951 128.693 93.7549C128.62 93.7681 128.545 93.7765 128.471 93.7798Z" fill="#4D3A32"/>
<path d="M70.6972 11.4082C70.6972 11.4082 61.0436 17.3942 59.3662 28.134C60.3441 21.3885 62.4082 14.8492 65.477 8.77441C67.0752 9.66233 68.8417 10.5203 70.6972 11.4082Z" fill="#EDA953"/>
<path d="M68.9709 131.761C72.0069 131.761 74.4681 129.28 74.4681 126.219C74.4681 123.158 72.0069 120.677 68.9709 120.677C65.9348 120.677 63.4736 123.158 63.4736 126.219C63.4736 129.28 65.9348 131.761 68.9709 131.761Z" fill="#FFBFC2"/>
<path d="M61.3114 118.094C62.6997 118.094 63.825 116.959 63.825 115.559C63.825 114.16 62.6997 113.025 61.3114 113.025C59.9232 113.025 58.7979 114.16 58.7979 115.559C58.7979 116.959 59.9232 118.094 61.3114 118.094Z" fill="#FFBFC2"/>
<path d="M70.4804 118.094C71.8686 118.094 72.994 116.959 72.994 115.559C72.994 114.16 71.8686 113.025 70.4804 113.025C69.0922 113.025 67.9668 114.16 67.9668 115.559C67.9668 116.959 69.0922 118.094 70.4804 118.094Z" fill="#FFBFC2"/>
<path d="M78.0302 122.703C79.4184 122.703 80.5438 121.568 80.5438 120.169C80.5438 118.769 79.4184 117.635 78.0302 117.635C76.642 117.635 75.5166 118.769 75.5166 120.169C75.5166 121.568 76.642 122.703 78.0302 122.703Z" fill="#FFBFC2"/>
<path d="M110.826 141.737C113.862 141.737 116.324 139.256 116.324 136.195C116.324 133.135 113.862 130.653 110.826 130.653C107.79 130.653 105.329 133.135 105.329 136.195C105.329 139.256 107.79 141.737 110.826 141.737Z" fill="#FFBFC2"/>
<path d="M118.49 128.07C119.878 128.07 121.004 126.936 121.004 125.536C121.004 124.136 119.878 123.002 118.49 123.002C117.102 123.002 115.977 124.136 115.977 125.536C115.977 126.936 117.102 128.07 118.49 128.07Z" fill="#FFBFC2"/>
<path d="M109.322 128.07C110.71 128.07 111.836 126.936 111.836 125.536C111.836 124.136 110.71 123.002 109.322 123.002C107.934 123.002 106.809 124.136 106.809 125.536C106.809 126.936 107.934 128.07 109.322 128.07Z" fill="#FFBFC2"/>
<path d="M101.767 132.679C103.155 132.679 104.28 131.545 104.28 130.145C104.28 128.746 103.155 127.611 101.767 127.611C100.378 127.611 99.2529 128.746 99.2529 130.145C99.2529 131.545 100.378 132.679 101.767 132.679Z" fill="#FFBFC2"/>
<path d="M182.344 83.6941C182.1 83.6951 181.86 83.6281 181.651 83.5004C181.442 83.3728 181.273 83.1895 181.161 82.9707C181.048 82.752 180.999 82.5063 181.016 82.2607C181.034 82.0151 181.118 81.7792 181.261 81.579C191.463 67.0631 188.222 48.5664 181.409 41.6975C181.285 41.5734 181.187 41.4259 181.121 41.2636C181.054 41.1013 181.019 40.9273 181.019 40.7515C181.019 40.5757 181.053 40.4016 181.119 40.2391C181.186 40.0766 181.283 39.9289 181.406 39.8044C181.53 39.68 181.676 39.5812 181.837 39.5137C181.998 39.4462 182.17 39.4114 182.345 39.4111C182.519 39.4109 182.692 39.4453 182.853 39.5124C183.014 39.5794 183.161 39.6778 183.284 39.802C187.406 43.9572 190.063 51.1005 190.4 58.9172C190.79 67.542 188.341 76.0551 183.433 83.1304C183.309 83.305 183.146 83.4472 182.956 83.5453C182.767 83.6433 182.557 83.6944 182.344 83.6941Z" fill="#CC8952"/>
<path d="M177.144 110.601C176.854 110.598 176.573 110.499 176.343 110.32C176.114 110.141 175.949 109.891 175.873 109.609C175.798 109.326 175.816 109.027 175.924 108.755C176.033 108.484 176.227 108.256 176.476 108.106C186.427 102.285 195.833 84.5317 195.833 71.5721C195.822 71.3893 195.848 71.2062 195.91 71.034C195.972 70.8618 196.068 70.7042 196.192 70.5708C196.316 70.4375 196.467 70.3312 196.633 70.2586C196.8 70.1859 196.98 70.1484 197.161 70.1484C197.343 70.1484 197.523 70.1859 197.689 70.2586C197.856 70.3312 198.006 70.4375 198.131 70.5708C198.255 70.7042 198.351 70.8618 198.413 71.034C198.475 71.2062 198.501 71.3893 198.49 71.5721C198.49 85.3248 188.441 104.206 177.807 110.421C177.606 110.54 177.377 110.602 177.144 110.601Z" fill="#CC8952"/>
<path d="M1.83106 121.186H1.69746C1.34615 121.15 1.02301 120.976 0.798635 120.701C0.574264 120.427 0.466912 120.073 0.500038 119.719C2.47925 99.8805 13.637 89.1157 23.449 85.6588C23.6165 85.5881 23.7965 85.5527 23.9781 85.5548C24.1597 85.5568 24.339 85.5963 24.5048 85.6708C24.6707 85.7453 24.8197 85.8533 24.9426 85.988C25.0656 86.1228 25.1599 86.2814 25.2198 86.4543C25.2796 86.6271 25.3038 86.8105 25.2907 86.9931C25.2776 87.1757 25.2276 87.3536 25.1438 87.516C25.06 87.6784 24.9441 87.8218 24.8032 87.9374C24.6623 88.0529 24.4995 88.1382 24.3248 88.1879C15.2847 91.3754 4.978 101.397 3.15218 119.978C3.11912 120.309 2.96576 120.615 2.72175 120.838C2.47773 121.061 2.16039 121.185 1.83106 121.186Z" fill="#CC8952"/>
<path d="M7.14552 90.6826C6.89748 90.6827 6.65438 90.6128 6.44363 90.4809C6.23289 90.3491 6.06287 90.1605 5.95277 89.9364C5.84267 89.7124 5.79687 89.4617 5.82052 89.2128C5.84417 88.9639 5.93635 88.7266 6.08664 88.5277C6.42311 88.0837 14.5428 77.5285 30.2429 74.2462C30.4178 74.1993 30.6004 74.1889 30.7794 74.2156C30.9585 74.2423 31.1302 74.3055 31.2842 74.4014C31.4382 74.4973 31.5712 74.6239 31.675 74.7734C31.7788 74.9228 31.8513 75.0921 31.888 75.2707C31.9247 75.4494 31.9249 75.6338 31.8886 75.8125C31.8522 75.9913 31.7801 76.1607 31.6766 76.3104C31.5731 76.4601 31.4404 76.5869 31.2866 76.6831C31.1328 76.7793 30.9612 76.8429 30.7822 76.87C16.047 79.9478 8.27861 90.0491 8.20439 90.1539C8.07994 90.318 7.91971 90.451 7.7361 90.5427C7.55249 90.6344 7.35042 90.6823 7.14552 90.6826Z" fill="#CC8952"/>
<path d="M35.0363 133.39C45.7902 131.638 53.3904 123.246 52.0118 114.647C50.6332 106.047 40.7979 100.496 30.044 102.248C19.29 104 11.6898 112.392 13.0684 120.992C14.447 129.591 24.2824 135.142 35.0363 133.39Z" fill="#B3671B"/>
<path d="M34.0478 129.925C32.9488 130.098 31.8397 130.198 30.7277 130.224C29.1864 130.267 27.6448 130.153 26.126 129.885C24.8822 129.661 23.6603 129.327 22.4744 128.887C18.7287 127.511 15.6659 125.136 13.8401 122.078C12.997 120.669 12.4309 119.109 12.1726 117.484C10.891 109.243 17.8974 101.157 28.031 99.0624C28.3971 98.9825 28.7682 98.9127 29.1443 98.8528C32.9204 98.2182 36.7935 98.5317 40.4208 99.7657C41.574 100.163 42.6859 100.672 43.741 101.287C44.9304 101.967 46.0294 102.797 47.0116 103.756C49.1241 105.751 50.5272 108.391 51.0047 111.269C52.3753 119.854 44.7751 128.199 34.0478 129.925Z" fill="#FFCF40"/>
<path d="M40.4206 99.7657L22.4741 128.902C18.7285 127.526 15.6657 125.151 13.8398 122.093L28.0308 99.0624C28.3969 98.9825 28.768 98.9127 29.1441 98.8528C32.9202 98.2182 36.7933 98.5317 40.4206 99.7657Z" fill="#FFEC73"/>
<path d="M47.0116 103.757L30.7276 130.225C29.1864 130.268 27.6447 130.154 26.126 129.886L43.7409 101.288C44.9304 101.968 46.0294 102.798 47.0116 103.757Z" fill="#FFEC73"/>
<path d="M41.153 121.006L40.0843 120.881L34.6959 114.117C34.2011 113.499 34.7553 112.661 35.6855 112.621L47.6448 111.962C48.8274 111.898 49.3074 109.713 48.5009 109.094L47.343 109.478L41.3213 104.879L40.5148 104.255C40.333 104.143 40.1288 104.071 39.9167 104.047C39.7046 104.023 39.4898 104.047 39.2876 104.116L25.8389 108.196L24.7058 107.493C24.1417 107.662 24.1071 109.314 24.3248 109.688L26.8236 113.963C26.905 114.126 26.9322 114.311 26.901 114.49C26.8698 114.67 26.7819 114.835 26.6504 114.96H26.5663L15.4926 114.746C15.3095 114.746 15.1908 116.397 15.3145 116.472C15.2897 116.547 15.3145 116.621 15.3838 116.646L39.6291 124.129C41.0442 124.598 42.0239 122.099 41.153 121.006Z" fill="#B3671B"/>
<path d="M47.645 110.407L39.8914 110.831L36.8781 110.995L35.6856 111.06C34.7603 111.11 34.2012 111.948 34.696 112.556L35.3887 113.429L37.0413 115.5L40.0844 119.331L41.1532 120.667C42.024 121.76 41.0393 123.047 39.6687 122.613L33.8301 120.807L31.3858 120.054L28.0557 119.021L21.2819 116.926L15.3938 115.106C15.3195 115.081 15.3047 115.011 15.3245 114.931C15.2008 114.861 15.3245 114.602 15.4977 114.582L23.2067 113.774L26.5763 113.419H26.6604C26.7919 113.294 26.8798 113.129 26.911 112.95C26.9422 112.77 26.915 112.585 26.8336 112.422L25.463 110.077L24.3348 108.152C24.1171 107.773 24.9434 106.925 25.5075 106.75L25.8489 106.655L27.932 106.022L37.7885 103.029L39.2729 102.57C39.475 102.501 39.6898 102.477 39.9019 102.501C40.1141 102.526 40.3183 102.597 40.5 102.71L41.3016 103.328L41.4698 103.453L43.449 104.949L47.3233 107.907L48.496 108.805C49.3025 109.419 48.8226 110.337 47.645 110.407Z" fill="#FAC64B"/>
<path d="M37.778 103.019L28.0353 119.021L21.2812 116.926L23.206 113.773L26.5756 113.419H26.6597C26.7912 113.294 26.8791 113.129 26.9103 112.949C26.9415 112.77 26.9144 112.584 26.8329 112.422L25.4623 110.077L27.9363 106.022L37.778 103.019Z" fill="#FFEA80"/>
<path d="M37.0366 115.51L33.8105 120.807L31.3662 120.054L35.3939 113.439L37.0366 115.51Z" fill="#FFEA80"/>
<path d="M43.4637 104.964L39.8913 110.83L36.8779 110.995L41.4845 103.442L43.4637 104.964Z" fill="#FFEA80"/>
</svg>
