<svg width="207" height="192" viewBox="0 0 207 192" fill="none" xmlns="http://www.w3.org/2000/svg">
<path d="M138.56 85.1325L135.644 86.0063L115.395 94.1689C115.166 94.2596 114.966 94.409 114.813 94.602C114.612 94.8549 114.503 95.1684 114.503 95.4913V96.6242C114.504 97.195 114.317 97.7501 113.971 98.2048C113.625 98.6594 113.139 98.9884 112.588 99.1414L111.619 99.416L105.063 101.249C104.513 101.403 103.927 101.361 103.406 101.129C102.885 100.897 102.461 100.491 102.209 99.9805L101.271 98.0742L100.798 97.1153L99.635 94.7296L99.1658 93.7706L98.3711 92.1582C98.2135 91.84 98.1278 91.4912 98.1198 91.1364C98.1117 90.7816 98.1817 90.4294 98.3246 90.1044C98.4676 89.7794 98.6802 89.4896 98.9474 89.2552C99.2146 89.0209 99.53 88.8477 99.8715 88.7478L101.271 88.3302C101.395 88.2939 101.508 88.2302 101.604 88.1438C101.699 88.0574 101.774 87.9506 101.822 87.8314C101.868 87.7267 101.892 87.6134 101.891 87.4989V87.3867C101.891 87.2072 101.928 87.0295 102 86.8647C102.078 86.6707 102.2 86.4973 102.357 86.3582C102.611 86.1334 102.939 86.0096 103.279 86.0102L106.032 85.1209C106.719 84.9015 107.459 84.9151 108.137 85.1595L111.754 86.4471C111.892 86.4943 112.036 86.5229 112.181 86.5322C112.561 86.559 112.938 86.4492 113.243 86.2229L113.344 86.1494L130.655 73.2656H136.195L138.56 85.1325Z" fill="#FFD2A6"/>
<path d="M125.378 167.346L124.219 180.156L133.5 181.614L135.481 169.731L125.378 167.346Z" fill="#E6A48A"/>
<path d="M182.603 168.057L189.023 175.38L198.219 173.753L196.032 168.103L191.237 162.075L185.13 163.49L182.603 168.057Z" fill="#E6A48A"/>
<path d="M152.661 3.22789L158.864 2.33469C160.475 2.09879 162.118 2.4238 163.516 3.25496C165.493 4.44586 167.208 6.02435 168.556 7.89498C169.12 8.66673 169.522 9.54366 169.74 10.4736C169.957 11.4036 169.984 12.3676 169.82 13.3083L168.312 21.989L146.38 7.95298L152.661 3.22789Z" fill="#E6B973"/>
<path d="M172.576 31.3769C176.202 27.3859 171.784 17.5015 162.708 9.29948C153.632 1.0975 143.335 -2.31613 139.709 1.67493C136.083 5.66598 140.501 15.5504 149.577 23.7524C158.653 31.9543 168.95 35.368 172.576 31.3769Z" fill="#FFCD80"/>
<path d="M171.735 32.2177C175.361 28.2267 170.943 18.3423 161.867 10.1403C152.791 1.93832 142.494 -1.47531 138.868 2.51575C135.242 6.5068 139.66 16.3912 148.736 24.5932C157.812 32.7952 168.109 36.2088 171.735 32.2177Z" fill="#B38659"/>
<path d="M152.885 123.141L142.588 147.358L135.904 172.689C135.778 173.164 135.488 173.58 135.085 173.862C134.682 174.145 134.193 174.278 133.702 174.236C131.674 174.066 128.332 173.509 125.909 171.726C125.623 171.51 125.399 171.224 125.258 170.895C125.118 170.566 125.065 170.206 125.106 169.851L128.724 136.369L134.151 104.013L142.596 98.5996L157.347 115.795L152.885 123.141Z" fill="#52A2CC"/>
<path d="M175.24 102.513L178.729 136.308C178.817 137.151 179.103 137.961 179.563 138.674C184.672 146.659 189.168 155.018 193.012 163.68C193.242 164.199 193.303 164.776 193.186 165.331C193.069 165.886 192.78 166.391 192.361 166.773C191.167 167.829 188.871 169.093 184.583 169.697C184.143 169.759 183.695 169.712 183.277 169.561C182.859 169.41 182.485 169.159 182.187 168.83L161.585 146.16C161.343 145.893 161.155 145.582 161.031 145.244L146.984 107.107L156.495 100.723L175.24 102.513Z" fill="#5CB7E6"/>
<path d="M165.873 43.4612L153.343 52.0684L144.542 49.586L145.147 46.4656L147.182 44.4317C147.57 43.6893 149.074 41.7251 149.074 41.7251V37.1624L150.497 33.0134L162.128 27.0742L161.915 31.2928L161.636 36.9111C161.636 36.9111 160.895 41.5201 165.873 43.4612Z" fill="#FFD2A6"/>
<path d="M162.14 27.0664L161.926 31.285C161.926 31.285 152.897 40.2131 149.074 40.2131V37.1623L150.497 33.0134L162.14 27.0664Z" fill="#E6A48A"/>
<path d="M183.129 64.4383C180.912 66.797 175.635 71.785 168.784 73.9735C168.784 73.9735 170.595 79.0002 172.328 85.8056C172.855 87.8936 173.379 90.1595 173.84 92.4949C174.671 96.526 175.189 100.615 175.391 104.725C175.391 104.725 167.738 113.766 134.144 104.014L135.888 83.037L136.098 80.5237C136.098 80.5237 136.07 80.4541 136.012 80.3226C134.683 77.3969 132.662 74.8362 130.123 72.8599C129.74 72.5703 129.471 72.1557 129.364 71.6886C129.256 71.2214 129.316 70.7314 129.534 70.304L139.92 49.424L142.498 47.3321L147.182 43.5273C147.226 43.489 147.283 43.468 147.342 43.4681C147.401 43.4683 147.458 43.4896 147.502 43.5281C147.546 43.5667 147.575 43.6199 147.583 43.678C147.591 43.7361 147.578 43.7952 147.546 43.8443C145.643 46.7637 145.267 50.1973 148.985 48.871C152.703 47.5448 159.235 42.7617 161.562 41.0062C161.802 40.8242 162.098 40.7312 162.399 40.7432C162.701 40.7552 162.988 40.8714 163.213 41.0719C166.478 43.9565 178.775 54.992 183.339 61.6504C183.629 62.0689 183.766 62.5739 183.728 63.0813C183.69 63.5886 183.479 64.0676 183.129 64.4383Z" fill="#F28561"/>
<path d="M161.946 59.0627C161.93 58.9396 161.871 58.8258 161.78 58.7409C161.689 58.656 161.572 58.6051 161.447 58.5969C161.323 58.5887 161.2 58.6237 161.098 58.6959C160.997 58.7682 160.924 58.8732 160.891 58.9931C159.836 63.0375 159.417 67.2209 159.651 71.3936C160.097 80.3449 160.62 79.0148 160.62 79.0148L169.429 78.1371L168.293 75.0128L166.494 74.9007C166.494 74.9007 163.357 68.8261 161.946 59.0627Z" fill="#CC7052"/>
<path d="M142.498 47.3203C137.912 51.8907 136.408 72.7824 136.012 80.3186C134.683 77.3928 132.662 74.8321 130.123 72.8559C129.74 72.5662 129.471 72.1517 129.364 71.6845C129.256 71.2174 129.316 70.7274 129.534 70.3L139.92 49.4199L142.498 47.3203Z" fill="#CC7052"/>
<path d="M137.967 63.9933L139.684 60.7066C139.811 60.4668 139.988 60.2572 140.203 60.0923C140.419 59.9274 140.668 59.8111 140.933 59.7515C143.966 59.0595 147.116 59.0516 150.152 59.7283L150.234 59.7477C150.507 59.8093 150.763 59.9308 150.984 60.1033C151.204 60.2759 151.384 60.4951 151.509 60.7453L153.122 63.9778L147.376 68.0997L141.235 67.7594L137.967 63.9933Z" fill="#4D4D4D"/>
<path d="M140.32 73.7063L137.967 63.9932L139.556 64.3798C143.496 65.3233 147.604 65.3233 151.544 64.3798L153.134 63.9932L151.121 75.2065L145.55 77.6889L140.32 73.7063Z" fill="white"/>
<path d="M173.833 92.4941L147.88 89.2113C147.161 89.1197 146.475 88.8554 145.881 88.4413C145.287 88.0271 144.802 87.4753 144.469 86.8333L142.499 83.0362L145.55 81.2305L172.321 85.8048C172.848 87.8928 173.371 90.1586 173.833 92.4941Z" fill="#BF694D"/>
<path d="M183.881 83.0364C183.881 83.5275 183.881 83.9644 183.881 84.3472C183.867 84.8609 183.747 85.366 183.529 85.8316C183.311 86.2971 182.999 86.7131 182.614 87.0539L180.857 88.6006C180.131 89.2373 179.187 89.571 178.221 89.5324C169.816 89.1806 151.443 86.3038 144.844 85.2366C144.116 85.119 143.435 84.8045 142.874 84.3272C142.314 83.8499 141.895 83.2282 141.665 82.5299L141.421 81.7952L140.944 80.3375L140.242 78.1799L139.757 76.7144L139.525 75.9913C139.422 75.679 139.399 75.3458 139.458 75.0223C139.517 74.6988 139.657 74.3953 139.865 74.1398C140.073 73.8842 140.341 73.6848 140.646 73.5597C140.951 73.4346 141.283 73.3879 141.611 73.4239L149.225 74.2397C149.588 74.2788 149.952 74.1873 150.253 73.9816C150.554 73.776 150.771 73.4698 150.865 73.1184L151.152 72.0473C151.192 71.8914 151.264 71.7454 151.363 71.6187C151.463 71.492 151.587 71.3874 151.73 71.3114C151.872 71.2354 152.028 71.1897 152.189 71.1773C152.35 71.1648 152.512 71.1859 152.664 71.2392L153.377 71.4828C153.644 71.5715 153.882 71.731 154.065 71.9442C154.248 72.1574 154.37 72.4163 154.416 72.693L154.804 75.0788C154.852 75.3674 154.997 75.6314 155.214 75.8279C155.432 76.0244 155.709 76.1419 156.002 76.1615L169.071 77.0663L168.013 74.2668C173.441 73.1455 178.38 69.0468 180.826 66.7461C182.826 71.9468 183.861 77.4666 183.881 83.0364Z" fill="#FFD2A6"/>
<path d="M183.881 83.0364L180.252 79.7227C178.378 78.014 175.93 77.0664 173.39 77.0663H169.071L168.013 74.2668C173.44 73.1455 178.38 69.0468 180.826 66.7461C182.826 71.9468 183.861 77.4666 183.881 83.0364Z" fill="#E6A48A"/>
<path d="M181.575 66C180.024 67.5467 173.821 75.9142 166.493 74.8934L166.939 71.8001L181.249 64.001L181.575 66Z" fill="#F28561"/>
<path d="M197.687 168.2C198.568 169.156 199.572 170.582 200.514 171.576C199.878 172.032 199.207 172.295 198.73 172.964C196.168 176.564 196.749 180.145 199.242 183.648C199.242 183.667 199.285 183.698 199.3 183.717C191.019 191.122 186.119 189.297 176.038 190.128C176.01 189.871 176.02 189.61 176.069 189.355C176.213 188.744 176.275 187.909 176.434 187.31C176.655 186.494 176.822 186.057 177.597 185.55C178.791 184.677 180.12 184.003 181.532 183.555C183.184 183.056 185.428 182.349 186.502 180.678C186.577 180.598 186.63 180.499 186.654 180.391C186.679 180.284 186.674 180.172 186.642 180.067C186.34 178.254 185.867 176.398 185.96 174.526C185.969 174.218 186.046 173.915 186.186 173.639C186.325 173.363 186.523 173.121 186.766 172.929C186.981 172.743 187.238 172.611 187.514 172.543C188.056 172.378 188.638 172.411 189.158 172.636C189.515 172.775 190.073 173.084 190.426 173.196C191.876 173.652 192.903 173.111 193.101 171.564C193.151 171.178 193.101 170.578 193.148 170.13C193.18 169.672 193.352 169.235 193.64 168.877C193.807 168.645 193.987 168.423 194.179 168.212C195.28 167.187 196.536 166.948 197.687 168.2Z" fill="white"/>
<path d="M200.514 171.58C200.836 171.967 201.161 172.33 201.475 172.694C201.569 172.798 201.603 172.833 201.704 172.93C203.073 174.225 204.449 175.567 205.736 176.928C205.825 177.017 205.934 177.009 205.946 177.121C206.12 178.645 207.287 178.668 205.601 180.404C195.962 190.384 192.644 191.656 178.481 191.973C175.961 192.031 177.089 191.25 175.973 190.125C186.185 189.289 190.984 191.118 199.304 183.714C199.282 183.693 199.261 183.669 199.242 183.644C196.749 180.141 196.168 176.56 198.731 172.96C199.207 172.292 199.874 172.021 200.514 171.58Z" fill="#4D4D4D"/>
<path d="M135.462 178.188L134.88 182.623C134.159 182.399 133.407 182.286 132.651 182.287C131.659 182.286 130.676 182.481 129.76 182.859C128.843 183.238 128.01 183.792 127.308 184.492C126.607 185.191 126.05 186.022 125.67 186.936C125.29 187.85 125.095 188.83 125.095 189.819V189.908H102.911C102.884 189.65 102.898 189.389 102.953 189.135L103.411 187.105C103.488 186.761 103.643 186.44 103.864 186.166C104.085 185.892 104.366 185.672 104.686 185.523L108.881 183.571L116.391 180.091C116.669 179.962 116.918 179.779 117.124 179.553L121.699 174.527C121.955 174.252 122.274 174.043 122.629 173.918C122.984 173.793 123.364 173.756 123.737 173.81C124.109 173.864 124.463 174.008 124.768 174.228C125.073 174.448 125.319 174.739 125.486 175.076L126.114 176.379C126.269 176.69 126.492 176.963 126.767 177.177C127.042 177.391 127.361 177.541 127.702 177.615C128.043 177.689 128.396 177.686 128.735 177.606C129.074 177.526 129.391 177.371 129.662 177.152L130.825 176.189C131.19 175.893 131.636 175.713 132.104 175.675L132.988 175.605C133.329 175.581 133.672 175.633 133.991 175.756C134.31 175.879 134.597 176.071 134.834 176.317C135.07 176.564 135.248 176.859 135.357 177.183C135.466 177.506 135.501 177.85 135.462 178.188Z" fill="white"/>
<path d="M134.881 182.623L134.699 183.995C134.683 184.094 134.675 184.193 134.675 184.293V189.644C134.681 189.732 134.681 189.82 134.675 189.907C134.607 190.467 134.336 190.983 133.913 191.358C133.491 191.733 132.946 191.942 132.38 191.945H105.206C104.641 191.942 104.096 191.733 103.673 191.358C103.251 190.983 102.98 190.467 102.911 189.907H125.095V189.818C125.095 188.829 125.291 187.849 125.671 186.935C126.05 186.021 126.607 185.19 127.309 184.491C128.01 183.791 128.843 183.237 129.76 182.858C130.677 182.48 131.659 182.286 132.652 182.286C133.407 182.285 134.159 182.398 134.881 182.623Z" fill="#4D4D4D"/>
<path d="M162.139 16.8778V25.6281C162.139 26.3045 161.994 26.9731 161.713 27.5888C161.432 28.2045 161.022 28.7529 160.511 29.197L152.741 35.9598C152.096 36.5183 151.27 36.8258 150.415 36.826H148.988C148.629 36.8265 148.275 36.7361 147.961 36.563C147.644 36.3932 147.377 36.144 147.185 35.84C144.281 31.2967 142.667 26.053 142.514 20.6671C142.514 20.3694 142.514 20.0717 142.514 19.7739V15.1958L146.662 7.12988H150.116C150.163 7.19851 150.205 7.26949 150.244 7.34255C151.923 6.82441 152.854 7.40442 153.346 7.96122C153.884 7.94361 154.415 8.09215 154.866 8.38655L157.273 11.1899L158.549 12.6824L162.139 16.8778Z" fill="#FFD2A6"/>
<path d="M162.14 16.8778V21.8581C161.785 21.9433 161.469 22.1432 161.24 22.4265C161.182 22.491 161.106 22.537 161.022 22.5588C160.937 22.5807 160.848 22.5775 160.766 22.5495C160.684 22.5215 160.611 22.4701 160.558 22.4015C160.504 22.3329 160.472 22.2502 160.465 22.1635C160.411 21.6106 160.333 21.1002 160.248 20.6594C158.488 21.4327 153.719 20.9223 153.25 18.1229C153.25 18.1229 149.063 17.5119 149.644 14.697C149.508 14.679 149.379 14.6298 149.265 14.5533C149.151 14.4768 149.057 14.3751 148.989 14.2562C147.861 15.5902 146.523 17.4887 144.104 17.4887C143.555 17.4902 143.012 17.3796 142.507 17.1639V15.1958L146.663 7.12988H150.117C150.164 7.19851 150.206 7.26949 150.245 7.34255C151.924 6.82441 152.855 7.40442 153.347 7.96122C153.885 7.94361 154.416 8.09215 154.867 8.38655C155.02 8.48135 155.164 8.59009 155.297 8.71136C156.08 9.4311 156.747 10.2671 157.274 11.1899C157.57 11.697 157.812 12.2335 157.995 12.7907C158.178 12.7429 158.363 12.7067 158.55 12.6824L162.14 16.8778Z" fill="#E6A48A"/>
<path d="M164.408 20.9572C164.408 20.9572 164.055 20.644 162.675 20.2883C162.41 20.2326 162.134 20.2532 161.88 20.3476C161.626 20.4421 161.404 20.6066 161.24 20.8219C161.182 20.8864 161.106 20.9324 161.022 20.9543C160.937 20.9761 160.848 20.9729 160.766 20.9449C160.684 20.917 160.611 20.8655 160.558 20.7969C160.504 20.7283 160.472 20.6456 160.465 20.559C160.411 20.006 160.333 19.4956 160.248 19.0548C158.488 19.8282 153.719 19.3178 153.25 16.5183C153.25 16.5183 149.063 15.9074 149.644 13.0924C149.51 13.0765 149.381 13.0303 149.268 12.9573C149.154 12.8842 149.059 12.7863 148.989 12.6709C147.861 14.005 146.523 15.9035 144.104 15.9035C140.374 15.9035 138.025 10.8768 141.778 9.16774C142.608 8.79573 143.532 8.68772 144.426 8.8584C144.426 8.8584 142.914 6.37599 144.891 5.59879C146.868 4.82159 148.024 4.24932 147.004 3.22852C147.004 3.22852 149.222 3.87812 150.249 5.76119C151.928 5.23919 152.858 5.81919 153.351 6.37599C153.709 6.37087 154.065 6.43657 154.398 6.56931C154.73 6.70204 155.033 6.89917 155.289 7.14933C156.521 8.26027 157.454 9.66146 158.003 11.2248C158.003 11.2248 161.558 10.2233 162.566 13.4134C162.893 14.3229 162.968 15.3031 162.783 16.2515C164.04 17.3071 164.408 19.2984 164.408 20.9572Z" fill="#4D3B32"/>
<path d="M162.101 27.3988L164.814 26.1305C165.454 25.8289 165.995 25.3522 166.374 24.756C166.753 24.1598 166.954 23.4685 166.955 22.7627C166.955 21.8497 166.619 20.9684 166.011 20.2862C165.403 19.604 164.564 19.1684 163.655 19.0623H163.531C163.287 19.0338 163.04 19.0542 162.803 19.1221C162.567 19.19 162.347 19.3041 162.155 19.4577C161.963 19.6114 161.804 19.8016 161.687 20.0171C161.57 20.2327 161.497 20.4693 161.472 20.7133L160.887 26.5482C160.876 26.6967 160.904 26.8456 160.968 26.9802C161.032 27.1149 161.13 27.2307 161.252 27.3164C161.374 27.402 161.517 27.4547 161.665 27.4691C161.814 27.4836 161.964 27.4593 162.101 27.3988Z" fill="#E6A48A"/>
<path d="M152.482 23.6714C153.103 23.6714 153.606 23.1693 153.606 22.55C153.606 21.9308 153.103 21.4287 152.482 21.4287C151.861 21.4287 151.357 21.9308 151.357 22.55C151.357 23.1693 151.861 23.6714 152.482 23.6714Z" fill="#4D3B32"/>
<path d="M144.185 23.6714C144.806 23.6714 145.309 23.1693 145.309 22.55C145.309 21.9308 144.806 21.4287 144.185 21.4287C143.564 21.4287 143.061 21.9308 143.061 22.55C143.061 23.1693 143.564 23.6714 144.185 23.6714Z" fill="#4D3B32"/>
<path d="M155.607 21.4981C155.525 21.494 155.444 21.4709 155.372 21.4306C155.3 21.3904 155.239 21.3341 155.192 21.2661C153.94 19.5455 150.854 20.2995 150.823 20.3072C150.689 20.333 150.55 20.3067 150.435 20.2338C150.32 20.1609 150.237 20.0468 150.203 19.915C150.169 19.7831 150.188 19.6433 150.254 19.5243C150.32 19.4053 150.429 19.3161 150.559 19.2748C150.714 19.2361 154.382 18.3429 156.057 20.6436C156.138 20.7584 156.171 20.9005 156.149 21.0393C156.126 21.178 156.05 21.3025 155.937 21.386C155.842 21.458 155.726 21.4973 155.607 21.4981Z" fill="#4D3B32"/>
<path d="M146.868 19.9364C146.832 20.0726 146.744 20.1894 146.623 20.2617C146.502 20.334 146.357 20.356 146.22 20.3231C146.177 20.3231 143.944 19.7779 142.514 20.6711C142.514 20.3734 142.514 20.0756 142.514 19.7779V19.484C144.262 18.7493 146.391 19.2636 146.495 19.2946C146.629 19.3326 146.742 19.4207 146.811 19.5405C146.881 19.6602 146.901 19.8022 146.868 19.9364Z" fill="#4D3B32"/>
<path d="M149.551 33.2533C149.186 33.2971 148.817 33.2893 148.454 33.2301C148.385 33.2166 148.319 33.1898 148.261 33.151C148.202 33.1122 148.152 33.0623 148.113 33.0042C148.033 32.8867 148.004 32.7426 148.031 32.6037C148.059 32.4647 148.14 32.3423 148.258 32.2632C148.376 32.1842 148.52 32.155 148.66 32.1822C149.823 32.4065 152.199 31.6254 153.025 30.1367C153.056 30.0701 153.1 30.0105 153.155 29.9617C153.21 29.9128 153.274 29.8758 153.344 29.8529C153.414 29.83 153.488 29.8217 153.561 29.8285C153.634 29.8353 153.705 29.8571 153.77 29.8926C153.834 29.928 153.89 29.9763 153.935 30.0345C153.98 30.0926 154.012 30.1594 154.03 30.2306C154.048 30.3017 154.051 30.3758 154.039 30.4481C154.027 30.5205 154 30.5895 153.959 30.651C153.095 32.1938 151.083 33.0716 149.551 33.2533Z" fill="#E6A48A"/>
<path d="M147.217 23.5867L146.531 27.8014C146.512 27.9183 146.519 28.0377 146.551 28.1516C146.584 28.2654 146.64 28.371 146.717 28.461C146.794 28.551 146.89 28.6233 146.997 28.673C147.105 28.7227 147.222 28.7485 147.341 28.7487H149.089C149.214 28.749 149.337 28.7209 149.449 28.6664C149.562 28.6119 149.66 28.5326 149.737 28.4344C149.813 28.3363 149.866 28.222 149.892 28.1002C149.918 27.9784 149.915 27.8524 149.884 27.7318L148.818 23.5171C148.773 23.3406 148.671 23.184 148.527 23.072C148.383 22.9599 148.206 22.8989 148.023 22.8984C147.829 22.8988 147.641 22.9683 147.493 23.0944C147.345 23.2206 147.247 23.3951 147.217 23.5867Z" fill="#E6A48A"/>
<path d="M108.738 94.9695C108.427 95.4395 108.025 95.8423 107.555 96.1538C107.084 96.4654 106.556 96.6793 106.001 96.783L105.594 96.8448L105.431 96.4582L101.271 98.0667L100.798 97.1078L105.024 95.476L104.051 93.156L99.6234 94.7336L99.1543 93.7747L103.628 92.1816L101.802 87.8316C101.849 87.7269 101.872 87.6136 101.872 87.4991V87.3869C101.872 87.2074 101.909 87.0297 101.981 86.8649C102.059 86.6709 102.181 86.4975 102.337 86.3584L106.214 95.6384C106.876 95.4098 107.444 94.971 107.831 94.3895C108.444 93.4306 108.548 92.0695 108.141 90.3875C108.11 90.2527 108.133 90.1109 108.205 89.9929C108.278 89.8749 108.394 89.7902 108.529 89.7572C108.598 89.738 108.671 89.7328 108.742 89.742C108.813 89.7511 108.882 89.7744 108.944 89.8104C109.006 89.8465 109.06 89.8945 109.104 89.9518C109.147 90.0091 109.178 90.0744 109.196 90.1439C109.68 92.1352 109.525 93.7592 108.738 94.9695Z" fill="#E6A48A"/>
<path d="M146.57 77.836C146.551 78.0182 146.463 78.1863 146.324 78.3057C146.185 78.4251 146.005 78.4868 145.821 78.4779L140.227 78.1647L139.742 76.6992L145.903 77.0588C145.998 77.0646 146.092 77.0895 146.177 77.1321C146.263 77.1746 146.339 77.2339 146.401 77.3064C146.464 77.3789 146.511 77.4632 146.539 77.5542C146.568 77.6452 146.579 77.741 146.57 77.836Z" fill="#E6A48A"/>
<path d="M146.984 81.4976C146.977 81.5915 146.951 81.683 146.908 81.7668C146.865 81.8506 146.806 81.9251 146.734 81.9859C146.662 82.0467 146.578 82.0926 146.488 82.1209C146.398 82.1493 146.303 82.1595 146.209 82.151L141.394 81.7644L140.917 80.3066L146.318 80.7242C146.413 80.7295 146.506 80.754 146.592 80.7961C146.678 80.8382 146.754 80.8972 146.816 80.9694C146.878 81.0416 146.925 81.1256 146.954 81.2163C146.983 81.3071 146.993 81.4028 146.984 81.4976Z" fill="#E6A48A"/>
<path d="M110.045 93.0436C109.989 92.9687 109.919 92.9054 109.839 92.8574C109.759 92.8094 109.671 92.7775 109.578 92.7637C109.486 92.7499 109.392 92.7543 109.301 92.7768C109.211 92.7993 109.125 92.8393 109.05 92.8947C108.975 92.95 108.912 93.0196 108.864 93.0994C108.815 93.1792 108.783 93.2677 108.77 93.3598C108.756 93.4519 108.76 93.5458 108.783 93.6362C108.805 93.7265 108.845 93.8116 108.901 93.8865C111.495 97.3665 113.166 100.073 112.169 104.98C112.15 105.075 112.15 105.173 112.171 105.268C112.192 105.363 112.232 105.453 112.289 105.531C112.346 105.61 112.419 105.676 112.504 105.725C112.588 105.773 112.681 105.804 112.778 105.815C112.954 105.835 113.131 105.789 113.275 105.685C113.418 105.581 113.518 105.428 113.553 105.255C114.627 99.8721 112.813 96.7633 110.045 93.0436Z" fill="#4A4A4A"/>
<path d="M38.3668 176.738C39.3089 179.978 43.9303 187.116 50.6879 187.116C55.3984 187.116 52.6264 181.83 50.4204 181.83C48.2144 181.83 43.6861 175.458 44.477 170.184H37.8008L38.3668 176.738Z" fill="#CC9966"/>
<path d="M61.442 170.184L64.5629 177.635C64.7547 178.092 64.8433 178.585 64.8226 179.079C64.8018 179.574 64.6721 180.058 64.4427 180.497L62.1165 184.97C61.9016 185.382 61.6047 185.745 61.244 186.037C60.8833 186.33 60.4665 186.546 60.0191 186.672L58.445 187.109C58.1812 187.18 57.9349 187.304 57.7214 187.474C57.5079 187.644 57.3319 187.856 57.2042 188.097C57.0765 188.338 57 188.602 56.9793 188.874C56.9587 189.146 56.9944 189.419 57.0842 189.676C57.4293 190.616 58.321 191.505 60.4572 191.505C64.9933 191.505 66.9473 191.238 67.3931 188.934C67.839 186.629 71.4834 177.867 71.4834 177.867L65.5283 169.786L62.3298 168.723L61.442 170.184Z" fill="#CC9966"/>
<path d="M78.0009 150.893C84.5026 156.306 92.6792 161.162 104.845 156.352C105.005 156.287 105.182 156.275 105.35 156.318C105.518 156.36 105.667 156.456 105.776 156.59C105.885 156.724 105.948 156.889 105.956 157.062C105.963 157.234 105.915 157.404 105.818 157.547C103.457 161.07 96.7151 167.214 80.203 160.961C80.0874 160.916 79.9829 160.846 79.8967 160.756L75.2792 155.826C75.1725 155.712 75.1013 155.57 75.0745 155.416C75.0476 155.262 75.0662 155.104 75.128 154.96L76.7447 151.186C76.795 151.072 76.8712 150.971 76.9675 150.891C77.0637 150.811 77.1773 150.755 77.2991 150.726C77.421 150.698 77.5479 150.698 77.6697 150.727C77.7915 150.756 77.9049 150.812 78.0009 150.893Z" fill="#CC9966"/>
<path d="M27.4029 122.96C26.0905 120.813 24.3658 118.946 22.3279 117.465C22.2215 117.385 22.0937 117.339 21.9607 117.332C21.8278 117.325 21.6958 117.357 21.5815 117.425C21.4671 117.493 21.3757 117.594 21.3187 117.714C21.2618 117.834 21.2419 117.968 21.2617 118.099C21.5602 120.183 21.9014 123.965 21.002 126.734L27.4029 122.96Z" fill="#CC9966"/>
<path d="M91.9354 188.237C89.458 188.821 83.7937 182.804 81.3435 180.063C80.9867 179.66 80.531 179.357 80.0211 179.184C79.5113 179.01 78.9649 178.972 78.4357 179.073L73.7756 179.966C73.1927 180.078 72.5905 180.032 72.0319 179.832C71.4733 179.632 70.9789 179.285 70.6003 178.83L64.5639 171.579C64.5639 171.579 64.5639 170.582 52.6538 168.73C40.7436 166.878 37.0101 180.512 35.2344 182.286C33.4588 184.061 35.2344 192.746 26.8795 191.953C21.2579 191.4 21.6611 188.755 22.5295 187.069C22.9628 186.271 23.6295 185.624 24.4409 185.213C29.481 182.557 30.9814 176.977 31.3962 173.049C31.5505 171.612 31.2909 170.16 30.648 168.865C30.181 167.908 29.5211 167.058 28.7095 166.367L25.1736 163.351C24.3151 162.622 23.6257 161.715 23.1531 160.693C22.6805 159.672 22.436 158.56 22.4365 157.435V148.217C22.4361 147.647 22.2197 147.099 21.8307 146.681C21.4417 146.264 20.9088 146.009 20.339 145.967L10.6466 145.259C9.09499 145.147 7.61356 144.57 6.3961 143.604C5.17864 142.638 4.28185 141.328 3.82306 139.846L1.77601 133.272C1.65884 132.894 1.63239 132.493 1.69881 132.103C1.76523 131.713 1.92266 131.343 2.15841 131.025C2.39416 130.706 2.70164 130.447 3.0561 130.269C3.41056 130.09 3.80208 129.997 4.19913 129.997H12.1819C13.0404 129.997 13.8865 129.792 14.6494 129.399C15.4122 129.007 16.0697 128.437 16.5667 127.739L17.4739 126.463C17.9121 125.846 18.4762 125.329 19.129 124.945C19.7818 124.562 20.5086 124.32 21.2618 124.236L24.313 123.899C24.6391 123.863 24.9547 123.761 25.2415 123.602C25.5283 123.443 25.7807 123.229 25.9839 122.971C27.3285 121.113 28.5299 119.156 29.5779 117.117C29.6711 116.941 29.813 116.796 29.9866 116.698C30.1602 116.6 30.3583 116.554 30.5574 116.565C30.7565 116.576 30.9483 116.644 31.1101 116.76C31.2718 116.877 31.3967 117.037 31.4699 117.222C32.9509 121.061 33.4549 128.567 33.4549 128.567C33.4549 128.567 34.1101 135.221 36.6534 139.463C37.0497 140.141 37.5276 140.768 38.0763 141.33C38.5027 141.752 38.9331 142.181 39.3712 142.606C41.6974 144.814 44.2911 146.879 48.1913 147.382C50.4638 147.628 52.7624 147.441 54.9644 146.829C57.1162 146.28 59.14 145.824 61.0552 145.53C67.2157 144.586 72.2985 145.329 77.1835 150.197C82.4252 155.421 79.3197 166.313 78.0286 170.087C77.9807 170.225 77.9692 170.374 77.9952 170.518C78.0213 170.662 78.084 170.797 78.1774 170.91C78.2709 171.023 78.3918 171.11 78.5287 171.163C78.6656 171.216 78.8138 171.233 78.9591 171.212L81.5761 170.825C82.03 170.763 82.492 170.794 82.933 170.918C83.5769 171.1 84.152 171.469 84.5846 171.978C86.4689 174.236 90.1442 178.578 91.9509 180.38C94.4206 182.893 95.1339 187.487 91.9354 188.237Z" fill="#FFD580"/>
<path d="M3.8187 133.474C5.65157 133.474 7.13741 132.627 7.13741 131.583C7.13741 130.539 5.65157 129.692 3.8187 129.692C1.98583 129.692 0.5 130.539 0.5 131.583C0.5 132.627 1.98583 133.474 3.8187 133.474Z" fill="#664C3E"/>
<path d="M24.6925 130.484C22.8354 129.131 20.6372 128.551 17.9776 128.717C17.7893 128.73 17.6137 128.817 17.4889 128.958C17.3641 129.099 17.3001 129.283 17.3107 129.471C17.3161 129.564 17.3399 129.655 17.3808 129.738C17.4216 129.822 17.4786 129.897 17.5486 129.958C17.6185 130.02 17.6999 130.067 17.7882 130.097C17.8765 130.127 17.9698 130.139 18.0628 130.132C18.5122 130.107 18.9627 130.107 19.412 130.132C19.2497 130.361 19.1402 130.622 19.0915 130.898C19.0427 131.173 19.0559 131.456 19.1301 131.726C19.2043 131.996 19.3376 132.246 19.5204 132.458C19.7033 132.671 19.9311 132.84 20.1874 132.954C20.4437 133.067 20.7222 133.123 21.0027 133.116C21.2832 133.11 21.5588 133.041 21.8095 132.916C22.0603 132.79 22.2799 132.611 22.4526 132.39C22.6253 132.169 22.7468 131.913 22.8083 131.64C22.8506 131.433 22.8584 131.22 22.8315 131.01C23.1879 131.19 23.5301 131.397 23.8551 131.629C24.0093 131.74 24.2013 131.785 24.3889 131.754C24.5765 131.724 24.7443 131.62 24.8553 131.466C24.9664 131.313 25.0116 131.121 24.9811 130.934C24.9505 130.747 24.8467 130.58 24.6925 130.469V130.484Z" fill="#664C3E"/>
<path d="M39.359 142.607C35.3929 148.867 27.5342 150.761 22.436 150.761V148.217C22.4369 147.724 22.2747 147.244 21.9746 146.852C26.2393 146.984 33.7258 145.41 36.6529 139.463C37.0492 140.141 37.527 140.768 38.0758 141.331C38.4945 141.752 38.9209 142.181 39.359 142.607Z" fill="#6B9BB3"/>
<path d="M38.0637 142.042C37.8858 142.036 37.7169 141.963 37.5902 141.838C37.4635 141.713 37.3881 141.546 37.3789 141.368C37.3697 141.191 37.4272 141.017 37.5403 140.88C37.6534 140.742 37.8138 140.652 37.9901 140.627C62.6555 138.013 71.2585 119.813 78.1712 105.189C84.0254 92.8158 89.081 82.1089 102.123 86.8301C102.301 86.8942 102.445 87.026 102.525 87.1964C102.605 87.3668 102.614 87.5619 102.55 87.7388C102.485 87.9157 102.353 88.0599 102.182 88.1397C102.012 88.2194 101.816 88.2282 101.639 88.1641C89.8138 83.8799 85.4716 93.071 79.4583 105.792C72.3945 120.741 63.6014 139.34 38.1413 142.039L38.0637 142.042Z" fill="#4A4A4A"/>
<path d="M61.0426 145.53C60.9409 147.043 60.3216 148.476 59.2884 149.588C58.2552 150.701 56.8705 151.426 55.3657 151.643C53.8609 151.859 52.3271 151.555 51.0204 150.779C49.7138 150.004 48.7134 148.805 48.1865 147.382C50.4589 147.629 52.7576 147.441 54.9596 146.829C57.1036 146.28 59.1274 145.824 61.0426 145.53Z" fill="#664C3E"/>
<path d="M33.2291 162.548C33.2316 164.906 32.3042 167.171 30.647 168.854C30.18 167.897 29.5201 167.047 28.7085 166.356L25.1727 163.34C24.3142 162.611 23.6248 161.704 23.1522 160.682C22.6796 159.661 22.4351 158.549 22.4355 157.424V153.716C23.0201 153.599 23.615 153.541 24.2112 153.542C26.6043 153.544 28.8986 154.494 30.5897 156.183C32.2807 157.871 33.2301 160.161 33.2291 162.548Z" fill="#664C3E"/>
</svg>
