<svg width="241" height="200" viewBox="0 0 241 200" fill="none" xmlns="http://www.w3.org/2000/svg">
<g clip-path="url(#clip0_1601_19776)">
<path d="M110.64 21.2935H55.533C49.9946 21.2935 44.683 23.5128 40.7668 27.4633C36.8505 31.4138 34.6504 36.7717 34.6504 42.3586V173.958C34.6516 179.544 36.8523 184.901 40.7684 188.85C44.6845 192.8 49.9953 195.018 55.533 195.018H110.636C116.174 195.018 121.484 192.8 125.401 188.85C129.317 184.901 131.517 179.544 131.518 173.958V42.3586C131.518 36.7725 129.319 31.4152 125.404 27.4649C121.488 23.5146 116.178 21.2947 110.64 21.2935ZM127.386 173.935C127.386 176.154 126.954 178.351 126.112 180.402C125.27 182.452 124.037 184.315 122.481 185.884C120.926 187.453 119.079 188.697 117.047 189.546C115.014 190.395 112.836 190.832 110.636 190.831H55.533C53.3332 190.832 51.1548 190.395 49.1224 189.546C47.0899 188.697 45.2432 187.453 43.6877 185.884C42.1322 184.315 40.8984 182.452 40.0569 180.402C39.2154 178.351 38.7825 176.154 38.7831 173.935V42.3586C38.7831 37.8774 40.5478 33.5798 43.689 30.4111C46.8302 27.2424 51.0906 25.4623 55.533 25.4623H55.6607C56.3894 25.4629 57.1015 25.6819 57.7065 26.0916C58.3116 26.5012 58.7823 27.083 59.059 27.763L60.1857 30.5238C60.6347 31.6246 61.3978 32.566 62.378 33.2288C63.3582 33.8915 64.5114 34.2457 65.6914 34.2463H100.482C101.662 34.2484 102.816 33.8953 103.796 33.2322C104.776 32.569 105.537 31.626 105.983 30.5238L107.11 27.763C107.388 27.083 107.86 26.5014 108.465 26.0918C109.071 25.6823 109.784 25.4632 110.513 25.4623H110.64C115.082 25.4635 119.341 27.2442 122.481 30.4127C125.622 33.5813 127.386 37.8782 127.386 42.3586V173.935Z" fill="#6C7580"/>
<path d="M127.386 25.4669V157.066C127.386 159.285 126.954 161.483 126.112 163.533C125.271 165.583 124.037 167.446 122.481 169.015C120.926 170.584 119.079 171.829 117.047 172.678C115.014 173.526 112.836 173.963 110.636 173.963H55.533C53.3333 173.963 51.1549 173.526 49.1225 172.678C47.09 171.829 45.2433 170.584 43.6878 169.015C42.1323 167.446 40.8985 165.583 40.057 163.533C39.2154 161.483 38.7826 159.285 38.7832 157.066V25.4669C38.7832 20.9858 40.5479 16.6881 43.6891 13.5195C46.8303 10.3508 51.0907 8.57068 55.533 8.57068H55.6608C56.3895 8.57128 57.1016 8.79029 57.7066 9.19993C58.3117 9.60956 58.7824 10.1913 59.0591 10.8714L60.1858 13.6322C60.6348 14.733 61.3978 15.6744 62.3781 16.3371C63.3583 16.9999 64.5115 17.354 65.6915 17.3547H100.482C101.662 17.3568 102.816 17.0037 103.796 16.3405C104.776 15.6774 105.538 14.7344 105.983 13.6322L107.11 10.8714C107.388 10.1913 107.86 9.60974 108.465 9.2002C109.071 8.79067 109.784 8.57158 110.513 8.57068H110.641C115.082 8.5719 119.341 10.3526 122.482 13.5211C125.622 16.6896 127.386 20.9866 127.386 25.4669Z" fill="#6C7580"/>
<path d="M127.386 30.7217V171.593C127.386 181.587 119.891 189.685 110.636 189.685H55.5376C46.2823 189.685 38.7832 181.587 38.7832 171.593V30.7217C38.7832 20.7321 46.2823 12.6337 55.533 12.6337H55.6608C56.4074 12.6472 57.1324 12.8895 57.7393 13.3283C58.3463 13.7672 58.8066 14.3819 59.0591 15.0908L60.1903 18.0587C60.6007 19.2044 61.3466 20.1972 62.329 20.9055C63.3114 21.6139 64.4841 22.0043 65.6915 22.0251H100.482C101.692 22.0029 102.866 21.6098 103.849 20.898C104.831 20.1862 105.576 19.1894 105.983 18.0403L107.115 15.0724C107.367 14.3635 107.827 13.7488 108.434 13.3099C109.041 12.8711 109.766 12.6288 110.513 12.6153H110.641C113.056 12.6307 115.437 13.1892 117.611 14.2503C119.785 15.3114 121.697 16.8482 123.208 18.7489C125.495 21.5684 126.91 25.0039 127.276 28.6281C127.351 29.3234 127.387 30.0223 127.386 30.7217Z" fill="#8CD8FF"/>
<path d="M127.386 30.7217V74.9639L38.7832 118.617V72.2399L127.276 28.6465C127.35 29.3357 127.386 30.0285 127.386 30.7217Z" fill="#B3E5FF"/>
<path d="M127.386 92.2145V110.62L38.7832 152.483V134.078L127.386 92.2145Z" fill="#B3E5FF"/>
<path d="M110.64 5H84.6397H55.5374C44.0013 5 34.6548 15.0908 34.6548 27.5467V168.395C34.6548 180.846 44.0013 190.942 55.5374 190.942H110.636C122.172 190.942 131.518 180.851 131.518 168.395V27.5467C131.518 15.123 122.172 5 110.64 5ZM127.386 168.376C127.386 178.371 119.891 186.46 110.636 186.46H55.5374C46.2821 186.46 38.7829 178.366 38.7829 168.372V27.5467C38.7829 27.3949 38.7829 27.243 38.7829 27.0866C39.011 17.3087 46.4235 9.45873 55.5328 9.45873H55.6605C56.4054 9.47183 57.1288 9.71232 57.7355 10.1485C58.3422 10.5847 58.8035 11.1961 59.0588 11.9021L60.1901 14.87C60.3913 15.4057 60.6628 15.9117 60.9975 16.3746C61.2639 16.7447 61.5698 17.0842 61.9098 17.3869C62.9494 18.3271 64.295 18.8494 65.6913 18.8547H100.482C101.691 18.8336 102.865 18.4413 103.848 17.7303C104.831 17.0193 105.575 16.0232 105.983 14.8746L107.114 11.9067C107.368 11.1986 107.828 10.5849 108.435 10.1469C109.042 9.70888 109.766 9.46729 110.513 9.45413H110.64C119.891 9.45413 127.386 17.548 127.386 27.5375V168.376Z" fill="#DBE3E6"/>
<path d="M34.6548 96.0796L38.7829 93.6731V130.245L34.6548 132.651V96.0796Z" fill="#FAFDFF"/>
<path d="M131.518 39.6667V76.2385L127.386 78.645V42.0733L131.518 39.6667Z" fill="#FAFDFF"/>
<path d="M38.7829 138.734V148.986L34.6548 151.388V141.141L38.7829 138.734Z" fill="#FAFDFF"/>
<path d="M131.518 84.7234V94.9753L127.386 97.3772V87.1345L131.518 84.7234Z" fill="#FAFDFF"/>
<path d="M38.7875 27.0866C38.7875 27.2339 38.7875 27.3857 38.7875 27.5467V36.3354L34.6548 38.3186V29.0836L38.7875 27.0866Z" fill="#FAFDFF"/>
<path d="M103.775 5L75.0105 18.8731H65.6913C64.2975 18.8729 62.9522 18.3572 61.9099 17.4237C61.5699 17.121 61.264 16.7816 60.9976 16.4114L84.617 5H103.775Z" fill="#FAFDFF"/>
<path d="M96.4723 13.9359C97.9411 13.9359 99.1317 12.7348 99.1317 11.2533C99.1317 9.77172 97.9411 8.57068 96.4723 8.57068C95.0036 8.57068 93.813 9.77172 93.813 11.2533C93.813 12.7348 95.0036 13.9359 96.4723 13.9359Z" fill="#6C7580"/>
<path d="M85.1143 8.75934H69.514C68.1461 8.75934 67.0371 9.87695 67.0371 11.2556C67.0371 12.6342 68.1461 13.7518 69.514 13.7518H85.1143C86.4823 13.7518 87.5912 12.6342 87.5912 11.2556C87.5912 9.87695 86.4823 8.75934 85.1143 8.75934Z" fill="#6C7580"/>
<path d="M181.339 49.4723L195.275 86.0118C195.857 87.5422 195.813 89.2432 195.153 90.7411C194.493 92.2389 193.27 93.411 191.753 93.9998L121.707 121.18C120.956 121.472 120.155 121.611 119.351 121.591C118.547 121.57 117.754 121.39 117.019 121.061C116.284 120.732 115.62 120.259 115.065 119.671C114.511 119.083 114.077 118.39 113.788 117.632L99.8526 81.093C99.5635 80.3349 99.4253 79.5269 99.4458 78.7149C99.4664 77.903 99.6452 77.1031 99.9722 76.3609C100.299 75.6187 100.768 74.9488 101.352 74.3893C101.935 73.8299 102.623 73.3919 103.374 73.1004L173.416 45.92C174.167 45.6284 174.969 45.489 175.773 45.5097C176.578 45.5304 177.371 45.7108 178.107 46.0407C178.843 46.3706 179.507 46.8434 180.062 47.4322C180.616 48.021 181.05 48.7142 181.339 49.4723Z" fill="#478E82"/>
<path d="M184.049 48.4094L197.98 84.9443C198.269 85.7023 198.407 86.5104 198.387 87.3223C198.366 88.1343 198.187 88.9342 197.86 89.6764C197.533 90.4186 197.064 91.0885 196.481 91.6479C195.897 92.2074 195.21 92.6454 194.458 92.9369L124.416 120.117C123.665 120.409 122.864 120.548 122.059 120.528C121.254 120.507 120.461 120.326 119.725 119.997C118.99 119.667 118.325 119.194 117.771 118.605C117.216 118.016 116.782 117.323 116.493 116.565L102.562 80.03C101.978 78.4997 102.021 76.798 102.68 75.2991C103.34 73.8003 104.562 72.6271 106.079 72.0374L176.126 44.8571C176.877 44.5655 177.678 44.4261 178.483 44.4468C179.288 44.4675 180.081 44.6479 180.817 44.9778C181.552 45.3076 182.217 45.7805 182.771 46.3693C183.326 46.9581 183.76 47.6513 184.049 48.4094Z" fill="#73C8B1"/>
<path d="M179.378 67.5787C179.205 67.5132 179.054 67.4007 178.942 67.2536C178.829 67.1065 178.759 66.9308 178.739 66.7459C178.686 66.2402 178.568 65.7437 178.388 65.2688L176.824 61.1644C176.491 60.2918 175.991 59.4939 175.352 58.8163C174.713 58.1388 173.948 57.595 173.101 57.2159C172.254 56.8368 171.34 56.63 170.414 56.6072C169.487 56.5844 168.565 56.7461 167.701 57.083L163.107 58.8637C162.987 58.9104 162.86 58.9329 162.731 58.9297C162.603 58.9265 162.476 58.8978 162.359 58.8452C162.242 58.7927 162.136 58.7172 162.047 58.6233C161.959 58.5293 161.89 58.4187 161.844 58.2977L160.644 55.155C160.55 54.9115 160.365 54.7153 160.128 54.6092C159.891 54.5032 159.622 54.4959 159.38 54.589L156.552 55.6888C156.432 55.7346 156.322 55.8041 156.228 55.8932C156.135 55.9823 156.06 56.0893 156.008 56.2078C155.956 56.3264 155.927 56.4542 155.924 56.5839C155.922 56.7136 155.944 56.8426 155.991 56.9633L157.205 60.1429C157.297 60.3877 157.29 60.6594 157.185 60.8989C157.08 61.1384 156.885 61.3265 156.643 61.4221L103.342 82.0777L105.13 86.7665L158.422 66.0879C158.543 66.0413 158.671 66.0191 158.799 66.0225C158.928 66.026 159.054 66.0551 159.172 66.1081C159.289 66.1612 159.395 66.2371 159.483 66.3315C159.572 66.426 159.64 66.5371 159.686 66.6584L161.625 71.72C161.717 71.9641 161.71 72.2351 161.605 72.4739C161.499 72.7127 161.305 72.8999 161.064 72.9945L157.36 74.4302C157.24 74.4765 157.13 74.5463 157.037 74.6355C156.944 74.7247 156.869 74.8316 156.817 74.95C156.765 75.0684 156.736 75.196 156.733 75.3255C156.73 75.455 156.752 75.5839 156.799 75.7048L157.884 78.5576C157.93 78.679 157.999 78.79 158.087 78.8843C158.175 78.9786 158.281 79.0542 158.399 79.1069C158.516 79.1595 158.643 79.1881 158.772 79.191C158.9 79.1938 159.028 79.1709 159.148 79.1236L162.852 77.6879C163.094 77.5948 163.362 77.6021 163.599 77.7082C163.836 77.8142 164.021 78.0104 164.115 78.2539L167.231 86.4444C167.323 86.6885 167.316 86.9595 167.211 87.1983C167.106 87.4371 166.911 87.6243 166.67 87.7189L162.966 89.1546C162.846 89.2009 162.736 89.2707 162.643 89.3599C162.55 89.4491 162.475 89.556 162.423 89.6744C162.371 89.7928 162.342 89.9204 162.339 90.0499C162.336 90.1794 162.358 90.3083 162.405 90.4292L163.49 93.282C163.536 93.403 163.605 93.5136 163.694 93.6076C163.782 93.7015 163.888 93.7769 164.006 93.8295C164.123 93.8821 164.249 93.9108 164.378 93.9139C164.506 93.9171 164.634 93.8947 164.754 93.848L168.458 92.4123C168.577 92.365 168.705 92.3421 168.834 92.3449C168.962 92.3478 169.089 92.3764 169.207 92.429C169.324 92.4817 169.43 92.5574 169.519 92.6516C169.607 92.7459 169.676 92.857 169.721 92.9783L170.725 95.6057C170.819 95.8492 171.004 96.0454 171.241 96.1515C171.478 96.2575 171.746 96.2648 171.988 96.1717L174.816 95.0719C175.056 94.9772 175.249 94.7916 175.353 94.555C175.458 94.3183 175.467 94.0496 175.378 93.8066L174.374 91.1838C174.282 90.9384 174.29 90.6662 174.396 90.4266C174.501 90.187 174.697 89.9993 174.94 89.9046L181.549 87.3416C183.281 86.6695 184.677 85.3312 185.431 83.621C186.184 81.9108 186.234 79.9687 185.568 78.2217L182.854 71.108C182.555 70.3052 182.09 69.5756 181.491 68.9673C180.892 68.3589 180.172 67.8857 179.378 67.5787ZM164.325 64.8179C164.233 64.5731 164.24 64.3014 164.345 64.0619C164.45 63.8223 164.644 63.6343 164.886 63.5387L169.484 61.758C169.996 61.5602 170.566 61.5755 171.067 61.8007C171.568 62.0259 171.96 62.4424 172.157 62.9589L173.37 66.1385C173.552 66.6132 173.539 67.1412 173.334 67.6063C173.13 68.0713 172.751 68.4355 172.28 68.6186L167.527 70.4592C167.285 70.5523 167.016 70.545 166.78 70.439C166.543 70.3329 166.358 70.1367 166.264 69.8932L164.325 64.8179ZM180.902 80.0024C181.092 80.5047 181.077 81.0626 180.861 81.5541C180.645 82.0457 180.244 82.4308 179.747 82.6252L173.133 85.1882C173.014 85.2349 172.886 85.2573 172.757 85.2542C172.629 85.251 172.502 85.2223 172.385 85.1697C172.268 85.1171 172.162 85.0417 172.073 84.9478C171.985 84.8538 171.916 84.7432 171.87 84.6222L168.754 76.4548C168.662 76.2106 168.669 75.9396 168.774 75.7008C168.879 75.462 169.074 75.2749 169.315 75.1802L174.981 72.9807C175.288 72.8556 175.583 72.7015 175.861 72.5206L175.893 72.608C176.144 72.5102 176.412 72.4633 176.681 72.4701C176.949 72.4768 177.214 72.5371 177.46 72.6474C177.706 72.7577 177.928 72.9158 178.113 73.1128C178.298 73.3098 178.443 73.5417 178.539 73.7952L180.902 80.0024Z" fill="#99FFD7"/>
<path d="M222.028 120.495L224.464 138.523C224.616 139.655 224.317 140.801 223.633 141.712C222.949 142.623 221.936 143.223 220.814 143.382L185.901 148.172C182.328 148.662 178.704 147.776 175.75 145.69C172.797 143.604 170.732 140.471 169.967 136.917C169.763 133.286 170.923 129.711 173.216 126.904C175.509 124.097 178.766 122.266 182.338 121.774L217.425 116.956C218.5 116.813 219.587 117.105 220.45 117.768C221.312 118.431 221.879 119.411 222.028 120.495Z" fill="#997055"/>
<path d="M209.707 100.506C209.318 97.6187 207.843 94.9927 205.588 93.1711C203.333 91.3495 200.47 90.4717 197.592 90.719C197.409 90.719 197.222 90.7558 197.04 90.7788L148.843 97.3956L100.66 104.012C100.473 104.012 100.29 104.063 100.108 104.1C97.2633 104.634 94.7319 106.253 93.0391 108.621C91.3463 110.988 90.6221 113.922 91.0169 116.813L99.0634 176.493C99.2626 177.971 99.7485 179.396 100.493 180.684C101.238 181.973 102.228 183.101 103.405 184.004C104.582 184.907 105.924 185.567 107.354 185.946C108.784 186.326 110.275 186.418 111.74 186.216H111.854L159.928 179.618L207.997 173.019H208.111C209.576 172.818 210.988 172.328 212.265 171.577C213.543 170.825 214.661 169.827 215.556 168.64C216.451 167.452 217.106 166.099 217.482 164.656C217.858 163.213 217.949 161.71 217.749 160.232L209.707 100.506Z" fill="#997055"/>
<path d="M208.996 95.187L217.051 154.881C217.251 156.359 217.16 157.862 216.784 159.305C216.408 160.747 215.753 162.101 214.858 163.289C213.963 164.476 212.845 165.474 211.567 166.225C210.29 166.977 208.878 167.467 207.413 167.668L111.028 180.901C109.563 181.103 108.074 181.011 106.644 180.632C105.215 180.253 103.873 179.593 102.696 178.691C101.52 177.788 100.531 176.661 99.7859 175.372C99.0412 174.084 98.5555 172.661 98.3563 171.183L90.3007 111.49C89.9108 108.6 90.6372 105.671 92.3295 103.307C94.0217 100.943 96.5503 99.3254 99.3918 98.7899C99.5742 98.753 99.7567 98.7254 99.9437 98.6978L196.31 85.4689C196.497 85.4413 196.68 85.4229 196.867 85.4091C199.746 85.1566 202.612 86.0311 204.869 87.8513C207.127 89.6716 208.605 92.2981 208.996 95.187Z" fill="#E6A97F"/>
<path d="M196.867 85.4091L93.3204 133.981L90.287 111.49C89.8972 108.6 90.6235 105.671 92.3158 103.307C94.0081 100.943 96.5366 99.3254 99.3781 98.7899C99.5606 98.753 99.743 98.7254 99.93 98.6978L196.296 85.4689C196.497 85.4413 196.68 85.4229 196.867 85.4091Z" fill="#FFD2B3"/>
<path d="M214.105 117.398L217.352 141.495L186.238 145.765C179.474 146.686 173.179 143.133 170.57 137.428C170.076 136.337 169.917 135.122 170.113 133.94C170.511 131.511 171.522 129.228 173.051 127.309C175.523 124.209 179.085 122.19 182.995 121.673L214.105 117.398Z" fill="#997055"/>
<path d="M221.389 115.751L224.4 138.058L185.248 143.432C181.874 143.895 178.447 143.13 175.581 141.275C172.715 139.42 170.597 136.596 169.607 133.309C169.379 132.565 169.275 131.788 169.297 131.009C169.376 127.573 170.667 124.277 172.938 121.715C175.208 119.152 178.31 117.489 181.686 117.025L216.773 112.212C217.85 112.065 218.941 112.355 219.806 113.019C220.671 113.682 221.241 114.664 221.389 115.751Z" fill="#FFD2B3"/>
<path d="M221.704 118.065L224.399 138.058L185.248 143.432C183.35 143.695 181.418 143.57 179.569 143.064C177.719 142.558 175.99 141.682 174.483 140.487C172.216 138.673 170.738 136.04 170.362 133.145C169.987 130.251 170.743 127.322 172.471 124.981L172.526 124.912C173.662 123.399 175.084 122.128 176.709 121.172C178.334 120.216 180.131 119.593 181.996 119.34L217.083 114.513C217.617 114.44 218.161 114.473 218.683 114.612C219.205 114.751 219.694 114.993 220.123 115.323C220.552 115.652 220.913 116.065 221.184 116.535C221.455 117.006 221.632 117.526 221.704 118.065Z" fill="#E6A97F"/>
<path d="M102.243 112.35L199.211 99.0383" stroke="#997055" stroke-width="5" stroke-miterlimit="10" stroke-linecap="round" stroke-dasharray="15 15"/>
<path d="M129.803 134.266C129.758 133.925 129.652 133.594 129.488 133.291L115.663 107.431C115.389 106.917 114.966 106.5 114.451 106.235C113.936 105.97 113.353 105.871 112.78 105.95L112.114 106.042C111.415 106.138 110.777 106.493 110.323 107.037C109.868 107.581 109.63 108.276 109.655 108.986L110.043 111.881L111.005 112.106L122.815 134.193C123.144 134.803 123.24 135.513 123.084 136.19L117.236 162.086C117.153 162.464 117.134 162.853 117.182 163.237L117.556 165.91L120.229 166.55L120.169 166.131C120.416 166.161 120.666 166.161 120.913 166.131C121.49 166.053 122.029 165.798 122.459 165.402C122.889 165.005 123.188 164.486 123.317 163.913L129.32 137.336L130.068 136.015L129.803 134.266Z" fill="#997055"/>
<path d="M129.995 137.455L123.527 166.09C123.397 166.662 123.097 167.181 122.668 167.577C122.238 167.973 121.699 168.228 121.123 168.307C120.595 168.378 120.058 168.319 119.558 168.135C119.058 167.951 118.609 167.647 118.251 167.25C117.892 166.853 117.634 166.375 117.499 165.855C117.363 165.336 117.355 164.791 117.473 164.267L123.317 138.375C123.472 137.697 123.376 136.986 123.048 136.374L110.239 112.414C110.021 112.006 109.904 111.551 109.899 111.087C109.894 110.623 110 110.165 110.208 109.752C110.417 109.338 110.721 108.982 111.096 108.713C111.471 108.445 111.905 108.272 112.36 108.209L113.026 108.117C113.6 108.038 114.183 108.138 114.699 108.403C115.215 108.668 115.639 109.085 115.913 109.598L129.735 135.458C130.06 136.07 130.153 136.78 129.995 137.455Z" fill="#80EAFF"/>
<path d="M183.953 139.903C188.2 139.903 191.644 136.43 191.644 132.145C191.644 127.861 188.2 124.387 183.953 124.387C179.705 124.387 176.262 127.861 176.262 132.145C176.262 136.43 179.705 139.903 183.953 139.903Z" fill="#6C7580"/>
<path d="M191.361 129.522C191.589 131.465 191.08 133.423 189.937 135.004C188.795 136.585 187.102 137.672 185.199 138.047C183.295 138.423 181.321 138.059 179.673 137.028C178.024 135.998 176.822 134.377 176.308 132.49C176.231 132.202 176.173 131.908 176.134 131.611C175.998 130.602 176.061 129.575 176.318 128.59C176.576 127.604 177.023 126.68 177.635 125.869C178.246 125.058 179.01 124.376 179.883 123.863C180.756 123.35 181.72 123.015 182.721 122.878C183.722 122.741 184.74 122.804 185.717 123.064C186.694 123.323 187.61 123.775 188.414 124.392C189.218 125.008 189.894 125.779 190.403 126.66C190.911 127.54 191.243 128.513 191.379 129.522H191.361Z" fill="#DBE3E6"/>
<path d="M191.206 128.644L180.039 137.386C179.12 136.874 178.314 136.178 177.671 135.34C177.029 134.502 176.563 133.54 176.303 132.513L187.465 123.794C188.383 124.303 189.188 124.996 189.831 125.83C190.474 126.664 190.942 127.621 191.206 128.644Z" fill="#FAFDFF"/>
<path d="M66.9822 61.9558C68.6588 65.0403 69.7161 68.4279 70.0936 71.9249C70.4711 75.4219 70.1615 78.9597 69.1824 82.3359C68.2033 85.7121 66.574 88.8604 64.3876 91.6008C62.2013 94.3413 59.5008 96.62 56.4406 98.3067C52.209 100.653 47.4208 101.785 42.5964 101.578C40.6083 101.497 38.6358 101.188 36.7166 100.658C35.3973 100.298 34.1072 99.8364 32.8576 99.2776C27.9655 97.0824 23.8514 93.4378 21.0616 88.8279C20.8244 88.4552 20.6054 88.0686 20.391 87.6729C17.1281 81.5258 16.3706 74.3373 18.2797 67.6356C20.1887 60.9339 24.6138 55.2477 30.614 51.7856C36.6143 48.3236 43.7165 47.3589 50.4109 49.0965C57.1053 50.8342 62.8638 55.1372 66.4622 61.0908C66.6766 61.3715 66.8226 61.6613 66.9822 61.9558Z" fill="#F5B331"/>
<path d="M64.1267 57.7088L32.853 99.2638C27.9645 97.0715 23.8522 93.432 21.0615 88.8279L51.0032 49.0674C56.1419 50.5461 60.7168 53.5585 64.1267 57.7088Z" fill="#FFE566"/>
<path d="M66.9824 61.9558C67.7791 63.4248 68.4387 64.9652 68.9529 66.5572L42.5966 101.578C40.6085 101.497 38.636 101.188 36.7168 100.658L66.4943 61.0862C66.6768 61.3715 66.8227 61.6614 66.9824 61.9558Z" fill="#FFE566"/>
<path d="M65.4268 61.5555C64.4503 60.0134 63.3159 58.5791 62.0421 57.2762C61.2126 56.4176 60.3223 55.621 59.3782 54.8927C55.2645 51.6915 50.2996 49.7975 45.1155 49.4517C39.9313 49.1059 34.7624 50.324 30.2667 52.9509C24.3539 56.3912 19.921 61.9269 17.8301 68.4814C15.7392 75.036 16.1399 82.1407 18.9542 88.4137C19.2187 89.0073 19.5107 89.5917 19.8209 90.1668C21.6752 93.6098 24.2628 96.5956 27.3975 98.9095C28.3304 99.6014 29.3088 100.229 30.326 100.787C34.1951 102.898 38.5284 103.995 42.9275 103.976C47.3265 103.956 51.6502 102.822 55.5009 100.676C61.762 97.1924 66.431 91.3847 68.5175 84.4856C70.604 77.5865 69.9436 70.1389 66.6766 63.7227C66.2904 62.9712 65.8738 62.2488 65.4268 61.5555ZM52.3079 94.6348C48.4348 96.8047 43.9423 97.5727 39.5767 96.8112C37.7897 96.5073 36.0543 95.9496 34.4222 95.1547C30.7317 93.3702 27.6973 90.4511 25.7554 86.817C24.8759 85.1838 24.225 83.4356 23.8213 81.6221C22.867 77.3258 23.2995 72.8342 25.0558 68.8034C26.812 64.7727 29.7999 61.414 33.5829 59.218C36.9209 57.2861 40.7518 56.3958 44.5913 56.6595C48.4308 56.9232 52.1066 58.3292 55.1543 60.6996C56.0968 61.4313 56.9689 62.2509 57.7589 63.1476C58.8448 64.3728 59.775 65.73 60.5277 67.1876C60.6372 67.3946 60.7375 67.6017 60.8379 67.8134C63.0533 72.5417 63.4047 77.9426 61.8209 82.9224C60.2372 87.9023 56.8367 92.089 52.3079 94.6348Z" fill="#B3671B"/>
<path d="M65.7144 59.8622C64.726 58.3662 63.5855 56.9783 62.3115 55.721C61.4806 54.8928 60.5935 54.1241 59.6567 53.4203C54.9409 49.8426 49.1779 47.9518 43.278 48.0464C37.378 48.1409 31.6775 50.2156 27.0767 53.9426C22.476 57.6696 19.2373 62.8366 17.8721 68.6273C16.507 74.4181 17.0932 80.5026 19.5383 85.9198C19.7983 86.5088 20.0903 87.0932 20.405 87.6729C22.2757 91.1301 24.8819 94.1267 28.0364 96.4478C28.9811 97.1479 29.9717 97.7828 31.0014 98.3481C32.5679 99.2032 34.2152 99.8984 35.9187 100.423C40.9667 101.982 46.3606 101.986 51.4114 100.438C56.4622 98.8886 60.9406 95.8561 64.2747 91.7273C67.6088 87.5986 69.6472 82.5611 70.1295 77.2581C70.6118 71.9552 69.5162 66.6276 66.9825 61.9558C66.5955 61.2366 66.1723 60.5378 65.7144 59.8622ZM53.1566 92.2513C50.4055 93.7637 47.3371 94.5942 44.205 94.6742C41.0728 94.7542 37.9667 94.0815 35.1432 92.7114C34.085 92.1984 33.073 91.5933 32.1189 90.9031C28.858 88.5072 26.4045 85.1595 25.0901 81.3121C23.7756 77.4647 23.6634 73.303 24.7687 69.3892C25.8739 65.4755 28.1434 61.9982 31.2705 59.4271C34.3975 56.856 38.2316 55.3151 42.2546 55.0124C47.0255 54.6709 51.7578 56.0813 55.5788 58.9833C56.5171 59.6962 57.3889 60.494 58.1834 61.3669C59.2706 62.5502 60.2097 63.8638 60.9796 65.278C61.089 65.4759 61.194 65.683 61.2943 65.8854C63.583 70.4884 64.0139 75.8071 62.4964 80.7238C60.9789 85.6405 57.6311 89.7724 53.1566 92.2513Z" fill="#FFCF40"/>
<path d="M32.1187 90.9031L28.0134 96.4477C24.8671 94.1241 22.2689 91.1277 20.4048 87.6729C20.09 87.0931 19.7981 86.5088 19.5381 85.9198L24.4736 79.2018C25.5289 83.9093 28.2464 88.0685 32.1187 90.9031Z" fill="#FFEC73"/>
<path d="M59.6565 53.4111L55.5785 58.9603C51.7576 56.0583 47.0253 54.6479 42.2544 54.9893L47.1945 48.2529C51.7177 48.868 56.0087 50.6441 59.6565 53.4111Z" fill="#FFEC73"/>
<path d="M40.348 94.3909L35.9188 100.423C34.2153 99.8984 32.568 99.2032 31.0015 98.3481L35.1433 92.7114C36.7916 93.5145 38.5436 94.0799 40.348 94.3909Z" fill="#FFEC73"/>
<path d="M61.2941 65.8808C61.1937 65.6783 61.0888 65.4713 60.9793 65.2734C60.2107 63.8527 59.2716 62.5329 58.1831 61.3438L62.3113 55.7164C63.5852 56.9737 64.7257 58.3616 65.7141 59.8576L61.2941 65.8808Z" fill="#FFEC73"/>
</g>
<defs>
<clipPath id="clip0_1601_19776">
<rect width="208" height="190" fill="white" transform="translate(16.5 5)"/>
</clipPath>
</defs>
</svg>
