<svg width="241" height="200" viewBox="0 0 241 200" fill="none" xmlns="http://www.w3.org/2000/svg">
<g clip-path="url(#clip0_1601_3987)">
<path d="M150.145 23.8377C148.172 17.4347 143.96 11.949 138.273 8.37656C132.586 4.80407 125.802 3.38166 119.152 4.36759C112.502 5.35353 106.428 8.68244 102.031 13.7499C97.6351 18.8174 95.2086 25.2874 95.1925 31.9853C95.1896 33.238 95.2735 34.4895 95.4437 35.7308C96.0762 40.47 97.9283 44.9657 100.82 48.7811C101.681 49.9299 102.632 51.0087 103.665 52.0071C108.132 56.3249 113.912 59.0431 120.097 59.7354C126.282 60.4276 132.523 59.0547 137.841 55.832C143.158 52.6093 147.252 47.7192 149.478 41.9287C151.705 36.1383 151.94 29.7752 150.145 23.8377ZM123.254 53.1218C117.632 53.1143 112.241 50.8853 108.266 46.9239C104.29 42.9624 102.054 37.5917 102.048 31.99C102.048 31.4704 102.067 30.9556 102.105 30.4455C102.411 26.2697 103.955 22.2786 106.542 18.9791C109.129 15.6796 112.642 13.2205 116.635 11.9141C120.628 10.6077 124.92 10.513 128.967 11.642C133.014 12.7709 136.633 15.0726 139.364 18.2548C141.89 21.1846 143.558 24.75 144.186 28.5609C144.375 29.691 144.469 30.8349 144.465 31.9805C144.463 37.5851 142.228 42.9596 138.251 46.9236C134.274 50.8875 128.88 53.1168 123.254 53.1218Z" fill="#FFE2A6"/>
<path d="M144.466 33.1472C144.47 34.3808 144.362 35.6122 144.143 36.8266C143.276 41.7197 140.707 46.1525 136.888 49.3479C133.069 52.5433 128.242 54.2973 123.255 54.3026C122.88 54.3026 122.51 54.3026 122.136 54.2742C118.397 54.0752 114.779 52.892 111.649 50.8452C108.849 49.0114 106.525 46.5424 104.868 43.6407C103.211 40.739 102.269 37.4873 102.117 34.1524C101.966 30.8175 102.611 27.4943 103.998 24.4556C105.385 21.4168 107.476 18.7491 110.099 16.6711C112.721 14.5932 115.801 13.1643 119.085 12.5016C122.369 11.8389 125.764 11.9614 128.992 12.8589C132.219 13.7565 135.187 15.4036 137.652 17.665C140.117 19.9265 142.008 22.7379 143.172 25.8686C143.624 27.0936 143.957 28.3589 144.167 29.6472C144.366 30.8033 144.466 31.9742 144.466 33.1472Z" fill="#D48D57"/>
<path d="M143.172 25.8686L111.649 50.8215C108.448 48.7263 105.874 45.8085 104.201 42.3764L136.605 16.7244C139.582 19.127 141.85 22.2865 143.172 25.8686Z" fill="#FFD599"/>
<path d="M144.465 33.1472C144.469 34.3808 144.361 35.6123 144.143 36.8266L122.135 54.2507C119.716 54.127 117.337 53.5852 115.104 52.6495L144.167 29.6237C144.367 30.7875 144.467 31.9663 144.465 33.1472Z" fill="#FFD599"/>
<path d="M150.145 27.3187C149.034 23.7019 147.204 20.3448 144.764 17.4471C141.054 13.0607 136.081 9.91597 130.518 8.43857C124.955 6.96117 119.07 7.22249 113.661 9.18716C108.252 11.1518 103.579 14.725 100.276 19.4228C96.9727 24.1206 95.1981 29.7163 95.1924 35.4521C95.1897 36.7034 95.2737 37.9533 95.4437 39.193C96.28 45.3797 99.1628 51.1121 103.636 55.4834C108.1 59.8128 113.882 62.5417 120.072 63.2414C126.262 63.941 132.51 62.5717 137.834 59.3486C143.159 56.1255 147.257 51.2314 149.485 45.4354C151.714 39.6394 151.946 33.27 150.145 27.3282V27.3187ZM123.254 56.6028C120.489 56.6063 117.75 56.0654 115.195 55.0111C112.959 54.0907 110.897 52.7968 109.098 51.1853C108.028 50.2235 107.057 49.157 106.201 48.0018C103.504 44.3786 102.052 39.9863 102.057 35.4758C102.057 34.9562 102.057 34.4366 102.114 33.9265C102.418 29.7509 103.96 25.7593 106.545 22.4586C109.129 19.1578 112.641 16.6967 116.632 15.3879C120.624 14.079 124.916 13.9814 128.963 15.1075C133.011 16.2335 136.631 18.5324 139.364 21.7122C140.306 22.8041 141.131 23.9914 141.825 25.2547C143.003 27.3619 143.805 29.6568 144.195 32.0372C144.385 33.1689 144.478 34.3144 144.475 35.4616C144.466 41.0637 142.227 46.4336 138.248 50.3927C134.27 54.3518 128.878 56.5767 123.254 56.5792V56.6028Z" fill="#99613C"/>
<path d="M150.145 25.0185C149.46 22.7811 148.495 20.6387 147.272 18.6421C146.526 17.4188 145.687 16.2536 144.764 15.1563C141.055 10.7708 136.083 7.62645 130.521 6.14865C124.96 4.67086 119.076 4.93101 113.668 6.8939C108.259 8.85679 103.587 12.4277 100.282 17.1233C96.9777 21.8189 95.201 27.4125 95.1925 33.1472C95.1896 34.3999 95.2735 35.6514 95.4437 36.8927C96.0762 41.6319 97.9283 46.1276 100.82 49.943C101.681 51.0918 102.632 52.1706 103.665 53.169C108.129 57.4973 113.909 60.2255 120.099 60.925C126.288 61.6245 132.535 60.2555 137.859 57.0333C143.183 53.8111 147.281 48.9181 149.51 43.1232C151.739 37.3283 151.972 30.9599 150.174 25.0185H150.145ZM123.254 54.3026C118.02 54.302 112.972 52.3665 109.088 48.8709C106.875 46.8901 105.105 44.468 103.892 41.7617C102.679 39.0553 102.051 36.1252 102.048 33.1613C102.048 32.6465 102.048 32.1269 102.105 31.6168C102.411 27.441 103.955 23.45 106.542 20.1505C109.129 16.851 112.642 14.3919 116.635 13.0855C120.628 11.7791 124.92 11.6844 128.967 12.8133C133.014 13.9423 136.633 16.244 139.364 19.4261C141.891 22.3586 143.559 25.9275 144.186 29.7417C144.375 30.8718 144.469 32.0157 144.465 33.1613C144.457 38.7618 142.219 44.1303 138.242 48.0891C134.266 52.0479 128.876 54.274 123.254 54.279V54.3026Z" fill="#EEA764"/>
<path d="M102.048 33.1472C102.042 37.6592 103.495 42.0533 106.192 45.6779L100.797 49.9289C97.905 46.1134 96.0529 41.6177 95.4204 36.8785L102.105 31.5885C102.067 32.1128 102.048 32.6323 102.048 33.1472Z" fill="#FFE2A6"/>
<path d="M144.764 15.1421L139.364 19.3931C136.078 15.5617 131.524 13.0284 126.526 12.2515L133.215 6.97565C137.702 8.66988 141.678 11.4815 144.764 15.1421Z" fill="#FFE2A6"/>
<path d="M115.185 52.6872L109.231 57.4105C107.194 56.2337 105.314 54.8055 103.636 53.1596L109.088 48.8708C110.887 50.4804 112.949 51.7712 115.185 52.6872Z" fill="#FFE2A6"/>
<path d="M150.145 25.0185L144.186 29.7417C143.795 27.36 142.993 25.0636 141.815 22.9544L147.272 18.6421C148.495 20.6387 149.461 22.7811 150.145 25.0185Z" fill="#FFE2A6"/>
<path d="M107.908 33.8793C106.864 30.4687 105.138 27.3037 102.835 24.5745C99.1439 20.1978 94.1254 17.134 88.5353 15.8442C82.9452 14.5543 77.0857 15.1082 71.8388 17.4224C66.5919 19.7366 62.2414 23.686 59.4421 28.6762C56.6427 33.6664 55.5459 39.4274 56.3168 45.0923C56.9173 49.5529 58.6648 53.7831 61.3896 57.3727C62.2002 58.4557 63.0959 59.4728 64.0683 60.4145C68.2751 64.4989 73.7254 67.0743 79.562 67.7356C85.3985 68.3969 91.2902 67.1065 96.3102 64.0675C101.33 61.0285 105.194 56.4132 107.293 50.9475C109.393 45.4819 109.609 39.476 107.908 33.8746V33.8793ZM82.5628 61.4631C77.2628 61.4556 72.1819 59.3547 68.4342 55.6209C64.6864 51.8872 62.5776 46.8254 62.5701 41.5451C62.5701 41.0728 62.5701 40.5674 62.627 40.0856C62.9138 36.1493 64.3688 32.3868 66.8071 29.2762C69.2454 26.1656 72.5569 23.8474 76.3207 22.6162C80.0845 21.3851 84.1308 21.2964 87.9453 22.3617C91.7598 23.4269 95.1703 25.5979 97.7435 28.5987C100.855 32.1993 102.563 36.7942 102.556 41.5451C102.551 46.8261 100.443 51.8894 96.6943 55.6237C92.946 59.358 87.8637 61.458 82.5628 61.4631Z" fill="#FFEC73"/>
<path d="M102.555 42.537C102.558 43.6993 102.456 44.8595 102.252 46.0038C101.429 50.6115 99.0054 54.7842 95.406 57.7916C91.8065 60.799 87.2603 62.4497 82.5625 62.4549C82.207 62.4549 81.8561 62.4549 81.5053 62.4266C79.2209 62.3117 76.9744 61.7985 74.8679 60.9104C73.7343 60.4439 72.6483 59.8697 71.6251 59.1959C68.5996 57.2221 66.1654 54.4707 64.58 51.2325C63.2661 48.5383 62.579 45.5835 62.5699 42.5881C62.5608 39.5928 63.23 36.6339 64.5276 33.9319C65.8252 31.2298 67.7178 28.8541 70.0646 26.9816C72.4113 25.1091 75.1518 23.7881 78.0819 23.1168C81.0121 22.4455 84.0565 22.4412 86.9885 23.1043C89.9205 23.7674 92.6647 25.0808 95.0167 26.9467C97.3687 28.8127 99.268 31.1831 100.573 33.8815C101.878 36.5799 102.556 39.5369 102.555 42.5322V42.537Z" fill="#F5B331"/>
<path d="M101.356 35.6741L71.6394 59.1959C68.6086 57.2241 66.1694 54.4725 64.5801 51.2325L95.1262 27.0494C97.9477 29.3099 100.101 32.2907 101.356 35.6741Z" fill="#FFE566"/>
<path d="M102.556 42.537C102.558 43.6993 102.456 44.8595 102.252 46.0039L81.5055 62.4266C79.2211 62.3117 76.9746 61.7985 74.8682 60.9104L102.281 39.2166C102.466 40.3137 102.558 41.4244 102.556 42.537Z" fill="#FFE566"/>
<path d="M107.908 37.0627C106.864 33.6522 105.138 30.4872 102.835 27.758C99.1451 23.3862 94.1307 20.3255 88.5454 19.0358C82.96 17.7461 77.1054 18.297 71.8612 20.6058C66.617 22.9146 62.2665 26.8565 59.4634 31.8392C56.6604 36.822 55.5561 42.5765 56.3165 48.238C56.9157 52.6981 58.6615 56.9283 61.3846 60.5184C62.1953 61.6014 63.091 62.6185 64.0633 63.5602C68.2682 67.6378 73.7132 70.2089 79.5435 70.8699C85.3739 71.5309 91.2595 70.2445 96.2765 67.2124C101.294 64.1804 105.158 59.5744 107.263 54.1176C109.368 48.6607 109.595 42.6619 107.908 37.0627ZM82.5626 64.6465C77.2584 64.639 72.174 62.5349 68.4256 58.7961C64.6772 55.0572 62.5711 49.9893 62.5699 44.705C62.5699 44.2326 62.5699 43.7273 62.6268 43.2455C62.9136 39.3091 64.3686 35.5466 66.8069 32.436C69.2452 29.3255 72.5567 27.0073 76.3205 25.7761C80.0843 24.5449 84.1306 24.4563 87.9451 25.5215C91.7596 26.5867 95.1701 28.7577 97.7432 31.7585C100.854 35.3591 102.562 39.9541 102.555 44.705C102.55 49.986 100.442 55.0493 96.6941 58.7836C92.9458 62.5178 87.8635 64.6179 82.5626 64.6229V64.6465Z" fill="#B37146"/>
<path d="M107.908 34.8712C107.266 32.7573 106.357 30.7336 105.201 28.849C104.5 27.6862 103.707 26.5807 102.83 25.5428C99.1382 21.1677 94.1197 18.1056 88.53 16.817C82.9403 15.5284 77.0818 16.0832 71.8358 18.3978C66.5899 20.7123 62.2403 24.6616 59.4415 29.6512C56.6427 34.6409 55.5461 40.4011 56.3166 46.0653C56.9132 50.5341 58.6609 54.7729 61.3895 58.3693C62.2001 59.4523 63.0958 60.4694 64.0681 61.4111C68.275 65.4955 73.7253 68.0709 79.5618 68.7322C85.3984 69.3935 91.29 68.1031 96.31 65.0641C101.33 62.0251 105.194 57.4098 107.293 51.9441C109.393 46.4785 109.609 40.4726 107.908 34.8712ZM82.5627 62.4549C77.2626 62.4474 72.1817 60.3465 68.434 56.6128C64.6863 52.8791 62.5775 47.8173 62.57 42.537C62.57 42.0458 62.5889 41.5593 62.6269 41.0775C62.9151 37.142 64.3707 33.3805 66.8089 30.2708C69.2471 27.161 72.558 24.8433 76.321 23.6119C80.084 22.3804 84.1295 22.2909 87.9437 23.3545C91.7579 24.4182 95.1688 26.5871 97.7433 29.5859C100.853 33.1894 102.56 37.7851 102.555 42.537C102.55 47.818 100.442 52.8813 96.6941 56.6156C92.9459 60.3498 87.8636 62.4499 82.5627 62.4549Z" fill="#FFCF40"/>
<path d="M62.5698 42.537C62.5646 46.789 63.9344 50.9295 66.4763 54.3451L61.3893 58.3693C58.6606 54.7729 56.913 50.5341 56.3164 46.0653L62.6267 41.0775C62.5887 41.5498 62.5698 42.0363 62.5698 42.537Z" fill="#FFEC73"/>
<path d="M102.835 25.5663L97.743 29.5858C94.6468 25.9741 90.3547 23.5864 85.644 22.8552L91.9496 17.8627C96.1783 19.4634 99.9255 22.1153 102.835 25.5663Z" fill="#FFEC73"/>
<path d="M74.9532 60.953L69.3398 65.4023C67.4223 64.2981 65.6512 62.9588 64.0679 61.4158L69.2071 57.3491C70.9005 58.8703 72.8443 60.0894 74.9532 60.953Z" fill="#FFEC73"/>
<path d="M107.908 34.8711L102.304 39.311C101.938 37.0668 101.184 34.9029 100.076 32.9157L105.21 28.849C106.363 30.7341 107.269 32.7577 107.908 34.8711Z" fill="#FFEC73"/>
<path d="M178.16 48.8047C178.163 49.9751 178.06 51.1434 177.852 52.2952C177.023 56.9388 174.581 61.144 170.954 64.1749C167.327 67.2057 162.745 68.8691 158.011 68.8738C157.657 68.8738 157.301 68.8643 156.944 68.8455C153.394 68.6616 149.957 67.5382 146.988 65.5911C143.357 63.2252 140.589 59.7545 139.098 55.6954C137.606 51.6364 137.47 47.206 138.709 43.0635C139.948 38.921 142.496 35.2878 145.975 32.7045C149.454 30.1212 153.677 28.7259 158.016 28.7262C162.141 28.7325 166.165 29.9975 169.547 32.3509C172.929 34.7044 175.506 38.0333 176.932 41.8899C177.363 43.0454 177.68 44.2396 177.88 45.4559C178.07 46.5621 178.163 47.6825 178.16 48.8047Z" fill="#BCC7CC"/>
<path d="M176.922 41.8899L146.978 65.5912C143.924 63.6029 141.467 60.8283 139.867 57.5617L170.655 33.1897C173.496 35.4707 175.663 38.4778 176.922 41.8899Z" fill="#F0F5F7"/>
<path d="M178.16 48.8047C178.163 49.9751 178.06 51.1434 177.852 52.2952L156.944 68.8266C154.64 68.7135 152.375 68.1987 150.25 67.3057L177.875 45.4371C178.067 46.5493 178.163 47.6761 178.16 48.8047Z" fill="#F0F5F7"/>
<path d="M183.55 40.147C182.903 38.0172 181.987 35.9777 180.824 34.0777C180.119 32.9178 179.326 31.8125 178.454 30.7714C174.933 26.5892 170.206 23.5878 164.914 22.175C159.621 20.7621 154.021 21.0062 148.873 22.8742C143.725 24.7422 139.279 28.1434 136.138 32.6161C132.998 37.0887 131.315 42.4159 131.319 47.8743C131.318 49.0639 131.398 50.2523 131.561 51.4309C132.364 57.3064 135.11 62.7477 139.364 66.8948C140.962 68.4488 142.747 69.799 144.679 70.9143C149.317 73.5719 154.65 74.7801 159.986 74.3822C165.322 73.9844 170.415 71.9989 174.604 68.6831C178.794 65.3673 181.887 60.8741 183.483 55.786C185.079 50.6979 185.104 45.2495 183.555 40.147H183.55ZM158.006 67.9434C152.666 67.9359 147.546 65.819 143.77 62.057C139.994 58.2949 137.869 53.1946 137.861 47.8743C137.861 47.402 137.861 46.8871 137.918 46.4053C138.207 42.4378 139.672 38.6452 142.129 35.5097C144.587 32.3741 147.924 30.0371 151.717 28.7958C155.511 27.5544 159.589 27.4647 163.434 28.5381C167.279 29.6115 170.716 31.7995 173.31 34.8239C175.711 37.6078 177.296 40.9973 177.89 44.62C178.069 45.6954 178.158 46.784 178.155 47.8743C178.149 53.1958 176.024 58.2976 172.246 62.06C168.469 65.8225 163.347 67.9384 158.006 67.9434Z" fill="#FAFDFF"/>
<path d="M183.55 43.2644C182.903 41.1345 181.987 39.0951 180.824 37.195C180.119 36.0351 179.326 34.9299 178.454 33.8887C174.935 29.7041 170.208 26.7004 164.915 25.2859C159.622 23.8713 154.021 24.1144 148.872 25.9822C143.723 27.85 139.276 31.2519 136.136 35.7255C132.995 40.1992 131.313 45.5277 131.319 50.9869C131.318 52.1781 131.398 53.368 131.561 54.5482C132.469 61.2279 135.891 67.3144 141.133 71.5762C146.375 75.8381 153.046 77.9571 159.797 77.5046C166.548 77.0521 172.874 74.0619 177.496 69.1389C182.118 64.2159 184.69 57.7277 184.693 50.9869C184.694 48.3709 184.309 45.7689 183.55 43.2644ZM158.006 71.0701C152.663 71.0626 147.541 68.9439 143.765 65.1787C139.988 61.4136 137.865 56.3097 137.861 50.9869C137.861 50.5146 137.861 50.0045 137.918 49.518C138.297 44.4665 140.577 39.7441 144.302 36.296C148.027 32.8479 152.921 30.9287 158.006 30.9225C159.046 30.9213 160.084 31.0018 161.111 31.1634C165.859 31.9022 170.185 34.3099 173.305 37.9507C174.201 38.9875 174.986 40.1146 175.647 41.3137C176.762 43.3179 177.521 45.4991 177.89 47.7609C178.069 48.8348 178.158 49.9218 178.155 51.0105C178.146 56.3304 176.02 61.4297 172.243 65.1902C168.466 68.9506 163.346 71.0651 158.006 71.0701Z" fill="#818C99"/>
<path d="M183.55 41.0775C182.903 38.9476 181.987 36.9082 180.824 35.0082C180.119 33.8482 179.326 32.743 178.454 31.7019C174.933 27.5196 170.206 24.5183 164.914 23.1054C159.621 21.6926 154.021 21.9367 148.873 23.8047C143.725 25.6727 139.279 29.0739 136.138 33.5465C132.998 38.0192 131.315 43.3464 131.319 48.8048C131.318 49.9944 131.398 51.1827 131.561 52.3614C132.364 58.2369 135.11 63.6782 139.364 67.8253C140.962 69.3793 142.747 70.7295 144.679 71.8448C149.317 74.5024 154.65 75.7105 159.986 75.3127C165.322 74.9149 170.415 72.9294 174.604 69.6136C178.794 66.2978 181.887 61.8046 183.483 56.7165C185.079 51.6284 185.104 46.18 183.555 41.0775H183.55ZM158.006 68.8738C152.666 68.8663 147.546 66.7495 143.77 62.9875C139.994 59.2254 137.869 54.1251 137.861 48.8048C137.861 48.3324 137.861 47.8176 137.918 47.3358C138.207 43.3683 139.672 39.5757 142.129 36.4401C144.587 33.3046 147.924 30.9676 151.717 29.7262C155.511 28.4849 159.589 28.3952 163.434 29.4686C167.279 30.5419 170.716 32.7299 173.31 35.7544C175.714 38.5422 177.298 41.9369 177.89 45.5646C178.069 46.6401 178.158 47.7287 178.155 48.8189C178.145 54.138 176.018 59.2361 172.241 62.9955C168.464 66.7549 163.345 68.8689 158.006 68.8738Z" fill="#DBE3E6"/>
<path d="M137.861 48.8047C137.856 53.0888 139.236 57.2607 141.796 60.7026L136.671 64.7599C133.925 61.1347 132.166 56.8636 131.565 52.3614L137.918 47.3358C137.861 47.8176 137.861 48.3088 137.861 48.8047Z" fill="#FAFDFF"/>
<path d="M178.435 31.6971L173.305 35.7544C170.179 32.1113 165.846 29.7036 161.092 28.9671L167.445 23.9368C171.714 25.545 175.498 28.2169 178.435 31.6971Z" fill="#FAFDFF"/>
<path d="M150.34 67.3624L144.679 71.8447C142.747 70.7294 140.962 69.3793 139.364 67.8252L144.546 63.7255C146.254 65.2598 148.213 66.4901 150.34 67.3624Z" fill="#FAFDFF"/>
<path d="M183.55 41.0775L177.889 45.5646C177.521 43.3041 176.763 41.1243 175.647 39.1221L180.824 35.0223C181.986 36.9179 182.902 38.9525 183.55 41.0775Z" fill="#FAFDFF"/>
<path d="M200.755 83.0624V154.355C200.755 156.829 200.266 159.278 199.316 161.563C198.366 163.849 196.973 165.925 195.218 167.674C193.462 169.424 191.378 170.811 189.084 171.758C186.79 172.704 184.331 173.191 181.848 173.191H58.6112C53.5997 173.188 48.7947 171.201 45.2528 167.669C41.7109 164.137 39.7219 159.348 39.7231 154.355V83.0624C39.7225 80.5886 40.2111 78.139 41.1611 75.8534C42.111 73.5678 43.5037 71.491 45.2595 69.7418C47.0153 67.9925 49.0999 66.6051 51.394 65.6587C53.6882 64.7123 56.1471 64.2255 58.6302 64.2261H181.848C184.331 64.2255 186.79 64.7123 189.085 65.6587C191.379 66.6051 193.463 67.9925 195.219 69.7418C196.975 71.491 198.368 73.5678 199.317 75.8534C200.267 78.139 200.756 80.5886 200.755 83.0624Z" fill="#997055"/>
<path d="M190.671 147.842H208.82C209.829 147.842 210.828 147.644 211.76 147.259C212.692 146.874 213.539 146.31 214.252 145.599C214.966 144.888 215.531 144.044 215.917 143.115C216.303 142.186 216.501 141.191 216.5 140.185H190.671V147.842Z" fill="#997055"/>
<path d="M200.755 76.5491V147.842C200.755 150.315 200.266 152.764 199.316 155.049C198.366 157.334 196.973 159.411 195.217 161.159C193.462 162.908 191.377 164.295 189.083 165.241C186.79 166.187 184.331 166.674 181.848 166.673H58.6112C56.1294 166.674 53.6719 166.187 51.3791 165.241C49.0862 164.295 47.0032 162.907 45.2489 161.158C43.4947 159.409 42.1037 157.333 41.1556 155.048C40.2074 152.763 39.7207 150.314 39.7232 147.842V76.5491C39.7225 74.0753 40.2112 71.6256 41.1611 69.34C42.111 67.0544 43.5037 64.9776 45.2595 63.2284C47.0153 61.4792 49.0999 60.0917 51.394 59.1453C53.6882 58.1989 56.1471 57.7121 58.6302 57.7128H181.848C184.331 57.7121 186.79 58.1989 189.085 59.1453C191.379 60.0917 193.463 61.4792 195.219 63.2284C196.975 64.9776 198.368 67.0544 199.317 69.34C200.267 71.6256 200.756 74.0753 200.755 76.5491Z" fill="#E6A97F"/>
<path d="M216.5 141.446H166.829C160.034 141.449 153.516 138.764 148.706 133.982C143.897 129.199 141.19 122.711 141.18 115.941C141.18 109.166 143.881 102.669 148.69 97.8791C153.498 93.0888 160.019 90.3976 166.819 90.3976H203.287C206.791 90.3976 210.152 91.7845 212.63 94.2532C215.108 96.7219 216.5 100.07 216.5 103.561V141.446Z" fill="#997055"/>
<path d="M216.5 99.8158V137.739H166.829C160.351 137.74 154.113 135.298 149.37 130.903C144.626 126.509 141.729 120.488 141.261 114.052C141.213 113.422 141.189 112.803 141.189 112.195C141.191 105.422 143.893 98.9259 148.701 94.1367C153.509 89.3474 160.03 86.6569 166.829 86.6569H203.287C205.022 86.6562 206.74 86.9961 208.343 87.6572C209.946 88.3182 211.403 89.2874 212.63 90.5094C213.857 91.7313 214.83 93.1822 215.494 94.779C216.158 96.3758 216.5 98.0874 216.5 99.8158Z" fill="#FFD2B3"/>
<path d="M216.5 103.538V137.739H166.829C163.275 137.742 159.759 137.007 156.506 135.583C153.252 134.158 150.332 132.074 147.931 129.464C143.986 125.127 141.854 119.452 141.974 113.6C142.094 107.749 144.456 102.165 148.576 97.9926L148.699 97.8651C151.077 95.4892 153.903 93.605 157.014 92.3211C160.126 91.0371 163.461 90.3786 166.829 90.3834H203.287C205.022 90.3828 206.739 90.7226 208.342 91.3833C209.945 92.044 211.401 93.0128 212.628 94.2343C213.855 95.4558 214.829 96.906 215.493 98.5023C216.157 100.099 216.499 101.81 216.5 103.538Z" fill="#E6A97F"/>
<path d="M181.848 57.7175L39.7231 96.3159V76.5491C39.7231 74.0757 40.2122 71.6265 41.1625 69.3415C42.1127 67.0564 43.5054 64.9802 45.2612 63.2315C47.0169 61.4828 49.1013 60.0957 51.3951 59.1496C53.689 58.2035 56.1475 57.7169 58.6302 57.7175H181.848Z" fill="#FFD2B3"/>
<path d="M196.692 114.052C196.542 112.015 195.908 110.044 194.841 108.3C193.775 106.556 192.308 105.09 190.561 104.023C188.814 102.956 186.837 102.318 184.794 102.162C182.75 102.006 180.699 102.337 178.809 103.127C177.921 102.259 176.938 101.492 175.879 100.841C175.291 100.485 174.68 100.17 174.049 99.8961C171.891 98.9157 169.546 98.4114 167.175 98.4177C162.925 98.4179 158.836 100.037 155.745 102.944C152.655 105.851 150.797 109.825 150.553 114.052C150.534 114.367 150.524 114.681 150.524 114.996C150.524 115.469 150.524 115.903 150.577 116.352C150.835 119.491 151.985 122.492 153.892 125.005C155.799 127.517 158.385 129.436 161.347 130.538C164.309 131.64 167.524 131.879 170.617 131.227C173.711 130.575 176.554 129.059 178.814 126.856C180.777 127.679 182.913 128.005 185.034 127.806C187.154 127.607 189.191 126.888 190.965 125.714C192.739 124.54 194.193 122.947 195.199 121.077C196.205 119.207 196.731 117.118 196.73 114.996C196.73 114.67 196.721 114.359 196.692 114.052ZM182.204 105.994C182.738 105.893 183.281 105.842 183.825 105.843C186.096 105.846 188.284 106.686 189.97 108.202C191.655 109.718 192.717 111.802 192.951 114.052C192.983 114.366 192.997 114.681 192.994 114.996C192.989 117.413 192.025 119.729 190.311 121.44C188.598 123.151 186.274 124.116 183.849 124.126C182.993 124.124 182.143 124.002 181.322 123.763C181.656 123.232 181.958 122.681 182.227 122.114C183.296 119.892 183.85 117.46 183.849 114.996C183.849 114.681 183.839 114.367 183.82 114.052C183.768 113.162 183.644 112.277 183.451 111.407C183.451 111.35 183.427 111.289 183.413 111.237C183.066 109.75 182.51 108.319 181.763 106.986C181.625 106.726 181.474 106.48 181.322 106.235C181.597 106.117 181.896 106.05 182.204 105.994Z" fill="#6C7580"/>
<path d="M194.981 106.669C194.38 105.622 193.629 104.667 192.752 103.835C191.608 102.732 190.265 101.854 188.794 101.247C187.212 100.588 185.515 100.248 183.801 100.248C182.087 100.248 180.39 100.588 178.809 101.247C177.921 100.379 176.938 99.6123 175.879 98.9609C175.742 98.8759 175.604 98.7909 175.462 98.7153C172.93 97.2692 170.06 96.5115 167.141 96.5182C164.223 96.5248 161.357 97.2955 158.831 98.7531C156.305 100.211 154.209 102.304 152.751 104.823C151.293 107.342 150.525 110.199 150.524 113.107C150.524 113.419 150.524 113.726 150.553 114.052C150.553 114.198 150.553 114.34 150.577 114.482C150.758 116.665 151.372 118.791 152.384 120.737C153.395 122.683 154.784 124.41 156.47 125.817C156.783 126.082 157.11 126.337 157.442 126.573C160.079 128.476 163.223 129.559 166.478 129.686C166.71 129.686 166.952 129.686 167.175 129.686C171.526 129.692 175.706 127.996 178.814 124.962C180.702 125.754 182.753 126.087 184.796 125.933C186.839 125.779 188.815 125.143 190.563 124.076C192.31 123.01 193.777 121.545 194.843 119.802C195.909 118.058 196.543 116.087 196.692 114.052C196.721 113.745 196.73 113.433 196.73 113.107C196.732 110.844 196.128 108.622 194.981 106.669ZM192.951 114.052C192.718 116.298 191.659 118.378 189.979 119.893C188.298 121.409 186.115 122.252 183.849 122.261C183.305 122.26 182.762 122.211 182.227 122.114C181.919 122.058 181.621 121.987 181.322 121.902C182.481 120.061 183.259 118.009 183.612 115.865C183.718 115.254 183.787 114.638 183.82 114.019C183.839 113.726 183.849 113.422 183.849 113.107C183.85 112.447 183.811 111.788 183.73 111.133C183.646 110.525 183.527 109.923 183.375 109.328C183.141 108.324 182.809 107.345 182.384 106.405C182.327 106.263 182.261 106.121 182.189 105.984C181.921 105.416 181.618 104.864 181.284 104.331C182.105 104.094 182.956 103.972 183.811 103.968C184.297 103.966 184.782 104.006 185.262 104.086C186.944 104.353 188.517 105.084 189.803 106.197C190.722 106.988 191.476 107.951 192.022 109.031C192.652 110.296 192.977 111.69 192.97 113.102C192.982 113.419 192.975 113.736 192.951 114.052Z" fill="#DBE3E6"/>
<path d="M188.794 101.256L185.276 104.09C184.796 104.014 184.311 103.976 183.825 103.977C182.97 103.979 182.119 104.101 181.298 104.341C181.717 105.003 182.085 105.696 182.398 106.414L157.442 126.578C157.11 126.342 156.783 126.105 156.47 125.827C154.075 123.826 152.294 121.194 151.331 118.232L175.462 98.7342L175.879 98.9798C176.938 99.6328 177.921 100.401 178.809 101.271C180.39 100.608 182.087 100.267 183.802 100.267C185.516 100.267 187.213 100.608 188.794 101.271V101.256Z" fill="#FAFDFF"/>
<path d="M183.707 111.147C183.898 112.719 183.858 114.31 183.588 115.87L166.478 129.7C164.892 129.636 163.322 129.347 161.818 128.84L183.707 111.147Z" fill="#FAFDFF"/>
<path d="M194.981 106.669L192.037 109.031C191.488 107.952 190.735 106.99 189.818 106.197L192.753 103.835C193.629 104.667 194.38 105.622 194.981 106.669Z" fill="#FAFDFF"/>
<path d="M177.69 110.141H156.693C156.046 110.141 155.521 110.663 155.521 111.307V114.949C155.521 115.593 156.046 116.116 156.693 116.116H177.69C178.337 116.116 178.861 115.593 178.861 114.949V111.307C178.861 110.663 178.337 110.141 177.69 110.141Z" fill="#6C7580"/>
<path d="M56.0845 71.2307L184.693 70.3569" stroke="#997055" stroke-width="6" stroke-miterlimit="10" stroke-linecap="round" stroke-dasharray="15 15"/>
<path d="M122.311 120.527C122.181 120.295 122.022 120.081 121.837 119.89L120.239 118.303C120.141 118.153 120.028 118.014 119.903 117.887L106.742 104.775C106.489 104.523 106.19 104.324 105.86 104.187C105.53 104.051 105.176 103.981 104.819 103.981C104.462 103.981 104.108 104.051 103.779 104.187C103.449 104.324 103.149 104.523 102.897 104.775L93.2962 114.33L90.4516 117.197L88.522 115.275C87.8554 114.61 87.0639 114.083 86.1926 113.723C85.3214 113.364 84.3875 113.178 83.4444 113.178C82.5013 113.178 81.5675 113.364 80.6962 113.723C79.825 114.083 79.0334 114.61 78.3668 115.275L40.439 153.061C41.6802 157.358 44.4141 161.076 48.1525 163.551C52.037 163.178 55.9174 164.302 58.9952 166.692H93.5475L111.63 148.678C112.313 147.997 112.856 147.189 113.226 146.3C113.596 145.41 113.787 144.457 113.787 143.494C113.787 142.531 113.596 141.578 113.226 140.688C112.856 139.799 112.313 138.991 111.63 138.31L109.416 136.1L121.846 123.715C122.257 123.304 122.524 122.772 122.608 122.198C122.692 121.624 122.587 121.038 122.311 120.527Z" fill="#997055"/>
<path d="M111.137 132.364L89.731 111.043C89.0485 110.362 88.2378 109.821 87.3454 109.453C86.4529 109.084 85.4963 108.894 84.5302 108.894C83.564 108.894 82.6074 109.084 81.7149 109.453C80.8225 109.821 80.0118 110.362 79.3293 111.043L32.3936 157.803C28.2717 162.029 25.9847 167.701 26.0269 173.593C26.0692 179.485 28.4374 185.124 32.6194 189.29C36.8015 193.456 42.4615 195.816 48.3757 195.858C54.2899 195.9 59.9831 193.621 64.2245 189.515L111.16 142.755C111.846 142.072 112.389 141.261 112.759 140.369C113.129 139.476 113.318 138.52 113.316 137.554C113.314 136.589 113.12 135.633 112.746 134.742C112.372 133.852 111.825 133.043 111.137 132.364ZM38.4431 183.483C36.3266 181.354 34.8906 178.648 34.3163 175.707C33.742 172.766 34.0551 169.721 35.2162 166.956C36.3773 164.192 38.3343 161.833 40.8402 160.175C43.346 158.518 46.2885 157.638 49.2963 157.645C52.304 157.652 55.2422 158.547 57.74 160.216C60.2378 161.885 62.1833 164.254 63.331 167.024C64.4787 169.794 64.777 172.84 64.1885 175.779C63.5999 178.718 62.1508 181.417 60.024 183.535C57.1545 186.378 53.2695 187.97 49.2227 187.96C45.176 187.95 41.2987 186.34 38.4431 183.483Z" fill="#7EA66B"/>
<path d="M108.889 130.111L88.029 109.328C86.6813 107.987 84.8541 107.233 82.949 107.233C81.0439 107.233 79.2168 107.987 77.8691 109.328L31.9242 155.144C29.8658 157.169 28.2299 159.579 27.1105 162.237C25.9911 164.894 25.4105 167.746 25.402 170.627C25.3934 173.509 25.9573 176.364 27.0609 179.028C28.1646 181.692 29.7863 184.112 31.8326 186.149C33.879 188.186 36.3096 189.799 38.9845 190.896C41.6593 191.993 44.5256 192.552 47.4183 192.541C50.3109 192.53 53.1728 191.949 55.8391 190.831C58.5054 189.714 60.9234 188.082 62.9539 186.029L108.904 140.252C109.572 139.585 110.102 138.794 110.464 137.924C110.825 137.053 111.01 136.12 111.009 135.178C111.007 134.236 110.82 133.304 110.456 132.434C110.092 131.564 109.56 130.775 108.889 130.111ZM37.7746 180.177C35.6898 178.1 34.27 175.454 33.6947 172.574C33.1194 169.693 33.4144 166.707 34.5426 163.994C35.6707 161.28 37.5812 158.961 40.0324 157.329C42.4837 155.697 45.3656 154.826 48.3138 154.826C51.2619 154.826 54.1438 155.697 56.5951 157.329C59.0464 158.961 60.9569 161.28 62.085 163.994C63.2131 166.707 63.5082 169.693 62.9329 172.574C62.3576 175.454 60.9378 178.1 58.853 180.177C57.4709 181.56 55.8288 182.657 54.0206 183.407C52.2123 184.157 50.2735 184.544 48.3149 184.547C46.3563 184.549 44.4165 184.167 42.6062 183.422C40.796 182.677 39.1509 181.584 37.7651 180.205L37.7746 180.177Z" fill="#AFF291"/>
<path d="M121.368 117.788L108.894 130.215L91.874 113.272L104.362 100.827C104.873 100.32 105.564 100.036 106.284 100.036C107.005 100.036 107.696 100.32 108.207 100.827L121.368 113.943C121.556 114.132 121.715 114.347 121.842 114.581C122.122 115.094 122.227 115.685 122.141 116.263C122.056 116.841 121.784 117.376 121.368 117.788Z" fill="#6C7580"/>
<path d="M119.438 115.785L106.964 128.221L89.9775 111.27L102.451 98.8428C102.703 98.591 103.003 98.3913 103.333 98.255C103.663 98.1187 104.016 98.0486 104.374 98.0486C104.731 98.0486 105.084 98.1187 105.414 98.255C105.744 98.3913 106.044 98.591 106.296 98.8428L119.457 111.955C119.644 112.146 119.803 112.362 119.931 112.597C120.202 113.111 120.301 113.698 120.212 114.272C120.124 114.846 119.852 115.376 119.438 115.785Z" fill="#DBE3E6"/>
<path d="M119.438 115.785L115.74 119.469L94.9556 116.248L89.9775 111.27L92.8221 108.384L119.903 112.578C120.182 113.091 120.288 113.681 120.204 114.258C120.12 114.836 119.852 115.372 119.438 115.785Z" fill="#FAFDFF"/>
<path d="M82.3257 140.03L87.0193 135.354C87.3623 135.013 87.8269 134.822 88.3112 134.822C88.7955 134.822 89.2601 135.013 89.6031 135.354L91.3383 137.087C91.716 137.462 92.2274 137.672 92.7606 137.672C93.2938 137.672 93.8052 137.462 94.1829 137.087L95.572 135.703C95.966 135.308 96.1872 134.774 96.1872 134.218C96.1872 133.661 95.966 133.127 95.572 132.732L92.6089 129.78L89.6221 126.804C89.2728 126.457 88.7997 126.263 88.3064 126.263C87.8132 126.263 87.3401 126.457 86.9908 126.804L84.004 129.78L77.9687 135.779C77.6251 136.125 77.1945 136.374 76.7218 136.499C76.249 136.623 75.7513 136.619 75.2806 136.487C73.3005 135.92 71.1872 136.026 69.2741 136.788C67.3611 137.55 65.7574 138.925 64.716 140.696C63.6747 142.468 63.255 144.534 63.5233 146.569C63.7916 148.604 64.7326 150.492 66.1977 151.936C67.6628 153.379 69.5686 154.295 71.6143 154.539C73.66 154.783 75.7291 154.342 77.495 153.284C79.2609 152.227 80.623 150.614 81.3664 148.699C82.1098 146.785 82.1921 144.678 81.6003 142.712C81.4701 142.241 81.4687 141.744 81.5963 141.273C81.7238 140.801 81.9757 140.372 82.3257 140.03ZM70.5775 148.418C69.9273 147.96 69.4403 147.308 69.1868 146.556C68.9333 145.804 68.9266 144.992 69.1677 144.236C69.4087 143.48 69.885 142.82 70.5276 142.352C71.1701 141.883 71.9456 141.631 72.7418 141.631C73.5379 141.631 74.3134 141.883 74.956 142.352C75.5986 142.82 76.0748 143.48 76.3159 144.236C76.5569 144.992 76.5503 145.804 76.2968 146.556C76.0433 147.308 75.5562 147.96 74.9061 148.418C74.2728 148.863 73.5168 149.102 72.7418 149.102C71.9668 149.102 71.2108 148.863 70.5775 148.418Z" fill="#7EA66B"/>
</g>
<defs>
<clipPath id="clip0_1601_3987">
<rect width="191" height="192" fill="white" transform="translate(25.5 4)"/>
</clipPath>
</defs>
</svg>
