<svg width="241" height="200" viewBox="0 0 241 200" fill="none" xmlns="http://www.w3.org/2000/svg">
<g clip-path="url(#clip0_1601_20080)">
<path d="M143.494 30.038C143.608 31.2229 143.617 32.4155 143.52 33.6019C143.13 38.3833 141.055 42.8763 137.661 46.2949C134.266 49.7134 129.766 51.8397 124.949 52.3017C124.589 52.336 124.225 52.3618 123.862 52.3747C121.508 52.4801 119.153 52.1764 116.905 51.4773C115.696 51.1095 114.525 50.6278 113.409 50.0388C110.531 48.5321 108.054 46.3701 106.182 43.7305C104.311 41.091 103.097 38.049 102.642 34.8544C102.186 31.6598 102.502 28.4037 103.562 25.3534C104.623 22.3031 106.398 19.5456 108.743 17.3074C111.087 15.0691 113.933 13.414 117.048 12.4777C120.163 11.5415 123.457 11.3509 126.661 11.9216C129.865 12.4924 132.886 13.8081 135.477 15.7609C138.068 17.7136 140.155 20.2477 141.566 23.155C142.112 24.2848 142.547 25.4638 142.866 26.6759C143.171 27.7768 143.381 28.9016 143.494 30.038Z" fill="#BCC7CC"/>
<path d="M141.575 23.1549L113.418 50.0388C110.123 48.3216 107.359 45.7534 105.417 42.6061L134.358 14.9666C137.467 16.9979 139.962 19.8281 141.575 23.1549Z" fill="#F0F5F7"/>
<path d="M143.494 30.038C143.608 31.2229 143.617 32.4155 143.52 33.6019L123.861 52.3747C121.507 52.48 119.153 52.1763 116.904 51.4772L142.896 26.6759C143.191 27.7777 143.391 28.9025 143.494 30.038Z" fill="#F0F5F7"/>
<path d="M148.146 20.7461C146.743 17.3616 144.662 14.2942 142.03 11.729C136.936 6.90784 130.158 4.22548 123.115 4.24282C116.072 4.26016 109.309 6.97586 104.239 11.822C99.1689 16.6682 96.1856 23.2695 95.9126 30.2456C95.6396 37.2216 98.0981 44.0322 102.774 49.253C103.711 50.275 104.725 51.2252 105.806 52.0956C110.523 55.8513 116.366 57.9467 122.416 58.0524C128.465 58.1581 134.379 56.2681 139.226 52.6795C144.074 49.091 147.582 44.0073 149.197 38.2276C150.812 32.448 150.444 26.3001 148.151 20.7504L148.146 20.7461ZM124.867 51.3613C119.431 51.8686 114.015 50.2189 109.804 46.7739C105.594 43.329 102.933 38.3698 102.406 32.9836C102.358 32.4855 102.328 31.9831 102.319 31.4893C102.227 27.4459 103.35 23.4666 105.544 20.0568C107.739 16.6471 110.906 13.9606 114.644 12.3387C118.382 10.7167 122.521 10.2324 126.537 10.9472C130.553 11.662 134.265 13.5438 137.2 16.3535C139.917 18.9412 141.865 22.2194 142.831 25.83C143.594 28.6935 143.72 31.6874 143.199 34.6038C142.677 37.5202 141.522 40.2892 139.813 42.7185C138.103 45.1478 135.881 47.1792 133.3 48.6717C130.719 50.1642 127.841 51.082 124.867 51.3613Z" fill="#FAFDFF"/>
<path d="M148.45 23.9107C147.584 21.8163 146.453 19.8395 145.084 18.0281C144.248 16.9201 143.328 15.8765 142.333 14.9064C138.115 10.8115 132.67 8.18301 126.817 7.41549C120.963 6.64797 115.017 7.78279 109.869 10.6496C104.722 13.5165 100.651 17.9608 98.2682 23.3155C95.8852 28.6702 95.3185 34.6465 96.6531 40.3476C98.2669 46.986 102.354 52.7738 108.094 56.5496C113.834 60.3255 120.802 61.8099 127.6 60.7051C134.398 59.6004 140.523 55.9881 144.746 50.5931C148.969 45.1982 150.978 38.4198 150.369 31.6181C150.113 28.9698 149.466 26.3729 148.45 23.9107ZM125.174 54.513C120.117 54.9935 115.06 53.5999 110.979 50.6013C109.854 49.7752 108.816 48.8387 107.881 47.806C104.942 44.5668 103.13 40.4769 102.713 36.1396C102.666 35.6372 102.635 35.1391 102.627 34.6453C102.516 29.4924 104.374 24.4885 107.829 20.6361C111.283 16.7838 116.078 14.3675 121.254 13.8716C122.312 13.7696 123.377 13.7509 124.438 13.8158C129.341 14.1024 133.978 16.1226 137.507 19.5094C138.52 20.4685 139.427 21.5307 140.215 22.6783C141.548 24.5975 142.534 26.7319 143.13 28.986C143.418 30.0556 143.615 31.1472 143.719 32.2493C144.232 37.638 142.568 43.0083 139.091 47.182C135.614 51.3558 130.61 53.9923 125.174 54.513Z" fill="#818C99"/>
<path d="M148.259 21.6993C147.393 19.6049 146.262 17.6282 144.893 15.8167C141.246 10.9798 136.075 7.4876 130.199 5.8936C124.501 4.35884 118.454 4.69724 112.967 6.85801C107.479 9.01879 102.847 12.8854 99.7648 17.8775C96.6826 22.8695 95.3169 28.7178 95.8727 34.5446C96.4285 40.3714 98.8758 45.8624 102.847 50.1934C105.331 52.8965 108.342 55.0729 111.697 56.5912C116.676 58.84 122.222 59.5534 127.616 58.6387C133.009 57.7241 138 55.2237 141.942 51.4621C145.883 47.7005 148.593 42.8513 149.72 37.544C150.846 32.2367 150.337 26.7163 148.259 21.6993ZM124.983 52.3017C119.548 52.8101 114.13 51.1608 109.92 47.7157C105.709 44.2705 103.049 39.3106 102.522 33.9239C102.475 33.4258 102.444 32.9235 102.436 32.434C102.324 27.2803 104.182 22.2753 107.636 18.4221C111.091 14.5688 115.887 12.152 121.063 11.656C122.123 11.5582 123.189 11.5396 124.251 11.6001C129.147 11.9016 133.773 13.9269 137.295 17.311C140.012 19.8987 141.96 23.1769 142.926 26.7875C143.689 29.6504 143.815 32.6436 143.294 35.5594C142.773 38.4753 141.619 41.2438 139.91 43.673C138.202 46.1022 135.981 48.1337 133.401 49.6267C130.821 51.1197 127.944 52.0383 124.97 52.3188L124.983 52.3017Z" fill="#DBE3E6"/>
<path d="M102.501 33.9239C102.912 38.2638 104.725 42.3565 107.669 45.5946L102.847 50.1934C99.7003 46.7879 97.4935 42.6349 96.4404 38.1362L102.414 32.434C102.423 32.9235 102.453 33.4258 102.501 33.9239Z" fill="#FAFDFF"/>
<path d="M142.121 12.6951L137.295 17.311C133.766 13.9213 129.13 11.8956 124.226 11.6002L130.199 5.89362C134.693 7.11644 138.797 9.45773 142.121 12.6951Z" fill="#FAFDFF"/>
<path d="M117.013 51.5116L111.697 56.5912C109.621 55.6502 107.671 54.4559 105.893 53.0359L110.766 48.3857C112.651 49.7757 114.765 50.8332 117.013 51.5116Z" fill="#FAFDFF"/>
<path d="M148.259 21.6993L142.918 26.7575C142.321 24.5036 141.335 22.3694 140.002 20.4498L144.871 15.8038C146.249 17.6182 147.387 19.5993 148.259 21.6993Z" fill="#FAFDFF"/>
<path d="M181.147 28.6382C180.359 26.7459 179.332 24.9598 178.093 23.3224C177.336 22.3142 176.5 21.3666 175.593 20.4884C171.232 16.2603 165.443 13.787 159.347 13.5474C153.251 13.3079 147.282 15.3192 142.597 19.1918C137.911 23.0645 134.842 28.5228 133.985 34.5098C133.127 40.4968 134.541 46.5863 137.953 51.599C141.365 56.6117 146.533 60.1909 152.455 61.6433C158.377 63.0958 164.632 62.3182 170.009 59.4611C175.385 56.604 179.501 51.8708 181.559 46.1781C183.617 40.4854 183.47 34.2383 181.147 28.6468V28.6382ZM160.024 56.4109C155.093 56.8703 150.179 55.3735 146.358 52.2484C142.538 49.1232 140.123 44.6245 139.643 39.7378C139.599 39.2827 139.573 38.8275 139.565 38.381C139.464 33.7064 141.149 29.1667 144.282 25.6712C147.415 22.1756 151.764 19.9825 156.459 19.5309C157.42 19.4389 158.386 19.4216 159.349 19.4794C163.796 19.7378 168.003 21.5656 171.209 24.632C173.67 26.979 175.434 29.949 176.312 33.2197C177.007 35.819 177.122 38.5369 176.65 41.1848C176.178 43.8326 175.131 46.347 173.58 48.5532C172.029 50.7594 170.013 52.6047 167.671 53.9608C165.328 55.317 162.716 56.1516 160.016 56.4066L160.024 56.4109Z" fill="#FFEC73"/>
<path d="M176.949 37.2216C177.057 38.2978 177.066 39.3815 176.975 40.4592C176.62 44.7973 174.738 48.8736 171.657 51.975C168.577 55.0763 164.494 57.0053 160.124 57.4243C159.795 57.4586 159.47 57.4801 159.14 57.493C157.003 57.5884 154.866 57.3123 152.825 56.6771C151.729 56.3485 150.667 55.9172 149.654 55.389C146.09 53.5343 143.226 50.5887 141.488 46.9905C139.75 43.3924 139.231 39.3341 140.007 35.4197C140.784 31.5054 142.815 27.9441 145.798 25.2661C148.781 22.5881 152.557 20.9365 156.563 20.5572C160.371 20.2044 164.197 21.015 167.527 22.8802C170.856 24.7454 173.531 27.5757 175.19 30.9912C175.689 32.0161 176.088 33.0858 176.381 34.1859C176.657 35.18 176.847 36.1956 176.949 37.2216Z" fill="#F5B331"/>
<path d="M175.199 30.9783L149.641 55.376C146.649 53.8168 144.139 51.4844 142.376 48.6261L168.64 23.5457C171.464 25.3898 173.731 27.9585 175.199 30.9783Z" fill="#FFE566"/>
<path d="M176.949 37.2216C177.057 38.2978 177.066 39.3815 176.975 40.4592L159.141 57.4929C157.003 57.5884 154.866 57.3123 152.825 56.6771L176.39 34.173C176.664 35.1716 176.851 36.1915 176.949 37.2216Z" fill="#FFE566"/>
<path d="M181.437 31.6611C180.658 29.7622 179.639 27.9688 178.405 26.3238C175.178 22.0211 170.618 18.8845 165.422 17.3938C160.227 15.903 154.681 16.1402 149.635 18.0689C144.588 19.9977 140.318 23.512 137.477 28.0742C134.636 32.6365 133.38 37.9955 133.903 43.3318C134.408 48.614 136.638 53.5888 140.254 57.5015C141.104 58.4308 142.026 59.2922 143.013 60.0779C147.293 63.4875 152.594 65.3905 158.084 65.4876C163.574 65.5846 168.94 63.8703 173.34 60.6141C177.74 57.3579 180.922 52.7446 182.388 47.4996C183.854 42.2546 183.519 36.6755 181.437 31.6396V31.6611ZM160.319 59.4338C155.39 59.8895 150.479 58.3902 146.663 55.2643C142.847 52.1384 140.436 47.6407 139.959 42.7564C139.916 42.3056 139.885 41.8504 139.881 41.4039C139.779 36.729 141.464 32.1887 144.597 28.693C147.73 25.1973 152.08 23.0044 156.775 22.5538C159.461 22.2985 162.17 22.6235 164.717 23.5064C167.263 24.3893 169.586 25.809 171.526 27.6678C172.444 28.5387 173.267 29.5029 173.982 30.5447C175.192 32.2862 176.087 34.2229 176.629 36.2684C177.319 38.8659 177.432 41.5813 176.958 44.2262C176.485 46.8711 175.437 49.3824 173.887 51.586C172.338 53.7896 170.323 55.6329 167.983 56.9879C165.643 58.343 163.034 59.1776 160.336 59.4338H160.319Z" fill="#B37146"/>
<path d="M181.242 29.6559C180.458 27.7549 179.431 25.9613 178.188 24.3186C174.958 20.0269 170.4 16.9004 165.209 15.4161C160.019 13.9319 154.482 14.1714 149.441 16.0981C144.401 18.0249 140.136 21.533 137.295 26.0873C134.454 30.6416 133.194 35.992 133.708 41.3223C134.216 46.614 136.445 51.5989 140.058 55.5264C140.91 56.4557 141.834 57.3171 142.822 58.1027C147.101 61.5131 152.402 63.4169 157.892 63.5146C163.381 63.6122 168.748 61.8983 173.148 58.6422C177.547 55.3862 180.73 50.7729 182.195 45.528C183.66 40.2831 183.325 34.7041 181.242 29.6687V29.6559ZM160.124 57.4242C155.534 57.8619 150.944 56.5966 147.241 53.8732C146.22 53.1243 145.278 52.2756 144.429 51.3398C141.761 48.4001 140.118 44.6878 139.742 40.7512C139.699 40.296 139.673 39.8452 139.664 39.3943C139.562 34.7195 141.247 30.1792 144.38 26.6835C147.513 23.1878 151.863 20.9949 156.559 20.5443C160.971 20.1266 165.39 21.2762 169.027 23.7881C172.664 26.3 175.283 30.0109 176.416 34.2589C176.678 35.2296 176.857 36.2208 176.949 37.2216C177.416 42.1113 175.907 46.9848 172.752 50.7725C169.598 54.5602 165.056 56.9525 160.124 57.4242Z" fill="#FFCF40"/>
<path d="M139.742 40.7512C140.118 44.6877 141.761 48.4001 144.429 51.3398L140.059 55.5263C137.2 52.4368 135.197 48.666 134.245 44.5813L139.664 39.4286C139.673 39.8452 139.699 40.296 139.742 40.7512Z" fill="#FFEC73"/>
<path d="M175.693 21.4846L171.318 25.6582C168.111 22.5937 163.904 20.7663 159.457 20.5056L164.876 15.3272C168.953 16.4318 172.676 18.5514 175.693 21.4846Z" fill="#FFEC73"/>
<path d="M152.911 56.7072L148.086 61.3188C146.202 60.4694 144.434 59.3889 142.822 58.1027L147.241 53.8861C148.954 55.1416 150.872 56.0959 152.911 56.7072Z" fill="#FFEC73"/>
<path d="M181.242 29.6558L176.416 34.2588C175.877 32.2136 174.983 30.2768 173.774 28.5351L178.188 24.3185C179.432 25.9612 180.458 27.7549 181.242 29.6558Z" fill="#FFEC73"/>
<path d="M188.543 52.0284L86.6104 61.6861C78.2463 62.4786 72.1139 69.8419 72.9134 78.1326L79.0875 142.159C79.887 150.449 87.3156 156.528 95.6797 155.735L197.613 146.078C205.977 145.285 212.109 137.922 211.31 129.631L205.136 65.6052C204.336 57.3145 196.908 51.236 188.543 52.0284Z" fill="#997055"/>
<path d="M211.422 114.249L168.853 118.285C167.163 118.444 165.48 117.932 164.171 116.862C162.863 115.791 162.036 114.249 161.874 112.575L159.968 92.8228C159.887 91.9941 159.972 91.1577 160.218 90.3616C160.464 89.5654 160.866 88.8251 161.4 88.183C161.935 87.541 162.592 87.0097 163.334 86.6196C164.076 86.2295 164.889 85.9883 165.725 85.9097L208.611 81.8391C210.3 81.6801 211.984 82.1922 213.293 83.263C214.601 84.3338 215.427 85.8757 215.59 87.55L217.465 106.993C217.633 108.749 217.091 110.499 215.958 111.86C214.825 113.22 213.194 114.08 211.422 114.249Z" fill="#997055"/>
<path d="M204.543 59.4166L210.681 123.052C211.071 127.083 209.83 131.103 207.231 134.228C204.631 137.353 200.886 139.327 196.819 139.716L95.2708 149.343C91.2039 149.727 87.1494 148.496 83.9974 145.92C80.8454 143.344 78.8534 139.633 78.4587 135.603L72.3204 71.9547C71.9305 67.923 73.1717 63.9029 75.7711 60.7781C78.3705 57.6532 82.1153 55.6793 86.1824 55.2902L187.727 45.6505C189.741 45.4568 191.775 45.6588 193.71 46.2447C195.646 46.8306 197.447 47.789 199.008 49.0652C200.57 50.3413 201.863 51.9102 202.813 53.6819C203.762 55.4537 204.35 57.3937 204.543 59.3909V59.4166Z" fill="#E6A97F"/>
<path d="M210.786 109.861L168.428 113.88C166.739 114.039 165.055 113.527 163.747 112.456C162.438 111.385 161.612 109.843 161.45 108.169L159.544 88.4173C159.463 87.5886 159.548 86.7522 159.794 85.9561C160.04 85.1599 160.441 84.4196 160.976 83.7775C161.511 83.1354 162.168 82.6041 162.91 82.2141C163.652 81.824 164.465 81.5828 165.301 81.5042L208.187 77.4336C209.876 77.2745 211.56 77.7867 212.868 78.8575C214.177 79.9283 215.003 81.4702 215.165 83.1445L217.019 102.377C217.192 104.188 216.633 105.993 215.464 107.396C214.295 108.8 212.613 109.686 210.786 109.861Z" fill="#997055"/>
<path d="M214.927 80.6497L217.435 106.645L168.259 111.308C166.55 111.465 164.847 110.944 163.523 109.861C162.199 108.777 161.362 107.218 161.194 105.524L159.305 85.9269C159.147 84.2302 159.674 82.5406 160.77 81.228C161.866 79.9154 163.442 79.0868 165.153 78.9236L207.875 74.8702C209.582 74.717 211.28 75.2383 212.601 76.3208C213.922 77.4033 214.758 78.9592 214.927 80.6497Z" fill="#FFD2B3"/>
<path d="M215.174 83.2175L217.435 106.645L168.259 111.308C166.549 111.465 164.847 110.944 163.523 109.861C162.199 108.777 161.362 107.218 161.194 105.524L159.552 88.4946C159.393 86.7999 159.916 85.1116 161.009 83.7985C162.101 82.4854 163.674 81.6544 165.383 81.487L208.108 77.425C209.819 77.2683 211.523 77.7898 212.847 78.8754C214.172 79.9609 215.008 81.5222 215.174 83.2175Z" fill="#E6A97F"/>
<path d="M182.927 83.6559L168.395 85.0328C165.978 85.2618 164.205 87.3899 164.436 89.7859L165.825 104.191C166.057 106.587 168.203 108.343 170.621 108.114L185.153 106.738C187.57 106.509 189.343 104.38 189.112 101.984L187.723 87.5797C187.492 85.1836 185.345 83.4269 182.927 83.6559Z" fill="#5E4D66"/>
<path d="M182.756 81.8598L168.224 83.2367C165.806 83.4657 164.034 85.5938 164.265 87.9899L165.654 102.395C165.885 104.791 168.032 106.547 170.449 106.318L184.982 104.941C187.399 104.712 189.171 102.584 188.94 100.188L187.551 85.7836C187.32 83.3875 185.173 81.6308 182.756 81.8598Z" fill="#8C7399"/>
<path d="M184.344 84.7933C184.067 84.5664 183.747 84.3958 183.404 84.2913C183.06 84.1868 182.699 84.1505 182.342 84.1844C181.984 84.2183 181.637 84.3217 181.319 84.4888C181.002 84.656 180.721 84.8834 180.493 85.1583L176.784 89.611C176.638 89.786 176.428 89.8965 176.2 89.9182C175.972 89.9399 175.744 89.8712 175.567 89.7269L171.075 86.0514C170.798 85.8245 170.479 85.6539 170.135 85.5494C169.792 85.4449 169.431 85.4086 169.073 85.4425C168.715 85.4764 168.368 85.5798 168.051 85.7469C167.733 85.9141 167.452 86.1415 167.224 86.4164C166.995 86.6909 166.823 87.0074 166.717 87.3479C166.612 87.6884 166.575 88.0461 166.61 88.4007C166.644 88.7552 166.748 89.0996 166.917 89.4141C167.085 89.7286 167.315 90.0071 167.592 90.2336L172.084 93.9092C172.261 94.0541 172.372 94.2624 172.394 94.4885C172.416 94.7147 172.347 94.9402 172.201 95.1157L168.493 99.5685C168.264 99.843 168.092 100.16 167.987 100.5C167.881 100.84 167.845 101.198 167.879 101.553C167.913 101.907 168.017 102.252 168.186 102.566C168.355 102.881 168.584 103.159 168.861 103.386C169.138 103.613 169.458 103.783 169.801 103.888C170.145 103.992 170.506 104.029 170.863 103.995C171.221 103.961 171.568 103.857 171.886 103.69C172.203 103.523 172.484 103.296 172.712 103.021L176.416 98.568C176.562 98.393 176.773 98.2826 177.001 98.2608C177.229 98.2391 177.456 98.3079 177.633 98.4521L182.126 102.128C182.403 102.355 182.722 102.525 183.065 102.63C183.409 102.734 183.77 102.77 184.128 102.737C184.485 102.703 184.833 102.599 185.15 102.432C185.467 102.265 185.748 102.037 185.977 101.763C186.206 101.488 186.378 101.172 186.483 100.831C186.589 100.491 186.625 100.133 186.591 99.7783C186.557 99.4238 186.452 99.0794 186.284 98.7649C186.115 98.4504 185.886 98.1719 185.609 97.9454L181.116 94.2699C180.94 94.1244 180.83 93.9157 180.809 93.6896C180.788 93.4635 180.858 93.2383 181.004 93.0633L184.707 88.6105C184.937 88.3366 185.11 88.0203 185.216 87.6799C185.322 87.3395 185.359 86.9817 185.326 86.627C185.292 86.2723 185.188 85.9277 185.019 85.613C184.851 85.2984 184.621 85.0198 184.344 84.7933Z" fill="#E6E6E6"/>
<path d="M192.847 46.024L75.8509 108.534L72.3204 71.9547C71.9305 67.923 73.1717 63.9029 75.7711 60.778C78.3705 57.6531 82.1153 55.6792 86.1824 55.2902L187.727 45.6505C189.442 45.4893 191.173 45.6156 192.847 46.024Z" fill="#FFD2B3"/>
<path d="M90.9648 69.3011L191.058 59.8116" stroke="#997055" stroke-width="7" stroke-miterlimit="10" stroke-linecap="round" stroke-dasharray="20 20"/>
<path d="M93.8806 160.03C117.654 160.03 136.927 140.927 136.927 117.362C136.927 93.7973 117.654 74.6942 93.8806 74.6942C70.1069 74.6942 50.8345 93.7973 50.8345 117.362C50.8345 140.927 70.1069 160.03 93.8806 160.03Z" fill="#CCEEFF"/>
<path d="M93.8804 69.5244C83.857 69.521 74.0468 72.3927 65.6334 77.7931C57.22 83.1935 50.5629 90.8918 46.4654 99.9591C42.3678 109.026 41.005 119.075 42.5412 128.893C44.0774 138.711 48.447 147.879 55.1229 155.29L25.4537 184.716C25.3671 184.802 25.2891 184.896 25.2068 184.986L23.539 185.368L23.5 189.349V189.555C23.5319 190.847 23.9458 192.102 24.6905 193.164C25.4351 194.225 26.4777 195.047 27.6889 195.526C28.9002 196.006 30.2268 196.122 31.5044 195.862C32.7819 195.601 33.9541 194.974 34.8756 194.059L65.2466 163.959C72.0037 168.386 79.7116 171.184 87.7544 172.131C95.7972 173.079 103.952 172.149 111.568 169.415C119.183 166.682 126.048 162.221 131.614 156.388C137.18 150.556 141.293 143.515 143.625 135.826C145.956 128.138 146.441 120.015 145.041 112.108C143.641 104.201 140.394 96.7272 135.561 90.2851C130.728 83.843 124.441 78.6106 117.204 75.0058C109.967 71.4011 101.98 69.524 93.8804 69.5244ZM93.8804 163.672C85.3665 163.672 77.0436 161.171 69.9641 156.483C62.8846 151.795 57.3666 145.131 54.1079 137.335C50.8492 129.538 49.9961 120.959 51.6566 112.682C53.317 104.405 57.4164 96.8017 63.4364 90.8341C69.4563 84.8664 77.1264 80.8022 85.4766 79.1555C93.8269 77.5088 102.482 78.3535 110.348 81.5829C118.214 84.8122 124.937 90.2811 129.667 97.2979C134.398 104.315 136.922 112.564 136.922 121.003C136.908 132.315 132.369 143.159 124.301 151.158C116.232 159.157 105.292 163.657 93.8804 163.672Z" fill="#5E4D66"/>
<path d="M93.8804 65.8831C83.8562 65.8779 74.0446 68.7485 65.63 74.1486C57.2154 79.5486 50.5574 87.2473 46.4596 96.3153C42.3617 105.383 40.9992 115.433 42.5364 125.252C44.0737 135.07 48.445 144.238 55.1228 151.649L25.4536 181.075C24.2031 182.314 23.5005 183.995 23.5005 185.748C23.5005 187.501 24.2031 189.183 25.4536 190.422C26.7042 191.662 28.4003 192.358 30.1689 192.358C31.9375 192.358 33.6336 191.662 34.8842 190.422L65.2552 160.322C72.0128 164.747 79.7208 167.545 87.7635 168.491C95.8063 169.437 103.961 168.506 111.576 165.772C119.191 163.037 126.055 158.576 131.62 152.743C137.185 146.911 141.298 139.869 143.628 132.18C145.958 124.492 146.443 116.37 145.042 108.463C143.641 100.555 140.394 93.0827 135.561 86.6411C130.727 80.1995 124.441 74.9676 117.204 71.3633C109.967 67.7591 101.98 65.8824 93.8804 65.8831ZM128.904 142.142C123.608 149.504 116.088 155.006 107.432 157.856C98.7751 160.706 89.4287 160.756 80.7417 157.998C72.0547 155.24 64.4764 149.818 59.1009 142.513C53.7253 135.208 50.8305 126.4 50.8342 117.358C50.8237 109.591 52.9666 101.972 57.0289 95.3304C61.6277 87.7955 68.4527 81.8444 76.5788 78.2838C85.2097 74.5185 94.8495 73.6679 104.016 75.8628C113.182 78.0576 121.367 83.1764 127.312 90.4319C133.257 97.6873 136.633 106.678 136.921 116.02C137.208 125.363 134.392 134.541 128.904 142.142Z" fill="#8C7399"/>
<path d="M91.5498 85.622C106.937 85.622 125.993 100.187 125.993 119.763" stroke="white" stroke-width="13" stroke-miterlimit="10" stroke-linecap="round"/>
<path d="M70.7916 71.2419L76.579 78.2838C68.453 81.8444 61.628 87.7955 57.0291 95.3304L51.1074 88.1597C56.1168 80.9584 62.8901 75.137 70.7916 71.2419Z" fill="#BEA3CC"/>
<path d="M134.691 149.21C129.314 155.974 122.315 161.296 114.331 164.693L108.405 157.523C116.647 154.571 123.789 149.207 128.887 142.142L134.691 149.21Z" fill="#BEA3CC"/>
</g>
<defs>
<clipPath id="clip0_1601_20080">
<rect width="194" height="192" fill="white" transform="translate(23.5 4)"/>
</clipPath>
</defs>
</svg>
