<svg width="241" height="200" viewBox="0 0 241 200" fill="none" xmlns="http://www.w3.org/2000/svg">
<g clip-path="url(#clip0_1485_5736)">
<path d="M184.116 16.7487V158.48L156.062 186.751L152.744 190.09L152.522 190.313L150.282 192.564H71.9778C70.2017 192.556 68.4841 191.928 67.1215 190.788C65.7588 189.648 64.8368 188.068 64.5145 186.32C64.4222 185.841 64.3752 185.355 64.3742 184.868V16.7487C64.3672 15.7425 64.5583 14.7448 64.9366 13.8126C65.315 12.8803 65.8731 12.0317 66.5792 11.3153C67.2852 10.5989 68.1254 10.0287 69.0517 9.63718C69.978 9.24569 70.9723 9.0406 71.9778 9.03364H176.517C177.394 9.02985 178.264 9.18397 179.086 9.4886C180.567 10.0359 181.845 11.0262 182.745 12.325C183.645 13.6238 184.123 15.1683 184.116 16.7487Z" fill="#A1ACB3"/>
<path d="M186.569 17.0681V156.728L183.812 159.458L175.54 167.686L164.242 178.9L152.71 190.342H74.4352C72.4199 190.342 70.4871 189.541 69.062 188.115C67.637 186.689 66.8364 184.755 66.8364 182.738V17.0681C66.8364 15.0515 67.637 13.1175 69.062 11.6915C70.4871 10.2655 72.4199 9.46442 74.4352 9.46442H178.975C180.989 9.4657 182.921 10.2674 184.345 11.6932C185.769 13.119 186.569 15.0523 186.569 17.0681Z" fill="#F2F9FF"/>
<path d="M184 156.728L152.71 190.342H150.137V163.596C150.137 161.774 150.86 160.027 152.147 158.739C153.434 157.451 155.18 156.728 157 156.728H184Z" fill="#A1ACB3"/>
<path d="M138.934 79.7565H154.413C154.81 79.7574 155.199 79.8703 155.535 80.0823C155.871 80.2942 156.14 80.5966 156.312 80.9548C156.485 81.313 156.552 81.7125 156.508 82.1075C156.464 82.5025 156.309 82.877 156.062 83.1881C154.877 84.7072 153.362 85.9359 151.631 86.7805C149.9 87.6251 147.999 88.0634 146.074 88.062H103.412C100.994 88.062 98.6753 87.1008 96.9654 85.3898C95.2555 83.6788 94.2949 81.3582 94.2949 78.9385V51.9165C94.2949 50.718 94.5309 49.5312 94.9894 48.424C95.4479 47.3167 96.1199 46.3108 96.9671 45.4635C97.8142 44.6162 98.8199 43.9443 99.9267 43.4861C101.033 43.0279 102.22 42.7924 103.417 42.793H146.054C147.873 42.7911 149.672 43.1819 151.326 43.9386C152.98 44.6954 154.452 45.8003 155.641 47.1781C155.901 47.4859 156.067 47.8615 156.121 48.2607C156.175 48.66 156.114 49.0663 155.944 49.4319C155.775 49.7974 155.505 50.1071 155.166 50.3243C154.827 50.5415 154.433 50.6573 154.03 50.6581H138.683C136.743 50.6601 134.823 51.0499 133.036 51.8046C131.249 52.5592 129.631 53.6635 128.276 55.0525C126.921 56.4416 125.857 58.0876 125.147 59.8937C124.436 61.6998 124.093 63.6298 124.138 65.5703C124.308 73.4983 130.992 79.7565 138.934 79.7565Z" fill="#82D9AD"/>
<path d="M159.932 54.1816H138.649C135.731 54.1829 132.932 55.3441 130.868 57.4099C128.805 59.4756 127.646 62.2768 127.646 65.1976C127.647 68.1175 128.807 70.9175 130.87 72.9822C132.933 75.0469 135.731 76.2074 138.649 76.2087H159.932C160.584 76.2087 161.23 76.0801 161.832 75.8302C162.434 75.5804 162.982 75.2142 163.443 74.7525C163.903 74.2909 164.269 73.7429 164.518 73.1398C164.767 72.5368 164.895 71.8905 164.894 71.238V59.1379C164.892 57.8225 164.368 56.5619 163.437 55.6327C162.507 54.7035 161.246 54.1816 159.932 54.1816ZM139.651 72.9852C138.154 72.9862 136.691 72.543 135.447 71.7118C134.202 70.8806 133.231 69.6987 132.658 68.3156C132.085 66.9325 131.934 65.4103 132.226 63.9416C132.517 62.4728 133.237 61.1236 134.295 60.0644C135.353 59.0053 136.701 58.2838 138.168 57.9914C139.636 57.6989 141.157 57.8485 142.54 58.4213C143.922 58.9941 145.104 59.9644 145.935 61.2093C146.767 62.4543 147.211 63.918 147.211 65.4154C147.211 67.4222 146.414 69.3469 144.997 70.7664C143.579 72.1859 141.656 72.984 139.651 72.9852Z" fill="#82D9AD"/>
<path d="M127.302 40.5182C128.139 38.7991 129.374 37.3054 130.906 36.1621C132.307 35.1199 133.921 34.4001 135.632 34.0541C137.343 33.7081 139.11 33.7445 140.806 34.1606C142.501 34.5767 144.084 35.3623 145.442 36.4613C146.799 37.5602 147.897 38.9455 148.657 40.5182H127.302Z" fill="#82D9AD"/>
<path d="M125.3 39.5453L124.816 40.5133H108.419C108.59 38.0997 109.495 35.7961 111.012 33.9116C112.528 32.0271 114.585 30.6518 116.905 29.9703C119.225 29.2887 121.698 29.3334 123.993 30.0985C126.287 30.8635 128.292 32.3122 129.74 34.2503L129.58 34.3713C127.764 35.7319 126.296 37.5054 125.3 39.5453Z" fill="#82D9AD"/>
<path d="M162.8 126.352H135.297C134.25 126.358 133.22 126.086 132.312 125.563C131.404 125.04 130.652 124.285 130.132 123.375C129.827 122.818 129.493 122.281 129.135 121.758C126.671 118.162 123.1 115.471 118.965 114.094C114.83 112.717 110.359 112.731 106.233 114.132C102.106 115.534 98.5512 118.247 96.1087 121.858C93.6662 125.469 92.4704 129.78 92.7034 134.134C92.9364 138.489 94.5855 142.647 97.3995 145.977C100.213 149.306 104.038 151.624 108.29 152.576C112.542 153.529 116.989 153.065 120.954 151.254C124.918 149.443 128.181 146.385 130.248 142.546C130.759 141.612 131.513 140.834 132.43 140.294C133.347 139.754 134.393 139.472 135.457 139.478H149.76C150.797 139.482 151.79 139.895 152.524 140.629C153.258 141.362 153.673 142.356 153.678 143.393V148.718C153.678 149.873 154.136 150.981 154.953 151.798C155.769 152.615 156.876 153.074 158.031 153.074H162.263C163.469 153.072 164.624 152.593 165.477 151.74C166.329 150.887 166.808 149.73 166.81 148.524V130.364C166.81 129.3 166.387 128.279 165.635 127.527C164.883 126.774 163.863 126.352 162.8 126.352ZM111.278 141.041C109.815 140.79 108.451 140.141 107.332 139.166C106.213 138.191 105.384 136.928 104.935 135.513C104.486 134.098 104.434 132.587 104.785 131.145C105.136 129.702 105.876 128.384 106.925 127.335C107.974 126.285 109.291 125.544 110.732 125.193C112.174 124.842 113.684 124.894 115.098 125.343C116.511 125.793 117.775 126.623 118.749 127.742C119.723 128.861 120.371 130.227 120.622 131.69C120.84 132.967 120.749 134.277 120.357 135.512C119.964 136.746 119.282 137.868 118.367 138.784C117.451 139.7 116.33 140.383 115.096 140.775C113.863 141.168 112.553 141.259 111.278 141.041Z" fill="#E67E7E"/>
<path d="M186.568 156.728L152.71 190.342V163.596C152.71 161.774 153.433 160.027 154.72 158.739C156.007 157.451 157.753 156.728 159.573 156.728H186.568Z" fill="#CFDEE6"/>
<path opacity="0.3" d="M184.387 83.2268L169.639 85.5597L165.504 86.2131L162.563 86.6971C162.166 86.7596 161.786 86.8997 161.444 87.1094C161.101 87.3192 160.804 87.5945 160.568 87.9196C160.332 88.2446 160.162 88.6131 160.069 89.0038C159.976 89.3945 159.96 89.7998 160.024 90.1965L162.21 104.049L159.903 104.412C157.929 104.748 156.17 105.854 155.012 107.488C153.854 109.122 153.391 111.149 153.726 113.124L163.69 176.238C163.833 177.134 164.026 178.021 164.27 178.895L175.569 167.681C176.222 165.126 177.612 162.82 179.565 161.05C180.887 160.277 182.334 159.743 183.84 159.472L186.598 156.742V83.7253C185.954 83.2763 185.161 83.0973 184.387 83.2268Z" fill="black"/>
<path d="M66.8315 163.238V139.197L92.6702 176.95V180.076C92.6702 180.5 92.5496 180.914 92.3224 181.272C92.0952 181.629 91.7709 181.914 91.3876 182.093C91.0042 182.273 90.5777 182.339 90.158 182.284C89.7384 182.23 89.343 182.056 89.0183 181.785L66.8315 163.238Z" fill="#A1ACB3"/>
<path d="M52.9104 10.5725L94.9284 140.184C96.7528 145.817 97.4288 151.758 96.9164 157.657L96.2876 164.951L95.1025 178.692C95.0627 179.198 94.878 179.682 94.5705 180.086C94.2397 180.516 93.7858 180.835 93.2694 181C92.7723 181.168 92.2363 181.183 91.7309 181.042C91.2254 180.902 90.7739 180.612 90.4349 180.211L81.4093 169.781L76.6208 164.249C72.7451 159.773 69.8075 154.564 67.9821 148.93L25.9835 19.3184C25.2665 17.109 25.3828 14.7133 26.3105 12.5839C27.2382 10.4544 28.913 8.73855 31.0187 7.7604L31.4443 7.57648C31.6475 7.4942 31.8555 7.41676 32.0683 7.349L40.9488 4.48369C43.342 3.70665 45.9454 3.91133 48.1879 5.05283C50.4304 6.19433 52.1288 8.1794 52.9104 10.5725Z" fill="#FFCCCC"/>
<path d="M49.9312 11.9135L93.5212 146.385C95.4157 152.216 96.1599 158.361 95.7123 164.477L94.5708 180.086C94.24 180.516 93.7862 180.835 93.2697 181.001C92.7727 181.169 92.2366 181.183 91.7312 181.043C91.2258 180.902 90.7743 180.612 90.4353 180.212L76.6212 164.24C72.7455 159.764 69.8078 154.554 67.9825 148.921L26.0758 19.6576C24.5328 14.8611 26.7142 9.76933 31.019 7.7607L31.4447 7.57678C31.6478 7.4945 31.8558 7.41706 32.0686 7.3493L37.8584 5.452C42.8452 3.84994 48.2335 6.73945 49.9312 11.9135Z" fill="#F29191"/>
<path d="M93.2697 181.001C92.7725 181.167 92.2368 181.181 91.7317 181.041C91.2266 180.9 90.775 180.611 90.4352 180.212L76.6211 164.24C72.7454 159.764 69.8078 154.554 67.9824 148.921L25.9838 19.3187C25.2412 17.0333 25.3918 14.5512 26.4051 12.3724C27.4184 10.1937 29.2191 8.48004 31.4446 7.57678L73.9705 138.742C76.3743 146.157 79.3449 153.375 82.8559 160.334L93.2697 181.001Z" fill="#CC7070"/>
<path d="M59.3261 30.3579L32.3784 39.1038L33.8871 43.7584L60.8347 35.0125L59.3261 30.3579Z" fill="#804040"/>
<path d="M88.9345 121.712L61.9868 130.458L63.4955 135.112L90.4431 126.366L88.9345 121.712Z" fill="#804040"/>
<path d="M96.2879 164.951L95.1029 178.692C95.063 179.198 94.8783 179.682 94.5708 180.086C94.24 180.516 93.7862 180.835 93.2697 181.001C92.7727 181.169 92.2366 181.183 91.7312 181.043C91.2258 180.902 90.7743 180.612 90.4353 180.212L81.4097 169.781L96.2879 164.951Z" fill="#804040"/>
<path d="M196.329 99.7314L166.824 104.397C164.851 104.733 163.092 105.84 161.933 107.474C160.775 109.107 160.313 111.134 160.647 113.109L170.607 176.224C172.541 188.324 183.27 197.123 195.173 195.884C208.034 194.548 216.939 182.496 214.908 169.588L204.895 106.125C204.753 105.142 204.419 104.197 203.911 103.343C203.403 102.49 202.733 101.745 201.937 101.151C201.141 100.557 200.237 100.126 199.274 99.8824C198.312 99.6388 197.311 99.5875 196.329 99.7314ZM194.486 186.673C187.816 187.288 181.596 182.656 180.111 175.962C178.307 167.85 183.84 160.048 191.932 159.298C198.602 158.678 204.828 163.315 206.312 170.014C208.107 178.131 202.574 185.928 194.486 186.673Z" fill="#4D8699"/>
<path d="M198.888 99.349L169.383 104.015C168.415 104.167 167.486 104.508 166.65 105.02C165.813 105.531 165.086 106.203 164.509 106.996C163.933 107.789 163.518 108.688 163.288 109.641C163.059 110.595 163.019 111.584 163.172 112.553L172.914 174.254C174.776 186.044 185.432 194.582 197.287 193.411H197.403C200.43 193.099 203.363 192.173 206.02 190.689C208.678 189.206 211.006 187.196 212.862 184.782C214.718 182.368 216.063 179.602 216.814 176.65C217.566 173.699 217.709 170.626 217.234 167.618L207.435 105.568C207.283 104.598 206.941 103.667 206.429 102.829C205.917 101.991 205.245 101.262 204.451 100.684C203.657 100.107 202.757 99.6913 201.802 99.4622C200.848 99.233 199.857 99.1946 198.888 99.349ZM194.307 157.604C196.076 157.421 197.864 157.592 199.566 158.106C201.269 158.62 202.852 159.467 204.225 160.598C205.598 161.729 206.732 163.122 207.563 164.695C208.393 166.269 208.904 167.991 209.064 169.764C209.224 171.536 209.031 173.322 208.495 175.019C207.96 176.716 207.094 178.29 205.946 179.649C204.798 181.008 203.392 182.125 201.809 182.937C200.227 183.748 198.499 184.236 196.726 184.374C196.6 184.374 196.47 184.398 196.339 184.398C193.004 184.612 189.709 183.573 187.099 181.486C184.488 179.398 182.75 176.412 182.222 173.11C181.695 169.808 182.417 166.427 184.248 163.63C186.078 160.832 188.886 158.818 192.121 157.981C192.838 157.793 193.569 157.667 194.307 157.604Z" fill="#A5F2FF"/>
<path d="M196.334 99.7313L169.393 103.995C168.425 104.148 167.496 104.489 166.659 105.001C165.823 105.512 165.096 106.183 164.519 106.976C163.942 107.769 163.527 108.668 163.298 109.622C163.069 110.575 163.029 111.565 163.182 112.533L172.924 174.234C174.786 186.025 185.442 194.562 197.297 193.391C202.885 192.177 207.797 188.87 211.026 184.148C214.256 179.427 215.558 173.647 214.666 167.995L204.866 105.946C204.558 103.99 203.486 102.236 201.886 101.071C200.286 99.9054 198.289 99.4236 196.334 99.7313ZM196.726 184.374C196.6 184.374 196.47 184.398 196.339 184.398C195.626 184.583 194.9 184.709 194.167 184.776C190.65 185.047 187.168 183.922 184.472 181.645C181.777 179.368 180.085 176.122 179.761 172.607C179.438 169.092 180.51 165.59 182.744 162.859C184.979 160.128 188.198 158.387 191.705 158.01C191.841 158.01 191.986 157.986 192.121 157.981C192.824 157.796 193.54 157.669 194.264 157.604C196.021 157.442 197.792 157.628 199.477 158.151C201.161 158.675 202.727 159.525 204.083 160.653C205.44 161.782 206.561 163.167 207.382 164.729C208.204 166.291 208.71 167.999 208.871 169.757C209.033 171.515 208.847 173.287 208.324 174.973C207.801 176.659 206.952 178.225 205.824 179.583C204.696 180.94 203.312 182.062 201.751 182.884C200.19 183.706 198.483 184.212 196.726 184.374Z" fill="#5CD4E6"/>
<path d="M169.871 86.6166L187.931 83.7608C188.837 83.6176 189.762 83.8403 190.504 84.3801C191.246 84.9198 191.743 85.7323 191.887 86.6389L194.012 100.097L169.14 104.03L167.014 90.5719C166.871 89.6654 167.094 88.739 167.633 87.9967C168.173 87.2543 168.985 86.7568 169.891 86.6135L169.871 86.6166Z" fill="#6C7580"/>
<path d="M194.815 85.7581L197.001 99.6297L172.116 103.565L169.924 89.6931C169.862 89.2987 169.877 88.8958 169.97 88.5074C170.063 88.119 170.232 87.7527 170.466 87.4295C170.701 87.1063 170.997 86.8325 171.337 86.6238C171.677 86.4151 172.055 86.2755 172.449 86.2131L191.337 83.2268C192.134 83.1014 192.948 83.2976 193.6 83.7722C194.252 84.2469 194.689 84.9612 194.815 85.7581Z" fill="#BCC7CC"/>
<path d="M195.957 93.0085L197.001 99.6297L191.681 100.472L170.345 92.268L169.939 89.6931C169.876 89.2987 169.892 88.8958 169.985 88.5074C170.078 88.119 170.246 87.7527 170.481 87.4295C170.715 87.1063 171.011 86.8326 171.351 86.6238C171.692 86.4151 172.07 86.2755 172.464 86.2131L176.604 85.5597L195.957 93.0085Z" fill="#F0F5F7"/>
<path d="M183.98 130.635C182.081 132.084 180.718 134.125 180.106 136.435C179.494 138.745 179.668 141.194 180.6 143.394C181.533 145.594 183.172 147.421 185.257 148.586C187.343 149.751 189.756 150.189 192.118 149.829C194.479 149.469 196.653 148.333 198.298 146.599C199.942 144.866 200.963 142.634 201.199 140.255C201.435 137.877 200.873 135.488 199.601 133.464C198.33 131.441 196.421 129.899 194.177 129.081C193.649 128.884 193.183 128.548 192.829 128.11C192.474 127.672 192.243 127.147 192.16 126.589L190.612 116.773L189.848 111.933C189.758 111.366 189.448 110.858 188.984 110.521C188.521 110.183 187.942 110.044 187.376 110.133L182.539 110.897L177.736 111.657C177.095 111.76 176.522 112.112 176.141 112.638C175.76 113.163 175.603 113.819 175.705 114.46L176.058 116.71C176.156 117.321 176.493 117.867 176.993 118.23C177.493 118.593 178.117 118.743 178.728 118.646L181.548 118.201C182.102 118.115 182.667 118.252 183.121 118.582C183.574 118.912 183.878 119.409 183.966 119.963L185.166 127.576C185.264 128.146 185.206 128.731 184.998 129.27C184.789 129.809 184.437 130.281 183.98 130.635ZM186.37 140.596C186.073 139.72 186.063 138.773 186.34 137.891C186.617 137.009 187.168 136.238 187.912 135.69C188.656 135.142 189.555 134.844 190.479 134.841C191.403 134.839 192.304 135.13 193.051 135.673C193.799 136.217 194.354 136.984 194.637 137.864C194.92 138.745 194.915 139.692 194.624 140.57C194.333 141.447 193.771 142.209 193.018 142.746C192.265 143.282 191.362 143.565 190.438 143.553C189.537 143.542 188.663 143.251 187.934 142.722C187.205 142.192 186.659 141.449 186.37 140.596Z" fill="#4D8699"/>
</g>
<defs>
<clipPath id="clip0_1485_5736">
<rect width="192" height="192" fill="white" transform="translate(25.5 4)"/>
</clipPath>
</defs>
</svg>
