<svg width="241" height="200" viewBox="0 0 241 200" fill="none" xmlns="http://www.w3.org/2000/svg">
<g clip-path="url(#clip0_1156_10394)">
<path d="M212.582 136.946L214.453 153.856C214.512 154.382 214.467 154.915 214.321 155.424C214.175 155.933 213.93 156.408 213.6 156.822C213.27 157.236 212.863 157.581 212.4 157.837C211.937 158.092 211.429 158.254 210.904 158.313L177.944 162.016C174.571 162.394 171.18 161.485 168.447 159.469C165.714 157.452 163.84 154.478 163.199 151.138C163.088 147.732 164.263 144.41 166.491 141.835C168.718 139.26 171.833 137.623 175.213 137.251L208.336 133.534C209.35 133.425 210.366 133.722 211.162 134.362C211.958 135.001 212.468 135.93 212.582 136.946Z" fill="#997055"/>
<path d="M198.338 185.717H198.226L152.864 190.807L117.827 194.753L108.054 195.85L107.46 195.92H107.352C105.106 196.173 102.839 195.7 100.881 194.57C98.9221 193.44 97.3751 191.713 96.4652 189.64C96.0481 188.68 95.7725 187.665 95.6468 186.626C95.6468 186.598 95.6468 186.575 95.6468 186.547L95.5486 185.675L95.0809 181.583L93.7715 169.829L93.1308 164.134L92.883 161.894L91.1807 146.695L90.671 142.125L90.353 139.313L89.3803 130.605V130.46C89.1185 127.773 89.8876 125.088 91.5313 122.949C93.1749 120.811 95.5696 119.38 98.2282 118.949C98.3999 118.916 98.5732 118.893 98.7473 118.878L144.24 113.765L174.235 110.4L189.71 108.614C189.878 108.614 190.056 108.577 190.229 108.572C192.942 108.4 195.618 109.28 197.702 111.03C199.786 112.78 201.119 115.266 201.425 117.974L202.729 129.663L202.977 131.823L203.23 134.096L205.502 154.447L205.76 156.72L205.998 158.88L207.13 169.004V169.051L207.686 173.986C207.996 176.784 207.186 179.59 205.434 181.79C203.681 183.989 201.129 185.401 198.338 185.717Z" fill="#997055"/>
<path d="M197.782 180.735L116.57 189.851L112.543 190.32L107.16 190.919L106.796 190.966C105.945 191.063 105.086 191.053 104.238 190.938C102.831 190.752 101.476 190.284 100.253 189.564C99.0293 188.843 97.9625 187.884 97.1153 186.743C96.961 186.537 96.816 186.322 96.671 186.101C95.8048 184.742 95.2623 183.201 95.0857 181.597L93.1356 164.148L92.8877 161.908L91.1855 146.709L90.6757 142.139L90.3577 139.327L89.371 130.474L88.8285 125.651C88.5234 122.94 89.2712 120.216 90.9169 118.043C92.5626 115.87 94.9799 114.415 97.6671 113.981C97.8355 113.953 98.0085 113.924 98.1815 113.906L189.163 103.693C189.341 103.693 189.509 103.656 189.682 103.651C192.398 103.479 195.075 104.361 197.16 106.114C199.244 107.867 200.575 110.357 200.877 113.067L201.434 118.035L202.739 129.724L202.982 131.884L203.239 134.157L205.503 154.447L205.76 156.72L205.998 158.88L207.13 169.004V169.051C207.428 171.841 206.612 174.636 204.861 176.825C203.109 179.015 200.564 180.42 197.782 180.735Z" fill="#E6A97F"/>
<path d="M189.677 103.59L174.221 110.353L149.698 121.086L97.4424 143.944L96.5913 144.319L91.1806 146.69L90.6708 142.12L90.3528 139.308L89.3661 130.455L88.8236 125.632C88.5185 122.921 89.2664 120.197 90.9121 118.024C92.5578 115.851 94.975 114.396 97.6622 113.962C97.8306 113.934 98.0036 113.906 98.1766 113.887L189.158 103.674C189.336 103.614 189.504 103.595 189.677 103.59Z" fill="#FFD2B3"/>
<path d="M205.194 133.886L207.719 156.485L178.341 159.766C171.939 160.497 166.112 157.024 163.788 151.635C163.338 150.603 163.209 149.46 163.418 148.354C163.846 146.096 164.848 143.988 166.327 142.233C168.722 139.389 172.119 137.579 175.811 137.18L205.194 133.886Z" fill="#997055"/>
<path d="M212.087 132.508L214.425 153.43L177.481 157.577C174.296 157.936 171.088 157.146 168.431 155.349C165.775 153.553 163.844 150.867 162.984 147.773C162.789 147.073 162.706 146.347 162.74 145.621C162.893 142.411 164.181 139.36 166.373 137.016C168.566 134.671 171.521 133.186 174.708 132.826L207.836 129.105C208.849 128.994 209.865 129.29 210.662 129.928C211.458 130.565 211.97 131.493 212.087 132.508Z" fill="#FFD2B3"/>
<path d="M212.33 134.673L214.425 153.42L177.481 157.568C175.689 157.772 173.875 157.612 172.146 157.099C170.417 156.585 168.809 155.728 167.417 154.578C165.328 152.831 163.998 150.339 163.709 147.627C163.42 144.916 164.195 142.198 165.869 140.049L165.921 139.983C167.024 138.595 168.39 137.438 169.941 136.58C171.491 135.722 173.195 135.179 174.956 134.982L208.079 131.266C209.093 131.155 210.11 131.451 210.907 132.09C211.703 132.728 212.215 133.657 212.33 134.673Z" fill="#E6A97F"/>
<path d="M100.042 126.659L191.585 116.385" stroke="#997055" stroke-width="5" stroke-miterlimit="10" stroke-linecap="round" stroke-dasharray="20 20"/>
<path d="M176.494 154.25C180.492 154.25 183.733 151.002 183.733 146.995C183.733 142.988 180.492 139.739 176.494 139.739C172.496 139.739 169.255 142.988 169.255 146.995C169.255 151.002 172.496 154.25 176.494 154.25Z" fill="#6C7580"/>
<path d="M183.523 144.707C183.73 146.549 183.227 148.4 182.116 149.882C181.005 151.363 179.37 152.362 177.547 152.674C175.724 152.985 173.852 152.586 172.313 151.558C170.775 150.53 169.687 148.951 169.274 147.145C169.212 146.874 169.165 146.6 169.133 146.324C168.923 144.482 169.425 142.629 170.536 141.146C171.646 139.662 173.282 138.662 175.106 138.349C176.929 138.037 178.804 138.436 180.343 139.465C181.882 140.494 182.97 142.075 183.383 143.883C183.446 144.154 183.493 144.43 183.523 144.707Z" fill="#DBE3E6"/>
<path d="M183.382 143.883L172.683 151.789C171.828 151.289 171.085 150.619 170.499 149.82C169.913 149.021 169.496 148.111 169.273 147.145L179.973 139.243C180.827 139.742 181.571 140.411 182.157 141.209C182.743 142.007 183.16 142.917 183.382 143.883Z" fill="#FAFDFF"/>
<path d="M158.546 139.318C158.406 137.731 157.943 136.19 157.184 134.79C156.425 133.391 155.388 132.162 154.136 131.181C151.531 129.082 148.089 128.233 143.815 128.693C139.657 129.138 136.426 130.774 133.994 133.604C132.205 135.758 131.174 138.444 131.062 141.244C131.037 141.653 131.101 142.063 131.251 142.444C131.401 142.826 131.632 143.17 131.928 143.453C132.224 143.735 132.579 143.949 132.966 144.08C133.354 144.211 133.765 144.256 134.172 144.211L136.122 144C136.752 143.931 137.34 143.651 137.791 143.206C138.241 142.76 138.529 142.174 138.605 141.544C138.951 138.338 140.999 136.206 144.53 135.821C148.061 135.437 150.427 137.387 150.745 140.339C151.063 143.292 149.988 144.642 147.032 147.22L142.561 151.189C142.225 151.487 141.964 151.861 141.801 152.28C141.638 152.699 141.578 153.151 141.626 153.598L141.916 156.293C141.955 156.661 142.066 157.018 142.243 157.343C142.42 157.668 142.659 157.954 142.947 158.186C143.234 158.418 143.565 158.591 143.919 158.695C144.273 158.799 144.645 158.832 145.012 158.791L147.252 158.552C147.943 158.478 148.582 158.149 149.045 157.63C149.508 157.11 149.762 156.437 149.759 155.74C149.759 155.642 149.759 155.539 149.759 155.436C149.709 154.978 149.772 154.515 149.942 154.088C150.113 153.661 150.385 153.282 150.736 152.984L151.33 152.478L153.504 150.603C154.209 149.988 154.871 149.325 155.487 148.621C156.254 147.842 156.896 146.948 157.391 145.973C158.359 143.897 158.758 141.6 158.546 139.318ZM151.166 168.727L150.928 166.482C150.889 166.114 150.778 165.758 150.601 165.433C150.424 165.108 150.185 164.821 149.897 164.589C149.61 164.357 149.279 164.184 148.925 164.08C148.57 163.977 148.199 163.944 147.832 163.984L145.592 164.228C145.224 164.267 144.868 164.378 144.543 164.554C144.218 164.731 143.932 164.971 143.7 165.259C143.468 165.548 143.295 165.879 143.191 166.234C143.087 166.59 143.054 166.962 143.095 167.331L143.338 169.576C143.377 169.944 143.488 170.3 143.665 170.625C143.842 170.95 144.081 171.237 144.368 171.469C144.656 171.701 144.986 171.874 145.341 171.978C145.695 172.081 146.066 172.114 146.434 172.074L148.674 171.83C149.041 171.791 149.397 171.68 149.721 171.502C150.045 171.325 150.331 171.085 150.563 170.797C150.794 170.509 150.967 170.178 151.07 169.823C151.174 169.467 151.206 169.095 151.166 168.727Z" fill="#997055"/>
<path d="M112.141 159.321L97.4424 144.009L96.3107 142.833L90.6475 136.927L90.6708 142.158L91.1806 146.77L92.9062 162.124C95.2615 161.449 97.7565 161.435 100.119 162.084C102.482 162.733 104.621 164.019 106.304 165.803C107.726 167.296 108.816 169.075 109.502 171.021C110.187 172.967 110.454 175.036 110.284 177.093C109.657 179.345 108.485 181.406 106.87 183.092C105.583 184.44 104.03 185.504 102.311 186.219C100.672 186.899 98.9116 187.234 97.1384 187.203C96.6473 187.199 96.1569 187.164 95.67 187.1C95.7951 188.148 96.0708 189.172 96.4884 190.141C98.0247 191 99.7566 191.446 101.516 191.435H102.222H104.251H107.174L112.047 191.412C112.22 191.224 112.393 191.027 112.557 190.826C113.749 189.417 114.754 187.859 115.545 186.19C116.766 183.582 117.464 180.759 117.598 177.881C118.22 174.575 118.049 171.169 117.1 167.942C116.151 164.715 114.451 161.761 112.141 159.321Z" fill="#997055"/>
<path d="M36.4655 142.908L78.9655 185.502C82.7937 189.306 87.9698 191.436 93.361 191.424C98.7522 191.413 103.92 189.262 107.732 185.442C111.544 181.622 113.692 176.443 113.704 171.04C113.716 165.637 111.592 160.449 107.796 156.612L65.3148 114.018C64.6967 113.398 63.9627 112.906 63.1546 112.57C62.3465 112.234 61.4803 112.061 60.6056 112.061C59.7308 112.061 58.8646 112.234 58.0565 112.57C57.2485 112.906 56.5144 113.398 55.8963 114.018L36.4888 133.464C35.2364 134.713 34.5303 136.41 34.5259 138.181C34.5215 139.952 35.2192 141.652 36.4655 142.908ZM82.7628 180.065C80.8135 178.13 79.4812 175.659 78.9346 172.965C78.3879 170.27 78.6517 167.474 79.6924 164.93C80.7331 162.386 82.5039 160.209 84.7804 158.674C87.0569 157.14 89.7366 156.317 92.4801 156.311C95.2235 156.304 97.9071 157.114 100.191 158.637C102.475 160.161 104.256 162.329 105.309 164.868C106.362 167.407 106.639 170.202 106.105 172.899C105.571 175.596 104.251 178.074 102.311 180.018C99.725 182.617 96.2158 184.082 92.5534 184.091C88.891 184.1 85.3748 182.652 82.7768 180.065H82.7628Z" fill="#CC8F52"/>
<path d="M38.5234 140.649L80.1443 182.361C83.8689 186.095 88.9207 188.192 94.1885 188.193C99.4563 188.193 104.508 186.096 108.234 182.364C111.959 178.631 114.052 173.568 114.052 168.288C114.053 163.009 111.961 157.946 108.236 154.212L66.6152 112.5C66.0115 111.894 65.2945 111.413 64.5053 111.085C63.7161 110.757 62.8702 110.589 62.0158 110.589C61.1615 110.589 60.3156 110.757 59.5264 111.085C58.7372 111.413 58.0202 111.894 57.4165 112.5L38.5234 131.425C37.3035 132.648 36.6182 134.307 36.6182 136.037C36.6182 137.766 37.3035 139.425 38.5234 140.649ZM83.8434 177.051C81.9554 175.159 80.6696 172.748 80.1488 170.123C79.6279 167.498 79.8953 164.778 80.9172 162.305C81.9391 159.833 83.6696 157.72 85.8898 156.233C88.11 154.746 90.7203 153.953 93.3905 153.953C96.0607 153.953 98.6709 154.746 100.891 156.233C103.111 157.72 104.842 159.833 105.864 162.305C106.886 164.778 107.153 167.498 106.632 170.123C106.111 172.748 104.826 175.159 102.938 177.051C100.405 179.588 96.971 181.013 93.3905 181.013C89.81 181.013 86.376 179.588 83.8434 177.051Z" fill="#FFD172"/>
<path d="M27.2202 120.186L38.5186 131.505L53.9183 116.071L42.6246 104.766C42.3952 104.536 42.1226 104.353 41.8225 104.228C41.5223 104.103 41.2006 104.039 40.8756 104.039C40.5506 104.039 40.2288 104.103 39.9287 104.228C39.6285 104.353 39.356 104.536 39.1266 104.766L27.2202 116.694C27.051 116.869 26.9063 117.066 26.79 117.28C26.5418 117.747 26.4497 118.281 26.5272 118.804C26.6046 119.327 26.8476 119.812 27.2202 120.186Z" fill="#6C7580"/>
<path d="M28.9693 118.358L40.2631 129.677L55.6675 114.243L44.3691 102.924C44.1409 102.695 43.8698 102.513 43.5713 102.388C43.2728 102.264 42.9527 102.2 42.6294 102.2C42.3061 102.2 41.986 102.264 41.6875 102.388C41.389 102.513 41.1179 102.695 40.8897 102.924L28.9693 114.871C28.7992 115.045 28.6529 115.24 28.5344 115.452C28.2869 115.92 28.1956 116.454 28.2739 116.977C28.3521 117.5 28.5959 117.984 28.9693 118.358Z" fill="#DBE3E6"/>
<path d="M28.9693 118.358L32.3177 121.714L51.1406 118.78L55.6675 114.243L53.0627 111.633L28.5344 115.452C28.2869 115.92 28.1956 116.454 28.2739 116.977C28.3521 117.5 28.5959 117.984 28.9693 118.358Z" fill="#FAFDFF"/>
<path d="M63.2199 142.894C62.6857 144.684 62.7617 146.602 63.4357 148.344C64.1097 150.087 65.3433 151.555 66.9421 152.517C68.5409 153.478 70.4136 153.879 72.265 153.656C74.1163 153.433 75.8408 152.598 77.1663 151.284C78.4919 149.97 79.343 148.25 79.5855 146.397C79.828 144.544 79.4479 142.663 78.5053 141.051C77.5628 139.438 76.1113 138.186 74.38 137.492C72.6487 136.798 70.7361 136.702 68.9439 137.218C68.5196 137.336 68.0714 137.338 67.6462 137.224C67.2209 137.109 66.8341 136.882 66.5262 136.566L61.0593 131.088L58.3516 128.379C58.1952 128.221 58.0094 128.096 57.8047 128.011C57.6001 127.926 57.3807 127.882 57.1591 127.882C56.9376 127.882 56.7182 127.926 56.5135 128.011C56.3089 128.096 56.123 128.221 55.9666 128.379L53.2636 131.088L50.5793 133.773C50.2223 134.133 50.022 134.62 50.022 135.128C50.022 135.635 50.2223 136.122 50.5793 136.482L51.8373 137.743C52.1792 138.085 52.6426 138.277 53.1257 138.277C53.6087 138.277 54.0721 138.085 54.414 137.743L55.99 136.168C56.3003 135.858 56.7208 135.684 57.1591 135.684C57.5975 135.684 58.0179 135.858 58.3283 136.168L62.5792 140.428C62.8964 140.744 63.1232 141.14 63.2359 141.573C63.3486 142.007 63.3431 142.463 63.2199 142.894ZM69.2993 148.091C68.7098 147.674 68.2681 147.079 68.0383 146.394C67.8084 145.708 67.8023 144.966 68.0208 144.277C68.2393 143.588 68.6711 142.986 69.2537 142.559C69.8362 142.131 70.5393 141.901 71.2611 141.901C71.9829 141.901 72.686 142.131 73.2686 142.559C73.8511 142.986 74.2829 143.588 74.5014 144.277C74.7199 144.966 74.7138 145.708 74.4839 146.394C74.2541 147.079 73.8124 147.674 73.2229 148.091C72.6488 148.497 71.9636 148.715 71.2611 148.715C70.5587 148.715 69.8734 148.497 69.2993 148.091Z" fill="#CC7070"/>
<path d="M121.901 17.5448C114.115 17.5154 106.418 19.2051 99.3568 22.4938C92.2959 25.7826 86.0445 30.5896 81.0468 36.5732L39.5943 9.44594C38.1643 8.50684 36.4205 8.17553 34.7468 8.52492C33.073 8.8743 31.6062 9.87574 30.6692 11.3089C29.7322 12.7421 29.4016 14.4897 29.7502 16.1672C30.0988 17.8447 31.0981 19.3146 32.5281 20.2537L74.0087 47.3857C70.3094 54.9465 68.4595 63.2814 68.612 71.7009C69.0796 100.464 92.6211 123.846 121.321 124.071C128.378 124.128 135.376 122.776 141.906 120.094C148.436 117.411 154.368 113.452 159.355 108.447C164.342 103.443 168.285 97.4927 170.953 90.9447C173.621 84.3966 174.961 77.3816 174.895 70.3089C174.628 41.2741 150.862 17.6197 121.901 17.5448ZM123.234 115.443C114.299 115.741 105.481 113.338 97.9262 108.548C90.3715 103.758 84.4291 96.8007 80.8712 88.5813C77.3133 80.3619 76.3043 71.26 77.9754 62.4584C79.6466 53.6568 83.9205 45.5624 90.2419 39.2271C96.5634 32.8918 104.64 28.6084 113.422 26.9335C122.204 25.2587 131.286 26.2699 139.488 29.8357C147.689 33.4014 154.63 39.357 159.41 46.9283C164.19 54.4997 166.587 63.3368 166.29 72.2914C165.903 83.6134 161.242 94.366 153.249 102.376C145.255 110.386 134.526 115.056 123.229 115.443H123.234Z" fill="#7EA66B"/>
<path d="M153.272 102.398C170.667 84.9639 170.657 56.6878 153.249 39.2413C135.841 21.7947 107.627 21.7843 90.2315 39.2181C72.8361 56.6518 72.8465 84.9279 90.2547 102.374C107.663 119.821 135.877 119.831 153.272 102.398Z" fill="#CCEEFF"/>
<path d="M135.407 45.0612V56.1127C135.38 58.0202 134.942 59.8993 134.121 61.6204C133.299 63.3415 132.116 64.8635 130.651 66.0816L127.545 68.7624C126.276 69.8095 124.683 70.382 123.04 70.382C121.396 70.382 119.803 69.8095 118.534 68.7624L115.429 66.0769C113.964 64.859 112.78 63.3369 111.96 61.6157C111.14 59.8945 110.702 58.0153 110.677 56.108V45.0612C110.678 43.9352 110.845 42.8154 111.173 41.7383L111.463 40.8009C112.866 36.1844 117.622 32.9692 123.042 32.9692C128.467 32.9692 133.213 36.1844 134.621 40.8009L134.916 41.7383C135.241 42.8157 135.407 43.9354 135.407 45.0612Z" fill="#70AECC"/>
<path d="M152.045 84.6365V90.4997C152.045 90.5934 152.045 90.6918 152.045 90.7856C151.992 91.3124 151.818 91.8197 151.535 92.2671C151.253 92.7146 150.87 93.0899 150.418 93.3633L149.754 93.7851L146.326 95.9457C139.84 100.033 132.335 102.202 124.674 102.203H121.433C113.772 102.202 106.266 100.033 99.7807 95.9457L96.3528 93.7851L95.6887 93.3633C95.2364 93.0893 94.8535 92.714 94.5704 92.2667C94.2872 91.8194 94.1113 91.3124 94.0566 90.7856C94.0566 90.6918 94.0566 90.5934 94.0566 90.4997V84.6365C94.0566 83.3584 94.4114 82.1055 95.0812 81.018C95.7509 79.9304 96.7094 79.0509 97.8493 78.478L108.998 72.8538C109.785 72.4659 110.671 72.3238 111.539 72.4458C112.408 72.5677 113.22 72.9483 113.871 73.5381C116.934 76.2236 123.06 76.3502 123.06 76.3502C123.06 76.3502 129.191 76.2236 132.254 73.5381C132.905 72.9477 133.717 72.5668 134.586 72.4448C135.455 72.3228 136.34 72.4653 137.127 72.8538L148.276 78.478C149.412 79.0542 150.365 79.935 151.031 81.0224C151.696 82.1097 152.047 83.3609 152.045 84.6365Z" fill="#70AECC"/>
<path d="M121.901 13.1532C114.115 13.1239 106.419 14.8132 99.3578 18.101C92.2971 21.3889 86.0454 26.1946 81.0468 32.1769L39.5943 5.04967C38.8862 4.58468 38.0937 4.26401 37.2619 4.10598C36.4302 3.94795 35.5755 3.95565 34.7468 4.12865C33.073 4.47803 31.6062 5.47948 30.6692 6.91268C29.7322 8.34588 29.4016 10.0934 29.7502 11.7709C30.0988 13.4484 31.0981 14.9184 32.5281 15.8575L74.0087 42.9894C70.3093 50.5519 68.4594 58.8883 68.612 67.3093C69.0796 96.0676 92.6211 119.455 121.321 119.675C128.378 119.733 135.376 118.381 141.907 115.699C148.437 113.016 154.369 109.057 159.356 104.052C164.344 99.0477 168.286 93.0975 170.954 86.5491C173.622 80.0008 174.962 72.9855 174.895 65.9126C174.628 36.8825 150.862 13.2282 121.901 13.1532ZM123.234 111.047C114.3 111.344 105.484 108.941 97.9305 104.151C90.3772 99.3603 84.4361 92.4041 80.8791 84.1857C77.3221 75.9673 76.3137 66.8668 77.9848 58.0665C79.6559 49.2662 83.9293 41.1731 90.2498 34.8387C96.5703 28.5043 104.646 24.2214 113.426 22.5466C122.207 20.8718 131.288 21.8825 139.488 25.4474C147.688 29.0122 154.629 34.9664 159.409 42.5363C164.189 50.1062 166.586 58.9419 166.29 67.8952C165.904 79.2175 161.244 89.9707 153.25 97.9811C145.256 105.991 134.526 110.661 123.229 111.047H123.234Z" fill="#AFF291"/>
<path d="M121.751 36.5217C133.737 36.5217 156.011 45.2392 156.011 70.8573" stroke="white" stroke-width="12" stroke-miterlimit="10" stroke-linecap="round"/>
</g>
<defs>
<clipPath id="clip0_1156_10394">
<rect width="188" height="192" fill="white" transform="translate(26.5 4)"/>
</clipPath>
</defs>
</svg>
