<svg width="170" height="20" viewBox="0 0 170 20" fill="none" xmlns="http://www.w3.org/2000/svg">
<path d="M2.8125 19.9141V0.0581055H6.54298V19.9154H2.8125V19.9141Z" fill="#00E2DC"/>
<path d="M13.2573 9.98609C13.2573 13.5035 16.2711 16.3682 19.9717 16.3682H26.686V12.5676H19.9717V9.02173H30.4165V19.9141H19.9717C14.2121 19.9141 9.52686 15.4607 9.52686 9.98609C9.52686 4.51148 14.2121 0.0581055 19.9717 0.0581055H30.4165V3.604H19.9717C16.2725 3.604 13.2573 6.46863 13.2573 9.98609Z" fill="#00E2DC"/>
<path d="M54.2926 0.0581055V9.98609C54.2926 15.4607 49.6074 19.9141 43.8478 19.9141C38.0882 19.9141 33.403 15.4607 33.403 9.98609V0.0581055H37.1334V9.98609C37.1334 13.5035 40.1472 16.3682 43.8478 16.3682C47.5483 16.3682 50.5621 13.5035 50.5621 9.98609V0.0581055H54.2926Z" fill="#00E2DC"/>
<path d="M77.3908 0.0581055L75.48 3.604L66.7352 19.9154L57.9904 3.604L56.0809 0.0581055H60.2589L62.1683 3.604L66.7338 12.1139L71.2993 3.604L73.2088 0.0581055H77.3908Z" fill="#00E2DC"/>
<path d="M81.6272 5.41896V7.26235H95.0572V10.8082H81.6272V14.5532C81.6272 15.546 82.4922 16.3682 83.5366 16.3682H98.7863V19.9141H83.5366C80.4331 19.9141 77.9266 17.5032 77.9266 14.5532V5.41896C77.9266 2.469 80.4331 0.0581055 83.5366 0.0581055H98.7863V3.604H83.5366C82.4922 3.604 81.6272 4.42616 81.6272 5.41896Z" fill="#00E2DC"/>
<path d="M118.633 16.3965L120.542 19.9424H116.364L114.455 16.3965L112.456 12.68L112.366 12.5093C111.709 11.4881 110.545 10.8068 109.203 10.8068H105.472V19.9411H101.742V0.0864258H114.932C116.484 0.0864258 117.886 0.682364 118.902 1.64672C119.917 2.63952 120.544 3.9723 120.544 5.44728C120.544 7.60351 119.201 9.47534 117.261 10.3259C116.753 10.5535 116.216 10.6944 115.649 10.7512L118.633 16.3965ZM114.932 7.26224C115.2 7.26224 115.469 7.20536 115.709 7.0916C116.396 6.8085 116.843 6.15568 116.843 5.44598C116.843 4.79317 116.485 4.33943 116.276 4.14164C116.037 3.91413 115.589 3.63103 114.934 3.63103H105.473V7.29068L114.932 7.26224Z" fill="#00E2DC"/>
<path d="M139.582 5.56115V5.44739C139.582 4.4546 138.717 3.63244 137.673 3.63244H129.197C128.153 3.63244 127.288 4.4546 127.288 5.44739V5.56115C127.288 6.55395 128.153 7.37611 129.197 7.37611H136.718C138.657 7.37611 140.389 8.16983 141.583 9.41859C141.673 9.5039 141.732 9.58922 141.822 9.67454C142.747 10.7527 143.314 12.1423 143.314 13.6457C143.314 17.1063 140.36 19.9154 136.718 19.9154H130.182C126.541 19.9154 123.586 17.1076 123.586 13.6457H127.316C127.316 15.1491 128.6 16.3695 130.182 16.3695H136.718C138.3 16.3695 139.614 15.1491 139.614 13.6457C139.614 12.1423 138.3 10.922 136.718 10.922H129.197C127.675 10.922 126.303 10.3545 125.287 9.41859C125.018 9.16392 124.78 8.87953 124.571 8.56799C123.944 7.71739 123.586 6.66771 123.586 5.53271V5.41895C123.586 2.469 126.092 0.0581055 129.196 0.0581055H137.671C140.775 0.0581055 143.311 2.469 143.311 5.41895V5.53271L139.582 5.56115Z" fill="#00E2DC"/>
<path d="M150.027 5.41896V7.26235H163.457V10.8082H150.027V14.5532C150.027 15.546 150.892 16.3682 151.937 16.3682H167.186V19.9141H151.937C148.833 19.9141 146.327 17.5032 146.327 14.5532V5.41896C146.327 2.469 148.833 0.0581055 151.937 0.0581055H167.186V3.604H151.937C150.892 3.604 150.027 4.42616 150.027 5.41896Z" fill="#00E2DC"/>
</svg>
