<svg width="26" height="28" viewBox="0 0 26 28" fill="none" xmlns="http://www.w3.org/2000/svg">
<g clip-path="url(#clip0_4262_68309)">
<path d="M15.7993 18.944V21.856H17.1362V17.856C16.6085 18.1073 16.1499 18.4805 15.7993 18.944ZM14.0573 0H3.06669C2.25475 -2.79797e-06 1.47595 0.317919 0.901071 0.88405C0.326188 1.45018 0.00214514 2.21831 0 3.02V24.972C0 25.7751 0.323096 26.5453 0.898212 27.1131C1.47333 27.681 2.25335 28 3.06669 28H11.1446V24.04H2.33749C2.20593 24.0405 2.07558 24.0153 1.95393 23.9659C1.83229 23.9164 1.72177 23.8437 1.62875 23.7518C1.53572 23.66 1.46204 23.5508 1.41194 23.4307C1.36185 23.3106 1.33633 23.1819 1.33687 23.052C1.33687 19.488 1.33687 7.228 1.36522 3.66C1.36841 3.40074 1.47468 3.15311 1.66112 2.97053C1.84755 2.78794 2.09921 2.68503 2.36179 2.684H14.7622C15.0258 2.68293 15.2791 2.78504 15.4667 2.96796C15.6542 3.15088 15.7607 3.39972 15.7629 3.66C15.7629 5.564 15.7629 9.928 15.7629 14.136C16.1952 13.955 16.6461 13.8208 17.1078 13.736V3.02C17.1057 2.22108 16.7839 1.45536 16.2125 0.88968C15.6411 0.324004 14.8665 0.00421879 14.0573 0V0Z" fill="#AECCD9"/>
<path d="M1.36523 3.66001C1.36523 7.22801 1.36523 19.488 1.34092 23.052C1.34039 23.1816 1.36577 23.31 1.41561 23.4298C1.46546 23.5496 1.53878 23.6586 1.63137 23.7504C1.72397 23.8422 1.83401 23.915 1.95518 23.9647C2.07636 24.0144 2.20628 24.04 2.33749 24.04H5.67155L4.45622 28H3.07074C2.66753 28.0011 2.26807 27.9235 1.8953 27.7717C1.52252 27.62 1.18376 27.3971 0.898455 27.1157C0.613151 26.8344 0.386919 26.5002 0.232739 26.1323C0.0785595 25.7645 -0.000532071 25.3701 2.69375e-06 24.972V3.02001C0.000533735 2.62256 0.0804117 2.2291 0.235068 1.86215C0.389725 1.49521 0.616126 1.16196 0.901324 0.881473C1.18652 0.600988 1.52492 0.378766 1.89717 0.227517C2.26942 0.0762681 2.66821 -0.00104122 3.07074 1.05899e-05H13.1053L12.2708 2.68401H2.36585C2.10256 2.68399 1.84987 2.78644 1.66256 2.96913C1.47526 3.15183 1.36842 3.40006 1.36523 3.66001Z" fill="#CEE6F2"/>
<path d="M11.7928 0.824219H5.33124C5.08513 0.824219 4.88562 1.02121 4.88562 1.26422C4.88562 1.50722 5.08513 1.70422 5.33124 1.70422H11.7928C12.0389 1.70422 12.2384 1.50722 12.2384 1.26422C12.2384 1.02121 12.0389 0.824219 11.7928 0.824219Z" fill="#899499"/>
<path d="M8.56407 27.3228C9.29345 27.3228 9.88473 26.739 9.88473 26.0188C9.88473 25.2987 9.29345 24.7148 8.56407 24.7148C7.83469 24.7148 7.24341 25.2987 7.24341 26.0188C7.24341 26.739 7.83469 27.3228 8.56407 27.3228Z" fill="#899499"/>
<path d="M18.7242 25.7823C17.5315 25.782 16.3856 25.3245 15.5278 24.5063L17.3225 22.7383H12.0317V27.9623L13.956 26.0623C14.8243 26.9049 15.9048 27.5033 17.0858 27.7954C18.2668 28.0876 19.5053 28.0629 20.6734 27.724C21.8415 27.3851 22.8967 26.7442 23.7299 25.8677C24.5631 24.9912 25.144 23.9108 25.4125 22.7383H23.0913C22.7734 23.6305 22.1822 24.4029 21.3996 24.9483C20.6171 25.4938 19.682 25.7852 18.7242 25.7823Z" fill="#73D3E6"/>
<path d="M25.9999 14.9276L24.0149 16.8876C23.1727 15.8819 22.0544 15.1378 20.7942 14.7446C19.5341 14.3514 18.1858 14.3259 16.9113 14.671C15.6368 15.0161 14.4903 15.7173 13.6096 16.6902C12.7289 17.6631 12.1515 18.8664 11.9467 20.1556H14.2355C14.4339 19.3114 14.8728 18.5409 15.5003 17.9351C16.1279 17.3293 16.918 16.9135 17.7773 16.7369C18.6365 16.5602 19.529 16.6301 20.3493 16.9381C21.1696 17.2462 21.8835 17.7797 22.4066 18.4756L20.7092 20.1516H25.9999V14.9276Z" fill="#73D3E6"/>
<path d="M7.18262 9.12891H5.08009C4.59906 9.12891 4.20911 9.51394 4.20911 9.98891V12.0649C4.20911 12.5399 4.59906 12.9249 5.08009 12.9249H7.18262C7.66365 12.9249 8.05361 12.5399 8.05361 12.0649V9.98891C8.05361 9.51394 7.66365 9.12891 7.18262 9.12891Z" fill="#C3D2D9"/>
<path d="M12.0439 9.12891H9.94142C9.46039 9.12891 9.07043 9.51394 9.07043 9.98891V12.0649C9.07043 12.5399 9.46039 12.9249 9.94142 12.9249H12.0439C12.525 12.9249 12.9149 12.5399 12.9149 12.0649V9.98891C12.9149 9.51394 12.525 9.12891 12.0439 9.12891Z" fill="#DAEAF2"/>
<path d="M7.18262 13.8008H5.08009C4.59906 13.8008 4.20911 14.1858 4.20911 14.6608V16.7368C4.20911 17.2117 4.59906 17.5968 5.08009 17.5968H7.18262C7.66365 17.5968 8.05361 17.2117 8.05361 16.7368V14.6608C8.05361 14.1858 7.66365 13.8008 7.18262 13.8008Z" fill="#DAEAF2"/>
<path d="M12.9149 14.6608V16.2608C12.5503 16.6719 12.2324 17.1213 11.967 17.6008H9.94141C9.82722 17.6008 9.71415 17.5785 9.60871 17.5352C9.50326 17.492 9.40751 17.4286 9.32696 17.3487C9.2464 17.2687 9.18263 17.1739 9.1393 17.0696C9.09597 16.9653 9.07394 16.8535 9.07447 16.7408V14.6608C9.07447 14.4334 9.16568 14.2152 9.32814 14.0541C9.49061 13.8929 9.71111 13.8018 9.94141 13.8008H12.048C12.2783 13.8018 12.4988 13.8929 12.6612 14.0541C12.8237 14.2152 12.9149 14.4334 12.9149 14.6608Z" fill="#C3D2D9"/>
</g>
<defs>
<clipPath id="clip0_4262_68309">
<rect width="26" height="28" fill="white"/>
</clipPath>
</defs>
</svg>
