<svg width="28" height="28" viewBox="0 0 28 28" fill="none" xmlns="http://www.w3.org/2000/svg">
<g clip-path="url(#clip0_4262_68228)">
<path d="M21.08 10.3516H3.08001C2.67572 10.351 2.2753 10.4302 1.90164 10.5846C1.52798 10.739 1.18842 10.9655 0.902359 11.2512C0.616302 11.5369 0.389368 11.8763 0.234534 12.2498C0.0797006 12.6233 5.10826e-06 13.0237 5.45009e-06 13.428V26.5299C-0.000520756 26.723 0.0370619 26.9144 0.1106 27.093C0.184138 27.2716 0.292187 27.4339 0.428556 27.5706C0.564925 27.7074 0.726933 27.8159 0.905301 27.8899C1.08367 27.964 1.27489 28.0021 1.46801 28.0021H21.54C22.2331 28.0021 22.8979 27.727 23.3884 27.2372C23.8789 26.7474 24.1549 26.0829 24.156 25.3897V13.428C24.156 12.6121 23.8319 11.8296 23.2551 11.2526C22.6782 10.6757 21.8958 10.3516 21.08 10.3516Z" fill="#F2B77E"/>
<path d="M5.42397 3.47303e-06H17.488C18.099 3.47303e-06 18.6851 0.24278 19.1171 0.674926C19.5492 1.10707 19.792 1.69319 19.792 2.30433V23.3473H3.11597V2.30433C3.11597 2.00139 3.17569 1.70141 3.29173 1.42158C3.40777 1.14174 3.57784 0.887539 3.79221 0.67351C4.00658 0.459481 4.26104 0.289828 4.54104 0.174261C4.82103 0.0586927 5.12106 -0.000522474 5.42397 3.47303e-06Z" fill="#E6F7FF"/>
<path opacity="0.1" d="M20.152 3.10938H6.47595C5.64753 3.10938 4.97595 3.78104 4.97595 4.60959V24.9605C4.97595 25.789 5.64753 26.4607 6.47595 26.4607H20.152C20.9804 26.4607 21.652 25.789 21.652 24.9605V4.60959C21.652 3.78104 20.9804 3.10938 20.152 3.10938Z" fill="black"/>
<path d="M7.69206 2.32422H21.2001C21.6244 2.32422 22.0314 2.49281 22.3314 2.79291C22.6315 3.09302 22.8001 3.50004 22.8001 3.92445V25.6756H6.11206V3.90444C6.11725 3.48695 6.28538 3.08802 6.58057 2.79279C6.87576 2.49756 7.27463 2.32941 7.69206 2.32422Z" fill="white"/>
<path d="M7.69206 2.87109H21.2001C21.6244 2.87109 22.0314 3.03969 22.3314 3.33979C22.6315 3.63989 22.8001 4.04692 22.8001 4.47132V26.2184H6.11206V4.45132C6.11725 4.03383 6.28538 3.6349 6.58057 3.33967C6.87576 3.04443 7.27463 2.87628 7.69206 2.87109Z" fill="#F2FBFF"/>
<path d="M26.432 14.8009H7.19997C6.42155 14.7941 5.65964 15.0254 5.01625 15.4636C4.37287 15.9019 3.87872 16.5263 3.59997 17.2533L0.0679732 26.6266C0.00888396 26.7799 -0.0119997 26.9453 0.00712598 27.1085C0.0262517 27.2717 0.0848118 27.4278 0.177748 27.5633C0.270684 27.6987 0.395202 27.8096 0.540547 27.8861C0.685891 27.9627 0.847692 28.0028 1.01197 28.0028H21.232C21.9582 28.0026 22.6671 27.7812 23.2645 27.3681C23.8618 26.9551 24.3193 26.3699 24.576 25.6905L27.896 16.9092C27.9827 16.6729 28.0112 16.4191 27.9791 16.1694C27.9471 15.9197 27.8554 15.6814 27.7118 15.4746C27.5682 15.2678 27.3769 15.0986 27.1542 14.9814C26.9314 14.8641 26.6837 14.8022 26.432 14.8009Z" fill="#FFD499"/>
<path d="M20.16 5.375H8.732C8.38517 5.375 8.104 5.65621 8.104 6.00309C8.104 6.34997 8.38517 6.63118 8.732 6.63118H20.16C20.5068 6.63118 20.788 6.34997 20.788 6.00309C20.788 5.65621 20.5068 5.375 20.16 5.375Z" fill="#C3D9E6"/>
<path d="M20.16 8.79688H8.732C8.38517 8.79688 8.104 9.07808 8.104 9.42496C8.104 9.77185 8.38517 10.0531 8.732 10.0531H20.16C20.5068 10.0531 20.788 9.77185 20.788 9.42496C20.788 9.07808 20.5068 8.79688 20.16 8.79688Z" fill="#C3D9E6"/>
<path d="M20.16 12.2188H8.732C8.38517 12.2188 8.104 12.5 8.104 12.8468C8.104 13.1937 8.38517 13.4749 8.732 13.4749H20.16C20.5068 13.4749 20.788 13.1937 20.788 12.8468C20.788 12.5 20.5068 12.2188 20.16 12.2188Z" fill="#C3D9E6"/>
</g>
<defs>
<clipPath id="clip0_4262_68228">
<rect width="28" height="28" fill="white"/>
</clipPath>
</defs>
</svg>
