<svg width="28" height="28" viewBox="0 0 28 28" fill="none" xmlns="http://www.w3.org/2000/svg">
<g clip-path="url(#clip0_4262_68138)">
<path d="M14 28.004C21.732 28.004 28 21.7351 28 14.002C28 6.26891 21.732 0 14 0C6.26801 0 0 6.26891 0 14.002C0 21.7351 6.26801 28.004 14 28.004Z" fill="#B3F2FF"/>
<path d="M7.60001 7.70584C4.50401 9.13805 4.85601 10.6783 3.12401 12.3065C2.62508 12.7118 2.0028 12.9348 1.36001 12.9386L0.0360107 13.0346C0.0720107 12.5705 0.124011 12.0985 0.204011 11.6424C0.769963 8.2849 2.54755 5.2516 5.20001 3.11719C5.75743 3.2083 6.30705 3.34204 6.84401 3.51724C8.86801 4.30136 9.96801 6.60969 7.60001 7.70584Z" fill="#73D3E6"/>
<path d="M7.95603 24.6519C7.95603 24.82 7.86403 25.268 7.82803 25.412C7.76678 25.7568 7.60701 26.0763 7.36803 26.3322C4.18072 24.6154 1.78226 21.7305 0.676025 18.283C1.02025 17.9885 1.41449 17.7582 1.84003 17.6029C3.94803 16.9228 6.16403 16.2547 6.35603 18.5391C6.54803 20.8234 8.42803 20.9434 7.95603 24.6519Z" fill="#73D3E6"/>
<path d="M21.944 22.6318C21.108 22.6318 23.004 19.4313 23.58 18.8352C24.156 18.2392 24.284 19.6754 23.8 20.7355C23.316 21.7957 22.96 22.6318 21.944 22.6318Z" fill="#73D3E6"/>
<path d="M14.472 3.02043C13.084 3.46049 11.56 4.77268 11.272 3.75654C11.16 3.33248 11.428 2.95642 11.752 2.55637C12.0291 2.22985 12.2201 1.83912 12.3074 1.41983C12.3948 1.00054 12.3757 0.566053 12.252 0.156022V0.124018C12.8311 0.0423604 13.4152 0.000922002 14 0C14.14 0 14.64 0.924132 14.64 0.924132C14.844 1.4002 15.856 2.58437 14.472 3.02043Z" fill="#73D3E6"/>
<path d="M28 14.0038V14.1718L27.736 14.0038C27.0132 13.5239 26.1745 13.2475 25.308 13.2036C24.252 13.1516 23.024 12.9916 22.828 12.1915C22.632 11.3914 22.384 10.4753 21.628 10.6233C21.228 10.7033 21.164 10.8953 21.164 11.3234C21.164 13.6757 24.208 12.2595 22.056 16.4521C21.164 18.1924 21.9 22.2449 19.36 22.0529C15.36 21.7649 18.196 16.004 13.02 15.488C11.208 15.3159 10.296 11.0873 12.836 10.2872C16.352 9.14707 21.032 10.4272 21.032 7.90689C21.032 6.53069 20.316 6.11063 19.292 6.13064C17.78 6.18264 15.84 8.64299 14 8.64299C12.724 8.64299 12.136 8.57098 12.136 7.76687C12.1784 7.20386 12.3024 6.64999 12.504 6.12263C12.6571 5.54987 12.9783 5.03609 13.426 4.64749C13.8737 4.2589 14.4275 4.01329 15.016 3.94232C15.7922 3.84626 16.5467 3.62042 17.248 3.27423C17.594 3.07352 17.8674 2.76832 18.0291 2.40247C18.1908 2.03662 18.2325 1.62892 18.148 1.23794L18 0.589844C20.8885 1.45116 23.422 3.22184 25.2237 5.63861C27.0254 8.05537 27.9991 10.9892 28 14.0038Z" fill="#73D3E6"/>
<path d="M10.0671 8.04004C11.5667 6.54021 12.058 4.59991 11.1645 3.70627C10.271 2.81262 8.33099 3.30403 6.83138 4.80385C5.33177 6.30368 4.84043 8.24398 5.73395 9.13762C6.62747 10.0313 8.56749 9.53986 10.0671 8.04004Z" fill="white"/>
</g>
<defs>
<clipPath id="clip0_4262_68138">
<rect width="28" height="28" fill="white"/>
</clipPath>
</defs>
</svg>
