<svg width="28" height="28" viewBox="0 0 28 28" fill="none" xmlns="http://www.w3.org/2000/svg">
<g clip-path="url(#clip0_4262_68184)">
<path d="M14 28.0013C16.1782 28.0013 17.944 26.2355 17.944 24.0573C17.944 21.8791 16.1782 20.1133 14 20.1133C11.8218 20.1133 10.056 21.8791 10.056 24.0573C10.056 26.2355 11.8218 28.0013 14 28.0013Z" fill="#FAB14B"/>
<path d="M26.62 24.6772H1.37603C1.12298 24.678 0.874674 24.6085 0.658731 24.4766C0.442788 24.3447 0.267668 24.1554 0.152845 23.9299C0.038022 23.7044 -0.0120037 23.4515 0.00833077 23.1993C0.0286653 22.947 0.118563 22.7054 0.268027 22.5012L2.02403 20.0572C3.48708 18.0331 4.2738 15.5987 4.27203 13.1012V9.8492C4.2695 8.56935 4.52059 7.30168 5.0108 6.11942C5.501 4.93717 6.2206 3.86376 7.12803 2.9612C8.30619 1.7805 9.77166 0.927134 11.38 0.485203C11.8059 0.354754 12.2422 0.261077 12.684 0.205203C13.1202 0.145822 13.5599 0.11642 14 0.117203C15.2527 0.117462 16.4938 0.357797 17.656 0.825203C16.9726 1.6769 16.5096 2.68394 16.308 3.7572C16.2297 4.17536 16.1895 4.59977 16.188 5.0252C16.188 6.82868 16.9045 8.55828 18.1797 9.83353C19.4549 11.1088 21.1846 11.8252 22.988 11.8252C23.24 11.8252 23.504 11.8052 23.748 11.7812V13.1172C23.7489 15.61 24.537 18.0389 26 20.0572L27.752 22.5012C27.9028 22.707 27.993 22.9509 28.0124 23.2053C28.0318 23.4597 27.9797 23.7145 27.862 23.9408C27.7442 24.1672 27.5655 24.3561 27.3461 24.4862C27.1266 24.6163 26.8751 24.6825 26.62 24.6772Z" fill="#FAB14B"/>
<path d="M21.3601 24.6764H1.36006C1.10837 24.6742 0.862159 24.6026 0.648528 24.4695C0.434896 24.3364 0.262125 24.147 0.149231 23.922C0.0363364 23.6971 -0.0123048 23.4453 0.00866083 23.1945C0.0296264 22.9437 0.119386 22.7035 0.26806 22.5004L2.02406 20.0564C3.48711 18.0322 4.27383 15.5979 4.27206 13.1004V9.84838C4.26953 8.56852 4.52062 7.30085 5.01083 6.1186C5.50103 4.93634 6.22063 3.86293 7.12806 2.96038C8.30623 1.77967 9.7717 0.926306 11.3801 0.484375C13.3247 1.03484 15.0489 2.17873 16.3121 3.75638C16.2337 4.17453 16.1936 4.59895 16.1921 5.02438C16.1928 5.98145 16.3955 6.92758 16.7871 7.80091C17.1786 8.67423 17.75 9.45508 18.4641 10.0924V13.1004C18.4637 15.5983 19.2518 18.0326 20.7161 20.0564L22.4721 22.5004C22.6187 22.7056 22.7061 22.9471 22.7248 23.1986C22.7434 23.4502 22.6926 23.702 22.5778 23.9265C22.463 24.1511 22.2888 24.3399 22.074 24.4721C21.8592 24.6043 21.6123 24.675 21.3601 24.6764Z" fill="#FFD966"/>
<path d="M8.09602 12.7314C8.99514 12.7314 9.72402 11.193 9.72402 9.29538C9.72402 7.39772 8.99514 5.85938 8.09602 5.85938C7.1969 5.85938 6.46802 7.39772 6.46802 9.29538C6.46802 11.193 7.1969 12.7314 8.09602 12.7314Z" fill="white"/>
<path d="M22.9721 10.056C25.749 10.056 28.0001 7.80489 28.0001 5.028C28.0001 2.25111 25.749 0 22.9721 0C20.1952 0 17.9441 2.25111 17.9441 5.028C17.9441 7.80489 20.1952 10.056 22.9721 10.056Z" fill="#FF9999"/>
</g>
<defs>
<clipPath id="clip0_4262_68184">
<rect width="28" height="28" fill="white"/>
</clipPath>
</defs>
</svg>
