<svg width="28" height="28" viewBox="0 0 28 28" fill="none" xmlns="http://www.w3.org/2000/svg">
<g clip-path="url(#clip0_4262_68253)">
<path d="M23.8274 12.9384C23.3307 12.7828 22.8135 12.6993 22.2922 12.6904C22.2311 12.6844 22.1696 12.6844 22.1085 12.6904C21.5459 12.6939 20.9865 12.7746 20.4468 12.9304C20.4067 12.9447 20.3658 12.9567 20.3243 12.9664L16.6498 14.0984C16.1946 14.2357 15.7961 14.512 15.5126 14.8869C15.2291 15.2618 15.0753 15.7157 15.0738 16.1824V16.4704H0V14.4704C0.00496356 13.7489 0.171313 13.0372 0.487333 12.3855C0.803354 11.7338 1.26136 11.1579 1.8291 10.6984L3.62963 9.19835L8.98221 4.79835C9.84369 4.10052 10.9265 3.71875 12.0443 3.71875C13.1621 3.71875 14.245 4.10052 15.1064 4.79835L20.4468 9.19835L22.2514 10.6824C22.979 11.2776 23.5244 12.0584 23.8274 12.9384Z" fill="#BF7B4C"/>
<path d="M20.4467 2.4V12.368C20.4067 12.3824 20.3658 12.3944 20.3243 12.404L16.6497 13.536C16.1945 13.6733 15.7961 13.9496 15.5126 14.3246C15.2291 14.6995 15.0753 15.1534 15.0737 15.62V20.02C15.0747 20.7509 15.1665 21.4789 15.3473 22.188L14.6818 22.84C14.4017 23.1256 14.0657 23.3528 13.6938 23.508C13.2604 23.7061 12.7879 23.8085 12.3097 23.808H6.09154C5.44382 23.8017 4.82443 23.5469 4.3664 23.0981C3.90837 22.6494 3.64823 22.0426 3.64185 21.408V2.4C3.64823 1.76542 3.90837 1.15859 4.3664 0.709855C4.82443 0.261116 5.44382 0.00625249 6.09154 0H17.9971C18.6468 0 19.2698 0.252856 19.7292 0.702944C20.1887 1.15303 20.4467 1.76348 20.4467 2.4Z" fill="#C2E4F2"/>
<path d="M20.4467 2.95059V12.9186C20.4067 12.933 20.3658 12.945 20.3243 12.9546L16.6497 14.0866C16.1945 14.2239 15.7961 14.5002 15.5126 14.8752C15.2291 15.2501 15.0753 15.704 15.0737 16.1706V20.5706C15.0747 21.3015 15.1665 22.0295 15.3473 22.7386L14.6818 23.3906C14.4017 23.6762 14.0657 23.9034 13.6938 24.0586C13.2595 24.2542 12.7876 24.3565 12.3097 24.3586H6.09154C5.44382 24.3523 4.82443 24.0975 4.3664 23.6487C3.90837 23.2 3.64823 22.5932 3.64185 21.9586V2.95859C3.64823 2.32401 3.90837 1.71719 4.3664 1.26845C4.82443 0.81971 5.44382 0.564846 6.09154 0.558594H17.9971C18.6453 0.55859 19.2672 0.810348 19.7264 1.25871C20.1855 1.70707 20.4446 2.31546 20.4467 2.95059Z" fill="#FAFEFF"/>
<path d="M22.2923 12.6905C22.2312 12.6845 22.1696 12.6845 22.1085 12.6905C21.5459 12.694 20.9865 12.7748 20.4468 12.9305C20.4068 12.9449 20.3659 12.9569 20.3243 12.9665L16.6498 14.0985C16.1946 14.2358 15.7962 14.5121 15.5127 14.8871C15.2291 15.262 15.0754 15.7159 15.0738 16.1825V20.5825C15.0747 21.3134 15.1666 22.0414 15.3474 22.7505C15.7399 24.2873 16.558 25.6881 17.7113 26.7985C18.1691 27.2541 18.6787 27.6568 19.2301 27.9985H3.08666C2.67975 27.998 2.27695 27.9187 1.90137 27.7653C1.52579 27.6119 1.18483 27.3874 0.898053 27.1046C0.611273 26.8217 0.384321 26.4862 0.230217 26.1173C0.0761135 25.7483 -0.0021073 25.3532 4.31654e-05 24.9545V15.4225C4.31654e-05 14.6205 0.325239 13.8513 0.904091 13.2842C1.48294 12.7171 2.26804 12.3985 3.08666 12.3985H20.9898C21.4412 12.3954 21.8871 12.4954 22.2923 12.6905Z" fill="#F2A46D"/>
<path d="M28 16.1717V20.5717C28.0026 22.277 27.4235 23.9343 26.3545 25.2801C25.2856 26.626 23.7882 27.5832 22.1003 27.9997C20.417 27.577 18.9246 26.6185 17.8575 25.2748C16.7905 23.9311 16.2091 22.2782 16.2047 20.5757V16.1757C16.2054 15.9478 16.2802 15.7261 16.4182 15.5427C16.5562 15.3593 16.7503 15.2237 16.9723 15.1557L20.6468 14.0237C21.5831 13.7317 22.5889 13.7317 23.5252 14.0237L25.4074 14.5957L27.2161 15.1557C27.4411 15.2196 27.6391 15.353 27.7803 15.5361C27.9216 15.7192 27.9987 15.9422 28 16.1717Z" fill="#4DC3FF"/>
<path d="M25.4278 14.5918L18.5156 25.9998C17.7817 25.2908 17.1993 24.4457 16.8025 23.5137C16.4058 22.5817 16.2025 21.5816 16.2047 20.5718V16.1718C16.2054 15.9439 16.2802 15.7222 16.4182 15.5388C16.5562 15.3554 16.7503 15.2198 16.9723 15.1518L20.6468 14.0198C21.5832 13.7278 22.5889 13.7278 23.5252 14.0198L25.4278 14.5918Z" fill="#73CFFF"/>
<path d="M23.7702 18.9206C23.7702 18.4931 23.5969 18.083 23.2883 17.7807C22.9798 17.4784 22.5613 17.3086 22.1249 17.3086C21.6885 17.3086 21.27 17.4784 20.9614 17.7807C20.6528 18.083 20.4795 18.4931 20.4795 18.9206C20.4799 19.1727 20.5412 19.4212 20.6583 19.6457C20.7753 19.8702 20.9449 20.0645 21.1532 20.2126C21.2139 20.2541 21.2619 20.3111 21.2921 20.3773C21.3223 20.4435 21.3335 20.5166 21.3246 20.5886L20.7612 23.8766C20.7517 23.9342 20.7551 23.9932 20.7713 24.0494C20.7875 24.1056 20.8161 24.1576 20.855 24.2018C20.8939 24.246 20.9422 24.2814 20.9965 24.3053C21.0509 24.3293 21.1099 24.3413 21.1695 24.3406H23.1374C23.1974 24.3414 23.2568 24.3293 23.3115 24.3051C23.3662 24.2809 23.4147 24.2452 23.4537 24.2005C23.4927 24.1558 23.5212 24.1033 23.5371 24.0466C23.5529 23.9899 23.5559 23.9305 23.5457 23.8726L22.9537 20.5806C22.9455 20.5092 22.9572 20.437 22.9873 20.3716C23.0175 20.3061 23.0651 20.2498 23.1252 20.2086C23.3276 20.0579 23.4913 19.863 23.6033 19.6394C23.7153 19.4158 23.7725 19.1697 23.7702 18.9206Z" fill="#FAFEFF"/>
<path d="M19.0464 12.4584L4.32085e-05 23.4384V15.4384C-0.00210874 15.04 0.0761406 14.645 0.230294 14.2763C0.384447 13.9076 0.611464 13.5723 0.898297 13.2898C1.18513 13.0073 1.52612 12.7831 1.90168 12.6301C2.27723 12.4772 2.67994 12.3984 3.08666 12.3984H19.0097L19.0464 12.4584Z" fill="#FFB480"/>
<path d="M17.1234 2.66406H6.9531C6.45928 2.66406 6.05896 3.05626 6.05896 3.54006C6.05896 4.02386 6.45928 4.41606 6.9531 4.41606H17.1234C17.6172 4.41606 18.0175 4.02386 18.0175 3.54006C18.0175 3.05626 17.6172 2.66406 17.1234 2.66406Z" fill="#C2E4F2"/>
<path d="M17.1234 6.30859H6.9531C6.45928 6.30859 6.05896 6.70079 6.05896 7.18459C6.05896 7.66839 6.45928 8.06059 6.9531 8.06059H17.1234C17.6172 8.06059 18.0175 7.66839 18.0175 7.18459C18.0175 6.70079 17.6172 6.30859 17.1234 6.30859Z" fill="#C2E4F2"/>
<path d="M17.1234 9.95312H6.9531C6.45928 9.95312 6.05896 10.3453 6.05896 10.8291C6.05896 11.3129 6.45928 11.7051 6.9531 11.7051H17.1234C17.6172 11.7051 18.0175 11.3129 18.0175 10.8291C18.0175 10.3453 17.6172 9.95312 17.1234 9.95312Z" fill="#C2E4F2"/>
<path d="M10.2847 21.4375H13.7959C14.058 21.4375 14.3095 21.5387 14.496 21.7191C14.6825 21.8996 14.7889 22.1447 14.7921 22.4015V22.7375C14.7921 23.4525 14.5022 24.1383 13.9861 24.6439C13.47 25.1495 12.7701 25.4335 12.0403 25.4335C11.3104 25.4335 10.6105 25.1495 10.0944 24.6439C9.57838 24.1383 9.28845 23.4525 9.28845 22.7375V22.4015C9.29167 22.1447 9.39805 21.8996 9.58453 21.7191C9.77101 21.5387 10.0226 21.4375 10.2847 21.4375Z" fill="#F2FBFF"/>
</g>
<defs>
<clipPath id="clip0_4262_68253">
<rect width="28" height="28" fill="white"/>
</clipPath>
</defs>
</svg>
