<svg width="28" height="28" viewBox="0 0 28 28" fill="none" xmlns="http://www.w3.org/2000/svg">
<g clip-path="url(#clip0_4262_68117)">
<path d="M27.304 27.8028L24.104 26.4253C22.7947 27.3456 21.2589 27.8875 19.664 27.9919C18.0691 28.0963 16.4762 27.7591 15.059 27.0172C13.6417 26.2753 12.4545 25.1571 11.6266 23.7844C10.7988 22.4117 10.362 20.8372 10.364 19.2325C10.3621 17.8765 10.6734 16.5386 11.2734 15.3238C11.8734 14.109 12.7457 13.0504 13.8219 12.2311C14.898 11.4119 16.1487 10.8543 17.4757 10.6022C18.8027 10.35 20.1699 10.4103 21.4698 10.7781C22.7697 11.1459 23.9669 11.8113 24.9675 12.722C25.9681 13.6328 26.7447 14.764 27.2364 16.0269C27.7281 17.2898 27.9215 18.65 27.8014 20.0006C27.6812 21.3511 27.2509 22.6554 26.544 23.8108L27.96 27.1441C27.9991 27.2363 28.0099 27.3381 27.9909 27.4364C27.972 27.5347 27.9241 27.6251 27.8536 27.6959C27.7831 27.7667 27.693 27.8148 27.5951 27.8338C27.4972 27.8528 27.3958 27.842 27.304 27.8028Z" fill="#69D1D1"/>
<path d="M25.416 13.1796L11.68 23.8624C10.5345 22.0198 10.1111 19.8159 10.4917 17.6777C10.8723 15.5396 12.0299 13.6194 13.7402 12.2893C15.4505 10.9592 17.5917 10.3138 19.7488 10.4783C21.9059 10.6428 23.9255 11.6054 25.416 13.1796Z" fill="#89E6E6"/>
<path d="M17.476 8.77098C17.4784 10.3519 17.0548 11.9041 16.25 13.263C15.4452 14.6219 14.2893 15.7369 12.9047 16.4898C11.52 17.2427 9.95835 17.6055 8.38507 17.5398C6.81178 17.4741 5.28552 16.9822 3.96801 16.1164L0.724015 17.5019C0.632302 17.5391 0.531725 17.5483 0.434813 17.5285C0.337901 17.5087 0.248937 17.4607 0.179003 17.3905C0.109069 17.3203 0.0612568 17.2309 0.0415213 17.1336C0.0217857 17.0363 0.0309995 16.9353 0.0680148 16.8433L1.45201 13.5983C1.37983 13.4949 1.31564 13.3862 1.26001 13.273C0.433246 11.9183 -0.0029327 10.3598 1.48404e-05 8.77098C0.0489084 6.47671 0.990994 4.29296 2.62436 2.68774C4.25773 1.08253 6.4524 0.183594 8.73801 0.183594C11.0236 0.183594 13.2183 1.08253 14.8517 2.68774C16.485 4.29296 17.4271 6.47671 17.476 8.77098Z" fill="#F58787"/>
<path d="M14.96 2.61626L1.26001 13.2749C0.433246 11.9202 -0.0029327 10.3617 1.48404e-05 8.77288C-0.000339679 7.0323 0.515114 5.33097 1.48077 3.88542C2.44643 2.43987 3.81863 1.31547 5.42272 0.655321C7.02682 -0.00482654 8.79027 -0.170868 10.4886 0.178329C12.187 0.527527 13.7435 1.37617 14.96 2.61626Z" fill="#FF9999"/>
<path d="M13.5281 5.50778C12.9775 5.02427 12.2604 4.77626 11.5301 4.81679C10.7997 4.85732 10.1142 5.18317 9.62007 5.72465L9.11607 6.23871C9.0601 6.29701 8.993 6.34338 8.91877 6.37506C8.84454 6.40673 8.76472 6.42306 8.68407 6.42306C8.60342 6.42306 8.52359 6.40673 8.44937 6.37506C8.37514 6.34338 8.30804 6.29701 8.25207 6.23871L7.75207 5.72465C7.25795 5.18317 6.57241 4.85732 5.84208 4.81679C5.11175 4.77626 4.39461 5.02427 3.84407 5.50778C3.57009 5.76688 3.35014 6.07807 3.197 6.42327C3.04386 6.76847 2.96059 7.14079 2.95203 7.51858C2.94347 7.89637 3.00979 8.27211 3.14713 8.62394C3.28448 8.97577 3.49011 9.29668 3.75207 9.56802L4.80007 10.6604L7.95207 13.8933C8.04535 13.9905 8.15719 14.0678 8.2809 14.1206C8.40461 14.1734 8.53765 14.2006 8.67207 14.2006C8.80649 14.2006 8.93953 14.1734 9.06324 14.1206C9.18695 14.0678 9.29879 13.9905 9.39207 13.8933L12.5441 10.6604L13.6001 9.56802C13.8633 9.298 14.0705 8.97813 14.2095 8.62702C14.3485 8.27592 14.4167 7.90056 14.41 7.52278C14.4033 7.145 14.3219 6.77232 14.1705 6.4264C14.0191 6.08049 13.8007 5.76823 13.5281 5.50778Z" fill="white"/>
<path d="M19.832 17.1704L20.232 15.2346C20.2841 14.9737 20.2779 14.7044 20.2138 14.4461C20.1496 14.1879 20.0293 13.9471 19.8613 13.7412C19.6933 13.5353 19.482 13.3694 19.2424 13.2554C19.0029 13.1414 18.7411 13.0822 18.476 13.082C18.3604 13.0815 18.2482 13.1213 18.1585 13.1945C18.0688 13.2677 18.0072 13.3699 17.984 13.4836L17.144 17.6844L16.916 18.8411C16.8156 19.3462 16.7647 19.8601 16.764 20.3752V23.4395C16.764 23.5652 16.8138 23.6857 16.9023 23.7746C16.9908 23.8634 17.1109 23.9134 17.236 23.9134H22.632C22.9585 23.9153 23.2752 23.801 23.5256 23.5907C23.7761 23.3804 23.9442 23.0878 24 22.7648L24.684 18.6081C24.6999 18.496 24.6919 18.3817 24.6606 18.2728C24.6293 18.164 24.5755 18.063 24.5026 17.9765C24.4296 17.89 24.3393 17.82 24.2376 17.771C24.1358 17.7221 24.0249 17.6953 23.912 17.6925H20.26C20.1956 17.6925 20.132 17.6782 20.0738 17.6506C20.0156 17.623 19.9642 17.5828 19.9232 17.5329C19.8823 17.483 19.8529 17.4246 19.8371 17.3619C19.8214 17.2992 19.8196 17.2338 19.832 17.1704Z" fill="white"/>
<path d="M15.92 18.6511C15.92 18.1232 15.4947 17.6953 14.97 17.6953C14.4453 17.6953 14.02 18.1232 14.02 18.6511V22.9604C14.02 23.4883 14.4453 23.9162 14.97 23.9162C15.4947 23.9162 15.92 23.4883 15.92 22.9604V18.6511Z" fill="white"/>
</g>
<defs>
<clipPath id="clip0_4262_68117">
<rect width="28" height="28" fill="white"/>
</clipPath>
</defs>
</svg>
