<svg width="28" height="28" viewBox="0 0 28 28" fill="none" xmlns="http://www.w3.org/2000/svg">
<g clip-path="url(#clip0_4262_68206)">
<path d="M28 24.3459C27.9989 25.3148 27.6142 26.2436 26.9303 26.9287C26.2464 27.6138 25.3192 27.9991 24.352 28.0002H7.99998C7.86798 28.0002 7.72798 28.0002 7.59998 28.0002C7.85324 27.6501 7.99288 27.2304 7.99998 26.7981V26.6659L8.09598 26.6058L8.20798 26.6739C8.53086 26.8584 8.89628 26.9551 9.26798 26.9544C9.63655 26.9544 9.99868 26.8575 10.3181 26.6732C10.6375 26.489 10.903 26.2239 11.088 25.9046L11.516 25.1593C11.6559 24.9197 11.7468 24.6545 11.7832 24.3793C11.8196 24.1041 11.8008 23.8244 11.728 23.5566C11.5838 23.016 11.2313 22.5548 10.748 22.2744L10.632 22.2143V22.09L10.748 22.0299C10.9879 21.8908 11.1979 21.7055 11.3661 21.4848C11.5343 21.2641 11.6573 21.0122 11.728 20.7437C11.801 20.4759 11.8199 20.1962 11.7835 19.9209C11.7471 19.6457 11.6561 19.3805 11.516 19.141L11.088 18.3997C11.0268 18.2866 10.9501 18.1828 10.86 18.0912L10.836 17.6905C12.2979 19.0312 14.2059 19.7783 16.188 19.7861C17.379 19.7728 18.5525 19.4979 19.6259 18.9807C20.6992 18.4636 21.6462 17.7167 22.4 16.793C24.0183 17.2843 25.4362 18.2836 26.4445 19.6436C27.4528 21.0035 27.9981 22.652 28 24.3459Z" fill="#82EDA6"/>
<path d="M28 24.3459C27.9989 25.3148 27.6142 26.2436 26.9303 26.9287C26.2464 27.6138 25.3191 27.9991 24.352 28.0002H16.184V19.746C17.3726 19.7388 18.5451 19.4706 19.6191 18.9604C20.693 18.4502 21.6423 17.7103 22.4 16.793C24.0183 17.2843 25.4362 18.2836 26.4445 19.6436C27.4527 21.0035 27.9981 22.652 28 24.3459Z" fill="#6DD999"/>
<path d="M20.3999 8.51339V12.4241C20.4002 12.7084 20.4503 12.9905 20.5479 13.2575L20.3399 13.3377C19.9852 13.035 19.5338 12.8701 19.0679 12.8729H17.1479C16.8114 12.8739 16.4804 12.9579 16.1839 13.1173C15.7846 13.3264 15.4674 13.6646 15.2839 14.0768C15.1004 14.4891 15.0613 14.9514 15.1729 15.3887C15.2845 15.8261 15.5402 16.2129 15.8987 16.4864C16.2572 16.7599 16.6973 16.9042 17.1479 16.8958H18.8879C18.6888 17.0272 18.4786 17.1412 18.2599 17.2363C18.1559 17.2884 18.0399 17.3325 17.9359 17.3766C17.715 17.4657 17.4859 17.5328 17.2519 17.5769C17.1399 17.605 17.0159 17.629 16.9039 17.6491C16.7919 17.6691 16.6679 17.6731 16.5439 17.6851C16.4199 17.6971 16.3079 17.6851 16.1839 17.6851C14.0439 17.6851 12.1839 16.2907 11.1559 14.2072C11.4073 13.9799 11.6084 13.7024 11.7462 13.3925C11.884 13.0826 11.9554 12.7473 11.9559 12.4081V8.51339C11.9547 8.05458 11.8241 7.60545 11.5792 7.2177C11.3344 6.82995 10.9852 6.51934 10.5719 6.32163C11.3439 3.76125 13.5639 1.91408 16.1719 1.91408C16.382 1.91351 16.5919 1.92824 16.7999 1.95815C16.9648 1.97321 17.1281 2.0027 17.2879 2.04631C17.3304 2.04649 17.3724 2.05465 17.4119 2.07035C17.5878 2.10105 17.7606 2.148 17.9279 2.21059C18.0647 2.25475 18.1984 2.3083 18.3279 2.37086C18.6063 2.4794 18.8742 2.61354 19.1279 2.77155C19.2313 2.82809 19.3302 2.89239 19.4239 2.96388C19.4591 2.98333 19.4914 3.0076 19.5199 3.036C19.6599 3.14018 19.7999 3.25638 19.9199 3.36857C20.0399 3.48076 20.2079 3.64104 20.3199 3.76926C20.4319 3.89748 20.5359 4.01368 20.6439 4.1459C20.7095 4.22687 20.7709 4.31113 20.8279 4.39834C20.9045 4.49608 20.974 4.59918 21.0359 4.70687C21.1474 4.86877 21.249 5.03737 21.3399 5.21173C21.5289 5.57327 21.6843 5.95152 21.8039 6.34167C21.3875 6.5319 21.0341 6.83742 20.7854 7.2222C20.5366 7.60698 20.4029 8.05498 20.3999 8.51339Z" fill="#FFE1A6"/>
<path d="M17.148 16.8812H18.888C18.6888 17.0127 18.4787 17.1266 18.26 17.2218C18.156 17.2739 18.04 17.318 17.936 17.3621C17.7151 17.4511 17.486 17.5182 17.252 17.5624C17.14 17.5905 17.016 17.6145 16.904 17.6345C16.792 17.6546 16.668 17.6586 16.544 17.6706C16.42 17.6826 16.308 17.6706 16.184 17.6706V16.6328C16.4793 16.7957 16.8109 16.8811 17.148 16.8812Z" fill="#FAB98A"/>
<path d="M20.4 8.51353V12.4242C20.4003 12.7086 20.4504 12.9907 20.548 13.2577L20.34 13.3378C19.9853 13.0352 19.5339 12.8702 19.068 12.873H17.148C16.8115 12.8741 16.4804 12.958 16.184 13.1174V1.92223C16.3899 1.91958 16.5957 1.93164 16.8 1.95829C16.9649 1.97335 17.1282 2.00285 17.288 2.04645C17.3304 2.04663 17.3725 2.05479 17.412 2.07049C17.5879 2.1012 17.7606 2.14814 17.928 2.21073C18.0648 2.25489 18.1985 2.30844 18.328 2.371C18.6064 2.47954 18.8742 2.61368 19.128 2.77169C19.2313 2.82823 19.3303 2.89253 19.424 2.96402C19.4592 2.98347 19.4915 3.00774 19.52 3.03614C19.66 3.14032 19.8 3.25652 19.92 3.36871C20.04 3.48091 20.208 3.64118 20.32 3.7694C20.432 3.89762 20.536 4.01382 20.644 4.14605C20.7095 4.22701 20.7709 4.31127 20.828 4.39848C20.9046 4.49622 20.9741 4.59933 21.036 4.70701C21.1475 4.86891 21.249 5.03751 21.34 5.21187C21.529 5.57341 21.6843 5.95166 21.804 6.34181C21.3876 6.53204 21.0342 6.83756 20.7854 7.22234C20.5367 7.60712 20.4029 8.05512 20.4 8.51353Z" fill="#FAB98A"/>
<path d="M25.66 9.76631V11.1567C25.6631 11.8569 25.4046 12.533 24.9353 13.0521C24.466 13.5711 23.8199 13.8955 23.124 13.9615C23.072 13.9654 23.0199 13.9654 22.968 13.9615C22.1821 14.7955 21.1345 15.3343 20 15.4881C19.8999 15.6461 19.7616 15.7763 19.598 15.8666C19.4344 15.9569 19.2508 16.0045 19.064 16.005H17.148C16.9934 16.0142 16.8386 15.9916 16.693 15.9387C16.5474 15.8858 16.4142 15.8036 16.3015 15.6972C16.1888 15.5908 16.099 15.4625 16.0376 15.3201C15.9763 15.1777 15.9446 15.0242 15.9446 14.8691C15.9446 14.7139 15.9763 14.5604 16.0376 14.418C16.099 14.2756 16.1888 14.1473 16.3015 14.0409C16.4142 13.9345 16.5474 13.8523 16.693 13.7994C16.8386 13.7465 16.9934 13.7239 17.148 13.7331H19.08C19.2789 13.7348 19.4738 13.7894 19.6446 13.8916C19.8155 13.9937 19.9561 14.1395 20.052 14.3141C20.6772 14.1967 21.2655 13.9316 21.768 13.5408C21.6172 13.3962 21.497 13.2227 21.4146 13.0307C21.3321 12.8386 21.289 12.6319 21.288 12.4229V8.51216C21.2885 8.30694 21.3294 8.10384 21.4082 7.91445C21.4871 7.72506 21.6025 7.55308 21.7477 7.40835C21.8929 7.26361 22.0652 7.14895 22.2547 7.0709C22.4441 6.99286 22.6471 6.95296 22.852 6.95348C23.0853 6.95082 23.318 6.97911 23.544 7.03763C23.1697 5.36251 22.2371 3.86505 20.8996 2.79196C19.5621 1.71886 17.8996 1.13415 16.186 1.13415C14.4724 1.13415 12.8099 1.71886 11.4724 2.79196C10.1349 3.86505 9.2022 5.36251 8.82797 7.03763C9.05392 6.97911 9.28661 6.95082 9.51997 6.95348C9.93265 6.95348 10.3284 7.1177 10.6202 7.41001C10.912 7.70232 11.076 8.09877 11.076 8.51216V12.4229C11.0679 12.8348 10.9017 13.2279 10.612 13.5204C10.3222 13.8128 9.93117 13.9823 9.51997 13.9936C9.43225 14.0035 9.34369 14.0035 9.25597 13.9936C8.55643 13.9323 7.90542 13.6099 7.432 13.0904C6.95858 12.5709 6.6973 11.8922 6.69997 11.1887V9.76631C6.70148 9.39233 6.77763 9.02244 6.92395 8.67838C7.07027 8.33432 7.28379 8.02305 7.55197 7.76287C7.7815 5.62952 8.79004 3.65642 10.3838 2.22277C11.9775 0.789124 14.0439 -0.00390625 16.186 -0.00390625C18.328 -0.00390625 20.3944 0.789124 21.9882 2.22277C23.5819 3.65642 24.5904 5.62952 24.82 7.76287C25.0845 8.02513 25.2949 8.33706 25.4391 8.68083C25.5832 9.0246 25.6583 9.39345 25.66 9.76631Z" fill="#99A5EB"/>
<path d="M25.66 9.76474V11.1551C25.6631 11.8554 25.4046 12.5315 24.9353 13.0505C24.466 13.5695 23.8199 13.8939 23.124 13.9599C23.072 13.9639 23.0199 13.9639 22.968 13.9599C22.1821 14.7939 21.1345 15.3328 20 15.4865C19.8998 15.6445 19.7616 15.7747 19.598 15.865C19.4344 15.9554 19.2508 16.003 19.064 16.0034H17.148C16.9934 16.0126 16.8385 15.9901 16.693 15.9372C16.5474 15.8842 16.4142 15.802 16.3015 15.6957C16.1888 15.5893 16.099 15.4609 16.0376 15.3185C15.9762 15.1761 15.9446 15.0226 15.9446 14.8675C15.9446 14.7124 15.9762 14.5589 16.0376 14.4165C16.099 14.274 16.1888 14.1457 16.3015 14.0393C16.4142 13.9329 16.5474 13.8507 16.693 13.7978C16.8385 13.7449 16.9934 13.7223 17.148 13.7315H19.08C19.2789 13.7332 19.4738 13.7879 19.6446 13.89C19.8155 13.9921 19.9561 14.1379 20.052 14.3125C20.6772 14.1951 21.2655 13.93 21.768 13.5392C21.6172 13.3946 21.497 13.2212 21.4145 13.0291C21.3321 12.8371 21.289 12.6304 21.288 12.4213V8.51059C21.2885 8.30538 21.3294 8.10227 21.4082 7.91288C21.4871 7.72349 21.6025 7.55152 21.7477 7.40678C21.8929 7.26204 22.0652 7.14738 22.2547 7.06933C22.4441 6.99129 22.6471 6.95139 22.852 6.95192C23.0853 6.94925 23.318 6.97754 23.544 7.03606C23.1653 5.36332 22.2309 3.8689 20.8939 2.79742C19.5568 1.72593 17.8962 1.14085 16.184 1.13795V0C18.3236 0.00366864 20.387 0.796678 21.9799 2.22759C23.5729 3.6585 24.584 5.62704 24.82 7.7573C25.085 8.02003 25.2957 8.33262 25.4398 8.67711C25.584 9.0216 25.6588 9.39121 25.66 9.76474Z" fill="#8593E6"/>
<path d="M10.3079 23.0058L9.71994 22.6652C9.74546 22.486 9.75882 22.3053 9.75994 22.1243C9.75886 21.9419 9.74549 21.7599 9.71994 21.5793L10.3079 21.2388C10.5906 21.0745 10.7968 20.8049 10.8815 20.4887C10.9662 20.1726 10.9225 19.8358 10.7599 19.5519L10.3319 18.8346C10.2519 18.6933 10.1446 18.5692 10.0163 18.4698C9.88799 18.3703 9.74122 18.2974 9.58453 18.2553C9.42783 18.2131 9.26433 18.2026 9.10355 18.2244C8.94276 18.2461 8.78789 18.2996 8.64794 18.3819L8.05994 18.7224C7.77309 18.492 7.457 18.3007 7.11994 18.1535V17.4763C7.11994 17.149 6.99014 16.8351 6.7591 16.6037C6.52805 16.3722 6.21469 16.2422 5.88794 16.2422H5.03594C4.7092 16.2422 4.39583 16.3722 4.16479 16.6037C3.93374 16.8351 3.80394 17.149 3.80394 17.4763V18.1535C3.46797 18.2944 3.15193 18.479 2.86394 18.7024L2.27594 18.3618C2.1348 18.2804 1.97885 18.228 1.81723 18.2077C1.65562 18.1874 1.49158 18.1997 1.33475 18.2437C1.17791 18.2877 1.03143 18.3627 0.903879 18.4642C0.776329 18.5656 0.670279 18.6916 0.591943 18.8346L0.163943 19.5519C0.00140005 19.8358 -0.042298 20.1726 0.0424038 20.4887C0.127106 20.8049 0.333315 21.0745 0.615943 21.2388L1.19994 21.5793C1.17439 21.7599 1.16103 21.9419 1.15994 22.1243C1.16106 22.3053 1.17443 22.486 1.19994 22.6652L0.611943 23.0058C0.329994 23.1707 0.124631 23.4406 0.0406941 23.7567C-0.0432431 24.0727 0.00106471 24.4092 0.163943 24.6927L0.591943 25.4339C0.700669 25.621 0.856579 25.7761 1.04403 25.8837C1.23149 25.9913 1.44389 26.0476 1.65994 26.047C1.87668 26.0477 2.08955 25.9895 2.27594 25.8787L2.86394 25.5421C3.15385 25.7627 3.46951 25.947 3.80394 26.0911V26.7682C3.80394 27.0955 3.93374 27.4094 4.16479 27.6409C4.39583 27.8723 4.7092 28.0023 5.03594 28.0023H5.88794C6.21469 28.0023 6.52805 27.8723 6.7591 27.6409C6.99014 27.4094 7.11994 27.0955 7.11994 26.7682V26.0951C7.45438 25.951 7.77004 25.7667 8.05994 25.5461L8.64794 25.8827C8.83434 25.9935 9.04721 26.0517 9.26394 26.051C9.48046 26.0516 9.69329 25.9948 9.88085 25.8865C10.0684 25.7781 10.224 25.622 10.3319 25.4339L10.7599 24.6927C10.9225 24.4087 10.9662 24.0719 10.8815 23.7558C10.7968 23.4397 10.5906 23.17 10.3079 23.0058ZM5.46394 24.3801C5.01741 24.3809 4.58068 24.249 4.20907 24.001C3.83746 23.7529 3.54769 23.4 3.37644 22.9869C3.20519 22.5738 3.16018 22.1191 3.2471 21.6804C3.33402 21.2416 3.54897 20.8386 3.86471 20.5223C4.18046 20.206 4.58281 19.9907 5.0208 19.9036C5.4588 19.8166 5.91273 19.8616 6.32513 20.0332C6.73752 20.2047 7.08982 20.495 7.33741 20.8672C7.58499 21.2395 7.71673 21.677 7.71594 22.1243C7.71489 22.7222 7.47728 23.2954 7.05518 23.7182C6.63308 24.1411 6.06089 24.3791 5.46394 24.3801Z" fill="#99A5EB"/>
</g>
<defs>
<clipPath id="clip0_4262_68206">
<rect width="28" height="28" fill="white"/>
</clipPath>
</defs>
</svg>
