<svg width="28" height="28" viewBox="0 0 28 28" fill="none" xmlns="http://www.w3.org/2000/svg">
<g clip-path="url(#clip0_4262_68281)">
<path d="M18.6849 0.769531H2.50345C1.12083 0.769531 0 1.87807 0 3.24553V25.5255C0 26.893 1.12083 28.0015 2.50345 28.0015H18.6849C20.0675 28.0015 21.1883 26.893 21.1883 25.5255V3.24553C21.1883 1.87807 20.0675 0.769531 18.6849 0.769531Z" fill="#E6A273"/>
<path opacity="0.2" d="M16.7112 3.32812H5.80766C4.21955 3.32812 2.93213 4.60143 2.93213 6.17213V24.2921C2.93213 25.8628 4.21955 27.1361 5.80766 27.1361H16.7112C18.2993 27.1361 19.5867 25.8628 19.5867 24.2921V6.17213C19.5867 4.60143 18.2993 3.32812 16.7112 3.32812Z" fill="black"/>
<path d="M16.044 2.39844H5.14042C3.55231 2.39844 2.26489 3.67174 2.26489 5.24244V23.3624C2.26489 24.9331 3.55231 26.2064 5.14042 26.2064H16.044C17.6321 26.2064 18.9195 24.9331 18.9195 23.3624V5.24244C18.9195 3.67174 17.6321 2.39844 16.044 2.39844Z" fill="#FAFEFF"/>
<path d="M8.46069 24.1363L5.88444 21.6003C5.77475 21.4918 5.68774 21.3631 5.62837 21.2213C5.56901 21.0796 5.53845 20.9277 5.53845 20.7743C5.53845 20.6209 5.56901 20.469 5.62837 20.3273C5.68774 20.1855 5.77475 20.0568 5.88444 19.9483C5.99411 19.8398 6.12431 19.7537 6.26761 19.695C6.4109 19.6363 6.56449 19.6061 6.7196 19.6061C6.87471 19.6061 7.0283 19.6363 7.1716 19.695C7.31489 19.7537 7.44509 19.8398 7.55476 19.9483L9.1361 21.5123C9.28711 21.6577 9.48954 21.739 9.70028 21.739C9.91103 21.739 10.1135 21.6577 10.2645 21.5123L14.5596 17.2403C14.6689 17.1319 14.7987 17.046 14.9417 16.9873C15.0847 16.9286 15.2379 16.8984 15.3927 16.8984C15.5475 16.8984 15.7007 16.9286 15.8437 16.9873C15.9867 17.046 16.1165 17.1319 16.2258 17.2403C16.3354 17.3484 16.4223 17.4769 16.4816 17.6182C16.5409 17.7596 16.5715 17.9112 16.5715 18.0643C16.5715 18.2174 16.5409 18.3689 16.4816 18.5103C16.4223 18.6517 16.3354 18.7802 16.2258 18.8883L10.9399 24.1363C10.6108 24.4609 10.165 24.6432 9.70028 24.6432C9.23552 24.6432 8.78974 24.4609 8.46069 24.1363Z" fill="#45E6B0"/>
<path d="M15.7608 6.05078H5.42748C4.96959 6.05078 4.59839 6.41791 4.59839 6.87078V7.12278C4.59839 7.57565 4.96959 7.94278 5.42748 7.94278H15.7608C16.2187 7.94278 16.5899 7.57565 16.5899 7.12278V6.87078C16.5899 6.41791 16.2187 6.05078 15.7608 6.05078Z" fill="#CEE9F2"/>
<path d="M15.7608 9.69531H5.42748C4.96959 9.69531 4.59839 10.0624 4.59839 10.5153V10.7673C4.59839 11.2202 4.96959 11.5873 5.42748 11.5873H15.7608C16.2187 11.5873 16.5899 11.2202 16.5899 10.7673V10.5153C16.5899 10.0624 16.2187 9.69531 15.7608 9.69531Z" fill="#CEE9F2"/>
<path d="M15.7608 13.3398H5.42748C4.96959 13.3398 4.59839 13.707 4.59839 14.1598V14.4118C4.59839 14.8647 4.96959 15.2318 5.42748 15.2318H15.7608C16.2187 15.2318 16.5899 14.8647 16.5899 14.4118V14.1598C16.5899 13.707 16.2187 13.3398 15.7608 13.3398Z" fill="#CEE9F2"/>
<g opacity="0.2">
<path d="M13.9489 4.84953H8.57396C8.11703 4.84953 7.6788 4.67 7.3557 4.35044C7.03259 4.03088 6.85107 3.59746 6.85107 3.14553V0.769531H15.6718V3.14553C15.6718 3.59746 15.4903 4.03088 15.1672 4.35044C14.8441 4.67 14.4058 4.84953 13.9489 4.84953Z" fill="black"/>
</g>
<path d="M13.2169 4.496H8.0118C7.53234 4.496 7.07251 4.30762 6.73348 3.97231C6.39445 3.63699 6.20398 3.18221 6.20398 2.708V0.872C6.20504 0.641055 6.29827 0.41987 6.46339 0.256565C6.6285 0.0932612 6.85214 0.00105216 7.08565 0L14.1552 0C14.3887 0.00105216 14.6123 0.0932612 14.7774 0.256565C14.9425 0.41987 15.0358 0.641055 15.0368 0.872V2.708C15.0368 2.94382 14.9897 3.17731 14.8981 3.39502C14.8065 3.61274 14.6722 3.81038 14.503 3.97657C14.3339 4.14276 14.1332 4.27421 13.9124 4.36336C13.6917 4.4525 13.4553 4.49758 13.2169 4.496Z" fill="#FFD580"/>
<path d="M23.4896 15.3683C22.298 18.4979 20.4763 21.3556 18.1349 23.7683C18.0844 23.8185 18.0203 23.8532 17.9503 23.8683C17.8803 23.8833 17.8074 23.8781 17.7404 23.8531C17.6733 23.8282 17.615 23.7847 17.5723 23.7278C17.5297 23.6709 17.5046 23.603 17.4999 23.5323C17.3407 20.1904 17.8733 16.8515 19.0651 13.7203L21.3704 8.26433L22.2157 6.26433L24.4805 0.904327C24.6085 0.594921 24.8527 0.346625 25.162 0.211614C25.4712 0.0766036 25.8213 0.065389 26.1387 0.180327L27.1578 0.580327C27.4701 0.697718 27.7251 0.928991 27.8703 1.22659C28.0155 1.52419 28.0398 1.8655 27.9384 2.18033L26.078 7.69233L25.3783 9.76033L23.4896 15.3683Z" fill="#99A5EB"/>
<path d="M27.7726 9.90144L25.1154 16.9094C24.9693 16.856 24.8352 16.7746 24.7209 16.6698C24.6066 16.5651 24.5143 16.439 24.4493 16.299C24.3844 16.1589 24.3479 16.0075 24.3422 15.8535C24.3364 15.6995 24.3614 15.5459 24.4158 15.4014L26.5229 9.84544C26.5636 9.73399 26.5584 9.61117 26.5085 9.50344C26.4586 9.3957 26.3679 9.31167 26.2559 9.26944L25.625 9.03744L25.3783 9.76144L21.3704 8.27344L22.2156 6.27344L26.8868 8.00144C27.2576 8.1391 27.5585 8.41579 27.7243 8.77149C27.8901 9.12718 27.9075 9.53319 27.7726 9.90144Z" fill="#FFD580"/>
</g>
<defs>
<clipPath id="clip0_4262_68281">
<rect width="28" height="28" fill="white"/>
</clipPath>
</defs>
</svg>
