<svg width="28" height="28" viewBox="0 0 28 28" fill="none" xmlns="http://www.w3.org/2000/svg">
<g clip-path="url(#clip0_4262_68159)">
<path d="M9.15195 13.8398L0.775948 22.2146C0.280524 22.71 0.00219726 23.3818 0.00219727 24.0824C0.00219727 24.7829 0.280524 25.4548 0.775948 25.9501C1.27137 26.4455 1.94331 26.7238 2.64395 26.7238C3.34458 26.7238 4.01652 26.4455 4.51195 25.9501L12.8879 17.5753L9.15195 13.8398ZM1.67195 25.0382C1.44269 24.8089 1.28659 24.5167 1.22339 24.1986C1.16019 23.8806 1.19272 23.5509 1.31688 23.2514C1.44104 22.9518 1.65124 22.6958 1.92091 22.5156C2.19059 22.3355 2.50763 22.2393 2.83195 22.2393C3.15627 22.2393 3.47331 22.3355 3.74298 22.5156C4.01266 22.6958 4.22286 22.9518 4.34702 23.2514C4.47117 23.5509 4.50371 23.8806 4.44051 24.1986C4.37731 24.5167 4.22121 24.8089 3.99195 25.0382C3.68439 25.3451 3.26808 25.5181 2.83359 25.5196C2.39911 25.5211 1.98162 25.351 1.67195 25.0462V25.0382Z" fill="#63A6C7"/>
<path d="M4.84082 9.51953L17.2095 21.8865L15.6369 23.4589C15.2668 23.8274 14.7657 24.0341 14.2433 24.0335C13.721 24.033 13.2203 23.8253 12.8509 23.456L3.26256 13.869C2.89694 13.499 2.69237 12.9995 2.69343 12.4793C2.69449 11.9591 2.90109 11.4605 3.26822 11.0919L4.84082 9.51953Z" fill="#8DC0D9"/>
<path d="M26.72 12.3742L17.204 21.8889L4.828 9.51464L14.344 0L22.156 7.81088L20.552 10.2025L16.696 15.9617L22.064 11.1064L23.84 9.49864L26.72 12.3742Z" fill="#FFE6B3"/>
<path d="M26.72 12.3754L20.476 18.6185C22.652 16.4428 24.384 13.4193 22.076 11.1076L23.852 9.50781L26.72 12.3754Z" fill="#FF9999"/>
<path d="M26.2119 27.7461C25.812 27.9101 25.3842 27.9956 24.9519 27.9981C24.7217 27.9994 24.4922 27.9739 24.2679 27.9221C23.9387 27.8489 23.6229 27.7248 23.3319 27.5542C22.7215 27.1614 22.2647 26.5706 22.0382 25.881C21.8117 25.1914 21.8293 24.4449 22.0879 23.7667L22.4879 22.7229L24.8999 15.9958L24.9519 15.8398L27.4279 22.7269L27.7879 23.7507C28.3559 25.2865 27.7159 27.0982 26.2119 27.7461Z" fill="#FF9999"/>
<path d="M19.548 5.19926L16.456 2.1117L14.344 0L8.09998 6.24311C10.66 3.67947 13.26 7.14698 11.132 9.27467C9.00398 11.4024 12.68 14.6859 14.612 12.7542C16.152 11.1984 18.504 9.59863 20.556 10.2025L22.156 7.80289L19.548 5.19926Z" fill="#FF9999"/>
</g>
<defs>
<clipPath id="clip0_4262_68159">
<rect width="28" height="28" fill="white"/>
</clipPath>
</defs>
</svg>
