<svg width="28" height="28" viewBox="0 0 28 28" fill="none" xmlns="http://www.w3.org/2000/svg">
<g clip-path="url(#clip0_4262_68094)">
<path d="M21.2 4.77145C21.2011 6.03481 20.701 7.24702 19.8094 8.14222C18.9178 9.03742 17.7076 9.54253 16.444 9.54677C15.9786 9.54957 15.5157 9.47939 15.072 9.3388C14.2768 9.10153 13.5575 8.66033 12.9856 8.05905C12.4137 7.45776 12.0091 6.71732 11.812 5.91128C11.812 5.91128 11.812 5.87129 11.812 5.85529C11.728 5.50018 11.6864 5.13636 11.688 4.77145C11.688 3.50878 12.1886 2.2976 13.0801 1.40326C13.9715 0.508922 15.1812 0.00436234 16.444 0.00012876C16.8343 -0.00288129 17.2231 0.0468962 17.6 0.148108C18.5237 0.36941 19.3597 0.862587 20 1.56391C20.4654 2.09537 20.8094 2.7218 21.008 3.39964C21.1445 3.8438 21.2094 4.30688 21.2 4.77145Z" fill="#CFE0E6"/>
<path d="M20 1.66389L11.944 5.94728L11.796 5.85529C11.712 5.50018 11.6704 5.13636 11.672 4.77145C11.672 3.50602 12.1748 2.29241 13.0697 1.39762C13.9647 0.50282 15.1784 0.00012876 16.444 0.00012876C16.8343 -0.00288129 17.2231 0.0468962 17.6 0.148108C18.5237 0.36941 19.3597 0.862587 20 1.56391V1.66389Z" fill="#F2FAFF"/>
<path d="M13.1 7.09619C13.1025 8.28686 12.6596 9.43543 11.8584 10.3163C11.0572 11.1972 9.95557 11.7467 8.76984 11.8569C7.58412 11.9672 6.40001 11.6302 5.45011 10.9121C4.5002 10.194 3.85314 9.14678 3.63602 7.97606C3.5778 7.68645 3.54965 7.39159 3.55202 7.09619C3.54886 6.46707 3.67006 5.84353 3.90866 5.26138C4.14726 4.67924 4.49855 4.14998 4.94236 3.70401C5.38617 3.25803 5.91374 2.90414 6.49476 2.66266C7.07578 2.42118 7.6988 2.29687 8.32802 2.29688C8.6217 2.29815 8.91427 2.33304 9.20002 2.40086C10.2927 2.60778 11.2788 3.18979 11.988 4.04635C12.6971 4.90292 13.0848 5.98023 13.084 7.09219L13.1 7.09619Z" fill="#FFC44D"/>
<path d="M11.672 3.69268L3.63602 7.97606C3.5778 7.68644 3.54965 7.39159 3.55202 7.09619C3.54886 6.46707 3.67006 5.84353 3.90866 5.26138C4.14726 4.67924 4.49855 4.14998 4.94236 3.70401C5.38617 3.25803 5.91374 2.90414 6.49476 2.66266C7.07578 2.42118 7.6988 2.29687 8.32802 2.29688C8.6217 2.29815 8.91427 2.33304 9.20002 2.40086C10.1359 2.57096 10.998 3.02148 11.672 3.69268Z" fill="#FFDE66"/>
<path d="M14 19.5391C13.9995 20.1557 14.1204 20.7664 14.3559 21.3362C14.5915 21.9061 14.9369 22.424 15.3726 22.8604C15.8083 23.2967 16.3257 23.643 16.8952 23.8795C17.4648 24.1159 18.0753 24.2379 18.692 24.2384H24.8V24.8943C24.799 25.7178 24.471 26.5072 23.8883 27.0891C23.3055 27.671 22.5156 27.9979 21.692 27.9979H3.09601C2.68891 27.9974 2.2859 27.9167 1.91 27.7604C1.53409 27.6042 1.19264 27.3754 0.90515 27.0872C0.61766 26.799 0.389757 26.457 0.234452 26.0808C0.0791482 25.7045 -0.000515296 25.3014 1.03301e-05 24.8943V13.424C-0.00104145 13.0166 0.0782337 12.613 0.233302 12.2363C0.388371 11.8596 0.616191 11.5171 0.903733 11.2285C1.19128 10.9399 1.5329 10.7108 1.90907 10.5543C2.28524 10.3978 2.68858 10.3169 3.09601 10.3164H21.692C22.5163 10.3164 23.3068 10.6438 23.8897 11.2266C24.4726 11.8094 24.8 12.5998 24.8 13.424V14.8518H18.692C17.4483 14.8518 16.2555 15.3455 15.3757 16.2244C14.4959 17.1033 14.0011 18.2956 14 19.5391Z" fill="#E6A273"/>
<path d="M18.696 22.9233H26.452C26.8626 22.9233 27.2563 22.7602 27.5466 22.4699C27.8369 22.1797 28 21.786 28 21.3755V17.704C28 17.2935 27.8369 16.8998 27.5466 16.6096C27.2563 16.3193 26.8626 16.1562 26.452 16.1562H18.696C17.7985 16.1562 16.9378 16.5127 16.3032 17.1473C15.6685 17.7818 15.312 18.6424 15.312 19.5398C15.312 20.4371 15.6685 21.2977 16.3032 21.9323C16.9378 22.5668 17.7985 22.9233 18.696 22.9233Z" fill="#E6A273"/>
<path d="M21.072 10.3164L1.03301e-05 19.5391V13.424C-0.00104145 13.0166 0.0782337 12.613 0.233302 12.2363C0.388371 11.8596 0.616191 11.5171 0.903733 11.2285C1.19128 10.9399 1.5329 10.7108 1.90907 10.5543C2.28524 10.3978 2.68858 10.3169 3.09601 10.3164H21.072Z" fill="#FFCC99"/>
<path d="M21.536 19.5377C21.5412 20.0969 21.3691 20.6432 21.0445 21.0986C20.72 21.5539 20.2596 21.8948 19.7293 22.0724C19.199 22.2501 18.6262 22.2553 18.0928 22.0873C17.5594 21.9194 17.0928 21.5869 16.76 21.1375C16.4102 20.6782 16.2243 20.115 16.232 19.5377C16.2294 18.9113 16.449 18.3042 16.8517 17.8244C17.2545 17.3446 17.8144 17.0231 18.4319 16.9171C19.0493 16.8111 19.6844 16.9274 20.2242 17.2454C20.764 17.5634 21.1735 18.0624 21.38 18.6539C21.4858 18.9364 21.5387 19.236 21.536 19.5377Z" fill="#CFE0E6"/>
<path d="M21.38 18.6542L16.76 21.1219C16.4102 20.6626 16.2243 20.0994 16.232 19.5221C16.2294 18.8957 16.449 18.2886 16.8517 17.8088C17.2545 17.329 17.8144 17.0075 18.4319 16.9015C19.0493 16.7955 19.6844 16.9118 20.2242 17.2298C20.764 17.5478 21.1735 18.0468 21.38 18.6382V18.6542Z" fill="#F2FAFF"/>
</g>
<defs>
<clipPath id="clip0_4262_68094">
<rect width="28" height="28" fill="white"/>
</clipPath>
</defs>
</svg>
