<svg width="241" height="200" viewBox="0 0 241 200" fill="none" xmlns="http://www.w3.org/2000/svg">
<g clip-path="url(#clip0_2955_15278)">
<path d="M36.4767 190.876C36.466 191.597 36.1689 192.285 35.6499 192.79C35.1309 193.296 34.4318 193.578 33.7041 193.576H26.5374C25.5273 193.577 24.5288 193.363 23.6099 192.947C22.6911 192.531 21.8735 191.924 21.2128 191.166C20.5521 190.409 20.0638 189.52 19.7812 188.559C19.4986 187.598 19.4283 186.587 19.5751 185.597L21.3123 173.824C21.3889 173.289 21.576 172.775 21.8617 172.314C22.1475 171.854 22.5258 171.457 22.9732 171.148C23.4206 170.839 23.9274 170.625 24.4621 170.518C24.9968 170.412 25.5479 170.415 26.081 170.529L22.0685 182.897C21.7737 183.815 21.7017 184.789 21.8584 185.74C22.0151 186.691 22.396 187.592 22.9702 188.369C23.5444 189.147 24.2957 189.779 25.1629 190.215C26.0302 190.65 26.9889 190.877 27.9612 190.876H36.4767Z" fill="#333333"/>
<path d="M36.4764 190.876H27.9609C26.9886 190.877 26.0299 190.65 25.1626 190.214C24.2954 189.779 23.5441 189.147 22.9699 188.369C22.3957 187.592 22.0148 186.691 21.8581 185.74C21.7014 184.789 21.7734 183.815 22.0682 182.897L26.0466 170.549L32.1029 171.791L32.2459 181.418C31.8985 181.958 30.6246 183.207 30.6246 183.774C30.6213 184.521 30.8848 185.246 31.3686 185.819C31.8523 186.392 32.525 186.777 33.2678 186.907C33.7026 186.984 34.1162 187.151 34.4822 187.396C34.8482 187.642 35.1585 187.96 35.3933 188.331L36.0745 189.391C36.3539 189.836 36.4937 190.352 36.4764 190.876Z" fill="white"/>
<path d="M131.987 188.898H111.515C111.19 188.899 110.868 188.836 110.568 188.713C110.268 188.591 109.995 188.41 109.765 188.182C109.535 187.955 109.353 187.684 109.229 187.386C109.105 187.089 109.042 186.77 109.042 186.448L134.248 185.975C134.341 186.319 134.353 186.679 134.283 187.029C134.213 187.378 134.063 187.706 133.844 187.989C133.626 188.272 133.345 188.5 133.022 188.658C132.7 188.816 132.346 188.898 131.987 188.898Z" fill="#333333"/>
<path d="M134.248 185.975L109.042 186.447V179.521L114.526 174.984L121.339 179.521L127.272 180.088C128.9 180.245 130.44 180.89 131.687 181.937C132.935 182.984 133.831 184.383 134.255 185.948L134.248 185.975Z" fill="white"/>
<path d="M152.683 92.4354C152.683 92.4354 151.634 98.5516 147.233 102.892L141.251 103.439L142.123 88.2026L150.435 87.4668L152.683 92.4354Z" fill="#E69974"/>
<path d="M102.441 97.8566L117.98 116.624L129.03 113.275L111.978 89.5801L102.441 97.8566Z" fill="#E69974"/>
<path d="M88.3053 145.335L104.423 143.04C104.74 142.983 105.052 142.904 105.357 142.804C108.238 141.926 111.147 144.41 110.807 147.664L108.245 177.496C108.225 177.754 108.258 178.014 108.343 178.258C108.429 178.503 108.564 178.727 108.742 178.918C108.919 179.108 109.134 179.26 109.373 179.364C109.613 179.467 109.871 179.521 110.132 179.521H119.908C120.318 179.521 120.718 179.389 121.047 179.146C121.376 178.903 121.616 178.561 121.734 178.171L135.311 131.8C137.831 123.165 131.36 114.558 122.831 115.193L73.6313 118.885L88.3053 145.335Z" fill="#6BA5B3"/>
<path d="M91.7526 187.44C90.9037 188.715 89.6883 189.708 88.2636 190.29C86.8389 190.873 85.2706 191.018 83.7616 190.707L33.3498 182.438C32.7368 182.337 32.1798 182.024 31.778 181.554C31.3763 181.084 31.1559 180.488 31.1563 179.872V172.372C31.1562 171.729 31.4123 171.111 31.8689 170.654C32.3255 170.196 32.9458 169.935 33.5951 169.928L61.5259 169.699C62.1818 169.693 62.825 169.519 63.3932 169.194C63.9614 168.869 64.4353 168.405 64.769 167.845C65.1027 167.286 65.285 166.65 65.298 166C65.3111 165.351 65.1546 164.708 64.8436 164.136C63.1064 160.929 60.7561 156.366 57.9767 150.54C55.4561 145.234 52.629 138.875 49.6587 131.536C40.4143 108.719 88.1556 131.131 88.1556 131.131L89.1639 136.944L91.2553 149.048L92.9243 177.01C92.9993 178.205 93.1832 179.4 93.3671 180.581C93.7408 182.988 93.1624 185.445 91.7526 187.44Z" fill="#A8D7E2"/>
<path d="M89.1433 136.944C89.1433 136.944 88.6732 151.87 79.7353 149.453C70.7975 147.036 63.3856 147.846 57.9356 150.54C55.4151 145.234 52.5879 138.875 49.6177 131.536C40.3733 108.719 88.1146 131.131 88.1146 131.131L89.1433 136.944Z" fill="#6BA5B3"/>
<path d="M103.688 68.4902L114.254 87.6018L101.828 98.4031C101.648 98.5587 101.43 98.6667 101.196 98.7171C100.963 98.7674 100.72 98.7586 100.49 98.6913C100.261 98.624 100.052 98.5005 99.8833 98.3321C99.7147 98.1637 99.5917 97.956 99.5256 97.728L94.355 79.5683L103.688 68.4902Z" fill="#F2CA79"/>
<path d="M95.8401 109.556C97.5024 109.556 97.5909 112.681 97.4342 114.909C97.3525 116.151 97.2026 117.116 97.2026 117.116C94.6003 117.562 92.9994 119.709 91.7118 122.585C87.89 131.07 86.766 145.855 70.5389 141.406C63.3381 139.428 54.4275 137.781 52.2612 139.927C50.0948 142.074 48.3372 135.769 48.3372 132.4C48.3372 129.032 48.6915 128.505 47.9285 127.749C47.1655 126.993 46.3071 123.962 46.3071 121.288C46.3071 118.615 48.3509 117.15 50.3946 115.159C52.4383 113.167 48.7732 111.216 48.7732 107.996C48.7732 107.321 48.8073 106.079 48.9095 104.384C49.2841 97.6336 50.4491 83.97 52.8334 75.3559C55.8104 64.5546 58.658 63.326 62.3708 61.5775C66.0835 59.829 72.3646 59.4375 72.3646 59.4375L75.7708 59.8493L95.8946 62.2458C95.8946 62.2458 101.719 65.3377 103.743 68.4971C105.766 71.6565 101.181 84.6586 99.5529 87.5141C97.9247 90.3697 97.5092 99.1458 97.5092 104.391C97.5092 109.637 93.265 109.556 95.8401 109.556Z" fill="#FFEE99"/>
<path d="M85.6415 112.141C80.7365 104.209 69.1282 84.6922 66.8665 73.8842C63.9917 60.099 69.0396 61.9892 74.5509 61.9892L75.7158 59.8425L72.3096 59.4307C72.3096 59.4307 65.9945 59.8357 62.3158 61.5707C58.6371 63.3056 55.7895 64.5613 52.7784 75.3491C50.3941 83.9631 49.2292 97.6268 48.8545 104.378C50.8165 98.7339 54.7132 107.591 60.8988 109.549C67.0845 111.506 60.8988 113.727 53.9979 115.159C47.0969 116.59 55.1151 118.865 60.6945 117.029C66.2738 115.192 59.8838 118.865 55.2105 123.489C50.5372 128.113 69.026 118.561 73.604 115.159C73.9271 114.921 74.2741 114.718 74.6394 114.551L91.6705 122.585C92.958 119.709 94.5589 117.562 97.1613 117.116C97.1613 117.116 97.3111 116.151 97.3929 114.909L85.6415 112.141Z" fill="#F2CA79"/>
<path d="M64.5708 126.568C71.4241 127.364 77.0171 125.501 81.268 121.288C85.519 117.076 82.6782 123.354 80.2257 127.749C77.7733 132.144 76.3086 134.021 80.5936 131.475C84.8786 128.93 81.016 138.476 73.6041 135.917C66.1922 133.359 57.3224 130.476 53.3985 134.358C49.4745 138.24 51.164 125.015 64.5708 126.568Z" fill="#F2CA79"/>
<path d="M88.3055 69.0507C79.9399 69.0507 75.2938 64.7909 73.1343 61.9623C72.5293 61.1972 72.0107 60.3686 71.5879 59.4915C71.5879 59.4915 73.509 59.5793 74.4014 55.441C75.2938 51.3028 75.362 47.6236 73.9995 39.1851L81.5613 42.7967L90.9692 54.4149V61.6653C90.9692 61.6653 100.813 69.0507 88.3055 69.0507Z" fill="#FFB980"/>
<path d="M90.9691 54.4149V57.7903C83.7888 60.8147 73.107 61.9691 73.107 61.9691C72.502 61.2039 71.9834 60.3754 71.5605 59.4983C71.5605 59.4983 73.4816 59.586 74.3741 55.4478C75.2665 51.3095 75.3619 47.6236 73.9994 39.1851L81.5612 42.7967L90.9691 54.4149Z" fill="#E69974"/>
<path d="M73.5291 36.91L74.006 39.1918C75.07 44.2948 78.0692 48.7988 82.3852 51.7753L84.0474 52.9162C85.2609 53.7616 86.6637 54.3014 88.1349 54.4891C89.7429 54.6951 91.3773 54.4764 92.8727 53.8552C94.368 53.234 95.6712 52.2324 96.6504 50.9517C98.8644 48.0219 101.358 43.9511 101.705 40.0626C102.386 32.8663 104.43 32.0899 104.43 27.3374C104.43 22.5848 98.9802 13.8357 87.6921 15.7665C76.7241 17.6432 73.5018 23.4084 73.3179 34.9658C73.3162 35.6196 73.387 36.2716 73.5291 36.91Z" fill="#FFB980"/>
<path d="M90.7372 34.8443C90.0559 36.451 88.891 39.3133 88.1962 41.0685C88.1187 41.2541 88.084 41.4545 88.0946 41.6551C88.1052 41.8557 88.1609 42.0514 88.2575 42.2279C88.3541 42.4045 88.4892 42.5575 88.653 42.6757C88.8168 42.794 89.0052 42.8745 89.2044 42.9115L91.4048 43.3706C91.6014 43.4146 91.8053 43.4148 92.002 43.3713C92.1986 43.3278 92.3831 43.2416 92.5421 43.1189C92.7011 42.9962 92.8306 42.8401 92.9214 42.6618C93.0122 42.4835 93.0619 42.2875 93.067 42.0879L93.394 35.4586C93.4114 35.1675 93.3331 34.8787 93.171 34.6353C93.009 34.3919 92.7717 34.2071 92.4948 34.1085C92.1629 33.9786 91.7929 33.983 91.4643 34.1206C91.1357 34.2582 90.8746 34.518 90.7372 34.8443Z" fill="#E69974"/>
<path d="M90.2059 49.7098C89.3381 49.7016 88.4783 49.5439 87.6649 49.244C85.7781 48.5722 84.1622 47.312 83.0597 45.6526C82.9693 45.5183 82.9365 45.354 82.9685 45.1957C83.0004 45.0375 83.0945 44.8983 83.23 44.8087C83.3655 44.7192 83.5313 44.6867 83.691 44.7184C83.8507 44.75 83.9912 44.8432 84.0815 44.9775C85.0461 46.4061 86.4442 47.4937 88.0736 48.0829C88.7986 48.3883 89.5854 48.5224 90.3717 48.4743C91.158 48.4263 91.9222 48.1975 92.6039 47.8061C92.6712 47.7625 92.7466 47.7325 92.8258 47.7181C92.9049 47.7036 92.9861 47.7049 93.0648 47.7218C93.1434 47.7388 93.2178 47.7711 93.2837 47.8169C93.3496 47.8626 93.4057 47.9209 93.4486 47.9884C93.4925 48.0546 93.5226 48.1288 93.5371 48.2067C93.5516 48.2846 93.5502 48.3646 93.5331 48.4419C93.516 48.5193 93.4834 48.5925 93.4373 48.6572C93.3912 48.7219 93.3325 48.7768 93.2647 48.8187C92.3541 49.4039 91.2912 49.7136 90.2059 49.7098Z" fill="#B3775A"/>
<path d="M81.568 28.6877C81.3569 28.7011 81.1488 28.6321 80.9883 28.4956C80.8277 28.3591 80.7274 28.1657 80.7087 27.9569C80.6901 27.7481 80.7545 27.5403 80.8883 27.3779C81.0221 27.2155 81.2147 27.1114 81.4249 27.0878L88.142 25.9334C88.3543 25.8967 88.5726 25.945 88.7489 26.0678C88.9252 26.1906 89.045 26.3778 89.0821 26.5882C89.1191 26.7986 89.0703 27.0149 88.9464 27.1896C88.8225 27.3643 88.6336 27.4831 88.4213 27.5198L81.7042 28.6742L81.568 28.6877Z" fill="#4D4D4D"/>
<path d="M101.147 30.5846H100.969L95.3696 29.3087C95.2661 29.2857 95.1682 29.2425 95.0815 29.1817C94.9949 29.1209 94.9213 29.0437 94.8649 28.9546C94.8085 28.8655 94.7705 28.7662 94.7531 28.6624C94.7357 28.5587 94.7391 28.4525 94.7633 28.3501C94.812 28.142 94.9418 27.9614 95.1242 27.8476C95.3067 27.7338 95.5271 27.6961 95.7375 27.7425L101.33 28.978C101.525 29.0221 101.696 29.1357 101.811 29.2971C101.927 29.4585 101.978 29.6563 101.955 29.8527C101.932 30.0492 101.837 30.2304 101.688 30.3617C101.539 30.493 101.346 30.5651 101.147 30.5644V30.5846Z" fill="#4D4D4D"/>
<path d="M77.6578 14.5718C74.2516 16.3135 72.8073 19.1083 72.8073 22.1934C72.8073 22.1934 70.5729 23.3478 71.7378 26.1494C71.7378 26.1494 70.5388 29.1873 74.3742 30.4902C74.5711 28.914 75.2729 27.4418 76.3764 26.2899C77.4799 25.1381 78.9271 24.3672 80.5053 24.0904C81.2447 23.9458 81.9315 23.6079 82.4946 23.1116L89.668 16.732L77.6578 14.5718Z" fill="#4D4D4D"/>
<path d="M88.0942 19.3513C86.9702 22.9967 93.1695 31.7998 98.6126 26.4059C98.6126 26.4059 98.4491 31.9145 104.805 30.6251C111.161 29.3357 108.893 23.7056 108.893 23.7056C108.893 23.7056 116.386 20.2086 109.131 15.5573C109.131 15.5573 108.075 8.69849 102.448 10.1094C102.448 10.1094 97.6793 2.44048 93.9529 6.11968C93.9529 6.11968 87.7128 1.42786 83.0939 6.00491C83.0939 6.00491 71.0224 4.24295 72.269 16.732C72.269 16.732 73.3931 22.8077 76.9423 22.0651C80.4916 21.3225 81.4385 19.0205 81.4385 19.0205C81.4385 19.0205 82.3446 21.9638 84.3338 21.9638C86.323 21.9638 88.0942 19.3513 88.0942 19.3513Z" fill="#666666"/>
<path d="M74.374 30.4902C72.7663 28.8902 68.1406 27.6278 68.8219 32.7044C69.5031 37.781 74.2718 36.9102 74.2718 36.9102L74.374 30.4902Z" fill="#FFB980"/>
<path d="M149.174 112.384C144.337 115.429 136.401 119.864 123.723 114.551C123.784 113.857 123.784 113.159 123.723 112.465C123.637 111.474 123.431 110.497 123.11 109.556C127.735 114.133 141.449 115.24 148.22 108.536C148.461 109.836 148.78 111.121 149.174 112.384Z" fill="#CC6666"/>
<path d="M150.203 161.51C148.411 166.971 148.956 173.175 154.794 177.887C155.387 178.368 155.827 179.007 156.063 179.729C156.299 180.45 156.321 181.224 156.126 181.958C155.93 182.691 155.526 183.353 154.962 183.866C154.397 184.378 153.696 184.719 152.941 184.847C152.04 184.984 151.129 185.05 150.216 185.043C145.284 185.043 145.727 187.014 146.872 188.594C147.282 189.183 147.829 189.665 148.467 190.001C149.105 190.337 149.814 190.517 150.537 190.525H173.699C175.789 190.514 177.798 189.723 179.326 188.31C181.41 186.427 183.611 183.322 182.896 178.927C181.622 171.076 181.015 159.903 174.039 154.084L173.835 153.915C165.674 147.184 153.704 150.931 150.203 161.51Z" fill="#35454D"/>
<path d="M130.365 80.3856L132.532 71.3733L131.53 68.2949C131.468 68.102 131.473 67.8939 131.544 67.704C131.615 67.5141 131.748 67.3533 131.923 67.2475C132.097 67.1417 132.302 67.0969 132.505 67.1203C132.708 67.1438 132.897 67.2341 133.043 67.3768L136.762 71.0695V81.4117L133.567 83.5787L130.365 80.3856Z" fill="#35454D"/>
<path d="M124.684 94.5758C121.025 99.8077 122.64 102.677 113.103 98.5723C111.868 97.7887 110.833 96.7336 110.077 95.489C109.32 94.2445 108.864 92.8439 108.743 91.3962L108.382 86.8529C108.343 86.3911 108.412 85.9268 108.585 85.4961C108.757 85.0654 109.028 84.68 109.375 84.3702C109.723 84.0603 110.138 83.8343 110.589 83.7099C111.039 83.5855 111.512 83.566 111.972 83.653L117.422 84.6791C117.949 84.7791 118.485 84.8288 119.023 84.8277C119.452 85.0572 128.24 89.4857 124.684 94.5758Z" fill="#B8C6CC"/>
<path d="M148.255 108.536C141.483 115.24 127.77 114.133 123.144 109.556C121.414 104.594 116.618 100.78 113.116 98.5788C122.654 102.69 121.046 99.8142 124.697 94.5823C128.253 89.4922 119.465 85.0637 119.002 84.8342C121.132 84.848 123.195 84.0947 124.806 82.7144L125.317 82.2824C126.748 81.0628 128.573 80.3922 130.461 80.3921H130.876C133.492 80.3856 136.067 81.0261 138.37 82.2554L146.041 86.3059C146.041 86.3059 144.446 87.872 148.255 108.536Z" fill="#475D66"/>
<path d="M140.761 89.4854C140.767 90.8568 140.89 92.2254 141.129 93.5764C141.667 96.577 141.015 99.6677 139.31 102.204C139.203 102.36 139.155 102.548 139.175 102.735C139.195 102.922 139.281 103.096 139.419 103.226C139.556 103.357 139.735 103.435 139.925 103.446C140.114 103.458 140.302 103.403 140.454 103.291L145.802 99.382C146.769 98.6733 147.574 97.7686 148.161 96.728C148.748 95.6874 149.105 94.5348 149.208 93.3468L149.419 90.822L140.761 89.4854Z" fill="#35454D"/>
<path d="M135.502 138.537C135.74 145.902 138.056 163.157 138.819 166.668C138.907 167.082 138.888 167.511 138.765 167.917L132.184 189.445C132.033 189.942 131.728 190.38 131.313 190.696C130.897 191.012 130.392 191.191 129.868 191.207L125.031 191.376C124.489 191.396 123.956 191.242 123.51 190.937C123.064 190.631 122.73 190.191 122.558 189.681C122.357 189.086 122.391 188.437 122.653 187.865C122.914 187.293 123.384 186.84 123.968 186.596L125.549 185.921C125.929 185.762 126.265 185.513 126.525 185.195C126.785 184.877 126.962 184.5 127.041 184.098L130.542 166.222C130.618 165.806 130.59 165.377 130.461 164.973L126.291 152.444C124.604 147.363 123.462 142.12 122.885 136.802C122.654 134.662 122.415 132.428 122.204 130.564C121.604 125.035 135.147 127.628 135.502 138.537Z" fill="#35454D"/>
<path d="M194.136 181.918C192.46 193.502 178.781 191.416 169.114 187.062C164.672 185.037 161.075 182.579 159.876 180.73C156.096 174.843 148.241 164.48 129.759 150.715C112.537 137.889 122.878 124.34 123.723 114.551C126.47 115.739 129.378 116.521 132.354 116.874C140.168 117.738 145.55 114.673 149.174 112.384C149.787 114.457 150.621 116.46 151.661 118.359C158.425 130.686 171.921 134.426 179.367 141.804C185.873 148.251 191.833 157.291 193.843 168.065C194.702 172.636 194.801 177.315 194.136 181.918Z" fill="#475D66"/>
<path d="M169.114 187.062C164.672 185.037 161.075 182.579 159.876 180.73C156.096 174.843 148.241 164.48 129.759 150.715C112.537 137.889 122.878 124.34 123.723 114.551C126.47 115.739 129.378 116.521 132.354 116.874C130.808 127.952 128.43 135.101 133.458 143.877C138.485 152.653 149.917 159.599 156.681 166.303C163.358 172.899 168.944 186.637 169.114 187.062Z" fill="#B8C6CC"/>
<path d="M145.802 142.743C146.367 150.094 149.46 167.228 150.373 170.698C150.479 171.107 150.479 171.537 150.373 171.947L144.76 193.745C144.631 194.248 144.347 194.698 143.948 195.033C143.549 195.368 143.054 195.572 142.532 195.615L137.702 195.993C137.162 196.035 136.622 195.904 136.163 195.618C135.704 195.332 135.35 194.907 135.154 194.406C134.929 193.82 134.935 193.172 135.171 192.59C135.407 192.008 135.856 191.536 136.428 191.267L137.975 190.538C138.348 190.362 138.671 190.097 138.917 189.767C139.163 189.438 139.324 189.053 139.385 188.648L142.042 170.617C142.106 170.198 142.059 169.77 141.905 169.374L137.184 157.041C135.274 152.041 133.904 146.854 133.097 141.568C132.77 139.441 132.416 137.22 132.157 135.364C131.312 129.862 144.957 131.86 145.802 142.743Z" fill="#475D66"/>
<path d="M157.22 164.575C155.094 170.401 155.925 177.077 163.698 181.884C164.169 182.17 164.55 182.579 164.8 183.066C165.05 183.553 165.16 184.1 165.116 184.645C165.072 185.19 164.877 185.712 164.552 186.154C164.228 186.596 163.786 186.941 163.276 187.149C161.339 187.847 159.286 188.172 157.226 188.108C151.777 188.108 152.24 190.079 153.514 191.659C154.004 192.265 154.627 192.754 155.334 193.088C156.042 193.422 156.817 193.594 157.601 193.59H183.325C185.606 193.594 187.817 192.811 189.579 191.375C191.881 189.492 194.347 186.387 193.537 181.992C192.126 174.141 191.445 162.968 183.727 157.149L183.502 156.98C174.387 150.249 161.076 153.996 157.22 164.575Z" fill="#475D66"/>
<path d="M191.493 189.458C206.998 190.775 217.945 188.594 220.262 175.613C222.305 164.204 210.786 160.322 206.589 160.855C202.788 161.341 197.154 165.385 201.398 174.175C201.455 174.299 201.554 174.399 201.679 174.458C201.803 174.516 201.945 174.528 202.078 174.492C202.211 174.457 202.326 174.375 202.404 174.262C202.482 174.15 202.516 174.013 202.502 173.878C202.182 170.414 202.706 165.473 208.483 166.087C217.285 167.026 217.428 190.228 193.189 185.199H188.72L191.493 189.458Z" fill="#475D66"/>
<path d="M139.099 81.5871L135.127 82.9845C134.815 83.0984 134.537 83.289 134.32 83.5385C134.102 83.7881 133.952 84.0883 133.884 84.4109C133.816 84.7336 133.832 85.0681 133.93 85.3831C134.028 85.698 134.206 85.9831 134.446 86.2114L140.461 91.9901C140.716 92.2353 141.033 92.4076 141.378 92.4884C141.724 92.5693 142.085 92.5557 142.423 92.4491L148.186 90.6264C148.445 90.5434 148.717 90.515 148.987 90.5429C149.257 90.5708 149.518 90.6544 149.753 90.7884L152.683 92.4356L152.635 86.6839C152.636 86.3445 152.546 86.0109 152.375 85.7168C152.204 85.4228 151.958 85.1789 151.661 85.0097L146.844 82.3094C145.683 81.6406 144.389 81.2296 143.052 81.1049C141.714 80.9802 140.366 81.1447 139.099 81.5871Z" fill="#FFB980"/>
<path d="M107.612 85.4351L107.946 86.711C107.99 86.8773 108.075 87.0306 108.192 87.1579C108.309 87.2852 108.455 87.3827 108.618 87.4423C108.781 87.5019 108.956 87.5217 109.128 87.5002C109.3 87.4787 109.465 87.4164 109.608 87.3186L112.735 85.1448C112.871 85.0519 112.977 84.9221 113.04 84.7709C113.104 84.6197 113.122 84.4537 113.092 84.2926C113.063 84.1315 112.987 83.9823 112.874 83.8628C112.761 83.7434 112.616 83.6587 112.455 83.6191L110.105 82.9845C109.762 82.8969 109.402 82.8991 109.061 82.9908C108.719 83.0825 108.407 83.2607 108.156 83.5077C107.904 83.7548 107.722 84.0623 107.627 84.4002C107.531 84.738 107.526 85.0946 107.612 85.4351Z" fill="#35454D"/>
<path d="M132.089 91.7604C131.874 91.7604 131.667 91.6758 131.515 91.5251C131.363 91.3745 131.278 91.1702 131.278 90.9571C131.278 89.1614 130.842 89.0061 128.608 89.0061C128.393 89.0061 128.186 88.9215 128.034 88.7708C127.882 88.6202 127.797 88.4158 127.797 88.2028C127.797 87.9897 127.882 87.7854 128.034 87.6347C128.186 87.4841 128.393 87.3994 128.608 87.3994C130.958 87.3994 132.906 87.6627 132.906 90.9571C132.906 91.0632 132.885 91.1682 132.844 91.2661C132.803 91.364 132.742 91.4529 132.666 91.5275C132.59 91.6022 132.5 91.6613 132.401 91.7012C132.302 91.7412 132.196 91.7613 132.089 91.7604Z" fill="#232E33"/>
<path d="M86.9429 31.3203C86.3137 30.8187 85.5523 30.507 84.7493 30.4224C83.9763 30.3395 83.1945 30.4422 82.47 30.7219C81.7455 31.0015 81.0996 31.4499 80.5869 32.0291C81.3363 31.9008 82.0039 31.7253 82.6715 31.6443H83.0053C82.6691 32.0286 82.483 32.5196 82.4808 33.0282C82.4788 33.3462 82.548 33.6607 82.6833 33.949C82.8186 34.2374 83.0166 34.4925 83.2632 34.696C83.5098 34.8995 83.7988 35.0464 84.1095 35.126C84.4202 35.2057 84.7448 35.2162 85.06 35.1567C85.3753 35.0973 85.6733 34.9694 85.9328 34.7823C86.1922 34.5951 86.4066 34.3534 86.5606 34.0744C86.7146 33.7954 86.8042 33.486 86.8232 33.1686C86.8422 32.8511 86.79 32.5335 86.6704 32.2384C87.2013 32.5077 87.6826 32.8638 88.0942 33.2915C88.0482 32.9024 87.9224 32.5268 87.7244 32.1878C87.5264 31.8488 87.2604 31.5536 86.9429 31.3203Z" fill="#4D4D4D"/>
<path d="M100.963 35.5802C100.987 34.9054 100.742 34.2483 100.281 33.7508C99.8065 33.2188 99.1623 32.8639 98.4557 32.7449C97.7606 32.6298 97.0465 32.7312 96.412 33.0352C95.8169 33.3263 95.3147 33.7749 94.9609 34.3313C95.6422 34.1896 96.1667 34.014 96.7117 33.9263H97.0387C96.753 34.1534 96.5301 34.4486 96.3908 34.7843C96.2515 35.12 96.2004 35.4853 96.2422 35.8459C96.284 36.2065 96.4174 36.5507 96.63 36.8463C96.8425 37.1419 97.1272 37.3793 97.4574 37.5363C97.7877 37.6933 98.1527 37.7648 98.5184 37.744C98.8841 37.7232 99.2385 37.6109 99.5485 37.4175C99.8585 37.2241 100.114 36.956 100.291 36.6383C100.468 36.3205 100.561 35.9634 100.561 35.6005C100.558 35.4367 100.537 35.2738 100.499 35.1144C100.629 35.2427 100.792 35.3979 100.963 35.5802Z" fill="#4D4D4D"/>
<path d="M137.403 119.094L135.291 124.684C134.888 125.744 134.14 126.64 133.165 127.231C132.19 127.822 131.044 128.073 129.909 127.945L117.647 126.595L115.909 126.399L82.3788 113.572C80.9472 113.036 79.7594 112.005 79.0339 110.669L66.867 88.6483L60.3747 76.9086C59.8949 76.0427 59.6 75.0882 59.5086 74.1045C59.4172 73.1207 59.5312 72.1289 59.8434 71.1907L60.3679 69.638C60.8581 68.2085 61.7896 66.968 63.0306 66.092C64.2715 65.2161 65.759 64.7491 67.2825 64.7572C67.6106 64.754 67.9384 64.7743 68.2635 64.8179C69.4921 64.9838 70.6574 65.4586 71.6484 66.1972C72.6394 66.9357 73.423 67.9135 73.9246 69.0372L80.0558 82.6603L81.9156 86.8188L88.1421 100.766C88.7691 102.16 89.8746 103.289 91.2622 103.952L118.015 116.651L122.572 113.275C124.086 112.146 125.929 111.535 127.824 111.534C128.083 111.534 128.349 111.534 128.608 111.534C128.808 111.553 128.996 111.633 129.149 111.762C129.301 111.892 129.409 112.065 129.458 112.258C129.507 112.451 129.495 112.654 129.424 112.84C129.352 113.025 129.224 113.185 129.057 113.296L126.871 114.713C126.7 114.829 126.571 114.996 126.502 115.189C126.433 115.383 126.428 115.593 126.488 115.79C126.548 115.986 126.67 116.158 126.835 116.282C127.001 116.405 127.202 116.473 127.409 116.475L135.645 116.549C135.951 116.551 136.252 116.627 136.522 116.769C136.792 116.911 137.023 117.116 137.196 117.366C137.369 117.616 137.478 117.904 137.514 118.205C137.55 118.506 137.512 118.811 137.403 119.094Z" fill="#FFB980"/>
<path d="M85.1444 109.913C83.5553 109.1 82.2446 107.838 81.3771 106.288L74.4557 93.9004L81.8813 86.7918L80.0215 82.6333L75.2528 80.3853L69.4486 85.4551L66.8735 88.6483L79.0064 110.663C79.7319 111.998 80.9197 113.029 82.3513 113.566L115.882 126.392L117.619 126.588L85.1444 109.913Z" fill="#E69974"/>
<path d="M79.163 85.5094C76.3972 87.0149 70.9404 90.343 67.1391 94.9606C66.9335 95.2108 66.6632 95.4009 66.357 95.5108C66.0509 95.6207 65.7204 95.6462 65.4008 95.5845C65.0812 95.5228 64.7845 95.3763 64.5424 95.1606C64.3002 94.9449 64.1217 94.6681 64.0258 94.3598L58.9029 77.9215C58.3085 76.0123 58.1764 73.9912 58.5173 72.0219C58.8581 70.0527 59.6624 68.1907 60.8649 66.5869L61.042 66.3439C61.8425 65.2779 62.8834 64.412 64.0816 63.8154C65.2797 63.2188 66.602 62.908 67.943 62.9077H68.4607C69.4506 62.9142 70.4211 63.1797 71.2742 63.6773C74.3437 65.4346 76.6905 68.2071 77.9027 71.5083L82.7122 84.6453C81.4729 84.6173 80.2482 84.9155 79.163 85.5094Z" fill="#FFF2B3"/>
<path d="M91.7525 187.433C90.9036 188.708 89.6882 189.701 88.2635 190.283C86.8389 190.866 85.2705 191.011 83.7615 190.7L32.8865 182.37C32.395 182.288 31.9486 182.037 31.6268 181.66C31.3049 181.283 31.1285 180.805 31.1289 180.311V178.63L91.7525 187.433Z" fill="#6BA5B3"/>
<path d="M193.85 168.045C192.533 166.763 191.64 165.115 191.289 163.319C189.872 157.48 182.153 156.075 177.419 154.104C172.684 152.133 172.609 146.003 171.39 142.203C170.17 138.402 165.299 139.171 157.22 136.336C149.14 133.501 150.067 125.886 151.668 118.338C158.432 130.665 171.928 134.405 179.374 141.784C185.88 148.251 191.854 157.291 193.85 168.045Z" fill="#35454D"/>
<path d="M200.594 155.056C201.404 154.199 202.411 153.551 203.53 153.166C204.659 152.764 205.854 152.576 207.052 152.612C208.258 152.65 209.444 152.926 210.54 153.422C211.636 153.894 212.569 154.673 213.224 155.664C212.268 155.113 211.242 154.69 210.172 154.408C209.138 154.146 208.078 153.997 207.012 153.963C205.94 153.927 204.867 153.999 203.81 154.179C202.715 154.38 201.639 154.673 200.594 155.056Z" fill="#35454D"/>
<path d="M199.027 147.583C200.539 146.562 202.309 145.979 204.137 145.902C205.97 145.772 207.813 145.95 209.587 146.429C211.361 146.884 213.041 147.643 214.553 148.67C216.109 149.65 217.277 151.13 217.864 152.862C216.86 151.468 215.53 150.335 213.987 149.561C212.475 148.77 210.874 148.156 209.219 147.732C207.571 147.285 205.878 147.022 204.171 146.949C202.432 146.854 200.69 147.069 199.027 147.583Z" fill="#35454D"/>
</g>
<defs>
<clipPath id="clip0_2955_15278">
<rect width="201" height="192" fill="white" transform="translate(19.5 4)"/>
</clipPath>
</defs>
</svg>
