<svg width="241" height="200" viewBox="0 0 241 200" fill="none" xmlns="http://www.w3.org/2000/svg">
<g clip-path="url(#clip0_2955_42754)">
<path d="M147.625 137.556C133.471 146.526 111.807 151.297 100.505 141.549C101.32 139.299 101.782 136.944 101.877 134.562C101.925 131.574 101.054 129.238 99.71 126.211L149.621 122.218C148.727 125.461 148.056 128.758 147.612 132.086C147.351 133.901 147.355 135.743 147.625 137.556Z" fill="#90F1E1"/>
<path d="M149.594 122.198C148.7 125.441 148.028 128.738 147.584 132.066C133.704 138.468 111.012 139.552 101.863 134.568C101.911 131.581 101.04 129.245 99.6963 126.217L149.594 122.198Z" fill="#77D8C8"/>
<path d="M144.196 183.098C136.653 190.491 124.892 196 108.035 196C68.74 196 91.9811 161.658 97.6251 148.869C98.8937 146.014 99.8333 143.612 100.505 141.549C109.551 149.348 125.228 147.844 138.388 142.334C141.601 140.995 144.691 139.395 147.625 137.55C148.4 141.762 150.999 144.204 153.9 152.149C156.801 160.094 154.236 173.263 144.196 183.098Z" fill="#CBB3A1"/>
<path d="M120.475 171.166C127.743 167.678 131.318 160.305 128.46 154.698C125.602 149.092 117.393 147.375 110.124 150.863C102.856 154.352 99.2809 161.725 102.139 167.332C104.997 172.938 113.206 174.655 120.475 171.166Z" fill="#B29C8D"/>
<path d="M119.005 169.749C126.274 166.26 129.849 158.887 126.991 153.281C124.132 147.674 115.923 145.957 108.655 149.446C101.387 152.935 97.8116 160.308 100.67 165.914C103.528 171.52 111.737 173.237 119.005 169.749Z" fill="#C2D9E5"/>
<path d="M119.008 168.283C126.277 164.795 129.852 157.422 126.994 151.815C124.135 146.209 115.926 144.492 108.658 147.981C101.39 151.469 97.8146 158.842 100.673 164.449C103.531 170.055 111.74 171.772 119.008 168.283Z" fill="#F1FAFF"/>
<path d="M118.432 164.492C118.247 165.916 116.889 166.894 115.641 166.489L112.939 165.617C111.927 165.296 110.854 165.198 109.798 165.331L107.055 165.67C105.834 165.816 104.997 164.705 105.334 163.394C105.799 161.453 106.958 159.734 108.605 158.543C111.348 156.627 114.736 156.78 116.834 159.003C117.492 159.752 117.975 160.631 118.251 161.578C118.527 162.526 118.588 163.52 118.432 164.492Z" fill="#C2D9E5"/>
<path d="M112.836 152.435C112.616 154.019 111.512 155.35 110.388 155.363C109.263 155.376 108.618 154.085 108.893 152.528C109.167 150.971 110.216 149.793 111.272 149.753C112.328 149.714 113.048 150.891 112.836 152.435Z" fill="#C2D9E5"/>
<path d="M107.514 155.782C107.576 156.907 106.945 157.978 106.102 158.144C105.258 158.311 104.572 157.479 104.545 156.388C104.517 155.296 105.148 154.285 105.916 154.112C106.684 153.939 107.453 154.678 107.514 155.782Z" fill="#C2D9E5"/>
<path d="M119.104 156.254C118.583 157.426 118.843 158.61 119.721 158.883C120.599 159.156 121.778 158.397 122.265 157.193C122.752 155.988 122.451 154.864 121.58 154.617C120.709 154.371 119.625 155.103 119.104 156.254Z" fill="#C2D9E5"/>
<path d="M118.706 152.741C118.37 154.378 117.122 155.662 115.963 155.569C114.804 155.476 114.201 154.065 114.591 152.475C114.982 150.885 116.155 149.74 117.259 149.813C118.363 149.887 119.035 151.151 118.706 152.741Z" fill="#C2D9E5"/>
<path d="M165.031 63.7345L141.632 41.6093C146.371 29.9911 156.362 12.1112 170.64 4.3458C171.273 4.22275 171.916 4.15813 172.56 4.15283C172.56 4.15283 186.118 39.6197 165.031 63.7345Z" fill="#E5C7B3"/>
<path d="M144.196 183.097C149.717 165.317 144.697 149.474 138.388 142.341C141.601 141.002 144.691 139.401 147.625 137.556C148.4 141.768 150.999 144.21 153.9 152.155C156.801 160.101 154.236 173.263 144.196 183.097Z" fill="#B29C8D"/>
<path d="M170.64 4.37256C156.362 12.1114 146.37 29.9912 141.632 41.636L130.968 31.495C130.968 31.495 157.651 6.8213 170.64 4.37256Z" fill="#B29C8D"/>
<path d="M108.035 32.1938L92.6739 47.2922C91.1034 32.3136 84.4445 15.5051 79.1777 4.17969C87.8391 7.83284 102.899 23.5434 108.035 32.1938Z" fill="#B29C8D"/>
<path d="M92.6737 47.2922L87.8732 52.0433L79.1776 53.953C64.0904 31.3754 79.1776 4.17969 79.1776 4.17969C84.4444 15.5051 91.1033 32.3136 92.6737 47.2922Z" fill="#E5C7B3"/>
<path d="M172.56 88.9475C172.561 90.246 172.485 91.5434 172.334 92.8336C171.161 103.008 165.421 112.131 156.767 118.831C147.406 126.151 134.651 130.603 120.565 130.603C104.106 130.603 89.4166 124.468 79.8979 114.899C73.239 108.245 69.1038 99.8803 68.6169 90.7708C68.5757 90.1652 68.562 89.5597 68.562 88.9475C68.5774 82.9967 70.1363 77.1453 73.095 71.9327C74.4687 60.3674 80.2394 49.7153 89.2784 42.0596C98.3174 34.4039 109.975 30.2953 121.97 30.5375C133.966 30.7796 145.437 35.355 154.14 43.3688C162.843 51.3826 168.152 62.2584 169.029 73.8691C171.344 78.5788 172.55 83.7294 172.56 88.9475Z" fill="#CBB3A1"/>
<path d="M132.648 60.6872H105.272C105.272 60.6872 111.08 45.5889 102.728 33.944C113.237 29.7878 124.917 29.3473 135.727 32.6997C123.939 44.1516 132.648 60.6872 132.648 60.6872Z" fill="url(#paint0_linear_2955_42754)"/>
<path d="M122.478 82.0068C119.919 82.0073 117.438 82.8601 115.45 84.4225C113.461 85.985 112.086 88.1624 111.553 90.5907C110.981 88.0677 109.469 85.8386 107.306 84.3314C105.144 82.8242 102.484 82.145 99.8371 82.4242C97.1903 82.7035 94.743 83.9215 92.965 85.8444C91.187 87.7674 90.2036 90.2598 90.2036 92.8432C90.2036 95.4266 91.187 97.919 92.965 99.8419C94.743 101.765 97.1903 102.983 99.8371 103.262C102.484 103.541 105.144 102.862 107.306 101.355C109.469 99.8477 110.981 97.6187 111.553 95.0956C111.991 97.0987 113.005 98.9405 114.477 100.408C115.949 101.875 117.819 102.908 119.871 103.386C121.923 103.865 124.072 103.769 126.071 103.111C128.069 102.454 129.835 101.26 131.163 99.6685C132.491 98.0773 133.327 96.1535 133.575 94.1201C133.823 92.0866 133.473 90.0265 132.564 88.1785C131.655 86.3304 130.225 84.7699 128.44 83.6777C126.655 82.5855 124.588 82.0061 122.478 82.0068Z" fill="#E5CAB5"/>
<path d="M110.182 90.3446L105.313 84.6154C105.064 84.3243 104.908 83.9691 104.864 83.5934C104.82 83.2176 104.891 82.8376 105.066 82.4999C105.241 82.1622 105.515 81.8816 105.852 81.6924C106.19 81.5031 106.577 81.4136 106.966 81.4347L118.034 82.0069C118.435 82.0278 118.82 82.1647 119.14 82.3999C119.46 82.6351 119.7 82.9578 119.829 83.3265C119.958 83.6952 119.97 84.093 119.864 84.4686C119.758 84.8441 119.539 85.1803 119.234 85.4338L113.062 90.5842C112.859 90.7571 112.623 90.8885 112.366 90.9704C112.109 91.0522 111.839 91.0829 111.569 91.0605C111.3 91.0381 111.039 90.9632 110.8 90.8401C110.562 90.7171 110.352 90.5486 110.182 90.3446Z" fill="#FFB2BF"/>
<path d="M152.727 76.5308C152.421 76.5298 152.123 76.4394 151.87 76.2712C140.747 68.7786 132.305 75.852 131.983 76.1581C131.683 76.4018 131.297 76.5231 130.907 76.4963C130.517 76.4696 130.153 76.297 129.892 76.0148C129.63 75.7327 129.492 75.363 129.506 74.9839C129.52 74.6047 129.685 74.2456 129.966 73.9822C130.069 73.889 140.486 65.0257 153.619 73.8691C153.881 74.0478 154.078 74.3028 154.18 74.5973C154.283 74.8917 154.287 75.2102 154.191 75.5067C154.094 75.8032 153.903 76.0622 153.645 76.2463C153.387 76.4304 153.075 76.5301 152.755 76.5308H152.727Z" fill="#665950"/>
<path d="M103.276 76.5306C102.919 76.5311 102.574 76.4085 102.302 76.1846C94.3675 69.6435 88.8401 71.6597 83.4088 74.5144C83.235 74.6057 83.0443 74.6629 82.8477 74.6827C82.6511 74.7025 82.4524 74.6846 82.263 74.6299C82.0735 74.5752 81.897 74.4849 81.7436 74.364C81.5901 74.2431 81.4627 74.0941 81.3686 73.9255C81.2745 73.7568 81.2155 73.5718 81.1951 73.3811C81.1746 73.1903 81.1931 72.9975 81.2495 72.8137C81.3059 72.6299 81.399 72.4586 81.5235 72.3097C81.6481 72.1608 81.8017 72.0372 81.9755 71.9459C87.8389 68.865 94.875 66.2299 104.25 73.9421C104.483 74.1364 104.65 74.3952 104.727 74.6839C104.805 74.9727 104.79 75.2775 104.684 75.5577C104.578 75.8378 104.386 76.0798 104.135 76.2513C103.883 76.4229 103.583 76.5156 103.276 76.5173V76.5306Z" fill="#665950"/>
<path d="M172.334 92.8335C171.161 103.008 165.421 112.131 156.767 118.831C154.352 118.234 152.114 117.102 150.227 115.523C148.34 113.944 146.856 111.963 145.892 109.733C144.928 107.504 144.51 105.089 144.671 102.676C144.832 100.264 145.568 97.9204 146.82 95.8304C148.072 93.7404 149.806 91.9606 151.887 90.6311C153.968 89.3015 156.338 88.4583 158.811 88.1679C161.285 87.8775 163.794 88.1477 166.141 88.9572C168.489 89.7668 170.611 91.0937 172.341 92.8335H172.334Z" fill="#B29C8D"/>
<path d="M82.5792 106.268C82.586 109.346 81.6503 112.357 79.8909 114.919C73.232 108.264 69.0968 99.9001 68.6099 90.7905C72.4751 91.2917 76.0215 93.1369 78.5906 95.9834C81.1598 98.8299 82.577 102.484 82.5792 106.268Z" fill="#B29C8D"/>
<path d="M47.3027 76.0913L58.3506 78.4601C58.5601 78.499 58.7765 78.4817 58.9766 78.4101C59.1767 78.3385 59.3529 78.2153 59.4863 78.0538C59.6196 77.8923 59.705 77.6985 59.7332 77.4934C59.7615 77.2883 59.7316 77.0796 59.6468 76.8898L57.226 71.5664H48.8732L47.3027 76.0913Z" fill="#6DC4F1"/>
<path d="M57.2806 41.37L63.6172 54.5719C65.0968 57.6561 65.2539 61.1841 64.0542 64.3808C62.8545 67.5774 60.396 70.1811 57.2189 71.6199L43.6405 77.7618C42.0635 78.4759 40.3568 78.881 38.6182 78.9541C36.8796 79.0271 35.1432 78.7665 33.5086 78.1873C31.8739 77.6082 30.3731 76.7217 29.0921 75.5788C27.8111 74.4358 26.7751 73.0589 26.0434 71.5268L19.7411 58.3515C19.0075 56.8253 18.5909 55.1739 18.5151 53.4915C18.4392 51.8092 18.7057 50.1288 19.2992 48.5463C19.8927 46.9638 20.8017 45.5103 21.9741 44.2687C23.1466 43.0271 24.5596 42.0218 26.1325 41.3101L39.711 35.1616C40.5401 34.7925 41.4035 34.5006 42.2895 34.2899C45.2461 33.6244 48.3485 33.9646 51.0775 35.2534C53.8065 36.5423 55.9964 38.7016 57.2806 41.37Z" fill="#6DC4F1"/>
<path d="M42.2895 34.29L35.5826 78.7068C33.5177 78.3349 31.5744 77.4892 29.915 76.2402C28.2555 74.9912 26.9281 73.3751 26.0434 71.5269L19.7411 58.3516C19.0075 56.8254 18.5909 55.174 18.5151 53.4916C18.4392 51.8093 18.7057 50.1289 19.2992 48.5464C19.8927 46.9639 20.8017 45.5104 21.9741 44.2688C23.1466 43.0272 24.5596 42.0219 26.1325 41.3102L39.711 35.1617C40.5401 34.7926 41.4035 34.5007 42.2895 34.29Z" fill="#83D3FC"/>
<path d="M33.9024 70.7016C45.4509 70.3423 54.5512 60.2545 49.785 48.3635C49.6888 48.1268 49.647 47.8726 49.6624 47.6186C49.6778 47.3647 49.75 47.117 49.8742 46.8929C50.9423 45.0195 51.2107 42.8144 50.6217 40.7511C50.5928 40.6418 50.5313 40.5432 50.4449 40.4677C50.3584 40.3922 50.2509 40.3432 50.1358 40.3268C50.0208 40.3105 49.9033 40.3275 49.7982 40.3758C49.693 40.424 49.6049 40.5013 49.545 40.598C48.8409 41.8729 47.8884 43.0028 46.7402 43.9251C46.3627 44.1857 45.8943 44.291 45.4372 44.2179C44.3223 44.0217 43.174 44.1091 42.1043 44.4718C41.0346 44.8345 40.08 45.46 39.3337 46.2874C38.6202 47.1163 38.1746 48.1311 38.0526 49.2047C37.9306 50.2782 38.1377 51.3628 38.648 52.3227C38.6992 52.4301 38.7258 52.5469 38.726 52.6652C38.7262 52.7835 38.7 52.9004 38.6492 53.0079C38.5984 53.1155 38.5241 53.211 38.4315 53.288C38.339 53.365 38.2303 53.4216 38.1131 53.4539C34.5603 54.4523 30.7735 54.3382 27.2915 53.1279C27.1474 53.0699 26.9904 53.0491 26.8357 53.0673C26.6809 53.0855 26.5336 53.1422 26.4081 53.2319C26.2825 53.3216 26.183 53.4413 26.1191 53.5792C26.0552 53.7172 26.0291 53.8689 26.0433 54.0195C26.2216 55.6365 26.9829 58.4446 29.7946 61.4789C30.7789 62.5511 31.9851 63.4099 33.3345 63.9992C34.684 64.5885 36.1463 64.8952 37.6262 64.8991C37.7642 64.8917 37.9018 64.9193 38.0255 64.9792C38.1491 65.0391 38.2546 65.1293 38.3314 65.2408C38.4083 65.3523 38.4538 65.4813 38.4636 65.6151C38.4734 65.7488 38.4472 65.8828 38.3874 66.0037C37.8282 67.1588 36.9438 68.1368 35.8363 68.8251C34.9105 69.3974 34.2315 69.7966 33.7309 70.0761C33.6631 70.1116 33.6095 70.1682 33.5789 70.2369C33.5483 70.3055 33.5424 70.3822 33.5622 70.4545C33.582 70.5268 33.6264 70.5905 33.6881 70.6353C33.7498 70.6802 33.8253 70.7035 33.9024 70.7016Z" fill="white"/>
<path d="M223.301 105.503L220.723 119.71C220.117 123.034 218.176 125.989 215.327 127.925C212.477 129.862 208.952 130.621 205.526 130.037L190.884 127.529C189.188 127.238 187.566 126.627 186.113 125.729C184.66 124.831 183.404 123.664 182.415 122.295C181.427 120.925 180.726 119.381 180.353 117.749C179.98 116.117 179.942 114.429 180.241 112.783L182.82 98.5761C183.425 95.2521 185.366 92.2972 188.215 90.3607C191.065 88.4243 194.59 87.6647 198.016 88.2488L212.658 90.7575C213.549 90.908 214.422 91.1466 215.264 91.4695C218.059 92.5593 220.383 94.5486 221.847 97.1037C223.31 99.6587 223.824 102.624 223.301 105.503Z" fill="#663333"/>
<path d="M215.264 91.4695L183.773 123.869C182.317 122.427 181.238 120.669 180.626 118.74C180.014 116.812 179.887 114.769 180.255 112.783L182.833 98.5761C183.439 95.2521 185.38 92.2972 188.229 90.3607C191.079 88.4243 194.604 87.6647 198.03 88.2488L212.672 90.7575C213.558 90.9089 214.427 91.1475 215.264 91.4695Z" fill="#804040"/>
<path d="M199.305 108.744C199.289 108.861 199.247 108.972 199.181 109.072C199.115 109.171 199.028 109.255 198.926 109.318C198.824 109.382 198.708 109.423 198.588 109.438C198.467 109.454 198.345 109.444 198.229 109.409C197.925 109.307 197.61 109.242 197.289 109.216C196.729 109.189 196.168 109.272 195.641 109.46C195.114 109.648 194.631 109.937 194.222 110.309C193.812 110.682 193.484 111.13 193.257 111.629C193.03 112.127 192.909 112.664 192.9 113.209C192.849 114.079 193.103 114.94 193.621 115.652C194.139 116.364 194.891 116.884 195.753 117.128C196.613 117.429 197.551 117.444 198.42 117.171C199.289 116.897 200.04 116.351 200.554 115.618C200.911 115.046 201.144 114.41 201.239 113.748C202.124 108.91 203.777 99.7739 204.291 96.9725C204.313 96.8631 204.357 96.759 204.421 96.6662C204.485 96.5734 204.567 96.4938 204.663 96.432C204.758 96.3701 204.866 96.3272 204.978 96.3058C205.091 96.2844 205.207 96.2848 205.32 96.3071L208.118 96.8461C208.319 96.8883 208.498 96.9984 208.624 97.1568C208.749 97.3151 208.813 97.5115 208.804 97.7111C208.591 101.451 210.443 103.959 214.53 104.738C214.744 104.778 214.934 104.897 215.062 105.069C215.189 105.24 215.244 105.453 215.216 105.663C215.017 107.253 215.037 107.047 214.763 108.617C214.727 108.838 214.606 109.037 214.423 109.173C214.241 109.309 214.011 109.372 213.782 109.349C211.346 109.046 209.06 108.04 207.219 106.461C207.171 106.475 206.198 111.798 205.718 114.46C205.431 116.389 204.487 118.169 203.036 119.517C201.483 120.952 199.414 121.743 197.269 121.719C195.094 121.781 192.97 121.071 191.296 119.723C190.377 118.984 189.632 118.062 189.113 117.02C188.594 115.977 188.311 114.839 188.285 113.681C188.225 112.524 188.41 111.366 188.829 110.281C189.248 109.195 189.892 108.205 190.721 107.37C191.55 106.536 192.547 105.876 193.649 105.43C194.752 104.984 195.937 104.762 197.132 104.778C197.802 104.818 198.467 104.914 199.12 105.064C199.331 105.109 199.516 105.231 199.637 105.404C199.759 105.577 199.807 105.789 199.772 105.996L199.305 108.744Z" fill="white"/>
<path d="M203.551 129.671L193.456 134.635C193.263 134.731 193.047 134.772 192.832 134.756C192.616 134.739 192.409 134.664 192.235 134.54C192.06 134.415 191.925 134.246 191.844 134.052C191.763 133.857 191.739 133.644 191.776 133.437L192.75 127.721L200.835 125.725L203.551 129.671Z" fill="#663333"/>
<path d="M76.366 129.438L78.9719 143.738C79.5798 147.088 78.7914 150.536 76.78 153.322C74.7687 156.109 71.6991 158.006 68.2463 158.597L53.4746 161.139C50.0254 161.727 46.4767 160.961 43.6089 159.011C40.7411 157.06 38.789 154.085 38.1818 150.738L35.5758 136.418C34.9679 133.068 35.7563 129.62 37.7677 126.834C39.779 124.048 42.8486 122.15 46.3014 121.56L61.0525 119.038C61.9576 118.882 62.8767 118.815 63.7956 118.838C66.8247 118.942 69.7253 120.052 72.0131 121.981C74.3008 123.91 75.8373 126.542 76.366 129.438Z" fill="#F179A0"/>
<path d="M63.7613 118.838L45.451 160.06C43.5624 159.181 41.9175 157.878 40.6531 156.257C39.3887 154.637 38.5414 152.747 38.1818 150.745L35.5758 136.418C34.9679 133.068 35.7563 129.62 37.7677 126.834C39.779 124.047 42.8486 122.15 46.3014 121.559L61.0525 119.037C61.9464 118.884 62.8538 118.817 63.7613 118.838Z" fill="#FF80A9"/>
<path d="M61.5602 127.828C62.2429 127.71 62.9428 127.724 63.6199 127.869C64.2971 128.014 64.938 128.287 65.5062 128.673C66.0744 129.059 66.5586 129.549 66.9312 130.117C67.3037 130.684 67.5573 131.317 67.6773 131.98L69.9335 144.25C70.1748 145.589 69.859 146.965 69.0554 148.078C68.2519 149.191 67.0262 149.949 65.6474 150.186L53.0016 152.348C52.3189 152.466 51.619 152.452 50.9419 152.307C50.2648 152.162 49.6238 151.889 49.0556 151.503C48.4874 151.118 48.0032 150.627 47.6306 150.06C47.2581 149.492 47.0045 148.859 46.8845 148.196L44.6557 135.926C44.4125 134.588 44.7266 133.212 45.529 132.099C46.3315 130.986 47.5565 130.227 48.935 129.99L61.5807 127.828M61.0184 124.94L48.3932 127.102C46.2303 127.477 44.3081 128.668 43.0464 130.413C41.7847 132.158 41.2859 134.317 41.6589 136.418L43.8739 148.702C44.2571 150.802 45.4829 152.67 47.2826 153.894C49.0823 155.119 51.3091 155.602 53.4748 155.236L66.148 153.054C68.3118 152.68 70.2351 151.491 71.4971 149.745C72.7592 147.999 73.2572 145.839 72.8824 143.738L70.6536 131.468C70.2687 129.368 69.0426 127.502 67.2433 126.277C65.4441 125.053 63.2182 124.569 61.0527 124.933L61.0184 124.94Z" fill="white"/>
<path d="M56.3549 135.034C57.3848 134.859 58.4452 134.983 59.402 135.393C60.3588 135.802 61.1691 136.477 61.7304 137.333C62.2916 138.189 62.5787 139.188 62.5553 140.202C62.5319 141.217 62.199 142.201 61.5988 143.032C60.9986 143.863 60.1579 144.502 59.1832 144.87C58.2085 145.237 57.1434 145.316 56.1226 145.096C55.1018 144.875 54.1712 144.367 53.4484 143.633C52.7256 142.9 52.2431 141.976 52.0619 140.976C51.9416 140.313 51.9571 139.632 52.1078 138.975C52.2584 138.317 52.5411 137.694 52.9398 137.142C53.3384 136.59 53.8452 136.12 54.4312 135.759C55.0172 135.397 55.6709 135.151 56.3549 135.034ZM55.8268 132.153C54.2076 132.426 52.7083 133.16 51.5188 134.26C50.3294 135.361 49.5032 136.779 49.145 138.335C48.7867 139.892 48.9125 141.517 49.5064 143.004C50.1003 144.491 51.1355 145.773 52.4811 146.689C53.8267 147.605 55.422 148.113 57.0652 148.148C58.7084 148.184 60.3255 147.745 61.7117 146.888C63.098 146.032 64.1911 144.795 64.8526 143.335C65.5141 141.875 65.7142 140.258 65.4278 138.687C65.0429 136.588 63.8167 134.722 62.0175 133.497C60.2182 132.272 57.9924 131.789 55.8268 132.153Z" fill="white"/>
<path d="M58.1997 160.273L68.2944 165.237C68.487 165.333 68.7033 165.375 68.919 165.358C69.1347 165.341 69.3413 165.266 69.5157 165.142C69.69 165.018 69.8253 164.849 69.9064 164.654C69.9874 164.459 70.011 164.247 69.9745 164.04L68.9939 158.317L60.9154 156.321L58.1997 160.273Z" fill="#F179A0"/>
<path d="M196.761 8.86411L199.689 26.2781C199.818 27.0294 199.792 27.7978 199.613 28.5394C199.435 29.2809 199.107 29.9809 198.649 30.5992C198.191 31.2175 197.611 31.7418 196.944 32.1422C196.276 32.5426 195.533 32.8111 194.759 32.9323L189.677 33.7375L187.476 39.9325C187.426 40.0712 187.338 40.1941 187.222 40.2886C187.106 40.383 186.966 40.4454 186.817 40.4692C186.667 40.4931 186.514 40.4774 186.373 40.424C186.232 40.3705 186.108 40.2812 186.015 40.1654L181.9 34.9419L176.819 35.747C176.045 35.8716 175.253 35.8467 174.49 35.6739C173.726 35.501 173.005 35.1835 172.368 34.7397C171.73 34.2958 171.19 33.7343 170.777 33.0873C170.364 32.4403 170.087 31.7205 169.961 30.9693L167.033 13.5553C166.905 12.8051 166.931 12.0379 167.109 11.2975C167.287 10.557 167.614 9.85789 168.071 9.23997C168.527 8.62205 169.105 8.09747 169.77 7.69616C170.436 7.29486 171.177 7.02471 171.95 6.90113L189.903 4.07975C191.467 3.83196 193.067 4.1968 194.353 5.09401C195.639 5.99122 196.505 7.34734 196.761 8.86411Z" fill="#F46E7E"/>
<path d="M189.142 4.19971L177.964 35.5875L176.812 35.7672C176.038 35.8918 175.247 35.8669 174.483 35.694C173.719 35.5212 172.998 35.2037 172.361 34.7598C171.724 34.3159 171.183 33.7544 170.77 33.1074C170.357 32.4604 170.08 31.7407 169.954 30.9895L167.026 13.5755C166.898 12.8253 166.924 12.058 167.102 11.3176C167.281 10.5772 167.607 9.87803 168.064 9.26011C168.52 8.6422 169.098 8.11761 169.764 7.71631C170.429 7.31501 171.17 7.04485 171.943 6.92127L189.142 4.19971Z" fill="#FF808C"/>
<path d="M183.725 14.1742L182.641 15.6448L181.132 14.5868C180.01 13.8047 178.613 13.4867 177.249 13.7025C175.885 13.9183 174.665 14.6503 173.856 15.738C173.457 16.2775 173.17 16.8881 173.014 17.535C172.858 18.1819 172.834 18.8523 172.945 19.5079C173.056 20.1636 173.299 20.7916 173.66 21.3562C174.021 21.9207 174.493 22.4107 175.049 22.7981L183.731 28.86C184.073 29.0952 184.497 29.1901 184.91 29.1241C185.324 29.0581 185.694 28.8365 185.94 28.5074L192.187 20.0765C192.993 18.9882 193.32 17.6341 193.098 16.3116C192.875 14.9891 192.121 13.8064 191.001 13.0231C189.878 12.241 188.481 11.923 187.117 12.1388C185.753 12.3546 184.533 13.0866 183.725 14.1742Z" fill="white"/>
</g>
<defs>
<linearGradient id="paint0_linear_2955_42754" x1="119.227" y1="60.6872" x2="119.227" y2="30.4839" gradientUnits="userSpaceOnUse">
<stop stop-color="#CBB3A1"/>
<stop offset="1" stop-color="#B29C8D"/>
</linearGradient>
<clipPath id="clip0_2955_42754">
<rect width="205" height="192" fill="white" transform="translate(18.5 4)"/>
</clipPath>
</defs>
</svg>
