<svg width="20" height="20" viewBox="0 0 20 20" fill="none" xmlns="http://www.w3.org/2000/svg">
<path d="M13.9723 18.9985C13.492 18.9931 13.0229 18.8536 12.6178 18.5959L10.0014 16.9854L7.38504 18.5959C6.97993 18.8536 6.51076 18.9931 6.03049 18.9985C5.64175 18.9944 5.25886 18.9033 4.91003 18.7319C4.56119 18.5605 4.25528 18.3131 4.01481 18.008C3.77448 17.7029 3.60737 17.3468 3.5263 16.9671C3.44524 16.5874 3.45237 16.1942 3.54717 15.8177L4.27685 12.8302L1.91446 10.8452C1.525 10.5156 1.24254 10.0778 1.10304 9.58735C0.963535 9.09693 0.973298 8.57615 1.13108 8.0913C1.28887 7.60644 1.58754 7.17944 1.98908 6.86466C2.39062 6.54987 2.87686 6.36154 3.38591 6.32364L6.45782 6.09816L7.62289 3.24752C7.81685 2.77675 8.1465 2.37415 8.56998 2.09083C8.99346 1.80751 9.49168 1.65625 10.0014 1.65625C10.5111 1.65625 11.0093 1.80751 11.4328 2.09083C11.8563 2.37415 12.1859 2.77675 12.3799 3.24752L13.545 6.09816L16.6169 6.32364C17.1259 6.36154 17.6122 6.54987 18.0137 6.86466C18.4153 7.17944 18.7139 7.60644 18.8717 8.0913C19.0295 8.57615 19.0393 9.09693 18.8998 9.58735C18.7603 10.0778 18.4778 10.5156 18.0883 10.8452L15.738 12.8302L16.4677 15.8177C16.5625 16.1942 16.5697 16.5874 16.4886 16.9671C16.4075 17.3468 16.2404 17.7029 16.0001 18.008C15.7583 18.3147 15.4505 18.563 15.0994 18.7345C14.7483 18.906 14.3631 18.9962 13.9723 18.9985Z" fill="#CC7529"/>
<path d="M18.8543 9.07107C18.7048 9.50412 18.44 9.88831 18.0883 10.1823L15.738 12.1673L16.4717 15.1549C16.5656 15.5317 16.572 15.925 16.4902 16.3046C16.4085 16.6843 16.2408 17.0402 16 17.3452C15.7602 17.6509 15.4544 17.8987 15.1054 18.0702C14.7564 18.2417 14.3733 18.3324 13.9844 18.3357C13.5053 18.3303 13.0374 18.1908 12.6338 17.933L10.0135 16.3225L9.46921 16.6688L7.39709 17.9491C6.93396 18.237 6.39086 18.3696 5.84697 18.3276C5.30309 18.2856 4.78686 18.0712 4.37356 17.7156C4.24003 17.6064 4.11963 17.4821 4.01477 17.3452C3.7504 17.0121 3.57556 16.6171 3.50681 16.1977C3.4498 15.8509 3.46351 15.4962 3.54713 15.1549L4.26874 12.1673L2.40625 10.593L1.91845 10.1904C1.52636 9.86169 1.24139 9.42361 1.10002 8.93222C0.958651 8.44083 0.967316 7.91849 1.1249 7.43204C1.28249 6.9456 1.58184 6.51719 1.98462 6.20164C2.3874 5.8861 2.8753 5.69777 3.38587 5.66077L6.45778 5.41919L7.62285 2.60076C7.81342 2.13149 8.13882 1.72908 8.55803 1.44423C8.97724 1.15938 9.4715 1.00485 9.97851 1.00011C10.4855 0.995376 10.9826 1.14065 11.4071 1.41761C11.8315 1.69458 12.1644 2.09085 12.3637 2.55647L12.3839 2.60076L13.549 5.41919L16.5322 5.64064H16.6168C17.256 5.68966 17.8533 5.97714 18.2899 6.4459C18.5555 6.72738 18.7552 7.06432 18.8744 7.43235C19.0485 7.96591 19.0414 8.54194 18.8543 9.07107Z" fill="#FFCA4D"/>
<path d="M16.5322 5.65544L3.49472 16.1964C3.4377 15.8496 3.45142 15.4949 3.53503 15.1536L4.26874 12.166L2.40625 10.5917L12.3637 2.53906L12.3839 2.58335L13.549 5.41789L16.5322 5.65544Z" fill="#FFEF8C"/>
<path d="M18.8542 9.07451L9.46919 16.6722L7.39707 17.9526C6.93394 18.2405 6.39084 18.3731 5.84695 18.3311C5.30306 18.2891 4.78684 18.0746 4.37354 17.719L18.3019 6.44531C18.5637 6.72913 18.7593 7.06741 18.8744 7.43579C19.0485 7.96935 19.0414 8.54538 18.8542 9.07451Z" fill="#FFEF8C"/>
<path d="M10.8197 3.52387L12.1742 6.82949C12.2355 6.9816 12.3383 7.11352 12.4708 7.21031C12.6033 7.30709 12.7603 7.36486 12.9241 7.37707L16.6087 6.97444C17.415 7.03483 17.6004 8.67757 17.0119 9.18892L14.2665 11.5C14.1412 11.6066 14.0481 11.7459 13.9975 11.9024C13.947 12.0588 13.941 12.2262 13.9803 12.3858L14.8309 15.2043C14.9175 15.4837 14.905 15.7844 14.7956 16.0557C14.6862 16.3271 14.4865 16.5525 14.2302 16.694C14.0563 16.7652 13.8675 16.7925 13.6804 16.7736C13.4934 16.7546 13.3139 16.6899 13.1579 16.5853L10.4649 14.9224C10.3259 14.8356 10.1652 14.7896 10.0013 14.7896C9.83737 14.7896 9.67672 14.8356 9.5377 14.9224L6.77218 16.6336C6.53452 16.79 6.24734 16.8531 5.9659 16.8108C5.23219 16.694 5.03465 15.8887 5.17172 15.2445L6.02234 12.3858C6.06162 12.2262 6.05566 12.0588 6.00511 11.9024C5.95456 11.7459 5.86142 11.6066 5.73611 11.5L3.01897 9.19294C2.41829 8.6816 2.55536 7.17978 3.34551 7.14354L7.09469 7.37707C7.25841 7.36486 7.41543 7.30709 7.54796 7.21031C7.68049 7.11352 7.78322 6.9816 7.84452 6.82949L9.19906 3.52387C9.26746 3.36595 9.38062 3.23147 9.5246 3.137C9.66858 3.04253 9.83709 2.99219 10.0094 2.99219C10.1816 2.99219 10.3502 3.04253 10.4941 3.137C10.6381 3.23147 10.7513 3.36595 10.8197 3.52387Z" fill="#351699"/>
<path d="M14.2664 10.784C14.1415 10.8899 14.0485 11.0285 13.9979 11.1843C13.9474 11.34 13.9413 11.5067 13.9802 11.6658L14.8308 15.1364C14.8749 15.3079 14.8662 15.4885 14.8061 15.655C14.7459 15.8214 14.637 15.9659 14.4935 16.0697C14.35 16.1735 14.1786 16.2318 14.0015 16.237C13.8244 16.2422 13.6498 16.194 13.5005 16.0987L10.4608 14.2144C10.3204 14.1295 10.1594 14.0846 9.99519 14.0846C9.83103 14.0846 9.67 14.1295 9.52957 14.2144L6.48991 16.0987C6.34033 16.1905 6.16684 16.2358 5.99144 16.229C5.81603 16.2222 5.64659 16.1636 5.50457 16.0606C5.36255 15.9575 5.25434 15.8147 5.19364 15.6502C5.13294 15.4857 5.12248 15.3069 5.16359 15.1364L6.01824 11.6658C6.05626 11.5063 6.04926 11.3395 5.99801 11.1839C5.94677 11.0282 5.8533 10.8898 5.72799 10.784L3.0189 8.4769C2.90165 8.38141 2.81188 8.25656 2.75876 8.11508C2.70564 7.9736 2.69107 7.82058 2.71655 7.67163C2.7399 7.47035 2.83353 7.28373 2.98099 7.14456C3.12844 7.00538 3.32029 6.92257 3.52282 6.91066L7.09059 6.64895C7.25449 6.63565 7.41155 6.57752 7.54454 6.48092C7.67753 6.38432 7.78129 6.253 7.84446 6.10137L9.1869 2.8038C9.25351 2.64226 9.36667 2.50412 9.51201 2.40692C9.65736 2.30971 9.82833 2.25781 10.0033 2.25781C10.1782 2.25781 10.3492 2.30971 10.4945 2.40692C10.6398 2.50412 10.753 2.64226 10.8196 2.8038L12.1742 6.11345C12.2369 6.26534 12.3406 6.39691 12.4737 6.49356C12.6067 6.59021 12.764 6.64818 12.928 6.66103L16.4958 6.92274C16.6699 6.93739 16.8358 7.00308 16.9726 7.11157C17.1095 7.22005 17.2112 7.36649 17.2651 7.5325C17.3189 7.69852 17.3224 7.87672 17.2752 8.04473C17.228 8.21275 17.1322 8.36309 16.9997 8.4769L14.2664 10.784Z" fill="#7045E6"/>
<path d="M12.4039 6.43646L5.51428 13.7402L6.02223 11.6707C6.06282 11.5101 6.0571 11.3414 6.00574 11.1839C5.95438 11.0265 5.85947 10.8867 5.73197 10.7809L3.01886 8.4778C2.88449 8.36491 2.78688 8.21456 2.73851 8.04598C2.69014 7.8774 2.69319 7.69824 2.74729 7.5314C2.80138 7.36456 2.90406 7.21762 3.0422 7.10936C3.18034 7.0011 3.34766 6.93644 3.52278 6.92364L7.09054 6.6579C7.25426 6.64586 7.41141 6.58867 7.54451 6.4927C7.67761 6.39673 7.78143 6.26576 7.84441 6.11435L9.19492 2.80873C9.26089 2.64595 9.37403 2.50655 9.51983 2.4084C9.66563 2.31025 9.83746 2.25781 10.0133 2.25781C10.1891 2.25781 10.3609 2.31025 10.5067 2.4084C10.6525 2.50655 10.7657 2.64595 10.8317 2.80873L12.1862 6.11435C12.2313 6.23786 12.3061 6.34845 12.4039 6.43646Z" fill="#8559FF"/>
<path d="M10.0014 11.7248C11.1436 11.7248 12.0695 10.8 12.0695 9.65926C12.0695 8.51851 11.1436 7.59375 10.0014 7.59375C8.85927 7.59375 7.93335 8.51851 7.93335 9.65926C7.93335 10.8 8.85927 11.7248 10.0014 11.7248Z" fill="#351699"/>
<path d="M12.0735 10.3264C12.067 10.8349 11.8728 11.3232 11.5283 11.6976C11.1837 12.072 10.7129 12.3064 10.2061 12.3557C9.69929 12.405 9.19208 12.2658 8.78163 11.9648C8.37118 11.6638 8.08634 11.2222 7.98167 10.7245C7.877 10.2268 7.95985 9.70798 8.21436 9.2675C8.46888 8.82701 8.87715 8.49579 9.36099 8.33727C9.84483 8.17876 10.3702 8.20409 10.8365 8.40842C11.3028 8.61275 11.6772 8.98171 11.8881 9.44464C12.0158 9.72079 12.0792 10.0223 12.0735 10.3264Z" fill="#FFCA4D"/>
<path d="M11.888 9.44174L8.75566 11.9743C8.51049 11.783 8.31171 11.5388 8.17413 11.2601C8.03654 10.9814 7.96369 10.6753 7.96101 10.3645C7.95834 10.0538 8.02589 9.74646 8.15865 9.46542C8.29142 9.18438 8.48596 8.93688 8.72779 8.74135C8.96962 8.54583 9.25251 8.40732 9.55538 8.33615C9.85825 8.26498 10.1733 8.26298 10.477 8.3303C10.7808 8.39762 11.0654 8.53252 11.3097 8.72496C11.554 8.9174 11.7517 9.16241 11.888 9.44174Z" fill="#FFEF8C"/>
</svg>
