<svg width="64" height="64" viewBox="0 0 64 64" fill="none" xmlns="http://www.w3.org/2000/svg">
<path d="M52.4401 17.2841C52.3985 17.29 52.3561 17.2835 52.3181 17.2654C52.2801 17.2473 52.2482 17.2184 52.2262 17.1822C49.3386 11.8993 46.5772 9.14109 43.5342 8.50913C40.0524 7.77525 36.3869 9.92492 32.1494 12.414C30.4513 13.4109 28.6948 14.4414 26.7778 15.4015C24.7478 16.4208 23.0447 16.908 21.6322 17.0528C19.3389 17.2862 17.7882 16.6196 16.7813 15.8296C14.264 13.8716 13.8876 10.1318 14.8512 8.56723C14.8832 8.5222 14.9292 8.48937 14.9819 8.47402C15.0347 8.45867 15.0909 8.4617 15.1417 8.48263C15.1651 8.48988 15.1866 8.50244 15.2044 8.51934C15.2223 8.53625 15.2361 8.55706 15.2447 8.58017C15.2534 8.60329 15.2567 8.6281 15.2544 8.65271C15.2521 8.67732 15.2443 8.70108 15.2315 8.72216C14.7775 9.45707 14.6615 10.7047 14.9289 11.9839C15.2386 13.4578 15.9993 14.7359 17.0729 15.5707C18.5963 16.7612 21.4799 17.646 26.5619 15.0998C28.4658 14.1458 30.2152 13.1194 31.9092 12.1266C36.2396 9.58142 39.9807 7.38792 43.6512 8.15544C46.8243 8.82001 49.6726 11.6383 52.6146 17.0232C52.6254 17.0459 52.6312 17.0707 52.6314 17.0959C52.6317 17.1211 52.6265 17.146 52.6162 17.1689C52.6059 17.1919 52.5908 17.2122 52.5719 17.2286C52.5529 17.245 52.5307 17.257 52.5067 17.2638C52.4856 17.2737 52.4631 17.2806 52.4401 17.2841Z" fill="#806759"/>
<path d="M59.9962 18.65C60.0103 18.8315 59.9847 19.0139 59.9213 19.1843C59.8579 19.3547 59.7581 19.5089 59.6291 19.6361C59.5001 19.7632 59.345 19.8601 59.1748 19.9199C59.0046 19.9797 58.8234 20.001 58.6442 19.9822L54.9515 19.602L54.7951 19.5867C54.5433 19.5604 54.3057 19.4563 54.1145 19.2887C53.9233 19.1211 53.7879 18.8981 53.7266 18.65L53.5138 17.7846C53.4592 17.563 53.4662 17.3306 53.534 17.1128C53.6018 16.895 53.7278 16.7003 53.8982 16.5503C53.9637 16.4911 54.0364 16.43 54.1131 16.3647C54.9253 15.6767 56.2883 14.6646 57.7664 14.1631C57.9256 14.1109 58.0938 14.0921 58.2604 14.108C58.4271 14.124 58.5888 14.1742 58.7355 14.2557C58.8822 14.3371 59.0109 14.4481 59.1135 14.5817C59.2161 14.7153 59.2906 14.8687 59.3323 15.0325C59.5775 15.9825 59.8953 17.3769 59.9962 18.65Z" fill="#F57369"/>
<path d="M52.1627 20.2838L51.7379 20.6253L48.9482 22.8606C48.7134 23.0515 48.417 23.1478 48.116 23.1309C47.8151 23.1139 47.5311 22.9849 47.3188 22.7688C46.3663 21.7781 46.0828 20.347 46.0011 19.4572C45.9768 19.1941 46.0355 18.93 46.1689 18.7028C46.3023 18.4755 46.5035 18.2968 46.7437 18.1922C47.8535 17.7071 49.3669 17.5144 50.4505 17.44C50.6523 17.4247 50.847 17.4145 51.0155 17.4074C51.2523 17.3971 51.4869 17.4561 51.6913 17.5772C51.8957 17.6984 52.0611 17.8765 52.1677 18.0903L52.4966 18.7529C52.6237 19.0079 52.6599 19.2994 52.5991 19.5783C52.5383 19.8572 52.3841 20.1064 52.1627 20.2838Z" fill="#F57369"/>
<path d="M52.7766 16.5189L51.8926 16.7656C51.247 16.9458 50.8682 17.6205 51.0465 18.2728L51.3841 19.5078C51.5625 20.16 52.2304 20.5427 52.876 20.3625L53.76 20.1159C54.4056 19.9357 54.7844 19.261 54.6061 18.6087L54.2685 17.3737C54.0902 16.7215 53.4222 16.3388 52.7766 16.5189Z" fill="#FF857B"/>
<path d="M35.686 16.5279C35.686 16.5279 37.0471 14.4964 38.9832 13.8971C39.0487 13.8774 39.1182 13.8756 39.1846 13.8918C39.251 13.908 39.312 13.9417 39.3614 13.9894C39.4108 14.0371 39.4468 14.0972 39.4658 14.1635C39.4848 14.2298 39.4861 14.3 39.4695 14.367C39.2435 15.3098 38.8692 17.1822 38.9994 18.7886" fill="#FFC770"/>
<path d="M41.4792 21.0624C41.4792 21.1267 41.4853 21.1909 41.4863 21.2551C41.4863 21.357 41.4863 21.4589 41.4782 21.5609C41.344 24.0122 39.2908 26.2924 36.371 26.9845C35.7304 27.1375 35.0726 27.2043 34.4146 27.1832L32.3826 29.812C32.3826 29.812 30.0692 29.1076 30.4515 27.9406C30.7542 27.0161 30.6987 26.2557 30.1196 25.3822C29.9113 25.1623 29.7235 24.9234 29.5586 24.6687C29.2701 24.2221 29.0608 23.7282 28.9402 23.2091C28.2662 20.3092 30.503 17.2972 33.9354 16.4818C34.5343 16.3387 35.1482 16.2702 35.7636 16.2779C36.423 16.2887 37.0707 16.4562 37.6542 16.7668C38.2377 17.0774 38.7406 17.5224 39.1223 18.0657C39.199 18.1748 39.2717 18.289 39.3393 18.4072L39.3504 18.4286C39.4287 18.5651 39.5333 18.6844 39.6581 18.7792C39.7475 18.8463 39.846 18.8998 39.9507 18.9383C39.9922 18.9534 40.0347 18.966 40.0778 18.976C40.463 19.0669 40.8065 19.2867 41.0524 19.5998C41.2037 19.7911 41.3112 20.0139 41.3672 20.2521C41.3672 20.2521 41.3672 20.2592 41.3672 20.2633C41.4282 20.5258 41.4657 20.7932 41.4792 21.0624Z" fill="#E9AD64"/>
<path d="M18.5541 44.8589C18.5541 44.8589 17.7551 49.3336 15.147 50.7229C13.6568 51.5169 14.7686 52.8634 16.51 52.0184C17.4473 51.5617 19.6377 50.148 20.3944 48.2674C20.4917 48.0221 20.6479 47.8051 20.8489 47.6359C21.0498 47.4667 21.2892 47.3506 21.5456 47.2981L25.875 46.4337C26.1649 46.3763 26.4371 46.2495 26.6686 46.064C26.9001 45.8785 27.0843 45.6397 27.2058 45.3676L27.6991 44.2586L27.5316 42.5859L20.6124 43.2923L18.5541 44.8589Z" fill="#E9AD64"/>
<path d="M38.6878 33.3061C39.3335 32.507 42.0445 31.8435 44.7202 32.0463C44.9442 32.0624 45.1691 32.0326 45.3814 31.9589C45.5938 31.8852 45.7893 31.769 45.9562 31.6172C46.9782 30.6998 49.1625 28.6817 50.461 27.165C50.6406 26.9584 50.8551 26.7858 51.0947 26.6553C51.5598 26.3974 52.3266 25.9418 52.597 25.6065C53.0005 25.1131 52.8996 23.3855 51.1845 23.4099C50.1109 23.4252 49.6478 24.1377 49.4511 24.6698C49.3005 25.0861 49.0394 25.4524 48.6964 25.7288L44.8887 28.755C44.7103 28.897 44.5054 29.001 44.2863 29.0609C44.0671 29.1208 43.8383 29.1353 43.6134 29.1036L39.3446 28.5053L37.7999 28.6623L37.0089 33.8392L38.6878 33.3061Z" fill="#E9AD64"/>
<path d="M21.3136 35.7047L21.019 37.8248C20.6106 37.7527 20.2197 37.6018 19.8678 37.3804C19.583 37.2047 19.3131 37.0056 19.0606 36.7852C18.6046 36.3845 18.178 35.9509 17.7843 35.4876L17.6209 35.2888C17.2708 34.873 16.9419 34.45 16.6251 34.0219C16.3083 33.5938 16.0056 33.1636 15.7079 32.7284C15.6847 32.6968 15.6636 32.6642 15.6414 32.6265C15.3326 32.1705 15.0299 31.7115 14.7333 31.2494C14.4367 30.7874 14.1498 30.3253 13.8727 29.8632L13.8122 29.7613L13.4378 29.1365L13.0201 28.4872L12.9435 28.3852C12.819 28.214 12.6929 28.0441 12.5651 27.8756L12.3179 27.5922C12.239 27.4958 12.1545 27.4042 12.0647 27.318L11.8397 27.0999L11.7983 27.0602C11.7552 27.0171 11.7094 26.9769 11.6611 26.9399L11.5188 26.8257C11.3325 26.6737 11.1371 26.5335 10.9337 26.4058C10.8086 26.3334 10.6814 26.2661 10.5523 26.2019C10.2627 26.0603 9.95805 25.9526 9.64425 25.8809C9.41251 25.8266 9.17582 25.7969 8.93799 25.7922C8.72059 25.7876 8.50321 25.8019 8.28824 25.835C8.23203 25.8417 8.17639 25.8526 8.12176 25.8676L7.95327 25.9033C7.89737 25.9152 7.84241 25.9312 7.78882 25.9512L7.62537 26.0042C7.5703 26.02 7.51664 26.0405 7.46495 26.0654L7.40643 26.0908L7.30553 26.1336C7.20464 26.1775 7.0876 26.2407 6.98167 26.2977C6.94131 26.3192 6.90196 26.3416 6.86261 26.366C6.4955 26.5727 6.16369 26.8377 5.87991 27.1509C5.80921 27.2329 5.74416 27.3198 5.68518 27.4108C5.54619 27.6212 5.45997 27.8626 5.43396 28.1141C5.43396 28.1447 5.42892 28.1742 5.4269 28.2048C5.41277 28.5799 5.56109 28.9968 5.80222 29.4045C5.84729 29.4779 5.89572 29.5513 5.94751 29.6247C6.06793 29.7959 6.19726 29.9606 6.33494 30.118C6.45535 30.2518 6.51822 30.4285 6.5097 30.6091C6.50119 30.7898 6.42199 30.9596 6.28954 31.0812C6.15708 31.2029 5.98222 31.2664 5.80341 31.2578C5.62461 31.2492 5.45651 31.1692 5.33609 31.0354C5.09766 30.7807 4.87876 30.5082 4.68129 30.2199L4.63993 30.1568C4.45775 29.8773 4.30779 29.5777 4.19297 29.2639C4.13155 29.0913 4.08398 28.9141 4.05071 28.7338C3.94736 28.186 4.00271 27.6198 4.21012 27.103C4.26267 26.9687 4.32436 26.8383 4.39476 26.7126C4.49728 26.529 4.61579 26.3551 4.74889 26.1928C4.97473 25.9197 5.22836 25.6713 5.50559 25.4517C5.73483 25.2711 5.97583 25.1063 6.22698 24.9584C6.36319 24.8799 6.49032 24.8045 6.63762 24.7352L6.85959 24.6333C6.93198 24.5965 7.00682 24.5648 7.08357 24.5385L7.3126 24.4559L7.39029 24.4284C7.44099 24.4095 7.4929 24.3942 7.54566 24.3825L7.78276 24.3214C7.86097 24.299 7.94049 24.2816 8.02087 24.2694C8.3724 24.2028 8.72974 24.1728 9.08731 24.1797C9.38173 24.1848 9.67513 24.2162 9.96408 24.2735C10.5962 24.3998 11.205 24.6243 11.7691 24.939L11.8528 24.99C12.0983 25.1317 12.3342 25.2897 12.5591 25.463L12.7447 25.6057C12.8077 25.6513 12.868 25.7007 12.9253 25.7534L13.2683 26.0674C13.3805 26.1698 13.4863 26.2791 13.5851 26.3946L13.8969 26.732C14.0704 26.943 14.241 27.158 14.4014 27.3761C14.4205 27.3986 14.4377 27.422 14.4549 27.4455C14.6223 27.6911 14.7969 27.9439 14.9593 28.1855L15.3145 28.7389L15.4073 28.8837C15.6777 29.2995 15.9511 29.7154 16.2286 30.1252C16.5312 30.5757 16.844 31.0221 17.1608 31.4604C17.1961 31.5083 17.2294 31.5623 17.2617 31.6041C17.5644 32.0118 17.8671 32.4196 18.1788 32.8191C18.534 33.2707 18.8982 33.7059 19.2745 34.1167H19.2796C19.6184 34.4933 19.9839 34.8445 20.3733 35.1675C20.5428 35.3089 20.7237 35.4357 20.9141 35.5467C21.0369 35.6228 21.1722 35.6763 21.3136 35.7047Z" fill="#E9AD64"/>
<path d="M50.0076 19.7302C50.0752 20.403 49.1379 21.1216 48.2218 21.4987C47.5044 21.7933 42.5818 25.5473 40.4883 27.1557L40.1109 27.4462C39.7766 27.7054 39.5447 28.0766 39.4571 28.493C39.4511 28.5216 39.446 28.5491 39.442 28.5766L38.8235 32.5039C38.8239 32.5056 38.8239 32.5073 38.8235 32.509L38.765 32.8851C37.976 37.8939 32.7669 41.8803 30.0589 43.4031C28.2539 44.4173 26.9171 44.3786 26.2249 44.2389C26.0366 44.2011 25.8436 44.1932 25.6529 44.2155C25.4469 44.2384 25.2455 44.2927 25.0556 44.3765C24.1372 44.771 23.197 45.1113 22.2396 45.3958C21.651 45.5722 21.0248 45.575 20.4347 45.4039L14.7957 43.7762C14.5878 43.715 14.3648 43.7343 14.1702 43.8302C11.9788 44.9127 12.1614 47.8665 9.73086 48.7635C7.18935 49.7023 6.92804 48.7635 7.10763 47.7289C7.28722 46.6944 10.1243 44.8148 10.4179 43.2563C10.8427 40.9894 11.6226 39.8489 12.1442 39.3127C12.2749 39.1802 12.4406 39.0885 12.6215 39.0486C12.8023 39.0086 12.9908 39.0221 13.1643 39.0875C14.833 39.699 16.069 39.3932 16.6955 39.1252C16.9566 39.0152 17.188 38.844 17.3705 38.6257C18.8032 36.9459 20.3106 36.0897 22.6735 35.1479C22.847 35.0776 23.0196 35.0083 23.1891 34.938C23.6986 34.7259 24.1879 34.5058 24.6581 34.2622C25.0475 34.0621 25.4248 33.8388 25.7881 33.5935C26.2354 33.2945 26.6537 32.9532 27.0371 32.5742C27.3208 32.2929 27.5841 31.9915 27.8251 31.6722C28.1518 31.2366 28.4413 30.7739 28.6908 30.289C29.0019 29.6758 29.3839 29.102 29.8289 28.5797C31.1516 27.0446 32.8163 26.3372 34.8281 25.5279C37.4695 24.4648 43.85 20.9819 45.7024 19.8862C45.7024 19.8862 47.0685 19.1411 47.7829 18.8251C49.6141 18.0148 49.942 19.0575 50.0076 19.7302Z" fill="#FFC770"/>
<path d="M32.4251 19.2995C32.3141 19.5033 32.0477 19.6664 31.7188 19.8091C31.0125 20.1149 30.0268 20.3106 29.7009 20.6052C29.0794 21.1719 29.8755 21.8671 29.4225 22.1035C29.2536 22.1916 29.0582 22.212 28.8751 22.1608C28.692 22.1096 28.5347 21.9905 28.4347 21.8273C27.2633 19.9355 27.0464 17.6727 27.0162 16.5576C27.0141 16.4833 27.0309 16.4098 27.0649 16.3439C27.0989 16.278 27.149 16.222 27.2105 16.1812C27.2719 16.1403 27.3427 16.116 27.416 16.1106C27.4894 16.1051 27.5629 16.1186 27.6296 16.1499L32.077 18.2476C32.1706 18.2909 32.2543 18.3531 32.3231 18.4305C32.3919 18.5078 32.4443 18.5986 32.4769 18.6973C32.5095 18.7959 32.5218 18.9002 32.5129 19.0038C32.5039 19.1074 32.4741 19.208 32.4251 19.2995Z" fill="#FFF0D3"/>
<path d="M38.6057 22.6558C39.2493 22.6558 39.7711 22.1287 39.7711 21.4785C39.7711 20.8284 39.2493 20.3013 38.6057 20.3013C37.9622 20.3013 37.4404 20.8284 37.4404 21.4785C37.4404 22.1287 37.9622 22.6558 38.6057 22.6558Z" fill="#FFF0D3"/>
<path d="M41.4862 21.2551C41.4259 21.4045 41.3276 21.5352 41.2013 21.634C41.075 21.7328 40.9251 21.7961 40.7668 21.8177C40.2442 21.8717 39.768 21.3896 39.7034 20.7444C39.6388 20.0992 40.0061 19.5284 40.5327 19.4754C40.714 19.458 40.8957 19.5021 41.0493 19.6008C41.2006 19.7921 41.3081 20.0149 41.3641 20.2531C41.3641 20.2531 41.3641 20.2602 41.3641 20.2643C41.4404 20.5891 41.4814 20.9213 41.4862 21.2551Z" fill="#FFF0D3"/>
<path d="M38.7257 22.8068C38.3716 22.8434 37.9852 22.7629 37.8177 22.3685C37.8091 22.348 37.8045 22.326 37.8043 22.3037C37.8041 22.2815 37.8083 22.2594 37.8165 22.2388C37.8332 22.1971 37.8655 22.1638 37.9065 22.1463C37.9474 22.1287 37.9936 22.1283 38.0348 22.1451C38.0761 22.1619 38.109 22.1946 38.1264 22.236C38.3151 22.6855 39.0829 22.3746 39.0899 22.3715C39.7801 22.0413 39.5389 20.8732 39.5369 20.862C39.5311 20.8399 39.5298 20.8169 39.5331 20.7943C39.5363 20.7717 39.5441 20.75 39.5558 20.7305C39.5676 20.711 39.5832 20.6941 39.6016 20.6808C39.62 20.6676 39.6409 20.6582 39.6629 20.6533C39.685 20.6484 39.7079 20.6481 39.7301 20.6524C39.7523 20.6567 39.7734 20.6654 39.7922 20.6781C39.8109 20.6909 39.8269 20.7073 39.8393 20.7265C39.8516 20.7456 39.8599 20.7671 39.8638 20.7896C39.8759 20.8477 40.1665 22.2319 39.2251 22.6804C39.0653 22.7458 38.8972 22.7883 38.7257 22.8068Z" fill="#434A4D"/>
<path d="M41.4791 21.0629C41.4791 21.1271 41.4851 21.1913 41.4861 21.2555C41.4861 21.3574 41.4861 21.4594 41.4781 21.5613C41.365 21.7659 41.1821 21.9221 40.9635 22.0006C40.9028 22.0238 40.8394 22.0392 40.7748 22.0465C40.6504 22.0583 40.525 22.039 40.4096 21.9904C39.8638 21.7662 39.5207 20.9711 39.4572 20.808C39.4492 20.7871 39.4455 20.7647 39.4463 20.7422C39.4471 20.7197 39.4523 20.6977 39.4617 20.6773C39.4711 20.6569 39.4845 20.6387 39.5011 20.6237C39.5176 20.6087 39.537 20.5972 39.5581 20.5899C39.6013 20.5727 39.6494 20.5729 39.6924 20.5906C39.7354 20.6082 39.7701 20.6419 39.7891 20.6847C39.9516 21.0924 40.2502 21.5552 40.5529 21.6795C40.5973 21.6992 40.6451 21.7098 40.6936 21.7107C40.7421 21.7116 40.7903 21.7027 40.8354 21.6846C40.8546 21.6785 41.2208 21.5419 41.1885 21.2107C41.1869 21.1877 41.1898 21.1646 41.197 21.1427C41.2042 21.1209 41.2157 21.1007 41.2307 21.0834C41.2457 21.066 41.264 21.0519 41.2845 21.0417C41.3049 21.0315 41.3272 21.0255 41.3499 21.0241C41.3963 21.0198 41.4425 21.0337 41.4791 21.0629Z" fill="#434A4D"/>
<path d="M39.4331 20.9526L38.5745 20.4746C38.5079 20.4377 38.4538 20.3813 38.4194 20.3129C38.385 20.2445 38.3719 20.1672 38.3817 20.0911C38.3915 20.015 38.4238 19.9436 38.4744 19.8864C38.525 19.8292 38.5915 19.7887 38.6653 19.7703L39.758 19.4971C39.823 19.4808 39.8911 19.4822 39.9554 19.5013C40.0197 19.5204 40.0778 19.5565 40.1237 19.6058C40.1697 19.6551 40.2018 19.7159 40.2167 19.7818C40.2317 19.8478 40.229 19.9167 40.2089 19.9812L39.9759 20.7325C39.9591 20.7864 39.9306 20.8358 39.8926 20.8773C39.8546 20.9187 39.8079 20.9512 39.756 20.9722C39.7041 20.9933 39.6482 21.0024 39.5924 20.999C39.5365 20.9957 39.4821 20.9798 39.4331 20.9526Z" fill="#434A4D"/>
<path d="M24.6591 34.2656C23.6502 35.9036 23.3667 38.9829 23.293 40.1204C23.2905 40.1568 23.2768 40.1916 23.2538 40.2198C23.2308 40.2481 23.1998 40.2684 23.1649 40.2781C23.13 40.2877 23.093 40.2861 23.059 40.2736C23.025 40.261 22.9957 40.2381 22.9752 40.208C21.9874 38.8035 22.4102 36.4591 23.1901 34.9414C23.6996 34.7294 24.1889 34.5092 24.6591 34.2656Z" fill="#E9AD64"/>
<path d="M27.2452 39.0286C27.2535 39.0642 27.2506 39.1016 27.2369 39.1355C27.2231 39.1694 27.1992 39.1981 27.1685 39.2176C27.1378 39.237 27.1018 39.2463 27.0656 39.244C27.0294 39.2417 26.9948 39.2281 26.9667 39.2049C25.4785 38.0368 25.3141 35.2715 25.7893 33.5989C26.2367 33.2999 26.6549 32.9586 27.0384 32.5796C26.2827 34.3531 26.9698 37.8248 27.2452 39.0286Z" fill="#E9AD64"/>
<path d="M29.474 29.1335C28.3309 30.7552 29.2884 35.2126 29.6425 36.664C29.6546 36.7002 29.6545 36.7394 29.6422 36.7755C29.6298 36.8116 29.6059 36.8425 29.5743 36.8634C29.5426 36.8843 29.505 36.894 29.4673 36.8909C29.4296 36.8878 29.394 36.8722 29.3661 36.8465C28.0656 35.7385 27.6701 33.4451 27.8275 31.6716C28.1541 31.236 28.4437 30.7733 28.6931 30.2884C29.0037 29.6756 29.385 29.1022 29.8292 28.5801C29.7225 28.772 29.6039 28.9568 29.474 29.1335Z" fill="#E9AD64"/>
<path d="M32.4248 19.2995C32.3138 19.5033 32.0475 19.6664 31.7186 19.8091C31.7186 19.8091 28.7735 16.8818 27.0199 16.5576C27.0179 16.4833 27.0347 16.4098 27.0687 16.3439C27.1027 16.278 27.1528 16.222 27.2143 16.1812C27.2757 16.1403 27.3465 16.116 27.4198 16.1106C27.4931 16.1051 27.5667 16.1186 27.6334 16.1499L32.0808 18.2476C32.174 18.2913 32.2574 18.3538 32.3258 18.4313C32.3941 18.5088 32.446 18.5997 32.4783 18.6983C32.5105 18.7969 32.5224 18.9011 32.5132 19.0045C32.504 19.1079 32.4739 19.2083 32.4248 19.2995Z" fill="#FFC770"/>
<path d="M38.8247 32.505C38.8251 32.5067 38.8251 32.5084 38.8247 32.5101L38.7662 32.8862C37.9772 37.895 32.7681 41.8814 30.0601 43.4042C28.2551 44.4184 26.9182 44.3797 26.2261 44.24C26.0378 44.2022 25.8448 44.1943 25.6541 44.2166C27.5287 42.5857 31.2345 41.1322 33.2211 38.0397C35.2077 34.9472 38.976 28.5461 38.8247 32.505Z" fill="#FFF0D3"/>
<path d="M19.2823 34.1164C18.5276 34.2683 17.9838 34.7759 17.6156 35.2886C17.2655 34.8727 16.9366 34.4497 16.6198 34.0216C17.0464 33.5073 17.5818 33.0963 18.1866 32.8188C18.5418 33.2704 18.906 33.7056 19.2823 34.1164Z" fill="#FFC770"/>
<path d="M17.166 31.4603C16.4779 31.6549 15.9785 32.1452 15.6364 32.6314C15.3277 32.1755 15.025 31.7164 14.7284 31.2544C15.1426 30.7733 15.6547 30.388 16.2297 30.125C16.5394 30.5755 16.8492 31.022 17.166 31.4603Z" fill="#FFC770"/>
<path d="M15.3195 28.7386C14.6587 28.8905 14.1633 29.3166 13.8061 29.7681L13.4318 29.1433L13.0202 28.4869L12.9435 28.3849C13.3574 27.9501 13.8568 27.6074 14.4095 27.3789C14.4286 27.4013 14.4458 27.4248 14.4629 27.4482C14.6304 27.6939 14.805 27.9466 14.9674 28.1882L15.3195 28.7386Z" fill="#FFC770"/>
<path d="M13.2684 26.0704C12.6459 26.2447 12.1727 26.6595 11.8398 27.0988L11.7984 27.0591C11.7553 27.016 11.7095 26.9758 11.6612 26.9388L11.5189 26.8246C11.3326 26.6726 11.1372 26.5324 10.9337 26.4047C10.8086 26.3323 10.6815 26.265 10.5524 26.2008C10.9067 25.7174 11.3474 25.3053 11.8519 24.9858C12.0974 25.1276 12.3333 25.2855 12.5581 25.4588L12.7438 25.6015C12.8068 25.6472 12.8671 25.6965 12.9244 25.7493L13.2674 26.0632L13.2684 26.0704Z" fill="#FFC770"/>
<path d="M8.93802 25.7952C8.72062 25.7907 8.50323 25.805 8.28826 25.8381C8.23205 25.8448 8.17641 25.8557 8.12179 25.8707L7.9533 25.9063C7.8974 25.9183 7.84243 25.9343 7.78884 25.9542L7.62539 26.0073C7.57032 26.0231 7.51666 26.0435 7.46497 26.0684L7.40645 26.0939C7.3022 25.5442 7.29673 24.98 7.39031 24.4284C7.44101 24.4095 7.49292 24.3942 7.54569 24.3825L7.78279 24.3214C7.86099 24.299 7.94052 24.2816 8.02089 24.2694C8.37242 24.2028 8.72976 24.1728 9.08734 24.1797C8.87798 24.6908 8.82595 25.2538 8.93802 25.7952Z" fill="#FFC770"/>
<path d="M6.86364 26.3689C6.49652 26.5756 6.16471 26.8406 5.88094 27.1538C5.81024 27.2358 5.74518 27.3227 5.68621 27.4137C5.31132 27.0883 4.87055 26.8497 4.39478 26.7145C4.4973 26.5309 4.61581 26.3569 4.74891 26.1946C4.97475 25.9215 5.22838 25.6732 5.50561 25.4536C6.00891 25.6741 6.4689 25.9841 6.86364 26.3689Z" fill="#FFC770"/>
<path d="M5.9477 29.6214C5.48416 29.7104 5.04934 29.9131 4.68149 30.2116L4.64012 30.1484C4.45795 29.869 4.30799 29.5694 4.19316 29.2555C4.13216 29.0856 4.08459 28.9111 4.0509 28.7336C4.47457 28.4518 4.9427 28.245 5.43516 28.1221C5.43516 28.1526 5.43012 28.1822 5.4281 28.2128C5.41297 28.5797 5.56128 28.9966 5.80242 29.4043C5.84748 29.4757 5.89591 29.548 5.9477 29.6214Z" fill="#FFC770"/>
<path d="M50.7987 25.9911C51.1353 25.9911 51.4081 25.7154 51.4081 25.3754C51.4081 25.0354 51.1353 24.7598 50.7987 24.7598C50.4622 24.7598 50.1893 25.0354 50.1893 25.3754C50.1893 25.7154 50.4622 25.9911 50.7987 25.9911Z" fill="#FFF0D3"/>
<path d="M51.6049 24.8104C51.811 24.8104 51.9782 24.6416 51.9782 24.4333C51.9782 24.225 51.811 24.0562 51.6049 24.0562C51.3987 24.0562 51.2316 24.225 51.2316 24.4333C51.2316 24.6416 51.3987 24.8104 51.6049 24.8104Z" fill="#FFF0D3"/>
<path d="M51.9632 25.6332C52.1693 25.6332 52.3365 25.4643 52.3365 25.256C52.3365 25.0478 52.1693 24.8789 51.9632 24.8789C51.757 24.8789 51.5898 25.0478 51.5898 25.256C51.5898 25.4643 51.757 25.6332 51.9632 25.6332Z" fill="#FFF0D3"/>
<path d="M50.5648 24.6639C50.771 24.6639 50.9381 24.4951 50.9381 24.2868C50.9381 24.0785 50.771 23.9097 50.5648 23.9097C50.3587 23.9097 50.1915 24.0785 50.1915 24.2868C50.1915 24.4951 50.3587 24.6639 50.5648 24.6639Z" fill="#FFF0D3"/>
<path d="M35.8514 20.5602C36.247 20.5602 36.5677 20.2362 36.5677 19.8365C36.5677 19.4368 36.247 19.1128 35.8514 19.1128C35.4557 19.1128 35.135 19.4368 35.135 19.8365C35.135 20.2362 35.4557 20.5602 35.8514 20.5602Z" fill="#42484D"/>
<path d="M34.559 19.6449L34.678 19.5695C35.3277 19.1623 36.0986 18.9995 36.8553 19.1098L37.0571 19.1384" stroke="#42484D" stroke-width="5" stroke-miterlimit="10" stroke-linecap="round"/>
<path d="M52.4009 50.4831C52.3808 50.3635 52.3696 50.2426 52.3676 50.1213C52.3676 50.0937 52.3676 50.0662 52.3676 50.0397C52.3672 49.0284 52.0473 48.0436 51.4544 47.2287C50.8615 46.4138 50.0267 45.8113 49.0714 45.509C48.8536 45.4399 48.631 45.3871 48.4055 45.351C48.1618 45.3134 47.9156 45.2943 47.669 45.2939C47.405 45.2938 47.1414 45.3159 46.881 45.3602C46.7197 45.3868 46.56 45.4229 46.4028 45.4682C45.9729 45.589 45.5624 45.7716 45.184 46.0105C45.0579 46.09 44.9358 46.1766 44.8187 46.2674C44.2439 46.7097 43.778 47.2802 43.4572 47.9344C43.1364 48.5885 42.9695 49.3087 42.9694 50.0387C42.9694 50.0703 42.9694 50.1009 42.9694 50.1325C42.9783 50.6942 43.0874 51.2498 43.2912 51.7725C43.3479 51.92 43.4126 52.0643 43.4849 52.2047C43.7436 52.716 44.092 53.1757 44.513 53.5613C44.6238 53.6633 44.7403 53.7586 44.8621 53.8467C45.107 54.0366 45.3638 54.2103 45.6309 54.3666C41.8545 54.3666 33.8446 54.3788 30.8309 54.3788C29.9924 54.3788 29.5193 54.3248 29.2569 54.2769C29.9632 54.0323 31.9578 53.6979 35.6132 53.6979C37.3022 53.6979 38.6915 53.6133 39.6298 53.4533C40.6518 53.28 41.0877 53.0456 41.0877 52.6593C41.0877 51.8163 38.5603 51.7256 37.4737 51.7256C37.3998 51.7256 37.329 51.7553 37.2768 51.808C37.2246 51.8608 37.1952 51.9323 37.1952 52.0069C37.1952 52.0816 37.2246 52.1531 37.2768 52.2059C37.329 52.2586 37.3998 52.2883 37.4737 52.2883C39.1959 52.2883 40.1292 52.5074 40.441 52.6583C40.0737 52.8366 38.7964 53.1343 35.6132 53.1343C33.0092 53.1343 31.3565 53.3045 30.4283 53.4462C28.6839 53.7142 28.4437 54.02 28.4437 54.3115C28.4437 54.6408 28.7323 54.9466 30.8268 54.9466C34.3904 54.9466 44.9418 54.9343 47.214 54.9323C47.3575 54.9606 47.5028 54.9793 47.6488 54.9883C47.9742 55.0153 48.3017 54.995 48.6214 54.9282C49.0993 54.8003 49.5636 54.6256 50.0077 54.4063C50.1584 54.3309 50.3023 54.2504 50.4395 54.1648C50.6715 54.0234 50.89 53.8606 51.0923 53.6786C51.3072 53.4866 51.5001 53.2708 51.6674 53.0354C51.8204 52.8196 51.9503 52.5879 52.0548 52.3443C52.2939 51.7704 52.4125 51.1526 52.4029 50.53C52.4033 50.5143 52.4026 50.4987 52.4009 50.4831Z" fill="#44B0E3"/>
<path d="M48.5366 54.9486L48.356 54.9944C48.3355 54.9991 48.3143 54.9995 48.2936 54.9954C48.273 54.9913 48.2534 54.9829 48.2362 54.9707C48.219 54.9585 48.2045 54.9428 48.1937 54.9246C48.1829 54.9064 48.176 54.8861 48.1734 54.865C48.0369 53.9026 47.8151 52.9546 47.5105 52.0324C46.3755 52.5278 45.4412 53.2963 44.8621 53.8467C44.7404 53.7562 44.6235 53.6592 44.512 53.5562C45.1173 52.9732 46.1263 52.1394 47.3682 51.6023C47.1735 51.0284 46.9546 50.4535 46.7195 49.8939C45.6783 50.2181 44.4423 51.2873 43.4909 52.2057C43.4182 52.0655 43.3535 51.9212 43.2972 51.7735C44.3707 50.7542 45.5068 49.8155 46.545 49.4781C46.329 48.9888 46.103 48.5138 45.873 48.0664C44.8842 48.5006 43.8077 49.371 42.9753 50.1335C42.9753 50.1019 42.9753 50.0703 42.9753 50.0387C42.9752 49.8585 42.9853 49.6785 43.0056 49.4995C43.7986 48.8033 44.7551 48.0725 45.6642 47.6648C45.3837 47.1459 45.1012 46.671 44.8237 46.2622C44.9414 46.1704 45.0636 46.0847 45.19 46.0054C46.6277 48.1265 48.2672 51.9376 48.6203 54.8222C48.6244 54.85 48.6181 54.8783 48.6026 54.9017C48.5871 54.9251 48.5636 54.9418 48.5366 54.9486Z" fill="#358AB3"/>
<path d="M50.4418 54.165C50.3046 54.2506 50.1593 54.3301 50.01 54.4066C49.8304 51.3977 48.093 47.6854 46.4031 45.4664C46.5602 45.421 46.7199 45.3849 46.8813 45.3584C48.5713 47.6355 50.2007 51.1591 50.4418 54.165Z" fill="#358AB3"/>
<path d="M52.0561 52.3445C51.9519 52.5882 51.822 52.8199 51.6687 53.0355C51.4941 49.784 49.6084 46.9871 48.4058 45.3491C48.6313 45.3849 48.8539 45.4377 49.0717 45.5071C50.2097 47.0982 51.712 49.521 52.0561 52.3445Z" fill="#358AB3"/>
</svg>
