<svg width="64" height="64" viewBox="0 0 64 64" fill="none" xmlns="http://www.w3.org/2000/svg">
<path d="M44.5542 23.0361L44.423 24.4674L43.9667 29.4899L39.2673 31.1468L37.2436 28.7565L37.178 24.5105L37.1575 23.2035L44.5542 23.0361Z" fill="#FFD2A6"/>
<path d="M47.2058 15.9443C48.0204 15.1001 50.2183 14.2874 49.6955 17.7294C49.1727 21.1714 45.5776 21.1838 45.5776 21.1838L45.9771 17.6013L47.2058 15.9443Z" fill="#E6A48A"/>
<path d="M34.8195 15.9443C34.005 15.1001 31.807 14.2874 32.3298 17.7294C32.8526 21.1714 36.4477 21.1838 36.4477 21.1838L36.0482 17.6013L34.8195 15.9443Z" fill="#E6A48A"/>
<path d="M44.5542 23.0361L44.424 24.4703C44.2056 24.7304 43.9902 24.9694 43.7856 25.1855C43.3387 25.6584 42.7964 26.036 42.1929 26.2945C41.5894 26.5529 40.9377 26.6868 40.2787 26.6875C39.0363 26.6235 38.0112 25.7658 37.178 24.5133L37.1575 23.2063L44.5542 23.0361Z" fill="#E6A48A"/>
<path d="M34.1106 12.7255C34.276 15.4303 35.9708 25.1874 40.2786 25.4102C40.9376 25.4097 41.5894 25.276 42.193 25.0175C42.7965 24.759 43.3387 24.3813 43.7855 23.9082C45.2845 22.3229 47.3052 19.555 47.5882 15.9447C48.0454 10.1125 44.3906 8.20025 42.5627 8.00903C40.7348 7.81781 33.9148 9.5388 34.1106 12.7255Z" fill="#FFD2A6"/>
<path d="M49.0284 6.19225C49.0284 6.19225 46.2871 5.46178 44.9654 4.86995C43.2246 4.09168 35.1915 2.24065 33.3147 8.48691C33.1081 9.17627 33.2227 9.92108 33.4665 10.5999C31.2146 13.2541 34.6717 16.4456 34.6717 16.4456L34.9272 13.3439C34.9448 13.1031 35.0232 12.8702 35.1553 12.6661C35.823 11.6488 37.8369 10.6047 44.2996 11.0407C44.4218 11.0492 44.5385 11.0936 44.6344 11.168C44.7303 11.2423 44.8009 11.3433 44.8371 11.4575L45.1308 12.4137C45.1713 12.5465 45.2459 12.667 45.3475 12.7637C45.4492 12.8604 45.5744 12.9301 45.7114 12.9663C48.1199 13.6031 47.6284 16.2563 47.6284 16.2563C49.6256 13.4835 48.6995 10.6477 47.6284 9.11603C48.5898 7.76792 49.0284 6.19225 49.0284 6.19225Z" fill="#D9B582"/>
<path d="M50.9395 36.3357C50.8544 37.3245 50.6735 38.3031 50.399 39.2585L47.0203 50.9747C46.8597 51.5303 46.5695 52.0422 46.1726 52.4701C45.7756 52.8981 45.2827 53.2305 44.7323 53.4414C43.3322 53.9797 41.2342 54.6079 38.8492 54.7293C35.9258 54.8794 32.5715 54.2694 29.5414 51.7988L29.9193 43.0026L30.1151 38.5711L30.3883 32.2368L30.3951 32.0695L37.2367 27.9908L38.391 28.8819C40.12 29.9336 42.2935 29.9881 44.2095 26.874L48.4194 30.0196L49.2702 30.6554C49.7769 31.0346 50.1919 31.5182 50.4854 32.0718C50.779 32.6254 50.9441 33.2354 50.9688 33.8584L50.9904 34.4206C51.013 35.0594 50.996 35.6989 50.9395 36.3357Z" fill="#93D982"/>
<path d="M38.8464 54.7291C35.9229 54.8792 32.5687 54.2692 29.5386 51.7986L29.9165 43.0024L31.2343 42.4287L37.1546 45.4242L36.3988 46.6815C36.3988 48.9303 36.4556 52.3895 38.8464 54.7291Z" fill="#81BF72"/>
<path d="M41.4772 43.0091L47.6873 39.5413C47.9464 39.3971 48.1464 39.1697 48.2532 38.8978L49.3733 36.0687L44.0482 35.8774L36.3989 40.81L39.6758 43.554L41.4772 43.0091Z" fill="#81BF72"/>
<path d="M39.1695 59.7409C37.5247 60.2783 36.2911 59.9379 35.3708 59.1023C34.4995 58.3106 33.9091 57.0753 33.5194 55.7205C33.2631 54.8019 33.0824 53.8648 32.979 52.9182C32.878 52.0452 32.8293 51.1673 32.8331 50.2889C32.8331 49.4848 32.8919 48.8662 32.9614 48.5679L32.7656 47.1872L32.6471 46.3736L34.8989 45.538L35.223 45.4175L35.4031 46.408C35.2318 47.1893 35.1513 47.9869 35.1632 48.7859C35.183 49.9923 35.4462 51.183 35.9377 52.29C36.2863 53.0708 36.7315 53.8071 37.2633 54.4823C37.7219 55.059 38.2211 55.6037 38.7573 56.1125L39.006 56.3535C40.2621 57.583 40.7301 59.2333 39.1695 59.7409Z" fill="#A69084"/>
<path d="M35.1603 48.7926C34.4584 49.3937 33.6754 49.8978 32.8331 50.2908C32.8331 49.4867 32.8918 48.8681 32.9613 48.5698L32.7655 47.1892L34.9008 45.5399L35.2249 45.4194L35.405 46.41C35.2316 47.1926 35.1495 47.9919 35.1603 48.7926Z" fill="#665C57"/>
<path d="M37.2632 54.4825C36.3566 55.0447 34.9791 55.7092 33.5193 55.7197C33.263 54.8011 33.0823 53.864 32.9789 52.9173C33.9991 52.8514 35.1112 52.6525 35.9346 52.2939C36.2845 53.0736 36.7307 53.8086 37.2632 54.4825Z" fill="#806F66"/>
<path d="M39.1693 59.7412C37.5245 60.2786 36.2909 59.9382 35.3706 59.1026C36.7413 58.4639 38.1119 57.1129 38.7571 56.1138L39.0058 56.3547C40.2619 57.5833 40.7299 59.2336 39.1693 59.7412Z" fill="#806F66"/>
<path d="M25.6636 38.0908C25.6636 38.0908 23.5371 37.8394 22.6227 40.3855C21.7082 42.9316 21.206 46.1843 18.5802 46.4128C17.9634 46.465 17.3423 46.4329 16.7347 46.3172C16.5097 46.2721 16.276 46.2939 16.0639 46.38C15.8518 46.4661 15.6711 46.6124 15.5451 46.8L15.4609 46.9291C15.3176 47.1435 15.2542 47.3996 15.2813 47.6543C15.3084 47.909 15.4243 48.1468 15.6097 48.3279L16.4263 49.1282C16.6278 49.3243 16.8787 49.4652 17.1537 49.5365C17.4287 49.6078 17.7181 49.6071 17.9927 49.5345L18.8739 49.2983C19.1149 49.2337 19.3374 49.1156 19.524 48.9532C20.0301 48.5153 21.4204 47.6242 24.2596 47.7389C24.7492 47.759 24.988 47.3402 25.1026 46.8784C25.3278 45.9625 26.1374 45.5848 27.3006 44.906C29.1607 43.8198 28.5586 40.3951 28.5586 40.3951L26.9598 37.9092L25.6636 38.0908Z" fill="#665C57"/>
<path d="M34.484 46.0925C34.484 46.5352 34.1257 47.1796 33.5921 47.8527C32.7834 48.871 31.5704 49.9562 30.5864 50.4916C29.3969 51.1427 27.8451 53.1085 27.0883 54.1248C26.7851 54.5331 26.3481 54.828 25.8498 54.9604L23.3287 55.6297C22.9604 55.7273 22.5675 55.6803 22.2342 55.4987L21.8249 55.276C21.5541 55.1289 21.3382 54.9015 21.2084 54.6267C21.0786 54.3519 21.0417 54.0439 21.1029 53.7473C21.1642 53.4506 21.3204 53.1807 21.5491 52.9765C21.7778 52.7723 22.0671 52.6444 22.3751 52.6113L23.9974 52.4354C24.4525 52.3874 24.8816 52.2046 25.2271 51.9114C26.1386 51.136 27.5533 49.3758 26.2463 46.5716C24.4184 42.6515 26.1484 41.9478 26.9492 41.1638L27.7247 40.81L29.2813 40.1016L33.3091 41.8226C33.3091 41.8226 33.7311 42.9565 34.0699 44.1057C34.296 44.8735 34.484 45.647 34.484 46.0925Z" fill="#806F66"/>
<path d="M34.4837 46.0926C34.4837 46.5352 34.1254 47.1797 33.5918 47.8528H33.5595C30.4128 47.8528 26.949 41.16 26.949 41.16L27.7244 40.8101H28.9218L34.0696 44.1058C34.2958 44.8735 34.4837 45.647 34.4837 46.0926Z" fill="#665C57"/>
<path d="M41.9432 44.1498L40.9916 46.0687C40.8326 46.3905 40.579 46.6587 40.2632 46.8391C39.9474 47.0194 39.5836 47.1037 39.2185 47.0812C38.0373 47.0106 36.867 46.8183 35.7272 46.5075C34.7935 46.2563 33.8994 45.8812 33.0701 45.3927C31.8656 44.6633 30.7294 43.8314 29.6747 42.9068C25.6812 39.4017 24.1793 35.5974 23.6604 33.8028C23.5701 33.4916 23.5496 33.1651 23.6002 32.8454C23.6509 32.5258 23.7716 32.2207 23.9542 31.9508L24.8803 30.5816L25.7272 29.3301L26.25 32.7558L37.1615 42.795H40.2729L41.3293 42.9747C41.4581 42.9973 41.5798 43.0486 41.6848 43.1247C41.7899 43.2008 41.8755 43.2996 41.9349 43.4134C41.9944 43.5272 42.0261 43.6529 42.0275 43.7807C42.0289 43.9084 42.0001 44.0347 41.9432 44.1498Z" fill="#81BF72"/>
<path d="M29.6699 42.9136C25.6763 39.4085 24.1745 35.6041 23.6556 33.8095C23.5652 33.4984 23.5447 33.1718 23.5954 32.8522C23.646 32.5326 23.7668 32.2274 23.9493 31.9575L24.8755 30.5884C24.2234 32.3964 26.581 38.6273 29.6699 42.9136Z" fill="#93D982"/>
<path d="M41.9433 44.1496L40.9917 46.0685C40.8328 46.3903 40.5792 46.6585 40.2633 46.8389C39.9475 47.0192 39.5838 47.1035 39.2186 47.081C38.0374 47.0104 36.8672 46.8181 35.7274 46.5073C35.6253 45.9039 35.6644 45.2858 35.8419 44.6993C36.0792 43.9498 36.5368 43.2849 37.1577 42.7871H40.2692L41.3255 42.9669C41.4549 42.9888 41.5773 43.0398 41.683 43.1158C41.7888 43.1919 41.875 43.2908 41.9349 43.4049C41.9948 43.519 42.0267 43.6452 42.0282 43.7734C42.0297 43.9016 42.0006 44.0284 41.9433 44.1438V44.1496Z" fill="#FFD2A6"/>
<path d="M41.4771 43.0089L38.9541 44.5186C38.3215 44.8962 37.5672 45.0292 36.8393 44.8915L35.8417 44.7003C36.079 43.9508 36.5365 43.2858 37.1575 42.7881H40.2689L41.3253 42.9678C41.3771 42.9769 41.4279 42.9907 41.4771 43.0089Z" fill="#E6A48A"/>
<path d="M38.8682 33.7953C38.7936 34.3696 38.6694 34.9367 38.4971 35.4905C38.4922 35.5049 38.4873 35.5192 38.4834 35.5326C38.4019 35.7809 38.2581 36.0052 38.065 36.1853C37.8719 36.3653 37.6358 36.4953 37.378 36.5633L35.9946 36.9266C35.6695 37.012 35.3282 37.0215 34.9986 36.9542C34.669 36.887 34.3602 36.7448 34.0973 36.5394L26.7064 30.7645C27.0342 30.2535 27.3181 29.7169 27.5553 29.1601C27.9978 28.1256 28.3649 26.7813 27.939 25.7354L30.4552 24.6148L35.9849 22.1519C36.1141 23.5287 36.7045 24.7333 37.5073 26.2249C37.6561 26.5021 37.8127 26.7899 37.9753 27.0911C38.1231 27.3716 38.2485 27.6628 38.3502 27.9621C38.5535 28.5589 38.7045 29.1714 38.8016 29.7931C38.9042 30.4333 38.9627 31.0794 38.9768 31.7273C38.9946 32.4183 38.9582 33.1097 38.8682 33.7953Z" fill="#806F66"/>
<path d="M31.2371 32.9211L28.2363 31.768L27.551 29.1597C26.6179 25.9836 27.0614 25.8545 27.502 25.1709L30.4509 24.6144L35.7133 23.9595C35.7133 28.8987 29.8184 28.1185 31.2371 32.9211Z" fill="#665C57"/>
<path d="M48.1944 37.9961L48.1865 38.0019L38.7632 43.7041C38.2991 43.9849 37.7546 44.112 37.2107 44.0666C36.6667 44.0211 36.1523 43.8055 35.7438 43.4517L30.1104 38.5755L27.0459 35.9204C26.7776 35.6889 26.5929 35.3791 26.5192 35.037C26.0591 32.8742 27.2936 31.8225 28.0465 31.3923C28.1944 31.3092 28.3627 31.267 28.5332 31.2702C28.7038 31.2734 28.8703 31.3219 29.0148 31.4104L30.3855 32.2384L36.5946 35.995C37.0086 36.2455 37.4878 36.3742 37.9748 36.3659C38.4617 36.3576 38.936 36.2126 39.3408 35.9481L44.8352 32.3579C45.8329 31.7059 48.0504 31.4018 49.1274 33.4097C50.2043 35.4175 48.8405 37.5945 48.1944 37.9961Z" fill="#A4F291"/>
<path d="M35.9384 35.2577L35.5018 35.144C35.1417 35.0502 34.759 35.0872 34.4248 35.2482L30.7201 37.0285C30.4741 37.147 30.2752 37.3417 30.1542 37.582C30.105 37.6783 30.0695 37.7805 30.0485 37.8861L29.8996 38.628C29.7892 39.1812 29.5437 39.7002 29.1838 40.1408C28.824 40.5814 28.3606 40.9307 27.8329 41.1589C27.6874 41.2214 27.5283 41.2477 27.3699 41.2351C27.2114 41.2226 27.0587 41.1717 26.9255 41.087C26.7923 41.0024 26.6827 40.8867 26.6068 40.7503C26.5309 40.6139 26.4909 40.4612 26.4906 40.306C26.4909 40.2213 26.5028 40.1371 26.5258 40.0555L27.4706 36.7435L27.7829 35.6373C27.8981 35.233 28.0964 34.8557 28.3658 34.5286C28.6351 34.2015 28.9698 33.9314 29.3494 33.7347L30.9453 32.9115L32.0222 32.356L35.9384 35.2577Z" fill="#806F66"/>
<path d="M30.1536 37.5821C30.1044 37.6783 30.0689 37.7805 30.0479 37.8861L29.899 38.628C29.7886 39.1812 29.5431 39.7002 29.1832 40.1408C28.8234 40.5814 28.3599 40.9307 27.8323 41.1589C27.6868 41.2215 27.5277 41.2477 27.3693 41.2351C27.2108 41.2226 27.0581 41.1717 26.9249 41.087C26.7916 41.0024 26.6821 40.8867 26.6062 40.7503C26.5303 40.6139 26.4903 40.4612 26.49 40.306C26.4903 40.2214 26.5022 40.1371 26.5252 40.0555L27.47 36.7435C27.8548 36.3668 29.1089 35.6526 30.1536 37.5821Z" fill="#99857A"/>
<path d="M30.1894 36.0457C30.083 36.0831 29.9707 36.1022 29.8575 36.1022H29.7949C29.404 36.08 29.0344 35.9205 28.7546 35.653C28.4747 35.3855 28.3035 35.0282 28.2725 34.647C28.5554 34.2666 28.9238 33.9545 29.3494 33.7348L30.9453 32.9116L31.2253 34.2674C31.3007 34.6359 31.2375 35.0187 31.0472 35.3453C30.8569 35.672 30.5524 35.9207 30.1894 36.0457Z" fill="#665C57"/>
<path d="M26.6368 34.4617L26.0259 33.6968C25.83 33.4507 25.7235 33.148 25.7234 32.8363V27.1493C25.7237 26.7468 25.8685 26.357 26.1326 26.0479L26.5889 25.5125C26.6243 25.4716 26.6718 25.4424 26.7248 25.4287C26.7778 25.4149 26.8338 25.4174 26.8853 25.4358C26.9369 25.4541 26.9814 25.4874 27.0129 25.5312C27.0445 25.575 27.0615 25.6272 27.0617 25.6808V26.6875C27.0616 26.7518 27.0808 26.8148 27.1168 26.8685C27.1529 26.9223 27.2044 26.9646 27.2648 26.9901C27.3252 27.0156 27.3919 27.0233 27.4568 27.0122C27.5216 27.0011 27.5817 26.9716 27.6296 26.9275L27.6423 26.9161C27.7611 26.8079 27.9164 26.746 28.0788 26.7421C28.2412 26.7382 28.3994 26.7926 28.5235 26.895C28.5972 26.9557 28.6564 27.0314 28.697 27.1168C28.7376 27.2022 28.7586 27.2952 28.7584 27.3893V30.4106L26.6368 34.4617Z" fill="#FFD2A6"/>
<path d="M28.2337 30.1906L28.4197 33.8391C28.4423 34.2268 28.6099 34.593 28.8908 34.868C29.1716 35.1429 29.5461 35.3076 29.9431 35.3306C30.0761 35.3387 30.2093 35.3201 30.3347 35.2761C30.6972 35.1511 31.0015 34.9027 31.1917 34.5765C31.382 34.2502 31.4455 33.8679 31.3706 33.4997L30.6324 29.9104C30.5742 29.6367 30.4185 29.3919 30.193 29.2197C29.9675 29.0474 29.6868 28.9588 29.4007 28.9696C29.2415 28.9736 29.0847 29.0084 28.9395 29.0722C28.7943 29.1359 28.6635 29.2273 28.5549 29.341C28.4462 29.4547 28.3619 29.5883 28.3067 29.7342C28.2516 29.8801 28.2267 30.0352 28.2337 30.1906Z" fill="#99857A"/>
<path d="M40.1191 18.3951L39.6981 20.185C39.6698 20.3044 39.6695 20.4286 39.6971 20.5482C39.7248 20.6678 39.7797 20.7798 39.8578 20.8758C39.9359 20.9718 40.0352 21.0494 40.1482 21.1028C40.2612 21.1561 40.3851 21.1839 40.5107 21.1841H41.3076C41.4316 21.1842 41.5541 21.1573 41.6661 21.1054C41.7781 21.0535 41.8769 20.9778 41.9553 20.884C42.0337 20.7902 42.0897 20.6805 42.1192 20.5629C42.1488 20.4453 42.1511 20.3227 42.1261 20.2041L41.7511 18.4143C41.7127 18.2298 41.6101 18.0639 41.4607 17.9449C41.3114 17.8259 41.1244 17.761 40.9317 17.7612C40.7428 17.7617 40.5597 17.8247 40.4122 17.9398C40.2646 18.0549 40.1613 18.2154 40.1191 18.3951Z" fill="#E6A48A"/>
<path d="M41.1514 23.5264C40.3583 23.5264 39.5418 23.2473 39.0954 22.8084C39.0403 22.7545 39.0094 22.6815 39.0095 22.6054C39.0096 22.5293 39.0407 22.4563 39.0958 22.4025C39.151 22.3488 39.2258 22.3186 39.3037 22.3187C39.3817 22.3188 39.4564 22.3491 39.5114 22.403C39.8943 22.7769 40.6863 23.0044 41.3863 22.9423C41.8758 22.9002 42.2567 22.7224 42.4564 22.4422C42.4774 22.4091 42.5051 22.3806 42.5378 22.3583C42.5705 22.336 42.6075 22.3205 42.6465 22.3126C42.6855 22.3047 42.7258 22.3047 42.7648 22.3125C42.8039 22.3203 42.8409 22.3357 42.8736 22.358C42.9064 22.3802 42.9341 22.4087 42.9552 22.4417C42.9763 22.4747 42.9903 22.5116 42.9963 22.5501C43.0023 22.5885 43.0003 22.6278 42.9903 22.6655C42.9803 22.7032 42.9625 22.7384 42.9381 22.7692C42.6385 23.1918 42.1049 23.4557 41.4382 23.514C41.3413 23.5226 41.2463 23.5264 41.1514 23.5264Z" fill="#E6A48A"/>
<path d="M38.171 17.8433H38.0995C37.4142 17.8223 36.7944 17.4944 36.5164 17.0077C36.4783 16.9413 36.4689 16.8628 36.4901 16.7895C36.5113 16.7163 36.5614 16.6543 36.6295 16.6171C36.6975 16.58 36.7778 16.5707 36.8529 16.5915C36.9279 16.6122 36.9914 16.6611 37.0294 16.7276C37.2066 17.0373 37.6442 17.2553 38.1181 17.2697C38.3447 17.2855 38.5716 17.2426 38.7758 17.1454C38.98 17.0482 39.1543 16.9001 39.2812 16.7161C39.2998 16.68 39.3259 16.6482 39.3579 16.6227C39.3899 16.5972 39.427 16.5786 39.4669 16.5681C39.5068 16.5575 39.5485 16.5553 39.5893 16.5616C39.6301 16.5679 39.6691 16.5825 39.7037 16.6044C39.7383 16.6264 39.7678 16.6553 39.7902 16.6892C39.8127 16.723 39.8275 16.7611 39.8339 16.801C39.8402 16.8409 39.8378 16.8816 39.827 16.9205C39.8161 16.9594 39.7969 16.9956 39.7707 17.0268C39.597 17.2843 39.3589 17.4944 39.0791 17.6373C38.7992 17.7801 38.4867 17.851 38.171 17.8433Z" fill="#665347"/>
<path d="M43.8463 17.8433H43.7748C43.0895 17.8223 42.4697 17.4944 42.1917 17.0077C42.1536 16.9413 42.1442 16.8628 42.1654 16.7895C42.1866 16.7163 42.2367 16.6543 42.3048 16.6171C42.3728 16.58 42.4531 16.5707 42.5281 16.5915C42.6031 16.6122 42.6667 16.6611 42.7047 16.7276C42.8819 17.0373 43.3195 17.2553 43.7934 17.2697C44.02 17.2855 44.2469 17.2426 44.4511 17.1454C44.6553 17.0482 44.8296 16.9001 44.9565 16.7161C44.9751 16.68 45.0012 16.6482 45.0332 16.6227C45.0652 16.5972 45.1023 16.5786 45.1422 16.5681C45.1821 16.5575 45.2238 16.5553 45.2646 16.5616C45.3054 16.5679 45.3444 16.5825 45.379 16.6044C45.4136 16.6264 45.4431 16.6553 45.4655 16.6892C45.488 16.723 45.5028 16.7611 45.5092 16.801C45.5155 16.8409 45.5131 16.8816 45.5023 16.9205C45.4914 16.9594 45.4722 16.9956 45.446 17.0268C45.2723 17.2843 45.0342 17.4944 44.7544 17.6373C44.4745 17.7801 44.162 17.851 43.8463 17.8433Z" fill="#665347"/>
<path d="M45.8595 15.3947C45.8405 15.3945 45.8215 15.3929 45.8027 15.3899C45.4757 15.3278 42.5915 14.7771 42.0177 14.5055C41.983 14.4891 41.952 14.4661 41.9263 14.4379C41.9007 14.4098 41.881 14.377 41.8684 14.3414C41.8557 14.3058 41.8504 14.2681 41.8527 14.2305C41.855 14.1928 41.8648 14.156 41.8816 14.1221C41.8985 14.0882 41.922 14.0579 41.9508 14.0329C41.9797 14.0078 42.0133 13.9886 42.0498 13.9763C42.0862 13.9639 42.1248 13.9587 42.1633 13.9609C42.2018 13.9632 42.2395 13.9728 42.2742 13.9892C42.6561 14.1699 44.6612 14.5887 45.9153 14.8268C45.9865 14.8409 46.0497 14.8802 46.093 14.9372C46.1362 14.9941 46.1562 15.0647 46.1493 15.1353C46.1424 15.2059 46.1089 15.2714 46.0554 15.3193C46.0019 15.3672 45.9321 15.3941 45.8595 15.3947Z" fill="#665347"/>
<path d="M36.4281 15.4951C36.3578 15.495 36.2897 15.4702 36.2365 15.4253C36.1832 15.3804 36.1483 15.3183 36.1379 15.2503C36.1276 15.1823 36.1426 15.1129 36.1803 15.0549C36.2179 14.9968 36.2756 14.9538 36.343 14.9338L39.5914 13.9777C39.6288 13.9651 39.6685 13.9599 39.7079 13.9626C39.7474 13.9653 39.7859 13.9757 39.8212 13.9933C39.8564 14.0109 39.8877 14.0353 39.913 14.0649C39.9384 14.0946 39.9574 14.129 39.9688 14.166C39.9802 14.203 39.9838 14.2419 39.9795 14.2803C39.9751 14.3187 39.9629 14.3558 39.9435 14.3895C39.924 14.4232 39.8978 14.4527 39.8665 14.4762C39.8351 14.4998 39.7991 14.5169 39.7608 14.5265L36.5133 15.4826C36.4857 15.491 36.457 15.4951 36.4281 15.4951Z" fill="#665347"/>
<path d="M35.3402 21.0436C36.6374 19.1448 35.9276 16.9218 35.536 16.0126C35.4841 15.8894 35.3853 15.7907 35.2604 15.7372C35.1355 15.6837 34.9943 15.6796 34.8663 15.7257C33.5877 16.2038 32.265 17.5586 31.986 17.8559L33.7482 19.6085L35.3402 21.0436Z" fill="#665C57"/>
<path d="M31.2361 27.0412C33.8601 27.0412 35.9874 24.9638 35.9874 22.4012C35.9874 19.8386 33.8601 17.7612 31.2361 17.7612C28.612 17.7612 26.4847 19.8386 26.4847 22.4012C26.4847 24.9638 28.612 27.0412 31.2361 27.0412Z" fill="#806F66"/>
<path d="M29.3243 18.2916C29.3243 18.2916 28.1632 17.1643 26.1835 16.8574C26.1111 16.8467 26.0372 16.8508 25.9665 16.8695C25.8958 16.8882 25.8299 16.9211 25.773 16.9661C25.716 17.011 25.6693 17.0671 25.6358 17.1307C25.6024 17.1943 25.5828 17.2641 25.5785 17.3355C25.5207 18.3136 25.5266 20.395 26.444 21.7967C26.4607 21.8217 26.4837 21.8421 26.5109 21.856C26.538 21.8698 26.5684 21.8765 26.599 21.8756C26.6295 21.8746 26.6594 21.866 26.6856 21.8505C26.7117 21.835 26.7334 21.8132 26.7484 21.7871L27.1224 21.1551C27.5346 20.4573 28.0824 19.8448 28.7349 19.3519L29.1324 19.0517C29.249 18.9647 29.3319 18.8417 29.3674 18.7027C29.403 18.5637 29.3892 18.4171 29.3282 18.2868L29.3243 18.2916Z" fill="#665C57"/>
<path d="M32.699 22.0801C32.6889 22.081 32.6788 22.081 32.6687 22.0801C32.6497 22.0762 32.6318 22.0688 32.6158 22.0581C32.5999 22.0475 32.5863 22.0338 32.5757 22.018C32.5652 22.0022 32.5579 21.9845 32.5544 21.966C32.5508 21.9474 32.5511 21.9284 32.5551 21.9099C32.6383 21.5275 32.8938 21.0322 33.3383 20.9031C33.7045 20.797 34.102 20.9509 34.521 21.3601C34.5348 21.3734 34.5457 21.3892 34.5531 21.4066C34.5605 21.424 34.5644 21.4426 34.5644 21.4615C34.5644 21.4804 34.5605 21.499 34.5531 21.5164C34.5457 21.5338 34.5348 21.5496 34.521 21.5628C34.4934 21.5895 34.4561 21.6044 34.4172 21.6044C34.3784 21.6044 34.3411 21.5895 34.3135 21.5628C34.0824 21.3362 33.7388 21.0848 33.4215 21.1804C33.121 21.2674 32.9134 21.6403 32.8419 21.9711C32.8341 22.0023 32.8157 22.03 32.7898 22.0497C32.7638 22.0695 32.7319 22.0802 32.699 22.0801Z" fill="#404040"/>
<path d="M28.9211 22.7492C28.8969 22.749 28.8731 22.7429 28.8518 22.7316C28.8306 22.7203 28.8125 22.7041 28.7991 22.6844C28.7858 22.6646 28.7776 22.642 28.7753 22.6185C28.773 22.5949 28.7767 22.5712 28.786 22.5494C29.0445 21.9566 29.3431 21.6353 29.6975 21.5674C30.139 21.4842 30.5502 21.8256 30.8205 22.0895C30.8481 22.1163 30.8637 22.1529 30.8638 22.191C30.8639 22.2291 30.8485 22.2656 30.821 22.2926C30.7934 22.3196 30.756 22.3349 30.717 22.335C30.678 22.335 30.6406 22.32 30.6129 22.2931C30.2585 21.946 29.9853 21.8055 29.7533 21.8495C29.5056 21.8963 29.2706 22.1698 29.0572 22.6612C29.0459 22.6873 29.0269 22.7096 29.0027 22.7252C28.9785 22.7408 28.9501 22.7492 28.9211 22.7492Z" fill="#404040"/>
<path d="M31.2773 23.8428L31.8706 24.3907C31.906 24.4231 31.948 24.4477 31.9939 24.4628C32.0399 24.4779 32.0886 24.4832 32.1368 24.4783C32.185 24.4734 32.2315 24.4584 32.2733 24.4344C32.315 24.4104 32.351 24.3778 32.3788 24.339L32.8458 23.6832C32.8827 23.6315 32.9037 23.5705 32.9061 23.5075C32.9086 23.4445 32.8925 23.3821 32.8597 23.3278C32.8269 23.2735 32.7788 23.2295 32.7211 23.2012C32.6634 23.1728 32.5986 23.1612 32.5344 23.1678L31.4741 23.2759C31.41 23.2826 31.3493 23.307 31.299 23.3464C31.2487 23.3857 31.2109 23.4383 31.1902 23.4979C31.1696 23.5576 31.1668 23.6217 31.1822 23.6828C31.1976 23.7439 31.2306 23.7994 31.2773 23.8428Z" fill="#404040"/>
<path d="M31.2097 25.7648C30.7652 25.7648 30.2982 25.5315 29.9653 25.1165C29.9527 25.1018 29.9433 25.0847 29.9376 25.0663C29.9319 25.048 29.93 25.0287 29.9321 25.0096C29.9342 24.9905 29.9401 24.972 29.9497 24.9552C29.9592 24.9385 29.9721 24.9237 29.9875 24.9119C30.003 24.9 30.0207 24.8913 30.0397 24.8863C30.0587 24.8813 30.0785 24.88 30.098 24.8826C30.1174 24.8852 30.1362 24.8916 30.1531 24.9014C30.17 24.9112 30.1847 24.9242 30.1963 24.9396C30.5684 25.4034 31.1304 25.5955 31.5611 25.4062C31.9919 25.2169 32.1574 24.7369 32.0409 24.1136C32.034 24.076 32.0426 24.0374 32.0648 24.0061C32.087 23.9747 32.121 23.9532 32.1593 23.9462C32.1783 23.9428 32.1978 23.9431 32.2167 23.947C32.2355 23.951 32.2534 23.9586 32.2692 23.9693C32.2851 23.9801 32.2986 23.9938 32.309 24.0097C32.3193 24.0256 32.3264 24.0434 32.3297 24.0619C32.4726 24.8268 32.2318 25.4273 31.6816 25.6682C31.533 25.7325 31.3722 25.7654 31.2097 25.7648Z" fill="#404040"/>
<path d="M33.3767 25.3919H33.3131C32.9539 25.356 32.6223 25.1876 32.3858 24.9211C32.1493 24.6546 32.0258 24.3101 32.0403 23.9578C32.0426 23.9197 32.0601 23.8841 32.0892 23.8588C32.1183 23.8334 32.1566 23.8203 32.1955 23.8225C32.2345 23.8247 32.271 23.8418 32.2969 23.8702C32.3229 23.8987 32.3363 23.936 32.3341 23.974C32.3241 24.2513 32.4214 24.522 32.6066 24.7324C32.7919 24.9427 33.0515 25.0771 33.3337 25.1089C33.785 25.1357 34.0699 24.7915 34.1169 24.1633C34.1195 24.1253 34.1375 24.0898 34.1668 24.0647C34.1962 24.0396 34.2346 24.027 34.2736 24.0295C34.3125 24.032 34.3488 24.0496 34.3745 24.0783C34.4002 24.1069 34.4132 24.1444 34.4106 24.1825C34.3431 25.0755 33.8447 25.3919 33.3767 25.3919Z" fill="#404040"/>
<path d="M38.3462 27.9619L36.1336 29.0825C36.0002 29.1504 35.8456 29.1667 35.7004 29.1283C35.5553 29.0898 35.4303 28.9994 35.3503 28.875C35.2762 28.7609 35.245 28.6252 35.262 28.4911C35.2789 28.357 35.343 28.2328 35.4434 28.1398L37.4994 26.2275C37.6482 26.5048 37.8048 26.7926 37.9673 27.0938C38.1164 27.3732 38.243 27.6634 38.3462 27.9619Z" fill="#665C57"/>
<path d="M38.977 31.7271L36.2591 31.3284C36.1421 31.3115 36.0352 31.2538 35.9583 31.1659C35.8815 31.078 35.8398 30.9659 35.8411 30.8503C35.8408 30.7423 35.8781 30.6373 35.9467 30.5526C36.0153 30.4679 36.1113 30.4084 36.219 30.3837L38.7978 29.7871C38.902 30.4291 38.9619 31.0772 38.977 31.7271Z" fill="#665C57"/>
<path d="M38.8683 33.795C38.7937 34.3692 38.6696 34.9363 38.4972 35.4902L36.1426 34.296C36.0517 34.2494 35.9755 34.1795 35.9224 34.0937C35.8692 34.0079 35.8411 33.9096 35.8411 33.8093C35.841 33.727 35.86 33.6458 35.8965 33.5716C35.933 33.4975 35.9862 33.4323 36.052 33.381C36.1178 33.3296 36.1947 33.2934 36.2768 33.2751C36.3589 33.2567 36.4442 33.2566 36.5264 33.2749L38.8683 33.795Z" fill="#665C57"/>
<path d="M21.8875 24.1739L21.3979 20.2061C21.3798 20.0558 21.3313 19.9106 21.2555 19.7787C21.1796 19.6468 21.0778 19.5309 20.9558 19.4376C20.8339 19.3443 20.6943 19.2754 20.545 19.235C20.3957 19.1946 20.2397 19.1835 20.086 19.2022L14.0326 19.9192C13.7235 19.9561 13.4421 20.1112 13.2501 20.3505C13.058 20.5898 12.9712 20.8938 13.0085 21.1956L13.498 25.1644C13.5357 25.4664 13.6947 25.7414 13.94 25.929C14.1852 26.1165 14.4968 26.2013 14.806 26.1645L17.4318 25.8538L20.0684 27.6589C20.1162 27.6919 20.1727 27.7106 20.2312 27.7128C20.2896 27.715 20.3474 27.7006 20.3977 27.6714C20.4479 27.6421 20.4884 27.5993 20.5142 27.548C20.5401 27.4968 20.5501 27.4393 20.5432 27.3826L20.322 25.5125L20.8624 25.4484C21.1712 25.4118 21.4526 25.2571 21.6448 25.0181C21.8369 24.7792 21.9242 24.4756 21.8875 24.1739Z" fill="#CFCFCF"/>
<path d="M22.279 23.8191L21.7895 19.8512C21.7709 19.7016 21.7224 19.557 21.6466 19.4257C21.5708 19.2944 21.4693 19.179 21.3478 19.0861C21.2264 18.9931 21.0873 18.9244 20.9387 18.884C20.79 18.8435 20.6347 18.832 20.4815 18.8502L14.428 19.5673C14.2745 19.585 14.1262 19.6322 13.9914 19.706C13.8566 19.7799 13.7381 19.879 13.6426 19.9976C13.5471 20.1163 13.4765 20.2522 13.4349 20.3975C13.3933 20.5429 13.3814 20.6948 13.4 20.8446L13.8895 24.8134C13.9272 25.1154 14.0862 25.3904 14.3315 25.578C14.5768 25.7655 14.8883 25.8502 15.1975 25.8135L17.8263 25.5028L20.4629 27.3079C20.5106 27.3408 20.5672 27.3595 20.6256 27.3617C20.6841 27.3639 20.7419 27.3496 20.7922 27.3203C20.8424 27.2911 20.8829 27.2483 20.9087 27.197C20.9345 27.1458 20.9446 27.0883 20.9377 27.0316L20.7135 25.1605L21.2539 25.0964C21.4071 25.0783 21.5552 25.0309 21.6896 24.9569C21.8241 24.8829 21.9422 24.7837 22.0374 24.6651C22.1326 24.5465 22.203 24.4107 22.2444 24.2656C22.2859 24.1204 22.2976 23.9687 22.279 23.8191Z" fill="white"/>
<path d="M19.6728 20.7067C19.7758 20.788 19.8614 20.8883 19.9246 21.0018C19.9879 21.1154 20.0276 21.2401 20.0415 21.3686C20.0555 21.4972 20.0433 21.6272 20.0057 21.7512C19.9681 21.8752 19.9059 21.9907 19.8226 22.0912L19.3478 22.6648L18.2522 23.9891C18.2066 24.0441 18.1404 24.0792 18.0683 24.0867C17.9962 24.0943 17.924 24.0736 17.8674 24.0292L15.924 22.4947C15.717 22.3308 15.585 22.0935 15.5567 21.8347C15.5285 21.576 15.6063 21.3169 15.7733 21.114C15.8565 21.0135 15.9591 20.9299 16.0754 20.8681C16.1917 20.8063 16.3194 20.7675 16.451 20.7539C16.5827 20.7403 16.7158 20.7522 16.8428 20.7889C16.9697 20.8256 17.088 20.8864 17.1909 20.9677L17.4788 21.1943C17.516 21.2239 17.5589 21.2461 17.605 21.2594C17.6511 21.2727 17.6994 21.277 17.7472 21.2721C17.7949 21.2671 17.8412 21.2529 17.8834 21.2304C17.9255 21.2079 17.9627 21.1774 17.9928 21.1408L18.2385 20.8444C18.3214 20.7434 18.424 20.6594 18.5402 20.5972C18.6564 20.535 18.7841 20.4957 18.9159 20.4818C19.0477 20.4679 19.181 20.4794 19.3082 20.5159C19.4354 20.5524 19.554 20.613 19.6571 20.6943L19.6728 20.7067Z" fill="#CC3D3D"/>
<path d="M19.3404 22.6938L18.0438 24.2012L18.0446 24.2018L19.3412 22.6944L19.3404 22.6938Z" fill="#CC3D3D"/>
<path d="M18.0434 24.2007L18.0424 24.2016L16.4828 22.9214H16.4838L18.0434 24.2007Z" fill="#CC3D3D"/>
</svg>
