<svg width="16" height="16" viewBox="0 0 16 16" fill="none" xmlns="http://www.w3.org/2000/svg">
<path fill-rule="evenodd" clip-rule="evenodd" d="M3.55831 1.00782L3.51494 1.00782C3.12818 1.00776 2.76648 1.00771 2.47083 1.04746C2.14258 1.09159 1.78596 1.19672 1.49158 1.49109C1.1972 1.78547 1.09208 2.14209 1.04795 2.47034C1.0082 2.76599 1.00825 3.12769 1.0083 3.51445L1.00831 3.55782V4.81468L1.0083 4.85804C1.00825 5.2448 1.0082 5.60651 1.04795 5.90216C1.09208 6.23041 1.1972 6.58702 1.49158 6.8814C1.78596 7.17578 2.14258 7.28091 2.47083 7.32504C2.76648 7.36479 3.12818 7.36474 3.51495 7.36468L3.55831 7.36468H4.81519L4.85855 7.36468C5.24532 7.36474 5.60702 7.36479 5.90267 7.32504C6.23092 7.28091 6.58754 7.17578 6.88192 6.8814C7.1763 6.58702 7.28142 6.23041 7.32555 5.90216C7.3653 5.60651 7.36525 5.2448 7.36519 4.85804L7.36519 4.81468V3.55782L7.36519 3.51446C7.36525 3.1277 7.3653 2.76599 7.32555 2.47034C7.28142 2.14209 7.1763 1.78547 6.88192 1.49109C6.58754 1.19672 6.23092 1.09159 5.90267 1.04746C5.60702 1.00771 5.24532 1.00776 4.85856 1.00782L4.81519 1.00782H3.55831ZM2.5333 2.56569C2.53307 2.5656 2.53472 2.56452 2.53895 2.56273C2.53564 2.56489 2.53353 2.56578 2.5333 2.56569ZM2.6707 2.53408C2.6129 2.54185 2.57735 2.55025 2.55693 2.55644C2.55074 2.57686 2.54234 2.61241 2.53457 2.67021C2.5099 2.8537 2.50831 3.11235 2.50831 3.55782V4.81468C2.50831 5.26014 2.5099 5.51879 2.53457 5.70229C2.54234 5.76009 2.55074 5.79564 2.55693 5.81606C2.57735 5.82225 2.6129 5.83064 2.6707 5.83841C2.85419 5.86308 3.11284 5.86468 3.55831 5.86468H4.81519C5.26066 5.86468 5.51931 5.86308 5.7028 5.83841C5.7606 5.83064 5.79615 5.82225 5.81658 5.81606C5.82276 5.79564 5.83116 5.76009 5.83893 5.70229C5.8636 5.51879 5.86519 5.26014 5.86519 4.81468V3.55782C5.86519 3.11235 5.8636 2.8537 5.83893 2.67021C5.83116 2.61241 5.82276 2.57686 5.81657 2.55644C5.79615 2.55025 5.7606 2.54185 5.7028 2.53408C5.51931 2.50941 5.26066 2.50782 4.81519 2.50782H3.55831C3.11284 2.50782 2.85419 2.50941 2.6707 2.53408ZM2.5333 5.80681C2.53353 5.80672 2.53564 5.80761 2.53895 5.80976C2.53472 5.80797 2.53307 5.8069 2.5333 5.80681ZM2.56322 5.83404C2.56538 5.83735 2.56627 5.83946 2.56618 5.83969C2.56609 5.83992 2.56501 5.83826 2.56322 5.83404ZM5.80732 5.83969C5.80723 5.83946 5.80813 5.83734 5.81028 5.83404C5.80849 5.83826 5.80741 5.83992 5.80732 5.83969ZM5.8402 5.80681C5.83997 5.80672 5.83786 5.80761 5.83455 5.80976L5.83777 5.80831L5.83958 5.80734L5.84006 5.80702C5.84021 5.8069 5.84026 5.80683 5.8402 5.80681ZM5.8402 2.56569C5.83997 2.56578 5.83786 2.56489 5.83455 2.56273C5.83878 2.56452 5.84043 2.5656 5.8402 2.56569ZM5.81028 2.53846C5.80812 2.53515 5.80723 2.53304 5.80732 2.53281C5.80741 2.53258 5.80849 2.53423 5.81028 2.53846ZM2.56322 2.53846C2.56501 2.53423 2.56609 2.53258 2.56618 2.53281C2.56627 2.53304 2.56538 2.53515 2.56322 2.53846ZM3.55831 8.64002L3.51494 8.64001H3.51494H3.51493H3.51492C3.12817 8.63996 2.76647 8.63991 2.47083 8.67966C2.14258 8.72379 1.78596 8.82891 1.49158 9.12329C1.1972 9.41767 1.09208 9.77429 1.04795 10.1025C1.0082 10.3982 1.00825 10.7599 1.0083 11.1467L1.00831 11.19V12.4469L1.0083 12.4902C1.00825 12.877 1.0082 13.2387 1.04795 13.5344C1.09208 13.8626 1.1972 14.2192 1.49158 14.5136C1.78596 14.808 2.14258 14.9131 2.47083 14.9572C2.76648 14.997 3.12818 14.9969 3.51495 14.9969L3.55831 14.9969H4.81519L4.85855 14.9969C5.24532 14.9969 5.60702 14.997 5.90267 14.9572C6.23092 14.9131 6.58754 14.808 6.88192 14.5136C7.1763 14.2192 7.28142 13.8626 7.32555 13.5344C7.3653 13.2387 7.36525 12.877 7.36519 12.4902L7.36519 12.4469V11.19L7.36519 11.1467C7.36525 10.7599 7.3653 10.3982 7.32555 10.1025C7.28142 9.77429 7.1763 9.41767 6.88192 9.12329C6.58754 8.82891 6.23092 8.72379 5.90267 8.67966C5.60703 8.63991 5.24533 8.63996 4.85858 8.64001H4.85857H4.85856H4.85856L4.81519 8.64002H3.55831ZM2.5333 10.1979C2.53307 10.1978 2.53472 10.1967 2.53895 10.1949C2.53564 10.1971 2.53353 10.198 2.5333 10.1979ZM2.6707 10.1663C2.6129 10.1741 2.57735 10.1824 2.55693 10.1886C2.55074 10.2091 2.54234 10.2446 2.53457 10.3024C2.5099 10.4859 2.50831 10.7446 2.50831 11.19V12.4469C2.50831 12.8923 2.5099 13.151 2.53457 13.3345C2.54234 13.3923 2.55074 13.4278 2.55693 13.4483C2.57735 13.4544 2.6129 13.4628 2.6707 13.4706C2.85419 13.4953 3.11284 13.4969 3.55831 13.4969H4.81519C5.26066 13.4969 5.51931 13.4953 5.7028 13.4706C5.7606 13.4628 5.79615 13.4544 5.81658 13.4483C5.82276 13.4278 5.83116 13.3923 5.83893 13.3345C5.8636 13.151 5.86519 12.8923 5.86519 12.4469V11.19C5.86519 10.7446 5.8636 10.4859 5.83893 10.3024C5.83116 10.2446 5.82276 10.2091 5.81657 10.1886C5.79615 10.1824 5.7606 10.1741 5.7028 10.1663C5.51931 10.1416 5.26066 10.14 4.81519 10.14H3.55831C3.11284 10.14 2.85419 10.1416 2.6707 10.1663ZM2.5333 13.439C2.53353 13.4389 2.53564 13.4398 2.53895 13.442C2.53472 13.4402 2.53307 13.4391 2.5333 13.439ZM2.56322 13.4662C2.56538 13.4695 2.56627 13.4717 2.56618 13.4719C2.56609 13.4721 2.56501 13.4705 2.56322 13.4662ZM5.80732 13.4719C5.80723 13.4717 5.80813 13.4695 5.81028 13.4662C5.80849 13.4705 5.80741 13.4721 5.80732 13.4719ZM5.83455 13.442C5.83786 13.4398 5.83997 13.4389 5.8402 13.439C5.84043 13.4391 5.83878 13.4402 5.83455 13.442ZM5.8402 10.1979C5.83997 10.198 5.83786 10.1971 5.83455 10.1949C5.83878 10.1967 5.84043 10.1978 5.8402 10.1979ZM5.81028 10.1707C5.80812 10.1673 5.80723 10.1652 5.80732 10.165C5.80741 10.1648 5.80849 10.1664 5.81028 10.1707ZM2.56322 10.1707C2.56501 10.1664 2.56609 10.1648 2.56618 10.165C2.56627 10.1652 2.56538 10.1673 2.56322 10.1707ZM11.1472 1.00782L11.1906 1.00782H12.4475L12.4908 1.00782C12.8776 1.00776 13.2393 1.00771 13.5349 1.04746C13.8632 1.09159 14.2198 1.19672 14.5142 1.49109C14.8086 1.78547 14.9137 2.14209 14.9578 2.47034C14.9976 2.76599 14.9975 3.1277 14.9975 3.51446L14.9975 3.55782V4.81468L14.9975 4.85804C14.9975 5.2448 14.9976 5.60651 14.9578 5.90216C14.9137 6.23041 14.8086 6.58702 14.5142 6.8814C14.2198 7.17578 13.8632 7.28091 13.5349 7.32504C13.2393 7.36479 12.8776 7.36474 12.4908 7.36468L12.4475 7.36468H11.1906L11.1472 7.36468C10.7604 7.36474 10.3987 7.36479 10.1031 7.32504C9.77484 7.28091 9.41822 7.17578 9.12385 6.8814C8.82947 6.58702 8.72434 6.23041 8.68021 5.90216C8.64046 5.60651 8.64051 5.24481 8.64057 4.85806V4.85805V4.85804L8.64057 4.81468V3.55782L8.64057 3.51445V3.51445V3.51444C8.64051 3.12769 8.64046 2.76599 8.68021 2.47034C8.72434 2.14209 8.82947 1.78547 9.12385 1.49109C9.41822 1.19672 9.77484 1.09159 10.1031 1.04746C10.3987 1.00771 10.7604 1.00776 11.1472 1.00782ZM10.1656 2.56569C10.1653 2.5656 10.167 2.56452 10.1712 2.56273C10.1679 2.56489 10.1658 2.56578 10.1656 2.56569ZM10.1892 2.55644C10.2096 2.55025 10.2452 2.54185 10.303 2.53408C10.4865 2.50941 10.7451 2.50782 11.1906 2.50782H12.4475C12.8929 2.50782 13.1516 2.50941 13.3351 2.53408C13.3929 2.54185 13.4284 2.55025 13.4488 2.55644C13.455 2.57686 13.4634 2.61241 13.4712 2.67021C13.4959 2.8537 13.4975 3.11235 13.4975 3.55782V4.81468C13.4975 5.26014 13.4959 5.51879 13.4712 5.70229C13.4634 5.76009 13.455 5.79564 13.4488 5.81606C13.4284 5.82225 13.3929 5.83064 13.3351 5.83841C13.1516 5.86308 12.8929 5.86468 12.4475 5.86468H11.1906C10.7451 5.86468 10.4865 5.86308 10.303 5.83841C10.2452 5.83064 10.2096 5.82225 10.1892 5.81606C10.183 5.79564 10.1746 5.76009 10.1668 5.70229C10.1422 5.51879 10.1406 5.26014 10.1406 4.81468V3.55782C10.1406 3.11235 10.1422 2.8537 10.1668 2.67021C10.1746 2.61241 10.183 2.57686 10.1892 2.55644ZM10.1656 5.80681C10.1658 5.80672 10.1679 5.80761 10.1712 5.80976C10.167 5.80797 10.1653 5.8069 10.1656 5.80681ZM10.1955 5.83404C10.1976 5.83735 10.1985 5.83946 10.1984 5.83969C10.1983 5.83992 10.1973 5.83826 10.1955 5.83404ZM13.4396 5.83969C13.4395 5.83946 13.4404 5.83734 13.4425 5.83404C13.4408 5.83826 13.4397 5.83992 13.4396 5.83969ZM13.4668 5.80976C13.4701 5.80761 13.4722 5.80672 13.4725 5.80681C13.4727 5.8069 13.471 5.80797 13.4668 5.80976ZM13.4725 2.56569C13.4722 2.56578 13.4701 2.56489 13.4668 2.56273C13.471 2.56452 13.4727 2.5656 13.4725 2.56569ZM13.4425 2.53846C13.4404 2.53515 13.4395 2.53304 13.4396 2.53281C13.4397 2.53258 13.4408 2.53423 13.4425 2.53846ZM10.1955 2.53846C10.1973 2.53423 10.1983 2.53258 10.1984 2.53281C10.1985 2.53304 10.1976 2.53515 10.1955 2.53846ZM11.8191 8.64018C12.2333 8.64018 12.5691 8.97597 12.5691 9.39018L12.5691 11.0685L14.2476 11.0685C14.6618 11.0685 14.9976 11.4043 14.9976 11.8185C14.9976 12.2327 14.6618 12.5685 14.2476 12.5685L12.5691 12.5685L12.5691 14.2472C12.5691 14.6614 12.2333 14.9971 11.8191 14.9971C11.4049 14.9971 11.0691 14.6614 11.0691 14.2471L11.0691 12.5685L9.39063 12.5685C8.97642 12.5685 8.64063 12.2327 8.64063 11.8185C8.64064 11.4043 8.97642 11.0685 9.39064 11.0685L11.0691 11.0685L11.0691 9.39018C11.0691 8.97596 11.4049 8.64018 11.8191 8.64018Z" fill="#40BF95"/>
</svg>
