<svg width="20" height="20" viewBox="0 0 20 20" fill="none" xmlns="http://www.w3.org/2000/svg">
<g clip-path="url(#clip0_2670_59291)">
<path d="M17.1608 3.01973C16.917 2.76342 16.653 2.5271 16.3714 2.31305C15.6752 1.72903 14.8988 1.24799 14.0659 0.884659C13.9807 0.837046 13.8855 0.799457 13.8003 0.761868C12.5973 0.25464 11.3043 -0.00447357 9.99877 5.84379e-05C7.34897 0.0066747 4.80959 1.06224 2.93589 2.93593C1.06219 4.80963 0.00663402 7.34901 1.77611e-05 9.99881C-0.00350722 11.8547 0.517727 13.6738 1.50359 15.2463C1.75115 15.666 2.03813 16.0612 2.36062 16.4266L2.38819 16.4742C2.47339 16.5794 2.56862 16.6747 2.65382 16.7699L2.74153 16.8651C2.9395 17.0656 3.13998 17.2661 3.37052 17.4665C3.4457 17.5317 3.52088 17.5994 3.59856 17.657C5.38566 19.1739 7.65469 20.0046 9.99877 20.0001C11.9656 19.9997 13.8886 19.4195 15.5274 18.332C17.1662 17.2444 18.4479 15.6978 19.2122 13.8856C19.9766 12.0734 20.1897 10.076 19.8248 8.14335C19.4599 6.21068 18.5333 4.4285 17.1608 3.01973ZM9.99877 19.0453C7.82764 19.05 5.72902 18.2644 4.09474 16.835C4.05922 16.8142 4.02711 16.788 3.99952 16.7574C3.79904 16.5769 3.60107 16.3965 3.42816 16.206L3.34296 16.1208C3.2753 16.0432 3.20012 15.968 3.14248 15.8928L3.08484 15.8151C2.79226 15.4826 2.53135 15.1236 2.30549 14.7426C1.41789 13.3198 0.948921 11.6758 0.952279 9.99881C0.954933 7.60034 1.90889 5.30088 3.60486 3.6049C5.30083 1.90893 7.6003 0.954973 9.99877 0.95232C11.1764 0.94428 12.3432 1.17798 13.4269 1.63895L13.5522 1.69408C14.3624 2.03203 15.1162 2.49175 15.7875 3.05732C16.038 3.24485 16.2704 3.45544 16.4817 3.68631C18.1337 5.37105 19.0549 7.63924 19.0453 9.99881C19.0426 12.3973 18.0886 14.6967 16.3927 16.3927C14.6967 18.0887 12.3972 19.0426 9.99877 19.0453Z" fill="#33CC4C"/>
<path d="M17.8976 9.99853C17.8965 11.5196 17.4562 13.008 16.6294 14.2848C15.8027 15.5616 14.6247 16.5724 13.2373 17.1957C11.8498 17.8191 10.3118 18.0284 8.80815 17.7985C7.30454 17.5687 5.89932 16.9094 4.76142 15.9C4.58851 15.7422 4.42312 15.5843 4.26023 15.4189C4.17252 15.3237 4.07729 15.2284 4.00963 15.1257C4.00113 15.1106 3.99011 15.097 3.97706 15.0856C3.7235 14.7929 3.49625 14.4785 3.29794 14.1459C2.51674 12.9035 2.10158 11.4661 2.1001 9.99853C2.10076 7.90385 2.93316 5.89516 4.41432 4.414C5.89549 2.93283 7.90418 2.10043 9.99886 2.09977C11.0318 2.09307 12.0551 2.29774 13.006 2.7012C13.7419 3.00112 14.4267 3.41368 15.0358 3.9241C15.2579 4.09494 15.4665 4.28261 15.6598 4.48543C17.0999 5.95851 17.9036 7.93846 17.8976 9.99853Z" fill="#33CC4C"/>
<path d="M12.9935 2.70113L4.76142 15.9C4.58851 15.7421 4.42312 15.5842 4.26023 15.4188C4.17252 15.3236 4.07729 15.2284 4.00963 15.1256C4.00113 15.1105 3.99011 15.097 3.97706 15.0855C3.7235 14.7929 3.49625 14.4784 3.29794 14.1458C2.51674 12.9034 2.10158 11.466 2.1001 9.99846C2.10076 7.90378 2.93316 5.89509 4.41432 4.41393C5.89549 2.93276 7.90418 2.10036 9.99886 2.0997C11.0275 2.0947 12.0465 2.29934 12.9935 2.70113Z" fill="#3AE657"/>
<path d="M14.0659 0.88477L13.5522 1.69419L13.4269 1.63906C12.3432 1.17809 11.1764 0.94439 9.99877 0.952431C7.6003 0.955084 5.30083 1.90904 3.60486 3.60502C1.90889 5.30099 0.954933 7.60045 0.952279 9.99892C0.948921 11.6759 1.41789 13.3199 2.30549 14.7427C2.53122 15.1245 2.79214 15.4844 3.08484 15.8177L3.14248 15.8954C3.20012 15.9706 3.2753 16.0458 3.34296 16.1235L3.42816 16.2087C3.60107 16.3991 3.79904 16.5795 3.99952 16.76C4.02711 16.7906 4.05922 16.8168 4.09474 16.8377L3.59355 17.6571C3.51587 17.5995 3.44069 17.5318 3.36551 17.4667C3.13496 17.2662 2.93449 17.0657 2.73652 16.8652L2.64881 16.77C2.56361 16.6748 2.46838 16.5795 2.38318 16.4743L2.35561 16.4267C2.03485 16.0611 1.74956 15.6659 1.50359 15.2464C0.517727 13.6739 -0.00350722 11.8548 1.77611e-05 9.99892C0.00663402 7.34912 1.06219 4.80974 2.93589 2.93604C4.80959 1.06235 7.34897 0.00678533 9.99877 0.000169075C11.3036 -0.00753568 12.5966 0.248163 13.8003 0.751955C13.8855 0.799568 13.9807 0.837157 14.0659 0.88477Z" fill="#3AE657"/>
<path d="M8.65805 14.0531L5.20234 10.9232C4.97003 10.7118 4.83091 10.417 4.81541 10.1032C4.79992 9.78953 4.9093 9.48245 5.11964 9.24918C5.33069 9.01628 5.62559 8.87673 5.93951 8.86122C6.25343 8.84572 6.56065 8.95552 6.79362 9.16649L9.07404 11.2339C9.13083 11.2853 9.19776 11.3243 9.27053 11.3483C9.34329 11.3723 9.42028 11.3808 9.49652 11.3732C9.57277 11.3657 9.64659 11.3422 9.71323 11.3044C9.77988 11.2666 9.83786 11.2153 9.88346 11.1537L13.0886 6.85349C13.1807 6.72808 13.2967 6.62209 13.4299 6.5416C13.5631 6.4611 13.7109 6.40768 13.8648 6.3844C14.0187 6.36112 14.1756 6.36844 14.3267 6.40593C14.4777 6.44343 14.6199 6.51036 14.745 6.6029C14.8705 6.69529 14.9765 6.81151 15.0571 6.94492C15.1376 7.07834 15.191 7.22632 15.2143 7.38041C15.2376 7.53449 15.2302 7.69165 15.1927 7.8429C15.1552 7.99415 15.0882 8.13651 14.9956 8.26184L10.8357 13.8426C10.7125 14.0076 10.5561 14.1451 10.3766 14.2461C10.1971 14.3472 9.99846 14.4096 9.79344 14.4294C9.58841 14.4493 9.38151 14.426 9.18599 14.3612C8.99046 14.2964 8.81064 14.1915 8.65805 14.0531Z" fill="white"/>
</g>
<defs>
<clipPath id="clip0_2670_59291">
<rect width="20" height="20" fill="white"/>
</clipPath>
</defs>
</svg>
