<svg width="21" height="20" viewBox="0 0 21 20" fill="none" xmlns="http://www.w3.org/2000/svg">
<g clip-path="url(#clip0_2670_59298)">
<path d="M18.0358 3.01973C17.792 2.76342 17.528 2.5271 17.2464 2.31305C16.5502 1.72903 15.7738 1.24799 14.9409 0.884659C14.8557 0.837046 14.7605 0.799457 14.6753 0.761868C13.4723 0.25464 12.1793 -0.00447357 10.8738 5.84379e-05C8.22397 0.0066747 5.68459 1.06224 3.81089 2.93593C1.93719 4.80963 0.881634 7.34901 0.875018 9.99881C0.871493 11.8547 1.39273 13.6738 2.37859 15.2463C2.62615 15.666 2.91313 16.0612 3.23562 16.4266L3.26319 16.4742C3.34839 16.5794 3.44362 16.6747 3.52882 16.7699L3.61653 16.8651C3.8145 17.0656 4.01498 17.2661 4.24552 17.4665C4.3207 17.5317 4.39588 17.5994 4.47356 17.657C6.26066 19.1739 8.52969 20.0046 10.8738 20.0001C12.8406 19.9997 14.7636 19.4195 16.4024 18.332C18.0412 17.2444 19.3229 15.6978 20.0872 13.8856C20.8516 12.0734 21.0647 10.076 20.6998 8.14335C20.3349 6.21068 19.4083 4.4285 18.0358 3.01973ZM10.8738 19.0453C8.70264 19.05 6.60402 18.2644 4.96974 16.835C4.93422 16.8142 4.90211 16.788 4.87452 16.7574C4.67404 16.5769 4.47607 16.3965 4.30316 16.206L4.21796 16.1208C4.1503 16.0432 4.07512 15.968 4.01748 15.8928L3.95984 15.8151C3.66726 15.4826 3.40635 15.1236 3.18049 14.7426C2.29289 13.3198 1.82392 11.6758 1.82728 9.99881C1.82993 7.60034 2.78389 5.30088 4.47986 3.6049C6.17583 1.90893 8.4753 0.954973 10.8738 0.95232C12.0514 0.94428 13.2182 1.17798 14.3019 1.63895L14.4272 1.69408C15.2374 2.03203 15.9912 2.49175 16.6625 3.05732C16.913 3.24485 17.1454 3.45544 17.3567 3.68631C19.0087 5.37105 19.9299 7.63924 19.9203 9.99881C19.9176 12.3973 18.9636 14.6967 17.2677 16.3927C15.5717 18.0887 13.2722 19.0426 10.8738 19.0453Z" fill="#E65555"/>
<path d="M18.7726 9.99853C18.7715 11.5196 18.3312 13.008 17.5044 14.2848C16.6777 15.5616 15.4997 16.5724 14.1123 17.1957C12.7248 17.8191 11.1868 18.0284 9.68315 17.7985C8.17954 17.5687 6.77432 16.9094 5.63642 15.9C5.46351 15.7422 5.29812 15.5843 5.13523 15.4189C5.04752 15.3237 4.95229 15.2284 4.88463 15.1257C4.87613 15.1106 4.86511 15.097 4.85206 15.0856C4.5985 14.7929 4.37125 14.4785 4.17294 14.1459C3.39174 12.9035 2.97658 11.4661 2.9751 9.99853C2.97576 7.90385 3.80816 5.89516 5.28932 4.414C6.77049 2.93283 8.77918 2.10043 10.8739 2.09977C11.9068 2.09307 12.9301 2.29774 13.881 2.7012C14.6169 3.00112 15.3017 3.41368 15.9108 3.9241C16.1329 4.09494 16.3415 4.28261 16.5348 4.48543C17.9749 5.95851 18.7786 7.93846 18.7726 9.99853Z" fill="#E65555"/>
<path d="M13.8685 2.70113L5.63642 15.9C5.46351 15.7421 5.29812 15.5842 5.13523 15.4188C5.04752 15.3236 4.95229 15.2284 4.88463 15.1256C4.87613 15.1105 4.86511 15.097 4.85206 15.0855C4.5985 14.7929 4.37125 14.4784 4.17294 14.1458C3.39174 12.9034 2.97658 11.466 2.9751 9.99846C2.97576 7.90378 3.80816 5.89509 5.28932 4.41393C6.77049 2.93276 8.77918 2.10036 10.8739 2.0997C11.9025 2.0947 12.9215 2.29934 13.8685 2.70113Z" fill="#F26868"/>
<path d="M14.9409 0.88477L14.4272 1.69419L14.3019 1.63906C13.2182 1.17809 12.0514 0.94439 10.8738 0.952431C8.4753 0.955084 6.17583 1.90904 4.47986 3.60502C2.78389 5.30099 1.82993 7.60045 1.82728 9.99892C1.82392 11.6759 2.29289 13.3199 3.18049 14.7427C3.40622 15.1245 3.66714 15.4844 3.95984 15.8177L4.01748 15.8954C4.07512 15.9706 4.1503 16.0458 4.21796 16.1235L4.30316 16.2087C4.47607 16.3991 4.67404 16.5795 4.87452 16.76C4.90211 16.7906 4.93422 16.8168 4.96974 16.8377L4.46855 17.6571C4.39087 17.5995 4.31569 17.5318 4.24051 17.4667C4.00996 17.2662 3.80949 17.0657 3.61152 16.8652L3.52381 16.77C3.43861 16.6748 3.34338 16.5795 3.25818 16.4743L3.23061 16.4267C2.90985 16.0611 2.62456 15.6659 2.37859 15.2464C1.39273 13.6739 0.871493 11.8548 0.875018 9.99892C0.881634 7.34912 1.93719 4.80974 3.81089 2.93604C5.68459 1.06235 8.22397 0.00678533 10.8738 0.000169075C12.1786 -0.00753568 13.4716 0.248163 14.6753 0.751955C14.7605 0.799568 14.8557 0.837157 14.9409 0.88477Z" fill="#F26868"/>
<path d="M12.9661 10.3977C12.9136 10.3457 12.8719 10.2839 12.8435 10.2157C12.8151 10.1475 12.8004 10.0744 12.8004 10.0005C12.8004 9.92663 12.8151 9.85349 12.8435 9.78531C12.8719 9.71714 12.9136 9.65528 12.9661 9.60331L15.0987 7.46824C15.309 7.24084 15.4231 6.9408 15.4169 6.6311C15.4108 6.32139 15.2849 6.02612 15.0657 5.80725C14.8465 5.58837 14.5511 5.46292 14.2413 5.45723C13.9316 5.45154 13.6318 5.56605 13.4047 5.77672L11.2721 7.90929C11.1665 8.01411 11.0237 8.07294 10.8749 8.07294C10.7261 8.07294 10.5833 8.01411 10.4777 7.90929L8.34516 5.77672C8.11807 5.56605 7.8182 5.45154 7.50849 5.45723C7.19878 5.46292 6.90332 5.58837 6.68412 5.80725C6.46492 6.02612 6.33904 6.32139 6.33289 6.6311C6.32674 6.9408 6.4408 7.24084 6.65114 7.46824L8.7837 9.60331C8.88853 9.70893 8.94735 9.8517 8.94735 10.0005C8.94735 10.1493 8.88853 10.2921 8.7837 10.3977L6.65114 12.5303C6.4265 12.7549 6.30029 13.0596 6.30029 13.3773C6.30029 13.695 6.4265 13.9996 6.65114 14.2243C6.87578 14.4489 7.18046 14.5751 7.49815 14.5751C7.81584 14.5751 8.12052 14.4489 8.34516 14.2243L10.4777 12.0917C10.5297 12.0392 10.5915 11.9975 10.6597 11.9691C10.7279 11.9406 10.801 11.926 10.8749 11.926C10.9488 11.926 11.0219 11.9406 11.0901 11.9691C11.1583 11.9975 11.2201 12.0392 11.2721 12.0917L13.4047 14.2243C13.6293 14.4489 13.934 14.5751 14.2517 14.5751C14.5694 14.5751 14.8741 14.4489 15.0987 14.2243C15.3233 13.9996 15.4495 13.695 15.4495 13.3773C15.4495 13.0596 15.3233 12.7549 15.0987 12.5303L12.9661 10.3977Z" fill="white"/>
</g>
<defs>
<clipPath id="clip0_2670_59298">
<rect width="20" height="20" fill="white" transform="translate(0.875)"/>
</clipPath>
</defs>
</svg>
