<svg width="25" height="24" viewBox="0 0 25 24" fill="none" xmlns="http://www.w3.org/2000/svg">
<path fill-rule="evenodd" clip-rule="evenodd" d="M5.1038 20.7752C5.60602 19.627 6.48172 18.6403 7.60752 17.9204C8.9055 17.0905 10.4786 16.65 12.0833 16.65C13.6879 16.65 15.261 17.0905 16.559 17.9204C17.6848 18.6403 18.5605 19.627 19.0627 20.7752C19.3175 20.6697 19.5226 20.5483 19.7009 20.4114C19.9991 20.1827 20.2659 19.9158 20.4947 19.6177C20.8497 19.155 21.1011 18.5122 21.239 17.2891C21.3807 16.0317 21.3833 14.3851 21.3833 12C21.3833 9.61489 21.3807 7.96834 21.239 6.71092C21.1011 5.48776 20.8497 4.84498 20.4947 4.38233C20.2659 4.0842 19.9991 3.81734 19.7009 3.58858C19.2383 3.23357 18.5955 2.98218 17.3723 2.84428C16.1149 2.70253 14.4684 2.7 12.0833 2.7C9.69814 2.7 8.05159 2.70253 6.79417 2.84428C5.57101 2.98218 4.92824 3.23357 4.46558 3.58858C4.16745 3.81734 3.90059 4.0842 3.67183 4.38233C3.31682 4.84498 3.06543 5.48776 2.92754 6.71092C2.78578 7.96834 2.78325 9.61489 2.78325 12C2.78325 14.3851 2.78578 16.0317 2.92754 17.2891C3.06543 18.5122 3.31682 19.155 3.67183 19.6177C3.90059 19.9158 4.16745 20.1827 4.46558 20.4114C4.64392 20.5483 4.84902 20.6697 5.1038 20.7752ZM6.80703 21.1572C8.06281 21.2975 9.70626 21.3 12.0833 21.3C14.4602 21.3 16.1037 21.2975 17.3595 21.1572C16.9882 20.4652 16.4063 19.8407 15.6432 19.3527C14.6358 18.7085 13.3844 18.35 12.0833 18.35C10.7821 18.35 9.53066 18.7085 8.52334 19.3527C7.76018 19.8407 7.17827 20.4652 6.80703 21.1572ZM1.08325 12C1.08325 7.30885 1.08325 4.96327 2.32313 3.34743C2.64233 2.93144 3.01469 2.55908 3.43068 2.23988C5.04653 1 7.3921 1 12.0833 1C16.7744 1 19.12 1 20.7358 2.23988C21.1518 2.55908 21.5242 2.93144 21.8434 3.34743C23.0833 4.96327 23.0833 7.30885 23.0833 12C23.0833 16.6912 23.0833 19.0367 21.8434 20.6526C21.5242 21.0686 21.1518 21.4409 20.7358 21.7601C19.12 23 16.7744 23 12.0833 23C7.3921 23 5.04653 23 3.43068 21.7601C3.01469 21.4409 2.64233 21.0686 2.32313 20.6526C1.08325 19.0367 1.08325 16.6912 1.08325 12ZM12.0833 7.35C10.7302 7.35 9.63325 8.4469 9.63325 9.8C9.63325 11.1531 10.7302 12.25 12.0833 12.25C13.4363 12.25 14.5333 11.1531 14.5333 9.8C14.5333 8.4469 13.4363 7.35 12.0833 7.35ZM7.93325 9.8C7.93325 7.50802 9.79127 5.65 12.0833 5.65C14.3752 5.65 16.2333 7.50802 16.2333 9.8C16.2333 12.092 14.3752 13.95 12.0833 13.95C9.79127 13.95 7.93325 12.092 7.93325 9.8Z" fill="#B9BBC6"/>
</svg>
