<svg width="24" height="24" viewBox="0 0 24 24" fill="none" xmlns="http://www.w3.org/2000/svg">
<path d="M4.02798 7.31224C3.49931 7.31224 2.9923 7.53434 2.61848 7.92969C2.24466 8.32503 2.03465 8.86123 2.03465 9.42033V19.8919C2.03465 20.451 2.24466 20.9872 2.61848 21.3826C2.9923 21.7779 3.49931 22 4.02798 22H20.0067C20.5353 22 21.0423 21.7779 21.4162 21.3826C21.79 20.9872 22 20.451 22 19.8919V9.42033C22 9.14349 21.9484 8.86937 21.8483 8.6136C21.7481 8.35784 21.6013 8.12544 21.4162 7.92969C21.2311 7.73393 21.0113 7.57865 20.7695 7.47271C20.5276 7.36677 20.2684 7.31224 20.0067 7.31224H4.02798Z" fill="#DDE8C9" fill-opacity="0.2" stroke="#A1BF69" stroke-width="1.7" stroke-linecap="round" stroke-linejoin="round"/>
<path d="M4.34533 4.64044H19.7048" stroke="#A1BF69" stroke-width="1.7" stroke-linecap="round" stroke-linejoin="round"/>
<path d="M6.48042 2H17.5692" stroke="#A1BF69" stroke-width="1.7" stroke-linecap="round" stroke-linejoin="round"/>
<path d="M2 17.5506L4.85636 14.5298C6.04 13.278 8.03236 13.278 9.216 14.5298L16.279 21.9994" stroke="#A1BF69" stroke-width="1.7" stroke-linecap="round" stroke-linejoin="round"/>
<path d="M12.177 17.6641L13.2717 16.5064C14.4554 15.2546 16.4477 15.2546 17.6314 16.5064L21.6974 20.8065" stroke="#A1BF69" stroke-width="1.7" stroke-linecap="round" stroke-linejoin="round"/>
</svg>
