<svg width="24" height="24" viewBox="0 0 24 24" fill="none" xmlns="http://www.w3.org/2000/svg">
<path fill-rule="evenodd" clip-rule="evenodd" d="M6.94982 1.99999C6.48038 1.99999 6.09982 2.38055 6.09982 2.84999C6.09982 3.31943 6.48038 3.69999 6.94982 3.69999H17.0967C17.5661 3.69999 17.9467 3.31943 17.9467 2.84999C17.9467 2.38055 17.5661 1.99999 17.0967 1.99999H6.94982ZM4.1461 5.26614C4.1461 4.7967 4.52666 4.41614 4.9961 4.41614H19.0508C19.5203 4.41614 19.9008 4.7967 19.9008 5.26614C19.9008 5.73559 19.5203 6.11614 19.0508 6.11614H4.9961C4.52666 6.11614 4.1461 5.73559 4.1461 5.26614ZM2.79833 7.69198C3.29566 7.16602 3.98068 6.86098 4.70571 6.86098H19.3271C19.6851 6.86098 20.0383 6.93561 20.3662 7.07924C20.6939 7.22281 20.9885 7.43186 21.2345 7.69198C21.4803 7.952 21.673 8.25815 21.8037 8.59181C21.9344 8.92541 22.0011 9.28145 22.0011 9.64V19.2221C22.0011 19.9442 21.7303 20.6457 21.2345 21.1701C20.7371 21.696 20.0521 22.0011 19.3271 22.0011H4.70571C3.98068 22.0011 3.29566 21.696 2.79833 21.1701C2.30252 20.6457 2.0317 19.9442 2.0317 19.2221V17.3101C1.98952 17.1597 1.98935 16.9998 2.0317 16.849V9.64C2.0317 8.91783 2.30252 8.21633 2.79833 7.69198ZM3.7317 19.2221V17.3843L5.89618 15.0952C6.74446 14.1981 8.17231 14.1981 9.02059 15.0952L11.5072 17.725C11.5291 17.7515 11.5529 17.7769 11.5785 17.8011C11.5805 17.803 11.5824 17.8048 11.5844 17.8066L13.943 20.3011H4.70571C4.46323 20.3011 4.22036 20.1997 4.03356 20.0021C3.84523 19.8029 3.7317 19.5231 3.7317 19.2221ZM13.3336 17.1822L16.2827 20.3011H19.3271C19.4913 20.3011 19.6558 20.2545 19.8028 20.1631L16.7211 16.904C15.8728 16.0068 14.445 16.0068 13.5967 16.904L13.3336 17.1822ZM20.3011 18.2157V9.64C20.3011 9.4919 20.2735 9.34626 20.2208 9.21178C20.1681 9.07736 20.0921 8.9582 19.9992 8.85997C19.9065 8.76184 19.7989 8.6867 19.684 8.63639C19.5693 8.58613 19.4482 8.56098 19.3271 8.56098H4.70571C4.46323 8.56098 4.22036 8.66241 4.03356 8.85997C3.84523 9.05914 3.7317 9.33895 3.7317 9.64V14.91L4.66094 13.9273C6.17995 12.3208 8.73681 12.3208 10.2558 13.9272L12.1638 15.945L12.3615 15.736C13.8805 14.1295 16.4373 14.1295 17.9563 15.736L20.3011 18.2157Z" fill="#9DA0AF"/>
</svg>
