<svg width="25" height="24" viewBox="0 0 25 24" fill="none" xmlns="http://www.w3.org/2000/svg">
<g clip-path="url(#clip0_5094_46328)">
<path d="M21.7774 3.8436C21.2313 3.25911 20.583 2.79547 19.8696 2.47914C19.1561 2.16281 18.3913 2 17.6191 2C16.8468 2 16.082 2.16281 15.3686 2.47914C14.6551 2.79547 14.0068 3.25911 13.4607 3.8436L12.5 4.8718L11.5393 3.8436C10.9932 3.25911 10.3449 2.79547 9.63145 2.47914C8.91796 2.16281 8.15323 2 7.38095 2C6.60866 2 5.84393 2.16281 5.13044 2.47914C4.41695 2.79547 3.76868 3.25911 3.22263 3.8436C2.67649 4.42799 2.24327 5.12179 1.9477 5.88538C1.65213 6.64898 1.5 7.4674 1.5 8.29392C1.5 9.12044 1.65213 9.93887 1.9477 10.7025C2.24327 11.4661 2.67649 12.1599 3.22263 12.7442L4.18337 13.7725L11.4293 21.5284C11.7141 21.8305 12.099 22 12.5 22C12.901 22 13.2859 21.8305 13.5707 21.5284L20.8166 13.7725L21.7774 12.7442C22.3235 12.1599 22.7567 11.4661 23.0523 10.7025C23.3479 9.93887 23.5 9.12044 23.5 8.29392C23.5 7.4674 23.3479 6.64898 23.0523 5.88538C22.7567 5.12179 22.3235 4.42799 21.7774 3.8436Z" fill="#E8B0B2" fill-opacity="0.2" stroke="#DD888C" stroke-width="1.7" stroke-miterlimit="10"/>
</g>
<defs>
<clipPath id="clip0_5094_46328">
<rect width="24" height="24" fill="white" transform="translate(0.5)"/>
</clipPath>
</defs>
</svg>
