<svg width="24" height="24" viewBox="0 0 24 24" fill="none" xmlns="http://www.w3.org/2000/svg">
<path d="M20.434 4.65924C19.9376 4.1332 19.3482 3.71592 18.6996 3.43123C18.051 3.14653 17.3558 3 16.6537 3C15.9516 3 15.2564 3.14653 14.6078 3.43123C13.9591 3.71592 13.3698 4.1332 12.8734 4.65924L12 5.58462L11.1266 4.65924C10.6302 4.1332 10.0409 3.71592 9.39223 3.43123C8.7436 3.14653 8.0484 3 7.34631 3C6.64423 3 5.94903 3.14653 5.3004 3.43123C4.65178 3.71592 4.06243 4.1332 3.56603 4.65924V4.65924C3.06954 5.18519 2.6757 5.80961 2.407 6.49684C2.1383 7.18408 2 7.92066 2 8.66453C2 9.4084 2.1383 10.145 2.407 10.8322C2.6757 11.5194 3.06954 12.1439 3.56603 12.6698L4.43942 13.5952L11.0266 20.5756C11.2856 20.8475 11.6354 21 12 21C12.3646 21 12.7144 20.8475 12.9734 20.5756L19.5606 13.5952L20.434 12.6698C20.9305 12.1439 21.3243 11.5194 21.593 10.8322C21.8617 10.145 22 9.4084 22 8.66453C22 7.92066 21.8617 7.18408 21.593 6.49684C21.3243 5.80961 20.9305 5.18519 20.434 4.65924V4.65924Z" stroke="#9DA0AF" stroke-width="1.7" stroke-miterlimit="10"/>
</svg>
