<svg width="24" height="24" viewBox="0 0 24 24" fill="none" xmlns="http://www.w3.org/2000/svg">
<path fill-rule="evenodd" clip-rule="evenodd" d="M9.17698 5.99156C9.4624 3.9697 10.8037 2.7 12.1019 2.7C13.4013 2.7 14.7458 3.97123 15.0279 5.99156H9.17698ZM7.46577 5.99156C7.76513 3.33289 9.57351 1 12.1019 1C14.6288 1 16.4428 3.33105 16.7388 5.99156H18.1584C18.9254 5.99156 19.6522 6.31179 20.1814 6.86727C20.7093 7.42136 20.9991 8.16445 20.9991 8.93114V15.9628C20.9991 17.8162 20.2981 19.6014 19.0381 20.9239C17.7768 22.2478 16.0571 22.9998 14.2548 22.9998H9.74433C8.85268 22.9998 7.97081 22.8153 7.14948 22.4582C6.32826 22.1011 5.58485 21.5789 4.96058 20.9235C4.33638 20.2682 3.84333 19.4925 3.50768 18.6416C3.17207 17.7908 2.99987 16.8803 3 15.9617L3 15.9616L3 8.93114C3 8.55067 3.07135 8.17305 3.21087 7.81948C3.35042 7.46586 3.55596 7.14197 3.81766 6.86727C4.34687 6.31179 5.07368 5.99156 5.84075 5.99156H7.46577ZM5.0485 8.03989C5.26596 7.81164 5.55186 7.69156 5.84075 7.69156H18.1584C18.4472 7.69156 18.7331 7.81164 18.9506 8.03989C19.1694 8.26955 19.2991 8.58945 19.2991 8.93114V15.9628C19.2991 17.3912 18.7581 18.7533 17.8073 19.7513C16.8577 20.748 15.579 21.2998 14.2548 21.2998H9.74433C9.0877 21.2998 8.43645 21.164 7.82738 20.8992C7.2182 20.6343 6.66195 20.2449 6.19152 19.751C5.72101 19.257 5.34575 18.6684 5.08909 18.0178C4.8324 17.3671 4.69988 16.6683 4.7 15.9618V15.9617V8.93114C4.7 8.76279 4.73164 8.59698 4.7922 8.44351C4.85274 8.29008 4.94048 8.15327 5.0485 8.03989ZM5.61354 10.8087C5.61354 10.3392 5.9941 9.95867 6.46354 9.95867H17.5859C18.0553 9.95867 18.4359 10.3392 18.4359 10.8087C18.4359 11.2781 18.0553 11.6587 17.5859 11.6587H6.46354C5.9941 11.6587 5.61354 11.2781 5.61354 10.8087ZM6.46354 13.15C5.9941 13.15 5.61354 13.5306 5.61354 14C5.61354 14.4694 5.9941 14.85 6.46354 14.85H17.5859C18.0553 14.85 18.4359 14.4694 18.4359 14C18.4359 13.5306 18.0553 13.15 17.5859 13.15H6.46354Z" fill="#9DA0AF"/>
</svg>
