<svg width="24" height="24" viewBox="0 0 24 24" fill="none" xmlns="http://www.w3.org/2000/svg">
<path d="M5.19849 6H18.8015C19.3846 6 19.9438 6.24448 20.3561 6.67966C20.7684 7.11485 21 7.70508 21 8.32052V16.1293C21 17.9515 20.3142 19.6991 19.0934 20.9876C17.8727 22.2761 16.217 23 14.4906 23H9.50943C8.65451 23 7.80795 22.8222 7.01812 22.4769C6.22829 22.1315 5.51064 21.6253 4.90617 20.9872C4.3017 20.3491 3.82224 19.5915 3.49518 18.7578C3.16811 17.924 2.99985 17.0304 3 16.1281V8.32052C3 8.01578 3.05687 7.71403 3.16735 7.43249C3.27783 7.15096 3.43977 6.89514 3.64392 6.67966C4.05622 6.24448 4.61541 6 5.19849 6Z" fill="#E9B362" fill-opacity="0.2" stroke="#F08975" stroke-width="1.7" stroke-miterlimit="10"/>
<path d="M8 6C8.08894 3.21982 9.84302 1 12 1C14.157 1 15.9164 3.21982 16 6" stroke="#F08975" stroke-width="1.7" stroke-miterlimit="10"/>
<path d="M6 11H18" stroke="#F08975" stroke-width="1.7" stroke-miterlimit="10" stroke-linecap="round"/>
<path d="M6 14H18" stroke="#F08975" stroke-width="1.7" stroke-miterlimit="10" stroke-linecap="round"/>
</svg>
