<svg width="24" height="24" viewBox="0 0 24 24" fill="none" xmlns="http://www.w3.org/2000/svg">
<path d="M19.1477 19.6683C19.1477 21.1364 17.9274 22.2397 16.6169 21.955L13.6877 21.3262C12.5673 21.0861 11.4114 21.0861 10.2909 21.3262L7.35848 21.955C6.04685 22.2363 4.82766 21.133 4.82766 19.6683C4.82151 18.5662 5.03924 17.4751 5.46662 16.4664C5.894 15.4577 6.52142 14.554 7.30787 13.8144V13.8144C8.58926 12.6092 10.256 11.9418 11.9844 11.9418C13.7128 11.9418 15.3795 12.6092 16.6609 13.8144V13.8144C17.4487 14.5533 18.0774 15.4567 18.5059 16.4654C18.9345 17.4742 19.1532 18.5657 19.1477 19.6683V19.6683Z" stroke="#9DA0AF" stroke-width="1.7" stroke-miterlimit="10"/>
<path d="M8.62488 9.77053C9.95654 9.68977 10.9407 7.9272 10.8232 5.8337C10.7056 3.7402 9.53073 2.10855 8.19907 2.1893C6.86741 2.27006 5.88321 4.03263 6.00079 6.12613C6.11837 8.21963 7.29322 9.85128 8.62488 9.77053Z" stroke="#9DA0AF" stroke-width="1.7" stroke-miterlimit="10"/>
<path d="M4.29881 13.4667C5.24353 13.1489 5.65384 11.7502 5.21526 10.3426C4.77667 8.93507 3.65529 8.05165 2.71057 8.36947C1.76585 8.68728 1.35554 10.086 1.79412 11.4935C2.2327 12.9011 3.35409 13.7845 4.29881 13.4667Z" stroke="#9DA0AF" stroke-width="1.7" stroke-miterlimit="10"/>
<path d="M22.2008 11.5434C22.6422 10.1379 22.2353 8.73922 21.2919 8.41937C20.3486 8.09951 19.226 8.97962 18.7846 10.3851C18.3432 11.7907 18.7501 13.1894 19.6935 13.5092C20.6368 13.8291 21.7594 12.949 22.2008 11.5434Z" stroke="#9DA0AF" stroke-width="1.7" stroke-miterlimit="10"/>
<path d="M17.7457 6.1462C17.8897 4.05385 16.9288 2.2776 15.5995 2.17884C14.2701 2.08007 13.0758 3.69619 12.9318 5.78853C12.7878 7.88088 13.7487 9.65713 15.078 9.7559C16.4073 9.85467 17.6017 8.23855 17.7457 6.1462Z" stroke="#9DA0AF" stroke-width="1.7" stroke-miterlimit="10"/>
</svg>
