<svg width="26" height="24" viewBox="0 0 26 24" fill="none" xmlns="http://www.w3.org/2000/svg">
<path d="M20.7975 20.4352C20.7975 22.05 19.4663 23.2637 18.0366 22.9505L14.8412 22.2588C13.6188 21.9947 12.3579 21.9947 11.1356 22.2588L7.93651 22.9505C6.50565 23.2599 5.17561 22.0463 5.17561 20.4352C5.16891 19.2228 5.40643 18.0226 5.87267 16.913C6.3389 15.8034 7.02335 14.8094 7.8813 13.9958V13.9958C9.27919 12.6701 11.0974 11.9359 12.983 11.9359C14.8685 11.9359 16.6867 12.6701 18.0846 13.9958V13.9958C18.944 14.8086 19.6299 15.8023 20.0974 16.912C20.5649 18.0216 20.8035 19.2222 20.7975 20.4352V20.4352Z" stroke="white" stroke-width="1.7" stroke-miterlimit="10"/>
<path d="M9.31804 9.54758C10.7708 9.45875 11.8444 7.51992 11.7162 5.21707C11.5879 2.91423 10.3062 1.11941 8.85353 1.20824C7.40081 1.29706 6.32713 3.2359 6.4554 5.53874C6.58367 7.84159 7.86532 9.63641 9.31804 9.54758Z" stroke="white" stroke-width="1.7" stroke-miterlimit="10"/>
<path d="M4.5987 13.6134C5.62931 13.2638 6.07691 11.7252 5.59846 10.1769C5.12001 8.62858 3.89668 7.65682 2.86607 8.00642C1.83547 8.35602 1.38786 9.89458 1.86631 11.4429C2.34477 12.9912 3.5681 13.963 4.5987 13.6134Z" stroke="white" stroke-width="1.7" stroke-miterlimit="10"/>
<path d="M24.1281 11.4978C24.6097 9.95172 24.1657 8.41315 23.1366 8.06131C22.1075 7.70947 20.8829 8.67758 20.4014 10.2237C19.9199 11.7697 20.3638 13.3083 21.3929 13.6601C22.422 14.012 23.6466 13.0439 24.1281 11.4978Z" stroke="white" stroke-width="1.7" stroke-miterlimit="10"/>
<path d="M19.268 5.56082C19.4251 3.25924 18.3768 1.30536 16.9267 1.19672C15.4765 1.08807 14.1736 2.8658 14.0165 5.16739C13.8594 7.46897 14.9077 9.42284 16.3578 9.53149C17.808 9.64013 19.1109 7.8624 19.268 5.56082Z" stroke="white" stroke-width="1.7" stroke-miterlimit="10"/>
</svg>
