<svg width="24" height="24" viewBox="0 0 24 24" fill="none" xmlns="http://www.w3.org/2000/svg">
<path fill-rule="evenodd" clip-rule="evenodd" d="M3.69976 5.81898C3.69976 4.64857 4.64857 3.69976 5.81899 3.69976H18.1827C19.3531 3.69976 20.3019 4.64857 20.3019 5.81898V18.1827C20.3019 19.3531 19.3531 20.3019 18.1827 20.3019H5.81899C4.64857 20.3019 3.69976 19.3531 3.69976 18.1827V5.81898ZM5.81899 1.99976C3.70968 1.99976 1.99976 3.70968 1.99976 5.81898V18.1827C1.99976 20.292 3.70968 22.0019 5.81899 22.0019H18.1827C20.292 22.0019 22.0019 20.292 22.0019 18.1827V5.81898C22.0019 3.70968 20.292 1.99976 18.1827 1.99976H5.81899ZM17.85 9C17.85 8.53056 17.4694 8.15 17 8.15C16.5306 8.15 16.15 8.53056 16.15 9V17C16.15 17.4694 16.5306 17.85 17 17.85C17.4694 17.85 17.85 17.4694 17.85 17V9ZM12 11.15C12.4694 11.15 12.85 11.5306 12.85 12V17C12.85 17.4694 12.4694 17.85 12 17.85C11.5306 17.85 11.15 17.4694 11.15 17V12C11.15 11.5306 11.5306 11.15 12 11.15ZM7.85 7C7.85 6.53056 7.46944 6.15 7 6.15C6.53056 6.15 6.15 6.53056 6.15 7V17C6.15 17.4694 6.53056 17.85 7 17.85C7.46944 17.85 7.85 17.4694 7.85 17V7Z" fill="#9DA0AF"/>
</svg>
