<svg width="24" height="25" viewBox="0 0 24 25" fill="none" xmlns="http://www.w3.org/2000/svg">
<g clip-path="url(#clip0_5397_80793)">
<path d="M16.8402 3.46152C16.1861 2.72859 15.3741 2.15371 14.4654 1.78025C13.5568 1.40678 12.5753 1.24446 11.5948 1.30552C7.98991 1.5318 5.35619 4.74066 5.49762 8.34866C5.58804 10.2665 6.03125 12.1512 6.80505 13.9084C7.84257 16.2798 9.34761 18.4176 11.2302 20.1941C11.4395 20.3885 11.7146 20.4965 12.0002 20.4965C12.2858 20.4965 12.5609 20.3885 12.7702 20.1941C16.0859 17.0638 18.5059 12.5287 18.5059 7.80495C18.5085 6.20066 17.9149 4.65265 16.8402 3.46152ZM11.3088 11.2432C10.8128 11.1487 10.3439 10.9458 9.93534 10.6492C9.22898 10.1426 8.73485 9.39275 8.54795 8.54383C8.36105 7.69491 8.49459 6.80686 8.92287 6.05045C9.35116 5.29403 10.044 4.72264 10.8681 4.44615C11.6922 4.16967 12.5894 4.2076 13.3872 4.55265C14.1851 4.89771 14.8272 5.52553 15.1901 6.3154C15.553 7.10527 15.6111 8.00142 15.3532 8.83154C15.0953 9.66165 14.5397 10.3671 13.7931 10.8123C13.0465 11.2575 12.1617 11.411 11.3088 11.2432Z" fill="#F58787"/>
<path d="M22.5601 20.6639L20.6555 18.6902C20.3844 18.4112 20.0599 18.1895 19.7014 18.0383C19.343 17.8872 18.9577 17.8096 18.5687 17.8102H16.1424C16.0521 17.8039 15.9615 17.8163 15.8762 17.8466C15.7909 17.8768 15.7127 17.9243 15.6466 17.9861C15.5804 18.0478 15.5276 18.1225 15.4916 18.2055C15.4555 18.2885 15.4369 18.3781 15.4369 18.4686C15.4369 18.5591 15.4555 18.6486 15.4916 18.7316C15.5276 18.8147 15.5804 18.8894 15.6466 18.9511C15.7127 19.0129 15.7909 19.0603 15.8762 19.0906C15.9615 19.1209 16.0521 19.1333 16.1424 19.127H18.5687C18.7809 19.126 18.9912 19.1675 19.1871 19.249C19.383 19.3305 19.5607 19.4504 19.7095 19.6016L21.5953 21.5753C21.6294 21.6056 21.6528 21.6463 21.6619 21.691C21.671 21.7358 21.6652 21.7824 21.6455 21.8236C21.6246 21.8755 21.5878 21.9196 21.5404 21.9495C21.493 21.9793 21.4375 21.9936 21.3815 21.9902H2.60297C2.54706 21.9936 2.49149 21.9793 2.44411 21.9495C2.39674 21.9196 2.35996 21.8755 2.33897 21.8236C2.31875 21.7825 2.31271 21.7358 2.32181 21.6909C2.33091 21.646 2.35463 21.6053 2.38926 21.5753L4.29069 19.6016C4.43957 19.4504 4.61721 19.3305 4.81314 19.249C5.00907 19.1675 5.21934 19.126 5.43154 19.127H7.85783C7.94812 19.1333 8.03873 19.1209 8.12403 19.0906C8.20933 19.0603 8.28749 19.0129 8.35366 18.9511C8.41983 18.8894 8.47259 18.8147 8.50866 18.7316C8.54473 18.6486 8.56335 18.5591 8.56335 18.4686C8.56335 18.3781 8.54473 18.2885 8.50866 18.2055C8.47259 18.1225 8.41983 18.0478 8.35366 17.9861C8.28749 17.9243 8.20933 17.8768 8.12403 17.8466C8.03873 17.8163 7.94812 17.8039 7.85783 17.8102H5.43154C5.04249 17.8096 4.65728 17.8872 4.29879 18.0383C3.9403 18.1895 3.61585 18.4112 3.34469 18.6902L1.44012 20.6639C1.22646 20.8798 1.08234 21.1547 1.02633 21.4533C0.970317 21.7519 1.00497 22.0603 1.12583 22.339C1.24964 22.6275 1.45588 22.8729 1.71867 23.0446C1.98146 23.2162 2.2891 23.3064 2.60297 23.3039H21.3973C21.7111 23.3064 22.0188 23.2162 22.2816 23.0446C22.5443 22.8729 22.7506 22.6275 22.8744 22.339C22.9953 22.0603 23.0299 21.7519 22.9739 21.4533C22.9179 21.1547 22.7738 20.8798 22.5601 20.6639Z" fill="#82ED82"/>
<path d="M16.8401 3.46152L14.7501 5.63323C14.4372 5.24403 14.0448 4.92607 13.5992 4.7006C13.1536 4.47513 12.665 4.34734 12.166 4.32575C11.6671 4.30416 11.1693 4.38928 10.7058 4.57542C10.2424 4.76156 9.82402 5.04444 9.47863 5.40516C9.13324 5.76588 8.86879 6.19615 8.70294 6.66722C8.53709 7.13829 8.47366 7.63933 8.51688 8.13687C8.5601 8.63441 8.70898 9.117 8.95358 9.55242C9.19818 9.98783 9.53286 10.366 9.93528 10.6618L6.79243 13.9209C6.01863 12.1638 5.57541 10.2791 5.485 8.36123C5.35614 4.74066 7.98986 1.5318 11.5947 1.30552C12.5752 1.24446 13.5568 1.40678 14.4654 1.78025C15.374 2.15371 16.186 2.72859 16.8401 3.46152Z" fill="#FF9999"/>
</g>
<defs>
<clipPath id="clip0_5397_80793">
<rect width="22" height="22" fill="white" transform="translate(1 1.30469)"/>
</clipPath>
</defs>
</svg>
