<svg width="24" height="25" viewBox="0 0 24 25" fill="none" xmlns="http://www.w3.org/2000/svg">
<g clip-path="url(#clip0_5397_80843)">
<path d="M22.9999 9.89799V21.0489C23.0066 21.6393 22.7787 22.2083 22.3662 22.6308C21.9537 23.0533 21.3903 23.2948 20.7999 23.3023H3.1999C2.60946 23.2948 2.04612 23.0533 1.63362 22.6308C1.22112 22.2083 0.99319 21.6393 0.9999 21.0489V9.89799C0.994868 9.32565 1.20996 8.77326 1.6007 8.35502C1.99145 7.93678 2.52796 7.68469 3.09933 7.65085C3.13278 7.64763 3.16645 7.64763 3.1999 7.65085H20.7999C20.8333 7.64763 20.867 7.64763 20.9005 7.65085C21.4718 7.68469 22.0084 7.93678 22.3991 8.35502C22.7898 8.77326 23.0049 9.32565 22.9999 9.89799Z" fill="#ADD5E6"/>
<path d="M23 8.9224V20.0764C23.0023 20.4613 22.9049 20.8403 22.7172 21.1764C22.5318 21.5241 22.2556 21.815 21.918 22.0181C21.5804 22.2212 21.194 22.329 20.8 22.3298H3.20004C2.6432 22.3302 2.10754 22.1164 1.70404 21.7327C1.47994 21.5192 1.30188 21.2622 1.18082 20.9773C1.05975 20.6925 0.998227 20.3859 1.00004 20.0764V8.92554C1.00004 8.85011 1.00004 8.77783 1.00004 8.7024C1.03329 8.06859 1.22879 7.45394 1.56779 6.91738C1.90678 6.38081 2.37792 5.94032 2.93604 5.63811L10.1489 1.7724C10.7176 1.46542 11.3538 1.30469 12 1.30469C12.6463 1.30469 13.2825 1.46542 13.8512 1.7724L21.0546 5.63183C21.6173 5.93673 22.0919 6.38147 22.4326 6.92316C22.7734 7.46485 22.9688 8.08521 23 8.7244C23.0048 8.79031 23.0048 8.85649 23 8.9224Z" fill="#E6F7FF"/>
<path d="M23 8.9224V9.89983L19.7 12.4644L14.2189 16.7198C13.5863 17.2174 12.8048 17.4879 12 17.4879C11.1952 17.4879 10.4137 17.2174 9.78114 16.7198L4.3 12.4644L1 9.89983V8.92554C1 8.85011 1 8.77783 1 8.7024C1.03325 8.06859 1.22875 7.45394 1.56775 6.91738C1.90675 6.38081 2.37788 5.94032 2.936 5.63811L10.1489 1.7724C10.7176 1.46542 11.3537 1.30469 12 1.30469C12.6463 1.30469 13.2824 1.46542 13.8511 1.7724L21.0546 5.63183C21.6172 5.93673 22.0918 6.38147 22.4326 6.92316C22.7733 7.46485 22.9688 8.08521 23 8.7244C23.0048 8.79031 23.0048 8.85649 23 8.9224Z" fill="#C2E4F2"/>
<path d="M19.7 8.08895V12.0112L14.2189 16.2698C13.5863 16.7674 12.8048 17.0378 12 17.0378C11.1952 17.0378 10.4137 16.7674 9.78114 16.2698L4.3 12.0112V8.08895C4.29585 7.75257 4.358 7.41867 4.4829 7.10631C4.6078 6.79396 4.79301 6.50926 5.02794 6.26849C5.26288 6.02771 5.54295 5.83557 5.85215 5.70305C6.16134 5.57052 6.49362 5.5002 6.83 5.49609H17.17C17.5064 5.5002 17.8387 5.57052 18.1479 5.70305C18.4571 5.83557 18.7371 6.02771 18.9721 6.26849C19.207 6.50926 19.3922 6.79396 19.5171 7.10631C19.642 7.41867 19.7042 7.75257 19.7 8.08895Z" fill="white"/>
<path d="M19.7 8.53112V12.4628L14.2189 16.7183C13.5863 17.2158 12.8048 17.4863 12 17.4863C11.1952 17.4863 10.4137 17.2158 9.78114 16.7183L4.3 12.4628V8.53112C4.29585 8.19489 4.35802 7.86115 4.48296 7.54897C4.6079 7.23679 4.79316 6.9523 5.02813 6.71178C5.26311 6.47125 5.5432 6.27941 5.85238 6.14723C6.16156 6.01504 6.49377 5.9451 6.83 5.94141H17.17C17.5062 5.9451 17.8384 6.01504 18.1476 6.14723C18.4568 6.27941 18.7369 6.47125 18.9719 6.71178C19.2068 6.9523 19.3921 7.23679 19.517 7.54897C19.642 7.86115 19.7042 8.19489 19.7 8.53112Z" fill="#F7FDFF"/>
<path d="M15.3249 8.89237C15.0763 8.39458 14.6695 7.99335 14.1684 7.75152C13.5689 7.48432 12.9166 7.35645 12.2607 7.37752C11.5974 7.35507 10.9377 7.48293 10.3309 7.75152C9.83084 7.99292 9.42353 8.3914 9.17122 8.88609C8.89361 9.48175 8.75806 10.1337 8.77522 10.7907C8.77522 10.9824 8.77522 11.1709 8.77522 11.3627V11.9378C8.75462 12.5467 8.89099 13.1506 9.17122 13.6915C9.42918 14.1604 9.83619 14.5298 10.3278 14.7412C10.9437 14.9921 11.6054 15.111 12.2701 15.0901H13.2129C13.2645 15.0918 13.316 15.0833 13.3643 15.0651C13.4126 15.0468 13.4568 15.0193 13.4945 14.984C13.5321 14.9487 13.5624 14.9063 13.5837 14.8592C13.605 14.8122 13.6167 14.7614 13.6184 14.7098C13.6143 14.6061 13.5693 14.5083 13.4934 14.4377C13.4174 14.367 13.3166 14.3293 13.2129 14.3327H12.2701C11.7654 14.3482 11.2632 14.2572 10.7961 14.0655C10.4207 13.9085 10.1102 13.628 9.91608 13.2704C9.70789 12.8579 9.60734 12.3995 9.6238 11.9378V11.3627C9.6238 11.1709 9.6238 10.9824 9.6238 10.7969C9.61247 10.2818 9.72002 9.77095 9.93808 9.30409C10.1251 8.91881 10.433 8.60532 10.8149 8.41152C11.2727 8.20164 11.7731 8.10155 12.2764 8.11923C12.7741 8.10306 13.2685 8.2054 13.7189 8.4178C14.1015 8.61025 14.4106 8.92263 14.5989 9.30723C14.8103 9.77461 14.9113 10.2843 14.8944 10.7969V12.1987C14.907 12.3588 14.8731 12.5192 14.7969 12.6607C14.7596 12.7084 14.7119 12.7469 14.6574 12.7734C14.603 12.8 14.5432 12.8138 14.4827 12.8138C14.4221 12.8138 14.3623 12.8 14.3079 12.7734C14.2534 12.7469 14.2057 12.7084 14.1684 12.6607C14.0949 12.5172 14.0623 12.3563 14.0741 12.1955V10.9384C14.0966 10.6762 14.0671 10.4121 13.9873 10.1613C13.9074 9.91048 13.7789 9.67793 13.6089 9.47695C13.4266 9.308 13.2113 9.17861 12.9766 9.09694C12.7418 9.01527 12.4927 8.98307 12.2449 9.00237C11.9972 8.98402 11.7484 9.01666 11.5138 9.09829C11.2791 9.17991 11.0638 9.30879 10.8809 9.47695C10.5477 9.87791 10.3852 10.3937 10.4284 10.9132V11.6392C10.3909 12.1463 10.5333 12.6504 10.8307 13.0629C10.9821 13.2272 11.1688 13.355 11.3768 13.4366C11.5847 13.5183 11.8085 13.5517 12.0312 13.5344C12.3642 13.5527 12.6944 13.4647 12.9741 13.2829C13.0931 13.1891 13.1897 13.0699 13.2569 12.9341C13.3031 13.0321 13.3658 13.1214 13.4424 13.1981C13.5793 13.314 13.7379 13.4014 13.9089 13.4554C14.08 13.5094 14.26 13.5287 14.4387 13.5124C14.6111 13.5226 14.7839 13.4972 14.9461 13.4378C15.1083 13.3783 15.2565 13.286 15.3815 13.1667C15.6193 12.8603 15.7317 12.4749 15.6958 12.0887V10.7687C15.7213 10.1228 15.5942 9.47998 15.3249 8.89237ZM12.9427 12.4847C12.8521 12.5791 12.7417 12.6524 12.6194 12.6991C12.4971 12.7458 12.366 12.7649 12.2355 12.7549C12.1065 12.7644 11.9769 12.745 11.8563 12.6983C11.7356 12.6515 11.6268 12.5786 11.5378 12.4847C11.3701 12.2504 11.291 11.9641 11.3147 11.6769V10.8661C11.3147 10.1527 11.6289 9.79123 12.2387 9.79123C12.3689 9.78153 12.4996 9.80041 12.6218 9.84655C12.7439 9.8927 12.8545 9.96499 12.9458 10.0584C13.1171 10.2901 13.1997 10.5756 13.1784 10.8629V11.6769C13.1984 11.9657 13.1148 12.252 12.9427 12.4847Z" fill="#6DD96D"/>
</g>
<defs>
<clipPath id="clip0_5397_80843">
<rect width="22" height="22" fill="white" transform="translate(1 1.30469)"/>
</clipPath>
</defs>
</svg>
