<svg width="24" height="25" viewBox="0 0 24 25" fill="none" xmlns="http://www.w3.org/2000/svg">
<g clip-path="url(#clip0_5397_80805)">
<path d="M20.1872 10.3355H16.1014C16.1014 10.2695 16.1014 10.2035 16.1014 10.1375C16.0743 9.61645 16.0197 9.09716 15.938 8.58181C15.8151 7.75238 15.6163 6.93599 15.344 6.14295C15.344 6.12409 15.344 6.10838 15.322 6.09267C16.201 5.67923 17.0161 5.14153 17.742 4.49609C17.742 4.49609 17.742 4.49609 17.742 4.49609C19.1953 6.10922 20.0574 8.16819 20.1872 10.3355Z" fill="#B3F2FF"/>
<path d="M10.4065 20.5352H10.4222H10.4411C10.4298 20.5384 10.4178 20.5384 10.4065 20.5352Z" fill="#B3F2FF"/>
<path d="M3.42938 4.5C4.0778 5.0782 4.79953 5.56851 5.57596 5.95829C5.43767 6.35114 5.3151 6.75657 5.2051 7.162C4.9403 8.20079 4.78753 9.26496 4.74938 10.3363H0.999956C0.998387 10.307 0.998387 10.2776 0.999956 10.2483C1.07386 9.21374 1.31148 8.19748 1.70396 7.23743C1.75738 7.10229 1.8171 6.97029 1.87681 6.84143C1.97738 6.63086 2.0811 6.42343 2.1911 6.21286C2.24767 6.11229 2.30424 6.01171 2.36396 5.89857C2.42367 5.78543 2.48338 5.70686 2.54624 5.60943C2.6091 5.512 2.62481 5.49 2.66567 5.43343C2.75053 5.30143 2.84796 5.17571 2.94224 5.04686C3.03653 4.918 3.0931 4.85514 3.17167 4.764C3.25024 4.67286 3.34453 4.59114 3.42938 4.5Z" fill="#B3F2FF"/>
<path d="M14.948 10.3355H5.90283C5.95415 9.00397 6.19871 7.68697 6.62883 6.42578C7.56505 6.78141 8.54508 7.00871 9.54226 7.1015C9.88483 7.13292 10.2305 7.14864 10.5825 7.14864C10.7617 7.14864 10.944 7.14864 11.12 7.14864C12.1919 7.10098 13.2509 6.89553 14.2628 6.53892C14.3942 6.93002 14.5053 7.32759 14.596 7.73007C14.7984 8.58491 14.9163 9.45759 14.948 10.3355Z" fill="#B3F2FF"/>
<path d="M8.25376 1.57812C7.51288 2.33579 6.88518 3.19637 6.39004 4.13327C6.25176 4.3847 6.12604 4.64241 6.00661 4.90327C5.37417 4.57631 4.78416 4.17312 4.24976 3.7027C4.34404 3.6147 4.44461 3.52984 4.54833 3.44813C5.63101 2.56002 6.89618 1.92153 8.25376 1.57812Z" fill="#B3F2FF"/>
<path d="M13.8322 5.4564C12.7875 5.81529 11.6902 5.99694 10.5856 5.99383C10.198 5.99476 9.81064 5.97167 9.42587 5.92469C8.63568 5.843 7.85869 5.66353 7.11272 5.3904C7.0929 5.38584 7.07385 5.37843 7.05615 5.3684L7.10015 5.26783C7.65612 4.03533 8.45951 2.93027 9.46044 2.02126C9.76254 1.7558 10.0863 1.5161 10.4284 1.30469C10.5604 1.3864 10.6862 1.4744 10.815 1.5624C11.5688 2.12173 12.2287 2.79753 12.7699 3.5644C13.1887 4.15647 13.5447 4.79056 13.8322 5.4564Z" fill="#B3F2FF"/>
<path d="M16.9311 3.67971C16.3205 4.2152 15.6395 4.66461 14.9071 5.01542C14.5192 4.14272 14.0297 3.31884 13.4488 2.56085C13.1544 2.17704 12.833 1.81469 12.4871 1.47656C12.7793 1.53628 13.0653 1.61171 13.3451 1.69656C13.3763 1.7042 13.4069 1.71472 13.4362 1.72799C13.5933 1.77513 13.7505 1.83171 13.9108 1.88828C14.0711 1.94485 14.2031 1.99513 14.3445 2.05799C14.4859 2.12085 14.6588 2.19313 14.7971 2.26542C15.1113 2.41628 15.4068 2.57971 15.6991 2.76513C16.135 3.03445 16.5471 3.34041 16.9311 3.67971Z" fill="#B3F2FF"/>
<path d="M5.576 15.8702C4.79922 16.2619 4.07747 16.7543 3.42943 17.3348C2.52914 16.3259 1.85226 15.1381 1.44314 13.8493C1.19589 13.0856 1.04697 12.2935 1 11.4922H4.74943C4.76831 12.0372 4.81762 12.5807 4.89714 13.1202C5.03151 14.0571 5.25892 14.9783 5.576 15.8702Z" fill="#B3F2FF"/>
<path d="M6.47484 17.8591C6.95431 18.7348 7.55297 19.5397 8.25369 20.2508C7.47857 20.059 6.73089 19.7696 6.02855 19.3897C5.88712 19.3174 5.75198 19.2357 5.61998 19.154C5.48798 19.0723 5.34655 18.9874 5.21455 18.8963C4.87591 18.6647 4.55161 18.4128 4.24341 18.142C4.77781 17.6716 5.36782 17.2684 6.00027 16.9414C6.14169 17.2557 6.29884 17.57 6.46855 17.856L6.47484 17.8591Z" fill="#B3F2FF"/>
<path d="M13.411 17.2244C12.7129 18.5605 11.6865 19.6972 10.4284 20.5276C8.93802 19.5289 7.7663 18.1226 7.05298 16.4764C8.18123 16.0532 9.37743 15.8402 10.5824 15.8479C11.4054 15.8489 12.2249 15.9545 13.0213 16.1621L13.411 17.2244Z" fill="#B3F2FF"/>
<path d="M14.9511 11.4922C14.9359 11.9738 14.895 12.4543 14.8285 12.9316H14.8034C14.6103 12.8601 14.4059 12.824 14.1999 12.8248C13.9502 12.8243 13.7036 12.8798 13.4782 12.9872C13.2527 13.0945 13.0542 13.251 12.8972 13.4451C12.7401 13.6393 12.6285 13.8661 12.5706 14.109C12.5127 14.3519 12.5099 14.6047 12.5625 14.8488C11.9075 14.7352 11.2441 14.6773 10.5794 14.6759C9.22888 14.6757 7.88945 14.9195 6.62566 15.3956C6.1988 14.1357 5.95433 12.8213 5.89966 11.4922H14.9511Z" fill="#B3F2FF"/>
<path d="M14.3382 19.7785C13.7425 20.0317 13.1221 20.2223 12.4871 20.3474C13.0262 19.8232 13.5048 19.2402 13.9139 18.6094L14.3382 19.7785Z" fill="#B3F2FF"/>
<path d="M20.1903 11.4922C20.1284 12.5731 19.884 13.6357 19.4674 14.635L15.916 13.3496C15.938 13.2428 15.9537 13.1359 15.9663 13.0353C16.0385 12.5311 16.0836 12.0233 16.1014 11.5142L20.1903 11.4922Z" fill="#B3F2FF"/>
<path d="M5.576 5.95914C5.43771 6.352 5.31514 6.75742 5.20514 7.16285C4.10514 7.98 4.08 8.84742 3.11829 9.75257C2.7752 10.0287 2.34869 10.1805 1.90829 10.1831L1 10.2491C1.02102 9.93322 1.05773 9.61855 1.11 9.30628C1.23105 8.60049 1.43245 7.91086 1.71029 7.25085C1.76371 7.11571 1.82343 6.98371 1.88314 6.85485C1.97551 6.63936 2.08045 6.42947 2.19743 6.22628C2.254 6.12571 2.31057 6.02514 2.37029 5.912C2.43 5.79885 2.48971 5.72028 2.55257 5.62285C2.61543 5.52542 2.63114 5.50342 2.672 5.44685C2.75686 5.31485 2.85429 5.18914 2.94857 5.06028C3.04286 4.93142 3.09943 4.86857 3.178 4.77742C3.25459 4.67681 3.33642 4.5803 3.42314 4.48828C4.07276 5.07136 4.79666 5.56594 5.576 5.95914Z" fill="#73D3E6"/>
<path d="M5.67976 3.71636C5.93621 3.81914 6.17568 3.96006 6.39004 4.13436C6.25176 4.38579 6.12604 4.6435 6.00661 4.90436C5.37417 4.57741 4.78416 4.17421 4.24976 3.70379C4.34404 3.61579 4.44461 3.53093 4.54833 3.44922C4.93161 3.50992 5.3098 3.59922 5.67976 3.71636Z" fill="#73D3E6"/>
<path d="M5.57277 15.8677C4.79652 16.2603 4.07489 16.7527 3.4262 17.3323C2.52616 16.3263 1.84828 15.1419 1.43677 13.8563C1.67364 13.6558 1.94382 13.4983 2.23505 13.3911C3.25648 13.058 4.31562 12.7374 4.89705 13.1303C5.03097 14.0629 5.25733 14.9799 5.57277 15.8677Z" fill="#73D3E6"/>
<path d="M6.47172 17.8536C6.47172 17.9699 6.44972 18.0956 6.43715 18.2276C6.42458 18.3596 6.3743 18.6519 6.34915 18.7493C6.30799 18.985 6.19874 19.2035 6.03487 19.3779C5.89972 19.3056 5.7583 19.2239 5.62944 19.139C5.48894 19.0682 5.35254 18.9895 5.22087 18.9033C4.8779 18.6763 4.55224 18.4242 4.24658 18.149C4.78334 17.6793 5.37417 17.2752 6.00658 16.9453C6.14613 17.2558 6.30138 17.5589 6.47172 17.8536Z" fill="#73D3E6"/>
<path d="M10.9126 3.36954C9.95405 3.66812 8.90748 4.57012 8.71262 3.8724C8.63719 3.58012 8.81948 3.30983 9.04262 3.04583C9.28872 2.75855 9.43438 2.39883 9.45748 2.02126C9.76058 1.75566 10.0854 1.51596 10.4286 1.30469C10.5606 1.3864 10.6863 1.4744 10.8152 1.5624C10.9252 1.73526 11.0289 1.92697 11.0289 1.92697C11.164 2.24754 11.8618 3.06783 10.9126 3.36954Z" fill="#73D3E6"/>
<path d="M14.951 11.4922C14.9358 11.9738 14.8949 12.4543 14.8284 12.9316H14.8033C14.6102 12.8601 14.4058 12.824 14.1999 12.8248C13.9502 12.8243 13.7035 12.8798 13.4781 12.9872C13.2527 13.0945 13.0541 13.251 12.8971 13.4451C12.74 13.6393 12.6285 13.8661 12.5706 14.109C12.5126 14.3519 12.5099 14.6047 12.5624 14.8488C12.1979 13.6388 12.0313 12.1585 9.91616 11.9448C9.77 11.9236 9.62978 11.8725 9.50431 11.7946C9.37883 11.7168 9.27081 11.6138 9.18701 11.4922H14.951Z" fill="#73D3E6"/>
<path d="M16.5823 11.4922C16.4676 11.8767 16.3138 12.2484 16.1235 12.6016C16.0591 12.7351 16.0065 12.8739 15.9663 13.0165C16.037 12.511 16.0821 12.0022 16.1015 11.4922H16.5823Z" fill="#73D3E6"/>
<path d="M10.5857 5.99193C10.1981 5.99286 9.8108 5.96977 9.42603 5.92279C9.4606 5.79707 9.50774 5.6525 9.55803 5.49536C9.66303 5.10174 9.8835 4.74859 10.191 4.48139C10.4985 4.2142 10.879 4.04522 11.2835 3.99621C11.7966 3.9305 12.2962 3.78412 12.7637 3.5625C13.1844 4.15231 13.5425 4.78428 13.8323 5.44821C12.788 5.80924 11.6907 5.99302 10.5857 5.99193Z" fill="#73D3E6"/>
<path d="M14.5896 7.71875C14.7949 8.57749 14.9149 9.45441 14.9478 10.3368H8.73756C8.64013 9.51961 8.9167 8.64589 9.79356 8.35989C11.4467 7.82561 13.477 8.06761 14.5896 7.71875Z" fill="#73D3E6"/>
<path d="M16.9248 3.68313C16.3143 4.21862 15.6333 4.66803 14.9008 5.01884C14.5152 4.14535 14.0278 3.32042 13.4488 2.56113C13.4724 2.42384 13.4724 2.28355 13.4488 2.14627L13.3608 1.70312C13.3921 1.71077 13.4226 1.72129 13.452 1.73455C13.6091 1.7817 13.7663 1.83827 13.9266 1.89484C14.0868 1.95141 14.2188 2.0017 14.3603 2.06455C14.5017 2.12741 14.6746 2.1997 14.8128 2.27198C15.1271 2.42284 15.4226 2.58627 15.7148 2.7717C16.1408 3.04418 16.5454 3.34888 16.9248 3.68313Z" fill="#73D3E6"/>
<path d="M20.1714 10.3355H17.9305C17.3302 10.2727 16.7551 10.1187 16.6482 9.66924C16.5194 9.15067 16.3622 8.57866 15.9317 8.58181C15.8088 7.75238 15.61 6.93599 15.3377 6.14295C15.3377 6.12409 15.3377 6.10838 15.3157 6.09267C16.1947 5.67923 17.0097 5.14153 17.7357 4.49609C19.1864 6.10999 20.0453 8.16913 20.1714 10.3355Z" fill="#73D3E6"/>
<path d="M10.4286 20.5352C10.4173 20.5384 10.4053 20.5384 10.394 20.5352H10.4098H10.4286Z" fill="white"/>
<path d="M15.3377 6.14404C15.3377 6.12518 15.3377 6.10946 15.3157 6.09375C15.326 6.10906 15.3334 6.12609 15.3377 6.14404Z" fill="white"/>
<path d="M10.4286 20.5352C10.4173 20.5384 10.4053 20.5384 10.394 20.5352H10.4098H10.4286Z" fill="white"/>
<path d="M22.8932 22.0477L21.7429 23.198C21.7101 23.2315 21.671 23.258 21.6278 23.2762C21.5847 23.2943 21.5383 23.3037 21.4915 23.3037C21.4446 23.3037 21.3983 23.2943 21.3551 23.2762C21.3119 23.258 21.2728 23.2315 21.24 23.198L18.336 20.2972C18.2958 20.2557 18.2461 20.2248 18.1911 20.2071C18.1361 20.1894 18.0777 20.1855 18.0208 20.1958C17.964 20.206 17.9106 20.2301 17.8652 20.2658C17.8199 20.3016 17.7841 20.348 17.7609 20.4009L17.1323 21.8215C17.1039 21.8867 17.0566 21.942 16.9964 21.98C16.9362 22.018 16.866 22.0371 16.7949 22.0347C16.7237 22.0323 16.6549 22.0086 16.5974 21.9667C16.5399 21.9247 16.4963 21.8665 16.4723 21.7995L15.4918 19.0997L13.8858 14.6243C13.8631 14.5613 13.8591 14.4932 13.8742 14.428C13.8892 14.3628 13.9227 14.3033 13.9706 14.2566C14.0174 14.2068 14.078 14.1721 14.1446 14.1569C14.2113 14.1418 14.2809 14.147 14.3446 14.1717L21.1018 16.6232L21.504 16.7709C21.5711 16.7949 21.6293 16.8385 21.6713 16.896C21.7132 16.9535 21.7369 17.0223 21.7393 17.0934C21.7416 17.1646 21.7226 17.2348 21.6846 17.2949C21.6465 17.3551 21.5913 17.4025 21.526 17.4309L20.1118 18.0595C20.0589 18.083 20.0125 18.1189 19.9766 18.1643C19.9407 18.2096 19.9163 18.263 19.9055 18.3198C19.8947 18.3767 19.8978 18.4352 19.9145 18.4906C19.9313 18.546 19.9612 18.5965 20.0018 18.6377L22.8995 21.5417C22.9326 21.5752 22.9588 21.6149 22.9764 21.6586C22.994 21.7022 23.0028 21.749 23.0022 21.7961C23.0017 21.8431 22.9917 21.8896 22.973 21.9329C22.9543 21.9761 22.9271 22.0151 22.8932 22.0477Z" fill="#8593E6"/>
<path d="M22.8932 22.0477L22.2961 22.648L13.9644 14.2566C14.0111 14.2068 14.0717 14.1721 14.1384 14.1569C14.205 14.1418 14.2747 14.147 14.3384 14.1717L21.0955 16.6232L21.4978 16.7709C21.5648 16.7949 21.6231 16.8385 21.665 16.896C21.7069 16.9535 21.7306 17.0223 21.733 17.0934C21.7354 17.1646 21.7163 17.2348 21.6783 17.2949C21.6403 17.3551 21.5851 17.4025 21.5198 17.4309L20.1055 18.0595C20.0527 18.083 20.0063 18.1189 19.9704 18.1643C19.9344 18.2096 19.91 18.263 19.8992 18.3198C19.8884 18.3767 19.8915 18.4352 19.9083 18.4906C19.9251 18.546 19.955 18.5965 19.9955 18.6377L22.8932 21.5417C22.9268 21.5748 22.9534 21.6142 22.9716 21.6576C22.9898 21.701 22.9991 21.7477 22.9991 21.7947C22.9991 21.8418 22.9898 21.8884 22.9716 21.9319C22.9534 21.9753 22.9268 22.0147 22.8932 22.0477Z" fill="#99A5EB"/>
</g>
<defs>
<clipPath id="clip0_5397_80805">
<rect width="22" height="22" fill="white" transform="translate(1 1.30469)"/>
</clipPath>
</defs>
</svg>
