<svg width="40" height="40" viewBox="0 0 40 40" fill="none" xmlns="http://www.w3.org/2000/svg">
<rect width="40" height="40" rx="20" fill="#F0D242" fill-opacity="0.2"/>
<g clip-path="url(#clip0_5649_110076)">
<path d="M26.5939 10.8001L11.7855 13.0486C11.0057 13.2025 10.3027 13.6214 9.79521 14.2345C9.28771 14.8476 9.00677 15.6174 8.9998 16.414V26.6351C8.97726 26.996 9.03627 27.3573 9.17241 27.6921C9.30855 28.0269 9.51832 28.3266 9.78609 28.5689C10.0539 28.8112 10.3727 28.9897 10.7189 29.0913C11.0651 29.1929 11.4297 29.2148 11.7855 29.1555L26.5939 26.9217C27.3737 26.765 28.0761 26.3444 28.5833 25.7303C29.0905 25.1163 29.3716 24.3461 29.3797 23.549V13.3205C29.4022 12.9596 29.3432 12.5983 29.2071 12.2635C29.0709 11.9287 28.8612 11.629 28.5934 11.3867C28.3256 11.1445 28.0068 10.9659 27.6606 10.8643C27.3144 10.7628 26.9498 10.7408 26.5939 10.8001Z" fill="#998273"/>
<path d="M22.0411 19.9927C25.0696 19.9927 27.5246 17.5319 27.5246 14.4963C27.5246 11.4608 25.0696 9 22.0411 9C19.0127 9 16.5576 11.4608 16.5576 14.4963C16.5576 17.5319 19.0127 19.9927 22.0411 19.9927Z" fill="#FFD34D"/>
<path d="M27.9943 14.5469H12.0057C11.2098 14.5469 10.4464 14.8633 9.88293 15.4267C9.31947 15.9901 9.00194 16.7545 9 17.5522V27.9864C9.00194 28.7848 9.31922 29.55 9.88248 30.1146C10.4457 30.6791 11.2091 30.9972 12.0057 30.9991H27.9943C28.7909 30.9972 29.5543 30.6791 30.1175 30.1146C30.6808 29.55 30.9981 28.7848 31 27.9864V17.5522C30.9981 16.7545 30.6805 15.9901 30.1171 15.4267C29.5536 14.8633 28.7902 14.5469 27.9943 14.5469Z" fill="#BFA28F"/>
<path d="M24.2409 14.5469L9 22.4534V17.3097C9 16.9463 9.07154 16.5864 9.21052 16.2507C9.3495 15.9151 9.55319 15.6102 9.80993 15.3535C10.0667 15.0969 10.3714 14.8935 10.7067 14.7551C11.0419 14.6167 11.4012 14.5459 11.7637 14.5469H24.2409Z" fill="#D9B8A2"/>
<path d="M24.622 20.9193H22.0855C22.0048 20.9222 21.9242 20.9088 21.8487 20.8799C21.7732 20.8509 21.7043 20.807 21.6462 20.7508C21.588 20.6945 21.5417 20.6271 21.5102 20.5525C21.4786 20.4779 21.4623 20.3977 21.4624 20.3167V17.7743C21.4624 17.3845 21.3079 17.0107 21.033 16.7351C20.758 16.4595 20.3851 16.3047 19.9962 16.3047C19.6074 16.3047 19.2344 16.4595 18.9595 16.7351C18.6845 17.0107 18.53 17.3845 18.53 17.7743V20.3167C18.53 20.4765 18.4667 20.6298 18.354 20.7428C18.2412 20.8558 18.0883 20.9193 17.9289 20.9193H15.4144C15.0256 20.9193 14.6526 21.0741 14.3777 21.3497C14.1027 21.6253 13.9482 21.9991 13.9482 22.3889C13.9482 22.7786 14.1027 23.1524 14.3777 23.428C14.6526 23.7036 15.0256 23.8585 15.4144 23.8585H17.9509C18.1016 23.8638 18.2447 23.9257 18.352 24.0319C18.4592 24.138 18.5228 24.2807 18.53 24.4316V27.0034C18.53 27.3932 18.6845 27.767 18.9595 28.0426C19.2344 28.3182 19.6074 28.473 19.9962 28.473C20.3851 28.473 20.758 28.3182 21.033 28.0426C21.3079 27.767 21.4624 27.3932 21.4624 27.0034V24.4316C21.4614 24.3522 21.4763 24.2734 21.5062 24.1999C21.536 24.1263 21.5803 24.0595 21.6363 24.0034C21.6923 23.9472 21.759 23.9029 21.8323 23.8729C21.9057 23.843 21.9843 23.8281 22.0635 23.8291H24.6C24.9889 23.8291 25.3618 23.6742 25.6368 23.3986C25.9117 23.123 26.0662 22.7492 26.0662 22.3595C26.0586 21.9786 25.9038 21.6156 25.6344 21.3469C25.365 21.0782 25.002 20.9249 24.622 20.9193Z" fill="#998273"/>
<path d="M24.622 21.7782H22.0855C21.9261 21.7782 21.7732 21.7147 21.6605 21.6017C21.5477 21.4887 21.4844 21.3354 21.4844 21.1756V18.6259C21.4844 18.2361 21.3299 17.8623 21.055 17.5867C20.78 17.3111 20.4071 17.1562 20.0182 17.1562C19.6294 17.1562 19.2564 17.3111 18.9815 17.5867C18.7065 17.8623 18.552 18.2361 18.552 18.6259V21.1756C18.552 21.3354 18.4887 21.4887 18.376 21.6017C18.2632 21.7147 18.1103 21.7782 17.9509 21.7782H15.4144C15.0256 21.7782 14.6526 21.933 14.3777 22.2086C14.1027 22.4842 13.9482 22.858 13.9482 23.2478C13.9482 23.6375 14.1027 24.0113 14.3777 24.2869C14.6526 24.5625 15.0256 24.7174 15.4144 24.7174H17.9509C18.1091 24.7174 18.2609 24.7798 18.3734 24.8912C18.4859 25.0027 18.5501 25.154 18.552 25.3126V27.8623C18.552 28.2521 18.7065 28.6259 18.9815 28.9015C19.2564 29.1771 19.6294 29.3319 20.0182 29.3319C20.4071 29.3319 20.78 29.1771 21.055 28.9015C21.3299 28.6259 21.4844 28.2521 21.4844 27.8623V25.3126C21.4844 25.2338 21.5 25.1558 21.5303 25.0831C21.5606 25.0104 21.605 24.9444 21.6609 24.8891C21.7168 24.8337 21.7831 24.79 21.856 24.7606C21.9289 24.7311 22.0069 24.7164 22.0855 24.7174H24.622C25.0109 24.7174 25.3838 24.5625 25.6588 24.2869C25.9337 24.0113 26.0882 23.6375 26.0882 23.2478C26.0882 23.0548 26.0503 22.8637 25.9766 22.6854C25.9029 22.5071 25.7949 22.3451 25.6588 22.2086C25.5226 22.0721 25.361 21.9639 25.1831 21.89C25.0052 21.8162 24.8146 21.7782 24.622 21.7782Z" fill="#FFD34D"/>
</g>
<defs>
<clipPath id="clip0_5649_110076">
<rect width="22" height="22" fill="white" transform="translate(9 9)"/>
</clipPath>
</defs>
</svg>
