<svg width="40" height="40" viewBox="0 0 40 40" fill="none" xmlns="http://www.w3.org/2000/svg">
<rect width="40" height="40" rx="20" fill="#E9B362" fill-opacity="0.2"/>
<g clip-path="url(#clip0_5649_110245)">
<path d="M31 20.7072C31.0044 22.9525 30.2502 25.137 28.8533 26.9251C28.1929 27.7838 27.3958 28.5344 26.492 29.1488C24.5515 30.4717 22.2105 31.1232 19.8439 30.999C17.4773 30.8747 15.222 29.982 13.4393 28.4637C11.6566 26.9454 10.4496 24.8894 10.0115 22.6249C9.57344 20.3605 9.92971 18.0187 11.0232 15.9744C12.1168 13.9302 13.8843 12.3019 16.0428 11.3503C18.2012 10.3987 20.6257 10.1789 22.928 10.726C25.2302 11.273 27.2771 12.5554 28.7406 14.3678C30.2042 16.1801 30.9998 18.4175 31 20.7216V20.7072Z" fill="#FAB14B"/>
<path d="M31 19.4488C31 22.1782 29.8848 24.7958 27.8996 26.7257C25.9145 28.6557 23.222 29.7399 20.4146 29.7399C19.2876 29.7423 18.1677 29.5673 17.0983 29.2218C16.1932 28.9364 15.3337 28.5294 14.5444 28.0127C14.056 27.6984 13.5977 27.3419 13.175 26.9476C11.7084 25.6169 10.6631 23.9066 10.1622 22.018C9.94181 21.1784 9.82991 20.3153 9.8291 19.4488C9.83012 17.1525 10.6211 14.9225 12.0762 13.1136C13.5312 11.3047 15.5668 10.021 17.8589 9.46655C20.151 8.91215 22.568 9.11896 24.7253 10.0541C26.8825 10.9892 28.6561 12.5989 29.7638 14.6271C30.0447 15.1291 30.28 15.6541 30.4671 16.1959C30.7668 17.0757 30.9436 17.9907 30.9926 18.9162C30.9926 19.0746 31 19.2761 31 19.4488Z" fill="#FFD966"/>
<path d="M29.7637 14.6262L13.1749 26.9468C11.7083 25.616 10.663 23.9057 10.1621 22.0171L25.6554 10.5098C27.4007 11.4728 28.8262 12.9012 29.7637 14.6262Z" fill="#FFEE99"/>
<path d="M30.9857 18.9156L17.0988 29.2212C16.1937 28.9357 15.3341 28.5288 14.5449 28.0121L30.4675 16.1953C30.7648 17.0754 30.9391 17.9904 30.9857 18.9156Z" fill="#FFEE99"/>
<path d="M25.8557 13.1876L24.9674 10.0283C24.9046 9.79987 24.7828 9.59085 24.6137 9.42098C24.4446 9.25111 24.2337 9.12602 24.0009 9.05756C23.7681 8.9891 23.5213 8.97953 23.2836 9.02976C23.046 9.07999 22.8255 9.18835 22.643 9.34459L18.1423 13.202C17.9354 13.376 17.7842 13.6042 17.7068 13.8593C17.6294 14.1145 17.629 14.3859 17.7056 14.6413L17.8981 15.3609L18.0905 16.0446C18.1598 16.2961 18.3009 16.5235 18.4973 16.7005C18.6938 16.8774 18.9377 16.9969 19.2009 17.0449L25.1228 18.1532C25.3681 18.2001 25.6218 18.1839 25.8586 18.1062C26.0955 18.0285 26.3074 17.892 26.4734 17.7103C26.6394 17.5286 26.7538 17.3078 26.8051 17.07C26.8564 16.8321 26.843 16.5853 26.7662 16.3541L25.8557 13.1876Z" fill="#F58787"/>
<path d="M9.94033 17.4051L9.05204 14.2386C8.9891 14.0107 8.98662 13.7709 9.04484 13.5418C9.10305 13.3127 9.22007 13.1016 9.38495 12.9284C9.54982 12.7552 9.75718 12.6254 9.98764 12.5512C10.2181 12.477 10.4641 12.4609 10.7028 12.5042L16.6247 13.6125C16.8873 13.6622 17.1303 13.7821 17.3265 13.9589C17.5227 14.1356 17.6642 14.3621 17.7351 14.6128L17.9275 15.3325L18.12 16.0162C18.1904 16.2719 18.1869 16.5416 18.1098 16.7955C18.0328 17.0495 17.8852 17.2778 17.6833 17.4555L13.153 21.2337C12.9698 21.3897 12.7487 21.4978 12.5107 21.5479C12.2726 21.598 12.0254 21.5884 11.7922 21.52C11.5591 21.4517 11.3476 21.3268 11.1777 21.1571C11.0079 20.9874 10.8852 20.7785 10.8212 20.55L9.94033 17.4051Z" fill="#F58787"/>
<path d="M17.1432 16.5273L15.3297 26.6026C15.313 26.699 15.3187 26.7978 15.3464 26.8918C15.3742 26.9858 15.4232 27.0726 15.4899 27.1458C15.5567 27.2189 15.6394 27.2766 15.7321 27.3146C15.8248 27.3526 15.925 27.37 16.0255 27.3654L18.905 27.2503C19.0005 27.2465 19.0941 27.2229 19.1795 27.1812C19.2649 27.1396 19.3402 27.0807 19.4004 27.0085C19.4606 26.9364 19.5044 26.8526 19.5287 26.7628C19.5531 26.6729 19.5575 26.5791 19.5416 26.4874L17.8835 16.7432L17.1432 16.5273Z" fill="#F58787"/>
<path d="M19.0087 17.4554L20.9851 24.1123C21.045 24.332 21.1823 24.5243 21.373 24.6558C21.5637 24.7873 21.7958 24.8496 22.0289 24.8319L23.5094 24.7024C23.6722 24.6833 23.8276 24.6252 23.9616 24.5334C24.0957 24.4416 24.2043 24.3189 24.2776 24.1763C24.351 24.0336 24.3868 23.8756 24.3819 23.7162C24.377 23.5569 24.3316 23.4012 24.2496 23.2631L19.6453 15.6562L19.438 15.8506C19.2243 16.0556 19.0716 16.313 18.996 16.5955C18.9204 16.878 18.9248 17.1751 19.0087 17.4554Z" fill="#F58787"/>
<path d="M20.4484 15.4379L20.0225 13.9172C19.7873 13.0773 18.8964 12.5818 18.0325 12.8105L16.4683 13.2245C15.6044 13.4532 15.0948 14.3194 15.33 15.1593L15.7558 16.68C15.991 17.5198 16.882 18.0153 17.7459 17.7866L19.3101 17.3726C20.174 17.144 20.6836 16.2778 20.4484 15.4379Z" fill="#FFA6A6"/>
</g>
<defs>
<clipPath id="clip0_5649_110245">
<rect width="22" height="22" fill="white" transform="translate(9 9)"/>
</clipPath>
</defs>
</svg>
