<svg width="40" height="40" viewBox="0 0 40 40" fill="none" xmlns="http://www.w3.org/2000/svg">
<rect width="40" height="40" rx="20" fill="#BCD194" fill-opacity="0.2"/>
<g clip-path="url(#clip0_1704_16258)">
<path d="M26.594 9.99998L11.7856 12.2593C11.0046 12.4089 10.3 12.8223 9.79202 13.429C9.28405 14.0358 9.00411 14.7983 8.9999 15.5866V25.6992C8.97901 26.0559 9.03906 26.4126 9.17563 26.7432C9.3122 27.0738 9.52182 27.3699 9.78907 27.6096C10.0563 27.8494 10.3744 28.0267 10.7199 28.1286C11.0654 28.2305 11.4296 28.2543 11.7856 28.1983L26.594 25.9825C27.3745 25.8289 28.0776 25.4134 28.585 24.806C29.0924 24.1986 29.3731 23.4365 29.3798 22.648V12.5209C29.4055 12.1621 29.349 11.8022 29.2144 11.4682C29.0799 11.1342 28.8707 10.8347 28.6027 10.5921C28.3347 10.3496 28.0148 10.1703 27.6669 10.0678C27.319 9.96523 26.9522 9.94205 26.594 9.99998Z" fill="#B37951"/>
<path d="M27.3931 11.7145L13.5597 12.9059C12.1302 13.0294 10.9646 14.0683 10.9646 15.2379V22.5681C10.9646 23.7305 12.1302 24.5732 13.5597 24.4497L27.3931 23.2437C28.8226 23.1202 29.9883 22.0741 29.9883 20.9117V13.5888C29.9883 12.4264 28.7933 11.591 27.3931 11.7145Z" fill="#99FF99"/>
<path d="M27.9943 13.7341H12.0057C11.2098 13.7341 10.4464 14.0469 9.88293 14.6039C9.31947 15.1609 9.00194 15.9167 9 16.7054V27.0214C9.00194 27.8108 9.31922 28.5673 9.88248 29.1254C10.4457 29.6836 11.2091 29.998 12.0057 30H27.9943C28.7909 29.998 29.5543 29.6836 30.1175 29.1254C30.6808 28.5673 30.9981 27.8108 31 27.0214V16.7054C30.9981 15.9167 30.6805 15.1609 30.1171 14.6039C29.5536 14.0469 28.7902 13.7341 27.9943 13.7341Z" fill="#F2AB79"/>
<path d="M24.2409 13.7341L9 21.551V16.4656C9 16.1063 9.07154 15.7505 9.21052 15.4186C9.3495 15.0868 9.55319 14.7853 9.80993 14.5316C10.0667 14.2778 10.3714 14.0768 10.7067 13.9399C11.0419 13.8031 11.4012 13.7331 11.7637 13.7341H24.2409Z" fill="#FCC197"/>
<path d="M19.9961 18.2964H13.479C12.4673 18.2964 11.8442 20.2361 12.8118 21.0352L18.5739 25.5902C18.9773 25.911 19.479 26.0858 19.9961 26.0858C20.5133 26.0858 21.0149 25.911 21.4183 25.5902L27.1877 21.0352C28.0894 20.3087 27.5909 18.2964 26.5206 18.2964H19.9961Z" fill="#B37951"/>
<path d="M19.9963 19.3207H13.4791C13.2575 19.3211 13.0414 19.3896 12.8607 19.5168C12.6801 19.644 12.5437 19.8237 12.4705 20.031C12.3973 20.2383 12.3908 20.4631 12.452 20.6742C12.5132 20.8853 12.639 21.0724 12.812 21.2096L18.5741 25.7646C18.9775 26.0853 19.4792 26.2601 19.9963 26.2601C20.5135 26.2601 21.0151 26.0853 21.4185 25.7646L27.1879 21.2096C27.361 21.0724 27.4868 20.8853 27.548 20.6742C27.6091 20.4631 27.6027 20.2383 27.5294 20.031C27.4562 19.8237 27.3199 19.644 27.1392 19.5168C26.9585 19.3896 26.7424 19.3211 26.5208 19.3207H19.9963Z" fill="#99FF99"/>
</g>
<defs>
<clipPath id="clip0_1704_16258">
<rect width="22" height="20" fill="white" transform="translate(9 10)"/>
</clipPath>
</defs>
</svg>
