<svg width="40" height="40" viewBox="0 0 40 40" fill="none" xmlns="http://www.w3.org/2000/svg">
<rect width="40" height="40" rx="20" fill="#F0D242" fill-opacity="0.2"/>
<g clip-path="url(#clip0_1704_15732)">
<path d="M29.2912 27.7972C29.2905 28.2635 29.1883 28.7241 28.992 29.1466C28.7956 29.5692 28.5097 29.9436 28.1542 30.2437C27.7987 30.5438 27.3823 30.7624 26.9339 30.8841C26.4856 31.0058 26.0162 31.0278 25.5585 30.9485L21.6938 30.2711C20.575 30.0797 19.432 30.0797 18.3132 30.2711L14.4412 30.9485C14.3002 30.9705 14.1583 30.9852 14.0158 30.9927H13.8912C13.0489 30.9888 12.2424 30.6506 11.6476 30.052C11.0527 29.4534 10.7178 28.6428 10.7158 27.7972C10.7133 25.7086 11.253 23.6554 12.2818 21.84C13.3106 20.0247 14.7929 18.5099 16.5825 17.4451C17.6172 16.8316 18.7982 16.511 19.9998 16.5174C20.4036 16.5161 20.8066 16.5556 21.2025 16.6352C21.9784 16.7702 22.7236 17.0446 23.4025 17.4451C25.1931 18.5088 26.6762 20.0233 27.7051 21.8389C28.7341 23.6545 29.2732 25.7083 29.2692 27.7972H29.2912Z" fill="#FFD966"/>
<path d="M29.2912 27.7972C29.2905 28.2635 29.1884 28.7241 28.992 29.1466C28.7956 29.5692 28.5097 29.9436 28.1542 30.2437C27.7988 30.5439 27.3823 30.7624 26.934 30.8841C26.4856 31.0059 26.0162 31.0278 25.5585 30.9485L21.6939 30.2711C20.575 30.0797 19.432 30.0797 18.3132 30.2711L14.4412 30.9485C14.3003 30.9705 14.1583 30.9853 14.0159 30.9927L21.2025 16.6353C21.9784 16.7702 22.7237 17.0446 23.4025 17.4452C25.1932 18.5088 26.6763 20.0233 27.7052 21.8389C28.7341 23.6545 29.2732 25.7083 29.2692 27.7972H29.2912Z" fill="#FAB14B"/>
<path d="M16.4654 15.5382C17.9922 15.5382 19.23 14.0745 19.23 12.2691C19.23 10.4636 17.9922 9 16.4654 9C14.9385 9 13.7007 10.4636 13.7007 12.2691C13.7007 14.0745 14.9385 15.5382 16.4654 15.5382Z" fill="#FFD966"/>
<path d="M26.2992 12.2691C26.2992 14.073 25.0599 15.5308 23.5345 15.5308C22.9846 15.5303 22.4514 15.3406 22.0239 14.9933C21.6221 14.665 21.3003 14.249 21.083 13.7768C20.8656 13.3047 20.7586 12.789 20.7699 12.2691C20.7699 10.4726 22.0092 9 23.5345 9C23.9958 9.0004 24.4469 9.13603 24.8325 9.39023C25.2976 9.7083 25.6757 10.1386 25.932 10.6416C26.1882 11.1447 26.3145 11.7043 26.2992 12.2691Z" fill="#FFD966"/>
<path d="M23.5346 15.5308C22.9846 15.5303 22.4515 15.3406 22.0239 14.9933L24.8326 9.39026C25.2977 9.70833 25.6758 10.1386 25.932 10.6417C26.1883 11.1447 26.3146 11.7043 26.2993 12.2691C26.2993 14.073 25.0599 15.5308 23.5346 15.5308Z" fill="#FAB14B"/>
<path d="M13.9573 16.8046C13.9566 16.4686 13.8883 16.1362 13.7566 15.8273C13.6249 15.5184 13.4323 15.2394 13.1906 15.007C12.9489 14.7746 12.6629 14.5936 12.3498 14.4749C12.0368 14.3561 11.703 14.3021 11.3686 14.316C10.7119 14.372 10.1013 14.6775 9.66114 15.17C9.221 15.6625 8.98454 16.305 8.99998 16.9666V18.1004C9.0006 19.4918 9.47692 20.8407 10.3493 21.9217C10.3897 21.9751 10.4418 22.0184 10.5016 22.0482C10.5614 22.078 10.6272 22.0935 10.694 22.0935C10.7607 22.0935 10.8266 22.078 10.8864 22.0482C10.9462 22.0184 10.9983 21.9751 11.0386 21.9217L13.532 18.2403C13.8195 17.818 13.9682 17.316 13.9573 16.8046Z" fill="#FFD966"/>
<path d="M26.0354 16.8045C26.036 16.4679 26.1045 16.1348 26.2367 15.8254C26.3689 15.516 26.5621 15.2367 26.8046 15.0042C27.0471 14.7717 27.334 14.5909 27.6479 14.4726C27.9618 14.3543 28.2964 14.301 28.6314 14.3159C29.2881 14.372 29.8987 14.6774 30.3389 15.1699C30.779 15.6625 31.0155 16.305 31 16.9665V18.1004C31.0021 19.4909 30.5283 20.84 29.658 21.9217C29.6169 21.9752 29.5641 22.0185 29.5038 22.0483C29.4434 22.0781 29.377 22.0935 29.3097 22.0935C29.2424 22.0935 29.176 22.0781 29.1156 22.0483C29.0552 22.0185 29.0025 21.9752 28.9614 21.9217L26.4754 18.2403C26.1827 17.8197 26.0288 17.3176 26.0354 16.8045Z" fill="#FAB14B"/>
<path d="M24.1579 22.334H21.2833V19.4478C21.2833 19.1061 21.1481 18.7783 20.9074 18.5367C20.6667 18.2951 20.3403 18.1593 19.9999 18.1593C19.6596 18.1593 19.3331 18.2951 19.0925 18.5367C18.8518 18.7783 18.7166 19.1061 18.7166 19.4478V22.334H15.8419C15.5016 22.334 15.1751 22.4698 14.9345 22.7114C14.6938 22.953 14.5586 23.2808 14.5586 23.6225C14.5586 23.9642 14.6938 24.2919 14.9345 24.5336C15.1751 24.7752 15.5016 24.911 15.8419 24.911H18.7166V27.7972C18.7166 28.1389 18.8518 28.4666 19.0925 28.7083C19.3331 28.9499 19.6596 29.0857 19.9999 29.0857C20.3403 29.0857 20.6667 28.9499 20.9074 28.7083C21.1481 28.4666 21.2833 28.1389 21.2833 27.7972V24.911H24.1579C24.4983 24.911 24.8247 24.7752 25.0654 24.5336C25.3061 24.2919 25.4413 23.9642 25.4413 23.6225C25.4413 23.2808 25.3061 22.953 25.0654 22.7114C24.8247 22.4698 24.4983 22.334 24.1579 22.334Z" fill="white"/>
</g>
<defs>
<clipPath id="clip0_1704_15732">
<rect width="22" height="22" fill="white" transform="translate(9 9)"/>
</clipPath>
</defs>
</svg>
