<svg width="40" height="40" viewBox="0 0 40 40" fill="none" xmlns="http://www.w3.org/2000/svg">
<rect width="40" height="40" rx="20" fill="#B0A8F0" fill-opacity="0.2"/>
<g clip-path="url(#clip0_1704_14952)">
<path d="M29.9999 20.6736C29.9984 22.8558 29.3266 24.9811 28.0811 26.7439C26.8356 28.5068 25.0806 29.8161 23.0688 30.4836C21.0569 31.1511 18.8919 31.1423 16.8851 30.4585C14.8784 29.7748 13.1335 28.4512 11.9014 26.6784C10.6694 24.9055 10.0137 22.7748 10.0288 20.5927C10.0439 18.4106 10.7289 16.2898 11.9854 14.5353C13.2418 12.7808 15.0049 11.4831 17.0208 10.8289C19.0368 10.1748 21.2018 10.198 23.2042 10.895C25.1847 11.5868 26.9054 12.9022 28.1243 14.6562C29.3433 16.4103 29.9992 18.5147 29.9999 20.6736Z" fill="#5AB35A"/>
<path d="M30 19.3634C29.9894 21.5436 29.3099 23.6642 28.0591 25.4206C26.8083 27.1771 25.0505 28.4789 23.0384 29.1391C21.0262 29.7993 18.8631 29.784 16.8599 29.0952C14.8568 28.4065 13.1165 27.0798 11.8892 25.3058C10.6619 23.5317 10.0107 21.4017 10.0292 19.2215C10.0477 17.0414 10.7348 14.9234 11.992 13.1718C13.2491 11.4202 15.0115 10.1252 17.0261 9.47271C19.0406 8.82024 21.2036 8.84393 23.2043 9.54039C25.1918 10.2346 26.9174 11.5567 28.137 13.3196C29.3566 15.0825 30.0084 17.1969 30 19.3634Z" fill="#6DD96D"/>
<path d="M23.2042 9.54037L14.4156 27.891C12.4654 26.4647 11.072 24.3666 10.4861 21.974C9.90031 19.5815 10.1605 17.0516 11.2199 14.8395C12.2794 12.6274 14.0685 10.8783 16.2654 9.90691C18.4623 8.93549 20.9227 8.80552 23.2042 9.54037Z" fill="#85F285"/>
<path d="M19.068 15.9361H24.6235C24.6245 15.5742 24.5561 15.2157 24.4225 14.8812C24.2888 14.5466 24.0924 14.2427 23.8446 13.9868C23.5968 13.7309 23.3024 13.5281 22.9785 13.39C22.6545 13.252 22.3073 13.1814 21.9569 13.1824H21.3332V12.568C21.326 12.2143 21.1872 11.8771 20.9456 11.6262C20.704 11.3754 20.3782 11.2302 20.0357 11.2208C19.6821 11.2208 19.343 11.3658 19.0929 11.624C18.8429 11.8822 18.7024 12.2325 18.7024 12.5976V13.2342C17.8091 13.3252 16.9796 13.753 16.3726 14.4358C15.7656 15.1187 15.4236 16.0086 15.4121 16.9354C15.4309 17.9302 15.8293 18.8772 16.5206 19.5702C17.212 20.2633 18.1403 20.6466 19.1038 20.6366H21.1038C21.2181 20.6256 21.3333 20.6393 21.4421 20.6769C21.5509 20.7145 21.6509 20.7751 21.7357 20.8549C21.8205 20.9346 21.8883 21.0318 21.9347 21.1402C21.981 21.2486 22.005 21.3657 22.005 21.4842C22.005 21.6027 21.981 21.7199 21.9347 21.8282C21.8883 21.9366 21.8205 22.0338 21.7357 22.1136C21.6509 22.1934 21.5509 22.254 21.4421 22.2916C21.3333 22.3291 21.2181 22.3428 21.1038 22.3318H15.3762C15.3762 23.0621 15.6572 23.7625 16.1573 24.279C16.6574 24.7954 17.3356 25.0855 18.0429 25.0855H18.6665V25.6999C18.6655 25.8845 18.7004 26.0674 18.7693 26.2378C18.8381 26.4082 18.9393 26.5625 19.0671 26.6916C19.1948 26.8208 19.3464 26.9221 19.5128 26.9895C19.6792 27.0569 19.857 27.0891 20.0357 27.0842C20.3893 27.0842 20.7285 26.9391 20.9785 26.6809C21.2286 26.4227 21.3691 26.0725 21.3691 25.7073V25.0633C22.2911 25.0221 23.1596 24.6043 23.7834 23.9018C24.4071 23.1994 24.7351 22.2698 24.6952 21.3177C24.6553 20.3655 24.2507 19.4687 23.5705 18.8246C22.8902 18.1804 21.9901 17.8417 21.068 17.8829H19.068C18.8068 17.893 18.5523 17.7958 18.3602 17.6127C18.1682 17.4297 18.0541 17.1755 18.0429 16.9058C18.0559 16.6375 18.1708 16.3852 18.3627 16.2037C18.5545 16.0222 18.8079 15.926 19.068 15.9361Z" fill="white"/>
</g>
<defs>
<clipPath id="clip0_1704_14952">
<rect width="20" height="22" fill="white" transform="translate(10 9)"/>
</clipPath>
</defs>
</svg>
