<svg width="40" height="40" viewBox="0 0 40 40" fill="none" xmlns="http://www.w3.org/2000/svg">
<rect width="40" height="40" rx="20" fill="#92C6EC" fill-opacity="0.2"/>
<g clip-path="url(#clip0_5649_110284)">
<path d="M22.9835 27.4675L11.1738 18.4061L26.2222 12.3848L27.0319 14.4335L15.5797 19.0156L24.3111 25.7199L22.9835 27.4675Z" fill="#69808C"/>
<path d="M31.0004 13.7658C31.0033 14.3931 30.8829 15.0148 30.6462 15.5952C30.4095 16.1755 30.0612 16.703 29.6212 17.1473C29.1812 17.5916 28.6583 17.9439 28.0825 18.184C27.5068 18.424 26.8895 18.5471 26.2663 18.5461C25.2288 18.5474 24.2203 18.2013 23.3996 17.5622C22.6051 16.961 22.019 16.123 21.7247 15.1673C21.4303 14.2115 21.4428 13.1867 21.7603 12.2386C22.0777 11.2904 22.6841 10.4671 23.493 9.88566C24.302 9.30427 25.2724 8.99439 26.2663 9.00008C26.8296 8.99705 27.3886 9.09913 27.9149 9.30114C28.8219 9.63699 29.6044 10.2455 30.1564 11.0441C30.7083 11.8427 31.003 12.7929 31.0004 13.7658Z" fill="#F58787"/>
<path d="M18.4829 18.5466C18.4829 19.173 18.3603 19.7934 18.1219 20.372C17.8835 20.9507 17.5342 21.4764 17.0938 21.919C16.6534 22.3617 16.1307 22.7126 15.5555 22.9516C14.9803 23.1907 14.3639 23.3132 13.7416 23.3123C12.8275 23.3307 11.9287 23.0751 11.1593 22.578C10.2803 22.0275 9.6048 21.2022 9.23615 20.2285C8.8675 19.2547 8.82607 18.1861 9.11821 17.1864C9.41035 16.1867 10.0199 15.3109 10.8537 14.6932C11.6874 14.0754 12.6992 13.7498 13.7343 13.7662C14.4223 13.7624 15.1026 13.9129 15.7257 14.2068C16.5495 14.5889 17.2471 15.2009 17.7358 15.9701C18.2246 16.7393 18.4838 17.6335 18.4829 18.5466Z" fill="#73D3E6"/>
<path d="M28.8262 26.1899C28.8301 26.824 28.7093 27.4526 28.4709 28.0395C28.2325 28.6265 27.8812 29.1601 27.4372 29.6099C26.9931 30.0596 26.4651 30.4165 25.8835 30.6601C25.3019 30.9036 24.6783 31.029 24.0484 31.029C23.0251 31.0338 22.0285 30.7011 21.2108 30.0817C20.5541 29.5937 20.0325 28.9445 19.6959 28.1959C19.3592 27.4474 19.2186 26.6245 19.2876 25.8057C19.3566 24.9869 19.6327 24.1996 20.0898 23.5188C20.5469 22.838 21.1696 22.2865 21.8986 21.9167C22.6275 21.547 23.4384 21.3714 24.2539 21.4068C25.0694 21.4422 25.8623 21.6872 26.557 22.1187C27.2517 22.5501 27.825 23.1536 28.2223 23.8714C28.6195 24.5892 28.8274 25.3976 28.8262 26.2193V26.1899Z" fill="#FFB54D"/>
<path d="M15.7259 14.2063L11.1887 22.526C10.3358 21.9675 9.6843 21.1471 9.33087 20.1865C8.97744 19.226 8.94086 18.1763 9.22656 17.1932C9.51226 16.21 10.105 15.3457 10.917 14.7284C11.729 14.111 12.717 13.7734 13.7345 13.7657C14.4225 13.7618 15.1028 13.9123 15.7259 14.2063Z" fill="#94E7F7"/>
<path d="M27.915 9.30113L23.3998 17.5475C22.6112 16.9445 22.0308 16.1074 21.7402 15.1544C21.4497 14.2015 21.4638 13.1807 21.7806 12.2363C22.0974 11.2918 22.7008 10.4713 23.5056 9.89068C24.3105 9.31002 25.2762 8.99849 26.2665 9.00007C26.8297 8.99704 27.3887 9.09912 27.915 9.30113Z" fill="#FF9999"/>
<path d="M25.7771 21.7119L21.2108 30.0536C20.2905 29.3576 19.6507 28.3505 19.4091 27.2175C19.1676 26.0845 19.3405 24.9018 19.896 23.8869C20.4516 22.872 21.3525 22.0931 22.433 21.6935C23.5135 21.2939 24.701 21.3004 25.7771 21.7119Z" fill="#FFD966"/>
<path d="M13.7346 21.2415C15.2212 21.2415 16.4263 20.0284 16.4263 18.5319C16.4263 17.0354 15.2212 15.8223 13.7346 15.8223C12.2481 15.8223 11.043 17.0354 11.043 18.5319C11.043 20.0284 12.2481 21.2415 13.7346 21.2415Z" fill="white"/>
</g>
<defs>
<clipPath id="clip0_5649_110284">
<rect width="22" height="22" fill="white" transform="translate(9 9)"/>
</clipPath>
</defs>
</svg>
