<svg width="40" height="40" viewBox="0 0 40 40" fill="none" xmlns="http://www.w3.org/2000/svg">
<rect width="40" height="40" rx="20" fill="#92C6EC" fill-opacity="0.2"/>
<g clip-path="url(#clip0_1164_15678)">
<path d="M26.5943 10L11.7859 12.2594C11.0048 12.4089 10.3002 12.8223 9.79227 13.429C9.2843 14.0358 9.00435 14.7983 9.00015 15.5866V25.6992C8.97926 26.0559 9.03931 26.4126 9.17588 26.7432C9.31245 27.0738 9.52206 27.3699 9.78931 27.6097C10.0566 27.8494 10.3746 28.0267 10.7202 28.1286C11.0657 28.2305 11.4298 28.2543 11.7859 28.1983L26.5943 25.9826C27.3747 25.8289 28.0779 25.4134 28.5853 24.806C29.0927 24.1986 29.3734 23.4365 29.38 22.648V12.5209C29.4058 12.1621 29.3493 11.8022 29.2147 11.4682C29.0801 11.1342 28.871 10.8347 28.603 10.5921C28.335 10.3496 28.015 10.1704 27.6671 10.0678C27.3193 9.96525 26.9525 9.94207 26.5943 10Z" fill="#B37951"/>
<path d="M27.3934 11.7145L13.56 12.9059C12.1305 13.0294 10.9648 14.0683 10.9648 15.2379V22.5681C10.9648 23.7305 12.1305 24.5732 13.56 24.4497L27.3934 23.2437C28.8229 23.1202 29.9885 22.0741 29.9885 20.9117V13.5888C29.9885 12.4264 28.7936 11.591 27.3934 11.7145Z" fill="#99EEFF"/>
<path d="M27.9943 13.7341H12.0057C11.2098 13.7341 10.4464 14.0469 9.88293 14.6039C9.31947 15.161 9.00194 15.9167 9 16.7054V27.0214C9.00194 27.8108 9.31922 28.5673 9.88248 29.1255C10.4457 29.6837 11.2091 29.9981 12.0057 30H27.9943C28.7909 29.9981 29.5543 29.6837 30.1175 29.1255C30.6808 28.5673 30.9981 27.8108 31 27.0214V16.7054C30.9981 15.9167 30.6805 15.161 30.1171 14.6039C29.5536 14.0469 28.7902 13.7341 27.9943 13.7341Z" fill="#F2AB79"/>
<path d="M24.2409 13.7341L9 21.551V16.4657C9 16.1063 9.07154 15.7506 9.21052 15.4187C9.3495 15.0868 9.55319 14.7853 9.80993 14.5316C10.0667 14.2778 10.3714 14.0768 10.7067 13.9399C11.0419 13.8031 11.4012 13.7332 11.7637 13.7341H24.2409Z" fill="#FCC197"/>
<path d="M19.9965 25.0236H26.5209C27.8112 25.0236 27.9871 22.5681 27.1881 21.9724L21.4186 17.6135C21.0095 17.3059 20.51 17.1394 19.9965 17.1394C19.4829 17.1394 18.9834 17.3059 18.5743 17.6135L12.8122 21.9724C12.0204 22.5681 12.2624 25.0236 13.4793 25.0236H19.9965Z" fill="#B37951"/>
<path d="M19.9965 25.0236H26.521C26.7427 25.0233 26.9588 24.9548 27.1394 24.8276C27.3201 24.7003 27.4565 24.5207 27.5297 24.3133C27.6029 24.106 27.6094 23.8813 27.5482 23.6702C27.487 23.4591 27.3612 23.272 27.1882 23.1348L21.4187 18.5797C21.0154 18.259 20.5137 18.0842 19.9965 18.0842C19.4794 18.0842 18.9777 18.259 18.5744 18.5797L12.8123 23.1348C12.6392 23.272 12.5134 23.4591 12.4522 23.6702C12.391 23.8813 12.3975 24.106 12.4707 24.3133C12.544 24.5207 12.6803 24.7003 12.861 24.8276C13.0417 24.9548 13.2577 25.0233 13.4794 25.0236H19.9965Z" fill="#99EEFF"/>
</g>
<defs>
<clipPath id="clip0_1164_15678">
<rect width="22" height="20" fill="white" transform="translate(9 10)"/>
</clipPath>
</defs>
</svg>
