<svg width="241" height="200" viewBox="0 0 241 200" fill="none" xmlns="http://www.w3.org/2000/svg">
<g clip-path="url(#clip0_3595_48517)">
<path d="M71.2376 85.1888C71.2726 86.4906 71.0432 87.7861 70.5629 88.9989C70.0827 90.2117 69.3614 91.3172 68.4416 92.2502C67.5217 93.1832 66.422 93.9247 65.2073 94.431C63.9926 94.9374 62.6875 95.1982 61.3691 95.1982C60.0506 95.1982 58.7455 94.9374 57.5308 94.431C56.3161 93.9247 55.2164 93.1832 54.2966 92.2502C53.3767 91.3172 52.6554 90.2117 52.1752 88.9989C51.695 87.7861 51.4656 86.4906 51.5005 85.1888C51.5034 84.7048 51.5382 84.2215 51.6047 83.7419C51.9582 81.4331 53.1382 79.3261 54.9305 77.8034C56.7228 76.2807 59.0085 75.4434 61.3725 75.4434C63.7366 75.4434 66.0223 76.2807 67.8146 77.8034C69.6069 79.3261 70.7869 81.4331 71.1404 83.7419C71.2045 84.2216 71.237 84.7049 71.2376 85.1888Z" fill="#F2A179"/>
<path d="M71.1402 83.7419C70.7867 86.0507 69.6067 88.1578 67.8144 89.6805C66.0221 91.2031 63.7364 92.0405 61.3724 92.0405C59.0083 92.0405 56.7226 91.2031 54.9303 89.6805C53.138 88.1578 51.958 86.0507 51.6045 83.7419C51.958 81.4331 53.138 79.3261 54.9303 77.8034C56.7226 76.2807 59.0083 75.4434 61.3724 75.4434C63.7364 75.4434 66.0221 76.2807 67.8144 77.8034C69.6067 79.3261 70.7867 81.4331 71.1402 83.7419Z" fill="#FFD9A6"/>
<path d="M71.2371 116.251C71.1688 118.792 70.0992 121.205 68.2559 122.978C66.4126 124.751 63.9414 125.743 61.3685 125.743C58.7956 125.743 56.3244 124.751 54.4811 122.978C52.6379 121.205 51.5682 118.792 51.5 116.251C51.502 115.718 51.5461 115.186 51.6319 114.66C52.013 112.38 53.2015 110.308 54.9854 108.814C56.7692 107.319 59.0326 106.498 61.372 106.498C63.7114 106.498 65.9748 107.319 67.7586 108.814C69.5425 110.308 70.7309 112.38 71.1121 114.66C71.1956 115.187 71.2374 115.718 71.2371 116.251Z" fill="#F2A179"/>
<path d="M71.113 114.66C70.7319 116.94 69.5434 119.012 67.7595 120.507C65.9757 122.002 63.7123 122.822 61.3729 122.822C59.0335 122.822 56.7701 122.002 54.9863 120.507C53.2024 119.012 52.014 116.94 51.6328 114.66C52.014 112.38 53.2024 110.308 54.9863 108.814C56.7701 107.319 59.0335 106.498 61.3729 106.498C63.7123 106.498 65.9757 107.319 67.7595 108.814C69.5434 110.308 70.7319 112.38 71.113 114.66Z" fill="#FFD9A6"/>
<path d="M74.2783 152.883C79.9068 152.883 84.4696 148.376 84.4696 142.816C84.4696 137.257 79.9068 132.75 74.2783 132.75C68.6497 132.75 64.0869 137.257 64.0869 142.816C64.0869 148.376 68.6497 152.883 74.2783 152.883Z" fill="#F2A179"/>
<path d="M183.724 190.377C182.995 190.83 182.211 191.282 181.35 191.749C174.373 195.376 163.161 198.4 148.249 193.353C146.86 192.873 145.382 192.325 143.896 191.687C142.246 190.988 140.79 189.909 139.649 188.539C138.509 187.169 137.718 185.549 137.342 183.815L133.274 164.896C133.274 164.896 104.637 167.886 99.6455 140.032H123.944C125.281 140.035 126.603 139.75 127.817 139.196C129.18 138.569 130.37 137.628 131.289 136.453C132.568 134.838 133.26 132.846 133.253 130.796V61.4082C133.253 61.4082 150.817 77.2619 160.578 91.8333C170.339 106.405 179.232 128.032 177.059 147.959L187.626 179.543C188.295 181.52 188.274 183.661 187.567 185.625C186.86 187.589 185.507 189.262 183.724 190.377Z" fill="#FFD9A6"/>
<path d="M160.593 106.508C160.593 106.508 143.674 83.7421 133.268 83.7421V70.8369C133.268 70.8369 156.865 93.3215 160.593 106.508Z" fill="#F2A179"/>
<path d="M148.242 193.332C146.441 192.724 144.59 191.995 142.688 191.145C141.396 190.569 140.26 189.701 139.371 188.611C138.482 187.521 137.866 186.24 137.571 184.87L133.274 164.875C133.274 164.875 104.637 167.885 99.6455 140.032H123.944C125.364 140.033 126.766 139.712 128.041 139.095C129.317 138.479 130.432 137.581 131.303 136.473L146.062 159.314C136.523 159.314 143.264 178.082 148.242 193.332Z" fill="#F2A179"/>
<path d="M188.125 181.038C188.621 182.527 188.618 184.134 188.118 185.622C187.618 187.11 186.647 188.4 185.349 189.301C184.064 190.193 182.724 191.003 181.336 191.728C186.473 179.385 173.165 164.903 177.066 147.959L188.125 181.038Z" fill="#F2A179"/>
<path d="M128.872 4H72.5909C71.117 4 69.6576 4.28685 68.296 4.84416C66.9344 5.40147 65.6974 6.21831 64.6555 7.24802C63.6137 8.27772 62.7874 9.50011 62.2241 10.8453C61.6607 12.1905 61.3712 13.6322 61.3721 15.088V135.582C61.3712 137.037 61.6607 138.479 62.2241 139.824C62.7874 141.17 63.6137 142.392 64.6555 143.422C65.6974 144.451 66.9344 145.268 68.296 145.826C69.6576 146.383 71.117 146.67 72.5909 146.67H128.872C130.347 146.671 131.807 146.384 133.169 145.828C134.532 145.271 135.77 144.454 136.812 143.424C137.855 142.394 138.682 141.172 139.245 139.826C139.809 138.48 140.099 137.038 140.098 135.582V15.088C140.098 12.1473 138.915 9.327 136.81 7.2476C134.705 5.1682 131.85 4 128.872 4V4ZM136.197 135.582C136.191 137.499 135.418 139.336 134.045 140.691C132.673 142.047 130.813 142.811 128.872 142.816H72.5909C70.6507 142.811 68.7917 142.046 67.4205 140.691C66.0492 139.335 65.2773 137.498 65.2737 135.582V15.088C65.2791 13.1722 66.0516 11.3363 67.4225 9.98099C68.7933 8.62567 70.6513 7.86095 72.5909 7.85371H74.7499C76.0366 7.85386 77.3051 8.15387 78.4523 8.72936C79.5995 9.30485 80.593 10.1396 81.3521 11.1657C82.1138 12.1977 83.1164 13.0327 84.2748 13.6C85.4279 14.1778 86.7029 14.4786 87.9959 14.4777H113.474C114.769 14.4797 116.045 14.1795 117.2 13.6016C118.354 13.0236 119.354 12.1843 120.118 11.152C120.878 10.1271 121.872 9.29323 123.019 8.71787C124.166 8.14251 125.434 7.84178 126.72 7.84H128.872C130.816 7.84544 132.677 8.61125 134.05 9.96973C135.423 11.3282 136.195 13.1686 136.197 15.088V135.582Z" fill="#406980"/>
<path d="M136.197 15.0878V135.582C136.192 137.499 135.418 139.335 134.046 140.691C132.674 142.046 130.814 142.81 128.873 142.816H72.5916C70.6515 142.81 68.7925 142.046 67.4212 140.691C66.05 139.335 65.2781 137.498 65.2744 135.582V15.0878C65.2799 13.172 66.0524 11.3361 67.4232 9.9808C68.7941 8.62547 70.652 7.86075 72.5916 7.85352H74.7507C76.0374 7.85366 77.3058 8.15367 78.453 8.72916C79.6002 9.30466 80.5937 10.1394 81.3529 11.1655C82.1145 12.1975 83.1172 13.0325 84.2756 13.5998C85.4287 14.1776 86.7036 14.4784 87.9967 14.4775H113.475C114.769 14.4795 116.046 14.1793 117.201 13.6014C118.355 13.0234 119.355 12.1841 120.119 11.1518C120.809 10.2202 121.694 9.44554 122.713 8.88013C123.732 8.31472 124.862 7.97167 126.027 7.87409C126.263 7.87409 126.485 7.87409 126.721 7.87409H128.873C130.81 7.87948 132.667 8.64058 134.039 9.99166C135.41 11.3427 136.186 13.1744 136.197 15.0878Z" fill="#D9FFF9"/>
<path d="M136.197 130.391V135.581C136.192 137.498 135.418 139.335 134.046 140.691C132.674 142.046 130.814 142.81 128.873 142.816H72.5916C70.6515 142.81 68.7925 142.046 67.4212 140.69C66.05 139.335 65.2781 137.498 65.2744 135.581V130.391H136.197Z" fill="white"/>
<path d="M111.587 7.85352H89.8918C89.1442 7.85352 88.5381 8.45218 88.5381 9.19066V9.19752C88.5381 9.936 89.1442 10.5347 89.8918 10.5347H111.587C112.334 10.5347 112.94 9.936 112.94 9.19752V9.19066C112.94 8.45218 112.334 7.85352 111.587 7.85352Z" fill="#263F4D"/>
<path d="M126.651 82.8568V130.363H77.9162C73.3968 126.777 80.1586 107.92 77.9162 106.48C76.4375 105.527 75.903 103.154 76.3195 101.289C76.3267 101.221 76.3407 101.155 76.3612 101.09C76.442 100.685 76.6032 100.299 76.8356 99.9553C77.0679 99.6116 77.3668 99.3168 77.7149 99.0877C79.8393 97.8808 79.0617 94.0683 77.7149 92.738C76.3681 91.4077 76.618 88.8774 76.618 88.8774C77.5414 90.6534 83.2202 88.0271 80.9986 85.8328C78.7771 83.6385 78.5341 80.8477 82.3038 79.0854C83.3551 78.677 84.2866 78.0161 85.0139 77.1623C85.7413 76.3086 86.2415 75.2891 86.4692 74.1963C86.6914 73.4008 86.8649 72.5094 87.101 71.5288L88.4478 69.2385L91.3635 64.2602L107.331 63.4717C107.331 63.4717 116.321 67.9151 117.835 68.8271C119.043 69.554 118.98 70.8843 118.654 72.1391C118.577 72.4614 118.473 72.8248 118.376 73.0991C117.89 74.6282 118.376 75.6705 120.251 76.8363C122.125 78.002 122.069 80.594 122.069 80.594L126.651 82.8568Z" fill="#B5BBBF"/>
<path d="M89.1621 72.7637L88.3707 75.3145C86.0589 83.4745 81.6366 79.4288 84.1289 85.1888C86.6212 90.9488 79.5817 90.9694 79.5817 90.9694C79.5817 90.9694 82.5114 93.3282 81.3173 96.3316C80.1579 99.2322 76.7076 99.7602 76.3535 101.132C76.4344 100.726 76.5956 100.341 76.8279 99.997C77.0603 99.6533 77.3591 99.3585 77.7073 99.1294C79.8316 97.9225 79.0541 94.1099 77.7073 92.7797C76.3605 91.4494 76.6104 88.9191 76.6104 88.9191C77.5337 90.6951 83.2125 88.0688 80.991 85.8745C78.7694 83.6802 78.5265 80.8894 82.2962 79.1271C86.0658 77.3648 86.2533 75.1019 87.0794 71.5842L88.4262 69.2939L89.1621 72.7637Z" fill="#CED3D9"/>
<path d="M91.4115 73.2575C91.4115 77.7215 91.9599 79.8609 90.1133 82.8575C91.9996 82.4601 93.7688 81.6415 95.2853 80.4643C95.2853 80.4643 89.5371 87.1432 91.3421 92.1763C91.3421 92.1763 92.9735 89.6049 95.2853 88.6449C95.2853 88.6449 93.522 92.3409 96.5072 95.2826H112.12L116.022 80.4643L113.939 76.8095C113.939 76.8095 116.459 77.1318 117.515 78.8186C117.515 78.8186 117.265 72.3112 113.773 71.4266C110.281 70.542 109.954 67.998 109.954 67.998H91.3421L91.4115 73.2575Z" fill="#E6ECF2"/>
<path opacity="0.1" d="M118.619 72.1664C117.945 71.8434 117.209 71.6635 116.46 71.6384C116.418 72.3697 116.208 73.0821 115.848 73.7222C115.487 74.3623 114.984 74.9134 114.377 75.3344L109.337 72.9275C108.685 74.6144 104.589 77.0418 104.589 77.0418L101.937 75.0327L99.625 77.0898L97.82 75.0327V77.851C95.0014 76.9595 92.8285 74.1481 92.8285 74.1481C91.44 76.5618 88.1077 77.851 88.1077 77.851L86.4346 74.2441C86.6567 73.4487 86.8303 72.5572 87.0663 71.5767L88.4131 69.2864L91.3289 64.3081L107.296 63.5195C107.296 63.5195 116.287 67.963 117.8 68.875C119.008 69.5812 118.946 70.891 118.619 72.1664Z" fill="black"/>
<path d="M87.8018 37.6618V65.0287H84.3306C79.9431 65.0287 78.6379 60.3658 78.6379 60.3658C75.3125 62.135 75.9582 65.9887 75.9582 65.9887C69.9322 61.9704 73.8755 51.047 73.8755 51.047C72.1676 52.4184 69.3213 49.6755 69.3213 49.6755C72.1676 48.7978 71.4387 42.5304 73.7158 38.1075C75.9929 33.6847 80.4637 37.5933 84.8235 37.5933L87.8018 37.6618Z" fill="#787D80"/>
<path d="M87.8018 37.6616V39.6571L85.4344 39.4513C78.6101 39.0193 76.6593 38.8068 75.4097 42.8799C74.1601 46.9531 73.2437 49.7371 69.2588 49.7371C72.1051 48.8593 71.3762 42.5919 73.6533 38.1691C75.9304 33.7462 80.4012 37.6548 84.761 37.6548L87.8018 37.6616Z" fill="#8F9599"/>
<path d="M116.869 36.9145C119.646 35.3236 122.777 35.2413 124.318 41.4265C125.86 47.6116 128.546 51.0265 128.546 51.0265C126.936 51.2734 125.297 51.2734 123.687 51.0265C123.687 51.0265 130.108 56.5122 128.546 61.4082C126.984 66.3042 126.651 66.3385 126.651 66.3385C126.651 66.3385 125.623 61.7785 123.832 61.4082C123.832 61.4082 124.485 65.1316 122.444 66.3385C122.444 66.3385 121.875 64.1716 118.278 64.6516C116.373 64.8605 114.505 65.3217 112.725 66.023V40.151L116.869 36.9145Z" fill="#787D80"/>
<path d="M97.1675 71.5636C98.1654 72.5498 99.2822 73.4111 100.493 74.1281L101.347 71.2756L102.971 74.1281C103.743 73.3434 104.262 72.351 104.464 71.2756C104.839 69.431 104.464 65.6458 104.464 65.6458L98.7018 64.2744L95.2861 67.5658L96.0151 71.1041L97.1675 71.5636Z" fill="#9DA2A6"/>
<path d="M119.022 70.4392C119.022 69.0678 115.454 67.5455 115.454 67.5455C116.592 68.6701 114.148 72.6061 114.148 72.6061C111.226 72.2015 109.289 69.4175 109.289 69.4175C109.289 71.6049 104.603 74.053 104.603 74.053C104.603 74.053 104.922 68.8004 102.367 66.7844C101.595 66.1852 100.615 65.9095 99.6389 66.0164C98.996 66.0403 98.3719 66.237 97.8339 66.5855C95.2374 68.4575 98.1324 73.9432 98.1324 73.9432C96.9151 73.9707 95.7196 73.6212 94.7136 72.9436C93.7076 72.266 92.9416 71.2943 92.523 70.1649C92.523 72.9832 88.8574 76.1101 88.8574 76.1101C86.7747 73.1341 86.6428 67.8404 86.6428 67.8404L82.8454 69.8975C82.1511 61.9432 86.6428 60.6609 86.6428 60.6609C86.4608 60.7036 86.2745 60.7266 86.0874 60.7295C85.4816 60.7269 84.8825 60.6041 84.3256 60.3685C83.7687 60.133 83.2654 59.7894 82.8454 59.3581C83.8009 58.7703 84.6286 58.0009 85.2805 57.0945C85.9324 56.1881 86.3955 55.1628 86.6428 54.0781L89.51 41.2072C89.51 41.2072 107.643 40.1512 111.205 41.9204C113.628 43.1135 115.488 47.8175 116.439 50.7249C116.891 52.0964 117.134 53.0769 117.134 53.0769C116.641 52.9503 116.128 52.9282 115.626 53.0122C115.125 53.0961 114.647 53.2841 114.225 53.5638C117.696 54.9352 117.474 58.9467 117.474 58.9467C115.606 57.9867 114.697 60.3935 114.697 60.3935C121.396 62.8004 119.022 70.4392 119.022 70.4392Z" fill="#B5BBBF"/>
<path d="M111.204 48.5718C110.47 50.4176 110.157 52.4008 110.288 54.3798L105.269 52.1855C105.269 52.1855 101.201 54.3593 101.936 56.5261C101.936 56.5261 98.7985 54.757 98.7985 53.4335C98.7985 53.4335 97.2157 58.0484 93.807 60.1398C93.5619 59.4197 93.1509 58.7655 92.6064 58.2289C92.0619 57.6923 91.3987 57.2878 90.6691 57.0473C90.6691 57.0473 90.7454 60.1398 86.6217 60.7021L86.0663 60.7707C85.4605 60.768 84.8614 60.6453 84.3045 60.4097C83.7476 60.1741 83.2442 59.8305 82.8242 59.3993C83.7797 58.8115 84.6074 58.042 85.2593 57.1356C85.9112 56.2292 86.3743 55.2039 86.6217 54.1192L89.4889 41.2484C89.4889 41.2484 107.643 40.1513 111.204 41.9204C113.627 43.1135 115.488 47.8175 116.439 50.725L111.204 48.5718Z" fill="#9DA2A6"/>
<path d="M84.1296 35.0908L85.3514 39.9868C85.3514 39.9868 79.985 42.2359 77.7148 47.6188C77.7148 47.6188 82.4356 45.7742 86.1775 46.981C86.1775 46.981 81.6234 49.4702 83.4909 56.0188L88.4546 53.0702C88.4546 53.0702 93.6128 54.3319 93.9044 56.5399C93.9044 56.5399 98.8612 51.637 96.834 47.461C96.834 47.461 100.166 48.8325 100.736 51.877C100.736 51.877 105.449 46.8988 103.172 43.3605C103.172 43.3605 107.733 43.9776 107.157 47.0565C107.157 47.0565 110.413 45.1296 109.358 43.1205C109.358 43.1205 114.912 44.245 115.78 48.6062C115.78 48.6062 116.675 42.7433 114.238 41.8588C114.238 41.8588 118.793 39.205 116.516 36.373C116.516 36.373 113.176 39.8016 110.497 37.1753C110.497 37.1753 114.072 34.6862 112.774 32.437C112.774 32.437 110.899 34.6039 107.081 33.3216C103.263 32.0393 101.957 30.0576 101.957 30.0576C100.726 30.3916 99.5851 30.9893 98.6144 31.8082C97.6437 32.6271 96.8675 33.6472 96.3411 34.7959C96.3411 34.7959 92.4395 35.1936 90.9747 33.7536C90.7921 34.3618 90.4581 34.9151 90.0034 35.3631C89.5486 35.8111 88.9875 36.1394 88.3713 36.3182C86.3372 36.7776 84.1296 35.0908 84.1296 35.0908Z" fill="#CED3D9"/>
<path d="M102.374 66.7837C101.729 67.3147 100.907 67.5887 100.068 67.5519C99.2298 67.5151 98.4354 67.1702 97.8408 66.5849C98.3788 66.2364 99.0029 66.0396 99.6458 66.0157C100.622 65.9088 101.602 66.1846 102.374 66.7837Z" fill="#994D4D"/>
<path d="M100.298 59.4261H97.007C96.666 59.4265 96.3334 59.5302 96.054 59.7233C95.7745 59.9163 95.5618 60.1894 95.4445 60.5056C95.3272 60.8218 95.3109 61.166 95.3979 61.4917C95.4849 61.8173 95.6709 62.1088 95.9309 62.3267L99.534 65.3644C99.7483 65.5468 100.022 65.6472 100.305 65.6472C100.587 65.6472 100.861 65.5468 101.075 65.3644L104.678 62.3267C104.941 62.1069 105.128 61.8123 105.214 61.4833C105.3 61.1543 105.281 60.8071 105.159 60.4893C105.037 60.1714 104.819 59.8986 104.534 59.7083C104.249 59.5179 103.911 59.4193 103.568 59.4261H100.298Z" fill="#303233"/>
<path d="M111.899 52.6031C111.727 52.1656 111.469 51.7659 111.14 51.427C110.811 51.0881 110.418 50.8167 109.983 50.6283C109.117 50.2246 108.16 50.0521 107.206 50.1277C106.294 50.1859 105.404 50.4336 104.595 50.8546C103.789 51.2615 103.095 51.8571 102.575 52.5894C103.499 52.5208 104.297 52.3906 105.081 52.2877H105.213C105.029 52.6256 104.925 53.0005 104.91 53.384C104.894 53.7674 104.968 54.1493 105.124 54.5006C105.281 54.8518 105.516 55.1632 105.813 55.411C106.11 55.6588 106.46 55.8365 106.836 55.9306C107.213 56.0247 107.606 56.0327 107.987 55.954C108.367 55.8753 108.724 55.7119 109.031 55.4764C109.337 55.2408 109.586 54.9393 109.757 54.5947C109.928 54.2501 110.017 53.8715 110.017 53.4877C110.014 53.0007 109.869 52.5248 109.601 52.1163C110.383 52.1914 111.154 52.3548 111.899 52.6031Z" fill="#303233"/>
<path d="M107.026 98.2578H93.252V130.39H107.026V98.2578Z" fill="#787D80"/>
<path d="M98.7847 125.995C97.4796 129.534 96.2924 130.391 96.2924 130.391H83.2756C82.193 128.663 81.5344 126.709 81.3525 124.686C81.3637 122.71 81.5965 120.741 82.0468 118.816C82.6091 115.991 83.2617 112.926 83.2617 110.683C83.2617 106.61 81.8732 102.647 82.6855 99.9655C83.4977 97.2844 85.9553 96.6535 85.4207 92.793C85.4207 92.793 89.1488 92.8958 89.1488 96.5438C90.9469 95.3451 93.1016 94.7798 95.265 94.9392L98.4584 99.9998C95.7509 107.076 94.1195 105.547 95.744 110.491C97.3685 115.435 97.5907 113.982 96.7784 117.39C96.5544 118.434 96.73 119.524 97.2713 120.448C98.1669 122.155 99.6317 123.684 98.7847 125.995Z" fill="#9DA2A6"/>
<path d="M120.23 130.391H106.054C104.096 127.497 106.699 124.713 106.054 121.477C105.408 118.24 104.269 118.782 103.797 114.585C103.325 110.389 105.075 107.728 104.637 105.246C104.2 102.764 117.488 101.817 117.488 101.817C117.488 101.817 119.716 110.142 118.411 114.318C117.106 118.494 118.335 118.275 119.022 120.633C119.154 121.086 119.286 121.559 119.404 122.046C119.904 124.103 120.147 126.27 119.015 127.381C117.633 128.8 120.23 130.391 120.23 130.391Z" fill="#9DA2A6"/>
<path d="M120.229 130.391H106.053C104.095 127.497 106.698 124.713 106.053 121.477L109.92 125.063C110.271 124.473 110.484 123.812 110.542 123.129C110.6 122.446 110.501 121.76 110.253 121.12C112.204 121.806 114.321 123.938 114.321 123.938C114.321 122.155 116.022 119.899 116.022 119.899C117.001 121.545 119.403 122.08 119.403 122.08C119.903 124.137 120.146 126.304 119.014 127.415C117.633 128.8 120.229 130.391 120.229 130.391Z" fill="#E6ECF2"/>
<path d="M98.7847 125.996C97.4796 129.534 96.2924 130.391 96.2924 130.391H83.2756C82.193 128.664 81.5344 126.71 81.3525 124.686C81.3637 122.71 81.5965 120.742 82.0468 118.816L86.0456 121.086L88.3226 118.837L90.0999 121.45L94.0501 117.534C94.0501 117.534 95.6815 118.858 97.2574 120.414C98.1669 122.156 99.6317 123.685 98.7847 125.996Z" fill="#E6ECF2"/>
<path d="M147.798 159.314C145.917 159.323 144.037 159.226 142.168 159.026C115.044 156.146 128.109 131.515 123.076 121.175C117.876 110.471 119.175 104.464 119.175 104.464C119.175 104.464 91.8496 111.321 91.8496 95.2547C91.8496 79.1884 112.239 79.6204 128.505 81.1221C136.412 81.8079 144.424 88.5484 150.568 95.2479C154.586 99.6614 158.231 104.393 161.467 109.394C141.293 109.394 147.798 159.314 147.798 159.314Z" fill="#FFD9A6"/>
<path d="M150.561 95.2479C139.453 84.2765 127.651 84.3245 112.448 84.3245C97.2439 84.3245 95.3139 89.2547 91.8428 95.2479C91.8428 79.1816 112.232 79.6136 128.498 81.1153C136.406 81.8422 144.417 88.5485 150.561 95.2479Z" fill="#FFE9CC"/>
<path d="M142.16 159.027C115.037 156.147 128.102 131.516 123.069 121.175C117.869 110.471 119.167 104.464 119.167 104.464C119.167 104.464 125.895 102.757 129.581 97.3945C129.581 97.3945 127.089 103.936 124.374 106.611C125.77 107.239 127.287 107.564 128.821 107.564C130.355 107.564 131.871 107.239 133.267 106.611C133.267 106.611 129.796 112.179 126.651 112.179C126.651 112.179 132.504 120.963 129.581 131.036C126.658 141.109 126.991 156.599 142.16 159.027Z" fill="#F2A179"/>
<path d="M159.211 114.557C157.461 136.603 151.574 133.942 150.589 141.691C149.818 147.801 164.147 149.234 165.931 138.475C167.715 127.716 160.349 100.198 159.211 114.557Z" fill="#FFE9CC"/>
<path d="M89.7526 102.729H72.2441C70.3116 102.729 68.7451 104.277 68.7451 106.185V123.479C68.7451 125.388 70.3116 126.935 72.2441 126.935H89.7526C91.685 126.935 93.2516 125.388 93.2516 123.479V106.185C93.2516 104.277 91.685 102.729 89.7526 102.729Z" fill="white"/>
<path d="M75.5418 111.739H73.0217C72.392 111.739 71.7881 111.492 71.3429 111.052C70.8976 110.612 70.6475 110.016 70.6475 109.394V106.898C70.6475 106.59 70.7089 106.285 70.8282 106C70.9475 105.716 71.1224 105.457 71.3429 105.24C71.5633 105.022 71.8251 104.849 72.1131 104.731C72.4012 104.613 72.7099 104.553 73.0217 104.553H75.5557C76.1854 104.553 76.7893 104.8 77.2346 105.24C77.6798 105.679 77.93 106.276 77.93 106.898V109.394C77.93 109.703 77.8681 110.009 77.7479 110.295C77.6277 110.58 77.4516 110.839 77.2297 111.057C77.0077 111.275 76.7443 111.447 76.4547 111.564C76.165 111.682 75.8548 111.741 75.5418 111.739ZM73.0217 105.835C72.7376 105.837 72.4656 105.95 72.2653 106.149C72.065 106.348 71.9526 106.617 71.9526 106.898V109.394C71.9526 109.675 72.065 109.944 72.2653 110.143C72.4656 110.342 72.7376 110.455 73.0217 110.457H75.5557C75.8399 110.455 76.1118 110.342 76.3121 110.143C76.5124 109.944 76.6248 109.675 76.6248 109.394V106.898C76.6248 106.617 76.5124 106.348 76.3121 106.149C76.1118 105.95 75.8399 105.837 75.5557 105.835H73.0217Z" fill="#333333"/>
<path d="M74.8543 106.781H73.688C73.2471 106.781 72.8896 107.134 72.8896 107.57V108.722C72.8896 109.157 73.2471 109.51 73.688 109.51H74.8543C75.2953 109.51 75.6527 109.157 75.6527 108.722V107.57C75.6527 107.134 75.2953 106.781 74.8543 106.781Z" fill="#333333"/>
<path d="M75.5418 125.042H73.0218C72.3926 125.04 71.7898 124.792 71.3449 124.353C70.9001 123.914 70.6493 123.318 70.6475 122.697V120.194C70.6457 119.884 70.7057 119.578 70.8241 119.291C70.9425 119.005 71.117 118.744 71.3376 118.524C71.5581 118.305 71.8204 118.13 72.1094 118.01C72.3985 117.891 72.7085 117.829 73.0218 117.828H75.5557C76.1849 117.83 76.7877 118.078 77.2326 118.517C77.6774 118.956 77.9282 119.552 77.93 120.173V122.676C77.9318 122.987 77.8714 123.295 77.7521 123.582C77.6328 123.869 77.4571 124.131 77.235 124.351C77.013 124.57 76.7491 124.745 76.4585 124.863C76.1678 124.982 75.8563 125.043 75.5418 125.042ZM73.0218 119.138C72.7382 119.138 72.4663 119.249 72.2658 119.447C72.0653 119.645 71.9527 119.914 71.9527 120.194V122.697C71.9527 122.977 72.0653 123.245 72.2658 123.443C72.4663 123.641 72.7382 123.753 73.0218 123.753H75.5557C75.8393 123.753 76.1112 123.641 76.3117 123.443C76.5122 123.245 76.6248 122.977 76.6248 122.697V120.194C76.6248 119.914 76.5122 119.645 76.3117 119.447C76.1112 119.249 75.8393 119.138 75.5557 119.138H73.0218Z" fill="#333333"/>
<path d="M74.8543 120.078H73.688C73.2471 120.078 72.8896 120.431 72.8896 120.867V122.019C72.8896 122.454 73.2471 122.807 73.688 122.807H74.8543C75.2953 122.807 75.6527 122.454 75.6527 122.019V120.867C75.6527 120.431 75.2953 120.078 74.8543 120.078Z" fill="#333333"/>
<path d="M89.0451 111.739H86.5111C86.1987 111.74 85.8892 111.68 85.6004 111.562C85.3115 111.445 85.049 111.272 84.8277 111.055C84.6065 110.837 84.431 110.578 84.3113 110.293C84.1915 110.008 84.1299 109.702 84.1299 109.394V106.898C84.1299 106.276 84.38 105.679 84.8253 105.24C85.2706 104.8 85.8745 104.553 86.5042 104.553H89.0381C89.6666 104.555 90.2687 104.802 90.7125 105.242C91.1563 105.682 91.4055 106.277 91.4054 106.898V109.394C91.4055 110.013 91.1572 110.608 90.715 111.047C90.2727 111.487 89.6723 111.735 89.0451 111.739ZM86.5111 105.835C86.2269 105.837 85.955 105.95 85.7547 106.149C85.5544 106.348 85.442 106.617 85.442 106.898V109.394C85.442 109.675 85.5544 109.944 85.7547 110.143C85.955 110.342 86.2269 110.455 86.5111 110.457H89.0451C89.3292 110.455 89.6012 110.342 89.8015 110.143C90.0018 109.944 90.1142 109.675 90.1142 109.394V106.898C90.1142 106.617 90.0018 106.348 89.8015 106.149C89.6012 105.95 89.3292 105.837 89.0451 105.835H86.5111Z" fill="#333333"/>
<path d="M88.3573 106.781H87.1909C86.75 106.781 86.3926 107.134 86.3926 107.57V108.722C86.3926 109.157 86.75 109.51 87.1909 109.51H88.3573C88.7982 109.51 89.1556 109.157 89.1556 108.722V107.57C89.1556 107.134 88.7982 106.781 88.3573 106.781Z" fill="#333333"/>
<path d="M80.5611 105.52C80.5611 104.986 80.1244 104.553 79.5858 104.553C79.0471 104.553 78.6104 104.986 78.6104 105.52V115.84C78.6104 116.374 79.0471 116.806 79.5858 116.806C80.1244 116.806 80.5611 116.374 80.5611 115.84V105.52Z" fill="#333333"/>
<path d="M83.275 105.52C83.275 104.986 82.8383 104.553 82.2996 104.553C81.7609 104.553 81.3242 104.986 81.3242 105.52V109.072C81.3242 109.606 81.7609 110.038 82.2996 110.038C82.8383 110.038 83.275 109.606 83.275 109.072V105.52Z" fill="#333333"/>
<path d="M80.4842 125.042C81.113 125.042 81.6228 124.539 81.6228 123.918C81.6228 123.296 81.113 122.793 80.4842 122.793C79.8554 122.793 79.3457 123.296 79.3457 123.918C79.3457 124.539 79.8554 125.042 80.4842 125.042Z" fill="#333333"/>
<path d="M71.7723 116.807C72.4011 116.807 72.9109 116.303 72.9109 115.682C72.9109 115.061 72.4011 114.558 71.7723 114.558C71.1435 114.558 70.6338 115.061 70.6338 115.682C70.6338 116.303 71.1435 116.807 71.7723 116.807Z" fill="#333333"/>
<path d="M75.4169 116.807C76.0457 116.807 76.5554 116.303 76.5554 115.682C76.5554 115.061 76.0457 114.558 75.4169 114.558C74.7881 114.558 74.2783 115.061 74.2783 115.682C74.2783 116.303 74.7881 116.807 75.4169 116.807Z" fill="#333333"/>
<path d="M83.8378 125.042C84.4666 125.042 84.9763 124.539 84.9763 123.918C84.9763 123.296 84.4666 122.793 83.8378 122.793C83.209 122.793 82.6992 123.296 82.6992 123.918C82.6992 124.539 83.209 125.042 83.8378 125.042Z" fill="#333333"/>
<path d="M87.1913 125.042C87.8201 125.042 88.3298 124.539 88.3298 123.918C88.3298 123.296 87.8201 122.793 87.1913 122.793C86.5625 122.793 86.0527 123.296 86.0527 123.918C86.0527 124.539 86.5625 125.042 87.1913 125.042Z" fill="#333333"/>
<path d="M90.3774 122.046H87.0451C86.7867 122.046 86.5388 121.945 86.3554 121.765C86.172 121.585 86.0681 121.341 86.0662 121.086C86.0662 120.829 86.1694 120.583 86.3529 120.402C86.5365 120.221 86.7855 120.119 87.0451 120.119H88.4336C88.692 120.119 88.9399 120.018 89.1233 119.838C89.3067 119.658 89.4106 119.414 89.4124 119.159V115.538C89.4106 115.283 89.3067 115.039 89.1233 114.859C88.9399 114.679 88.692 114.578 88.4336 114.578H83.2963C83.0366 114.578 82.7877 114.476 82.6041 114.295C82.4205 114.114 82.3174 113.868 82.3174 113.611C82.3192 113.356 82.4232 113.112 82.6065 112.932C82.7899 112.752 83.0378 112.651 83.2963 112.651H90.3774C90.6358 112.651 90.8838 112.752 91.0672 112.932C91.2505 113.112 91.3545 113.356 91.3563 113.611V121.086C91.3545 121.341 91.2505 121.585 91.0672 121.765C90.8838 121.945 90.6358 122.046 90.3774 122.046Z" fill="#333333"/>
<path d="M86.7955 116.566H83.2757C82.7351 116.566 82.2969 116.998 82.2969 117.53C82.2969 118.062 82.7351 118.493 83.2757 118.493H86.7955C87.3361 118.493 87.7744 118.062 87.7744 117.53C87.7744 116.998 87.3361 116.566 86.7955 116.566Z" fill="#333333"/>
<path d="M82.8587 120.119H80.5677C80.0271 120.119 79.5889 120.55 79.5889 121.083C79.5889 121.615 80.0271 122.046 80.5677 122.046H82.8587C83.3993 122.046 83.8376 121.615 83.8376 121.083C83.8376 120.55 83.3993 120.119 82.8587 120.119Z" fill="#333333"/>
</g>
<defs>
<clipPath id="clip0_3595_48517">
<rect width="137" height="192" fill="white" transform="translate(51.5 4)"/>
</clipPath>
</defs>
</svg>
