<svg width="241" height="200" viewBox="0 0 241 200" fill="none" xmlns="http://www.w3.org/2000/svg">
<g clip-path="url(#clip0_3595_19418)">
<path d="M152.962 85.7614C161.618 85.0042 167.623 88.79 173.062 95.6649C177.619 101.397 184.237 104.433 191.867 102.638C195.267 101.836 198.676 101.124 202.054 100.2C205.164 99.3825 207.048 97.1716 208.182 94.0295C210.832 86.7987 213.643 79.6436 216.677 71.686L222.59 81.2942C223.609 79.1363 224.635 76.9482 225.753 74.5859C228.174 77.2056 228.817 80.2645 228.771 83.6717C228.801 84.7612 229.25 85.7984 230.028 86.5715C232.462 88.5221 234.126 91.2553 234.731 94.2945C234.988 95.5902 235.323 96.8695 235.734 98.1257C237.465 103.426 236.224 107.56 231.59 110.195C229.328 111.483 226.828 112.309 224.237 112.625C221.579 112.935 220.093 114.003 219.028 116.585C217.34 120.859 215.383 125.024 213.168 129.055C211.707 131.82 209.726 134.284 207.332 136.316C201.02 141.223 197.634 147.855 196.102 155.692C195.657 158.6 195.457 161.541 195.505 164.482C195.451 166.958 196.34 168.904 198.806 169.714C199.314 169.836 199.791 170.058 200.21 170.367C200.629 170.675 200.98 171.064 201.244 171.51C201.507 171.956 201.676 172.45 201.742 172.963C201.807 173.475 201.768 173.995 201.625 174.492C201.104 177.074 199.067 177.437 197.029 177.324C190.028 176.96 183.732 170.259 184.145 162.839C184.605 154.609 182.767 146.818 181.135 138.951C180.975 138.502 180.711 138.095 180.366 137.763C180.021 137.431 179.602 137.182 179.144 137.036C175.827 136.278 172.464 135.695 169.094 135.226C168.69 135.216 168.289 135.297 167.921 135.46C167.552 135.624 167.225 135.867 166.965 136.172C164.667 138.974 162.231 141.692 160.477 144.834C159.168 147.074 158.545 149.641 158.684 152.224C159.273 156.224 160.316 160.146 161.794 163.914C162.706 166.436 164.092 168.745 167.462 168.639C168.32 168.639 169.661 170.464 170.021 171.668C170.611 173.666 169.599 175.355 167.83 176.369C163.87 178.641 157.283 176.968 154.808 172.985C154.099 171.891 153.525 170.717 153.1 169.487C148.972 156.949 144.514 144.501 140.952 131.796C138.83 124.225 137.781 116.237 136.953 108.324C136.593 104.932 137.865 101.298 138.646 97.8304C140.393 90.0999 142.867 82.4905 143.916 74.654C144.483 70.4821 143.02 65.8635 141.902 61.6159C139.91 54.0898 137.719 46.594 138.57 38.697C138.984 34.7724 139.908 30.9171 141.319 27.2262C142.775 23.4783 146.046 22.1305 149.24 22.9786C152.204 23.7357 153.836 25.6891 153.537 28.907C153.252 31.5375 152.739 34.1389 152.005 36.683C150.544 41.8026 150.485 47.2143 151.836 52.3635C155.398 65.5531 155.398 70.1868 152.962 85.7614Z" fill="#C2D9E5"/>
<path d="M83.7946 171.576C83.7946 171.576 83.2968 176.876 85.633 177.793C87.9692 178.709 110.144 178.853 110.144 178.853H119.926C120.171 178.842 120.41 178.78 120.629 178.671C120.848 178.562 121.041 178.408 121.195 178.22C121.349 178.032 121.462 177.813 121.524 177.579C121.586 177.345 121.598 177.1 121.557 176.861C121.342 175.198 120.526 173.668 119.26 172.553C119.194 172.492 119.149 172.412 119.131 172.325C119.112 172.238 119.121 172.147 119.156 172.065C119.191 171.983 119.25 171.913 119.326 171.865C119.402 171.817 119.491 171.793 119.581 171.796L122.469 172.152C122.818 172.199 123.149 172.335 123.43 172.546C123.71 172.757 123.931 173.036 124.07 173.356L126.153 177.899C126.279 178.185 126.485 178.429 126.747 178.602C127.009 178.776 127.316 178.87 127.632 178.875H134.525C134.786 178.863 135.04 178.793 135.269 178.671C135.498 178.548 135.696 178.376 135.849 178.167C136.001 177.958 136.104 177.718 136.149 177.464C136.195 177.211 136.182 176.95 136.111 176.702L135.56 174.431C135.504 174.23 135.495 174.019 135.534 173.813C135.572 173.608 135.656 173.414 135.781 173.246C135.905 173.077 136.066 172.938 136.252 172.839C136.437 172.74 136.643 172.684 136.854 172.674H150.481C150.809 172.684 151.129 172.777 151.411 172.944C151.692 173.111 151.926 173.347 152.089 173.628C152.626 174.461 153.951 175.65 157.275 176.399C160.599 177.149 162.637 176.445 163.717 175.786C164.021 175.587 164.263 175.31 164.419 174.984C164.574 174.658 164.636 174.297 164.598 173.939C164.261 170.471 162.2 169.631 160.837 169.464C160.444 169.414 160.078 169.243 159.789 168.975C159.5 168.707 159.304 168.357 159.228 167.972C157.474 160.628 149.868 127.571 149.868 106.166C149.868 81.9375 147.179 75.6531 147.179 75.6531C148.076 75.0643 148.855 74.3174 149.477 73.4498L156.425 74.3887C160.5 74.9868 163.97 71.2768 163.388 66.9686L167.401 56.7244C167.26 55.5044 166.779 54.3472 166.012 53.3809C165.245 52.4146 164.223 51.6771 163.058 51.2502L150.55 46.942C146.896 34.6459 138.463 33.8888 138.463 33.8888C136.14 33.3762 133.764 33.1398 131.385 33.1846L127.724 30.9132C126.37 30.0571 124.767 29.6672 123.166 29.8042C121.565 29.9411 120.054 30.5971 118.869 31.6703L110.589 38.8784C109.716 39.6682 109.087 40.6861 108.776 41.8143C108.464 42.9425 108.482 44.1349 108.827 45.2536L112.894 58.7081L113.308 66.4008C114.158 80.7866 101.052 110.315 98.7159 117.531C97.1073 122.741 95.7651 128.027 94.6945 133.371C89.6621 134.438 83.1206 155.585 83.1206 155.585C88.0612 156.04 93.8443 167.556 81.5273 165.708C82.1582 167.709 82.9155 169.669 83.7946 171.576ZM138.401 143.183L141.465 132.977C141.498 132.83 141.58 132.699 141.698 132.604C141.817 132.51 141.964 132.459 142.116 132.459C142.268 132.459 142.416 132.51 142.534 132.604C142.653 132.699 142.735 132.83 142.767 132.977L151.124 163.876C151.156 163.979 151.163 164.088 151.146 164.195C151.128 164.301 151.087 164.402 151.024 164.491C150.961 164.579 150.879 164.652 150.784 164.704C150.688 164.756 150.582 164.787 150.473 164.792H142.944C142.843 164.788 142.744 164.763 142.654 164.719C142.564 164.674 142.484 164.611 142.42 164.534C142.357 164.456 142.31 164.366 142.284 164.27C142.258 164.174 142.253 164.073 142.27 163.975C142.63 161.226 143.35 152.05 138.44 143.759C138.351 143.579 138.337 143.373 138.401 143.183Z" fill="#C2D9E5"/>
<path d="M107.769 171.758C98.3861 173.159 102.806 164.406 106.559 164.066C106.559 164.066 101.588 147.999 97.7657 147.189C97.7657 147.189 96.4865 140.662 94.7018 135.158C92.917 129.653 82.9746 107.242 83.618 96.3083L83.9321 90.4631L86.996 80.2415C87.2595 79.3967 87.2772 78.4956 87.0469 77.6414C86.8166 76.7871 86.3477 76.0141 85.6939 75.4109L79.3975 69.8837C78.4935 69.0744 77.345 68.5817 76.1295 68.4818C74.914 68.3819 73.699 68.6803 72.6722 69.331L69.884 71.0573C68.0815 71.0246 66.2814 71.2051 64.5222 71.5949C64.5222 71.5949 58.1109 72.1703 55.3304 81.5136L45.8629 84.8072C44.9799 85.132 44.2046 85.6911 43.6222 86.4231C43.0398 87.1551 42.6728 88.0316 42.5615 88.9563L45.6254 96.7474C45.1812 100.018 47.8238 102.805 50.9184 102.381L56.196 101.669C56.6648 102.327 57.2547 102.892 57.9347 103.335C57.9347 103.335 55.8206 108.158 55.8206 126.519C55.8206 142.782 50.0375 167.897 48.7047 173.462C48.6435 173.747 48.4954 174.006 48.2803 174.205C48.0653 174.404 47.7937 174.533 47.5021 174.575C46.468 174.704 44.9054 175.332 44.645 177.974C44.6183 178.246 44.6662 178.519 44.7835 178.765C44.9007 179.012 45.0831 179.223 45.3114 179.375C46.0774 179.882 47.6093 180.42 50.2137 179.845C52.818 179.269 53.7448 178.368 54.1508 177.74C54.2719 177.52 54.4483 177.335 54.663 177.202C54.8777 177.069 55.1234 176.994 55.3764 176.983H65.7784C65.9393 176.989 66.0967 177.032 66.2386 177.107C66.3805 177.182 66.5033 177.288 66.5977 177.417C66.6921 177.546 66.7556 177.695 66.7835 177.852C66.8114 178.009 66.803 178.17 66.7588 178.323L66.3069 180.087C66.2552 180.276 66.2469 180.473 66.2825 180.666C66.3182 180.858 66.3969 181.04 66.513 181.198C66.629 181.356 66.7795 181.487 66.9532 181.58C67.127 181.674 67.3197 181.727 67.5171 181.737H72.7718C73.0135 181.733 73.2485 181.658 73.4484 181.524C73.6483 181.39 73.8044 181.201 73.8978 180.98L75.4757 177.543C75.5796 177.298 75.7468 177.084 75.9606 176.924C76.1744 176.763 76.4271 176.66 76.6936 176.627L78.8843 176.354C78.9545 176.352 79.0237 176.371 79.0827 176.409C79.1416 176.446 79.1875 176.501 79.2141 176.565C79.2408 176.63 79.247 176.7 79.2318 176.768C79.2167 176.836 79.181 176.898 79.1294 176.945C78.1647 177.788 77.5394 178.946 77.3676 180.208C77.3371 180.39 77.346 180.576 77.3935 180.754C77.4411 180.932 77.5263 181.098 77.6436 181.241C77.7608 181.384 77.9075 181.501 78.0738 181.584C78.2402 181.667 78.4224 181.714 78.6085 181.722H86.0385C86.0385 181.722 102.89 181.586 104.644 180.912C106.398 180.238 106.046 176.218 106.046 176.195C106.709 174.751 107.285 173.27 107.769 171.758ZM64.5068 155.101C60.7918 161.4 61.3357 168.374 61.6114 170.463C61.6234 170.538 61.6192 170.615 61.5992 170.688C61.5792 170.761 61.5438 170.829 61.4954 170.887C61.4469 170.946 61.3865 170.994 61.3181 171.028C61.2496 171.062 61.1747 171.081 61.0982 171.084H55.384C55.3004 171.08 55.2188 171.057 55.1456 171.017C55.0724 170.976 55.0094 170.92 54.9614 170.852C54.9134 170.784 54.8817 170.707 54.8686 170.625C54.8556 170.543 54.8616 170.459 54.8861 170.38L61.2361 146.909C61.2606 146.797 61.323 146.697 61.4128 146.626C61.5027 146.554 61.6147 146.515 61.7302 146.515C61.8456 146.515 61.9576 146.554 62.0475 146.626C62.1374 146.697 62.1998 146.797 62.2242 146.909L64.5222 154.662C64.5744 154.805 64.5689 154.962 64.5068 155.101Z" fill="#C2D9E5"/>
<path d="M85.9775 158.523C85.9775 158.523 79.436 137.376 74.4035 136.308C73.3326 130.965 71.9878 125.678 70.3744 120.469C68.0229 113.223 54.9399 83.732 55.8208 69.3386C55.8208 69.3386 60.0107 64.3641 60.0107 62.0624L56.8319 50.7051C56.8319 50.7051 56.8319 28.3238 48.4061 26.3704C48.4061 26.3704 45.3882 29.2097 44.0477 36.8493C39.6284 35.9008 35.0547 35.9008 30.6354 36.8493L25.2735 25.2119C19.3832 25.9918 17.5218 41.4452 20.2181 48.199C16.583 53.6972 14.6087 60.1057 14.5268 66.6734C14.5268 66.6734 18.2112 76.4482 21.9032 78.5834C21.9032 78.5834 19.2146 84.8905 19.2146 109.097C19.2146 130.494 11.6161 163.528 9.85437 170.888C9.77818 171.272 9.58342 171.624 9.29681 171.896C9.0102 172.167 8.64576 172.343 8.25347 172.402C6.89003 172.515 4.84486 173.394 4.50017 176.854C4.46324 177.2 4.52044 177.549 4.66588 177.866C4.81131 178.183 5.0397 178.456 5.32743 178.656C6.35384 179.33 8.39135 180.079 11.8306 179.307C15.2698 178.535 16.5261 177.323 17.0393 176.49C17.2148 176.21 17.4608 175.978 17.7534 175.819C18.0459 175.66 18.3752 175.578 18.7091 175.582H32.2593C32.4701 175.592 32.676 175.648 32.8618 175.747C33.0476 175.846 33.2086 175.985 33.3328 176.153C33.4571 176.322 33.5414 176.516 33.5797 176.721C33.6179 176.926 33.6091 177.137 33.5538 177.338L32.9946 179.61C32.9254 179.858 32.9136 180.119 32.9601 180.373C33.0066 180.626 33.1101 180.866 33.2631 181.075C33.4161 181.283 33.6146 181.455 33.8439 181.578C34.0732 181.701 34.3275 181.771 34.5879 181.783H41.4817C41.7967 181.786 42.1059 181.698 42.3722 181.532C42.6384 181.365 42.8505 181.127 42.983 180.844L45.0971 176.301C45.2377 175.981 45.4596 175.701 45.7414 175.49C46.0232 175.279 46.3554 175.144 46.7057 175.097L49.5934 174.741C49.6829 174.74 49.7707 174.765 49.8454 174.814C49.9201 174.862 49.9783 174.932 50.0122 175.014C50.0461 175.096 50.0543 175.186 50.0356 175.272C50.0169 175.359 49.9723 175.438 49.9075 175.499C48.643 176.609 47.827 178.134 47.6095 179.792C47.5692 180.031 47.5807 180.276 47.643 180.511C47.7054 180.745 47.8174 180.964 47.9715 181.153C48.1256 181.342 48.3184 181.496 48.5372 181.606C48.756 181.716 48.9959 181.779 49.2411 181.79H58.969C58.969 181.79 81.1058 181.609 83.4804 180.73C85.8549 179.852 85.3264 174.514 85.3264 174.514C86.2151 172.61 86.9826 170.653 87.6243 168.654C93.5377 168.654 97.6893 170.6 96.5556 173.795C96.283 174.688 95.8071 175.507 95.1645 176.189C94.5218 176.872 93.7295 177.399 92.8483 177.732C92.8483 177.732 97.245 179.065 99.0681 177.126C99.0681 177.126 100.845 179.663 97.8195 180.73C97.8195 180.73 107.486 180.132 111.217 176.188C112.142 175.505 112.883 174.608 113.375 173.576C113.867 172.543 114.093 171.406 114.035 170.267C113.982 162.786 103.082 156.744 85.9775 158.523ZM26.1314 167.753H18.6095C18.5 167.749 18.393 167.719 18.2967 167.668C18.2005 167.616 18.1177 167.543 18.0547 167.454C17.9917 167.365 17.9502 167.264 17.9335 167.157C17.9168 167.049 17.9254 166.94 17.9584 166.837L26.3153 135.937C26.3477 135.791 26.4299 135.659 26.5484 135.565C26.6668 135.471 26.8143 135.419 26.9664 135.419C27.1184 135.419 27.2659 135.471 27.3843 135.565C27.5028 135.659 27.585 135.791 27.6174 135.937L30.6814 146.144C30.7107 146.243 30.7191 146.348 30.7059 146.451C30.6927 146.554 30.6583 146.653 30.6048 146.742C25.7102 155.033 26.4378 164.225 26.7749 166.965C26.7865 167.059 26.779 167.154 26.7528 167.245C26.7265 167.336 26.6821 167.421 26.622 167.494C26.562 167.567 26.4876 167.628 26.4033 167.673C26.3191 167.717 26.2266 167.744 26.1314 167.753Z" fill="#C2D9E5"/>
<path d="M87.0269 146.614C72.5882 148.673 70.3745 175.544 94.5488 163.672L97.9268 168.215C97.9268 168.215 65.0739 190.399 59.7274 159.546C56.089 138.535 88.3137 133.924 91.4313 146.583L87.0269 146.614Z" fill="#CB8452"/>
<path d="M181.22 166.315C178.485 164.316 168.091 168.064 167.432 172.887L158.34 128.972C155.697 116.199 176.968 112.603 176.271 127.518C175.743 138.876 178.569 155.942 179.986 163.445C180.168 164.483 180.59 165.465 181.22 166.315Z" fill="#E59964"/>
<path d="M181.442 115.578C179.297 132.917 170.917 128.995 164.483 150.99C158.049 172.985 136.034 174.408 136.034 174.408L131.99 175.044L112.695 178.073C112.182 178.156 111.669 178.209 111.163 178.262C110.657 178.315 109.968 178.338 109.363 178.338C106.429 178.321 103.527 177.73 100.825 176.601C98.1219 175.472 95.6716 173.826 93.6144 171.758C89.2844 167.436 86.7345 161.677 86.4601 155.601C85.9699 146.008 89.4628 135.915 93.5914 127.541C96.2501 122.189 99.3231 117.047 102.783 112.163C104.375 109.91 106.496 108.073 108.965 106.81C111.218 105.677 113.182 104.054 114.709 102.063C119.152 96.3311 128.497 83.8911 132.649 75.623L147.202 77.7431L158.539 79.3861L182.491 82.8614C183.092 93.7764 182.741 104.722 181.442 115.578Z" fill="#F8B36D"/>
<path d="M153.146 83.4444L148.773 87.3362C147.869 87.3362 146.98 87.3362 146.107 87.4422C134.242 88.4113 125.479 95.7102 130.925 103.403C130.925 103.403 126.896 99.9578 118.716 106.56C110.535 113.163 107.149 129.555 118.187 138.565C118.187 138.565 105.165 157.312 111.163 178.247C110.566 178.293 109.968 178.323 109.363 178.323C106.43 178.307 103.529 177.72 100.826 176.593C98.1238 175.467 95.6729 173.824 93.6144 171.758C89.2844 167.436 86.7345 161.677 86.4601 155.601C85.9699 146.008 89.4628 135.915 93.5914 127.541C96.2501 122.189 99.3231 117.047 102.783 112.163C104.375 109.91 106.496 108.073 108.965 106.81C111.218 105.677 113.182 104.054 114.709 102.063C119.152 96.3311 128.497 83.8911 132.649 75.623L147.202 77.7431L153.146 83.4444Z" fill="#E59964"/>
<path d="M181.441 115.578C179.297 132.917 170.917 128.995 164.483 150.99C158.048 172.985 136.034 174.409 136.034 174.409L131.99 175.045C125.019 170.782 116.188 163.566 130.519 160.727C151.43 156.585 155.253 126.966 155.253 126.966C142.124 106.159 152.955 92.046 158.516 79.3789L182.468 82.8542C183.077 93.7711 182.733 104.72 181.441 115.578Z" fill="#FFC58F"/>
<path d="M159.833 31.0726L149.11 33.8438L138.83 37.9627L136.532 40.7414L133.308 44.7089L130.152 48.5703C129.864 48.9326 129.487 49.2152 129.056 49.3908C128.625 49.5665 128.156 49.6292 127.694 49.5728C127.231 49.5164 126.792 49.3429 126.417 49.0691C126.043 48.7953 125.746 48.4305 125.556 48.01C123.197 43.3157 122.239 36.7664 121.856 31.7843C121.661 29.8856 122.154 27.98 123.246 26.4064C124.339 24.8329 125.961 23.6934 127.823 23.1907L139.841 20.3287C141.106 20.0253 142.43 20.0699 143.671 20.4574C144.723 20.7696 145.689 21.3132 146.498 22.0474C149.83 25.0154 155.498 29.6567 159.833 31.0726Z" fill="#662D30"/>
<path d="M191.522 28.6572C187.092 28.8891 182.751 29.9772 178.745 31.86C171.982 35.0173 190.327 42.4601 190.327 42.4601L194.195 36.1984L191.522 28.6572Z" fill="#662D30"/>
<path d="M182.974 181.518L174.349 182.215C171.53 182.442 168.987 180.33 168.343 177.248L167.439 172.895C168.121 168.072 178.516 164.324 181.227 166.323C181.271 166.386 181.32 166.447 181.373 166.504C182.045 167.339 182.943 167.969 183.962 168.321C185.045 168.727 185.995 169.419 186.708 170.322C187.421 171.224 187.87 172.303 188.006 173.44L188.113 174.197C188.649 177.861 186.275 181.253 182.974 181.518Z" fill="#FFC58F"/>
<path d="M195.229 66.5606C194.739 71.8077 191.805 76.4036 187.247 79.8865C185.762 81.0241 184.169 82.018 182.491 82.8545C179.725 84.2401 177.083 85.8831 174.417 87.511C170.388 89.9263 164.927 91.1226 159.098 90.5396C154.473 90.1021 150.051 88.45 146.29 85.7544C143.586 83.7555 140.929 81.7339 138.071 79.9167C129.914 74.6773 125.004 67.1058 125.747 59.2238C125.931 57.2931 127.133 54.6279 128.19 52.5912C129.452 50.1684 130.527 47.6551 131.407 45.0727L131.599 44.5049C135.046 34.2985 144.552 27.8476 154.754 28.7713L164.26 29.6269L165.202 29.7404L177.144 31.55C180.307 32.0881 183.261 33.4678 185.691 35.5408C188.12 37.6138 189.932 40.3019 190.932 43.3161C192.301 47.0579 193.286 50.9262 193.873 54.8627C194.149 57.0281 194.44 59.1936 194.907 61.3211C195.29 63.0403 195.399 64.8082 195.229 66.5606Z" fill="#F8B36D"/>
<path d="M143.647 20.4347C143.563 20.836 140.698 33.6015 136.554 40.7414C135.761 42.2649 134.664 43.6144 133.33 44.7089L130.174 48.5704C129.886 48.9326 129.509 49.2152 129.078 49.3909C128.648 49.5665 128.178 49.6292 127.716 49.5728C127.254 49.5165 126.814 49.343 126.439 49.0692C126.065 48.7954 125.768 48.4305 125.578 48.0101C123.219 43.3158 122.261 36.7664 121.878 31.7844C121.682 29.8886 122.171 27.9855 123.259 26.4124C124.348 24.8393 125.964 23.6979 127.822 23.1907L139.841 20.3287C141.096 20.0222 142.412 20.0589 143.647 20.4347Z" fill="#7A363A"/>
<path d="M193.123 28.8165L203.387 36.441C204.66 37.4241 205.629 38.7409 206.183 40.2413C206.737 41.7418 206.853 43.3659 206.519 44.9286C205.654 49.1157 203.992 54.8852 200.936 59.2766C200.709 59.6129 200.409 59.8947 200.058 60.1013C199.706 60.3078 199.313 60.4339 198.905 60.4702C198.498 60.5065 198.088 60.4522 197.705 60.3111C197.322 60.1701 196.976 59.946 196.692 59.6552C193.544 56.513 188.703 48.5403 190.564 30.0355C190.578 29.7484 190.67 29.4704 190.831 29.2308C190.992 28.9912 191.215 28.7989 191.477 28.6741C191.739 28.5493 192.03 28.4966 192.319 28.5217C192.609 28.5468 192.886 28.6486 193.123 28.8165Z" fill="#7A363A"/>
<path d="M187.248 79.8856C185.762 81.0232 184.169 82.0172 182.491 82.8536C179.726 84.2392 177.083 85.8822 174.418 87.5101C170.389 89.9254 164.927 91.1217 159.098 90.5387C154.474 90.1013 150.052 88.4491 146.291 85.7535C143.587 83.7546 140.929 81.733 138.072 79.9159C130.619 74.9717 125.816 57.5345 139.78 58.0191C141.955 58.0948 149.899 54.5741 151.951 53.8093C159.106 51.129 165.348 51.5379 183.311 62.7664C189.377 66.5522 195.291 71.3677 187.248 79.8856Z" fill="#986044"/>
<path d="M146.382 56.21C150.701 56.21 154.203 52.5015 154.203 47.9268C154.203 43.3521 150.701 39.6436 146.382 39.6436C142.063 39.6436 138.562 43.3521 138.562 47.9268C138.562 52.5015 142.063 56.21 146.382 56.21Z" fill="#986044"/>
<path d="M180.3 60.9118C184.437 60.9118 187.791 57.3593 187.791 52.9769C187.791 48.5946 184.437 45.042 180.3 45.042C176.163 45.042 172.809 48.5946 172.809 52.9769C172.809 57.3593 176.163 60.9118 180.3 60.9118Z" fill="#986044"/>
<path d="M157.696 38.8637H149.761C149.345 38.8243 148.96 38.6334 148.679 38.3282C148.399 38.023 148.243 37.6255 148.243 37.2131C148.243 36.8007 148.399 36.4031 148.679 36.098C148.96 35.7928 149.345 35.6019 149.761 35.5625H157.696C158.111 35.6019 158.497 35.7928 158.777 36.098C159.058 36.4031 159.213 36.8007 159.213 37.2131C159.213 37.6255 159.058 38.023 158.777 38.3282C158.497 38.6334 158.111 38.8243 157.696 38.8637Z" fill="#E59964"/>
<path d="M177.252 42.2107C177.101 42.2097 176.951 42.1867 176.807 42.1425L169.186 39.7575C168.789 39.6116 168.461 39.3237 168.269 38.9509C168.076 38.578 168.031 38.1472 168.144 37.7435C168.191 37.5409 168.279 37.3499 168.404 37.1825C168.528 37.0151 168.686 36.8748 168.868 36.7704C169.05 36.666 169.252 36.5997 169.46 36.5756C169.669 36.5516 169.881 36.5702 170.082 36.6305L177.688 39.0155C178.097 39.1588 178.434 39.4514 178.631 39.8331C178.827 40.2149 178.868 40.6566 178.745 41.0674C178.656 41.3924 178.461 41.6796 178.192 41.8859C177.922 42.0921 177.592 42.2061 177.252 42.2107Z" fill="#E59964"/>
<path d="M179.121 56.2776C181.138 56.2776 182.774 54.542 182.774 52.401C182.774 50.26 181.138 48.5244 179.121 48.5244C177.103 48.5244 175.467 50.26 175.467 52.401C175.467 54.542 177.103 56.2776 179.121 56.2776Z" fill="#332017"/>
<path d="M147.163 51.5765C149.181 51.5765 150.817 49.8408 150.817 47.6999C150.817 45.5589 149.181 43.8232 147.163 43.8232C145.146 43.8232 143.51 45.5589 143.51 47.6999C143.51 49.8408 145.146 51.5765 147.163 51.5765Z" fill="#332017"/>
<path d="M152.334 55.9148C152.143 56.6693 152.177 57.4623 152.431 58.1984C152.685 58.9345 153.149 59.5824 153.767 60.064L159.228 64.2434C159.615 64.5395 160.06 64.7519 160.535 64.8667C161.01 64.9815 161.504 64.9961 161.986 64.9097L169.186 63.5469C169.947 63.3863 170.641 63.0003 171.174 62.4403C171.708 61.8803 172.056 61.1729 172.173 60.4123L172.219 60.1548C172.422 59.1694 172.229 58.1446 171.682 57.297C171.134 56.4494 170.275 55.8452 169.285 55.6119L156.578 53.0755C155.636 52.9119 154.667 53.1167 153.875 53.6465C153.083 54.1763 152.53 54.9897 152.334 55.9148Z" fill="#332017"/>
<path d="M170.832 75.4487C165.846 75.4487 161.135 74.0252 157.811 73.0182C156.494 72.5398 155.127 72.2071 153.736 72.0264C150.488 72.0264 142.882 72.0264 139.404 63.5236L140.117 63.1904C143.395 71.2011 150.641 71.2011 153.736 71.2011C155.201 71.3773 156.64 71.7203 158.025 72.2232C163.387 73.8435 172.357 76.5617 180.139 72.4807L180.484 73.2378C177.5 74.7499 174.185 75.5094 170.832 75.4487Z" fill="#332017"/>
<path d="M161.679 73.7079C166.167 80.0755 163.425 89.9866 161.679 95.3548C159.932 100.723 162.751 105.879 170.87 105.054C178.99 104.229 174.876 79.3108 170.87 75.0404C166.864 70.7701 161.679 73.7079 161.679 73.7079Z" fill="#E58E89"/>
<path d="M157.467 187H147.907C146.353 186.954 144.867 186.354 143.726 185.31C142.584 184.267 141.863 182.85 141.695 181.322L141.534 180.239C142.928 171.63 153.905 170.29 156.976 171.32C157.657 172.22 158.573 172.919 159.627 173.341C160.763 173.824 161.742 174.609 162.455 175.609C163.167 176.609 163.586 177.784 163.663 179.005L163.732 179.762C164.046 183.661 161.159 187 157.467 187Z" fill="#FFC58F"/>
<path d="M151.568 171.312C147.37 172.114 142.422 174.636 141.518 180.231L134.747 132.046C136.294 142.631 145.532 164.944 151.568 171.312Z" fill="#E59964"/>
<path d="M156.976 171.312C155.212 170.908 153.378 170.908 151.615 171.312C145.563 164.914 136.295 142.631 134.763 132.046C134.763 131.993 134.763 131.955 134.763 131.91L134.526 130.237C132.634 116.722 156.348 114.753 154.395 130.237C152.917 142.018 154.701 160.015 155.644 167.943C155.784 169.128 156.227 170.259 156.93 171.229C156.93 171.229 156.93 171.289 156.976 171.312Z" fill="#F8B36D"/>
<path d="M113.622 186.28C110.106 185.879 107.318 183.153 106.291 179.246C106.184 178.807 106.069 178.368 105.962 177.914C103.664 168.495 102.829 157.107 102.507 149.672C102.469 147.137 103.272 144.66 104.794 142.62C106.316 140.58 108.472 139.089 110.933 138.375C111.735 138.16 112.561 138.04 113.392 138.02C115.043 137.963 116.672 138.402 118.066 139.279C119.459 140.157 120.551 141.431 121.197 142.933C123.771 148.877 128.29 162.892 129.791 169.123C130.014 170.07 130.159 170.804 130.228 171.274C131.883 186.015 120.163 187.068 113.622 186.28Z" fill="#F8B36D"/>
<path d="M104.897 180.436C105.433 175.045 109.769 170.979 114.855 171.07L118.003 171.123C120.065 171.198 122.053 171.904 123.691 173.143C125.329 174.383 126.538 176.095 127.149 178.043L127.532 179.164C128.742 182.722 126.253 186.47 122.683 186.47H110.022C106.958 186.47 104.576 183.661 104.897 180.436Z" fill="#FFC58F"/>
<path d="M27.3721 181.086C27.3721 171.508 43.7104 170.789 43.7104 170.789L50.5353 178.936L27.3721 181.086Z" fill="#BEB7A1"/>
<path d="M116.478 165.58C116.478 167.314 116.402 169.055 116.249 170.789C115.483 179.436 109.546 185.985 102.461 185.985H57.4596C55.7026 185.946 53.9742 185.537 52.3894 184.787C50.8045 184.036 49.3995 182.96 48.2678 181.631C45.6212 178.591 44.034 174.79 43.7409 170.789C43.5497 168.591 43.4807 166.384 43.5341 164.179C43.6519 158.415 44.6513 152.702 46.4984 147.234L51.0943 133.787C51.5845 132.333 52.0058 130.834 52.3582 129.32L60.8299 92.3029L63.0742 82.46C64.4821 76.2774 65.1912 69.9594 65.1883 63.6221H94.9007C94.8755 69.9672 95.564 76.2955 96.9535 82.4902L107.677 129.32C108.025 130.829 108.45 132.32 108.949 133.787L113.506 147.234C114.444 150.004 115.161 152.842 115.651 155.722C116.211 158.978 116.488 162.276 116.478 165.58Z" fill="#D8D0B7"/>
<path d="M101.718 148.665C97.2524 139.375 97.3979 124.717 97.3979 114.806L80.0025 123.891L62.5995 114.806C62.5995 124.717 62.745 139.375 58.2793 148.665C53.8137 157.956 53.4613 173.523 63.7178 178.8C73.9743 184.077 67.0575 185.985 67.0575 185.985H92.9399C92.9399 185.985 86.0461 184.077 96.2796 178.8C106.513 173.523 106.191 157.948 101.718 148.665Z" fill="#BEB7A1"/>
<path d="M116.479 165.58C116.479 167.314 116.402 169.055 116.249 170.789C115.483 179.436 109.546 185.985 102.461 185.985H80.0026C80.0026 185.985 78.1643 178.413 97.3521 173.219C109.723 169.88 114.096 161.355 115.636 155.722C116.201 158.978 116.483 162.276 116.479 165.58Z" fill="#BEB7A1"/>
<path d="M94.2498 138.974H65.38C63.5493 145.568 61.374 156.434 68.5052 166.17L79.8111 169.305L91.1246 166.17C98.2482 156.434 96.0728 145.568 94.2498 138.974Z" fill="#F1EEE5"/>
<path d="M88.1301 66.0986H71.9066C71.9066 66.0986 65.2656 105.448 74.9706 113.458L79.6354 117.88V118.546L79.9801 118.213L80.3324 118.546V117.88L84.9896 113.458C94.7328 105.448 88.1301 66.0986 88.1301 66.0986Z" fill="#F1EEE5"/>
<path d="M89.2178 21.0404C91.399 24.8467 93.774 28.5413 96.3337 32.1099C97.184 22.3957 98.3942 18.8825 104.844 12C92.9404 12 89.2178 21.0404 89.2178 21.0404Z" fill="#B29F8E"/>
<path d="M96.333 32.1099C100.278 37.5084 104.713 42.1724 106.505 38.8107C110.013 32.2083 104.843 12 104.843 12C98.3935 18.8825 97.1832 22.3957 96.333 32.1099Z" fill="#F1EEE5"/>
<path d="M54.1279 13.1055C59.8421 15.4299 64.6525 23.8419 64.6525 29.6719C67.8773 25.2956 70.451 21.1237 70.451 21.1237C67.456 17.9588 61.1366 13.1055 54.1279 13.1055Z" fill="#B29F8E"/>
<path d="M53.331 39.1206C55.3685 41.2861 60.5389 35.3349 64.6522 29.6866C64.6522 23.8565 59.8419 15.4446 54.1276 13.1201C54.1276 13.105 49.6926 35.2743 53.331 39.1206Z" fill="#F1EEE5"/>
<path d="M107.256 44.4512C107.257 45.7732 107.144 47.0928 106.919 48.396C104.843 60.2605 93.5759 69.3236 80.0027 69.3236C64.9436 69.3236 52.7568 58.1859 52.7568 44.4512C52.7568 30.7165 64.9436 19.5713 80.0027 19.5713C81.9157 19.5708 83.8243 19.7534 85.7016 20.1164C98.0186 22.5015 107.256 32.4883 107.256 44.4512Z" fill="#D8D0B7"/>
<path d="M107.256 44.4517C107.257 45.7737 107.144 47.0934 106.919 48.3965C103.587 47.7565 100.136 48.1587 97.0455 49.5474C89.2938 53.3331 80.0025 47.7908 81.8102 42.2939C83.6179 36.797 88.4359 28.9453 85.7014 20.1094C98.0183 22.502 107.256 32.4888 107.256 44.4517Z" fill="#B29F8E"/>
<path d="M90.366 172.766C90.3001 173.332 90.3561 173.905 90.5304 174.448C90.7047 174.991 90.9932 175.491 91.377 175.916C92.781 177.454 93.7273 179.346 94.1116 181.382C94.2329 181.921 94.2334 182.48 94.1131 183.019C93.9927 183.558 93.7546 184.065 93.4152 184.504C93.0758 184.942 92.6435 185.302 92.1485 185.558C91.6535 185.814 91.1078 185.96 90.5498 185.986H83.7632C82.6782 185.946 81.6532 185.483 80.9124 184.699C80.1717 183.914 79.7756 182.871 79.8108 181.799V118.516C79.8108 111.49 85.1726 105.796 91.8137 105.796C93.3287 105.849 94.7609 106.493 95.7971 107.587C96.8334 108.681 97.3895 110.136 97.344 111.634C97.3606 111.886 97.3606 112.139 97.344 112.391L91.6834 161.666L90.366 172.766Z" fill="#D8D0B7"/>
<path d="M79.8111 116.547V181.799C79.8256 182.613 79.5991 183.413 79.1596 184.102C78.7201 184.791 78.0866 185.338 77.337 185.675C76.871 185.878 76.3678 185.984 75.8587 185.986H69.0721C68.5147 185.959 67.9699 185.812 67.4758 185.556C66.9818 185.3 66.5504 184.939 66.2118 184.501C65.8733 184.062 65.6358 183.556 65.5159 183.017C65.3961 182.479 65.3967 181.921 65.5179 181.382C65.9 179.346 66.8437 177.455 68.2448 175.916C68.6325 175.493 68.9241 174.993 69.0998 174.45C69.2755 173.907 69.3314 173.332 69.2636 172.766L62.3161 112.36C61.9178 108.87 64.4915 105.796 67.8082 105.796H69.6695C71.1467 105.808 72.6022 106.148 73.9282 106.792C75.2542 107.435 76.4166 108.365 77.3293 109.514C78.9455 111.509 79.8214 113.991 79.8111 116.547Z" fill="#D8D0B7"/>
<path d="M73.6909 181.087C73.7365 182.338 73.2784 183.556 72.4169 184.475C71.5555 185.393 70.361 185.936 69.095 185.985H54.3499C53.1414 182.277 53.0298 178.306 54.0282 174.537L57.8581 173.871C59.787 173.526 61.7368 173.309 63.6949 173.22C67.9384 173.318 70.4355 174.673 71.8679 176.294C73.0293 177.628 73.6752 179.326 73.6909 181.087Z" fill="#F1EEE5"/>
<path d="M54.3498 185.985H31.9985C31.381 185.983 30.7706 185.855 30.2062 185.607C29.6418 185.359 29.1357 184.998 28.7201 184.547C27.841 183.605 27.3565 182.368 27.3644 181.086C27.3644 178.868 28.5133 176.816 33.0939 177.058C36.0989 177.247 39.1158 177.097 42.0865 176.612L54.0281 174.537C53.0297 178.306 53.1413 182.277 54.3498 185.985Z" fill="#D8D0B7"/>
<path d="M75.0623 49.5469C76.1359 49.5624 77.18 49.8962 78.0595 50.505C78.939 51.1138 79.6133 51.9696 79.9952 52.9616C80.377 51.9696 81.0513 51.1138 81.9308 50.505C82.8103 49.8962 83.8545 49.5624 84.9281 49.5469C86.3872 49.652 87.7519 50.2991 88.7481 51.3582C89.7442 52.4172 90.2979 53.8097 90.2979 55.2558C90.2979 56.7019 89.7442 58.0944 88.7481 59.1534C87.7519 60.2125 86.3872 60.8596 84.9281 60.9647C83.8536 60.9486 82.8088 60.6137 81.9292 60.0034C81.0496 59.3932 80.3758 58.5358 79.9952 57.5424C79.6146 58.5358 78.9408 59.3932 78.0612 60.0034C77.1816 60.6137 76.1368 60.9486 75.0623 60.9647C73.6032 60.8596 72.2384 60.2125 71.2423 59.1534C70.2461 58.0944 69.6924 56.7019 69.6924 55.2558C69.6924 53.8097 70.2461 52.4172 71.2423 51.3582C72.2384 50.2991 73.6032 49.652 75.0623 49.5469Z" fill="#F1EEE5"/>
<path d="M79.9951 47.7979H82.7832C83.0423 47.8131 83.2916 47.9006 83.5023 48.0504C83.713 48.2001 83.8764 48.4059 83.9735 48.6438C84.0705 48.8817 84.0973 49.1419 84.0507 49.3943C84.0041 49.6466 83.886 49.8807 83.7101 50.0693L80.9219 53.2266C80.809 53.3602 80.6679 53.4676 80.5084 53.5414C80.3489 53.6151 80.175 53.6533 79.9989 53.6533C79.8228 53.6533 79.6489 53.6151 79.4894 53.5414C79.3299 53.4676 79.1888 53.3602 79.0759 53.2266L76.2877 50.0693C76.1119 49.8807 75.9937 49.6466 75.9471 49.3943C75.9005 49.1419 75.9273 48.8817 76.0243 48.6438C76.1214 48.4059 76.2848 48.2001 76.4955 48.0504C76.7062 47.9006 76.9555 47.8131 77.2146 47.7979H79.9951Z" fill="#F1A8A8"/>
<path d="M70.7876 40.1512C70.2468 39.6208 69.5158 39.3232 68.754 39.3232C67.9921 39.3232 67.2611 39.6208 66.7203 40.1512L64.6904 42.1576H65.8777C65.8777 42.9106 66.1803 43.6328 66.719 44.1653C67.2577 44.6978 67.9883 44.9969 68.7501 44.9969C69.5119 44.9969 70.2425 44.6978 70.7812 44.1653C71.3199 43.6328 71.6225 42.9106 71.6225 42.1576H72.8175L70.7876 40.1512Z" fill="#665B51"/>
<path d="M92.902 40.1507C92.3635 39.619 91.6334 39.3203 90.8722 39.3203C90.111 39.3203 89.3809 39.619 88.8423 40.1507L86.8125 42.1571H87.9921C87.9921 42.9102 88.2947 43.6323 88.8334 44.1648C89.3721 44.6973 90.1027 44.9964 90.8645 44.9964C91.6263 44.9964 92.357 44.6973 92.8956 44.1648C93.4343 43.6323 93.737 42.9102 93.737 42.1571H94.9242L92.902 40.1507Z" fill="#665B51"/>
</g>
<defs>
<clipPath id="clip0_3595_19418">
<rect width="232" height="175" fill="white" transform="translate(4.5 12)"/>
</clipPath>
</defs>
</svg>
