<svg width="12" height="15" viewBox="0 0 12 15" fill="none" xmlns="http://www.w3.org/2000/svg">
<path fill-rule="evenodd" clip-rule="evenodd" d="M10.188 7.50248C10.4629 7.81241 10.9369 7.84087 11.2468 7.56606C11.5567 7.29125 11.5852 6.81723 11.3104 6.50731L6.56077 1.15085C6.41843 0.990321 6.21416 0.898438 5.99961 0.898438C5.78506 0.898438 5.58079 0.990321 5.43844 1.15085L0.688844 6.50731C0.414033 6.81723 0.442497 7.29125 0.75242 7.56606C1.06234 7.84087 1.53636 7.81241 1.81117 7.50248L5.99961 2.77889L10.188 7.50248ZM10.188 14.6444C10.4629 14.9544 10.9369 14.9828 11.2468 14.708C11.5567 14.4332 11.5852 13.9592 11.3104 13.6493L6.56077 8.2928C6.41843 8.13227 6.21416 8.04038 5.99961 8.04038C5.78506 8.04038 5.58079 8.13227 5.43844 8.2928L0.688844 13.6493C0.414033 13.9592 0.442497 14.4332 0.75242 14.708C1.06234 14.9828 1.53636 14.9544 1.81117 14.6444L5.99961 9.92084L10.188 14.6444Z" fill=""/>
</svg>
