<svg width="12" height="13" viewBox="0 0 12 13" fill="none" xmlns="http://www.w3.org/2000/svg">
<path fill-rule="evenodd" clip-rule="evenodd" d="M6.20391 9.00247C5.89893 9.28276 5.87891 9.75721 6.1592 10.0622C6.43949 10.3672 6.91394 10.3872 7.21892 10.1069L10.7575 6.85476C10.912 6.71273 11 6.51244 11 6.30255C11 6.09266 10.912 5.89237 10.7575 5.75034L7.21892 2.49821C6.91394 2.21792 6.43949 2.23793 6.1592 2.54291C5.87891 2.84789 5.89893 3.32234 6.20391 3.60263L8.32533 5.55232L1.74752 5.55233C1.33331 5.55233 0.997666 5.88812 0.997844 6.30233C0.998021 6.71655 1.33395 7.05233 1.74816 7.05233L8.32583 7.05232L6.20391 9.00247Z" fill="#818598"/>
</svg>
