<svg width="20" height="20" viewBox="0 0 20 20" fill="none" xmlns="http://www.w3.org/2000/svg">
<path fill-rule="evenodd" clip-rule="evenodd" d="M10 0.75C10.4449 0.75 10.8958 0.789503 11.2871 0.87139C11.4828 0.912355 11.6776 0.966775 11.8561 1.03962C12.0191 1.10618 12.2428 1.2175 12.4305 1.4085C12.8176 1.80245 12.812 2.43559 12.418 2.82266C12.0513 3.18296 11.4774 3.20304 11.0875 2.88634C11.0484 2.87158 10.9799 2.85044 10.8774 2.82899C10.6478 2.78093 10.3378 2.75 10 2.75C9.66219 2.75 9.35223 2.78093 9.12258 2.82899C9.02006 2.85044 8.95159 2.87158 8.91245 2.88634C8.52263 3.20304 7.94866 3.18296 7.58195 2.82266C7.188 2.43559 7.18242 1.80245 7.56948 1.4085C7.75715 1.2175 7.98088 1.10618 8.14394 1.03962C8.32242 0.966775 8.51717 0.912355 8.71293 0.87139C9.10424 0.789503 9.5551 0.75 10 0.75ZM2.92549 6.66613C2.83037 6.64064 2.68436 6.63205 2 6.63205V4.63205L2.11184 4.63197H2.11207H2.11213C2.18477 4.6319 2.25599 4.63182 2.32583 4.63205H17.6742C17.744 4.63182 17.8152 4.6319 17.8879 4.63197H17.8879H17.8882L18 4.63205V6.63205C17.3156 6.63205 17.1696 6.64064 17.0745 6.66613C16.7294 6.75859 16.4599 7.02814 16.3674 7.37323C16.3419 7.46834 16.3333 7.61436 16.3333 8.29872V14.2487L16.3333 14.3145C16.3334 15.201 16.3334 15.9648 16.2512 16.5765C16.1631 17.232 15.9643 17.8603 15.4547 18.37C14.945 18.8797 14.3166 19.0784 13.6611 19.1665C13.0495 19.2488 12.2857 19.2487 11.3992 19.2487L11.3333 19.2487H8.66667L8.60084 19.2487C7.71435 19.2487 6.95054 19.2488 6.33888 19.1665C5.68336 19.0784 5.05501 18.8797 4.54535 18.37C4.03568 17.8603 3.83694 17.232 3.74881 16.5765C3.66657 15.9648 3.66661 15.201 3.66666 14.3145L3.66667 14.2487V8.29872C3.66667 7.61436 3.65808 7.46834 3.63259 7.37323C3.54013 7.02814 3.27058 6.75859 2.92549 6.66613ZM14.5049 6.63205H5.49512C5.52099 6.70527 5.54414 6.77983 5.56444 6.85559C5.66775 7.24112 5.66728 7.67915 5.66675 8.18687V8.18687L5.66667 8.29872V14.2487C5.66667 15.2198 5.66879 15.8475 5.73097 16.31C5.78929 16.7437 5.88344 16.8797 5.95956 16.9558C6.03568 17.0319 6.17163 17.1261 6.60537 17.1844C7.06788 17.2466 7.69559 17.2487 8.66667 17.2487H11.3333C12.3044 17.2487 12.9321 17.2466 13.3946 17.1844C13.8284 17.1261 13.9643 17.0319 14.0404 16.9558C14.1166 16.8797 14.2107 16.7437 14.269 16.31C14.3312 15.8475 14.3333 15.2198 14.3333 14.2487V8.29872L14.3333 8.18688V8.18686C14.3327 7.67914 14.3323 7.24112 14.4356 6.85559C14.4559 6.77983 14.479 6.70527 14.5049 6.63205ZM7.22222 13.3961C7.22222 13.9484 7.66994 14.3961 8.22222 14.3961C8.77451 14.3961 9.22222 13.9484 9.22222 13.3961L9.22222 10.4846C9.22222 9.9323 8.77451 9.48459 8.22222 9.48459C7.66994 9.48459 7.22222 9.9323 7.22222 10.4846L7.22222 13.3961ZM10.7778 13.3961C10.7778 13.9484 11.2255 14.3961 11.7778 14.3961C12.3301 14.3961 12.7778 13.9484 12.7778 13.3961V10.4846C12.7778 9.9323 12.3301 9.48459 11.7778 9.48459C11.2255 9.48459 10.7778 9.9323 10.7778 10.4846V13.3961Z" fill="#73788C"/>
</svg>
