<svg width="17" height="16" viewBox="0 0 17 16" fill="none" xmlns="http://www.w3.org/2000/svg">
<path fill-rule="evenodd" clip-rule="evenodd" d="M9.49933 1.75C9.49933 1.33579 9.16355 1 8.74933 1C8.33512 1 7.99933 1.33579 7.99933 1.75L7.99933 7.24933L2.5 7.24933C2.08579 7.24933 1.75 7.58512 1.75 7.99933C1.75 8.41354 2.08579 8.74933 2.5 8.74933L7.99933 8.74933L7.99933 14.2487C7.99933 14.6629 8.33512 14.9987 8.74933 14.9987C9.16355 14.9987 9.49933 14.6629 9.49933 14.2487L9.49933 8.74933L14.9987 8.74933C15.4129 8.74933 15.7487 8.41355 15.7487 7.99933C15.7487 7.58512 15.4129 7.24933 14.9987 7.24933L9.49933 7.24933L9.49933 1.75Z" fill="#40434F"/>
</svg>
