<?xml version="1.0"?>
<svg fill="none" xmlns="http://www.w3.org/2000/svg"  width="21" height="20" viewBox="0 0 21 20">
    <path fill-rule="evenodd" clip-rule="evenodd" d="M8.18688 1.75001L8.16605 1.75L8.16605 1.75C8.0667 1.74998 7.97994 1.74996 7.89572 1.75466C6.88531 1.81097 5.97139 2.3729 5.46511 3.24913C5.42291 3.32216 5.38377 3.39959 5.33895 3.48825L5.32955 3.50685L4.57996 4.98892C4.46034 5.22543 4.21784 5.37453 3.95281 5.37453C2.46009 5.37453 1.25 6.58461 1.25 8.07733V12.588V12.626V12.626C1.24999 13.3679 1.24998 13.9802 1.2877 14.4802C1.32684 14.999 1.41073 15.4775 1.62187 15.9323C2.01983 16.7896 2.70849 17.4783 3.56576 17.8762C4.0206 18.0874 4.49905 18.1713 5.01792 18.2104C5.51792 18.2481 6.13023 18.2481 6.87207 18.2481H6.9101H14.0886H14.1266C14.8685 18.2481 15.4808 18.2481 15.9808 18.2104C16.4996 18.1713 16.9781 18.0874 17.4329 17.8762C18.2902 17.4783 18.9789 16.7896 19.3768 15.9323C19.588 15.4775 19.6718 14.999 19.711 14.4802C19.7487 13.9802 19.7487 13.3678 19.7487 12.626V12.588V8.07733C19.7487 6.58461 18.5386 5.37453 17.0459 5.37453C16.7808 5.37453 16.5383 5.22543 16.4187 4.98892L15.6691 3.50685L15.6597 3.48824L15.6597 3.48823C15.6149 3.39958 15.5758 3.32215 15.5336 3.24913C15.0273 2.3729 14.1134 1.81097 13.103 1.75466C13.0187 1.74996 12.932 1.74998 12.8326 1.75L12.8118 1.75001H8.18688ZM8.00703 3.75156C8.02819 3.75038 8.05516 3.75001 8.18688 3.75001H12.8118C12.9435 3.75001 12.9705 3.75038 12.9917 3.75156C13.3285 3.77033 13.6331 3.95764 13.8019 4.24971C13.8125 4.26807 13.825 4.29197 13.8844 4.40951L14.634 5.89158C15.094 6.80113 16.0266 7.37453 17.0459 7.37453C17.434 7.37453 17.7487 7.68918 17.7487 8.07733V12.588C17.7487 13.3773 17.748 13.9139 17.7167 14.3297C17.6861 14.7352 17.6305 14.9443 17.5627 15.0902C17.3638 15.5188 17.0194 15.8632 16.5908 16.0622C16.4448 16.1299 16.2358 16.1855 15.8303 16.2161C15.4145 16.2474 14.8779 16.2481 14.0886 16.2481H6.9101C6.12076 16.2481 5.5842 16.2474 5.16836 16.2161C4.76288 16.1855 4.55384 16.1299 4.40788 16.0622C3.97925 15.8632 3.63491 15.5188 3.43594 15.0902C3.36818 14.9443 3.31262 14.7352 3.28203 14.3297C3.25066 13.9139 3.25 13.3773 3.25 12.588V8.07733C3.25 7.68918 3.56466 7.37453 3.95281 7.37453C4.97207 7.37453 5.90465 6.80113 6.36467 5.89158L7.11426 4.40951C7.17371 4.29197 7.18621 4.26807 7.19682 4.24971C7.36558 3.95764 7.67022 3.77033 8.00703 3.75156ZM12.1657 10.9052C12.1657 11.7808 11.4414 12.5297 10.4993 12.5297C9.55732 12.5297 8.83297 11.7808 8.83297 10.9052C8.83297 10.0296 9.55732 9.28066 10.4993 9.28066C11.4414 9.28066 12.1657 10.0296 12.1657 10.9052ZM14.1657 10.9052C14.1657 12.907 12.5242 14.5297 10.4993 14.5297C8.47446 14.5297 6.83297 12.907 6.83297 10.9052C6.83297 8.90342 8.47446 7.28066 10.4993 7.28066C12.5242 7.28066 14.1657 8.90342 14.1657 10.9052Z" fill="#40434F"/>
</svg>
