<?xml version="1.0"?>
<svg width="20" height="20" viewBox="0 0 20 20" fill="none" xmlns="http://www.w3.org/2000/svg">
    <path fill-rule="evenodd" clip-rule="evenodd" d="M15.7838 5.28033C16.0767 4.98744 16.0767 4.51256 15.7838 4.21967C15.4909 3.92678 15.016 3.92678 14.7231 4.21967L10.0017 8.94107L5.28034 4.21967C4.98745 3.92678 4.51258 3.92678 4.21968 4.21967C3.92679 4.51256 3.92679 4.98744 4.21968 5.28033L8.94108 10.0017L4.21967 14.7231C3.92678 15.016 3.92678 15.4909 4.21967 15.7838C4.51256 16.0767 4.98744 16.0767 5.28033 15.7838L10.0017 11.0624L14.7231 15.7838C15.016 16.0767 15.4909 16.0767 15.7838 15.7838C16.0767 15.4909 16.0767 15.016 15.7838 14.7231L11.0624 10.0017L15.7838 5.28033Z"/>
</svg>
