<svg width="20" height="20" viewBox="0 0 20 20" fill="none" xmlns="http://www.w3.org/2000/svg">
<path fill-rule="evenodd" clip-rule="evenodd" d="M16.1313 3.86873C16.0225 3.75991 15.8749 3.69878 15.721 3.69878H9.28494C9.13105 3.69878 8.98346 3.75991 8.87464 3.86873C8.76583 3.97755 8.70469 4.12513 8.70469 4.27902V4.99414C8.70469 5.46359 8.32414 5.84414 7.85469 5.84414C7.38525 5.84414 7.00469 5.46359 7.00469 4.99414V4.27902C7.00469 3.67426 7.24493 3.09428 7.67256 2.66665C8.10019 2.23902 8.68018 1.99878 9.28494 1.99878H15.721C16.3258 1.99878 16.9058 2.23902 17.3334 2.66665C17.761 3.09428 18.0013 3.67426 18.0013 4.27902V10.7151C18.0013 11.3199 17.761 11.8999 17.3334 12.3275C16.9058 12.7551 16.3258 12.9954 15.721 12.9954H15.0059C14.5365 12.9954 14.1559 12.6148 14.1559 12.1454C14.1559 11.6759 14.5365 11.2954 15.0059 11.2954H15.721C15.8749 11.2954 16.0225 11.2342 16.1313 11.1254C16.2401 11.0166 16.3013 10.869 16.3013 10.7151V4.27902C16.3013 4.12513 16.2401 3.97754 16.1313 3.86873ZM11.2953 9.28488C11.2953 8.96442 11.0356 8.70463 10.7151 8.70463H4.27902C3.95856 8.70463 3.69877 8.96442 3.69877 9.28488V15.721C3.69877 16.0414 3.95856 16.3012 4.27902 16.3012H10.7151C11.0356 16.3012 11.2953 16.0414 11.2953 15.721V9.28488ZM10.7151 7.00463C11.9744 7.00463 12.9953 8.02553 12.9953 9.28488V15.721C12.9953 16.9803 11.9744 18.0012 10.7151 18.0012H4.27902C3.01967 18.0012 1.99877 16.9803 1.99877 15.721V9.28488C1.99877 8.02553 3.01967 7.00463 4.27902 7.00463H10.7151Z" fill="#818598"/>
</svg>
