<svg width="17" height="16" viewBox="0 0 17 16" fill="none" xmlns="http://www.w3.org/2000/svg">
<path fill-rule="evenodd" clip-rule="evenodd" d="M8.15598 14.8518C9.03625 15.1575 9.73425 14.5257 9.98506 13.9703L12.0597 9.37572H13.4802C14.0121 9.37572 14.5245 9.16786 14.9042 8.79415C15.2843 8.42006 15.5 7.91012 15.5 7.37585V3.00134C15.5 2.46707 15.2843 1.95714 14.9042 1.58304C14.5245 1.20934 14.0121 1.00148 13.4802 1.00148H11.5754L4.4173 1.00148C3.9352 0.99722 3.46592 1.16391 3.09563 1.47371C2.72404 1.78459 2.47678 2.21923 2.40268 2.69889L2.40257 2.69965L1.52658 8.32279L1.5264 8.32393C1.48194 8.61228 1.50173 8.90666 1.58426 9.18645C1.66677 9.46622 1.80985 9.72409 2.0028 9.94249C2.19571 10.1609 2.43379 10.3345 2.70008 10.4521C2.96491 10.5691 3.25179 10.6281 3.54118 10.6256L6.13106 10.6256C6.26914 10.6256 6.38106 10.7375 6.38106 10.8756V12.3753C6.38106 13.0753 6.66369 13.7442 7.16283 14.2355C7.44649 14.5147 7.7868 14.7235 8.15598 14.8518ZM13.852 7.72512C13.7554 7.82021 13.6218 7.87572 13.4802 7.87572H12.3254L12.3254 2.50148H13.4802C13.6218 2.50148 13.7554 2.55698 13.852 2.65207C13.9482 2.74676 14 2.87264 14 3.00134L14 7.37585C14 7.50456 13.9482 7.63043 13.852 7.72512ZM4.4053 2.50143L4.4053 2.50148H4.41364L10.8254 2.50148L10.8254 8.46424L8.61797 13.353C8.60796 13.3751 8.59542 13.3946 8.5826 13.4098C8.44586 13.353 8.3209 13.2706 8.21506 13.1665C7.99979 12.9546 7.88106 12.6697 7.88106 12.3753L7.88106 10.8756C7.88106 9.90908 7.09756 9.12558 6.13106 9.12558L3.53747 9.12558V9.12553L3.52911 9.12562C3.45193 9.12648 3.37583 9.11079 3.3062 9.08004C3.23661 9.04929 3.17561 9.00445 3.12694 8.94936C3.07831 8.89432 3.0431 8.83032 3.02298 8.76209C3.00287 8.69393 2.99811 8.62255 3.00886 8.55267L3.00888 8.55254L3.88488 2.92931L3.88507 2.92807C3.90296 2.81197 3.96323 2.70358 4.05815 2.62417C4.15335 2.54452 4.27658 2.5 4.4053 2.50143Z" fill="#40434F"/>
</svg>
