<svg width="17" height="16" viewBox="0 0 17 16" fill="none" xmlns="http://www.w3.org/2000/svg">
<path fill-rule="evenodd" clip-rule="evenodd" d="M6.96456 11.1131C6.96456 10.5608 6.51685 10.1131 5.96456 10.1131H2.93868C2.73247 10.1154 2.52822 10.0735 2.34008 9.99027C2.15194 9.90706 1.98441 9.78455 1.84909 9.63121C1.71377 9.47786 1.61391 9.29737 1.55641 9.10222C1.49891 8.90707 1.48516 8.70194 1.51611 8.50103L2.49768 2.19302C2.54913 1.85877 2.72143 1.55409 2.98285 1.33513C3.24427 1.11617 3.57718 0.99769 3.92026 1.00151L11.8512 1.00151L11.8512 8.91612L9.36402 14.4305C9.20235 14.7889 8.83777 15.0393 8.46198 14.9236C8.13576 14.8231 7.83569 14.646 7.58956 14.4034C7.18938 14.0091 6.96456 13.4743 6.96456 12.9166V11.1131ZM13.5353 8.7113H14.0774C14.4547 8.7113 14.8166 8.56361 15.0833 8.30073C15.3501 8.03784 15.5 7.68129 15.5 7.30952V2.40329C15.5 2.03152 15.3501 1.67497 15.0833 1.41208C14.8166 1.1492 14.4547 1.00151 14.0774 1.00151H13.5353L13.5353 8.7113Z" fill="#818598"/>
</svg>
