<svg width="16" height="16" viewBox="0 0 16 16" fill="none" xmlns="http://www.w3.org/2000/svg">
<path fillRule="evenodd" clipRule="evenodd" d="M1.75 2C1.33579 2 1 2.33579 1 2.75V7.99763C1 8.41184 1.33579 8.74763 1.75 8.74763C2.16421 8.74763 2.5 8.41184 2.5 7.99763V4.765L5.71719 8.488C5.98801 8.80141 6.46163 8.83593 6.77504 8.5651C7.08845 8.29428 7.12297 7.82066 6.85214 7.50725L3.38933 3.5H6.28466C6.69888 3.5 7.03466 3.16421 7.03466 2.75C7.03466 2.33579 6.69888 2 6.28466 2H1.75ZM14.2482 13.9953C14.6624 13.9953 14.9982 13.6595 14.9982 13.2453V7.99763C14.9982 7.58341 14.6624 7.24763 14.2482 7.24763C13.834 7.24763 13.4982 7.58341 13.4982 7.99763V11.2303L10.281 7.50725C10.0102 7.19384 9.53654 7.15932 9.22313 7.43015C8.90972 7.70098 8.8752 8.17459 9.14603 8.488L12.6088 12.4953H9.71351C9.29929 12.4953 8.96351 12.831 8.96351 13.2453C8.96351 13.6595 9.29929 13.9953 9.71351 13.9953H14.2482Z" fill="#818598"/>
</svg>
