<svg width="16" height="16" viewBox="0 0 16 16" fill="none" xmlns="http://www.w3.org/2000/svg">
<path fill-rule="evenodd" clip-rule="evenodd" d="M9.53544 4.88692C9.53544 5.43921 9.98315 5.88692 10.5354 5.88692H13.5613C13.7675 5.88462 13.9718 5.92653 14.1599 6.00973C14.3481 6.09294 14.5156 6.21545 14.6509 6.36879C14.7862 6.52214 14.8861 6.70263 14.9436 6.89778C15.0011 7.09293 15.0148 7.29806 14.9839 7.49897L14.0023 13.807C13.9509 14.1412 13.7786 14.4459 13.5172 14.6649C13.2557 14.8838 12.9228 15.0023 12.5797 14.9985H4.64881V7.08388L7.13598 1.56954C7.29765 1.21112 7.66223 0.960675 8.03802 1.07639C8.36424 1.17685 8.66431 1.35402 8.91044 1.59655C9.31062 1.99088 9.53544 2.5257 9.53544 3.08336V4.88692ZM2.96472 7.2887H2.42257C2.04528 7.2887 1.68345 7.43639 1.41666 7.69927C1.14988 7.96216 1 8.31871 1 8.69048V13.5967C1 13.9685 1.14988 14.325 1.41666 14.5879C1.68345 14.8508 2.04528 14.9985 2.42257 14.9985H2.96472V7.2887Z" fill="#40BF95"/>
</svg>
