<svg width="16" height="16" viewBox="0 0 16 16" fill="none" xmlns="http://www.w3.org/2000/svg">
<path fill-rule="evenodd" clip-rule="evenodd" d="M8.34402 1.15019C7.46375 0.844472 6.76575 1.47623 6.51494 2.03168L4.4403 6.62624H3.01982C2.48793 6.62624 1.97548 6.8341 1.59581 7.2078C1.21574 7.5819 1 8.09183 1 8.6261V13.0006C1 13.5349 1.21574 14.0448 1.59581 14.4189C1.97548 14.7926 2.48793 15.0005 3.01982 15.0005H4.92456H12.0827C12.5648 15.0047 13.0341 14.838 13.4044 14.5282C13.776 14.2174 14.0232 13.7827 14.0973 13.3031L14.0974 13.3023L14.9734 7.67916L14.9736 7.67802C15.0181 7.38968 14.9983 7.0953 14.9157 6.8155C14.8332 6.53574 14.6901 6.27786 14.4972 6.05946C14.3043 5.8411 14.0662 5.66747 13.7999 5.54983C13.5351 5.43284 13.2482 5.37381 12.9588 5.37638H10.3689C10.2309 5.37638 10.1189 5.26445 10.1189 5.12638V3.62665C10.1189 2.92665 9.83631 2.25776 9.33717 1.76646C9.05351 1.48727 8.7132 1.27841 8.34402 1.15019ZM2.64803 8.27683C2.74464 8.18174 2.87816 8.12624 3.01982 8.12624H4.17456V13.5005H3.01982C2.87816 13.5005 2.74464 13.445 2.64803 13.3499C2.55183 13.2552 2.5 13.1293 2.5 13.0006V8.6261C2.5 8.4974 2.55183 8.37152 2.64803 8.27683ZM12.0947 13.5005L12.0947 13.5005H12.0864H5.67456V7.53772L7.88203 2.64898C7.89204 2.62681 7.90458 2.6074 7.9174 2.59213C8.05414 2.64898 8.1791 2.73131 8.28494 2.83549C8.50021 3.04738 8.61894 3.33221 8.61894 3.62665V5.12638C8.61894 6.09288 9.40244 6.87638 10.3689 6.87638H12.9625V6.87642L12.9709 6.87633C13.0481 6.87547 13.1242 6.89116 13.1938 6.92192C13.2634 6.95266 13.3244 6.99751 13.3731 7.05259C13.4217 7.10763 13.4569 7.17163 13.477 7.23987C13.4971 7.30803 13.5019 7.3794 13.4911 7.44928L13.4911 7.44941L12.6151 13.0726L12.6149 13.0739C12.597 13.19 12.5368 13.2984 12.4419 13.3778C12.3466 13.4574 12.2234 13.502 12.0947 13.5005Z" fill="#40434F"/>
</svg>
