<svg width="16" height="16" viewBox="0 0 16 16" fill="none" xmlns="http://www.w3.org/2000/svg">
    <path fill-rule="evenodd" clip-rule="evenodd" d="M4.62573 4.37574C4.62573 2.51137 6.1371 1 8.00147 1C9.86584 1 11.3772 2.51137 11.3772 4.37574V5.19709C11.4009 5.19894 11.4242 5.20091 11.4472 5.203C11.8688 5.2412 12.2626 5.32398 12.6278 5.53479C13.046 5.77619 13.3932 6.12344 13.6346 6.54161C13.8454 6.90681 13.9282 7.30066 13.9664 7.72218C14.003 8.12572 14.003 8.62156 14.003 9.21567V9.21569V9.2157V9.24962V9.28539C14.003 10.1895 14.003 10.9187 13.9497 11.5069C13.8947 12.1132 13.7785 12.6429 13.5007 13.1241C13.1715 13.6944 12.698 14.1679 12.1277 14.4971C11.6465 14.7749 11.1168 14.8911 10.5105 14.9461C9.92232 14.9994 9.19315 14.9994 8.28904 14.9994H8.25322H7.74974H7.71392C6.80982 14.9994 6.08064 14.9994 5.49243 14.9461C4.88616 14.8911 4.35643 14.7749 3.87522 14.4971C3.30498 14.1679 2.83146 13.6944 2.50228 13.1241C2.2245 12.6429 2.10823 12.1132 2.05329 11.5069C1.99998 10.9187 1.99999 10.1895 2 9.2854V9.24962V9.21569C1.99999 8.62157 1.99998 8.12573 2.03655 7.72218C2.07475 7.30066 2.15753 6.90681 2.36834 6.54161C2.60974 6.12344 2.95698 5.77619 3.37516 5.53479C3.74035 5.32398 4.13421 5.2412 4.55573 5.203C4.57876 5.20091 4.6021 5.19894 4.62573 5.19709V4.37574ZM9.87721 4.37574V5.16645H6.12573V4.37574C6.12573 3.3398 6.96553 2.5 8.00147 2.5C9.03742 2.5 9.87721 3.3398 9.87721 4.37574ZM4.6911 6.69688C4.37361 6.72565 4.22394 6.77681 4.12507 6.83388C3.93499 6.94361 3.77715 7.10145 3.66743 7.29153C3.61036 7.39039 3.5592 7.54006 3.53043 7.85756C3.50072 8.18536 3.5 8.61282 3.5 9.24962C3.5 10.1979 3.50072 10.859 3.54717 11.3715C3.59268 11.8738 3.67733 12.1593 3.80137 12.3742C3.99887 12.7164 4.28299 13.0005 4.62513 13.198C4.84001 13.322 5.12556 13.4067 5.62781 13.4522C6.14037 13.4986 6.80145 13.4994 7.74974 13.4994H8.25322C9.20152 13.4994 9.8626 13.4986 10.3752 13.4522C10.8774 13.4067 11.163 13.322 11.3778 13.198C11.72 13.0005 12.0041 12.7164 12.2016 12.3742C12.3256 12.1593 12.4103 11.8738 12.4558 11.3715C12.5022 10.859 12.503 10.1979 12.503 9.24962C12.503 8.61282 12.5022 8.18536 12.4725 7.85756C12.4438 7.54006 12.3926 7.39039 12.3355 7.29153C12.2258 7.10145 12.068 6.94361 11.8779 6.83388C11.779 6.77681 11.6294 6.72565 11.3119 6.69688C10.9841 6.66717 10.5566 6.66645 9.9198 6.66645H6.08316C5.44637 6.66645 5.01891 6.66717 4.6911 6.69688ZM8.00148 11.4717C8.72656 11.4717 9.31436 10.8499 9.31436 10.0829C9.31436 9.31588 8.72656 8.69409 8.00148 8.69409C7.27641 8.69409 6.68861 9.31588 6.68861 10.0829C6.68861 10.8499 7.27641 11.4717 8.00148 11.4717Z" fill="#40434F"/>
</svg>
