<svg width="20" height="20" viewBox="0 0 20 20" fill="none" xmlns="http://www.w3.org/2000/svg">
    <path fill-rule="evenodd" clip-rule="evenodd" d="M3.7 8.56878C3.7 5.88003 5.88027 3.7 8.57022 3.7C11.2602 3.7 13.4404 5.88003 13.4404 8.56878C13.4404 11.2575 11.2602 13.4376 8.57022 13.4376C5.88027 13.4376 3.7 11.2575 3.7 8.56878ZM8.57022 2C4.94179 2 2 4.94074 2 8.56878C2 12.1968 4.94179 15.1376 8.57022 15.1376C10.0888 15.1376 11.4872 14.6224 12.5999 13.7574C12.6365 13.8211 12.682 13.8811 12.7365 13.9356L16.5499 17.7481C16.8819 18.08 17.4201 18.0799 17.752 17.7479C18.0839 17.4159 18.0839 16.8778 17.7519 16.5458L13.9384 12.7333C13.884 12.679 13.8241 12.6335 13.7605 12.5969C14.6254 11.4846 15.1404 10.0869 15.1404 8.56878C15.1404 4.94074 12.1986 2 8.57022 2Z" fill="#818598"/>
</svg>
