<svg width="33" height="32" viewBox="0 0 33 32" fill="none" xmlns="http://www.w3.org/2000/svg">
<path fill-rule="evenodd" clip-rule="evenodd" d="M10.0622 3L10.0115 3H10.0114C9.32289 2.99997 8.72915 2.99995 8.24546 3.05114C7.73199 3.10549 7.22817 3.22648 6.77292 3.54701C6.49104 3.74548 6.24548 3.99104 6.04701 4.27292C5.72648 4.72817 5.60549 5.23199 5.55114 5.74546C5.49995 6.22915 5.49997 6.82289 5.5 7.51144V7.51149L5.5 7.56215V24.4379L5.5 24.4885V24.4886C5.49997 25.1771 5.49995 25.7709 5.55114 26.2545C5.60549 26.768 5.72648 27.2718 6.04701 27.7271C6.24548 28.009 6.49104 28.2545 6.77292 28.453C7.22817 28.7735 7.73199 28.8945 8.24546 28.9489C8.72915 29.0001 9.32289 29 10.0114 29H10.0115H10.0622H10.1128H10.1129C10.8014 29 11.3952 29.0001 11.8788 28.9489C12.3923 28.8945 12.8961 28.7735 13.3514 28.453C13.6333 28.2545 13.8788 28.009 14.0773 27.7271C14.3978 27.2718 14.5188 26.768 14.5732 26.2545C14.6244 25.7709 14.6243 25.1771 14.6243 24.4886L14.6243 24.4379V7.56215L14.6243 7.51146C14.6243 6.8229 14.6244 6.22916 14.5732 5.74546C14.5188 5.23199 14.3978 4.72817 14.0773 4.27292C13.8788 3.99104 13.6333 3.74548 13.3514 3.54701C12.8961 3.22648 12.3923 3.10549 11.8788 3.05114C11.3952 2.99995 10.8014 2.99997 10.1129 3H10.1128L10.0622 3ZM7.92431 5.18234C7.987 5.1382 8.10808 5.07685 8.45597 5.04003C8.82179 5.00131 9.30857 5 10.0622 5C10.8157 5 11.3025 5.00131 11.6683 5.04003C12.0162 5.07685 12.1373 5.1382 12.2 5.18234C12.294 5.24849 12.3758 5.33035 12.442 5.42431C12.4861 5.487 12.5475 5.60808 12.5843 5.95597C12.623 6.32179 12.6243 6.80857 12.6243 7.56215V24.4379C12.6243 25.1914 12.623 25.6782 12.5843 26.044C12.5475 26.3919 12.4861 26.513 12.442 26.5757C12.3758 26.6697 12.294 26.7515 12.2 26.8177C12.1373 26.8618 12.0162 26.9232 11.6683 26.96C11.3025 26.9987 10.8157 27 10.0622 27C9.30857 27 8.82179 26.9987 8.45597 26.96C8.10808 26.9232 7.987 26.8618 7.92431 26.8177C7.83035 26.7515 7.74849 26.6697 7.68234 26.5757C7.6382 26.513 7.57685 26.3919 7.54003 26.044C7.50131 25.6782 7.5 25.1914 7.5 24.4379V7.56215C7.5 6.80857 7.50131 6.32179 7.54003 5.95597C7.57685 5.60808 7.6382 5.487 7.68234 5.42431C7.74849 5.33035 7.83035 5.24849 7.92431 5.18234ZM22.9379 3L22.8872 3H22.8871C22.1986 2.99997 21.6049 2.99995 21.1212 3.05114C20.6077 3.10549 20.1039 3.22648 19.6486 3.54701C19.3667 3.74548 19.1212 3.99104 18.9227 4.27292C18.6022 4.72817 18.4812 5.23199 18.4268 5.74546C18.3756 6.22915 18.3757 6.82289 18.3757 7.51144V7.51149L18.3757 7.56215V24.4379L18.3757 24.4885V24.4886C18.3757 25.1771 18.3756 25.7709 18.4268 26.2545C18.4812 26.768 18.6022 27.2718 18.9227 27.7271C19.1212 28.009 19.3667 28.2545 19.6486 28.453C20.1039 28.7735 20.6077 28.8945 21.1212 28.9489C21.6049 29.0001 22.1986 29 22.8871 29H22.8872H22.9379H22.9885H22.9886C23.6771 29 24.2709 29.0001 24.7545 28.9489C25.268 28.8945 25.7718 28.7735 26.2271 28.453C26.509 28.2545 26.7545 28.009 26.953 27.7271C27.2735 27.2718 27.3945 26.768 27.4489 26.2545C27.5001 25.7709 27.5 25.1771 27.5 24.4886V24.4886L27.5 24.4379V7.56215L27.5 7.51146V7.51144C27.5 6.82289 27.5001 6.22915 27.4489 5.74546C27.3945 5.23199 27.2735 4.72817 26.953 4.27292C26.7545 3.99104 26.509 3.74548 26.2271 3.54701C25.7718 3.22648 25.268 3.10549 24.7545 3.05114C24.2709 2.99995 23.6771 2.99997 22.9886 3H22.9885L22.9379 3ZM20.8 5.18234C20.8627 5.1382 20.9838 5.07685 21.3317 5.04003C21.6975 5.00131 22.1843 5 22.9379 5C23.6914 5 24.1782 5.00131 24.544 5.04003C24.8919 5.07685 25.013 5.1382 25.0757 5.18234C25.1697 5.24849 25.2515 5.33035 25.3177 5.42431C25.3618 5.487 25.4232 5.60808 25.46 5.95597C25.4987 6.32179 25.5 6.80857 25.5 7.56215V24.4379C25.5 25.1914 25.4987 25.6782 25.46 26.044C25.4232 26.3919 25.3618 26.513 25.3177 26.5757C25.2515 26.6697 25.1697 26.7515 25.0757 26.8177C25.013 26.8618 24.8919 26.9232 24.544 26.96C24.1782 26.9987 23.6914 27 22.9379 27C22.1843 27 21.6975 26.9987 21.3317 26.96C20.9838 26.9232 20.8627 26.8618 20.8 26.8177C20.706 26.7515 20.6242 26.6697 20.558 26.5757C20.5139 26.513 20.4526 26.3919 20.4157 26.044C20.377 25.6782 20.3757 25.1914 20.3757 24.4379V7.56215C20.3757 6.80857 20.377 6.32179 20.4157 5.95597C20.4526 5.60808 20.5139 5.487 20.558 5.42431C20.6242 5.33035 20.706 5.24849 20.8 5.18234Z" fill="#40434F"/>
</svg>
