<svg width="16" height="16" viewBox="0 0 16 16" fill="none" xmlns="http://www.w3.org/2000/svg">
<path fill-rule="evenodd" clip-rule="evenodd" d="M4.198 12.3477L4.19802 12.3477L4.99741 12.1484L5.03897 12.138L5.772 11.9552C6.03873 11.8887 6.17209 11.8555 6.29029 11.7887C6.40848 11.722 6.5058 11.6249 6.70045 11.4308L10.2671 7.87404C9.32023 7.39997 8.54086 6.65629 8.02244 5.74564L4.51209 9.24628C4.3169 9.44093 4.2193 9.53826 4.15211 9.65664L2.84757 8.91627C3.02134 8.61008 3.26494 8.36973 3.41199 8.22465L3.4529 8.18415L3.4529 8.18415L3.48337 8.15376L3.48338 8.15375L8.5368 3.1143L9.30514 3.88477L8.5368 3.1143L8.56276 3.08841C8.71965 2.93188 8.88987 2.76206 9.04858 2.6257C9.22771 2.4718 9.47901 2.28217 9.81661 2.15667L10.3339 3.54819L9.81661 2.15667C10.3786 1.94778 10.9969 1.94778 11.5588 2.15667C11.8964 2.28217 12.1477 2.4718 12.3268 2.6257C12.4855 2.76206 12.6557 2.93188 12.8126 3.08841L12.8386 3.1143L12.8646 3.14025C13.0224 3.29753 13.1935 3.46804 13.3308 3.62704C13.4857 3.80638 13.6768 4.05827 13.8032 4.39712L13.8032 4.39713C14.0136 4.96083 14.0136 5.58149 13.8032 6.1452L13.8032 6.1452C13.6768 6.48405 13.4857 6.73595 13.3308 6.91528C13.1935 7.07428 13.0224 7.24477 12.8647 7.40205L12.8646 7.40208L12.8386 7.42802L7.75964 12.4929L7.71914 12.5336C7.57406 12.6799 7.33371 12.9221 7.02801 13.0948L7.028 13.0948C6.7223 13.2675 6.39076 13.3482 6.19061 13.397L6.1906 13.397L6.13486 13.4107L4.62673 13.7867L4.62672 13.7867L4.56089 13.8031L4.56088 13.8031L4.52432 13.8123L4.52431 13.8123C4.38418 13.8476 4.14397 13.908 3.92437 13.9294C3.6657 13.9545 3.02282 13.971 2.49502 13.4425C1.96723 12.914 1.98454 12.2712 2.01001 12.0125C2.03164 11.7929 2.09243 11.5528 2.12789 11.4127L2.13712 11.3762L2.5294 9.81136L2.54319 9.75547C2.59235 9.55484 2.67379 9.22246 2.84757 8.91627L4.15211 9.65664C4.08493 9.77502 4.05141 9.90872 3.98438 10.1761L3.80284 10.9003L3.79242 10.9418L3.7575 11.0811L3.7575 11.0811L3.59209 11.7409C3.5016 12.1019 3.45635 12.2824 3.55638 12.3825C3.6564 12.4827 3.83694 12.4377 4.198 12.3477ZM9.5252 4.24703C9.86997 5.19586 10.6314 5.94504 11.6032 6.26808L11.8089 6.33647C12.1508 5.99546 12.3237 5.81955 12.3979 5.62078C12.482 5.39529 12.482 5.14703 12.3979 4.92155C12.3216 4.71714 12.1409 4.5369 11.7794 4.17643C11.4197 3.81775 11.2399 3.63841 11.0361 3.56267C10.8114 3.47911 10.564 3.47911 10.3393 3.56267C10.1355 3.63841 9.95567 3.81775 9.59599 4.17643L9.5252 4.24703Z" fill="#818598"/>
</svg>
