<?xml version="1.0"?>
<svg width="20" height="20" viewBox="0 0 20 20" fill="none" xmlns="http://www.w3.org/2000/svg">
<path fill-rule="evenodd" clip-rule="evenodd" d="M10.998 2.75C10.998 2.19772 10.5503 1.75 9.99799 1.75C9.44571 1.75 8.99799 2.19772 8.99799 2.75L8.99799 8.99798L2.75 8.99798C2.19772 8.99798 1.75 9.4457 1.75 9.99798C1.75 10.5503 2.19772 10.998 2.75 10.998H8.99799L8.99799 17.246C8.99799 17.7983 9.44571 18.246 9.99799 18.246C10.5503 18.246 10.998 17.7983 10.998 17.246V10.998H17.246C17.7983 10.998 18.246 10.5503 18.246 9.99799C18.246 9.4457 17.7983 8.99799 17.246 8.99799L10.998 8.99798V2.75Z"/>
</svg>
