<?xml version="1.0"?>
<svg width="21" height="20" viewBox="0 0 21 20" fill="none" xmlns="http://www.w3.org/2000/svg">
<path fill-rule="evenodd" clip-rule="evenodd" d="M11.2492 2.1875C11.2492 1.77329 10.9134 1.4375 10.4992 1.4375C10.085 1.4375 9.74917 1.77329 9.74917 2.1875L9.74917 9.24916L2.6875 9.24916C2.27329 9.24916 1.9375 9.58495 1.9375 9.99916C1.9375 10.4134 2.27329 10.7492 2.6875 10.7492H9.74917L9.74917 17.8108C9.74917 18.225 10.085 18.5608 10.4992 18.5608C10.9134 18.5608 11.2492 18.225 11.2492 17.8108V10.7492H18.3108C18.725 10.7492 19.0608 10.4134 19.0608 9.99916C19.0608 9.58495 18.725 9.24916 18.3108 9.24916L11.2492 9.24916V2.1875Z" fill="#40BF95" />
</svg>
