<svg width="16" height="16" viewBox="0 0 16 16" fill="none" xmlns="http://www.w3.org/2000/svg">
<path fill-rule="evenodd" clip-rule="evenodd" d="M7.99832 2.5C4.96168 2.5 2.5 4.96168 2.5 7.99832C2.5 11.035 4.96168 13.4966 7.99832 13.4966C11.035 13.4966 13.4966 11.035 13.4966 7.99832C13.4966 4.96168 11.035 2.5 7.99832 2.5ZM1 7.99832C1 4.13325 4.13325 1 7.99832 1C11.8634 1 14.9966 4.13325 14.9966 7.99832C14.9966 11.8634 11.8634 14.9966 7.99832 14.9966C4.13325 14.9966 1 11.8634 1 7.99832ZM8.83149 11.3828C8.83149 11.8142 8.48181 12.1639 8.05045 12.1639C7.61909 12.1639 7.26941 11.8142 7.26941 11.3828C7.26941 10.9515 7.61909 10.6018 8.05045 10.6018C8.48181 10.6018 8.83149 10.9515 8.83149 11.3828ZM7.99836 3.77737C6.72143 3.77737 5.68628 4.81252 5.68628 6.08945V6.26302H7.18628V6.08945C7.18628 5.64095 7.54986 5.27737 7.99836 5.27737C8.44686 5.27737 8.81044 5.64095 8.81044 6.08945V6.45109C8.81044 6.82298 8.63419 7.17287 8.33535 7.39423L8.04723 7.60766C7.54473 7.97988 7.24836 8.56823 7.24836 9.19358V9.7343H8.74836V9.19358C8.74836 9.04351 8.81948 8.90232 8.94007 8.81299L9.22819 8.59957C9.90895 8.09531 10.3104 7.29826 10.3104 6.45109V6.08945C10.3104 4.81253 9.27529 3.77737 7.99836 3.77737Z" fill="#40BF95"/>
</svg>
