<svg width="20" height="20" viewBox="0 0 20 20" fill="#818598" xmlns="http://www.w3.org/2000/svg">
<path fill-rule="evenodd" clip-rule="evenodd" d="M10.0021 3.60039C6.46635 3.60039 3.60002 6.46672 3.60002 10.0025C3.60002 13.5383 6.46635 16.4046 10.0021 16.4046C13.5379 16.4046 16.4043 13.5383 16.4043 10.0025C16.4043 6.46672 13.5379 3.60039 10.0021 3.60039ZM1.90002 10.0025C1.90002 5.52784 5.52747 1.90039 10.0021 1.90039C14.4768 1.90039 18.1043 5.52784 18.1043 10.0025C18.1043 14.4772 14.4768 18.1046 10.0021 18.1046C5.52747 18.1046 1.90002 14.4772 1.90002 10.0025ZM10.9692 13.9307C10.9692 14.4314 10.5633 14.8373 10.0626 14.8373C9.56198 14.8373 9.15612 14.4314 9.15612 13.9307C9.15612 13.4301 9.56198 13.0242 10.0626 13.0242C10.5633 13.0242 10.9692 13.4301 10.9692 13.9307ZM10.0022 5.12395C8.53142 5.12395 7.33914 6.31623 7.33914 7.78698V7.98843H9.03914V7.78698C9.03914 7.25512 9.4703 6.82395 10.0022 6.82395C10.534 6.82395 10.9652 7.25512 10.9652 7.78698V8.20672C10.9652 8.64485 10.7576 9.05706 10.4055 9.31785L10.0711 9.56555C9.49308 9.99372 9.15217 10.6705 9.15217 11.3898V12.0174H10.8522V11.3898C10.8522 11.2091 10.9378 11.0391 11.083 10.9316L11.4174 10.6839C12.2023 10.1025 12.6652 9.1835 12.6652 8.20672V7.78698C12.6652 6.31623 11.4729 5.12395 10.0022 5.12395Z" fill="#818598"/>
</svg>
