<svg width="20" height="20" viewBox="0 0 20 20" fill="none" xmlns="http://www.w3.org/2000/svg">
<path fill-rule="evenodd" clip-rule="evenodd" d="M10.6537 2.05464C12.0692 1.87119 13.5074 2.15245 14.7457 2.85623C15.9842 3.56012 16.9548 4.64823 17.5042 5.95404C18.0538 7.26008 18.1504 8.70897 17.7785 10.0752C17.4067 11.4412 16.5881 12.6457 15.4525 13.5034C14.4357 14.2715 13.2152 14.7236 11.9459 14.8095L13.7112 16.5473C14.0457 16.8766 14.05 17.4148 13.7206 17.7494C13.3913 18.0839 12.8531 18.0881 12.5186 17.7588L9.28976 14.5804C9.12746 14.4206 9.03606 14.2024 9.03606 13.9746C9.03606 13.7469 9.12746 13.5286 9.28976 13.3689L12.5186 10.1904C12.8531 9.86108 13.3913 9.86531 13.7206 10.1999C14.05 10.5344 14.0457 11.0726 13.7112 11.4019L11.9857 13.1005C12.8719 13.0121 13.7182 12.683 14.4279 12.1469C15.266 11.5138 15.8662 10.6281 16.1382 9.62869C16.4102 8.62944 16.3398 7.56983 15.9373 6.61337C15.5348 5.65669 14.8216 4.85476 13.9057 4.3342C12.9895 3.81352 11.9231 3.60435 10.8722 3.74054C9.82133 3.87673 8.84761 4.35023 8.10129 5.08491C7.35518 5.81938 6.87797 6.77367 6.74085 7.79896C6.60374 8.82415 6.81388 9.866 7.34023 10.7634C7.57772 11.1684 7.44198 11.6892 7.03705 11.9267C6.63211 12.1642 6.11132 12.0284 5.87383 11.6235C5.15632 10.4001 4.86825 8.97637 5.05585 7.57361C5.24344 6.17094 5.89572 4.87059 6.90869 3.87342C7.92144 2.87647 9.23809 2.2381 10.6537 2.05464Z" fill="#40BF95"/>
</svg>
