<?xml version="1.0"?>
<svg width="20" height="20" viewBox="0 0 20 20" fill="none" xmlns="http://www.w3.org/2000/svg">
<path fill-rule="evenodd" clip-rule="evenodd" d="M1.00002 6.81718L1.00004 6.93538L1.00004 7.9567H2.70004L2.70004 6.93538C2.70004 5.9366 2.70587 5.58576 2.76959 5.31751C2.96007 4.51564 3.49812 3.95287 4.10925 3.76817C4.30421 3.70924 4.56879 3.70012 5.4718 3.70012V2.00012L5.34468 2.00006C4.62744 1.99959 4.086 1.99924 3.61741 2.14087C2.35378 2.52279 1.42747 3.61179 1.11561 4.92461C0.999613 5.41293 0.999779 5.98157 1.00002 6.81718ZM18.9981 6.81718L18.998 6.93538V7.9567H17.298V6.93538C17.298 5.9366 17.2922 5.58576 17.2285 5.31751C17.038 4.51564 16.5 3.95287 15.8888 3.76817C15.6939 3.70924 15.4293 3.70012 14.5263 3.70012L14.5263 2.00012L14.6534 2.00006C15.3706 1.99959 15.9121 1.99924 16.3807 2.14087C17.6443 2.52279 18.5706 3.61179 18.8825 4.92461C18.9985 5.41293 18.9983 5.98155 18.9981 6.81715V6.81718ZM17.298 13.0633C17.298 14.0621 17.2922 14.4129 17.2285 14.6812C17.038 15.483 16.5 16.0458 15.8888 16.2305C15.6939 16.2894 15.4293 16.2985 14.5263 16.2985V17.9985L14.6534 17.9986C15.3706 17.9991 15.9121 17.9994 16.3807 17.8578C17.6443 17.4759 18.5706 16.3869 18.8825 15.074C18.9985 14.5857 18.9983 14.0171 18.9981 13.1815V13.1815L18.998 13.0633V12.042H17.298V13.0633ZM2.76959 14.6812C2.70587 14.4129 2.70004 14.0621 2.70004 13.0633V12.042H1.00004L1.00004 13.0633L1.00002 13.1815C0.999779 14.0171 0.999613 14.5857 1.11561 15.074C1.42747 16.3869 2.35378 17.4759 3.61741 17.8578C4.08601 17.9994 4.62744 17.9991 5.34468 17.9986L5.4718 17.9985V16.2985C4.56879 16.2985 4.30421 16.2894 4.10925 16.2305C3.49812 16.0458 2.96007 15.483 2.76959 14.6812ZM6.02533 9.14932C5.55589 9.14932 5.17533 9.52988 5.17533 9.99932C5.17533 10.4688 5.55589 10.8493 6.02533 10.8493H14.0743C14.5437 10.8493 14.9243 10.4688 14.9243 9.99932C14.9243 9.52988 14.5437 9.14932 14.0743 9.14932H6.02533Z" fill="#818598"/>
</svg>
