<svg width="16" height="16" viewBox="0 0 16 16" xmlns="http://www.w3.org/2000/svg">
<path fill-rule="evenodd" clip-rule="evenodd" d="M7.54095 0C6.59263 0 5.7986 0.718586 5.70424 1.6622C5.6768 1.93657 5.35466 2.07023 5.14095 1.89537C4.40699 1.29486 3.33728 1.34807 2.66662 2.01872L2.01906 2.66629C1.34838 3.33696 1.29511 4.40672 1.89568 5.14075C2.07057 5.35451 1.93694 5.6768 1.66235 5.70426C0.718652 5.79863 0 6.59273 0 7.54114V8.45704C0 9.4054 0.718615 10.1995 1.66226 10.2938C1.93684 10.3213 2.07036 10.6435 1.89556 10.8571C1.29502 11.5911 1.34834 12.6608 2.01895 13.3314L2.6666 13.9791C3.33721 14.6497 4.40687 14.703 5.14087 14.1025C5.35451 13.9277 5.67676 14.0612 5.70423 14.3358C5.7986 15.2795 6.59267 15.9981 7.54105 15.9981H8.45689C9.40538 15.9981 10.1994 15.2793 10.2938 14.3356C10.3213 14.0608 10.6437 13.9275 10.8571 14.1022C11.5911 14.7027 12.6607 14.6493 13.3313 13.9788L13.9791 13.331C14.6496 12.6604 14.703 11.5909 14.1025 10.8569C13.9278 10.6435 14.0612 10.3213 14.3358 10.2938C15.2794 10.1995 15.9981 9.40545 15.9981 8.45708V7.5411C15.9981 6.5927 15.2794 5.79863 14.3358 5.70426C14.0611 5.67679 13.9276 5.35452 14.1024 5.14094C14.7029 4.40694 14.6496 3.33731 13.979 2.66671L13.3313 2.01902C12.6607 1.34843 11.5911 1.29508 10.8571 1.89562C10.6435 2.07039 10.3213 1.93693 10.2938 1.66228C10.1994 0.718632 9.40536 0 8.45699 0H7.54095ZM7.19679 1.81145C7.21448 1.63464 7.36326 1.5 7.54095 1.5H8.45699C8.63472 1.5 8.78355 1.63468 8.80123 1.81154C8.94777 3.27694 10.6671 3.98915 11.8069 3.05656C11.9445 2.94401 12.145 2.95401 12.2706 3.07968L12.9183 3.72737C13.044 3.85305 13.054 4.05352 12.9414 4.19108C12.0088 5.33096 12.7211 7.05028 14.1865 7.19682C14.3634 7.21451 14.4981 7.36336 14.4981 7.5411V8.45708C14.4981 8.63475 14.3634 8.78358 14.1866 8.80127C12.7214 8.94779 12.009 10.6669 12.9416 11.8068C13.0541 11.9443 13.0441 12.1447 12.9184 12.2703L12.2707 12.9181C12.145 13.0438 11.9445 13.0538 11.807 12.9412C10.667 12.0085 8.94777 12.7212 8.80125 14.1864C8.78355 14.3634 8.63462 14.4981 8.45689 14.4981H7.54105C7.3633 14.4981 7.21447 14.3634 7.19678 14.1865C7.05024 12.7211 5.33085 12.0089 4.19101 12.9415C4.05343 13.0541 3.85295 13.0441 3.72726 12.9184L3.07961 12.2707C2.95394 12.1451 2.94393 11.9446 3.05649 11.807C3.98904 10.6672 3.27698 8.94781 1.81152 8.80127C1.63467 8.78358 1.5 8.63477 1.5 8.45704V7.54114C1.5 7.36336 1.63471 7.21451 1.8116 7.19682C3.27721 7.05026 3.98917 5.33068 3.05661 4.19089C2.94399 4.05324 2.95401 3.85265 3.07972 3.72695L3.72728 3.07938C3.85293 2.95374 4.05347 2.9437 4.19109 3.0563C5.33072 3.98873 7.05024 3.277 7.19679 1.81145ZM5.84943 7.99905C5.84943 6.81185 6.81184 5.84943 7.99905 5.84943C9.18625 5.84943 10.1487 6.81185 10.1487 7.99905C10.1487 9.18625 9.18625 10.1487 7.99905 10.1487C6.81184 10.1487 5.84943 9.18625 5.84943 7.99905ZM7.99905 4.34943C5.98342 4.34943 4.34943 5.98342 4.34943 7.99905C4.34943 10.0147 5.98342 11.6487 7.99905 11.6487C10.0147 11.6487 11.6487 10.0147 11.6487 7.99905C11.6487 5.98342 10.0147 4.34943 7.99905 4.34943Z" fill="#818598"/>
</svg>
