<svg width="17" height="16" viewBox="0 0 17 16" fill="none" xmlns="http://www.w3.org/2000/svg">
<path fill-rule="evenodd" clip-rule="evenodd" d="M4.887 6.77228C4.5941 7.06516 4.11923 7.06515 3.82634 6.77225C3.53346 6.47935 3.53347 6.00447 3.82637 5.71159L8.21846 1.31975C8.51135 1.02688 8.9862 1.02688 9.27909 1.31975L13.6712 5.71159C13.9641 6.00447 13.9641 6.47935 13.6712 6.77225C13.3783 7.06515 12.9034 7.06516 12.6105 6.77228L9.49877 3.66069L9.49877 9.7554C9.49877 10.1696 9.16299 10.5054 8.74877 10.5054C8.33456 10.5054 7.99877 10.1696 7.99877 9.7554L7.99877 3.66069L4.887 6.77228ZM3.34961 11.5121C3.34961 11.0979 3.01382 10.7621 2.59961 10.7621C2.1854 10.7621 1.84961 11.0979 1.84961 11.5121V12.3905C1.84961 13.775 2.972 14.8972 4.35644 14.8972L13.1406 14.8972C14.5251 14.8972 15.6474 13.775 15.6474 12.3905V11.5121C15.6474 11.0979 15.3117 10.7621 14.8974 10.7621C14.4832 10.7621 14.1474 11.0979 14.1474 11.5121V12.3905C14.1474 12.9465 13.6967 13.3972 13.1406 13.3972L4.35644 13.3972C3.80034 13.3972 3.34961 12.9465 3.34961 12.3905V11.5121Z" fill="#40434F"/>
</svg>
