<?xml version="1.0" encoding="UTF-8"?>
<svg xmlns="http://www.w3.org/2000/svg" xmlns:xlink="http://www.w3.org/1999/xlink" viewBox="0 0 50 50" width="50px" height="50px">
<g id="surface146470973">
<path style="fill-rule:nonzero;fill:rgb(0%,0%,0%);fill-opacity:1;stroke-width:2;stroke-linecap:butt;stroke-linejoin:round;stroke:rgb(80.000001%,80.000001%,80.000001%);stroke-opacity:1;stroke-miterlimit:10;" d="M 165.115325 86.000002 C 165.115325 129.658278 129.658278 165.115325 86.000002 165.115325 C 42.341727 165.115325 6.884679 129.658278 6.884679 86.000002 C 6.884679 42.341727 42.341727 6.884679 86.000002 6.884679 C 129.658278 6.884679 165.115325 42.341727 165.115325 86.000002 Z M 13.766638 86.000002 C 13.766638 125.931683 46.068321 158.233367 86.000002 158.233367 C 125.931683 158.233367 158.233367 125.931683 158.233367 86.000002 C 158.233367 46.068321 125.931683 13.766638 86.000002 13.766638 C 46.068321 13.766638 13.766638 46.068321 13.766638 86.000002 Z M 96.32294 48.16283 C 96.32294 53.861527 91.698699 58.485768 86.000002 58.485768 C 80.301305 58.485768 75.677064 53.861527 75.677064 48.16283 C 75.677064 42.464133 80.301305 37.839892 86.000002 37.839892 C 91.698699 37.839892 96.32294 42.464133 96.32294 48.16283 Z M 92.881961 72.236085 L 92.881961 123.837174 L 99.76392 123.837174 L 99.76392 130.719133 L 72.236085 130.719133 L 72.236085 123.837174 L 79.118044 123.837174 L 79.118044 79.118044 L 72.236085 79.118044 L 72.236085 72.236085 Z M 92.881961 72.236085 " transform="matrix(0.287209,0,0,0.287209,0.3,0.3)"/>
<path style=" stroke:none;fill-rule:nonzero;fill:rgb(0%,0%,0%);fill-opacity:1;" d="M 25 2.277344 C 12.460938 2.277344 2.277344 12.460938 2.277344 25 C 2.277344 37.539062 12.460938 47.722656 25 47.722656 C 37.539062 47.722656 47.722656 37.539062 47.722656 25 C 47.722656 12.460938 37.539062 2.277344 25 2.277344 Z M 25 4.253906 C 36.46875 4.253906 45.746094 13.53125 45.746094 25 C 45.746094 36.46875 36.46875 45.746094 25 45.746094 C 13.53125 45.746094 4.253906 36.46875 4.253906 25 C 4.253906 13.53125 13.53125 4.253906 25 4.253906 Z M 25 11.167969 C 23.363281 11.167969 22.035156 12.496094 22.035156 14.132812 C 22.035156 15.769531 23.363281 17.097656 25 17.097656 C 26.636719 17.097656 27.964844 15.769531 27.964844 14.132812 C 27.964844 12.496094 26.636719 11.167969 25 11.167969 Z M 21.046875 21.046875 L 21.046875 23.023438 L 23.023438 23.023438 L 23.023438 35.867188 L 21.046875 35.867188 L 21.046875 37.84375 L 28.953125 37.84375 L 28.953125 35.867188 L 26.976562 35.867188 L 26.976562 21.046875 Z M 21.046875 21.046875 "/>
</g>
</svg>
