<svg width="24" height="24" viewBox="0 0 24 24" fill="none" xmlns="http://www.w3.org/2000/svg">
    <g clip-path="url(#clip0_4455_69601)">
        <rect width="20" height="14" transform="translate(2 5)" fill="#F93939"/>
        <path d="M20.0952 5H3.90476C2.85279 5 2 5.83574 2 6.86667V17.1333C2 18.1643 2.85279 19 3.90476 19H20.0952C21.1472 19 22 18.1643 22 17.1333V6.86667C22 5.83574 21.1472 5 20.0952 5Z" fill="#F93939"/>
        <path fill-rule="evenodd" clip-rule="evenodd" d="M7.23632 11.7488L5.83632 12.4702L6.10299 10.9424L4.97156 9.85971L6.53632 9.63851L7.23632 8.24785L7.93537 9.63851L9.50013 9.85971L8.3668 10.9424L8.63537 12.4693L7.23632 11.7488ZM10.5716 7.80078H11.5239V8.73411H10.5716V7.80078ZM11.5239 9.66745H12.4763V10.6008H11.5239V9.66745ZM11.5239 11.5341H12.4763V12.4674H11.5239V11.5341ZM10.5716 13.4008H11.5239V14.3341H10.5716V13.4008Z" fill="#FFDA2C"/>
    </g>
    <defs>
        <clipPath id="clip0_4455_69601">
            <rect width="20" height="14" fill="white" transform="translate(2 5)"/>
        </clipPath>
    </defs>
</svg>