<svg width="100" height="192" viewBox="0 0 100 192" fill="none" xmlns="http://www.w3.org/2000/svg">
<g clip-path="url(#clip0_3430_28101)">
<path d="M98.0293 116.544L97.3688 117.158L97.1904 117.322L96.9059 117.576L94.9772 119.366L91.1198 122.928C90.0203 122.456 89.0243 121.775 88.1882 120.922C87.163 119.942 85.9648 119.159 84.6538 118.613C77.0499 115.282 63.9493 116.64 57.7581 118.925C50.4484 121.627 44.0258 123.946 30.9685 119.53C30.0042 119.208 29.1025 118.925 28.2153 118.67C27.9212 118.584 27.6367 118.502 27.3474 118.43C26.7736 118.277 26.2191 118.142 25.6743 118.013C24.681 117.786 23.7279 117.606 22.815 117.475L22.5209 117.432L21.8217 117.346C21.5951 117.312 21.3685 117.293 21.1467 117.269C20.9249 117.245 20.8332 117.24 20.6645 117.23C20.4957 117.221 20.245 117.192 20.0377 117.187L19.1842 117.144H18.3645H17.8582H17.3761C16.7058 117.173 16.0549 117.221 15.4184 117.293C14.9363 117.346 14.4541 117.408 13.9719 117.485L13.4897 117.566L13.1377 117.629H13.0172C12.6797 117.696 12.3422 117.763 12.0046 117.845L11.6478 117.922C10.4183 118.219 9.18874 118.574 7.92544 118.978C7.61203 119.078 7.29379 119.179 6.96109 119.29L5.99674 119.611L2.96387 120.653L5.03722 114.72L21.9615 66.3024C22.261 65.3927 22.8423 64.6008 23.6219 64.0402C24.4015 63.4797 25.3394 63.1794 26.3011 63.1824H27.2028L27.3378 62.7744C27.6375 61.8652 28.2189 61.0739 28.9986 60.5142C29.7783 59.9545 30.7161 59.6552 31.6773 59.6592H70.5984C71.4104 59.6588 72.2076 59.8749 72.9073 60.2849C73.607 60.6949 74.1837 61.284 74.5774 61.9909C74.971 62.6978 75.1674 63.4968 75.146 64.3048C75.1247 65.1128 74.8863 65.9003 74.4558 66.5856L63.091 84.7248L58.303 92.3712L52.5507 101.549C52.11 102.251 51.8661 103.057 51.8442 103.884C51.8223 104.712 52.0233 105.53 52.4263 106.254C52.8293 106.978 53.4195 107.581 54.1358 108.001C54.8521 108.421 55.6683 108.643 56.4997 108.643H94.9724C95.8944 108.64 96.7955 108.916 97.5565 109.435C98.3174 109.953 98.9023 110.689 99.2337 111.546C99.5651 112.402 99.6274 113.339 99.4124 114.231C99.1973 115.124 98.715 115.93 98.0293 116.544Z" fill="#A3BCCC"/>
<path d="M92.6682 116.544L88.1839 120.922C82.0507 114.816 65.0685 116.223 57.7539 118.925C50.4393 121.627 44.0216 123.941 30.9643 119.52C23.2158 116.904 18.0228 116.693 13.1239 117.6C12.7237 117.672 12.3235 117.754 11.9281 117.85C8.85663 118.635 5.82915 119.582 2.8584 120.687L4.99443 114.24L21.9621 62.789C22.2629 61.88 22.8445 61.0889 23.6238 60.5286C24.4032 59.9683 25.3404 59.6674 26.3017 59.669H65.2228C66.0356 59.669 66.8335 59.8858 67.5338 60.2966C68.234 60.7075 68.8109 61.2975 69.2046 62.0054C69.5982 62.7133 69.7943 63.5132 69.7725 64.3221C69.7506 65.1309 69.5116 65.9192 69.0802 66.6049L47.1461 101.587C46.7069 102.29 46.4642 103.096 46.4434 103.924C46.4225 104.751 46.6241 105.568 47.0274 106.292C47.4306 107.016 48.0208 107.619 48.7368 108.039C49.4529 108.459 50.2687 108.681 51.0999 108.682H89.5774C90.4938 108.681 91.3892 108.955 92.1464 109.469C92.9036 109.983 93.4874 110.712 93.8213 111.562C94.1553 112.411 94.2239 113.341 94.0181 114.23C93.8124 115.119 93.3419 115.926 92.6682 116.544Z" fill="#D9F1FF"/>
<path d="M88.1932 120.926C87.1716 119.946 85.9765 119.164 84.6685 118.617C77.0646 115.286 63.935 116.644 57.768 118.929C50.4582 121.632 44.0357 123.945 30.9784 119.534C30.0141 119.212 29.1124 118.929 28.2252 118.675C27.9311 118.588 27.6418 118.507 27.3573 118.435C26.7819 118.284 26.2226 118.145 25.6793 118.017C24.686 117.792 23.7506 117.614 22.8297 117.48L22.5307 117.436L21.8364 117.35C21.6049 117.316 21.3783 117.297 21.1565 117.273C20.9347 117.249 20.8431 117.244 20.6743 117.235C20.5056 117.225 20.25 117.196 20.0475 117.192C19.7582 117.192 19.4785 117.158 19.1941 117.148C18.9096 117.139 18.6444 117.148 18.3744 117.148H17.8584H17.3763C16.7109 117.177 16.0599 117.225 15.4186 117.297C14.9365 117.35 14.4543 117.412 13.9721 117.489L13.4899 117.571L13.138 117.633H13.0174C12.6799 117.7 12.3424 117.768 12.0048 117.849L11.648 117.926C10.4185 118.224 9.18895 118.579 7.92565 118.982C7.61224 119.083 7.29401 119.184 6.96131 119.294L5.99696 119.616L2.95926 120.686L1.54167 124.752L1.30058 125.424L0.717151 127.099C-0.247198 130.036 2.16367 135.984 5.2737 135.984H36.4414C37.3661 135.98 38.2707 136.253 39.0382 136.766C39.8058 137.279 40.4011 138.01 40.7472 138.864C41.0108 139.484 41.1328 140.155 41.1045 140.828C41.0761 141.501 40.8981 142.16 40.5833 142.756L45.6847 139.68L15.0522 190.488C14.9275 190.72 14.8981 190.991 14.97 191.244C15.0419 191.498 15.2096 191.713 15.4379 191.846C15.6284 191.965 15.8538 192.018 16.0777 191.994C16.3016 191.971 16.511 191.873 16.6723 191.716L88.3186 125.52L88.738 125.136L91.1248 122.923L94.9822 119.366C94.0264 120.09 92.9267 120.604 91.7562 120.873C90.5858 121.142 89.3712 121.16 88.1932 120.926Z" fill="#E6842E"/>
<path d="M19.1943 117.144C41.0031 116.64 42.7051 123.523 53.5396 120.413L51.2445 125.587H22.6515L19.1943 117.144Z" fill="#E6842E"/>
<path d="M57.7534 118.924C50.4436 121.627 44.0211 123.94 30.9638 119.529C23.2153 116.913 18.0223 116.702 13.1234 117.609C12.7232 117.681 12.323 117.763 11.9276 117.859C7.58801 118.55 5.00355 116.486 4.99873 114.206L2.85306 120.724L1.52708 124.742L0.943648 126.504C0.719608 127.186 0.661161 127.911 0.773101 128.62C0.88504 129.329 1.16418 130.001 1.58763 130.582C2.01107 131.163 2.56677 131.635 3.20916 131.961C3.85155 132.287 4.56232 132.456 5.28322 132.456H36.4413C37.2407 132.456 38.0265 132.661 38.7234 133.051C39.4202 133.441 40.0046 134.003 40.4205 134.682C40.8364 135.362 41.0698 136.137 41.0983 136.932C41.1268 137.727 40.9494 138.516 40.5832 139.224L14.0009 190.488C13.8858 190.703 13.8514 190.952 13.9036 191.19C13.9559 191.428 14.0916 191.64 14.2864 191.788C14.4811 191.935 14.7223 192.009 14.9668 191.996C15.2113 191.983 15.4432 191.884 15.621 191.716L88.1834 120.921C82.0502 114.816 65.068 116.222 57.7534 118.924Z" fill="#FFCF40"/>
<path d="M18.4124 86.9178L26.1995 68.2506C26.8057 66.7972 27.8458 65.5642 29.1791 64.7186C30.5124 63.8729 32.0745 63.4554 33.6539 63.5226L42.227 63.8874C42.5514 63.9007 42.8612 64.0251 43.104 64.2397C43.3469 64.4543 43.5077 64.7459 43.5593 65.065C43.6109 65.3841 43.5502 65.7112 43.3874 65.9908C43.2245 66.2704 42.9696 66.4855 42.6657 66.5994L39.2905 67.8666C34.9893 69.492 31.237 72.294 28.4657 75.9498L19.613 87.6042C19.5095 87.7365 19.3614 87.8272 19.1961 87.8595C19.0308 87.8918 18.8594 87.8636 18.7133 87.78C18.5672 87.6965 18.4563 87.5633 18.401 87.4049C18.3457 87.2465 18.3498 87.0735 18.4124 86.9178Z" fill="white"/>
<path d="M65.1448 1.3438C72.9416 4.8382 73.3418 15.0478 65.9597 25.1614C58.5776 35.275 52.0104 32.8846 52.0104 25.9198C52.0104 18.955 43.5771 17.0734 43.5771 11.6782C43.5771 6.283 54.1175 -3.6002 65.1448 1.3438Z" fill="#FFCF40"/>
<path d="M67.8791 53.803C69.618 53.803 71.0277 52.3997 71.0277 50.6686C71.0277 48.9375 69.618 47.5342 67.8791 47.5342C66.1401 47.5342 64.7305 48.9375 64.7305 50.6686C64.7305 52.3997 66.1401 53.803 67.8791 53.803Z" fill="#FFCF40"/>
<path d="M55.0147 67.6367C53.5682 73.6367 52.6039 76.7951 46.1138 80.0159C33.5773 86.2559 47.0781 101.698 54.3107 90.1535C56.3793 86.8511 60.174 82.7183 60.1547 78.5231C60.1258 68.3759 55.0147 67.6367 55.0147 67.6367Z" fill="#FFCF40"/>
<path d="M36.7984 27.2253C38.2631 27.2253 39.4504 26.0433 39.4504 24.5853C39.4504 23.1273 38.2631 21.9453 36.7984 21.9453C35.3338 21.9453 34.1465 23.1273 34.1465 24.5853C34.1465 26.0433 35.3338 27.2253 36.7984 27.2253Z" fill="#FFCF40"/>
<path d="M25.6698 108.897C27.3342 108.897 28.6834 107.554 28.6834 105.897C28.6834 104.241 27.3342 102.897 25.6698 102.897C24.0055 102.897 22.6562 104.241 22.6562 105.897C22.6562 107.554 24.0055 108.897 25.6698 108.897Z" fill="#FFCF40"/>
<path d="M47.2709 34.1948C48.2738 45.8204 56.1429 45.9452 56.1429 51.2492C56.1429 56.5532 44.9613 57.7148 42.1599 51.2492C37.4972 40.4636 46.6152 26.4476 47.2709 34.1948Z" fill="#FFCF40"/>
<path d="M53.5686 5.68319C46.0129 8.24639 50.1451 15.5328 54.3063 17.3712C58.7616 19.3344 55.179 15.4512 55.179 11.928C55.179 8.40479 56.0614 4.83839 53.5686 5.68319Z" fill="white"/>
<path d="M43.0951 48.0914C42.4683 50.9714 46.8947 53.6689 49.7877 53.6689C51.7888 53.6689 49.3393 52.2674 47.3769 50.5538C45.2505 48.653 43.4471 46.4882 43.0951 48.0914Z" fill="white"/>
<path d="M45.8247 83.8032C45.8247 80.4864 41.7744 86.5056 44.1274 88.848C46.4804 91.1904 45.8247 86.976 45.8247 83.8032Z" fill="white"/>
</g>
<defs>
<clipPath id="clip0_3430_28101">
<rect width="99" height="192" fill="white" transform="translate(0.5)"/>
</clipPath>
</defs>
</svg>
