<svg width="168" height="192" viewBox="0 0 168 192" fill="none" xmlns="http://www.w3.org/2000/svg">
<g clip-path="url(#clip0_3430_23993)">
<path d="M54.5993 10.0802C67.3965 10.517 62.6089 37.949 49.1128 44.909C35.6166 51.869 38.537 27.5234 40.0164 22.0946C42.099 14.4002 46.5036 9.81615 54.5993 10.0802Z" fill="#FF9966"/>
<path d="M71.8584 9.11996C72.519 7.43516 73.6968 4.91996 75.3245 3.35996C75.4182 3.27175 75.4881 3.1612 75.5277 3.03861C75.5672 2.91603 75.5752 2.78539 75.5508 2.65889C75.5264 2.53238 75.4705 2.41412 75.3883 2.31513C75.306 2.21614 75.2001 2.13964 75.0804 2.09276L69.8907 0.0527562C69.7823 0.010845 69.6657 -0.00547424 69.55 0.00506394C69.4343 0.0156021 69.3226 0.0527145 69.2235 0.113523C69.1245 0.174332 69.0407 0.257203 68.9787 0.355711C68.9167 0.454219 68.8782 0.565716 68.8661 0.681556C68.6396 3.05464 68.2412 5.40806 67.674 7.72316C67.5952 8.01307 67.5764 8.31608 67.6187 8.61356C67.661 8.91104 67.7636 9.19669 67.9201 9.45296C68.0766 9.70922 68.2837 9.93069 68.5287 10.1037C68.7738 10.2768 69.0515 10.3977 69.3449 10.4592C69.8541 10.5692 70.3857 10.4951 70.8457 10.2501C71.3057 10.005 71.6644 9.60467 71.8584 9.11996Z" fill="#A1602A"/>
<path d="M51.9931 20.3504C53.2873 16.5776 52.3217 12.8244 49.8364 11.9674C47.3511 11.1104 44.2871 13.4741 42.9928 17.2469C41.6986 21.0197 42.6642 24.7729 45.1495 25.6299C47.6349 26.4869 50.6988 24.1232 51.9931 20.3504Z" fill="#FFE9BB"/>
<path d="M69.139 21.1919C70.604 34.6559 88.5909 38.8799 88.5909 38.8799C91.7315 17.6687 86.5322 9.43675 73.0504 2.82715C73.0265 2.83195 67.6692 7.72315 69.139 21.1919Z" fill="#73E673"/>
<path d="M73.0273 2.83203C80.5486 16.824 80.4241 24.6048 88.5917 38.88C91.7084 17.6736 86.5091 9.44163 73.0273 2.83203Z" fill="#66CC66"/>
<path d="M133.154 104.213C133.154 110.438 131.548 116.557 128.49 121.975C125.432 127.393 121.028 131.926 115.705 135.131C110.382 138.336 104.322 140.105 98.1152 140.266C91.9081 140.427 85.7652 138.975 80.2842 136.05C74.8031 133.125 70.1707 128.827 66.8376 123.575C63.5045 118.322 61.5842 112.294 61.2638 106.077C60.9433 99.8604 62.2335 93.6662 65.0088 88.0974C67.784 82.5286 71.9499 77.7749 77.101 74.2989C82.5139 70.6495 88.8146 68.5443 95.3289 68.2087C101.843 67.873 108.326 69.3195 114.084 72.3934C119.841 75.4672 124.657 80.0527 128.015 85.6592C131.373 91.2657 133.148 97.6822 133.149 104.222L133.154 104.213Z" fill="#F7923A"/>
<path d="M133.154 104.213C133.165 112.888 130.044 121.275 124.369 127.824C117.136 132.688 108.388 134.757 99.7498 133.645C91.1111 132.534 83.1679 128.318 77.3944 121.78C71.6209 115.243 68.4091 106.827 68.3552 98.0949C68.3012 89.363 71.4088 80.9079 77.1011 74.2989C82.514 70.6495 88.8147 68.5443 95.329 68.2087C101.843 67.873 108.326 69.3195 114.084 72.3934C119.841 75.4672 124.657 80.0527 128.015 85.6592C131.373 91.2657 133.148 97.6822 133.149 104.222L133.154 104.213Z" fill="#FBAF3B"/>
<path d="M127.091 107.864C133.603 99.2309 130.218 85.6628 119.53 77.5586C108.843 69.4544 94.8992 69.8831 88.387 78.5161C81.8748 87.1491 85.2599 100.717 95.9478 108.821C106.636 116.925 120.579 116.497 127.091 107.864Z" fill="#FFBE3C"/>
<path d="M120.033 92.2623C121.816 89.5165 120.343 85.385 116.742 83.0344C113.141 80.6838 108.777 81.0042 106.994 83.75C105.21 86.4958 106.684 90.6272 110.284 92.9779C113.885 95.3285 118.249 95.0081 120.033 92.2623Z" fill="#FFEEBB"/>
<path d="M86.3576 79.8058C88.6704 78.467 89.7222 75.9524 88.7068 74.1892C87.6915 72.4261 84.9935 72.082 82.6808 73.4207C80.368 74.7595 79.3163 77.2741 80.3316 79.0372C81.3469 80.8004 84.0449 81.1445 86.3576 79.8058Z" fill="#F7923A"/>
<path d="M83.5264 75.6139C82.0279 70.6987 76.3785 66.8875 73.8316 65.3803C73.7094 65.308 73.6087 65.2045 73.5396 65.0803C73.4706 64.956 73.4357 64.8157 73.4386 64.6735C73.4416 64.5313 73.4822 64.3925 73.5563 64.2712C73.6304 64.15 73.7353 64.0507 73.8603 63.9835L77.5659 61.9915C77.9011 61.8087 78.2866 61.7402 78.664 61.7965C79.0415 61.8528 79.3904 62.0308 79.658 62.3035C81.6784 64.3387 86.2122 69.4747 86.7053 75.0091C86.7424 75.4171 86.6214 75.8238 86.3673 76.1447C86.1132 76.4656 85.7456 76.676 85.3409 76.7323H85.3074C84.9262 76.7899 84.537 76.7088 84.2104 76.5037C83.8837 76.2985 83.641 75.9829 83.5264 75.6139Z" fill="#66CC66"/>
<path d="M120.932 69.2643C112.506 60.8355 100.187 83.5011 81.2764 67.3443C81.2764 67.3443 83.7898 60.5667 89.6786 58.9155C114.167 52.0467 120.769 68.8179 120.932 69.2643Z" fill="#73E673"/>
<path d="M120.932 69.2635C112.506 60.8347 100.187 83.5003 81.2764 67.3435C96.4099 63.2299 109.513 56.1595 120.932 69.2635Z" fill="#66CC66"/>
<path d="M3.28647 39.6816C5.07223 40.9536 6.4702 43.2288 7.53304 45.7008C8.92126 49.1453 9.90922 52.7386 10.4774 56.4096C9.12252 52.8912 4.73232 52.3344 3.14763 56.2896C3.40982 55.4915 3.58636 54.6677 3.67426 53.832C4.09557 49.8816 2.38641 46.6608 1.0028 44.7648C0.610763 44.2243 0.439504 43.554 0.524047 42.8911C0.608589 42.2282 0.942546 41.6227 1.45762 41.1984L3.28647 39.6816Z" fill="#7DA711"/>
<path d="M6.85766 39.922C7.729 40.882 8.8445 42.1204 9.98394 43.5796C10.3526 44.0596 10.7212 44.5396 11.0851 45.0196L7.53271 45.682C6.46987 43.21 5.0719 40.9348 3.28613 39.6628C3.80254 39.2422 4.4595 39.0349 5.12312 39.083C5.78673 39.1312 6.40705 39.4312 6.85766 39.922Z" fill="#D9F262"/>
<path d="M15.1359 52.4254C11.9378 48.475 10.4776 56.4142 10.4776 56.4142C9.90938 52.7431 8.92142 49.1498 7.5332 45.7054L11.0856 45.043C12.7934 47.2887 14.1585 49.7768 15.1359 52.4254Z" fill="#A3D22C"/>
<path d="M84.5173 95.0398C84.0693 96.4593 83.8039 97.9304 83.7273 99.4174C28.0144 106.531 12.0479 65.6254 10.4775 56.4142C10.4775 56.4142 11.9377 48.475 15.1358 52.4254C15.2843 53.0878 15.4518 53.7502 15.6385 54.4078V54.4318C18.5637 64.5982 26.3244 74.371 37.9917 82.651C52.7518 93.1294 69.9822 98.5246 83.172 95.131C83.611 95.0177 84.0671 94.9868 84.5173 95.0398Z" fill="#FFF480"/>
<path d="M83.7274 99.418L85.8052 102.5C81.3863 108.034 75.2199 111.37 68.1295 112.628C55.8781 114.807 40.8835 110.784 27.4352 101.242C14.7816 92.2612 6.27891 80.3668 3.63139 68.7412C2.65529 64.6662 2.49258 60.4379 3.15263 56.2996C4.73732 52.3444 9.1323 52.9012 10.4824 56.4244C12.0479 65.626 28.0145 106.532 83.7274 99.418Z" fill="#FFDF40"/>
<path d="M68.129 112.628C55.8776 114.807 40.8829 110.784 27.4347 101.242C14.7811 92.2612 6.27839 80.3668 3.63086 68.7412C8.56684 78.4756 25.5531 108.816 68.129 112.628Z" fill="#FFCC33"/>
<path d="M87.2607 97.1568L87.3851 98.6928L87.4569 99.5472C87.4857 99.9003 87.389 100.252 87.184 100.541L85.8052 102.499C84.8094 101.63 83.7274 99.4176 83.7274 99.4176C83.5414 97.9119 83.817 96.385 84.5174 95.04L86.3989 95.9184C86.6376 96.0318 86.8427 96.2057 86.9938 96.4229C87.1449 96.6401 87.2369 96.8931 87.2607 97.1568Z" fill="#D98229"/>
<path d="M87.3852 98.6924L87.4571 99.5468C87.4858 99.8999 87.3891 100.252 87.1842 100.54L85.8053 102.499C84.8095 101.63 83.7275 99.4172 83.7275 99.4172L87.3852 98.6924Z" fill="#B36B21"/>
<path d="M147.359 183.648C146.698 184.493 146.037 185.275 145.396 185.995C138.866 193.31 117.628 197.482 111.6 176.976C104.936 154.31 123.569 142.954 129.525 134.616C133.183 129.49 137.065 123.307 142.863 126.998C143.67 126.84 144.502 126.85 145.305 127.027C146.417 127.249 147.398 127.899 148.039 128.837C150.988 133.118 147.344 130.838 153.123 149.957C157.93 165.859 152.639 176.856 147.359 183.648Z" fill="#4D804D"/>
<path d="M145.396 185.995C138.866 193.31 117.628 197.482 111.6 176.976C104.936 154.31 123.569 142.954 129.525 134.616C133.183 129.49 137.065 123.307 142.863 126.998C138.463 138.077 118.964 146.784 117.968 167.971C117.317 182.952 135.902 189.552 145.396 185.995Z" fill="#457345"/>
<path d="M147.358 183.648C141.69 184.378 125.872 185.597 126.465 166.071C127.126 144.235 147.157 133.824 145.305 127.027C146.417 127.25 147.398 127.899 148.038 128.837C150.987 133.119 147.344 130.839 153.123 149.957C157.929 165.859 152.639 176.856 147.358 183.648Z" fill="#579157"/>
<path d="M141.331 155.213C135.452 162.835 135.155 175.195 144.998 176.05C154.841 176.904 153.281 159.25 151.064 155.189C148.847 151.128 144.275 151.397 141.331 155.213Z" fill="#63A663"/>
<path d="M141.202 126.72C141.752 125.174 143.184 121.973 146.071 120.187C146.19 120.113 146.331 120.082 146.47 120.1C146.61 120.118 146.738 120.183 146.835 120.286C146.931 120.388 146.989 120.521 146.999 120.661C147.009 120.802 146.97 120.941 146.889 121.056C145.716 122.746 144.079 125.323 143.332 127.498C143.278 127.653 143.19 127.795 143.075 127.912C142.959 128.029 142.819 128.119 142.664 128.175C142.509 128.231 142.344 128.251 142.181 128.234C142.017 128.217 141.859 128.164 141.719 128.078H141.681C141.452 127.946 141.279 127.737 141.191 127.488C141.103 127.239 141.107 126.967 141.202 126.72Z" fill="#A1602A"/>
<path d="M144.606 121.987C143.644 121.878 142.677 121.826 141.709 121.834C135.376 121.887 129.989 124.786 123.804 134.256C123.804 134.256 123.77 133.45 123.833 132.187C123.912 130.345 124.168 128.514 124.599 126.72V126.696C125.532 122.967 127.519 119.016 131.679 117.797C133.696 117.167 135.841 117.075 137.903 117.528C140.592 118.176 142.966 119.755 144.606 121.987Z" fill="#66CC66"/>
<path d="M137.904 117.523H137.827C135.936 116.966 126.662 121.224 124.618 126.672C125.552 122.942 127.539 118.992 131.699 117.773C133.711 117.153 135.849 117.067 137.904 117.523Z" fill="#73E673"/>
<path d="M141.69 121.829C135.356 121.882 129.97 124.781 123.784 134.251C123.784 134.251 123.751 133.445 123.813 132.183C128.898 120.912 137.927 121.181 141.69 121.829Z" fill="#51B351"/>
<path d="M165.025 66.8253C164.853 67.3053 164.685 67.7613 164.513 68.2125C164.283 68.8077 164.034 69.3789 163.814 69.9165C162.229 73.5261 160.424 75.8493 157.657 76.8429L153.032 78.5133C149.537 79.7805 145.889 78.4317 140.982 75.4941C136.151 72.6141 130.047 68.2077 127.5 61.1229C123.632 50.3421 129.736 45.7341 136.338 43.5933C138.384 42.9479 140.478 42.4663 142.6 42.1533C145.087 40.5998 147.756 39.363 150.548 38.4717C151.641 38.1414 152.763 37.9179 153.899 37.8045C158.749 37.3485 163.474 39.3357 166.284 47.1117C168.817 54.2397 166.916 61.5165 165.025 66.8253Z" fill="#F25A66"/>
<path d="M127.5 61.1277C130.047 68.2125 136.151 72.6189 140.982 75.5277C145.894 78.4605 149.538 79.8045 153.032 78.5421L157.657 76.8765C160.424 75.8781 162.234 73.5549 163.814 69.9405C164.231 68.9805 164.628 67.9677 165.03 66.8493C147.709 63.9693 142.117 51.3741 142.6 42.2061C140.477 42.5191 138.381 43.0006 136.333 43.6461C129.736 45.7389 123.632 50.3469 127.5 61.1277Z" fill="#E65561"/>
<path d="M127.5 61.1282C130.047 68.213 136.151 72.6194 140.982 75.5282C145.894 78.461 149.538 79.805 153.032 78.5426L157.657 76.877C160.424 75.8786 162.234 73.5554 163.814 69.941C163.814 69.941 154.631 74.8802 143.17 67.2578C131.742 59.6786 132.159 45.6002 136.333 43.5986C129.736 45.7394 123.632 50.3474 127.5 61.1282Z" fill="#CC424E"/>
<path d="M161.87 42.086C163.785 43.9292 165.7 47.846 165.666 52.6748C165.633 57.5036 164.053 51.35 163.306 51.0332C162.559 50.7164 160.596 54.7964 159.476 54.6668C157.561 54.446 162.612 48.7916 160.692 45.0284C158.772 41.2652 159.926 40.2092 161.87 42.086Z" fill="#FFE9E9"/>
<path d="M137.779 49.7904C138.039 49.8795 138.259 50.0569 138.402 50.292C138.544 50.527 138.6 50.8047 138.56 51.0768L138.349 52.4352C138.338 52.5115 138.307 52.5833 138.258 52.6432C138.21 52.703 138.146 52.7486 138.074 52.7752C138.002 52.8018 137.924 52.8083 137.848 52.7941C137.773 52.7798 137.703 52.7454 137.645 52.6944L136.621 51.7728C136.416 51.591 136.281 51.3426 136.241 51.0714C136.201 50.8001 136.257 50.5233 136.4 50.2896C136.539 50.0618 136.752 49.8882 137.002 49.7974C137.253 49.7067 137.527 49.7042 137.779 49.7904Z" fill="#FFC575"/>
<path d="M162.742 58.2864C163.001 58.3747 163.222 58.5522 163.364 58.7876C163.506 59.023 163.56 59.3011 163.517 59.5728L163.311 60.9312C163.301 61.0079 163.27 61.0803 163.222 61.1406C163.173 61.2009 163.109 61.2466 163.037 61.2729C162.964 61.2991 162.885 61.3049 162.81 61.2895C162.734 61.2741 162.664 61.2381 162.608 61.1856L161.583 60.2688C161.378 60.0861 161.243 59.837 161.203 59.5649C161.163 59.2928 161.219 59.0152 161.363 58.7808C161.503 58.5538 161.715 58.3812 161.966 58.2913C162.216 58.2015 162.49 58.1997 162.742 58.2864Z" fill="#FFC575"/>
<path d="M148.307 70.7279C148.566 70.817 148.786 70.9947 148.928 71.2299C149.069 71.465 149.124 71.7427 149.082 72.0143L148.876 73.3727C148.864 73.4485 148.831 73.5197 148.782 73.5787C148.733 73.6377 148.669 73.6825 148.597 73.7085C148.524 73.7344 148.447 73.7405 148.371 73.7262C148.296 73.7119 148.226 73.6777 148.168 73.6271L147.143 72.7103C146.939 72.527 146.805 72.2775 146.766 72.0055C146.727 71.7335 146.784 71.4562 146.928 71.2223C147.066 70.9933 147.278 70.8191 147.53 70.729C147.781 70.6389 148.055 70.6385 148.307 70.7279Z" fill="#FFC575"/>
<path d="M147.335 59.8226C147.594 59.9118 147.814 60.0895 147.956 60.3246C148.097 60.5598 148.152 60.8375 148.11 61.109L147.904 62.4722C147.893 62.5481 147.861 62.6194 147.812 62.6786C147.764 62.7378 147.7 62.7828 147.628 62.8089C147.556 62.8349 147.478 62.841 147.403 62.8265C147.328 62.8121 147.258 62.7775 147.201 62.7266L146.176 61.8098C145.97 61.6278 145.835 61.3785 145.795 61.1062C145.755 60.8339 145.812 60.556 145.956 60.3218C146.095 60.094 146.307 59.9204 146.558 59.8297C146.809 59.7389 147.083 59.7365 147.335 59.8226Z" fill="#FFC575"/>
<path d="M155.398 42.9164C155.657 43.0055 155.877 43.1832 156.018 43.4184C156.16 43.6535 156.215 43.9312 156.173 44.2028L155.967 45.566C155.955 45.6419 155.922 45.713 155.873 45.772C155.824 45.8311 155.76 45.8759 155.687 45.9018C155.615 45.9277 155.537 45.9339 155.462 45.9195C155.387 45.9052 155.316 45.871 155.259 45.8204L154.234 44.9036C154.03 44.7203 153.896 44.4709 153.857 44.1988C153.817 43.9268 153.875 43.6495 154.019 43.4156C154.158 43.1877 154.37 43.0142 154.621 42.9234C154.871 42.8327 155.145 42.8302 155.398 42.9164Z" fill="#FFC575"/>
<path d="M135.438 61.8236C135.697 61.9127 135.917 62.0904 136.059 62.3256C136.2 62.5608 136.255 62.8384 136.213 63.11L136.008 64.4732C135.996 64.5491 135.964 64.6203 135.915 64.6796C135.867 64.7388 135.803 64.7838 135.731 64.8098C135.659 64.8359 135.581 64.842 135.506 64.8275C135.431 64.813 135.361 64.7785 135.304 64.7276L134.279 63.8108C134.074 63.6282 133.94 63.379 133.899 63.1069C133.859 62.8349 133.916 62.5573 134.059 62.3228C134.198 62.095 134.41 61.9214 134.661 61.8307C134.912 61.7399 135.186 61.7374 135.438 61.8236Z" fill="#FFC575"/>
<path d="M151.007 50.6207C151.267 50.7091 151.487 50.8866 151.629 51.122C151.771 51.3573 151.826 51.6354 151.783 51.9071L151.577 53.2703C151.565 53.3462 151.533 53.4175 151.485 53.4767C151.436 53.5359 151.372 53.5809 151.3 53.607C151.228 53.633 151.151 53.6391 151.076 53.6246C151 53.6101 150.93 53.5756 150.873 53.5247L149.873 52.6079C149.668 52.4248 149.534 52.1757 149.494 51.9039C149.454 51.632 149.51 51.3547 149.652 51.1199C149.79 50.8972 149.999 50.7271 150.244 50.6366C150.49 50.5462 150.758 50.5406 151.007 50.6207Z" fill="#FFC575"/>
<path d="M156.532 69.9744C156.791 70.0635 157.011 70.2412 157.152 70.4764C157.294 70.7115 157.349 70.9892 157.307 71.2608L157.101 72.6192C157.089 72.6955 157.057 72.7671 157.008 72.8268C156.96 72.8864 156.896 72.9318 156.823 72.9583C156.751 72.9848 156.673 72.9913 156.597 72.9773C156.521 72.9632 156.451 72.9291 156.393 72.8784L155.368 71.9568C155.164 71.7744 155.031 71.5261 154.99 71.2551C154.95 70.9842 155.006 70.7076 155.148 70.4736C155.288 70.2453 155.501 70.0716 155.753 69.9809C156.004 69.8902 156.279 69.8879 156.532 69.9744Z" fill="#FFC575"/>
<path d="M137.736 43.9876C145.109 41.2804 142.212 47.6212 147.957 45.9844C147.957 45.9844 141.686 42.9268 144.606 41.5108C148.633 39.562 153.679 37.786 152.965 31.9108C152.861 31.1198 152.683 30.3404 152.434 29.5828C152.434 29.5828 152.223 35.9284 146.957 39.0916C146.17 39.5648 145.327 39.9388 144.448 40.2052C144.573 40.0756 149.039 35.4052 144.491 26.2852C144.491 26.2852 137.789 32.7796 140.317 37.7524C142.844 42.7252 142.212 41.89 142.212 41.89L142.026 41.53C141.154 39.9364 137.286 33.6148 130.957 34.3732C130.957 34.3732 132.599 41.9188 138.617 42.3172C138.617 42.3172 132.901 44.8564 129.521 41.866C129.516 41.866 130.363 46.714 137.736 43.9876Z" fill="#66CC66"/>
<path d="M138.631 42.3166C139.786 41.9621 140.996 41.8174 142.202 41.8894L142.016 41.5294C141.724 40.9994 141.404 40.4851 141.058 39.9886L141.02 39.931C139.335 37.531 135.888 33.7774 130.966 34.3726C130.947 34.3726 132.589 41.9182 138.631 42.3166Z" fill="#5AB35A"/>
<path d="M144.448 40.2139C144.573 40.0843 149.04 35.4139 144.491 26.2939C145.2 29.4907 145.482 37.9915 144.448 40.2139Z" fill="#73E673"/>
<path d="M146.952 39.1051C151.51 37.4587 152.353 33.9499 152.961 31.9051C152.856 31.1142 152.678 30.3348 152.429 29.5771C152.429 29.5771 152.218 35.9419 146.952 39.1051Z" fill="#73E673"/>
<path d="M130.947 34.3729C134.883 35.8945 139.139 37.7329 141.059 39.9889L141.02 39.9313C139.34 37.5121 135.888 33.7777 130.947 34.3729Z" fill="#73E673"/>
<path d="M73.1466 162.869C70.1687 168.513 65.611 172.56 60.8617 174.331C57.1178 175.733 53.2638 175.723 49.97 173.976C42.4966 170.011 40.7539 158.616 46.0825 148.512C51.411 138.408 61.7809 133.44 69.2639 137.405C73.7068 139.757 76.1197 144.739 76.2298 150.509C76.2573 154.823 75.1967 159.075 73.1466 162.869Z" fill="#624766"/>
<path d="M67.8897 160.075C62.5612 170.155 52.1817 175.147 44.7083 171.187C38.36 167.827 36.1481 159.091 38.8914 150.35C39.3869 148.754 40.028 147.206 40.8064 145.728C46.135 135.648 56.5145 130.656 63.9831 134.616C69.3068 137.443 71.7246 144.043 70.7431 151.253C70.3152 154.338 69.3493 157.325 67.8897 160.075Z" fill="#7B5980"/>
<path d="M63.6246 150.95C60.2063 157.425 53.1159 161.03 47.8639 158.563C42.4875 156.053 41.5539 148.44 45.6617 141.979C49.53 135.883 56.381 133.253 61.0776 135.739C65.6737 138.182 66.8467 144.835 63.6246 150.95Z" fill="#87628C"/>
<path d="M57.7757 143.873C59.8448 141.904 60.5157 139.244 59.2742 137.933C58.0327 136.622 55.3488 137.155 53.2797 139.125C51.2106 141.094 50.5397 143.753 51.7812 145.065C53.0227 146.376 55.7065 145.842 57.7757 143.873Z" fill="#B88FB9"/>
<path d="M49.5218 146.405C50.3465 145.427 50.4356 144.143 49.7209 143.537C49.0062 142.931 47.7583 143.233 46.9336 144.21C46.1089 145.188 46.0198 146.472 46.7345 147.078C47.4492 147.684 48.6971 147.382 49.5218 146.405Z" fill="#B88FB9"/>
<path d="M73.1468 162.869C72.5917 163.925 71.968 164.943 71.2796 165.917C68.4071 169.973 64.7015 172.896 60.8619 174.331C54.6955 174.168 69.1156 168.6 72.5962 153.768C74.7506 144.605 74.99 146.52 76.23 150.509C76.2621 152.483 76.0466 154.454 75.5884 156.374C75.0533 158.634 74.2328 160.817 73.1468 162.869Z" fill="#87628C"/>
<path d="M67.2864 137.213C68.1913 133.215 73.5103 128.765 75.6551 127.104C75.7337 127.043 75.7933 126.961 75.827 126.867C75.8608 126.773 75.8672 126.671 75.8457 126.574C75.8241 126.476 75.7754 126.387 75.7053 126.316C75.6351 126.245 75.5463 126.196 75.4493 126.173L72.4953 125.496C72.2292 125.436 71.9506 125.468 71.7047 125.587C71.4588 125.705 71.2599 125.903 71.1404 126.149L66.2715 136.191L67.2864 137.213Z" fill="#5AB35A"/>
<path d="M63.6484 135.283C58.3533 136.92 50.3916 131.39 50.3916 131.39C57.9799 123.432 62.2743 121.238 71.5048 127.766C71.5048 127.766 68.9626 133.646 63.6484 135.283Z" fill="#5AB35A"/>
<path d="M63.6484 135.283C58.3533 136.92 50.3916 131.39 50.3916 131.39C64.1511 127.137 71.5048 127.766 71.5048 127.766C71.5048 127.766 68.9626 133.646 63.6484 135.283Z" fill="#67E667"/>
</g>
<defs>
<clipPath id="clip0_3430_23993">
<rect width="167" height="192" fill="white" transform="translate(0.5)"/>
</clipPath>
</defs>
</svg>
