<svg width="205" height="192" viewBox="0 0 205 192" fill="none" xmlns="http://www.w3.org/2000/svg">
<g clip-path="url(#clip0_3430_28124)">
<path d="M160.895 180.099H149.028L146.233 167.436L142.433 150.219L139.638 137.555L135.844 120.333L130.331 95.3408C130.089 94.2434 129.543 93.2382 128.756 92.4427C127.969 91.6472 126.975 91.0942 125.889 90.8484C125.467 90.7535 125.036 90.7051 124.604 90.7041H118.484C117.149 90.7035 115.855 91.1626 114.813 92.0056C113.772 92.8486 113.046 94.0251 112.756 95.3408L107.243 120.333L103.428 137.555L100.639 150.219L96.8393 167.436L94.0445 180.099H82.1768C81.6499 180.099 81.1281 180.203 80.6412 180.406C80.1543 180.609 79.7118 180.908 79.339 181.284C78.9662 181.66 78.6705 182.106 78.4687 182.598C78.2669 183.09 78.1631 183.617 78.1631 184.149V187.951C78.1631 188.483 78.2669 189.01 78.4687 189.502C78.6705 189.993 78.9662 190.44 79.339 190.816C79.7118 191.192 80.1543 191.49 80.6412 191.693C81.1281 191.897 81.6499 192.001 82.1768 192H160.895C161.422 192 161.943 191.896 162.429 191.692C162.916 191.489 163.358 191.19 163.73 190.814C164.102 190.438 164.397 189.992 164.599 189.5C164.8 189.009 164.904 188.483 164.904 187.951V184.149C164.904 183.617 164.8 183.09 164.599 182.599C164.397 182.108 164.102 181.661 163.73 181.285C163.358 180.909 162.916 180.611 162.429 180.408C161.943 180.204 161.422 180.099 160.895 180.099Z" fill="#DAEAF2"/>
<path d="M121.533 177.225H53.3564L56.8193 161.527L61.5317 140.173L64.9946 124.47L69.7019 103.115L76.541 72.1269C76.9023 70.4994 77.801 69.0446 79.0893 68.0016C80.3777 66.9585 81.979 66.3894 83.63 66.3877H91.2392C91.7745 66.3902 92.3079 66.4507 92.8304 66.568C94.1778 66.8697 95.4123 67.5527 96.3895 68.5371C97.3667 69.5215 98.0463 70.7667 98.3486 72.1269L105.188 103.121L109.895 124.475L113.358 140.178L118.07 161.532L121.533 177.225Z" fill="#66CCFF"/>
<path d="M136.253 177.24H38.6385C35.8923 177.24 33.666 179.489 33.666 182.263V186.977C33.666 189.751 35.8923 192 38.6385 192H136.253C138.999 192 141.225 189.751 141.225 186.977V182.263C141.225 179.489 138.999 177.24 136.253 177.24Z" fill="#66CCFF"/>
<path d="M90.7347 177.225L79.2954 192H38.6382C37.9838 192.003 37.3352 191.875 36.7298 191.624C36.1245 191.372 35.5742 191.003 35.1107 190.536C34.6473 190.069 34.2796 189.515 34.029 188.904C33.7784 188.293 33.6498 187.638 33.6504 186.977V182.268C33.6477 181.606 33.7749 180.949 34.0245 180.336C34.2742 179.723 34.6414 179.166 35.105 178.698C35.5686 178.229 36.1195 177.857 36.7259 177.604C37.3323 177.352 37.9822 177.223 38.6382 177.225H90.7347Z" fill="#99DDFF"/>
<path d="M118.07 161.542H56.8193L61.5317 140.188H113.358L118.07 161.542Z" fill="#E6F7FF"/>
<path d="M109.896 124.485H64.9951L69.7024 103.131H105.188L109.896 124.485Z" fill="#E6F7FF"/>
<path opacity="0.3" d="M87.4448 66.3877L69.5693 177.225H53.3564L56.8193 161.527L61.5317 140.173L64.9946 124.47L69.7019 103.115L76.541 72.1269C76.9023 70.4994 77.801 69.0446 79.0893 68.0016C80.3777 66.9585 81.979 66.3894 83.63 66.3877H87.4448Z" fill="white"/>
<path opacity="0.2" d="M121.533 177.225H116.199L92.8408 66.5576C94.1876 66.8618 95.4209 67.5471 96.3963 68.5334C97.3717 69.5196 98.0489 70.766 98.3488 72.1268L105.188 103.12L109.895 124.475L113.358 140.178L118.071 161.532L121.533 177.225Z" fill="black"/>
<path d="M203.379 130.203C202.92 130.828 202.342 131.352 201.679 131.746C201.016 132.14 200.281 132.395 199.518 132.496L179.975 135.036C179.727 135.064 179.479 135.08 179.23 135.082C177.834 135.076 176.488 134.553 175.446 133.614C174.404 132.675 173.738 131.383 173.574 129.982L173.523 129.518L173.227 126.942C173.063 125.472 173.465 123.995 174.35 122.816C175.235 121.637 176.535 120.847 177.981 120.611L197.269 117.494H197.361C198.835 117.277 200.336 117.651 201.542 118.535C202.748 119.42 203.564 120.745 203.817 122.228L204.419 125.809C204.545 126.574 204.519 127.358 204.34 128.113C204.161 128.867 203.834 129.578 203.379 130.203Z" fill="#F26A4E"/>
<path d="M198.227 103.682C197.829 104.344 197.303 104.919 196.681 105.373C196.059 105.827 195.354 106.151 194.606 106.325L176.695 110.446C176.274 110.54 175.845 110.588 175.415 110.59C174.328 110.588 173.266 110.27 172.355 109.673C171.271 108.982 170.457 107.933 170.049 106.706C169.971 106.486 169.908 106.26 169.861 106.031C169.152 102.62 168.361 99.2562 167.52 96.0157C167.144 94.579 167.334 93.0509 168.052 91.7534C168.769 90.456 169.957 89.4906 171.365 89.0606L188.353 83.7697C189.639 83.3713 191.023 83.4432 192.261 83.9727C193.5 84.5021 194.514 85.4554 195.126 86.665C195.255 86.9343 195.367 87.2113 195.463 87.4945C196.671 91.2965 197.819 95.2532 198.875 99.2562C199.07 99.9996 199.113 100.775 199.001 101.536C198.89 102.297 198.626 103.027 198.227 103.682Z" fill="#F26A4E"/>
<path d="M187.058 69.7461C186.779 70.4703 186.357 71.1297 185.818 71.6841C185.279 72.2385 184.633 72.6764 183.922 72.9712L168.555 79.3389C167.867 79.6231 167.131 79.7701 166.388 79.7716C165.624 79.7713 164.867 79.6153 164.164 79.3131C163.469 79.0155 162.838 78.5832 162.308 78.0406C161.786 77.4948 161.372 76.853 161.089 76.1499C161.028 75.9902 160.961 75.8253 160.895 75.6656C159.712 72.6981 158.447 69.8079 157.131 67.062C156.493 65.7318 156.387 64.2045 156.834 62.7971C157.281 61.3898 158.248 60.2105 159.533 59.5042L173.584 51.7248C174.912 51.0006 176.47 50.8335 177.919 51.2595C179.369 51.6856 180.594 52.6707 181.331 54.002C183.284 57.5671 185.171 61.3331 186.941 65.2021C187.264 65.9121 187.44 66.6809 187.461 67.462C187.481 68.243 187.344 69.0201 187.058 69.7461Z" fill="#F26A4E"/>
<path d="M169.03 38.0568C168.935 38.8332 168.685 39.582 168.295 40.2578C167.905 40.9335 167.383 41.5221 166.761 41.9877L154.827 50.921C153.849 51.6595 152.661 52.0588 151.44 52.0596C151.155 52.0578 150.871 52.0354 150.589 51.9926C149.846 51.8826 149.134 51.6233 148.492 51.2301C147.856 50.8432 147.304 50.3297 146.871 49.7206C146.549 49.2879 146.233 48.8603 145.912 48.4378C144.321 46.3668 142.648 44.3575 140.95 42.508C139.969 41.4306 139.43 40.0171 139.443 38.5536C139.455 37.0901 140.017 35.686 141.016 34.6256L150.869 24.2137C151.389 23.6647 152.012 23.2247 152.701 22.919C153.39 22.6132 154.131 22.4477 154.884 22.4319C155.636 22.4161 156.384 22.5504 157.085 22.8269C157.785 23.1035 158.425 23.517 158.968 24.0437C159.095 24.1725 159.228 24.2961 159.35 24.4249C162.33 27.3524 165.145 30.4467 167.781 33.6932C168.267 34.2992 168.628 34.9977 168.843 35.7471C169.057 36.4966 169.121 37.282 169.03 38.0568Z" fill="#F26A4E"/>
<path d="M140.888 17.0941L134.034 28.3767C133.242 29.6642 131.982 30.587 130.524 30.9471C129.066 31.3073 127.527 31.0763 126.236 30.3035C123.787 28.8353 121.229 27.5607 118.586 26.4911C117.706 26.143 116.927 25.576 116.321 24.8425C115.702 24.1062 115.275 23.2248 115.08 22.2789C114.885 21.333 114.928 20.3528 115.205 19.4279L118.882 7.34157C119.105 6.60802 119.471 5.92678 119.958 5.33765C120.444 4.74853 121.043 4.26333 121.717 3.91042C122.385 3.55536 123.116 3.33997 123.868 3.27712C124.62 3.21427 125.377 3.30526 126.093 3.54464C130.323 4.93877 134.426 6.69685 138.359 8.79955L138.736 9.00047C139.419 9.36898 140.02 9.87427 140.503 10.4855C140.987 11.0967 141.341 11.8009 141.546 12.5553C141.746 13.3174 141.791 14.1126 141.678 14.8928C141.565 15.673 141.296 16.4218 140.888 17.0941Z" fill="#F26A4E"/>
<path d="M106.58 5.89923L106.33 17.3621C106.302 18.8749 105.684 20.3153 104.611 21.3706C103.538 22.4259 102.095 23.0108 100.598 22.9983C97.7353 22.9994 94.8785 23.2545 92.0603 23.7608C91.7383 23.8138 91.4126 23.8413 91.0862 23.8432C90.688 23.8457 90.2909 23.8007 89.903 23.7093C88.8599 23.4901 87.8979 22.9816 87.125 22.2408C86.3521 21.5001 85.7988 20.5564 85.5272 19.5156L82.8599 8.98005C82.6725 8.23977 82.6324 7.46927 82.7418 6.71321C82.8513 5.95714 83.1082 5.23053 83.4976 4.57548C83.8871 3.92043 84.4013 3.34996 85.0106 2.89713C85.6199 2.44429 86.3121 2.1181 87.047 1.93744C91.5017 0.86008 96.0474 0.21148 100.623 0.000332888C101.247 -0.0267246 101.871 0.0516307 102.469 0.232167C103.359 0.495527 104.172 0.974857 104.836 1.62833C105.4 2.1823 105.845 2.847 106.145 3.58151C106.445 4.31602 106.593 5.10478 106.58 5.89923Z" fill="#F26A4E"/>
<path d="M77.1376 25.2031C77.1401 26.2353 76.8691 27.2494 76.3525 28.14C75.8359 29.0305 75.0926 29.7651 74.2 30.2674C71.4777 31.8085 68.8591 33.5296 66.3613 35.4193C65.4595 36.1003 64.3785 36.4969 63.2543 36.5592C62.13 36.6216 61.0126 36.3469 60.0424 35.7696C59.4953 35.4474 59.0071 35.0327 58.5991 34.5435L52.7596 27.6245C52.2717 27.0432 51.9021 26.3704 51.6719 25.6446C51.4418 24.9188 51.3556 24.1543 51.4183 23.3948C51.4817 22.636 51.6948 21.8977 52.0452 21.2235C52.3955 20.5493 52.876 19.9527 53.4583 19.4691C56.7519 16.6644 60.2408 14.1025 63.898 11.8031C64.5534 11.3944 65.2844 11.1247 66.0463 11.0104C66.8082 10.8961 67.5852 10.9397 68.3299 11.1385C68.5806 11.204 68.8261 11.2884 69.0643 11.391C70.2692 11.8991 71.2661 12.808 71.8897 13.9669L76.4491 22.4932C76.8992 23.3242 77.1359 24.2559 77.1376 25.2031Z" fill="#F26A4E"/>
<path d="M53.2548 45.8155C53.2519 47.146 52.7902 48.4339 51.9492 49.4578C49.9092 51.9926 47.8692 54.7179 45.9822 57.5669C45.1672 58.7881 43.9198 59.6472 42.4966 59.9673C41.0735 60.2874 39.5831 60.0442 38.3322 59.2876L32.1816 55.5628L32.1204 55.537C30.8241 54.7494 29.8893 53.4753 29.5204 51.9934C29.1515 50.5115 29.3785 48.9423 30.1518 47.6289C32.2337 44.0809 34.4925 40.6419 36.9195 37.3252C37.3813 36.6957 37.9648 36.1676 38.6347 35.7727C39.3046 35.3779 40.0469 35.1246 40.8166 35.0283C41.5863 34.9319 42.3674 34.9945 43.1124 35.2122C43.8574 35.4299 44.551 35.7982 45.1509 36.2948L48.6801 39.2365L51.1893 41.2973C51.7668 41.7785 52.2443 42.3704 52.5944 43.0388C52.9445 43.7073 53.1603 44.4391 53.2293 45.1921C53.2501 45.3992 53.2586 45.6073 53.2548 45.8155Z" fill="#F26A4E"/>
<path d="M36.0673 75.908L34.828 78.7931C34.3805 79.8251 33.6447 80.7028 32.7107 81.3186C31.7767 81.9345 30.6852 82.2617 29.5699 82.2603C28.898 82.2609 28.2314 82.1406 27.6013 81.9048L22.0678 79.844C21.3031 79.5673 20.6071 79.1261 20.0278 78.5509C19.5366 78.0611 19.1405 77.4827 18.8599 76.8457C18.5455 76.1551 18.3697 75.4085 18.3426 74.6489C18.3154 73.8893 18.4375 73.1318 18.7018 72.4202L19.9156 69.1333C20.1868 68.3969 20.604 67.7242 21.1417 67.1564C21.6793 66.5887 22.3261 66.1378 23.0424 65.8315C23.7587 65.5252 24.5293 65.3699 25.3071 65.3751C26.0849 65.3803 26.8534 65.546 27.5656 65.8619L33.1399 68.3245C33.4019 68.4394 33.6543 68.5756 33.8947 68.7315C35.0429 69.4709 35.8924 70.5997 36.2906 71.9151C36.6889 73.2305 36.6097 74.6463 36.0673 75.908Z" fill="#F26A4E"/>
<path d="M33.8743 68.7315L20.0635 78.5561C19.559 78.0678 19.1506 77.4874 18.8599 76.8457C18.5455 76.1551 18.3697 75.4085 18.3426 74.6489C18.3154 73.8893 18.4375 73.1318 18.7018 72.4202L19.9156 69.1333C20.1868 68.3969 20.604 67.7242 21.1417 67.1564C21.6793 66.5887 22.3261 66.1378 23.0424 65.8315C23.7587 65.5252 24.5293 65.3699 25.3071 65.3751C26.0849 65.3803 26.8534 65.546 27.5656 65.8619L33.1399 68.3245C33.3949 68.4404 33.6405 68.5765 33.8743 68.7315Z" fill="#FF945F"/>
<path d="M48.6699 39.2674L32.1663 55.5731L32.1204 55.5371C30.8241 54.7494 29.8893 53.4753 29.5204 51.9934C29.1515 50.5115 29.3785 48.9423 30.1518 47.6289C32.2337 44.0809 34.4925 40.6419 36.9195 37.3252C37.3813 36.6957 37.9648 36.1676 38.6347 35.7727C39.3046 35.3779 40.0469 35.1246 40.8166 35.0283C41.5863 34.9319 42.3674 34.9945 43.1124 35.2122C43.8574 35.4299 44.551 35.7982 45.1509 36.2948L48.6699 39.2674Z" fill="#FF945F"/>
<path d="M69.0745 11.391L60.0424 35.7696C59.4953 35.4474 59.0071 35.0327 58.5991 34.5435L52.7596 27.6245C52.2717 27.0432 51.9021 26.3704 51.6719 25.6446C51.4418 24.9188 51.3556 24.1543 51.4183 23.3948C51.4817 22.636 51.6948 21.8977 52.0452 21.2235C52.3955 20.5493 52.876 19.9527 53.4583 19.4691C56.7519 16.6644 60.2408 14.1025 63.898 11.8031C64.5534 11.3944 65.2844 11.1247 66.0463 11.0104C66.8082 10.8961 67.5852 10.9397 68.3299 11.1385C68.584 11.2035 68.833 11.2879 69.0745 11.391Z" fill="#FF945F"/>
<path d="M102.469 0.237669L89.8825 23.6993C88.8394 23.4801 87.8774 22.9716 87.1045 22.2309C86.3315 21.4901 85.7783 20.5464 85.5067 19.5057L82.8394 8.97009C82.652 8.22981 82.6118 7.45932 82.7213 6.70325C82.8308 5.94718 83.0877 5.22057 83.4771 4.56552C83.8666 3.91047 84.3808 3.34001 84.9901 2.88717C85.5994 2.43434 86.2916 2.10814 87.0265 1.92748C91.4882 0.852308 96.0408 0.207151 100.623 0.000682433C101.247 -0.024706 101.871 0.0553912 102.469 0.237669Z" fill="#FF945F"/>
<path d="M138.348 8.79955C132.85 13.0086 122.431 20.4891 116.311 24.8425C115.691 24.1062 115.265 23.2248 115.07 22.2789C114.874 21.333 114.917 20.3528 115.194 19.4279L118.871 7.34157C119.094 6.60802 119.46 5.92678 119.947 5.33765C120.434 4.74853 121.032 4.26333 121.706 3.91042C122.374 3.55536 123.106 3.33997 123.857 3.27712C124.609 3.21427 125.366 3.30526 126.082 3.54464C130.312 4.93877 134.416 6.69685 138.348 8.79955Z" fill="#FF945F"/>
<path d="M159.35 24.4043L145.891 48.4275C144.321 46.3668 142.648 44.3575 140.95 42.508C139.969 41.4306 139.43 40.0171 139.443 38.5536C139.455 37.0901 140.017 35.686 141.016 34.6256L150.869 24.2137C151.389 23.6647 152.012 23.2247 152.701 22.919C153.39 22.6132 154.131 22.4477 154.884 22.4319C155.636 22.4161 156.384 22.5504 157.085 22.8269C157.785 23.1035 158.425 23.517 158.968 24.0437C159.111 24.1519 159.228 24.2755 159.35 24.4043Z" fill="#FF945F"/>
<path d="M177.088 51.0914L160.895 75.6761C159.712 72.7087 158.447 69.8185 157.131 67.0725C156.493 65.7423 156.387 64.215 156.834 62.8077C157.281 61.4003 158.248 60.221 159.533 59.5147L173.584 51.7354C174.654 51.1487 175.882 50.923 177.088 51.0914Z" fill="#FF945F"/>
<path d="M195.116 86.6445L170.04 106.685C169.961 106.465 169.898 106.24 169.851 106.01C169.142 102.6 168.352 99.2357 167.51 95.9951C167.134 94.5585 167.325 93.0304 168.042 91.7329C168.759 90.4355 169.947 89.4701 171.355 89.0401L188.344 83.7491C189.629 83.3508 191.013 83.4227 192.251 83.9522C193.49 84.4816 194.504 85.4348 195.116 86.6445Z" fill="#FF945F"/>
<path d="M197.361 117.488L173.523 129.518L173.227 126.942C173.063 125.472 173.465 123.994 174.35 122.816C175.235 121.637 176.535 120.847 177.981 120.61L197.269 117.493L197.361 117.488Z" fill="#FF945F"/>
<path d="M39.0104 102.863L15.8309 125.603C15.1815 126.24 14.375 126.69 13.4953 126.905C12.6156 127.12 11.6949 127.093 10.829 126.827C9.9631 126.561 9.18362 126.065 8.5717 125.391C7.95977 124.718 7.53775 123.891 7.34957 122.996L5.15657 112.626L0.617565 91.0703C0.433456 90.2 0.477517 89.2962 0.745387 88.4483C1.01326 87.6005 1.49565 86.8381 2.14483 86.2364C2.794 85.6348 3.58745 85.2148 4.44666 85.018C5.30586 84.8213 6.20103 84.8546 7.04357 85.1147L22.007 89.705L31.187 92.5334H31.2176L36.9296 94.285C37.778 94.5382 38.5459 95.0117 39.1566 95.6583C39.7673 96.3049 40.1995 97.102 40.4101 97.97C40.6206 98.838 40.6022 99.7466 40.3566 100.605C40.111 101.464 39.6468 102.242 39.0104 102.863Z" fill="#F26A4E"/>
<path d="M31.2431 92.5489L5.15657 112.641L0.617565 91.0703C0.433456 90.2 0.477517 89.2962 0.745387 88.4483C1.01326 87.6005 1.49565 86.8381 2.14483 86.2364C2.794 85.6348 3.58745 85.2148 4.44666 85.018C5.30586 84.8213 6.20103 84.8546 7.04356 85.1147L22.007 89.705L31.187 92.5334L31.2431 92.5489Z" fill="#FF945F"/>
</g>
<defs>
<clipPath id="clip0_3430_28124">
<rect width="204" height="192" fill="white" transform="translate(0.5)"/>
</clipPath>
</defs>
</svg>
