<svg width="28" height="28" viewBox="0 0 28 28" fill="none" xmlns="http://www.w3.org/2000/svg">
<path d="M8.23342 0.385632C7.56069 0.127552 6.84584 -0.00317975 6.12532 0.000104048C4.58682 -0.00883895 3.10082 0.559002 1.96034 1.59165C0.819866 2.62429 0.107704 4.04678 -0.0357028 5.57861C-0.17911 7.11043 0.256647 8.64038 1.18564 9.86677C2.11462 11.0932 3.46941 11.9269 4.98283 12.2037C6.49625 12.4805 8.05844 12.1802 9.36135 11.3619C10.6643 10.5437 11.6133 9.26701 12.0213 7.78358C12.4293 6.30016 12.2667 4.71768 11.5655 3.34824C10.8643 1.97879 9.6755 0.921774 8.23342 0.385632ZM6.12532 9.62395C5.19794 9.62179 4.30914 9.25257 3.6532 8.59701C2.99725 7.94145 2.62751 7.05286 2.6248 6.12549C2.62751 5.19793 2.99718 4.30913 3.65307 3.65324C4.30896 2.99735 5.19776 2.62768 6.12532 2.62498C6.47791 2.62419 6.82855 2.67744 7.16501 2.78288C7.96296 3.03274 8.64512 3.55999 9.08803 4.2692C9.53095 4.97841 9.70537 5.82274 9.57974 6.64941C9.4541 7.47607 9.03671 8.23046 8.40309 8.77606C7.76947 9.32166 6.96147 9.62243 6.12532 9.62395Z" fill="#ED8282"/>
<path d="M8.30301 6.12524C8.30382 6.41147 8.24805 6.69503 8.13889 6.95962C8.02973 7.22421 7.86934 7.46461 7.66695 7.66701C7.46456 7.8694 7.22416 8.02978 6.95956 8.13894C6.69497 8.2481 6.41141 8.30388 6.12519 8.30307C5.67533 8.30211 5.23737 8.15851 4.87427 7.89293C4.58743 7.69404 4.35307 7.42858 4.19128 7.11929C4.02949 6.80999 3.94509 6.46609 3.94531 6.11704C3.94909 5.54082 4.18023 4.98941 4.58845 4.58272C4.99668 4.17604 5.54896 3.94698 6.12519 3.94537C6.29056 3.94409 6.45537 3.96478 6.6153 4.00689C7.09517 4.11621 7.52362 4.38543 7.8303 4.77037C8.13698 5.15531 8.30368 5.63307 8.30301 6.12524Z" fill="#ED8282"/>
<path d="M6.12519 3.94537C6.29056 3.94409 6.45537 3.96478 6.6153 4.00689L4.87427 7.90318C4.58743 7.70429 4.35307 7.43883 4.19128 7.12954C4.02949 6.82025 3.94509 6.47634 3.94531 6.12729C3.9464 5.5493 4.17634 4.99526 4.58485 4.58636C4.99337 4.17746 5.54719 3.94699 6.12519 3.94537Z" fill="#FA9898"/>
<path d="M8.23336 0.385588L7.16495 2.78284C6.82849 2.6774 6.47786 2.62415 6.12526 2.62493C5.35911 2.62369 4.61376 2.87413 4.00381 3.33775C3.39386 3.80137 2.95307 4.4525 2.74921 5.19103C2.54536 5.92956 2.58973 6.71461 2.8755 7.42547C3.16126 8.13633 3.67261 8.73365 4.33091 9.12559L3.25431 11.5413C2.0474 10.8994 1.08969 9.87255 0.533413 8.62388C-0.0228635 7.37522 -0.145778 5.97643 0.184208 4.64989C0.514194 3.32334 1.27814 2.14517 2.35461 1.30266C3.43108 0.460153 4.75829 0.00165728 6.12526 6.03599e-05C6.84578 -0.00322344 7.56064 0.127508 8.23336 0.385588Z" fill="#FA9898"/>
<path d="M23.9128 15.7675C23.7897 15.7675 23.677 15.749 23.5539 15.749H20.2031C19.0223 15.7507 17.8903 16.2204 17.0554 17.0554C16.2204 17.8903 15.7507 19.0223 15.749 20.2031V23.5539C15.7517 24.4488 16.0247 25.322 16.5322 26.059C17.0398 26.796 17.7582 27.3624 18.5933 27.684C19.1052 27.889 19.6517 27.9934 20.2031 27.9916H23.5539C24.7325 27.99 25.8624 27.521 26.6958 26.6876C27.5292 25.8542 27.9982 24.7243 27.9998 23.5457V20.2031C27.9994 19.0858 27.579 18.0094 26.8219 17.1878C26.0647 16.3661 25.0263 15.8591 23.9128 15.7675ZM25.3749 23.5601C25.3752 23.7993 25.3283 24.0362 25.2369 24.2573C25.1454 24.4783 25.0113 24.6792 24.8422 24.8483C24.673 25.0175 24.4722 25.1516 24.2511 25.243C24.03 25.3344 23.7931 25.3813 23.5539 25.3811H20.2031C20.019 25.3812 19.8359 25.3543 19.6597 25.3011C19.2893 25.1832 18.9657 24.9515 18.7348 24.6388C18.5039 24.3262 18.3776 23.9487 18.3739 23.5601V20.2031C18.375 19.7183 18.568 19.2537 18.9109 18.9109C19.2537 18.568 19.7183 18.375 20.2031 18.3739H23.5539C24.0378 18.3755 24.5013 18.569 24.8427 18.912C25.184 19.2549 25.3755 19.7192 25.3749 20.2031V23.5601Z" fill="#7EE6A0"/>
<path d="M24.0443 20.833V22.9165C24.0454 23.0649 24.017 23.212 23.9607 23.3494C23.9044 23.4867 23.8214 23.6115 23.7164 23.7164C23.6115 23.8214 23.4867 23.9044 23.3494 23.9607C23.212 24.017 23.0649 24.0454 22.9165 24.0443H20.833C20.6392 24.0455 20.4487 23.9945 20.2813 23.8967C20.1059 23.8003 19.9598 23.6584 19.8584 23.4858C19.757 23.3133 19.704 23.1166 19.7051 22.9165V20.833C19.7056 20.534 19.8246 20.2474 20.036 20.036C20.2474 19.8246 20.534 19.7056 20.833 19.7051H22.9165C23.0647 19.7045 23.2116 19.7333 23.3487 19.7898C23.4858 19.8463 23.6104 19.9294 23.7152 20.0342C23.82 20.1391 23.9031 20.2636 23.9596 20.4007C24.0161 20.5378 24.0449 20.6847 24.0443 20.833Z" fill="#7EE6A0"/>
<path d="M22.6458 9.02335C22.795 9.72646 22.7854 10.454 22.6178 11.1529C22.4502 11.8519 22.1287 12.5046 21.6768 13.0636C21.2249 13.6225 20.654 14.0736 20.0057 14.384C19.3574 14.6943 18.648 14.8561 17.9293 14.8575H10.2802C8.60071 14.8575 7.08321 16.1146 7.01143 17.7941C6.994 18.2088 7.06067 18.6227 7.20743 19.011C7.35419 19.3992 7.57801 19.7537 7.8654 20.0532C8.15279 20.3527 8.49781 20.5909 8.87969 20.7535C9.26157 20.9161 9.6724 20.9997 10.0875 20.9993H13.1245C13.3567 20.9993 13.5795 21.0916 13.7437 21.2558C13.9079 21.42 14.0002 21.6427 14.0002 21.875C14.0002 22.1072 13.9079 22.3299 13.7437 22.4941C13.5795 22.6584 13.3567 22.7506 13.1245 22.7506H10.3315C7.79274 22.7506 5.50213 20.905 5.27861 18.3683C5.21793 17.7011 5.29694 17.0285 5.51058 16.3935C5.72422 15.7585 6.06782 15.175 6.51947 14.6801C6.97112 14.1852 7.52091 13.7899 8.13381 13.5193C8.74671 13.2486 9.40927 13.1087 10.0793 13.1083H17.8165C19.2971 13.1083 20.6546 12.1076 20.9397 10.6475C21.0308 10.2009 21.0216 9.73955 20.9126 9.29693C20.8036 8.85431 20.5977 8.44144 20.3096 8.08818C20.0215 7.73493 19.6585 7.45012 19.2468 7.25436C18.8351 7.0586 18.3851 6.95678 17.9293 6.95626H14.8737C14.6419 6.95572 14.4197 6.86323 14.2559 6.69907C14.0921 6.53491 14.0002 6.3125 14.0002 6.08062C14.0002 5.84893 14.0922 5.62673 14.256 5.4629C14.4199 5.29907 14.6421 5.20703 14.8737 5.20703H17.6975C20.023 5.20703 22.1762 6.74709 22.6458 9.02335Z" fill="#A3BECC"/>
<path d="M20.833 19.7051H22.1475L20.2813 23.8967C20.1059 23.8003 19.9598 23.6584 19.8584 23.4858C19.757 23.3133 19.704 23.1166 19.7051 22.9164V20.833C19.7056 20.534 19.8246 20.2474 20.036 20.036C20.2474 19.8246 20.534 19.7056 20.833 19.7051Z" fill="#98FAB9"/>
<path d="M23.9128 15.7675L22.75 18.3739H20.2031C19.7183 18.375 19.2537 18.568 18.9109 18.9109C18.568 19.2537 18.375 19.7183 18.3739 20.2031V23.5539C18.3776 23.9425 18.5039 24.3201 18.7348 24.6327C18.9657 24.9453 19.2893 25.1771 19.6597 25.2949L18.5933 27.684C17.7582 27.3624 17.0398 26.796 16.5322 26.059C16.0247 25.322 15.7517 24.4488 15.749 23.5539V20.2031C15.7507 19.0223 16.2204 17.8903 17.0554 17.0554C17.8903 16.2204 19.0223 15.7507 20.2031 15.749H23.5539C23.677 15.749 23.7877 15.7572 23.9128 15.7675Z" fill="#98FAB9"/>
</svg>
