<svg width="214" height="192" viewBox="0 0 214 192" fill="none" xmlns="http://www.w3.org/2000/svg">
<path d="M111.722 70.5637H66.4072C62.1112 70.5637 59.4692 64.7786 61.7532 60.353L87.579 9.98652C89.8129 5.6477 87.2425 0 83.0253 0H37.2019C34.8678 0 32.8201 1.81507 32.0969 4.49068L31.9322 5.06196H30.8797C28.5599 5.06196 26.505 6.8698 25.7819 9.55263L0.722195 97.0522C-0.41623 101.275 2.44057 109.837 6.09212 109.837H42.8296C46.9465 109.837 49.5957 115.138 47.7055 119.585L53.7127 115.131L17.6411 188.341C17.011 189.823 18.5504 191.233 19.5527 190.113L115.367 81.8952C118.947 77.8601 116.605 70.5637 111.722 70.5637Z" fill="#E67716"/>
<path d="M25.7823 4.49068L1.02336 96.2278C-0.11506 100.451 2.45535 104.797 6.12122 104.797H42.83C46.947 104.797 49.5962 110.098 47.7059 114.538L16.3742 188.341C15.7513 189.823 17.2835 191.233 18.2859 190.113L109.052 81.8952C112.632 77.8601 110.291 70.5637 105.408 70.5637H60.0926C55.7966 70.5637 53.1546 64.7786 55.4386 60.353L81.2644 9.98652C83.4983 5.6477 80.9279 0 76.7107 0H30.8873C28.5604 0 26.5055 1.81507 25.7823 4.49068Z" fill="#FFCF40"/>
<path d="M21.5937 39.2369L30.7727 12.3579C32.2046 8.06974 35.7416 5.35075 39.5507 5.54599L49.6462 6.07388C51.4505 6.16789 51.8514 9.19783 50.1617 9.97882L46.1879 11.8084C40.9039 14.3465 36.4711 18.3912 33.4361 23.4436L23.0113 40.2204C22.4314 41.1605 21.2643 40.3216 21.5937 39.2369Z" fill="white"/>
<path d="M138.45 57.1925C153.192 57.1925 165.142 45.1227 165.142 30.2339C165.142 15.3451 153.192 3.27539 138.45 3.27539C123.708 3.27539 111.758 15.3451 111.758 30.2339C111.758 45.1227 123.708 57.1925 138.45 57.1925Z" fill="#B3671B"/>
<path d="M165.178 27.3421C165.176 34.4926 162.363 41.3496 157.356 46.405C152.349 51.4605 145.559 54.3006 138.479 54.3006H137.477C134.711 54.1907 131.979 53.6467 129.379 52.688C127.756 52.0946 126.195 51.3413 124.718 50.439C121.593 48.5366 118.887 46.0084 116.767 43.0099C114.647 40.0115 113.156 36.6063 112.388 33.0042C111.99 31.1438 111.79 29.2455 111.794 27.3421C111.794 22.2645 113.213 17.2901 115.889 12.9915C118.565 8.69296 122.388 5.24502 126.919 3.04466C131.45 0.844308 136.504 -0.0189957 141.499 0.554146C146.494 1.12729 151.228 3.11357 155.154 6.28431C156.503 7.36419 157.742 8.57524 158.856 9.9C162.951 14.7692 165.192 20.9535 165.178 27.3421Z" fill="#FFCF40"/>
<path d="M155.154 6.28431L124.682 50.439C121.557 48.5366 118.852 46.0084 116.731 43.0099C114.611 40.0115 113.121 36.6063 112.353 33.0042L134.656 0.658307C138.272 0.128212 141.957 0.354053 145.483 1.32183C149.01 2.2896 152.301 3.97867 155.154 6.28431Z" fill="#FFEC73"/>
<path d="M163.124 17.0303L137.448 54.2863C134.693 54.1781 131.971 53.639 129.379 52.6882L158.856 9.92188C160.636 12.0532 162.075 14.4514 163.124 17.0303Z" fill="#FFEC73"/>
<path d="M156.35 103.748C171.092 103.748 183.042 91.6784 183.042 76.7896C183.042 61.9008 171.092 49.8311 156.35 49.8311C141.609 49.8311 129.658 61.9008 129.658 76.7896C129.658 91.6784 141.609 103.748 156.35 103.748Z" fill="#6C7580"/>
<path d="M183.078 73.8897C183.078 81.0415 180.265 87.9003 175.258 92.9574C170.251 98.0144 163.46 100.855 156.379 100.855H155.377C149.438 100.634 143.742 98.4176 139.191 94.5575C134.64 90.6974 131.495 85.4142 130.253 79.5446C129.854 77.6817 129.655 75.781 129.658 73.8752C129.659 67.3882 131.977 61.1192 136.185 56.219C140.394 51.3187 146.212 48.116 152.57 47.1987C153.826 47.0124 155.095 46.9206 156.365 46.9239C162.434 46.9122 168.324 48.9997 173.054 52.8392C174.403 53.9191 175.642 55.1301 176.756 56.4549C180.853 61.3203 183.095 67.503 183.078 73.8897Z" fill="#DBE3E6"/>
<path d="M173.054 52.8392L142.617 96.9939C139.484 95.0946 136.769 92.566 134.643 89.5646C132.516 86.5632 131.021 83.1528 130.252 79.5446L152.555 47.1987C153.811 47.0124 155.08 46.9206 156.35 46.9239C162.424 46.9089 168.319 48.9966 173.054 52.8392Z" fill="#F5F9FA"/>
<path d="M181.023 63.5778L155.348 100.841C152.578 100.736 149.841 100.197 147.235 99.2429L176.72 56.4766C178.512 58.6028 179.964 60.9987 181.023 63.5778Z" fill="#F5F9FA"/>
<path d="M211.259 122.449L213.464 142.371C213.603 143.623 213.245 144.879 212.467 145.863C211.69 146.847 210.558 147.48 209.319 147.621L170.791 151.96C166.85 152.407 162.887 151.336 159.694 148.96C156.5 146.585 154.312 143.08 153.565 139.146C153.43 135.141 154.797 131.233 157.392 128.202C159.987 125.171 163.619 123.24 167.562 122.796L206.276 118.414C207.466 118.282 208.66 118.633 209.595 119.39C210.529 120.146 211.128 121.247 211.259 122.449Z" fill="#997055"/>
<path d="M194.612 179.895H194.484L141.443 185.89L100.517 190.518L89.0611 191.812L88.3451 191.892H88.2163C84.9684 192.26 81.7079 191.317 79.146 189.268C76.5841 187.218 74.9287 184.228 74.5408 180.951C74.5408 180.914 74.5408 180.885 74.5408 180.857L74.4263 179.83L73.8964 175.006L72.3642 161.166L71.6482 154.462L71.3833 151.859L69.3785 133.925L68.7771 128.545L68.412 125.218L67.2664 114.979C67.2695 114.923 67.2695 114.868 67.2664 114.813C66.9559 111.647 67.8517 108.481 69.7712 105.96C71.6906 103.438 74.4896 101.75 77.5981 101.239C77.8058 101.196 78.0062 101.174 78.2067 101.152L131.369 95.1287L166.453 91.1659L184.51 89.0833C184.71 89.0833 184.918 89.0399 185.118 89.0327C188.289 88.8305 191.415 89.867 193.85 91.9277C196.285 93.9885 197.842 96.9158 198.2 100.104L199.725 113.844L200.011 116.389L200.312 119.065L202.961 143L203.262 145.676L203.541 148.214L204.865 160.139V160.197L205.51 165.982C205.703 167.619 205.575 169.278 205.131 170.865C204.687 172.451 203.938 173.933 202.925 175.226C201.912 176.519 200.657 177.597 199.23 178.399C197.804 179.2 196.234 179.708 194.612 179.895Z" fill="#997055"/>
<path d="M193.96 174.023L99.0487 184.762L94.3375 185.297L88.0511 186.02L87.6215 186.071C86.63 186.194 85.6273 186.194 84.6358 186.071C82.9929 185.852 81.4101 185.303 79.981 184.456C78.5519 183.609 77.3057 182.481 76.316 181.139C76.137 180.9 75.9652 180.647 75.8005 180.416C74.7859 178.814 74.1513 176.998 73.9461 175.108L71.6692 154.563L71.3828 151.859L69.3781 133.925L68.7766 128.545L68.4115 125.219L67.2516 114.798L66.6215 109.122C66.2662 105.93 67.1402 102.724 69.0624 100.166C70.9845 97.6078 73.8075 95.8949 76.9461 95.382C77.1466 95.3434 77.347 95.3145 77.5475 95.2952L183.879 83.2622L184.509 83.161C187.684 82.9611 190.813 84.0022 193.248 86.0687C195.683 88.1351 197.238 91.0685 197.59 94.2611L198.242 100.104L199.767 113.844L200.053 116.389L200.354 119.065L203.003 143.001L203.304 145.676L203.583 148.214L204.908 160.139V160.197C205.089 161.831 204.949 163.485 204.497 165.064C204.045 166.644 203.289 168.118 202.272 169.402C201.255 170.686 199.998 171.755 198.572 172.548C197.145 173.341 195.579 173.842 193.96 174.023Z" fill="#E6A97F"/>
<path d="M184.509 83.1611L166.445 91.1156L137.805 103.756L76.7528 130.671L75.7575 131.112L69.3781 133.925L68.7766 128.545L68.4115 125.219L67.2516 114.798L66.6215 109.122C66.2662 105.931 67.1402 102.724 69.0624 100.166C70.9845 97.608 73.8074 95.8951 76.9461 95.3821C77.1466 95.3436 77.347 95.3146 77.5475 95.2954L183.879 83.2624L184.509 83.1611Z" fill="#FFD2B3"/>
<path d="M202.624 118.848L205.574 145.459L171.206 149.35C167.729 149.786 164.204 149.091 161.144 147.365C158.085 145.64 155.65 142.973 154.194 139.754C153.671 138.541 153.522 137.198 153.765 135.899C154.264 133.234 155.435 130.743 157.166 128.668C159.968 125.319 163.94 123.19 168.256 122.724L202.624 118.848Z" fill="#997055"/>
<path d="M210.679 117.22L213.414 141.865L170.19 146.753C166.466 147.174 162.716 146.24 159.612 144.119C156.509 141.999 154.256 138.83 153.257 135.183C153.032 134.359 152.938 133.505 152.978 132.652C153.152 128.869 154.657 125.274 157.222 122.511C159.786 119.749 163.242 118.001 166.968 117.582L205.675 113.2C206.265 113.13 206.863 113.179 207.434 113.344C208.006 113.509 208.539 113.786 209.004 114.159C209.469 114.533 209.857 114.996 210.144 115.521C210.432 116.046 210.614 116.624 210.679 117.22Z" fill="#FFD2B3"/>
<path d="M210.958 119.773L213.414 141.865L170.19 146.753C168.095 146.992 165.973 146.803 163.952 146.197C161.931 145.59 160.052 144.58 158.426 143.224C155.98 141.167 154.424 138.228 154.087 135.032C153.751 131.835 154.659 128.631 156.622 126.1L156.679 126.021C157.97 124.387 159.567 123.026 161.379 122.016C163.191 121.006 165.183 120.367 167.24 120.134L205.989 115.752C207.175 115.622 208.365 115.972 209.296 116.726C210.227 117.479 210.825 118.575 210.958 119.773Z" fill="#E6A97F"/>
<path d="M79.7319 112.144C79.2572 112.171 78.7913 112.006 78.4368 111.686C78.0823 111.366 77.8683 110.917 77.8417 110.437C77.8151 109.958 77.9782 109.487 78.2951 109.129C78.612 108.771 79.0567 108.555 79.5314 108.528L93.7653 106.916C94.24 106.863 94.7161 107.003 95.0887 107.304C95.4613 107.606 95.7 108.045 95.7522 108.525C95.8044 109.004 95.6659 109.485 95.3671 109.861C95.0684 110.237 94.6338 110.479 94.1591 110.531L79.9324 112.144H79.7319ZM108.193 108.926C107.718 108.953 107.252 108.788 106.897 108.468C106.543 108.148 106.329 107.699 106.302 107.219C106.276 106.74 106.439 106.269 106.756 105.911C107.073 105.553 107.517 105.337 107.992 105.31L122.219 103.712C122.454 103.686 122.692 103.707 122.919 103.774C123.146 103.84 123.358 103.952 123.542 104.101C123.727 104.25 123.88 104.435 123.994 104.644C124.108 104.854 124.18 105.084 124.206 105.321C124.231 105.558 124.211 105.799 124.145 106.028C124.079 106.257 123.969 106.471 123.821 106.658C123.673 106.844 123.49 106.999 123.283 107.114C123.075 107.229 122.848 107.302 122.613 107.328L108.386 108.933L108.193 108.926ZM136.653 105.708C136.178 105.735 135.713 105.57 135.358 105.25C135.004 104.93 134.79 104.481 134.763 104.001C134.736 103.522 134.899 103.051 135.216 102.693C135.533 102.335 135.978 102.119 136.453 102.092L150.687 100.516C150.922 100.489 151.16 100.51 151.387 100.576C151.614 100.642 151.826 100.753 152.011 100.902C152.196 101.051 152.35 101.236 152.464 101.445C152.578 101.654 152.651 101.884 152.677 102.121C152.703 102.359 152.683 102.599 152.617 102.828C152.552 103.058 152.442 103.272 152.294 103.459C152.147 103.645 151.964 103.801 151.757 103.916C151.55 104.032 151.323 104.105 151.088 104.131L136.854 105.744L136.653 105.708ZM165.114 102.483C164.639 102.509 164.174 102.343 163.82 102.022C163.466 101.702 163.253 101.252 163.227 100.773C163.201 100.293 163.365 99.8229 163.683 99.4656C164.001 99.1083 164.446 98.893 164.92 98.8671L179.147 97.2545C179.622 97.2008 180.098 97.3397 180.472 97.6408C180.845 97.9419 181.084 98.3804 181.138 98.8598C181.191 99.3393 181.053 99.8205 180.755 100.197C180.457 100.574 180.023 100.816 179.548 100.87L165.314 102.483H165.114Z" fill="#997055"/>
<path d="M169.08 142.834C173.754 142.834 177.543 139.007 177.543 134.287C177.543 129.566 173.754 125.739 169.08 125.739C164.406 125.739 160.617 129.566 160.617 134.287C160.617 139.007 164.406 142.834 169.08 142.834Z" fill="#6C7580"/>
<path d="M177.292 131.611C177.555 133.787 176.979 135.982 175.683 137.741C174.388 139.501 172.472 140.689 170.332 141.061C168.193 141.433 165.994 140.959 164.191 139.738C162.387 138.518 161.118 136.643 160.646 134.503C160.569 134.184 160.514 133.861 160.481 133.534C160.237 131.366 160.823 129.185 162.12 127.439C163.417 125.694 165.326 124.515 167.455 124.145C169.585 123.775 171.774 124.242 173.574 125.45C175.374 126.658 176.648 128.515 177.135 130.642C177.205 130.961 177.258 131.285 177.292 131.611Z" fill="#DBE3E6"/>
<path d="M177.135 130.62L164.626 139.934C163.63 139.344 162.762 138.555 162.078 137.615C161.393 136.675 160.906 135.604 160.646 134.467L173.147 125.153C174.145 125.742 175.014 126.53 175.7 127.47C176.386 128.411 176.874 129.482 177.135 130.62Z" fill="#FAFDFF"/>
</svg>
