<svg width="28" height="28" viewBox="0 0 28 28" fill="none" xmlns="http://www.w3.org/2000/svg">
<path d="M19.1597 27.9814C18.544 27.9244 17.9672 27.6655 17.526 27.2481C17.2694 27.0026 17.0657 26.7107 16.9265 26.3892C16.7873 26.0677 16.7154 25.7229 16.7148 25.3746V21.8403C16.9433 21.7156 17.1604 21.5836 17.3698 21.4443L17.6364 21.2646V25.3563C17.635 25.8829 17.7744 26.401 18.0412 26.8608C18.308 27.3206 18.6932 27.7065 19.1597 27.9814Z" fill="#86A5B3"/>
<path d="M26.8831 5.36389L24.5563 5.53987C24.31 5.55898 24.0634 5.5067 23.8483 5.38973C23.6331 5.27277 23.4593 5.0965 23.3491 4.88359L23.2196 4.62695C23.0752 4.35143 22.8542 4.11988 22.5812 3.95806C22.3083 3.79624 21.994 3.71049 21.6735 3.71036L19.4495 3.68469L19.3048 1.9505C19.2789 1.61626 19.1695 1.293 18.9858 1.00828C18.8021 0.723552 18.5497 0.485807 18.2499 0.315307L17.7511 0L17.9872 2.77544C18.0351 3.36391 17.9139 3.95374 17.6368 4.48029L15.9955 8.06599L15.0853 10.0275L14.9216 10.3355L14.4151 11.3071C14.3209 11.4742 14.1911 11.6204 14.0343 11.736L13.5049 12.1357L8.878 15.67C8.25546 16.1379 7.69975 16.6828 7.22525 17.2906C5.98732 18.8565 5.31829 20.7708 5.32116 22.7388V24.264C5.32474 24.8324 5.46554 25.3922 5.73244 25.8992H0.538082C0.527982 25.8992 0.518296 25.903 0.511154 25.9099C0.504012 25.9168 0.5 25.9261 0.5 25.9358C0.5 26.3715 0.679746 26.7892 0.999695 27.0973C1.31964 27.4053 1.75359 27.5784 2.20606 27.5784H7.43089C7.97303 27.851 8.57481 27.9956 9.18646 28H16.9323C16.9323 27.3611 16.6687 26.7485 16.1995 26.2967C15.7303 25.845 15.0939 25.5912 14.4303 25.5912H13.1241C13.3833 25.1517 13.4811 24.6409 13.4016 24.1413C13.3222 23.6417 13.0701 23.1825 12.6862 22.8378V22.7498L14.2932 22.3391C15.3102 22.0779 16.2744 21.654 17.1456 21.0852L18.1205 20.4473V25.3566C18.1199 25.7038 18.1906 26.0478 18.3284 26.3687C18.4662 26.6897 18.6685 26.9813 18.9235 27.2268C19.1786 27.4724 19.4815 27.6671 19.8148 27.7998C20.1482 27.9324 20.5054 28.0005 20.8661 28V18.6471V14.0678L20.9842 12.9862V12.9569L21.0185 12.6966L21.2393 10.6764V10.4821L21.3498 9.55454C21.3664 9.44509 21.424 9.34525 21.5116 9.27371C21.5992 9.20217 21.7109 9.16384 21.8258 9.1659L24.819 9.5692C25.0531 9.59339 25.2898 9.58101 25.5197 9.53254C25.8608 9.45795 26.1734 9.29315 26.4223 9.05671C26.6713 8.82027 26.8467 8.52158 26.9288 8.19432L27.481 6.05683C27.5061 5.9715 27.5092 5.88156 27.4902 5.7948C27.4711 5.70803 27.4304 5.62703 27.3715 5.55881C27.3126 5.49059 27.2374 5.43719 27.1523 5.40323C27.0672 5.36927 26.9748 5.35576 26.8831 5.36389Z" fill="#AECCD9"/>
<path d="M21.1857 10.6732L20.9648 12.697L20.9305 12.9573L20.4926 12.741L15.085 10.0279L15.9951 8.06641L17.9297 9.04899L21.1857 10.6732Z" fill="#86A5B3"/>
<path d="M14.4494 14.665C14.4513 15.4745 14.1964 16.2652 13.7188 16.9314C13.2413 17.5976 12.5638 18.1075 11.7771 18.3929C10.9903 18.6784 10.1318 18.7257 9.31631 18.5287C8.50085 18.3316 7.76733 17.8995 7.21387 17.2901C7.69189 16.6816 8.25148 16.1367 8.87804 15.6696L13.5202 12.1426C14.1264 12.8532 14.4551 13.7456 14.4494 14.665Z" fill="#E0F0F7"/>
</svg>
