<svg width="29" height="28" viewBox="0 0 29 28" fill="none" xmlns="http://www.w3.org/2000/svg">
<path d="M23.1957 8.26475C22.0337 6.07455 20.0764 4.41302 17.7266 3.62201C15.1988 2.77302 12.4415 2.92789 10.0247 4.05461C7.6079 5.18132 5.71653 7.19369 4.74165 9.67562C3.95179 11.6748 3.8529 13.8807 4.46071 15.9425C4.54293 16.2174 4.68352 16.4712 4.87287 16.6868C5.06221 16.9023 5.29585 17.0744 5.55783 17.1914C5.82723 17.3143 6.1199 17.3779 6.41604 17.3779C6.71217 17.3779 7.00484 17.3143 7.27425 17.1914C7.71532 16.9818 8.06713 16.6217 8.26637 16.1758C8.46561 15.73 8.4992 15.2277 8.36111 14.7593C8.02347 13.5709 8.08763 12.3043 8.54362 11.1562C9.13735 9.65571 10.2824 8.43903 11.7441 7.75543C13.2059 7.07183 14.8737 6.97305 16.4059 7.47934C17.1276 7.71852 17.7929 8.10227 18.3612 8.60717C18.9296 9.11206 19.3891 9.7275 19.7116 10.4159L20.0828 11.2095L22.5887 10.0488C22.7487 9.97379 22.8919 9.86716 23.0096 9.73535C23.1273 9.60355 23.2171 9.4493 23.2737 9.28189C23.3306 9.11598 23.3531 8.94018 23.3397 8.76527C23.3263 8.59037 23.2773 8.42004 23.1957 8.26475Z" fill="url(#paint0_linear_3383_44499)"/>
<path d="M23.1543 8.51247L14.3733 11.3629C14.2315 11.4089 14.1018 11.4861 13.9937 11.5887C13.8855 11.6912 13.8017 11.8167 13.7482 11.9558C13.6947 12.095 13.6731 12.2443 13.6847 12.3929C13.6964 12.5415 13.7411 12.6857 13.8155 12.8148L14.5025 14.0021L15.1874 15.1895C15.2619 15.3186 15.3643 15.4294 15.4871 15.5139C15.6099 15.5984 15.75 15.6543 15.8972 15.6777C16.0444 15.7011 16.195 15.6913 16.3379 15.6491C16.4809 15.6068 16.6126 15.5332 16.7234 15.4335L23.5829 9.25276C23.6578 9.18584 23.7074 9.09514 23.7233 8.99594C23.7391 8.89674 23.7203 8.79512 23.6699 8.70818C23.6196 8.62124 23.5408 8.55431 23.4469 8.51866C23.353 8.48302 23.2497 8.48083 23.1543 8.51247Z" fill="#79C8F2"/>
<path d="M14.5028 17.4684C16.4168 17.4684 17.9684 15.9168 17.9684 14.0028C17.9684 12.0887 16.4168 10.5371 14.5028 10.5371C12.5887 10.5371 11.0371 12.0887 11.0371 14.0028C11.0371 15.9168 12.5887 17.4684 14.5028 17.4684Z" fill="#5994B3"/>
<path d="M18.5683 0.615425C17.2757 0.217807 15.932 0.0105634 14.5797 0.000220987C6.97577 -0.0428433 0.598149 6.21379 0.499716 13.8157C0.458815 16.4509 1.17019 19.0431 2.5504 21.2883C2.73921 21.592 3.00186 21.8428 3.31384 22.0174C3.62582 22.1921 3.97696 22.2848 4.33449 22.287H7.93754C8.16977 22.287 8.39249 22.1948 8.55671 22.0306C8.72092 21.8663 8.81318 21.6436 8.81318 21.4114C8.81318 21.1791 8.72092 20.9564 8.55671 20.7922C8.39249 20.628 8.16977 20.5357 7.93754 20.5357H4.57032C4.4384 20.5373 4.30838 20.5042 4.19324 20.4398C4.0781 20.3753 3.98185 20.2819 3.9141 20.1687C2.80999 18.2919 2.23524 16.151 2.251 13.9736C2.2592 8.20294 7.16033 2.59023 12.8735 1.85609C14.6038 1.62701 16.3631 1.76986 18.0337 2.27509C19.7044 2.78033 21.2479 3.63631 22.5613 4.78585C23.8747 5.93538 24.9276 7.35198 25.6496 8.941C26.3717 10.53 26.7463 12.2548 26.7484 14.0002C26.7552 16.168 26.181 18.2981 25.0853 20.1687C25.0174 20.2817 24.9212 20.3751 24.806 20.4395C24.6909 20.5039 24.561 20.5371 24.4291 20.5357H21.0619C20.8297 20.5357 20.6069 20.628 20.4427 20.7922C20.2785 20.9564 20.1863 21.1791 20.1863 21.4114C20.1863 21.6436 20.2785 21.8663 20.4427 22.0306C20.6069 22.1948 20.8297 22.287 21.0619 22.287H24.6772C25.0351 22.2864 25.3868 22.1943 25.699 22.0195C26.0113 21.8447 26.2737 21.593 26.4613 21.2883C27.5689 19.4633 28.2448 17.4093 28.4374 15.2832C28.6301 13.1571 28.3344 11.0151 27.5729 9.02067C26.8114 7.02628 25.6043 5.23224 24.0437 3.77553C22.4831 2.31881 20.6103 1.23794 18.5683 0.615425Z" fill="#79C8F2"/>
<path d="M25.8591 26.3019C25.8585 26.752 25.6794 27.1836 25.3611 27.5019C25.0428 27.8202 24.6112 27.9993 24.1611 27.9998H4.88468C4.43327 27.9998 4.00034 27.8205 3.68114 27.5013C3.36194 27.1821 3.18262 26.7492 3.18262 26.2978C3.18262 25.8464 3.36194 25.4134 3.68114 25.0942C4.00034 24.775 4.43327 24.5957 4.88468 24.5957H24.1611C24.3837 24.5956 24.6042 24.6395 24.8097 24.7251C25.0153 24.8106 25.2019 24.936 25.3587 25.094C25.5174 25.2526 25.6433 25.4409 25.7292 25.6481C25.815 25.8554 25.8592 26.0775 25.8591 26.3019Z" fill="#F28484"/>
<path d="M18.5685 0.615425L17.861 2.23341C16.2422 1.7666 14.5445 1.63815 12.8738 1.85609C7.16059 2.59023 2.25946 8.20294 2.25126 13.9736C2.23551 16.151 2.81025 18.2919 3.91436 20.1687C3.98211 20.2819 4.07836 20.3753 4.1935 20.4398C4.30864 20.5042 4.43866 20.5373 4.57058 20.5357H7.9378C8.17003 20.5357 8.39276 20.628 8.55697 20.7922C8.72119 20.9564 8.81344 21.1791 8.81344 21.4114C8.81344 21.6436 8.72119 21.8663 8.55697 22.0306C8.39276 22.1948 8.17003 22.287 7.9378 22.287H4.3245C3.96697 22.2848 3.61583 22.1921 3.30385 22.0174C2.99187 21.8428 2.72921 21.592 2.54041 21.2883C1.16379 19.042 0.455997 16.4499 0.499979 13.8157C0.598411 6.21379 6.97603 -0.0428433 14.58 0.000220987C15.9323 0.0105634 17.2759 0.217807 18.5685 0.615425Z" fill="#8CD7FF"/>
<path d="M14.1415 24.5957L12.7162 27.9998H4.88468C4.43327 27.9998 4.00034 27.8205 3.68114 27.5013C3.36194 27.1821 3.18262 26.7492 3.18262 26.2978C3.18262 25.8464 3.36194 25.4134 3.68114 25.0942C4.00034 24.775 4.43327 24.5957 4.88468 24.5957H14.1415Z" fill="#FA9898"/>
<defs>
<linearGradient id="paint0_linear_3383_44499" x1="4.06698" y1="10.2231" x2="23.3413" y2="10.2231" gradientUnits="userSpaceOnUse">
<stop stop-color="#FADC98"/>
<stop offset="1" stop-color="#FA9898"/>
</linearGradient>
</defs>
</svg>
