<svg width="28" height="28" viewBox="0 0 28 28" fill="none" xmlns="http://www.w3.org/2000/svg">
<path d="M27.0876 2.79327C26.4972 2.75422 25.8696 2.69668 25.2111 2.60214C23.8599 2.41925 22.5283 2.11381 21.2329 1.68963C21.1715 1.67436 21.1155 1.64254 21.071 1.59767C21.0265 1.5528 20.9953 1.49661 20.9808 1.43526C20.9663 1.3739 20.9691 1.30976 20.9888 1.24986C21.0085 1.18996 21.0444 1.13662 21.0925 1.09568C22.3972 0.121517 23.7763 -0.155934 24.6991 0.0783583C25.1962 0.201155 25.6679 0.409838 26.0926 0.694917C26.6824 1.11057 27.1465 1.67923 27.4345 2.33907C27.4571 2.39239 27.4652 2.45071 27.458 2.50815C27.4508 2.56559 27.4284 2.62011 27.3932 2.66619C27.358 2.71228 27.3112 2.7483 27.2576 2.77061C27.2039 2.79292 27.1453 2.80074 27.0876 2.79327Z" fill="#79C8F2"/>
<path d="M27.4572 5.91768C26.2529 5.86211 25.0531 5.7317 23.8651 5.5272C22.311 5.26623 20.7839 4.86519 19.3027 4.32902C19.2324 4.3058 19.1678 4.26801 19.1132 4.21813C19.0586 4.16826 19.0152 4.10743 18.986 4.03966C18.9567 3.97188 18.9422 3.89871 18.9434 3.82495C18.9446 3.75119 18.9616 3.67853 18.993 3.61175C19.1186 3.368 19.2564 3.13067 19.4059 2.90066C19.4771 2.80026 19.5804 2.72688 19.6989 2.69253C19.8174 2.65818 19.9441 2.6649 20.0583 2.71158L20.2255 2.77323C21.6485 3.28391 23.1176 3.65694 24.6124 3.88715C25.5451 4.03508 26.4851 4.13251 27.4283 4.17899C27.5658 4.18299 27.6971 4.2371 27.7972 4.33105C27.8972 4.425 27.9592 4.55226 27.9713 4.68868C27.9878 4.9353 27.994 5.18603 27.994 5.43266C27.9931 5.50035 27.9782 5.56713 27.9503 5.62884C27.9223 5.69056 27.8819 5.74589 27.8316 5.79138C27.7812 5.83688 27.722 5.87157 27.6576 5.8933C27.5932 5.91503 27.525 5.92333 27.4572 5.91768Z" fill="#79C8F2"/>
<path d="M27.6449 8.59333C27.6227 8.68782 27.5676 8.77143 27.4894 8.82935C27.4112 8.88728 27.3149 8.91579 27.2176 8.90983C25.6412 8.88913 24.0696 8.73096 22.521 8.43714C21.0571 8.1646 19.6232 7.75164 18.2393 7.20402C18.1457 7.16749 18.0672 7.10051 18.0166 7.01395C17.966 6.92739 17.9463 6.82634 17.9606 6.72721C18.0143 6.41894 18.0783 6.12299 18.1526 5.83731C18.1703 5.7784 18.2003 5.72388 18.2407 5.67734C18.281 5.6308 18.3308 5.59329 18.3868 5.56728C18.4428 5.54127 18.5036 5.52734 18.5654 5.52642C18.6271 5.52549 18.6884 5.53759 18.7451 5.56192L18.8772 5.60919C20.3107 6.12692 21.785 6.52494 23.2848 6.79915C24.6296 7.04888 25.9897 7.20886 27.3559 7.27801C27.4201 7.28013 27.4832 7.2955 27.5411 7.32313C27.5991 7.35076 27.6506 7.39006 27.6925 7.43854C27.7345 7.48702 27.7658 7.54363 27.7846 7.60479C27.8034 7.66595 27.8093 7.73033 27.8018 7.79386C27.7461 8.0672 27.6965 8.33438 27.6449 8.59333Z" fill="#79C8F2"/>
<path d="M26.8235 11.1331C26.6469 11.3391 26.4231 11.4998 26.1711 11.6017L22.0773 13.3281C21.7941 13.4419 21.4891 13.4916 21.1842 13.4739C20.8793 13.4561 20.5822 13.3712 20.3143 13.2253C20.1022 13.1116 19.9115 12.9621 19.7507 12.7835L18.2106 11.0489C17.9224 10.7292 17.7559 10.319 17.7399 9.88975C17.7399 9.62874 17.7296 9.37184 17.7399 9.12111C17.7444 9.04403 17.7676 8.96918 17.8074 8.90293C17.8472 8.83667 17.9025 8.78099 17.9686 8.74061C18.0347 8.70024 18.1096 8.67638 18.187 8.67106C18.2644 8.66574 18.3419 8.67913 18.4129 8.71007C19.5653 9.12474 20.7466 9.45513 21.9473 9.69862L22.0237 9.71506C23.1145 9.93409 24.2175 10.0885 25.3268 10.1775C25.6736 10.2063 26.0142 10.2248 26.3383 10.2412C26.7987 10.2761 27.1104 10.7899 26.8235 11.1331Z" fill="#79C8F2"/>
<path d="M22.7093 19.4096C21.5718 21.771 19.7262 23.8406 17.0218 22.1553C16.8068 22.0196 16.6 21.8713 16.4024 21.7114C14.1811 19.9213 14.819 17.6339 15.8327 15.9404L17.1353 19.0684C17.2029 19.2323 17.2932 19.3859 17.4037 19.5247C17.6769 19.8738 18.0489 20.1332 18.4718 20.2695C18.8947 20.4058 19.3489 20.4127 19.7757 20.2892L22.7093 19.4096Z" fill="#79C8F2"/>
<path d="M23.5473 17.3323C23.5038 17.463 23.4291 17.5814 23.3294 17.677C23.2298 17.7726 23.1083 17.8426 22.9754 17.881L19.2594 18.997C19.1118 19.0397 18.9536 19.0278 18.814 18.9636C18.6744 18.8994 18.5628 18.7872 18.4997 18.6476L18.1673 17.8604L16.9287 14.8681C16.8894 14.781 16.8761 14.6845 16.8903 14.5901C16.9046 14.4958 16.9459 14.4075 17.0092 14.3358L17.2301 14.085C17.2958 14.018 17.375 13.9655 17.4625 13.9309C17.55 13.8963 17.6438 13.8805 17.7378 13.8844C17.8319 13.8882 17.924 13.9118 18.0084 13.9534C18.0927 13.9951 18.1672 14.0539 18.2272 14.1261L19.3048 15.4024L19.4349 15.5545C19.5565 15.6942 19.7147 15.7975 19.892 15.8527C20.0692 15.9079 20.2583 15.9128 20.4382 15.8669L22.6699 15.2791C23.3594 15.0962 24.0365 15.7128 23.8507 16.3581C23.764 16.6479 23.6629 16.9849 23.5473 17.3323Z" fill="#79C8F2"/>
<path d="M17.4031 19.5248L16.3956 21.7095C14.1743 19.9194 14.8122 17.632 15.8258 15.9385L17.1347 19.0685C17.2023 19.2324 17.2926 19.386 17.4031 19.5248Z" fill="#8CD7FF"/>
<path d="M18.2272 14.1261L19.3048 15.4024L18.1673 17.8604L16.9287 14.8681C16.8894 14.781 16.8761 14.6845 16.8903 14.5901C16.9046 14.4958 16.9459 14.4075 17.0092 14.3358L17.2301 14.085C17.2958 14.018 17.375 13.9655 17.4625 13.9309C17.55 13.8963 17.6438 13.8805 17.7378 13.8844C17.8319 13.8882 17.924 13.9118 18.0084 13.9534C18.0927 13.9951 18.1672 14.0539 18.2272 14.1261Z" fill="#8CD7FF"/>
<path d="M18.3999 8.71835C19.5523 9.13301 20.7335 9.46341 21.9342 9.7069L20.3075 13.2295C20.0954 13.1157 19.9047 12.9662 19.7439 12.7876L18.2038 11.053C17.9156 10.7333 17.7491 10.3232 17.7331 9.89392C17.7331 9.63291 17.7228 9.37601 17.7331 9.12527C17.7386 9.04935 17.7621 8.97582 17.8019 8.91077C17.8416 8.84573 17.8963 8.79105 17.9615 8.75127C18.0267 8.71148 18.1005 8.68775 18.1767 8.68202C18.253 8.6763 18.3295 8.68875 18.3999 8.71835Z" fill="#8CD7FF"/>
<path d="M18.8668 5.60919C20.3003 6.12692 21.7746 6.52494 23.2744 6.79915L22.5209 8.4433C21.057 8.17077 19.6231 7.7578 18.2392 7.21019C18.1444 7.17343 18.065 7.10548 18.0143 7.01763C17.9636 6.92977 17.9447 6.82729 17.9605 6.72721C18.0142 6.41894 18.0782 6.12299 18.1525 5.83731C18.1702 5.7784 18.2002 5.72388 18.2406 5.67734C18.281 5.6308 18.3308 5.59329 18.3867 5.56728C18.4427 5.54127 18.5035 5.52734 18.5653 5.52642C18.6271 5.52549 18.6883 5.53759 18.745 5.56192L18.8668 5.60919Z" fill="#8CD7FF"/>
<path d="M20.2317 2.77323C21.6547 3.28391 23.1238 3.65694 24.6186 3.88715L23.861 5.53131C22.3081 5.26876 20.7824 4.86634 19.3027 4.32902C19.2324 4.3058 19.1678 4.26801 19.1132 4.21813C19.0586 4.16826 19.0152 4.10743 18.986 4.03966C18.9567 3.97188 18.9422 3.89871 18.9434 3.82495C18.9446 3.75119 18.9616 3.67853 18.993 3.61175C19.1186 3.368 19.2564 3.13067 19.4059 2.90066C19.4771 2.80026 19.5804 2.72688 19.6989 2.69253C19.8174 2.65818 19.9441 2.6649 20.0583 2.71158L20.2317 2.77323Z" fill="#8CD7FF"/>
<path d="M26.0926 0.696972L25.2111 2.60214C23.8599 2.41925 22.5283 2.11381 21.2329 1.68963C21.1715 1.67436 21.1155 1.64254 21.071 1.59767C21.0265 1.5528 20.9953 1.49661 20.9808 1.43526C20.9663 1.3739 20.9691 1.30976 20.9888 1.24986C21.0085 1.18996 21.0444 1.13662 21.0925 1.09568C22.3972 0.121517 23.7763 -0.155934 24.6991 0.0783583C25.1964 0.201787 25.668 0.41117 26.0926 0.696972Z" fill="#8CD7FF"/>
<path d="M6.45721 7.07214C5.80898 7.36192 5.16074 7.61471 4.52696 7.8305C3.27782 8.24831 1.99727 8.5665 0.697423 8.78206C0.641323 8.79482 0.582856 8.79286 0.527744 8.77638C0.472632 8.75989 0.422764 8.72944 0.38302 8.68801C0.343276 8.64658 0.315018 8.59559 0.301011 8.54002C0.287005 8.48446 0.28773 8.42622 0.303115 8.37102C0.490393 7.7786 0.815001 7.23833 1.25072 6.79385C1.68645 6.34937 2.22107 6.01313 2.81141 5.8123C3.15538 5.69245 3.51859 5.63671 3.88285 5.64789C4.82439 5.68471 5.73948 5.96828 6.53566 6.46996C6.58632 6.50638 6.62616 6.55574 6.65096 6.61283C6.67577 6.66992 6.68462 6.73262 6.67659 6.79431C6.66855 6.856 6.64392 6.91438 6.60531 6.96328C6.56669 7.01219 6.51552 7.0498 6.45721 7.07214Z" fill="#79C8F2"/>
<path d="M8.67069 9.52374C7.61876 10.0353 6.53147 10.4714 5.41714 10.8288C3.86935 11.3376 2.28088 11.7144 0.668924 11.955C0.600989 11.9689 0.530907 11.9686 0.463103 11.9541C0.395299 11.9396 0.331247 11.9113 0.274989 11.8709C0.218731 11.8306 0.17149 11.779 0.136249 11.7196C0.101007 11.6601 0.0785301 11.594 0.0702369 11.5255C0.0289481 11.2768 0.0103682 11.024 4.59589e-05 10.7754C-0.00171661 10.6374 0.0472715 10.5036 0.137777 10.3991C0.228282 10.2946 0.354052 10.2267 0.491383 10.2081C1.99325 9.9802 3.47221 9.62192 4.91135 9.13737C5.82191 8.83375 6.71211 8.47267 7.57654 8.05633L7.73757 7.97824C7.84698 7.91969 7.97311 7.8998 8.09535 7.92183C8.21758 7.94385 8.32871 8.00648 8.41057 8.09949C8.58192 8.30501 8.74708 8.53314 8.9081 8.76949C8.94679 8.83349 8.97141 8.90494 8.98032 8.97911C8.98923 9.05328 8.98224 9.12849 8.9598 9.19977C8.93736 9.27106 8.89999 9.33679 8.85016 9.39263C8.80032 9.44848 8.73915 9.49317 8.67069 9.52374Z" fill="#79C8F2"/>
<path d="M9.98948 10.9154C10.0927 11.1949 10.1959 11.4867 10.2744 11.7909C10.2984 11.8905 10.2876 11.9954 10.2437 12.088C10.1997 12.1807 10.1254 12.2557 10.0328 12.3006C8.83587 12.9231 7.58619 13.4396 6.29826 13.844C4.63667 14.3688 2.92849 14.7343 1.19703 14.9354C1.10023 14.9511 1.00095 14.9321 0.916972 14.8816C0.832995 14.8312 0.769807 14.7526 0.738725 14.66C0.660276 14.4051 0.583892 14.1441 0.509572 13.8728C0.495238 13.8098 0.494263 13.7445 0.506711 13.6811C0.519158 13.6177 0.544754 13.5576 0.581862 13.5046C0.618971 13.4516 0.666776 13.4069 0.722223 13.3733C0.777671 13.3398 0.839541 13.3181 0.90388 13.3097C2.56445 13.0537 4.20142 12.664 5.79867 12.1444C6.9745 11.7602 8.12347 11.2988 9.23802 10.7633L9.36602 10.7016C9.42033 10.6713 9.48047 10.6528 9.54248 10.6473C9.60449 10.6417 9.66698 10.6493 9.72585 10.6695C9.78472 10.6897 9.83863 10.722 9.88407 10.7644C9.9295 10.8068 9.96542 10.8582 9.98948 10.9154Z" fill="#79C8F2"/>
<path d="M10.7472 14.181C10.774 14.4338 10.8009 14.6907 10.8195 14.9538C10.8489 15.3864 10.7246 15.8156 10.4685 16.1663L9.10184 18.0653C8.78397 18.4954 8.31395 18.7892 7.78679 18.8874C7.46712 18.951 7.1366 18.9348 6.82476 18.8402L2.53692 17.531C2.27286 17.4501 2.03121 17.3094 1.83088 17.12C1.50676 16.8055 1.76482 16.2527 2.24377 16.1828C2.56789 16.1314 2.90646 16.078 3.25328 16.0122C4.35427 15.8091 5.4421 15.5408 6.51097 15.2086L6.68644 15.1531C7.83056 14.7903 8.94746 14.3473 10.0288 13.8275C10.0977 13.7895 10.1748 13.7686 10.2536 13.7667C10.3324 13.7649 10.4104 13.7821 10.4811 13.8168C10.5517 13.8516 10.6128 13.9029 10.6592 13.9663C10.7055 14.0297 10.7357 14.1034 10.7472 14.181Z" fill="#79C8F2"/>
<path d="M12.7994 27.1757C11.9736 27.8211 11.185 28.0512 10.4583 27.9978C9.28981 27.8909 8.25759 27.0195 7.43181 25.9056C7.19646 25.5912 7.52884 25.1431 7.93553 25.2192L9.76463 25.5727L9.85959 25.5891C10.3275 25.676 10.8111 25.6105 11.2386 25.4021C11.5107 25.2746 11.7532 25.0922 11.9508 24.8665C12.1484 24.6407 12.2968 24.3766 12.3865 24.0909L13.0698 21.7849C13.096 21.6994 13.146 21.6231 13.2141 21.5647C13.2821 21.5064 13.3654 21.4684 13.4542 21.4553C13.5431 21.4422 13.6338 21.4544 13.716 21.4906C13.7981 21.5267 13.8683 21.5853 13.9183 21.6596C14.8638 23.2996 15.1549 25.3548 12.7994 27.1757Z" fill="#79C8F2"/>
<path d="M12.1493 19.8536L10.9643 23.7995C10.9152 23.9457 10.8151 24.0694 10.6821 24.1482C10.5491 24.2271 10.3921 24.2557 10.2397 24.2291L9.30451 24.0462L6.60629 23.5344C6.40412 23.4987 6.21372 23.4146 6.05151 23.2892C5.88931 23.1639 5.76016 23.0012 5.67523 22.8151C5.55755 22.5479 5.45227 22.2972 5.3573 22.0608C5.10544 21.432 5.72065 20.7455 6.43081 20.8565L8.46429 21.1689L8.73473 21.2121C8.91915 21.2401 9.10778 21.2165 9.2795 21.1439C9.45123 21.0713 9.59927 20.9526 9.70708 20.801L10.5803 19.5247C10.6549 19.4126 10.7524 19.3174 10.8665 19.2454C10.9805 19.1733 11.1086 19.1261 11.2423 19.1067C11.3759 19.0873 11.5122 19.0962 11.6422 19.1328C11.7722 19.1694 11.8929 19.233 11.9965 19.3192V19.3315C12.0687 19.3955 12.1213 19.4784 12.1483 19.5707C12.1753 19.663 12.1757 19.7611 12.1493 19.8536Z" fill="#79C8F2"/>
<path d="M7.9279 25.2195L9.757 25.573L10.4672 27.9919C9.29043 27.8912 8.25821 27.0198 7.43244 25.9059C7.18883 25.5915 7.52121 25.1434 7.9279 25.2195Z" fill="#8CD7FF"/>
<path d="M6.4286 20.8566L8.46414 21.169L9.31056 24.0463L6.60614 23.5345C6.40397 23.4988 6.21357 23.4147 6.05136 23.2894C5.88915 23.164 5.76001 23.0013 5.67508 22.8152C5.5574 22.548 5.45212 22.2973 5.35715 22.061C5.10323 21.4321 5.71843 20.7456 6.4286 20.8566Z" fill="#8CD7FF"/>
<path d="M6.51097 15.2088L6.68644 15.1533L7.78679 18.8835C7.46712 18.9471 7.1366 18.9308 6.82476 18.8362L2.53692 17.5312C2.27286 17.4503 2.03121 17.3096 1.83088 17.1201C1.50676 16.8057 1.76482 16.2528 2.24377 16.183C2.56789 16.1316 2.90646 16.0782 3.25328 16.0124C4.35427 15.8093 5.4421 15.541 6.51097 15.2088Z" fill="#8CD7FF"/>
<path d="M0.90388 13.3098C2.56445 13.0538 4.20142 12.6641 5.79867 12.1445L6.29826 13.8442C4.63667 14.369 2.92849 14.7344 1.19703 14.9355C1.10023 14.9513 1.00095 14.9322 0.916972 14.8817C0.832995 14.8313 0.769807 14.7527 0.738725 14.6601C0.660276 14.4052 0.583892 14.1442 0.509572 13.873C0.495238 13.8099 0.494263 13.7447 0.506711 13.6813C0.519158 13.6179 0.544754 13.5577 0.581862 13.5047C0.618971 13.4517 0.666776 13.407 0.722223 13.3735C0.777671 13.3399 0.839541 13.3182 0.90388 13.3098Z" fill="#8CD7FF"/>
<path d="M0.491383 10.2085C1.99325 9.98053 3.47221 9.62224 4.91135 9.1377L5.41094 10.8291C3.86316 11.3379 2.27469 11.7147 0.662731 11.9554C0.594795 11.9692 0.524713 11.9689 0.45691 11.9544C0.389106 11.9399 0.325053 11.9116 0.268796 11.8713C0.212538 11.8309 0.165297 11.7794 0.130055 11.7199C0.0948137 11.6605 0.0723368 11.5944 0.0640436 11.5258C0.0289481 11.2772 0.0103682 11.0244 4.59589e-05 10.7757C-0.00171661 10.6377 0.0472715 10.5039 0.137777 10.3994C0.228282 10.2949 0.354053 10.227 0.491383 10.2085Z" fill="#8CD7FF"/>
<path d="M3.88285 5.64789L4.52696 7.8305C3.27782 8.24831 1.99727 8.5665 0.697423 8.78206C0.641323 8.79482 0.582856 8.79286 0.527744 8.77638C0.472632 8.75989 0.422764 8.72944 0.38302 8.68801C0.343276 8.64658 0.315018 8.59559 0.301011 8.54002C0.287005 8.48446 0.28773 8.42622 0.303115 8.37102C0.490393 7.7786 0.815001 7.23833 1.25072 6.79385C1.68645 6.34937 2.22107 6.01313 2.81141 5.8123C3.15538 5.69245 3.51859 5.63671 3.88285 5.64789Z" fill="#8CD7FF"/>
</svg>
