<svg width="29" height="28" viewBox="0 0 29 28" fill="none" xmlns="http://www.w3.org/2000/svg">
<path d="M28.4711 6.31962L27.8148 8.26356C27.7166 8.56042 27.5376 8.82404 27.298 9.02487C27.0584 9.22569 26.7677 9.35579 26.4583 9.40058C26.2542 9.42687 26.0472 9.41819 25.846 9.3749L23.1952 8.80272C23.1405 8.79101 23.084 8.79041 23.0291 8.80095C22.9741 8.81149 22.9218 8.83296 22.8753 8.86409C22.8288 8.89521 22.7891 8.93536 22.7584 8.98216C22.7277 9.02895 22.7067 9.08143 22.6966 9.1365L22.5316 9.99476L22.165 12.0341L21.736 14.3044L21.1824 18.1556C21.131 18.541 21.1052 18.9295 21.1054 19.3183V28C20.727 28.0015 20.3521 27.928 20.0023 27.7838C19.6524 27.6396 19.3346 27.4276 19.067 27.1599C18.7995 26.8923 18.5876 26.5743 18.4434 26.2243C18.2993 25.8743 18.2259 25.4993 18.2273 25.1208V20.0079C18.2268 19.8243 18.1608 19.6469 18.0412 19.5077C17.9215 19.3685 17.7561 19.2766 17.5747 19.2486L15.7415 18.9589L12.8011 18.4857L11.1329 18.2253L10.9423 18.1886L9.1824 17.8805C8.94275 17.8393 8.69623 17.8719 8.47555 17.9741C8.25488 18.0763 8.07048 18.2432 7.94684 18.4527L6.48029 20.9358L6.41063 21.0605C6.02722 21.7306 5.82504 22.4891 5.82402 23.2612V27.9927C5.44565 27.9941 5.07074 27.9206 4.7209 27.7765C4.37106 27.6323 4.0532 27.4203 3.78565 27.1526C3.51811 26.885 3.30616 26.567 3.16204 26.217C3.01792 25.867 2.94447 25.492 2.94592 25.1134V22.0582L3.12924 21.7171C3.43835 21.1552 3.60101 20.5245 3.6022 19.8832L3.43355 18.9515C3.13278 17.5259 2.97921 16.0732 2.97525 14.6162V11.3702L0.944089 8.8394C0.778257 8.63272 0.654841 8.39532 0.58092 8.14081C0.506998 7.88631 0.484026 7.61971 0.513319 7.35631C0.542613 7.0929 0.623596 6.83787 0.751625 6.60585C0.879654 6.37382 1.05221 6.16936 1.2594 6.00419L5.08341 10.5706C5.20956 10.7224 5.36763 10.8445 5.54634 10.9282C5.72505 11.0118 5.92001 11.0551 6.11732 11.0548H14.2273C14.3266 11.0545 14.4257 11.0483 14.5243 11.0364C14.9162 10.9936 15.2933 10.862 15.6268 10.6516C15.9603 10.4413 16.2415 10.1577 16.4491 9.82237L16.8158 9.22452L17.8313 7.51899L19.8148 4.14828C20.0986 3.67811 20.247 3.13868 20.2438 2.58947V0L20.6654 0.322767C20.9155 0.508564 21.1186 0.750254 21.2586 1.02855C21.3987 1.30684 21.4718 1.61403 21.472 1.9256V3.54676L23.4592 3.71915C23.7454 3.74399 24.0192 3.84713 24.2508 4.01727C24.4823 4.18742 24.6625 4.418 24.7718 4.68378L24.8671 4.92953C24.9487 5.1367 25.0912 5.31423 25.2758 5.43866C25.4604 5.56309 25.6784 5.62855 25.901 5.62641H27.9982C28.0795 5.63003 28.1589 5.65254 28.23 5.69216C28.3011 5.73179 28.362 5.78744 28.4079 5.85471C28.4538 5.92197 28.4834 5.999 28.4944 6.0797C28.5054 6.1604 28.4974 6.24254 28.4711 6.31962Z" fill="#AECCD9"/>
<path d="M22.5313 9.98039L22.1537 12.0234L16.8008 9.22849L17.8127 7.51562L22.5313 9.98039Z" fill="#F28484"/>
<path d="M14.5317 11.2049C14.5478 11.732 14.4579 12.2571 14.2673 12.7488C14.0768 13.2406 13.7894 13.6891 13.4224 14.0677C13.0553 14.4463 12.616 14.7472 12.1305 14.9528C11.6449 15.1583 11.1231 15.2643 10.5959 15.2643C10.0687 15.2643 9.54681 15.1583 9.06128 14.9528C8.57575 14.7472 8.13643 14.4463 7.76936 14.0677C7.40229 13.6891 7.11496 13.2406 6.92441 12.7488C6.73385 12.2571 6.64395 11.732 6.66003 11.2049C6.65629 11.1548 6.65629 11.1045 6.66003 11.0545H14.2274C14.3267 11.0541 14.4258 11.048 14.5244 11.0361C14.5305 11.0922 14.5329 11.1485 14.5317 11.2049Z" fill="#E0F0F7"/>
</svg>
