<svg width="29" height="26" viewBox="0 0 29 26" fill="none" xmlns="http://www.w3.org/2000/svg">
<path d="M20.973 16.8738C20.8997 17.2534 20.9229 17.6449 21.0405 18.0136C21.1581 18.3824 21.3666 18.7171 21.6476 18.9884L27.939 25.1312C27.7039 25.392 27.4173 25.6035 27.0964 25.7528C26.7755 25.9022 26.427 25.9863 26.072 26C25.717 26.0138 25.3628 25.9569 25.0309 25.8329C24.6989 25.7089 24.3961 25.5202 24.1407 25.2784L19.3781 20.823C18.7318 20.1993 17.8974 19.7964 16.9986 19.6741L14.1022 19.29H13.9885C13.5992 19.2297 13.2261 19.0938 12.8912 18.8904C12.5562 18.6869 12.2662 18.42 12.038 18.1052L10.3295 15.7572C10.2508 15.6406 10.1598 15.5323 10.0582 15.4341C9.6582 14.9799 9.16217 14.6162 8.60445 14.3683C8.04673 14.1203 7.44064 13.994 6.82814 13.9981H0.5C0.808232 13.2099 1.35431 12.5324 2.06554 12.0558C2.77901 11.5843 3.62093 11.3341 4.48167 11.3378H14.0142C14.4026 11.2734 14.7722 11.1275 15.0975 10.9099C15.4228 10.6924 15.6962 10.4084 15.8987 10.0776L16.2654 9.46727L17.3249 7.71168L19.4074 4.25794C19.6943 3.77194 19.8389 3.21793 19.8254 2.65672V0L20.2983 0.326705C20.5624 0.514653 20.7776 0.760743 20.9266 1.04512C21.0756 1.3295 21.1543 1.64419 21.1563 1.96382V3.64043L23.2314 3.81276C23.5313 3.83718 23.8184 3.94232 24.0611 4.11656C24.3037 4.2908 24.4924 4.52735 24.6063 4.80006L24.72 5.07291C24.8075 5.28755 24.9596 5.47111 25.156 5.59932C25.3524 5.72753 25.5839 5.79435 25.8199 5.79094H27.9977C28.0849 5.79208 28.1706 5.81366 28.2475 5.85386C28.3245 5.89407 28.3905 5.95173 28.44 6.02203C28.4896 6.09232 28.5212 6.17321 28.5323 6.25793C28.5433 6.34265 28.5335 6.42873 28.5037 6.50898L27.7887 8.4728C27.6868 8.77816 27.5001 9.04973 27.2495 9.25707C26.9989 9.46441 26.6943 9.59936 26.3698 9.64678C26.1548 9.67419 25.9367 9.66569 25.7246 9.62165L22.9418 9.01491C22.8262 8.99362 22.7068 9.01735 22.6088 9.08106C22.5109 9.14477 22.4422 9.24342 22.4175 9.35598L22.2415 10.2392L20.973 16.8738Z" fill="#AECCD9"/>
<path d="M27.3088 15.567L26.0366 21.3975C25.7406 21.397 25.4477 21.3394 25.1745 21.228C24.9013 21.1165 24.6533 20.9534 24.4445 20.748C24.2358 20.5426 24.0704 20.2989 23.958 20.0309C23.8455 19.7628 23.7881 19.4757 23.7891 19.1859C23.7896 19.0205 23.8081 18.8557 23.8441 18.6941L24.174 17.3478C24.1887 17.287 24.1881 17.2237 24.1724 17.1633C24.1567 17.1028 24.1263 17.0469 24.0838 17.0004C24.0414 16.9539 23.9881 16.9181 23.9285 16.8961C23.8688 16.874 23.8047 16.8664 23.7414 16.8739L21.8789 17.1072L21.9082 16.9995L22.1905 15.4522L22.4032 14.3607L25.9082 14.0269C26.1123 14.0085 26.3178 14.0373 26.5084 14.111C26.699 14.1846 26.8692 14.301 27.0055 14.4508C27.1417 14.6007 27.2401 14.7797 27.2928 14.9736C27.3455 15.1674 27.351 15.3707 27.3088 15.567Z" fill="#86A5B3"/>
<path d="M22.2484 10.2459L21.8525 12.339L16.2393 9.47044L17.2988 7.71484L22.2484 10.2459Z" fill="#FFC080"/>
<path d="M17.171 23.932H5.40935C4.59652 23.9327 3.79544 23.7419 3.07373 23.3758C2.35202 23.0096 1.73087 22.4788 1.2627 21.8281H13.0207C13.8338 21.8286 14.635 22.0199 15.3571 22.3859C16.0792 22.752 16.7012 23.2821 17.171 23.932Z" fill="#AECCD9"/>
<path d="M11.5576 8.77052H0.826172C1.16117 8.13555 1.66811 7.60307 2.29149 7.23136C2.91488 6.85966 3.63068 6.66306 4.36054 6.66309H15.092C14.7567 7.29779 14.2497 7.83005 13.6263 8.20171C13.003 8.57337 12.2874 8.77014 11.5576 8.77052Z" fill="#86A5B3"/>
<path d="M13.8305 4.38673H5.88184C6.24096 3.7489 6.7681 3.21699 7.40839 2.84635C8.04869 2.47571 8.77873 2.2799 9.52253 2.2793H17.4712C17.1124 2.91737 16.5853 3.4495 15.9449 3.82017C15.3046 4.19085 14.5744 4.3865 13.8305 4.38673Z" fill="#AECCD9"/>
<path d="M5.7429 15.9727H0.5C0.994267 16.7879 1.69663 17.4631 2.53808 17.9321C3.37952 18.401 4.33109 18.6475 5.29927 18.6473H10.5422C10.0476 17.8324 9.34519 17.1573 8.50381 16.6884C7.66243 16.2195 6.711 15.9728 5.7429 15.9727Z" fill="#86A5B3"/>
<path d="M13.7536 11.5671C13.7526 12.5496 13.369 13.4948 12.6809 14.21C11.9928 14.9251 11.0521 15.3563 10.0505 15.4157C9.65053 14.9615 9.1545 14.5978 8.59678 14.3499C8.03906 14.1019 7.43298 13.9756 6.82048 13.9797H6.73248C6.1775 13.2989 5.87732 12.4525 5.88189 11.5814C5.88189 11.4881 5.88189 11.4019 5.88189 11.3086H13.7426C13.7512 11.3945 13.7548 11.4808 13.7536 11.5671Z" fill="#E0F0F7"/>
</svg>
