<svg width="29" height="28" viewBox="0 0 29 28" fill="none" xmlns="http://www.w3.org/2000/svg">
<path d="M24.7897 27.9999C23.9578 27.9986 23.1464 27.7413 22.4656 27.263C21.7848 26.7847 21.2676 26.1084 20.984 25.3261L19.8438 22.1351L20.1261 20.7376C20.2573 20.1974 20.5308 19.7023 20.918 19.3035C21.1072 19.0996 21.2755 18.8772 21.4203 18.6396L24.7897 27.9999Z" fill="#86A5B3"/>
<path d="M10.601 27.9997C9.76838 28.0015 8.95556 27.7455 8.27416 27.2668C7.59276 26.788 7.07619 26.11 6.79536 25.3258L5.57812 21.9478L7.4663 19.6884C7.5014 19.6455 7.53937 19.6051 7.57996 19.5674L10.601 27.9997Z" fill="#86A5B3"/>
<path d="M28.4707 6.31962L27.8144 8.26356C27.7161 8.56042 27.5372 8.82404 27.2976 9.02486C27.058 9.22569 26.7672 9.35579 26.4578 9.40058C26.2538 9.42687 26.0467 9.41819 25.8456 9.3749L23.1948 8.80272C23.1401 8.79101 23.0836 8.79041 23.0286 8.80095C22.9737 8.81149 22.9214 8.83296 22.8749 8.86409C22.8284 8.89521 22.7886 8.93536 22.7579 8.98216C22.7272 9.02895 22.7062 9.08143 22.6961 9.13649L22.5312 9.99109L22.1645 12.0304L21.6329 14.9206L21.3506 16.4428C21.1871 17.2794 20.7964 18.0547 20.2214 18.6838C19.7297 19.2065 19.3779 19.8448 19.1984 20.5397L17.6732 28C17.3285 28.0005 16.9879 27.9246 16.676 27.7776C16.3641 27.6307 16.0886 27.4164 15.8695 27.1501C15.6503 26.8839 15.4929 26.5723 15.4086 26.2379C15.3242 25.9035 15.3151 25.5545 15.3818 25.2161L16.4487 19.9638C16.473 19.8523 16.4743 19.7369 16.4524 19.6249C16.4305 19.5128 16.3859 19.4064 16.3213 19.3122C16.2567 19.2181 16.1735 19.1381 16.0769 19.0774C15.9803 19.0166 15.8722 18.9763 15.7594 18.9589L9.63291 17.9722C9.09561 17.8879 8.54562 17.945 8.03709 18.1379C7.52857 18.3309 7.07905 18.653 6.73281 19.0726L4.07104 22.3002C3.52053 22.9684 3.21978 23.8074 3.22044 24.6733V28C2.49893 28 1.80698 27.7133 1.2968 27.2029C0.786617 26.6925 0.5 26.0003 0.5 25.2785L0.5 21.7611C2.38818 21.7611 2.87947 19.509 2.96013 17.6018C2.96013 17.367 2.96013 17.1286 2.96013 16.9086V6.75609C2.96061 6.49087 3.01336 6.22834 3.11538 5.98354C3.21739 5.73873 3.36666 5.51645 3.55463 5.32942C3.74261 5.14239 3.96561 4.99428 4.21087 4.89357C4.45613 4.79285 4.71884 4.7415 4.98396 4.74247V10.4166C4.98345 10.5014 4.99996 10.5856 5.03253 10.664C5.0651 10.7423 5.11306 10.8134 5.17357 10.8729C5.23408 10.9324 5.30592 10.9792 5.38481 11.0104C5.46371 11.0416 5.54808 11.0567 5.63291 11.0548H14.2269C14.3261 11.0545 14.4253 11.0483 14.5238 11.0364C14.9158 10.9936 15.2928 10.862 15.6263 10.6516C15.9598 10.4413 16.2411 10.1577 16.4487 9.82237L16.8153 9.22452L17.8309 7.51899L19.8144 4.14828C20.0981 3.67811 20.2466 3.13868 20.2434 2.58947V0L20.665 0.322767C20.915 0.508564 21.1181 0.750254 21.2582 1.02855C21.3982 1.30684 21.4713 1.61403 21.4716 1.9256V3.5431L23.4588 3.71915C23.7449 3.74399 24.0188 3.84713 24.2503 4.01727C24.4818 4.18741 24.6621 4.418 24.7713 4.68378L24.8666 4.92953C24.9482 5.1367 25.0908 5.31423 25.2754 5.43866C25.46 5.56309 25.678 5.62855 25.9005 5.62641H27.9977C28.079 5.63003 28.1584 5.65254 28.2295 5.69216C28.3006 5.73179 28.3616 5.78744 28.4075 5.85471C28.4534 5.92197 28.483 5.999 28.4939 6.0797C28.5049 6.1604 28.4969 6.24254 28.4707 6.31962Z" fill="#AECCD9"/>
<path d="M14.5344 11.2049C14.5344 12.2496 14.1195 13.2516 13.3811 13.9903C12.6426 14.729 11.6411 15.1441 10.5967 15.1441C9.55239 15.1441 8.55083 14.729 7.81237 13.9903C7.07392 13.2516 6.65906 12.2496 6.65906 11.2049C6.65531 11.1548 6.65531 11.1045 6.65906 11.0545H14.2264C14.3257 11.0542 14.4249 11.0481 14.5234 11.0361C14.5325 11.0919 14.5362 11.1484 14.5344 11.2049Z" fill="#E0F0F7"/>
<path d="M22.5315 9.98039L22.1539 12.0197L16.8047 9.22482L17.8129 7.51562L22.5315 9.98039Z" fill="#79F2A1"/>
</svg>
