<svg width="16" height="16" viewBox="0 0 16 16" fill="none" xmlns="http://www.w3.org/2000/svg">
<path fill-rule="evenodd" clip-rule="evenodd" d="M16 8C16 12.4183 12.4183 16 8 16C3.58172 16 0 12.4183 0 8C0 3.58172 3.58172 0 8 0C12.4183 0 16 3.58172 16 8ZM3.9141 12.0859C3.6212 11.793 3.6212 11.3181 3.9141 11.0252L6.93934 7.99999L3.91413 4.97478C3.62124 4.68188 3.62124 4.20701 3.91413 3.91412C4.20702 3.62122 4.6819 3.62122 4.97479 3.91412L8 6.93933L11.0252 3.91412C11.3181 3.62122 11.793 3.62122 12.0859 3.91412C12.3788 4.20701 12.3788 4.68188 12.0859 4.97478L9.06066 7.99999L12.0859 11.0252C12.3788 11.3181 12.3788 11.793 12.0859 12.0859C11.793 12.3788 11.3181 12.3788 11.0252 12.0859L8 9.06065L4.97476 12.0859C4.68186 12.3788 4.20699 12.3788 3.9141 12.0859Z" fill="#818598"/>
</svg>
