<svg width="20" height="21" viewBox="0 0 20 21" fill="none" xmlns="http://www.w3.org/2000/svg">
<path fill-rule="evenodd" clip-rule="evenodd" d="M5.44608 7.38004C5.10755 7.05482 4.56947 7.0656 4.24424 7.40413C3.91901 7.74266 3.92979 8.28074 4.26832 8.60597L9.41226 13.5478C9.74124 13.8639 10.261 13.8639 10.59 13.5478L15.734 8.60597C16.0725 8.28074 16.0833 7.74266 15.758 7.40413C15.4328 7.0656 14.8947 7.05482 14.5562 7.38004L10.8511 10.9395L10.8511 3.05117C10.8511 2.58173 10.4706 2.20117 10.0011 2.20117C9.5317 2.20117 9.15114 2.58173 9.15114 3.05117L9.15114 10.9395L5.44608 7.38004ZM3.9999 16.203C3.53046 16.203 3.1499 16.5836 3.1499 17.053C3.1499 17.5225 3.53046 17.903 3.9999 17.903L16.0024 17.903C16.4719 17.903 16.8524 17.5225 16.8524 17.053C16.8524 16.5836 16.4719 16.203 16.0024 16.203L3.9999 16.203Z"/>
</svg>
