<svg width="15" height="14" viewBox="0 0 15 14" fill="none" xmlns="http://www.w3.org/2000/svg">
<path fill-rule="evenodd" clip-rule="evenodd" d="M1.76451 9.76295C1.46288 9.47906 0.988227 9.49345 0.70434 9.79508C0.420453 10.0967 0.434837 10.5714 0.736467 10.8553L3.86118 13.7962C4.14996 14.0679 4.60044 14.0679 4.88922 13.7962L8.01393 10.8553C8.31556 10.5714 8.32995 10.0967 8.04606 9.79508C7.76217 9.49345 7.28752 9.47906 6.98589 9.76295L5.1252 11.5142L5.1252 3.04876C5.1252 2.6001 5.4889 2.2364 5.93756 2.2364C6.35177 2.2364 6.68756 1.90061 6.68756 1.4864C6.68756 1.07219 6.35177 0.736402 5.93756 0.736402C4.66048 0.736402 3.6252 1.77168 3.6252 3.04876L3.6252 11.5142L1.76451 9.76295ZM8.01394 4.23822C7.71231 4.52211 7.23765 4.50772 6.95376 4.20609C6.66988 3.90446 6.68426 3.42981 6.98589 3.14592L10.1106 0.205021C10.3994 -0.0667791 10.8499 -0.0667791 11.1386 0.205021L14.2634 3.14592C14.565 3.42981 14.5794 3.90446 14.2955 4.20609C14.0116 4.50772 13.5369 4.52211 13.2353 4.23822L11.3746 2.48699L11.3746 11.6876C11.3746 12.9647 10.3393 14 9.06227 14C8.64806 14 8.31227 13.6642 8.31227 13.25C8.31227 12.8358 8.64806 12.5 9.06227 12.5C9.51092 12.5 9.87462 12.1363 9.87462 11.6876L9.87462 2.48699L8.01394 4.23822Z" fill="#40BF95"/>
</svg>
