<svg width="64" height="64" viewBox="0 0 64 64" fill="none" xmlns="http://www.w3.org/2000/svg">
<g clip-path="url(#clip0_2263_30529)">
<path d="M32.3868 7.93889C34.6997 7.94139 36.9171 8.89949 38.5526 10.603C40.188 12.3064 41.1078 14.6161 41.1102 17.0251V27.9752H23.6634V17.0251C23.6658 14.6161 24.5857 12.3064 26.2211 10.603C27.8566 8.89949 30.074 7.94139 32.3868 7.93889ZM32.3868 4C29.0703 4 25.8896 5.37229 23.5445 7.81497C21.1993 10.2577 19.8818 13.5706 19.8818 17.0251V31.9141H44.8918V17.0251C44.8918 15.3146 44.5684 13.6209 43.94 12.0406C43.3115 10.4603 42.3904 9.02447 41.2292 7.81497C40.068 6.60548 38.6895 5.64605 37.1723 4.99148C35.6551 4.3369 34.029 4 32.3868 4V4Z" fill="#273F4D"/>
<path d="M30.8751 7.93889C33.188 7.94139 35.4054 8.89949 37.0408 10.603C38.6763 12.3064 39.5961 14.6161 39.5985 17.0251V27.9752H22.1517V17.0251C22.1541 14.6161 23.074 12.3064 24.7094 10.603C26.3448 8.89949 28.5623 7.94139 30.8751 7.93889ZM30.8751 4C27.5586 4 24.3779 5.37229 22.0327 7.81497C19.6876 10.2577 18.3701 13.5706 18.3701 17.0251V31.9141H43.3801V17.0251C43.3801 15.3146 43.0567 13.6209 42.4282 12.0406C41.7998 10.4603 40.8787 9.02447 39.7175 7.81497C38.5563 6.60548 37.1778 5.64605 35.6606 4.99148C34.1434 4.3369 32.5173 4 30.8751 4V4Z" fill="#416A80"/>
<path d="M48.0568 26.8281H20.5298C17.7988 26.8281 15.585 29.1341 15.585 31.9786V54.8494C15.585 57.6939 17.7988 59.9999 20.5298 59.9999H48.0568C50.7878 59.9999 53.0017 57.6939 53.0017 54.8494V31.9786C53.0017 29.1341 50.7878 26.8281 48.0568 26.8281Z" fill="#E6A345"/>
<path d="M48.4152 31.9786V54.851C48.4152 55.5271 48.2873 56.1967 48.0389 56.8214C47.7905 57.4461 47.4264 58.0137 46.9673 58.4918C46.5083 58.9699 45.9633 59.3492 45.3636 59.608C44.7638 59.8667 44.121 59.9999 43.4719 59.9999H15.9418C14.631 59.9995 13.3741 59.4568 12.4473 58.4912C11.5206 57.5257 11 56.2163 11 54.851V31.9786C10.9998 31.3023 11.1275 30.6326 11.3759 30.0077C11.6242 29.3829 11.9883 28.8151 12.4473 28.3368C12.9064 27.8585 13.4514 27.4791 14.0512 27.2202C14.6511 26.9614 15.294 26.8281 15.9433 26.8281H43.4734C44.1226 26.8283 44.7653 26.9617 45.365 27.2207C45.9647 27.4796 46.5095 27.8591 46.9684 28.3373C47.4273 28.8156 47.7912 29.3833 48.0395 30.0081C48.2877 30.6329 48.4154 31.3025 48.4152 31.9786Z" fill="#FFD659"/>
<path d="M33.9118 40.0804C33.9427 40.7508 33.8302 41.42 33.5825 42.0396C33.3348 42.6592 32.958 43.2138 32.4793 43.6632C32.1766 43.9478 31.9344 44.2953 31.7684 44.6834C31.6025 45.0715 31.5164 45.4914 31.5158 45.9163V51.1707C31.5158 51.714 31.3086 52.2349 30.9398 52.619C30.5711 53.0032 30.0709 53.219 29.5494 53.219C29.0278 53.219 28.5277 53.0032 28.1589 52.619C27.7901 52.2349 27.5829 51.714 27.5829 51.1707V45.8847C27.5788 45.4627 27.49 45.0462 27.3222 44.662C27.1545 44.2778 26.9115 43.9344 26.6088 43.6538C26.0811 43.1497 25.6807 42.5181 25.4429 41.8147C25.2051 41.1113 25.1372 40.3577 25.2453 39.6205C25.3533 38.8833 25.634 38.1851 26.0624 37.5876C26.4909 36.9902 27.054 36.5118 27.7021 36.1947C28.3501 35.8776 29.0631 35.7316 29.7782 35.7696C30.4932 35.8075 31.1883 36.0282 31.802 36.4123C32.4158 36.7963 32.9293 37.3318 33.2972 37.9716C33.6652 38.6113 33.8763 39.3356 33.9118 40.0804Z" fill="#E6A345"/>
<path d="M35.2299 40.0798C35.2616 40.7495 35.1501 41.4182 34.9034 42.0376C34.6568 42.6569 34.2811 43.2114 33.8035 43.661C33.5007 43.9457 33.2585 44.2932 33.0925 44.6812C32.9266 45.0693 32.8405 45.4893 32.8399 45.9141V51.1686C32.8399 51.7118 32.6327 52.2328 32.264 52.6169C31.8952 53.001 31.395 53.2168 30.8735 53.2168C30.352 53.2168 29.8518 53.001 29.483 52.6169C29.1142 52.2328 28.9071 51.7118 28.9071 51.1686V45.8842C28.9041 45.4628 28.8167 45.0468 28.6505 44.6626C28.4843 44.2785 28.243 43.9346 27.942 43.6532C27.4108 43.1508 27.0069 42.5196 26.7659 41.8157C26.525 41.1118 26.4545 40.3568 26.5608 39.6177C26.667 38.8786 26.9467 38.1782 27.3751 37.5787C27.8034 36.9791 28.3671 36.4989 29.0163 36.1806C29.6655 35.8623 30.38 35.7158 31.0965 35.754C31.8131 35.7922 32.5095 36.0139 33.1241 36.3996C33.7387 36.7853 34.2524 37.3229 34.6197 37.9649C34.9871 38.6068 35.1966 39.3333 35.2299 40.0798Z" fill="#273F4D"/>
</g>
<defs>
<clipPath id="clip0_2263_30529">
<rect width="42" height="56" fill="white" transform="translate(11 4)"/>
</clipPath>
</defs>
</svg>
