<svg width="19" height="19" viewBox="0 0 19 19" fill="none" xmlns="http://www.w3.org/2000/svg">
<path fill-rule="evenodd" clip-rule="evenodd" d="M11.6001 5.25094C11.5151 5.24474 11.3272 5.17657 11.1387 4.83442C10.9551 4.50112 10.8344 3.99933 10.8754 3.41413C10.9165 2.82894 11.1059 2.34977 11.3341 2.04653C11.5684 1.73522 11.7639 1.69503 11.8488 1.70122C11.9338 1.70742 12.1217 1.7756 12.3102 2.11775C12.4938 2.45104 12.6145 2.95283 12.5735 3.53803C12.5325 4.12323 12.3431 4.60239 12.1149 4.90564C11.8806 5.21694 11.6851 5.25714 11.6001 5.25094ZM9.17995 3.29042C9.11946 4.15374 9.2867 4.99106 9.6507 5.65183C10.0098 6.30375 10.6291 6.88461 11.4813 6.94678C12.3334 7.00896 13.0274 6.52393 13.4738 5.93079C13.9262 5.32958 14.2085 4.52507 14.269 3.66175C14.3295 2.79842 14.1622 1.96111 13.7983 1.30033C13.4391 0.648414 12.8198 0.0675593 11.9677 0.00538214C11.1155 -0.056795 10.4215 0.428234 9.97517 1.02138C9.52275 1.62259 9.24045 2.4271 9.17995 3.29042ZM5.69552 2.11973C5.50752 2.45037 5.38031 2.95018 5.41378 3.53547C5.44726 4.12077 5.63059 4.60209 5.855 4.90816C6.08531 5.22228 6.2807 5.2655 6.3666 5.26039C6.45251 5.25527 6.64164 5.18914 6.83458 4.84983C7.02258 4.51919 7.14979 4.01938 7.11632 3.43409C7.08284 2.84879 6.89951 2.36747 6.6751 2.0614C6.44479 1.74729 6.2494 1.70406 6.1635 1.70917C6.07759 1.71429 5.88846 1.78042 5.69552 2.11973ZM4.21849 1.28177C4.58643 0.634671 5.21358 0.0627349 6.06643 0.0119464C6.91928 -0.0388422 7.60737 0.45477 8.04658 1.0538C8.49168 1.66087 8.7639 2.46901 8.81331 3.33303C8.86273 4.19705 8.68448 5.03201 8.31161 5.68779C7.94367 6.33489 7.31652 6.90683 6.46367 6.95761C5.61082 7.0084 4.92273 6.51479 4.48352 5.91576C4.03842 5.30869 3.7662 4.50055 3.71679 3.63653C3.66737 2.77251 3.84562 1.93755 4.21849 1.28177ZM9.00288 9.71131C7.83312 9.71131 6.75602 9.92623 6.09917 10.5329L6.09912 10.533C5.61581 10.9793 5.21543 11.5105 4.96923 12.0812C4.71462 12.6714 4.58464 13.3104 4.58831 13.9564L4.58834 13.9612C4.58832 14.5165 5.02769 14.7798 5.34727 14.7125L6.51026 14.4676C6.55027 15.0446 6.75131 15.5929 7.0701 16.087L5.69759 16.376C4.16875 16.698 2.88972 15.4352 2.88832 13.9636C2.88366 13.0844 3.06066 12.2136 3.4083 11.4078C3.76465 10.5818 4.32021 9.8618 4.94569 9.28415L4.94574 9.2841C6.09553 8.22211 7.7358 8.01131 9.00288 8.01131C10.2119 8.01131 11.3051 8.20751 12.3282 9.00466C11.5862 9.04427 10.7638 9.3345 9.97645 9.78123C9.68507 9.73142 9.36484 9.71131 9.00288 9.71131ZM1.77808 7.03519C1.66868 6.69037 1.67781 6.38178 1.73928 6.17601C1.7694 6.07516 1.8072 6.0142 1.83403 5.98251C1.8577 5.95455 1.87136 5.95014 1.87392 5.94931L1.8741 5.94925L1.87428 5.94919C1.87683 5.94833 1.89043 5.94374 1.92567 5.95223C1.96561 5.96186 2.03125 5.98866 2.11358 6.05235C2.28157 6.18231 2.46622 6.42689 2.57562 6.77171C2.68503 7.11653 2.67589 7.42512 2.61442 7.63088C2.5843 7.73173 2.5465 7.7927 2.51968 7.82438C2.49601 7.85234 2.48235 7.85676 2.47978 7.85759L2.4796 7.85765L2.47943 7.85771C2.47687 7.85857 2.46327 7.86316 2.42803 7.85466C2.3881 7.84503 2.32245 7.81824 2.24012 7.75454C2.07214 7.62458 1.88749 7.38001 1.77808 7.03519ZM1.35997 4.32886C0.683917 4.55221 0.288373 5.1266 0.117375 5.69905C-0.0549845 6.27606 -0.0358803 6.93884 0.163891 7.56847C0.363663 8.1981 0.728864 8.74655 1.19993 9.11099C1.66728 9.47255 2.31768 9.70139 2.99373 9.47804C3.66979 9.25469 4.06533 8.6803 4.23633 8.10784C4.40869 7.53084 4.38958 6.86805 4.18981 6.23842C3.99004 5.60879 3.62484 5.06035 3.15377 4.69591C2.68643 4.33435 2.03603 4.10551 1.35997 4.32886ZM15.5289 7.7059L15.5291 7.70596L15.5293 7.70602C15.5317 7.70686 15.5452 7.71146 15.5803 7.70308C15.6202 7.69357 15.6858 7.667 15.7681 7.60358C15.9362 7.47419 16.1212 7.23035 16.2313 6.88614C16.3413 6.54193 16.3329 6.23367 16.272 6.02804C16.2421 5.92726 16.2045 5.86633 16.1778 5.83467C16.1543 5.80677 16.1408 5.80237 16.1383 5.80156L16.1381 5.8015L16.1379 5.80144C16.1355 5.8006 16.122 5.796 16.0869 5.80438C16.047 5.81389 15.9814 5.84046 15.8991 5.90388C15.731 6.03327 15.546 6.27711 15.436 6.62132C15.3259 6.96553 15.3343 7.27379 15.3952 7.47942C15.4251 7.5802 15.4627 7.64113 15.4894 7.67279C15.5129 7.70069 15.5264 7.70509 15.5289 7.7059ZM13.7723 7.95264C13.6013 7.37549 13.6219 6.71308 13.823 6.08425C14.0241 5.45542 14.3904 4.90811 14.862 4.54495C15.33 4.18466 15.9806 3.95743 16.6559 4.18228C17.3312 4.40714 17.7253 4.98224 17.8949 5.55483C18.0659 6.13197 18.0453 6.79438 17.8442 7.42321C17.6431 8.05204 17.2768 8.59935 16.8052 8.96251C16.3372 9.3228 15.6866 9.55003 15.0113 9.32518C14.336 9.10032 13.9419 8.52523 13.7723 7.95264ZM11.8675 10.1584C12.2817 10.1584 12.6175 10.4942 12.6175 10.9084V13.3446H15.116C15.5303 13.3446 15.866 13.6804 15.866 14.0946C15.866 14.5089 15.5303 14.8446 15.116 14.8446H12.6175V17.2808C12.6175 17.695 12.2817 18.0308 11.8675 18.0308C11.4533 18.0308 11.1175 17.695 11.1175 17.2808V14.8446H8.61884C8.20462 14.8446 7.86884 14.5089 7.86884 14.0946C7.86884 13.6804 8.20462 13.3446 8.61884 13.3446H11.1175V10.9084C11.1175 10.4942 11.4533 10.1584 11.8675 10.1584Z" fill="#818598"/>
</svg>
