<svg width="20" height="20" viewBox="0 0 20 20" fill="none" xmlns="http://www.w3.org/2000/svg">
    <path d="M14.9928 4.85C15.4623 4.85 15.8428 4.46944 15.8428 4C15.8428 3.53056 15.4623 3.15 14.9928 3.15V4.85ZM5 15.15C4.53056 15.15 4.15 15.5306 4.15 16C4.15 16.4694 4.53056 16.85 5 16.85V15.15ZM10.85 2C10.85 1.53056 10.4694 1.15 10 1.15C9.53056 1.15 9.15 1.53056 9.15 2H10.85ZM9.15 18C9.15 18.4694 9.53056 18.85 10 18.85C10.4694 18.85 10.85 18.4694 10.85 18H9.15ZM4.15 6V8H5.85V6H4.15ZM7 10.85H13V9.15H7V10.85ZM14.15 12V14H15.85V12H14.15ZM14.9928 3.15H10V4.85H14.9928V3.15ZM10 3.15H7V4.85H10V3.15ZM10.85 4V2H9.15V4H10.85ZM13 15.15H10V16.85H13V15.15ZM10 15.15H5V16.85H10V15.15ZM9.15 16V18H10.85V16H9.15ZM9.15 4V16H10.85V4H9.15ZM14.15 14C14.15 14.6351 13.6351 15.15 13 15.15V16.85C14.574 16.85 15.85 15.574 15.85 14H14.15ZM13 10.85C13.6351 10.85 14.15 11.3649 14.15 12H15.85C15.85 10.426 14.574 9.15 13 9.15V10.85ZM4.15 8C4.15 9.57401 5.42599 10.85 7 10.85V9.15C6.36487 9.15 5.85 8.63513 5.85 8H4.15ZM5.85 6C5.85 5.36487 6.36487 4.85 7 4.85V3.15C5.42599 3.15 4.15 4.42599 4.15 6H5.85Z" fill="#818598"/>
</svg>
