<svg width="64" height="64" viewBox="0 0 64 64" fill="none" xmlns="http://www.w3.org/2000/svg">
<g clip-path="url(#clip0_2263_7278)">
<path d="M49.6521 11.0553L38.0124 5.18167C36.4827 4.40671 34.7886 4.00171 33.0696 4L30.9346 4L30.7576 4.24736C29.8405 4.44541 28.953 4.75943 28.1171 5.18167L16.4775 11.0553C12.5933 13.0153 10.1299 17.0976 10.1299 21.5722V22.4892C10.1299 36.2075 16.5811 49.0656 27.4203 56.9481L30.4371 59.1445C30.6169 59.2745 30.8061 59.3914 31.0031 59.4942L30.9346 60.0032H33.0648C34.0101 60.002 34.9301 59.701 35.6893 59.1445L38.706 56.9513C49.5468 49.0609 55.9933 36.2075 55.9933 22.4892V21.5722C55.9933 17.0976 53.5346 13.0153 49.6521 11.0553ZM50.6757 22.4892C50.6757 34.3972 45.0568 45.5915 35.6478 52.4342L33.0648 54.3138L30.4817 52.4342C21.0743 45.5947 15.4538 34.3972 15.4538 22.4892V21.5722C15.4538 19.223 16.7709 17.0409 18.8022 16.012L30.4419 10.1384C31.2515 9.7288 32.148 9.51522 33.0576 9.51522C33.9672 9.51522 34.8637 9.7288 35.6733 10.1384L47.313 16.012C49.3523 17.0409 50.6614 19.223 50.6614 21.5722L50.6757 22.4892Z" fill="#00806A"/>
<path d="M47.5222 11.0553L35.8825 5.18167C34.352 4.40507 32.6562 4 30.9357 4C29.2152 4 27.5194 4.40507 25.9888 5.18167L14.3492 11.0553C10.4651 13.0153 8 17.0976 8 21.5722V22.4892C8 36.2075 14.4512 49.0609 25.2921 56.9481L28.3088 59.1445C29.0681 59.7021 29.9889 60.0032 30.9349 60.0032C31.8809 60.0032 32.8017 59.7021 33.561 59.1445L36.5777 56.9513C47.4201 49.0735 53.8698 36.2107 53.8698 22.4923V21.5753C53.8698 17.0976 51.4063 13.0153 47.5222 11.0553ZM48.5458 22.4892C48.5458 34.3972 42.9285 45.5915 33.5179 52.4342L30.9349 54.3138L28.3503 52.4342C18.9413 45.5947 13.3239 34.3972 13.3239 22.4892V21.5722C13.3239 19.223 14.641 17.0409 16.6723 16.012L28.312 10.1384C29.1216 9.7288 30.0182 9.51522 30.9277 9.51522C31.8373 9.51522 32.7338 9.7288 33.5434 10.1384L45.1831 16.012C47.2208 17.0409 48.5315 19.223 48.5315 21.5722L48.5458 22.4892Z" fill="#00E6BF"/>
<path d="M48.5461 21.5726V22.4896C48.5461 34.3976 42.9288 45.5919 33.5182 52.4346L30.9352 54.3142H29.3662L29.1302 53.0002L28.3505 52.4346C18.9415 45.5951 13.3242 34.3976 13.3242 22.4896V21.5726C13.3242 19.2234 14.6413 17.0413 16.6726 16.0124L28.3123 10.1388C29.1219 9.72921 30.0184 9.51563 30.928 9.51562C31.8376 9.51563 32.7341 9.72921 33.5437 10.1388L45.1834 16.0124C47.2243 17.0413 48.5461 19.2234 48.5461 21.5726Z" fill="#00806A"/>
<path d="M46.9748 21.5726V22.4896C46.9748 34.3976 41.3559 45.5919 31.9469 52.4346L29.3655 54.3142L26.7808 52.4346C20.1032 47.5803 15.3341 40.5344 13.1306 32.5983C12.2154 29.3049 11.752 25.9049 11.7529 22.4896V21.5726C11.7529 19.2234 13.07 17.0413 15.1013 16.0124L26.741 10.1388C27.5506 9.72921 28.4471 9.51562 29.3567 9.51562C30.2663 9.51562 31.1628 9.72921 31.9724 10.1388L42.2472 15.3239L43.6121 16.0124C45.6562 17.0413 46.9748 19.2234 46.9748 21.5726Z" fill="#00B395"/>
<path d="M42.2536 15.3239L13.1306 32.5983C12.2154 29.3049 11.752 25.9049 11.7529 22.4896V21.5726C11.7529 19.2234 13.07 17.0413 15.1013 16.0124L26.741 10.1388C27.5506 9.72921 28.4471 9.51562 29.3567 9.51562C30.2663 9.51562 31.1628 9.72921 31.9724 10.1388L42.2536 15.3239Z" fill="#00CCAA"/>
<path d="M38.3838 24.7078C38.3519 24.6763 38.3184 24.6495 38.2866 24.6212L38.3328 24.21H37.105C36.658 24.2222 36.233 24.4045 35.9188 24.7189L27.3485 33.2741C27.1866 33.4352 26.9941 33.5631 26.782 33.6504C26.5699 33.7376 26.3425 33.7825 26.1128 33.7825C25.883 33.7825 25.6556 33.7376 25.4435 33.6504C25.2314 33.5631 25.0389 33.4352 24.877 33.2741L21.1205 29.57C21.0177 29.469 20.9025 29.3811 20.7776 29.3085L20.9243 29.0674H19.8082C19.3745 29.0861 18.9637 29.2649 18.657 29.5684C18.4952 29.7282 18.3668 29.9179 18.2792 30.1268C18.1916 30.3356 18.1465 30.5595 18.1465 30.7855C18.1465 31.0116 18.1916 31.2355 18.2792 31.4443C18.3668 31.6531 18.4952 31.8429 18.657 32.0027L24.8914 38.1631C25.202 38.4706 25.6191 38.6502 26.0585 38.6657H27.3038L27.2656 38.2434L27.3628 38.1568L38.3982 27.1405C38.7219 26.8156 38.9021 26.3772 38.8994 25.9212C38.8967 25.4653 38.7113 25.029 38.3838 24.7078Z" fill="#00806A"/>
<path d="M26.0066 38.1645L19.7722 32.0041C19.6104 31.8443 19.482 31.6546 19.3944 31.4458C19.3068 31.2369 19.2617 31.0131 19.2617 30.787C19.2617 30.5609 19.3068 30.3371 19.3944 30.1282C19.482 29.9194 19.6104 29.7297 19.7722 29.5699C19.9339 29.4099 20.1259 29.2831 20.3373 29.1965C20.5486 29.11 20.7752 29.0654 21.004 29.0654C21.2327 29.0654 21.4593 29.11 21.6706 29.1965C21.882 29.2831 22.074 29.4099 22.2357 29.5699L25.9939 33.2819C26.1556 33.4429 26.348 33.5708 26.5599 33.658C26.7719 33.7453 26.9992 33.7902 27.2288 33.7902C27.4584 33.7902 27.6857 33.7453 27.8977 33.658C28.1096 33.5708 28.302 33.4429 28.4637 33.2819L37.0356 24.7266C37.1965 24.5659 37.3878 24.438 37.5987 24.3504C37.8096 24.2627 38.0359 24.217 38.2647 24.2158C38.4935 24.2147 38.7202 24.2581 38.932 24.3435C39.1438 24.429 39.3365 24.5549 39.499 24.714C39.6618 24.8731 39.7912 25.0623 39.8799 25.2708C39.9686 25.4794 40.0149 25.7031 40.0161 25.9293C40.0173 26.1555 39.9733 26.3797 39.8868 26.5891C39.8003 26.7986 39.6729 26.9891 39.5118 27.1498L28.4765 38.1661C28.3145 38.3269 28.122 38.4544 27.9101 38.5414C27.6981 38.6284 27.4708 38.6731 27.2412 38.6729C27.0117 38.6728 26.7844 38.6278 26.5725 38.5406C26.3607 38.4533 26.1683 38.3255 26.0066 38.1645Z" fill="white"/>
</g>
<defs>
<clipPath id="clip0_2263_7278">
<rect width="48" height="56" fill="white" transform="translate(8 4)"/>
</clipPath>
</defs>
</svg>
