<svg width="21" height="20" viewBox="0 0 21 20" fill="none" xmlns="http://www.w3.org/2000/svg">
<path fill-rule="evenodd" clip-rule="evenodd" d="M4.16629 13.2195C3.82442 12.8978 3.28647 12.9142 2.96476 13.256C2.64304 13.5979 2.65938 14.1358 3.00125 14.4576L6.62599 17.8686C6.95327 18.1766 7.46374 18.1766 7.79102 17.8686L11.4158 14.4576C11.7576 14.1358 11.774 13.5979 11.4523 13.256C11.1305 12.9142 10.5926 12.8978 10.2507 13.2195L8.0585 15.2825L8.0585 5.41774C8.0585 4.88624 8.48937 4.45537 9.02087 4.45537C9.49031 4.45537 9.87087 4.07481 9.87087 3.60537C9.87087 3.13593 9.49031 2.75537 9.02087 2.75537C7.55049 2.75537 6.3585 3.94736 6.3585 5.41774L6.3585 15.2825L4.16629 13.2195ZM11.4158 6.78267C11.0739 7.10438 10.5359 7.08805 10.2142 6.74618C9.89252 6.40431 9.90885 5.86637 10.2507 5.54465L13.8755 2.13359C14.2027 1.8256 14.7132 1.8256 15.0405 2.13359L18.6652 5.54465C19.0071 5.86637 19.0234 6.40431 18.7017 6.74618C18.38 7.08805 17.8421 7.10438 17.5002 6.78267L15.308 4.71968L15.308 15.4372C15.308 16.9076 14.116 18.0996 12.6456 18.0996C12.1762 18.0996 11.7956 17.719 11.7956 17.2496C11.7956 16.7802 12.1762 16.3996 12.6456 16.3996C13.1771 16.3996 13.608 15.9687 13.608 15.4372L13.608 4.71968L11.4158 6.78267Z" fill="#40434F" />
</svg>
