<svg width="20" height="21" viewBox="0 0 20 21" fill="none" xmlns="http://www.w3.org/2000/svg">
<path fill-rule="evenodd" clip-rule="evenodd" d="M14.6794 8.56055C15.0185 8.88523 15.5566 8.87356 15.8812 8.5345C16.2059 8.19543 16.1942 7.65737 15.8552 7.3327L10.5857 2.28685C10.257 1.97209 9.73864 1.97209 9.40992 2.28685L4.14042 7.3327C3.80136 7.65737 3.78969 8.19543 4.11437 8.5345C4.43904 8.87356 4.9771 8.88523 5.31616 8.56055L9.1478 4.89155V12.9925C9.1478 13.4619 9.52835 13.8425 9.9978 13.8425C10.4672 13.8425 10.8478 13.4619 10.8478 12.9925V4.89155L14.6794 8.56055ZM3.85 16.3473C3.38056 16.3473 3 16.7279 3 17.1973C3 17.6668 3.38056 18.0473 3.85 18.0473L16.1455 18.0473C16.6149 18.0473 16.9955 17.6668 16.9955 17.1973C16.9955 16.7279 16.6149 16.3473 16.1455 16.3473L3.85 16.3473Z"/>
</svg>
