<?xml version="1.0"?>
<svg fill="#000000" xmlns="http://www.w3.org/2000/svg"  viewBox="0 0 20 20" width="20px" height="20px">
    <path fill="#283544" d="M19 10.5C19 15.744 14.7487 20 9.5 20C4.25125 20 0 15.744 0 10.5C0 5.25125 4.25125 1 9.5 1C14.7487 1 19 5.25125 19 10.5Z"/>
    <path fill="white" d="M13.9529 8.09608C13.901 8.12632 12.6669 8.76454 12.6669 10.1796C12.7251 11.7934 14.2243 12.3594 14.25 12.3594C14.2243 12.3896 14.0237 13.1303 13.4294 13.9068C12.9578 14.5756 12.4343 15.25 11.6394 15.25C10.8833 15.25 10.6118 14.8042 9.73939 14.8042C8.80245 14.8042 8.53734 15.25 7.81999 15.25C7.02509 15.25 6.46285 14.5395 5.96551 13.8769C5.31939 13.0098 4.77021 11.6489 4.75082 10.3422C4.73775 9.64979 4.88021 8.96916 5.24184 8.39103C5.75224 7.58394 6.66347 7.03605 7.65857 7.01799C8.42101 6.99403 9.09959 7.50578 9.5649 7.50578C10.0108 7.50578 10.8445 7.01799 11.7877 7.01799C12.1949 7.01838 13.2806 7.13267 13.9529 8.09608ZM9.50041 6.87974C9.3647 6.24741 9.73939 5.61509 10.0884 5.21173C10.5343 4.72394 11.2386 4.39285 11.8459 4.39285C11.8847 5.02518 11.639 5.64533 11.1998 6.09699C10.8057 6.58478 10.1271 6.952 9.50041 6.87974Z"/>
</svg>
