<svg xmlns="http://www.w3.org/2000/svg" width="20" height="20" viewBox="0 0 20 20" fill="none">
    <path d="M17.9999 10.18C17.9999 9.65335 17.9522 9.15335 17.8705 8.66669H10.1736V11.6734H14.5806C14.383 12.66 13.8041 13.4934 12.9458 14.06V16.06H15.575C17.1144 14.6667 17.9999 12.6134 17.9999 10.18Z" fill="#4285F4"/>
    <path d="M10.1737 18C12.3806 18 14.2265 17.28 15.5751 16.06L12.9459 14.06C12.2103 14.54 11.2771 14.8333 10.1737 14.8333C8.04171 14.8333 6.23669 13.4267 5.5896 11.5267H2.87866V13.5867C4.22051 16.2 6.97913 18 10.1737 18Z" fill="#34A853"/>
    <path d="M5.58961 11.5267C5.41933 11.0467 5.33078 10.5333 5.33078 9.99999C5.33078 9.46666 5.42614 8.95333 5.58961 8.47333V6.41333H2.87867C2.32014 7.49333 2 8.70666 2 9.99999C2 11.2933 2.32014 12.5067 2.87867 13.5867L5.58961 11.5267Z" fill="#FBBC05"/>
    <path d="M10.1737 5.16667C11.3793 5.16667 12.4555 5.57334 13.3069 6.36667L15.6364 4.08667C14.2265 2.79333 12.3806 2 10.1737 2C6.97913 2 4.22051 3.8 2.87866 6.41334L5.5896 8.47334C6.23669 6.57334 8.04171 5.16667 10.1737 5.16667Z" fill="#EA4335"/>
</svg>
