<?xml version="1.0"?>
<svg width="20" height="20" viewBox="0 0 20 20" fill="none" xmlns="http://www.w3.org/2000/svg">
<path d="M1 10C1 5.02944 5.02944 1 10 1C14.9706 1 19 5.02944 19 10C19 14.9706 14.9706 19 10 19C5.02944 19 1 14.9706 1 10Z" fill="#55ACEE"/>
<path d="M10.3411 8.39414L10.365 8.78342L9.96757 8.73575C8.52101 8.55303 7.25726 7.93337 6.18427 6.89265L5.65969 6.37626L5.52457 6.7576C5.23844 7.60765 5.42125 8.50536 6.01736 9.10914C6.33528 9.4428 6.26375 9.49047 5.71533 9.29186C5.52458 9.2283 5.35766 9.18064 5.34177 9.20447C5.28613 9.26008 5.47689 9.98302 5.6279 10.269C5.83455 10.6662 6.2558 11.0555 6.71679 11.2859L7.10625 11.4686L6.64526 11.4766C6.20016 11.4766 6.18427 11.4845 6.23196 11.6513C6.39092 12.1677 7.01882 12.7159 7.71825 12.9542L8.21104 13.1211L7.78184 13.3753C7.14599 13.7407 6.39887 13.9473 5.65174 13.9632C5.29408 13.9711 5 14.0029 5 14.0267C5 14.1062 5.96967 14.551 6.53398 14.7258C8.22693 15.2422 10.2378 15.0198 11.7479 14.1379C12.8209 13.5103 13.8939 12.2631 14.3947 11.0555C14.6649 10.412 14.9351 9.23625 14.9351 8.67219C14.9351 8.30675 14.959 8.25909 15.4041 7.82214C15.6664 7.56792 15.9127 7.28987 15.9604 7.21043C16.0399 7.05948 16.032 7.05948 15.6266 7.19454C14.951 7.43287 14.8557 7.40109 15.1895 7.04359C15.4359 6.78937 15.7299 6.3286 15.7299 6.19354C15.7299 6.16971 15.6107 6.20943 15.4756 6.28093C15.3325 6.36038 15.0146 6.47954 14.7762 6.55104L14.347 6.6861L13.9575 6.42393C13.7429 6.28093 13.4409 6.12204 13.2819 6.07438C12.8766 5.96316 12.2566 5.97904 11.891 6.10616C10.8975 6.46365 10.2696 7.3852 10.3411 8.39414Z" fill="white"/>
</svg>
